<svg width="24" height="24" fill="none" xmlns="http://www.w3.org/2000/svg"><path d="M21.221 10.185H19.15c.169.605.253 1.21.253 1.815a7.247 7.247 0 0 1-.58 2.874 7.433 7.433 0 0 1-1.592 2.37 7.449 7.449 0 0 1-2.375 1.588c-.91.386-1.87.58-2.88.58a7.105 7.105 0 0 1-2.855-.58 7.433 7.433 0 0 1-3.941-3.958A7.245 7.245 0 0 1 4.598 12c0-.605.084-1.21.253-1.815H2.728v10.134c0 .27.093.488.278.656a.978.978 0 0 0 .682.252h16.624a.89.89 0 0 0 .656-.252.886.886 0 0 0 .253-.656V10.185zm0-6.454a.974.974 0 0 0-.253-.68.847.847 0 0 0-.656-.278h-2.78a.847.847 0 0 0-.656.277.974.974 0 0 0-.253.681v2.723c0 .269.084.496.253.68a.847.847 0 0 0 .657.278h2.779c.27 0 .488-.093.656-.278a.974.974 0 0 0 .253-.68V3.73zm-9.246 3.68c-1.28 0-2.367.446-3.26 1.337-.892.89-1.338 1.975-1.338 3.252 0 .639.118 1.244.354 1.815.235.572.564 1.067.985 1.488a4.552 4.552 0 0 0 3.259 1.336c.64 0 1.246-.118 1.819-.353a4.513 4.513 0 0 0 1.49-.984 4.5 4.5 0 0 0 .986-1.487A4.711 4.711 0 0 0 16.623 12a4.526 4.526 0 0 0-1.339-3.252 4.513 4.513 0 0 0-1.49-.983 4.739 4.739 0 0 0-1.82-.353zM2.728 24c-.774 0-1.423-.269-1.945-.807S0 22 0 21.227V2.773C0 2 .261 1.345.783.807S1.953 0 2.728 0h18.493c.775 0 1.432.269 1.97.807.54.538.809 1.193.809 1.966v18.454c0 .773-.27 1.428-.808 1.966a2.684 2.684 0 0 1-1.97.807H2.727z" fill="#FCF9F9"/></svg>