<svg viewBox="0 0 24 24" fill="currentColor" xmlns="http://www.w3.org/2000/svg">
    <path fill-rule="evenodd" clip-rule="evenodd"
        d="M15.9433 7.82735C15.9433 12.309 12.3102 15.9421 7.82848 15.9421C7.38147 15.9421 6.94268 15.9059 6.51497 15.8362C6.29233 15.8 6.125 16.0438 6.26292 16.2223C7.56173 17.9033 9.59783 18.9857 11.8856 18.9857C15.807 18.9857 18.986 15.8067 18.986 11.8852C18.986 9.59795 17.9041 7.56223 16.2237 6.26338C16.0452 6.12543 15.8014 6.29271 15.8376 6.51536C15.9071 6.94259 15.9433 7.38087 15.9433 7.82735ZM14.4514 5.26221C14.7598 6.05782 14.9289 6.92284 14.9289 7.82735C14.9289 11.7488 11.7499 14.9278 7.82848 14.9278C6.92349 14.9278 6.05804 14.7585 5.26209 14.4498C5.01415 14.3537 4.77295 14.244 4.5394 14.1217C4.33959 14.0171 4.10063 14.194 4.1707 14.4084C4.26188 14.6873 4.36776 14.9596 4.48743 15.2243C5.76047 18.0405 8.59418 20 11.8856 20C16.3672 20 20.0004 16.3669 20.0004 11.8852C20.0004 8.59436 18.0415 5.76105 15.2261 4.4877C14.9614 4.36798 14.6891 4.26205 14.4102 4.17082C14.1958 4.10071 14.0189 4.33963 14.1235 4.53946C14.2457 4.77303 14.3553 5.01425 14.4514 5.26221Z" />
</svg>