<svg width="24" height="24" xmlns="http://www.w3.org/2000/svg" fill="hsl(var(--rose-gold-700))">
    <path
        d="M12 2c.352 0 .638.286.638.638v3.405a.638.638 0 0 1-1.276 0V2.638c0-.352.286-.638.638-.638z" />
    <path fill-rule="evenodd" clip-rule="evenodd"
        d="M12 17.106a5.106 5.106 0 1 0 0-10.212 5.106 5.106 0 0 0 0 10.212zm0-1.276a3.83 3.83 0 1 0 0-7.66 3.83 3.83 0 0 0 0 7.66z" />
    <path
        d="M12.638 17.957a.638.638 0 0 0-1.276 0v3.405a.638.638 0 0 0 1.276 0v-3.405zM2 12c0-.352.286-.638.638-.638h3.405a.638.638 0 0 1 0 1.276H2.638A.638.638 0 0 1 2 12zM17.957 11.362a.638.638 0 0 0 0 1.276h3.405a.638.638 0 0 0 0-1.276h-3.405zM4.929 19.071a.638.638 0 0 1 0-.902l2.407-2.408a.638.638 0 0 1 .903.903l-2.407 2.407a.638.638 0 0 1-.903 0zM15.76 7.336a.638.638 0 1 0 .903.903l2.408-2.407a.638.638 0 1 0-.903-.903l-2.407 2.407zM4.929 4.929c.25-.25.653-.25.902 0L8.24 7.336a.638.638 0 0 1-.903.903L4.929 5.832a.638.638 0 0 1 0-.903zM16.664 15.762a.638.638 0 1 0-.902.902l2.407 2.407a.638.638 0 1 0 .902-.902l-2.407-2.407z" />
</svg>