<svg width="102" height="56" fill="none" xmlns="http://www.w3.org/2000/svg">
    <path
        d="M101.599 21.075c-8.982 2.114-19.352 9.753-19.454 19.693 0 .326-.081.623-.245.892-.289.489-.458.45-.505-.115-1.1-11.178-9.58-18.673-20.24-20.58C72.984 18.806 79.85 11.828 81.757.03c0-.008.002-.015.009-.02a.028.028 0 0 1 .02-.009.03.03 0 0 1 .02.008.028.028 0 0 1 .009.02c1.502 10.473 8.838 19.306 19.771 20.744.549.068.553.168.014.303Z"
        fill="#D9B77B" class="logo-hilite" />
    <path
        d="M61.156 20.966a36.39 36.39 0 0 1-.37.065c-.02.01-.034 0-.044-.028v-.044c-.018-.047-.004-.067.044-.057.123.02.246.042.37.064Zm40.713 31.923H60.866c-.073 0-.132.18-.132.4v2.31c0 .221.06.401.132.401h41.003c.072 0 .131-.18.131-.4v-2.31c0-.221-.059-.401-.131-.401Z"
        fill="#D9B77B" class="logo-hilite" />
    <path
        d="M28.936 49.054A2271.547 2271.547 0 0 0 45.59 5.546c.722-1.955.748-3.69.078-5.204C45.57.114 45.645 0 45.894 0l11.5.008c.244 0 .286.09.125.272-1.314 1.478-1.972 3.427-1.978 5.849a8369.964 8369.964 0 0 0-.008 42.24v.001c-.008 3.137-.012 5.175 2.048 7.148.27.259.218.389-.156.389h-8.541c-.296 0-.345-.11-.148-.327 1.293-1.452 1.944-3.474 1.954-6.067.042-14.585.037-29.343-.015-44.27-.005-1.038-.462-1.302-1.37-.794-.712.394-1.47 1.623-2.274 3.687a9000.567 9000.567 0 0 0-18.04 46.767 1.626 1.626 0 0 1-2.44.756 1.625 1.625 0 0 1-.597-.756A16502.785 16502.785 0 0 0 8.288 8.867c-.722-1.883-1.459-3.213-2.211-3.99-1.033-1.063-1.552-.856-1.558.622a6976.973 6976.973 0 0 0-.015 44.185c.01 2.5.68 4.475 2.009 5.927.176.197.132.296-.133.296H.393c-.452 0-.514-.156-.187-.467 1.308-1.219 1.97-2.619 1.985-4.2.073-6.533.078-21.506.016-44.917-.01-2.577-.67-4.589-1.978-6.035C.06.1.097.008.346.008L11.87 0c.322 0 .387.13.195.389-1.418 1.865-.568 4.083.285 6.308l.151.396c5.32 14 10.672 27.987 16.055 41.961.124.327.252.327.381 0Z"
        fill="#0C1A0E" class="logo-fill" />
</svg>