<svg xmlns="http://www.w3.org/2000/svg" fill="none" viewBox="0 0 48 48">
    <path
        d="M41.6501 18.0639C33.8138 19.8764 24.767 26.4238 24.6787 34.944C24.6787 35.2236 24.6074 35.4783 24.4647 35.7085C24.2127 36.1277 24.0653 36.0948 24.0239 35.6098C23.0648 26.0288 15.6658 19.605 6.36742 17.9706C16.6861 16.1194 22.6763 10.1375 24.3391 0.0246612C24.3391 0.0181261 24.3411 0.0118387 24.3465 0.00727654C24.3513 0.00259101 24.3574 0 24.3642 0C24.3703 0 24.3764 0.00259101 24.3819 0.00727654C24.3866 0.0118387 24.3893 0.0181261 24.3893 0.0246612C25.6996 9.00108 32.1 16.5719 41.6372 17.805C42.1161 17.8625 42.1202 17.9488 41.6501 18.0639Z"
    />
    <path
        d="M6.36742 17.9706C6.2603 17.9898 6.15277 18.0086 6.04471 18.0269C6.02834 18.0352 6.01578 18.0269 6.00695 18.0022V17.9652C5.99057 17.9242 6.00314 17.9076 6.04471 17.9159C6.15257 17.9335 6.2601 17.9517 6.36742 17.9706Z"
    />
    <path
        d="M41.8852 45.3333H6.11478C6.0514 45.3333 6.00005 45.4873 6.00005 45.6767V47.6567C6.00005 47.846 6.0514 48 6.11478 48H41.8852C41.9484 48 42 47.846 42 47.6567V45.6767C42 45.4873 41.9484 45.3333 41.8852 45.3333Z"
    />
    <style>
        path { fill: #1D3E22; }
        @media (prefers-color-scheme: dark) {
        path { fill: #D9B77B; }
        }
    </style>
</svg>