<svg width="16" height="16" fill="none" xmlns="http://www.w3.org/2000/svg"><g clip-path="url(#Icon - Instagram__a)"><path d="M14.147 6.79h-1.38c.112.403.168.807.168 1.21a4.957 4.957 0 0 1-1.448 3.496c-.45.448-.978.8-1.584 1.059a4.858 4.858 0 0 1-1.92.386 4.737 4.737 0 0 1-1.903-.386A4.955 4.955 0 0 1 3.065 8c0-.403.056-.807.169-1.21H1.819v6.756c0 .18.062.325.185.437a.652.652 0 0 0 .455.168h11.082c.18 0 .326-.056.438-.168a.59.59 0 0 0 .168-.437V6.79Zm0-4.303a.65.65 0 0 0-.168-.453.565.565 0 0 0-.438-.185h-1.853a.565.565 0 0 0-.438.185.649.649 0 0 0-.168.453v1.816c0 .179.056.33.168.453a.565.565 0 0 0 .438.185h1.853c.18 0 .326-.061.438-.185a.65.65 0 0 0 .168-.453V2.487ZM7.983 4.941c-.853 0-1.577.297-2.172.89-.596.595-.893 1.317-.893 2.169 0 .426.078.83.236 1.21a3.002 3.002 0 0 0 1.633 1.647c.37.157.77.235 1.196.235.427 0 .831-.078 1.213-.235.382-.157.713-.375.994-.655A3.122 3.122 0 0 0 11.082 8a3.018 3.018 0 0 0-1.886-2.824 3.16 3.16 0 0 0-1.213-.235ZM1.82 16c-.517 0-.949-.18-1.297-.538A1.812 1.812 0 0 1 0 14.152V1.848C0 1.333.174.896.522.538.87.179 1.302 0 1.82 0h12.328c.517 0 .955.18 1.314.538.36.358.539.795.539 1.31v12.303c0 .516-.18.953-.539 1.311a1.79 1.79 0 0 1-1.314.538H1.82Z" fill="#FCF9F9"/></g><defs><clipPath id="Icon - Instagram__a"><path fill="#fff" d="M0 0h16v16H0z"/></clipPath></defs></svg>