<svg width="198" height="165" fill="none" xmlns="http://www.w3.org/2000/svg">
    <path fill-rule="evenodd" clip-rule="evenodd"
        d="M38.559 149.92c-1.213 1.15-2.786 1.773-4.301 2.105-3.231.707-6.043 2.429-9.156 3.381-1.527.468-3.027 1.027-4.536 1.554-2.05.717-4.09 1.465-6.149 2.159-1.899.641-3.904.548-5.866.743-.272.026-.563-.149-.885-.461.615-.164 1.222-.429 1.846-.475 2.86-.209 5.577-.889 8.22-2.02 2.158-.921 4.419-1.596 6.615-2.432a321.07 321.07 0 0 0 7.314-2.897c2.136-.874 4.279-1.743 6.364-2.73 1.186-.563 2.251-1.378 3.39-2.047 1.372-.807 2.773-1.563 4.146-2.367 2.489-1.458 5.011-2.866 7.438-4.422a218.392 218.392 0 0 0 8.942-6.042c3.187-2.273 6.305-4.644 9.419-7.016 3.219-2.452 6.382-4.977 9.599-7.432 2.466-1.882 4.903-3.783 7.156-5.934 1.765-1.686 3.8-3.086 5.634-4.705 3.128-2.764 6.11-5.68 8.929-8.766 1.166-1.276 2.494-2.404 3.709-3.638a406.167 406.167 0 0 0 5.54-5.755c.36-.381.69-.832.884-1.312.132-.33.119-.813-.025-1.142-.549-1.252-1.069-2.495-1.421-3.833-.246-.935-.923-1.758-1.418-2.625-.38-.666-.595-1.313.3-1.907-1.069-1.043-2.061-1.974-3.012-2.946-1.444-1.476-3.156-2.586-4.971-3.51-1.364-.693-2.391-1.818-3.697-2.568-1.423-.819-2.82-1.687-4.257-2.481-1.807-.998-3.649-1.933-5.465-2.914-1.25-.676-2.059-1.824-2.91-2.898-1.195-1.509-2.569-2.809-4.222-3.779-.663-.389-1.433-.62-2.18-.837-2.398-.697-4.794-.804-7.175.119-.327.126-.696.158-1.049.197-2.021.223-2.694-.436-2.343-2.491.208-1.215.684-2.381.979-3.583.211-.854.329-1.731.474-2.6.226-1.351.436-2.704.657-4.055.1-.613.186-1.231.321-1.837.528-2.368 2.03-2.998 4.122-1.74.263.158.516.335.827.538.859-.672 1.741-1.171 2.849-1.343 1.445-.223 2.245-1.846 1.967-3.365a43.69 43.69 0 0 1-.565-4.355c-.079-.982.65-1.483 1.582-1.147.792.286 1.531.852 2.332.942.799.089 1.649-.248 2.471-.421 1.244-.261 2.265.304 3.282.868.614.341 1.201.727 1.927 1.17.282-1.277.017-2.402.036-3.519.022-1.322.057-2.644.094-3.965a.91.91 0 0 1 .104-.385c1.129-2.141 2.117-4.379 3.845-6.136 1.318-1.341 2.181-2.928 2.92-4.64.556-1.288 1.264-2.562 2.628-3.227.352-.172.769-.337 1.142-.311.705.05 1.044-.263 1.328-.853.481-1.002 1.029-1.972 1.558-2.951.312-.579.758-.915 1.454-1.009.975-.132 1.903-.243 2.878.111 1.363.495 2.363-.017 3.393-1.074 1.263-1.295 1.762-2.961 2.7-4.399.4-.614.745-1.272 1.203-1.839.948-1.176 1.837-.663 2.478.437.262.45.386.988.525 1.5.316 1.172 1.16 1.78 2.256 2.022 1.433.315 2.703.836 3.587 2.081.116.163.361.244.559.336 1.506.7 3.059 1.131 4.75 1.133 1.419.002 2.859.072 4.253.319 2.442.434 3.958 1.997 4.894 4.268 1.086 2.634 2.132 5.272 2.685 8.078.119.602.193 1.213.324 2.051.642-.313 1.238-.605 1.834-.894 1.77-.859 3.446-.49 4.324 1.88.041.113.182.19.354.362 1.987-.574 3.997-1.157 5.655-2.58 2.422-2.08 5.258-3.222 8.406-3.634.437-.057.769-.054 1.183.31.824.726 1.454 1.539 1.722 2.582.356 1.379 1.337 2.007 2.588 2.377 1.183.35 2.393.625 3.454 1.302.644.411 1.198.86 1.433 1.661.157.534.538.998.782 1.511.238.503.43 1.028.587 1.408 1.125-.19 2.243-.44 3.374-.55 1.103-.108 1.586.32 1.868 1.407.099.379.209.756.327 1.18.231.003.416-.04.563.015 1.901.707 3.889.795 5.881.806.543.003 1.149-.068 1.619-.312 1.6-.832 1.739-.881 3.782-.256-.099.795-.082 1.657-.327 2.437-.697 2.221-.948 4.504-1.065 6.802-.051 1.001.201 2.013.213 3.023.012.961-.11 1.923-.179 2.976l1.885 1.039c-.247.815-.453 1.535-.684 2.246-.398 1.232-.634 2.47-.543 3.785.116 1.671 0 3.281-1.412 4.538-.416.37-.732 1.011-.491 1.708.217.631-.103 1.163-.492 1.585-.658.713-1.395 1.354-2.21 2.131.684.718 1.378 1.511 2.139 2.233 1.399 1.329 2.405 2.889 2.558 4.826.076.972.545 1.429 1.303 1.813.712.362 1.436.718 2.09 1.17 1.162.804 1.482 2.115.905 3.448-.349.807-.678 1.629-1.103 2.396-.408.739-.468 1.331.118 2.045.735.897 1.122 1.972.365 3.048-.371.527-.883 1.033-1.447 1.327-.951.495-1.312 1.231-1.405 2.231-.214 2.292-.364 4.6-.736 6.869-.263 1.606-.791 3.177-1.309 4.728-.284.85-1.111 1.3-1.921 1.481-1.819.404-3.048 1.532-4.189 3.07 1.13.133 2.162.309 3.2.365 2.271.122 3.575 1.734 1.686 4.266-.419.56-.884 1.086-1.37 1.68.229.618 1.293.923 1.016 1.813-.204.658-.628 1.248-1.005 1.966 1.312 1.078 3.007.182 4.443.796l.05 1.236c-.784.541-1.552 1.147-2.39 1.634-1.91 1.107-3.755 2.319-5.632 3.47-1.774 1.087-3.748 2.02-5.953 2.151-.928.055-1.845.281-2.769.414-1.474.212-2.959.139-4.366-.28-1.543-.459-3.087-.278-4.636-.345-3.708-.162-7.493.096-10.988-1.48-1.193-.537-2.32-1.334-3.292-2.217-1.219-1.108-2.568-2.019-3.931-2.897-.67-.431-1.589-.478-2.396-.698-1.11-.302-2.109-.851-2.646-1.867a31.876 31.876 0 0 0-6.613-8.577c-1.623-1.501-3.131-3.121-5.059-4.278-1.22-.731-2.527-1.107-3.891-1.326-1.279-.204-2.33-.661-3.199-1.71-.966-1.167-1.956-2.289-2.711-3.622-.604-1.067-1.397-2.028-2.144-3.092l-3.844-.149c-.773.696-1.774 1.612-2.791 2.511-1.094.965-2.227 1.889-3.295 2.882-.688.639-1.264 1.396-1.933 2.057-1.732 1.715-3.502 3.391-5.228 5.11-1.13 1.126-2.251 2.266-3.302 3.465-2.035 2.322-4.473 4.164-6.913 6.016-.774.587-1.46 1.288-2.221 1.894-3.182 2.537-6.375 5.06-9.569 7.581-3.329 2.628-6.641 5.279-10.004 7.863-2.878 2.211-5.818 4.342-8.727 6.511-2.349 1.751-4.656 3.563-7.056 5.242-1.477 1.032-3.094 1.864-4.648 2.785-1.411.835-2.799 1.712-4.239 2.492-2.249 1.22-4.539 2.363-6.801 3.559-1.468.775-2.848 1.787-4.395 2.33-1.835.643-3.557 1.495-5.326 2.266-3.074 1.342-6.148 2.697-9.29 3.865-1.76.654-3.662.924-5.49 1.405-1.453.382-2.916.749-4.33 1.25-3.633 1.288-7.356 1.516-11.149 1.12-.119-.012-.229-.093-.437-.183.442-.674 1.084-.589 1.663-.627 1.865-.118 3.75-.094 5.59-.368 1.702-.254 3.356-.823 5.033-1.246 1.42-.357 2.848-.681 4.262-1.059 3.347-.893 6.682-1.81 9.786-3.414.942-.488 1.987-.771 2.961-1.2a523.653 523.653 0 0 0 7.496-3.359c.688-.315 1.322-.741 1.991-1.099 1.566-.834 3.269-1.482 4.672-2.533 1.527-1.143 3.4-1.509 4.915-2.631 1.347-.996 2.821-1.82 4.248-2.707.829-.515 1.706-.96 2.509-1.513 1.419-.979 2.87-1.902 4.137-3.113a17.841 17.841 0 0 1 3.624-2.655c2.344-1.303 4.177-3.248 6.348-4.758.761-.528 1.455-1.159 2.239-1.646 1.55-.964 2.673-2.351 3.91-3.648 1.089-1.142 2.417-2.054 3.623-3.088.197-.167.321-.421.472-.641-.158.008-.346-.022-.45.058-1.888 1.464-3.757 2.953-5.645 4.419-1.989 1.545-3.962 3.115-5.999 4.596a323.254 323.254 0 0 1-8.78 6.192 246.26 246.26 0 0 1-8.592 5.557c-2.034 1.258-4.202 2.303-6.226 3.576-1.567.986-3.352 1.615-4.732 2.902.024.152.122.367.057.44-.132.15-.35.225-.693.424l.14-.639zm79.898-59.543c1.981.539 2.394.266 2.683-1.687-.444.492-.708.95-1.105 1.181-.466.272-1.047.346-1.578.506zm5.155-5.619-1.542-.373.166 1.08 1.376-.707zm-7.388-8.984c-.081.038-.287.075-.301.148-.139.768-.328 1.54-.337 2.313-.006.507.411.731 1.03.519l-.392-2.98zm-1.405 13.886c-.725.517-1.254.792-1.649 1.197-.954.973-1.827 2.025-2.766 3.013a392.105 392.105 0 0 1-4.787 4.95c-2.459 2.5-4.901 5.019-7.414 7.465-1.897 1.846-3.87 3.616-5.852 5.37-1.823 1.615-3.705 3.161-5.554 4.747-.117.099-.165.279-.276.476.247.048.419.056.569.117.146.061.27.177.405.271.405-.379 1.045-.501.857-1.246-.034-.136.182-.423.35-.507 1.087-.545 1.857-1.443 2.733-2.246.87-.797 1.768-1.542 2.47-2.5.103-.141.338-.186.595-.318l.12.882.671-.381c.285-.59.384-1.001.633-1.275 1.194-1.319 2.388-2.647 3.667-3.882.678-.654 1.257-1.502 2.334-1.659.267-.039.53-.325.733-.553 1.257-1.409 2.494-2.837 3.746-4.25.111-.126.274-.263.427-.283.874-.106 1.337-.757 1.918-1.302.761-.716 1.212-1.599 1.705-2.482.297-.533.5-1.215 1.357-1.394l-.434 1.381c1.871-1.093 2.188-3.392 4.071-4.21l-.567-1.109 1.535.659.681-.675c-1.18-.37-1.18-.37-1.29-1.515 1.653.419 2.145.256 2.403-.655-.831-.266-1.65-.538-2.475-.789-.818-.249-1.642-.478-2.583-.751l1.667 3.454zm8.977-4.881c1.183.455 2.189.508 2.769.082l-2.769-.082zm-13.007-3.771c.05.791.355 1.202.852 1.59.582.454 1.037 1.068 1.56 1.6.305.312.681.563.948.902.731.929 2.23.604 2.816 1.759.037.073.246.072.376.082 1.516.12 2.434-.861 2.248-2.391a1.096 1.096 0 0 1 .012-.379c.208-.881.425-1.761.655-2.701-3.13-1.593-6.203-2.198-9.467-.462zm10.494 5.571c-.981.009-1.432.62-1.958 1.143-.494.49-1.043.926-1.742 1.539l1.515-.036a297.72 297.72 0 0 1-.326-.583l2.683-.482-.172-1.581zm-41.745 35.793c.275.169.548.339.788.488l2.87-2.239-.189-.237-2.261 1.645-.129-.154.323-.59-.206-.165-1.196 1.252zm49.722-38.143c-.509.243-1.024.492-1.691.813.583.07 1.014.105 1.438.177.297.05.757.061.848.241.361.714 1.032.575 1.596.68 1.266.234 2.543.412 3.816.612l-.032.283-5.711-.608-.044.328c1.29.26 2.571.579 3.871.764 1.927.273 3.88.373 5.799.69 2.144.354 4.275.793 6.235 1.836 1.373.731 2.872 1.24 4.191 2.049 1.721 1.056 3.509 2.028 4.828 3.676.935 1.167 2.049 2.227 3.223 3.159 1.327 1.053 2.732 1.975 3.567 3.529.197.366.614.639.976.886 1.961 1.334 4.158 2 6.506 2.143 2.391.144 4.634.735 6.784 1.809.964.482 1.542 1.159 1.872 2.13.136.4.29.796.511 1.398.911-.724 1.764-1.238 2.404-1.944a88.079 88.079 0 0 0 4.277-5.08c1.207-1.553 2.571-2.814 4.539-3.264.783-.178 1.121-.685 1.433-1.404.844-1.948 1.222-3.992 1.456-6.071.177-1.578.211-3.174.406-4.75.135-1.093.367-2.181 1.546-2.745 1.965-.941 2.187-1.659 1.174-3.537-.042-.078-.086-.16-.148-.219-.805-.776-.511-1.607-.134-2.445.402-.894.839-1.775 1.191-2.689.387-1.003.214-1.589-.639-2.21a17.602 17.602 0 0 0-1.92-1.191c-1.03-.567-1.995-1.135-1.933-2.551.017-.379-.179-.779-.325-1.15-.903-2.301-2.8-3.804-4.567-5.335-1.497-1.295-3.297-2.213-5.337-2.526-1.787-.274-3.569-.911-5.342-.872-2.007.044-4.025-.038-6.058.221-2.77.353-5.363 1.206-7.974 2.042-2.483.794-4.867 1.777-7.595 1.599-3.038-.199-5.879.744-8.448 2.355-.988.619-1.845 1.458-2.716 2.247a199.196 199.196 0 0 0-4.852 4.517c-.795.77-1.414 1.733-2.252 2.444-1.99 1.687-3.924 3.477-6.353 4.554-1.45.643-2.919 1.241-4.379 1.86-.117.049-.23.106-.378.176.134.289.26.557.435.93l2.956-.708-.001-.002a.003.003 0 0 1 .001.002l1.323-.068c-.472.698-.891.629-1.323.068-.097.37-.194.741-.267 1.026l1.217.125.075-.036.001.002.058.01c.426-.38 1.219-.217 1.411-.945-.139 1.014-.317 1.143-1.411.945a1.124 1.124 0 0 0-.036.034l-.098-.01zm1.566-.962c.461.139.827.055 1.023-.427l.007-.028.003.001c.801-.283 1.601-.573 2.406-.845.214-.072.446-.09.756.084-.279.168-.545.365-.839.498-.473.214-.966.382-1.448.577-.39.16-.683.066-.876-.311l-.009.024-.182.765-.841-.338zm7.468 2.712 2.368.2-.025.28-2.391-.188.048-.292zm.8-5.05-3.561.857c1.118-1.264 2.411-.79 3.561-.857zm-13.449.464.157.196c.755-.359 1.531-.681 2.26-1.088 1.428-.8 2.87-1.588 4.231-2.495 1.025-.684 1.951-1.523 2.884-2.336.429-.375.779-.844 1.146-1.285.311-.372.547-.819.899-1.142 2.129-1.952 4.333-3.825 6.412-5.828 1.753-1.69 3.759-2.797 6.135-3.265a2.29 2.29 0 0 0 .633-.211c1.023-.551 2.102-.489 3.223-.449 1.363.05 2.777.073 4.093-.226 1.934-.439 3.838-1.078 5.686-1.809 1.924-.76 3.901-1.103 5.923-1.463 3.069-.547 6.108-.396 9.118.01 2.991.403 6.038.864 8.492 2.79 1.799-.665 2.398-1.507 2.539-3.203.041-.492.293-1.042.617-1.42 1.078-1.257 1.51-2.658 1.385-4.307-.122-1.609.084-3.194.778-4.686.125-.271.186-.571.305-.944-.493-.096-.854-.349-1.199.23-.36.603-.816 1.157-1.282 1.686-.328.372-.671.814-1.48.663.352-.628.636-1.164.948-1.683 1.144-1.904 1.813-3.951 1.528-6.178-.341-2.663.229-5.208.79-7.761.207-.939.645-1.835.484-2.906-.713-.219-1.351-.354-2.054.06-.48.283-1.075.615-1.582.563-2.282-.233-4.596-.1-6.842-.882-.896-.312-1.383-.648-1.569-1.498-.138-.63-.523-.94-1.146-.853-.696.097-1.377.294-2.072.397-.645.096-1.003.448-1.283 1.023-.665 1.371-1.615 2.543-2.728 3.579-.27.251-.605.433-.91.647l-.249-.202c.211-.344.4-.704.638-1.029.314-.43.703-.808.995-1.25 1.089-1.65 1.663-3.348.37-5.179a2.323 2.323 0 0 1-.357-.714c-.191-.707-.681-1.143-1.287-1.461-.631-.332-1.28-.63-1.931-.922-1.014-.455-2.037-.891-3.054-1.339-.474-.207-.754-.539-.891-1.07-.22-.858-.625-1.629-1.187-2.346-.42-.534-.875-.736-1.492-.636-2.299.372-4.416 1.174-6.308 2.576-1.552 1.15-3.047 2.421-5.029 2.83-.427.088-.833.284-1.244.444-.671.262-1.301.549-1.582 1.316-.28.764-.966 1.087-1.801 1.525.383-.893.735-1.567.963-2.282.254-.8.146-1.631-.449-2.24-.613-.627-1.395-.688-2.227-.332-.485.207-1.038.257-1.522.465-.295.126-.675.379-.74.644-.135.545-.098 1.136-.109 1.708-.014.703.113 1.433-.029 2.106-.415 1.971-.778 3.947-1.009 5.948-.04.345-.116.704-.259 1.018-.624 1.37-1.296 2.719-1.92 4.09-.875 1.921-1.84 3.78-3.149 5.458-.563.723-.94 1.59-1.417 2.382-.32.533-.585 1.128-1.013 1.559-1.858 1.873-3.342 4.015-4.696 6.261-.64 1.06-1.32 2.095-1.991 3.135-.335.519-.712 1.01-1.03 1.538-.364.604-.615 1.285-1.031 1.846-2.34 3.152-4.229 6.548-5.82 10.136-.652 1.471-.795 2.976-.946 4.539.528-.659 1.006-1.338 1.376-2.071.495-.981.812-2.06 1.377-2.994.774-1.281 1.709-2.465 2.576-3.691l1.16-1.648.312.21c-1.023 1.576-2.021 3.17-3.079 4.722-.694 1.017-1.487 1.93-1.709 3.238-.127.742-.712 1.401-1.056 2.115-.482.998-1.007 1.994-.833 3.411.966-1.773 1.815-3.334 2.664-4.896l.275.133c-.253.588-.479 1.19-.763 1.763-.514 1.034-.979 2.073-1.028 3.257-.017.427-.029.814.436 1.009.419.175.612-.115.887-.371.521-.487 1.12-.888 1.686-1.325-.406 1.168-1.551 1.834-1.762 3.226l4.57-1.287-.805.751zm-2.781-3.071c.336-1.389 2.021-4.186 2.811-4.757-.615 1.923-1.304 3.581-2.811 4.757zm14.961-8.568.935-.26c-.171.384-.371.671-.935.26zm-.362.735-.71.247a30.92 30.92 0 0 0-.1-.278l.708-.251.102.282zm-7.226-10.388c.242-1.572 1.997-2.102 2.461-3.642.236.882-.039 1.423-.768 2.152-.519.52-.924 1.154-1.381 1.737a67.323 67.323 0 0 1-.312-.247zm6.204 10.925c-.362.432-.423 1.089-1.172 1.242-.257.052-.509.365-.671.618-1.881 2.939-4.508 5.021-7.53 6.679-.601.329-1.04.951-1.78 1.055-.154.022-.315-.008-.765-.024.65-.439 1.039-.785 1.492-.991 2.276-1.035 4.042-2.715 5.894-4.339 1.198-1.051 1.937-2.449 3.134-3.458.389-.328.77-.667 1.154-1.001l.244.219zm53.831 35.74c-1.325-1.107-2.665-.889-3.92-.942a4.182 4.182 0 0 0-3.373 1.511c-.556.67-.999 1.44-1.619 2.121-1.024 1.126-2.077 1.975-3.615 2.282-1.169.235-1.31.192-1.462-.947-.096-.719-.259-1.604-.734-2.054-.647-.612-1.579-1.05-2.461-1.26-1.977-.47-3.987-.932-6.006-1.067-2.423-.162-4.318-1.306-6.046-2.764-1.757-1.483-3.33-3.182-5.001-4.769-1.351-1.283-2.668-2.613-4.106-3.793-2.494-2.045-5.472-3.259-8.373-4.582-.632-.288-1.38-.307-2.052-.523-1.646-.531-3.323-.801-5.054-.903-1.63-.094-3.271-.286-4.867-.625-1.949-.415-3.852-1.041-5.783-1.549-.988-.26-1.987-.268-3.196.015.237.399.334.811.566.909.98.419 1.989.78 3.009 1.093.796.245 1.622.391 2.59.616-.842.504-1.543.186-2.219.128-.706-.06-1.399-.283-2.105-.336-.66-.048-1.196-.723-2.009-.419l2.816 1.969-1.297.133c.751.576 1.37.993 1.918 1.488.548.496 1.025 1.071 1.663 1.748-2.26-.959-3.538-2.78-5.069-4.376l-.735 1.013c.512.47.941.898 1.408 1.282.464.382 1.33.152 1.61 1.125l-1.557-.374c-.007.134-.05.247-.011.297 1.226 1.576 2.403 3.197 3.721 4.693.57.647 1.189 1.329 2.289 1.363 1.074.033 2.208.265 3.189.699 1.694.749 3.343 1.613 4.641 3.034 1.164 1.275 2.512 2.384 3.651 3.679 1.044 1.184 2.322 2.167 3.058 3.633.553 1.103 1.264 2.126 1.906 3.184.476.785 1.019 1.496 1.938 1.812.661.226 1.304.512 1.976.701 1.881.527 3.4 1.591 4.827 2.906.998.921 2.19 1.648 3.359 2.358.667.405 1.437.746 2.201.87 3.113.503 6.259.592 9.411.609 1.353.007 2.688-.043 4.058.431 1.011.349 2.22.538 3.397.246.853-.211 1.747-.302 2.628-.354 2.128-.126 3.979-1.087 5.681-2.172 1.903-1.21 3.701-2.585 5.731-3.604.44-.22.79-.617 1.181-.934-.831-.22-1.577-.148-2.296-.255-.816-.123-1.56-.574-1.835-1.367-.253-.73.114-1.382.78-1.824.09-.059.121-.207.199-.35-.155-.183-.293-.352-.436-.518-.861-.999-.877-1.269-.102-2.303.372-.497.792-.961 1.132-1.478.304-.462.527-.978.805-1.506zm-62.365-16.182-1.336-.238.033-.175 1.377.178-.074.235zm6.349 1.561.049-.016.003.049-.047-.03a.022.022 0 0 0-.005-.003zm.052.033.914.587c-.754.246-.871.182-.914-.587zm-.003-.049.004-.002-.004.002zm-.049.016c-1.07.35-1.927-.384-2.827-.693-.825-.283-1.586-.718-2.493-.72-.107 0-.214-.123-.437-.261.922-.394 1.774-.115 2.477.104 1.145.357 2.192 1.029 3.28 1.57zm-32.887-21.961c.617.204 1.458.228 1.803.653.599.738 1.495.932 2.124 1.531 1.123 1.069 2.646 1.749 3.244 3.339.054.144.328.204.511.31.238-1.051-.363-1.684-.949-2.281-.831-.848-1.779-1.587-2.566-2.472a11.675 11.675 0 0 1-1.647-2.401c-.506-.984-.86-2.05-1.241-3.095-1.038-2.848-2.643-5.404-4.087-8.043-.915-1.672-1.934-3.309-2.63-5.071-.831-2.104-1.562-4.244-2.767-6.167-.694-1.107-.98-2.263-.852-3.544.022-.221.006-.445.005-.668-.008-1.639-.012-3.279-.03-4.918-.003-.259.019-.586-.12-.765-1.122-1.443-2.59-2.455-4.404-2.608-1.056-.089-2.156.33-3.386.546l-2.63-1.128c.248 1.679.419 3.117.688 4.536.14.736.097 1.37-.232 2.058-.605 1.265-1.598 1.98-2.904 2.336-.256.07-.569.035-.776.172-.346.231-.72.514-.892.868-.071.146.31.573.554.799.465.433.98.813 1.475 1.215l-.177.334c-.345-.092-.737-.11-1.024-.294-.636-.404-1.215-.894-1.822-1.344-1.001-.741-2.073-1.323-3.414-1.572-.196.458-.447.847-.529 1.268-.289 1.476-.61 2.955-.753 4.448-.193 2.039-.508 4.038-1.326 5.924-.461 1.064-.535 2.128-.227 3.345.709-.148 1.43-.196 2.071-.449 2.152-.851 4.35-.879 6.54-.347 1.597.388 3.246.735 4.501 1.98.555.552 1.254.956 1.829 1.491.741.688 1.513 1.375 2.11 2.181.743 1.005 1.492 1.985 2.542 2.67 1.031.672 2.077 1.335 3.173 1.892 2.049 1.042 4.14 2 6.208 3.003.318.154.672.301.904.55 1.646 1.766 4.096 2.265 5.885 3.809-.506-.757-.987-1.498-1.841-1.921-.875-.433-1.705-.959-2.547-1.458-.247-.146-.624-.234-.458-.673-.701.161-1.142-.303-1.668-.634-.651-.409-1.024-1.012-1.766-1.671 1.154.161 1.595.472 3.498 2.266zm1.669-56.256c-.772-.071-1.163.29-1.44.754-.79 1.326-1.524 2.684-2.319 4.007-.547.909-1.06 1.868-1.761 2.649-1.563 1.738-2.867 3.628-3.684 5.811a8.599 8.599 0 0 0-.541 2.717c-.053 1.713.084 3.431.092 5.148.012 2.527-.071 5.056-.008 7.581.027 1.045.085 2.212.558 3.094.813 1.517 1.737 2.948 2.267 4.622.737 2.325 1.875 4.477 3.175 6.548.75 1.193 1.276 2.53 2.054 3.702a19.778 19.778 0 0 1 2.524 5.395c.784 2.667 2.441 4.754 4.285 6.731a107.527 107.527 0 0 0 2.901 3.026c.586.583.945 1.438 2.073 1.779-.944-1.785-1.773-3.383-2.633-4.964-.463-.849-1.136-1.615-1.442-2.512-.655-1.913-1.148-3.882-1.665-5.84-.085-.322.04-.7.068-1.053l.348-.028c.262.961.532 1.919.783 2.883.111.43.155.879.277 1.305.302 1.049.537 2.132.976 3.121.442.996 1.1 1.895 1.659 2.839.113.191.157.493.319.574 1.166.588 1.253 1.852 1.816 2.814.15.257.281.526.56 1.056l.23-3.249.695.979c.133-.484.223-.776.293-1.072.43-1.806.851-3.614 1.288-5.419.074-.306.14-.665.574-.713-.096.528-.194.983-.26 1.443-.079.562-.031 1.164-.218 1.684-.269.743-.299 1.452-.169 2.215.289 1.677.271 3.407.882 5.025.074.199.285.345.568.669.062-2.378.15-4.501.661-6.62.806-3.338 2.46-6.243 4.213-9.114.875-1.434 1.897-2.778 2.821-4.183.533-.809.997-1.664 1.504-2.491.346-.562.697-1.123 1.078-1.661 1.173-1.658 1.96-3.564 3.444-5.035.968-.96 1.791-2.095 2.54-3.241 1.479-2.267 2.977-4.534 4.253-6.915 1.295-2.419 2.495-4.897 3.141-7.615.418-1.758.692-3.511.762-5.309.02-.525.192-1.051.163-1.569-.121-2.117-.073-4.255-.685-6.319-.289-.973-.493-1.98-.87-2.917-.718-1.779-1.312-3.621-2.55-5.159-.859-1.067-1.863-1.66-3.271-1.619-1.553.045-3.121.091-4.663-.062-1.71-.17-3.386-.512-4.719-1.831-.95-.94-2.079-1.681-3.528-1.689-.244-.001-.491-.171-.728-.281-1.292-.598-2.009-1.659-2.451-2.972-.157-.468-.452-.889-.731-1.422-.86.954-1.477 1.796-1.78 2.848-.511 1.775-1.612 3.158-3.026 4.289-.965.772-2.011 1.338-3.309.684-.263-.133-.609-.094-.914-.15-1.576-.295-2.394.083-3.14 1.472-.442.824-.854 1.664-1.315 2.477-1.348 2.378-2.056 4.93-2.226 7.655-.056.914-.285 1.818-.435 2.727-.379-3.149-.591-6.265.636-9.299zm18.597 43.007c-.532 1.239-.992 2.236-1.39 3.258-.408 1.046-.755 2.116-1.199 3.373-.472-.692-.117-1.117-.009-1.52.18-.672.462-1.315.673-1.979.359-1.128.822-2.182 1.925-3.132zm-12.112 19.531c-.24.667-.24.667.602 1.128-.2-.377-.4-.753-.602-1.128z"
        fill="#687E6B" />
</svg>