<svg width="82" height="242" fill="none" xmlns="http://www.w3.org/2000/svg"><g clip-path="url(#a)"><path fill-rule="evenodd" clip-rule="evenodd" d="M28.964 180.96c-1.068.266-2.133.553-3.208.79-1.265.279-2.539.501-3.806.766-1.169.245-2.331.062-3.328-.538-1.467-.882-3.002-1.097-4.606-1.122-.299-.005-.597-.062-.943-.101-.159-1.217.909-1.729 1.131-2.689.226-.979.567-1.926.89-2.988-1.111-1.921-.364-3.463.996-4.842.225-.228.433-.494.692-.662 1.278-.833 2.231-1.988 2.981-3.413.521-.99 1.344-1.33 2.357-.876.21.094.44.133.663.188.22.056.442.102.653.149 1.703-1.7 1.754-1.697 3.186.179.542-.147 1.134-.515 1.609-.379.526.151 1.069.671 1.386 1.194.86 1.419 1.428 2.987 1.439 4.749.007 1.017.015 2.036.075 3.051.069 1.178.263 1.569 1.289 2.785-.115-.723-.155-1.2-.27-1.652-.196-.768-.263-1.513.217-2.173.108-.146.357-.165.701-.31.002.797-.038 1.452.017 2.096.05.587.246 1.158.301 1.744a3.945 3.945 0 0 1-.557 2.417c-.289.486-.605.951-.864 1.357 1.316 2.159 2.654 4.2 3.838 6.347 1.13 2.051 1.906 4.336 3.238 6.832.196-1.197.337-1.84.401-2.493.147-1.513.214-3.036.398-4.543.109-.888-.1-1.646-.354-2.461-.624-2.004-1.179-4.044-.967-6.212.056-.579.111-1.219.364-1.701.771-1.471.859-3.05.807-4.677-.013-.398-.036-.797-.068-1.481.463.255.79.32.928.534.348.548.64 1.146.9 1.752.229.534.312 1.153.582 1.655 1.105 2.059.936 4.221.473 6.406-.192.905-.404 1.821-.73 2.673-1.129 2.958-1.206 6.09-1.272 9.216-.025 1.178.174 2.362.295 3.542.079.768.319 1.468.763 2.089 1.667 2.33 2.862 4.986 4.176 7.56.216.422.436.842.64 1.235.569-.132.388-.535.397-.819.131-4.505-.338-8.969-.807-13.427-.248-2.351-.728-4.671-1.032-7.016-.227-1.761-.43-3.536-.481-5.312a24.565 24.565 0 0 0-1.045-6.479c-.511-1.685-.995-3.381-1.544-5.051-.841-2.557-2.136-4.859-3.38-7.183a5.248 5.248 0 0 0-1.211-1.511c-1.134-.952-1.87-2.234-2.471-3.602-1.188-2.705-3.238-4.44-5.401-6.003-.922-.666-1.958-1.17-3.145-1.337-1.525-.214-2.819-1.203-4.037-2.24-.298-.253-.584-.524-.928-.834-1.481.584-2.695 1.577-3.89 2.6-2.048 1.752-4.087 3.515-6.135 5.267a2.904 2.904 0 0 1-.588.382c-2.951 1.491-6.025 2.284-9.283 2.016-.504-.041-1.053.002-1.396-.799.264-.143.505-.375.758-.394 1.446-.106 2.6-.932 3.669-1.887a30.007 30.007 0 0 0 2.856-2.913c1.842-2.17 3.934-3.568 6.709-3.842 1.933-.19 3.82-.957 5.711-1.463-.023-.873-.518-1.139-1.041-1.267-3.161-.77-5.664-2.788-7.914-5.238-.975-1.06-1.808-2.283-2.694-3.445-1.166-1.526-1.653-3.414-2.169-5.272a3.023 3.023 0 0 1 .005-1.485c.327-1.243.346-2.5.332-3.771-.001-.125.149-.251.235-.387.457-.126.684.276.932.563 1.372 1.586 2.747 3.15 4.302 4.539a9.436 9.436 0 0 1 2.735 4.308c.522 1.721 1.358 3.204 2.371 4.601.524.722 1.035 1.481 1.413 2.303.904 1.968 2.391 3.271 4.013 4.356 2.602 1.74 5.277 3.346 7.934 4.982.374.23.822.312 1.378.514.127-1.07-.366-1.736-.689-2.467-.499-1.133-1.288-2.12-1.404-3.443a.098.098 0 0 0 .016.005c-.283-.353-.646-.663-.814-1.073-.545-1.327-1.312-2.458-2.142-3.578-1.981-2.668-3.857-5.434-5.833-8.108-1.488-2.012-2.379-4.286-2.889-6.814-.775-3.843-2.964-7.153-5.976-9.184-2.449-1.653-4.213-3.886-4.844-7.061-.19-.959-.545-1.749-1.191-2.394-.901-.898-1.324-2.038-1.39-3.373-.02-.421-.131-.835-.189-1.254-.184-1.332-.751-2.37-1.796-3.095-.348-.241-.619-.624-.99-1.009.851-.42 1.528-.253 2.127.1 1.463.864 3.319.698 4.534 2.203 1.572 1.949 3.192 3.852 4.73 5.834.376.486.574 1.182.74 1.819.146.562.176 1.174.183 1.765.032 3.051 1.052 5.756 2.258 8.42.954 2.106 1.811 4.267 2.713 6.402.194.46.34.965.608 1.364a312.907 312.907 0 0 0 4.137 6.029c1.032 1.464 2.114 2.885 3.172 4.327.471.643.906 1.331 1.831 1.844-.336-1.706-.504-3.23-.945-4.65-.826-2.659-1.469-5.344-1.688-8.154-.044-.577-.215-1.141-.318-1.665-1.133-.505-2.367-.29-3.275-1.211-.943-.956-1.338-2.232-1.806-3.636 1.079-.488 1.905.103 2.682.696.361.274.569.785.885 1.147.125.141.357.168.766.346-.704-1.561-1.22-2.953-1.932-4.206-.586-1.033-.865-2.148-1.211-3.267-.273-.879-.203-1.651.157-2.446.542-1.2 1.167-2.324 1.233-3.771.049-1.06 1.158-1.445 1.915-.754.577.528 1.05 1.197 1.677 1.928l1.641-1.717c1.205 2.046 2.452 3.839 2.112 6.347-.195 1.439-.582 2.794-1.249 4.041-.416.776-.882 1.519-1.374 2.36 1.868-.451 1.868-.451 3.226-1.895.209 1.618-.637 2.634-1.344 3.656-.835 1.208-1.273 1.396-3.014 1.72.138 3.366.4 6.685 1.867 9.771 1.11 2.333 1.67 4.897 2.236 7.446.747 3.365 1.503 6.732 2.944 9.832a380.493 380.493 0 0 0 4.296 8.94c.438.883.955 1.777 1.611 2.455 1.953 2.019 2.988 4.647 4.098 7.238.191.446.341.913.623 1.674.458-1.123.32-2.034.416-2.882.104-.921.144-1.864.102-2.79-.103-2.284-.261-4.564-.411-6.844-.257-3.893-.386-7.787-.097-11.684.013-.17.056-.349.023-.508-.598-2.885.201-5.726.199-8.589-.002-1.687-.011-3.391-.213-5.059-.348-2.865-.533-5.702-.299-8.605a55.65 55.65 0 0 0 .07-7.618c-.115-2.019-.61-3.989-1.807-5.657-1.247-1.739-1.705-3.959-2.721-5.841-.546-1.011-1.105-2.022-1.749-2.956-.82-1.189-1.954-1.829-3.189-1.997-1.134.762-2.137 1.514-3.204 2.13-.933.54-1.89.51-2.866-.452 1.212-.316 2.339-.582 2.936-1.838-.1-.07-.215-.218-.298-.2-1.801.413-3.451-.07-5.05-.975-.536-.303-1.118-.508-1.69-.724-.429-.16-.92-.176-1.304-.415-.584-.362-1.099-.862-1.776-1.41l1.363-1.005c-.072-.558-.232-1.123-.197-1.672.052-.843.191-1.752.897-2.234.899-.61 1.82-1.352 2.95-1.147.489.088.996.428 1.38.802 1.028 1.002 1.987 2.093 2.988 3.13.436.452.908.86 1.342 1.267 1.051-.733.332-1.674.102-2.875 2.36 1.637 2.729 3.734 2.437 6.168l3.685 2.04c.095-.332.21-.514.173-.638-1.264-4.155-3.054-7.948-6.336-10.576-1.223-.979-2.524-1.952-3.922-2.52-2.755-1.117-4.47-3.454-6.065-5.932-.822-1.278-1.355-2.789-2.054-4.269a3525.3 3525.3 0 0 0-1.98-1.532c.575-.193.827-.36 1.07-.347 2.183.13 4.049 1.016 5.87 2.441 2.14 1.676 3.684 3.76 4.779 6.324.729 1.708 1.711 3.16 2.937 4.477 1.81 1.947 3.171 4.31 4.556 6.638.5.842 1.045 1.66 1.456 2.555.447.972.881 1.987 1.111 3.04.642 2.927 1.841 5.53 3.431 7.932.076.116.259.144.469.252.639-1.58.459-3.3.7-4.934.086-.583-.018-1.207.109-1.774.63-2.823.525-5.723.73-8.587.147-2.048-.458-4.012-.873-5.99-.914-4.363-2.786-8.22-4.967-11.923-.332-.563-.56-1.201-.867-1.785-.307-.582-.593-1.197-.991-1.695-1.16-1.448-2.37-2.848-3.57-4.257-.097-.114-.267-.15-.516-.283-.665.66-1.019 1.81-2.089 2.053-1.003.229-1.991.374-3.085.004.587-.462 1.205-.882 1.755-1.393.574-.534 1.082-1.156 1.762-1.893-.534-.24-.905-.43-1.289-.572-.36-.132-.742-.186-1.1-.322-.713-.271-1.432-.534-2.12-.873-.869-.428-1.507-1.098-1.753-2.194-.127-.568-.371-1.115-.629-1.632-.459-.92-.241-1.807.013-2.706.158-.561.549-.829 1.035-.814.446.012.888.218 1.331.218.243 0 .486-.247.939-.502-.816-.737-1.729-.594-2.544-1.202.293-.235.478-.47.707-.553.838-.304.844-.285 1.413-.995-.743-.126-1.482-.325-2.228-.36-1.65-.073-3.132-.544-4.368-1.84-.265-.279-.663-.545-1.007-.557-1.498-.06-2.252-1.28-3.101-2.346-.728-.914-.633-1.398.351-2.241.119-.103.261-.173.38-.276.055-.047.082-.134.188-.32-.024-.222-.015-.565-.106-.873-.272-.918-.089-1.716.572-2.285.653-.561.864-1.343 1.173-2.12.33-.831.836-1.575 1.257-2.342.512-.03.888-.07 1.264-.07.743.002 1.309-.374 1.774-.984.394-.516.748-1.08 1.192-1.537.437-.45.935-.854 1.46-1.168.805-.481 1.646-.445 2.333.268.593.615 1.215.872 2.034.841.916-.034 1.547.636 1.988 1.477.241.458.504.706.995.886 1.544.565 2.514 2.585 1.983 4.23-.516 1.598-.987 3.186-1.168 4.884-.052.485-.321.948-.517 1.406-.145.34-.386.64-.527 1.102 1.313-.132 1.105-1.692 2.141-2.1-.156 1.191-.265 2.268-.455 3.328-.047.267-.32.485-.51.726l.039-.027c-.072 1.264-1.244 1.638-1.722 2.568.312 1.699.695 3.324 1.423 4.831.284.586.408 1.254 1.229 1.258.209.003.582.608.593.947.049 1.469.309 2.833 1.144 4.01.499 2.954 1.912 5.514 2.875 8.267.187.535.504 1.013.736 1.47.543-.057.506-.409.495-.736-.166-4.742-.354-9.482-.489-14.225-.033-1.182.111-2.37.159-3.556.13-3.218.273-6.437.371-9.656.059-1.948-.015-3.903.079-5.848.103-2.115.285-4.23.528-6.33.112-.974-.024-1.855-.323-2.731-.189-.553-.442-1.08-.652-1.625-.687-1.773-1.765-3.143-3.299-4.063a17.411 17.411 0 0 1-3.855-3.144c-.607-.658-1.139-1.325-1.524-2.183a45.695 45.695 0 0 0-1.921-3.747c-.709-1.256-.679-2.642-.444-3.95.31-1.726.225-3.36-.223-5.013-.033-.122.081-.294.147-.507.199.056.495.035.592.18 1.956 2.918 3.879 5.865 5.834 8.786.541.807 1.092 1.637 1.761 2.302 2.137 2.124 3.33 4.788 3.854 7.876.04.24.104.479.178.71.019.058.121.085.301.202-.011-1.588-.045-3.102-.025-4.617.019-1.437.095-2.874.145-4.259-.732-.55-1.456-.988-2.057-1.58-.616-.607-1.222-1.293-1.628-2.077-.397-.769-.538-1.702-.827-2.68 2.59 1.097 2.59 1.097 4.062 2.69.213-1.507.213-1.507-.302-2.776-.408-1.004-.786-2.025-1.23-3.01-.379-.84-.331-1.648.04-2.437.675-1.436 1.263-2.897 1.351-4.549.009-.162.105-.317.167-.472.213-.534.653-.77 1.103-.711.324.043.719.317.9.622.368.622.613 1.337.946 2.099l1.524-.849c.822.233 1.121.864 1.3 1.495.605 2.133 1.021 4.226-.363 6.292-.708 1.055-1.114 2.362-1.678 3.605.803.648 1.18-.75 2.043-.545-.038.288-.008.628-.13.87-.638 1.272-1.393 2.42-2.637 3.064-.999.515-1.345 1.373-1.35 2.655-.015 3.375.219 6.74-.066 10.136-.268 3.192-.318 6.41-.738 9.596-.073.55.094 1.143.174 1.945.371-.283.725-.404.792-.63.898-3.042 2.042-5.997 1.877-9.348-.132-2.673.721-5.168 1.782-7.548.644-1.443 1.877-2.188 2.978-3.078.859-.693 1.771-1.306 2.633-1.996 1.762-1.41 3.778-1.903 6.072-2.27-.158.512-.174.892-.352 1.084-.989 1.057-1.45 2.416-1.577 3.848-.222 2.504-1.205 4.501-2.811 6.196-.439.464-.895.968-1.168 1.556-.866 1.861-2.163 3.258-3.619 4.517-.299.258-.535.605-.83.872-1.75 1.579-2.98 3.55-3.748 5.915-1.297 3.99-2.432 8-2.458 12.315-.01 1.772-.288 3.54-.398 5.315-.236 3.817-.011 7.63.211 11.435.059 1.009.213 2.036.487 2.996 1.236 4.345 2.528 8.67 2.808 13.235.643.152.749-.361.853-.713 1.266-4.27 2.966-8.341 4.575-12.456.573-1.464.948-3.05 1.218-4.623.229-1.33.119-2.757-.689-3.857-.854-1.162-1.074-2.38-.778-3.791.066-.316.096-.68.02-.985-.114-.457-.534-1.005.21-1.147.572-.11.679.54.823 1.009.466 1.519.923 3.039 1.466 4.838.243-3.027.322-5.718-.438-8.413-.663-2.351-.146-4.713.49-6.994.146-.524.553-1.02.949-1.382.783-.715 1.932-.235 2.125.88.128.744.114 1.52.176 2.28.048.59.148 1.156.76 1.465.516-.898.549-1.908.653-2.918.114-1.099.343-2.182 1.32-2.834 1.572-.066 2.111 1.398 2.911 2.583 1.805-.647 3.026.212 4.099 1.774.526.765 1.386 1.245 2.254 1.988l.125 2.668c.933.538 1.72 1.274 1.539 2.7-.039.305.04.737.219.948 1.272 1.498.836 3.137.347 4.762-.186.619-.527 1.18-.859 1.905-.441-.169-.77-.305-1.104-.42-1.54-.536-3.053-.85-4.627-.01-1.269.677-2.645.672-4.018.341a31.16 31.16 0 0 0-2.243-.466c-.265-.042-.549.062-.893.107.722 1.68 2.333 1.127 3.424 1.785-.933 1.414-2.159.78-3.211.983-1.17.228-1.953-.766-3.031-1.219-.271.875-.513 1.667-.76 2.456-.598 1.914-1.196 3.828-1.796 5.741-.125.4-.267.793-.381 1.196-1.007 3.56-2.385 6.942-3.822 10.31-1.076 2.52-1.58 5.231-1.908 8.05-.505 4.332-.411 8.621-.164 12.938.017.302.078.6.109.831.569.17.682-.215.826-.474.239-.433.452-.887.631-1.354 1.23-3.217 3.076-6.037 4.687-9.006.943-1.738 1.968-3.42 2.923-5.15.863-1.563.927-3.394 1.208-5.128.402-2.487.586-5.017.934-7.518.138-.996.313-2.053.74-2.916.745-1.505.98-2.986.541-4.627-.057-.214.056-.486.12-.942.371.237.755.34.92.61 1.176 1.933 1.972 3.992 1.677 6.43a20.338 20.338 0 0 0-.121 3.302c.053 1.24-.201 2.36-.772 3.386-.6 1.077-1.263 2.11-1.901 3.16-.634 1.042-1.526 1.894-1.909 3.125.47.463.748-.014 1.003-.21 1.19-.907 2.379-1.822 3.505-2.822.582-.517 1.134-1.149 1.521-1.85 2.324-4.215 5.709-6.701 9.979-7.795.442-.113.896-.164 1.339-.274.347-.086.684-.218 1.237-.398-.092.557-.055.93-.205 1.141-1.555 2.194-2.961 4.571-4.767 6.475a15.942 15.942 0 0 1-6.465 4.155c-1.596.538-3.165 1.176-4.764 1.7-1.819.595-2.97 2.072-3.848 3.765-1.134 2.184-2.378 4.284-3.101 6.763-.598 2.053-1.687 4-2.843 5.762-1.426 2.173-2.203 4.628-3.071 7.064-.083.233-.156.493-.154.739.031 3.05-.138 6.129.178 9.142.338 3.221.459 6.403.213 9.62-.264 3.46-.529 6.92-1.153 10.33-.329 1.794.026 3.572.291 5.308.489 3.199.339 6.43.606 9.635.106 1.262.164 2.532.176 3.8.045 4.917.048 9.835.101 14.752.015 1.266.14 2.532.242 3.794.21 2.619.432 5.235.667 7.849.042.467-.103 1.01.324 1.365.081-.017.194-.005.211-.046.483-1.14.972-2.277 1.425-3.433.303-.772.575-1.562.816-2.361.314-1.041.679-2.079.853-3.152a225.39 225.39 0 0 0 1.295-9.023c.12-.994.12-2.079-.109-3.036-.561-2.344-.223-4.709-.34-7.059-.08-1.601-.102-3.187-.459-4.783-.309-1.376-.783-2.535-1.657-3.536-.814-.934-1.416-2.022-1.484-3.354-.107-2.096-.679-3.977-1.921-5.47.095-.627.387-.912.809-.753 1.076.408 2.253.694 3.153 1.403.755.598 1.285 1.661 1.724 2.626.961 2.111 1.829 4.278 2.682 6.448.953 2.421.998 4.94.396 7.46-.508 2.126-1.333 4.186-1.619 6.34-.334 2.506-.738 5.102.108 7.742 1.47-1.206 2.082-2.826 2.378-4.588.172-1.027.503-1.929.959-2.826 1.204-2.367 2.259-4.82 2.608-7.547.328-2.556 1.138-4.956 2.169-7.2 1.357-2.956 1.72-6.122 2.128-9.295.214-1.664.228-3.362.305-5.046.015-.316-.102-.641-.172-1.041-1.097-.4-2.35.102-3.283-.844-.444-.452-1.004-.772-1.418-1.251-.288-.333-.418-.835-.597-1.216.401-.445.605-.159.85.034.84.66.844.658 2.018.358-.05-.156-.062-.356-.157-.463-2.183-2.474-3.772-5.512-6.04-7.91-.431-.455-.745-1.051-1.095-1.597-.623-.972-.699-2.025-.367-3.145.166-.558.328-1.126.421-1.703.247-1.528.782-2.272 2.158-2.426 1.002-.113 1.931-.236 2.804-.875.329-.24.873-.235 1.298-.172 1.013.151 1.816.622 3.12 1.656 2.007-.403 4.04-1.275 6.367-.818.138.484.32 1.015.437 1.563.123.578.188 1.1.779 1.428.558.309.76.992.877 1.696.518 3.104.496 3.076-1.132 5.808-1.163 1.953-2.218 3.987-3.527 6.357l1.709-.7c-.281 2.052-1.65 3.313-4.05 5.452-.397 2.743-.399 5.599-.488 8.772 1.654-1.677 3.107-3.126 4.527-4.613.267-.279.424-.698.6-1.072 1.022-2.174 1.965-4.335 2.099-6.897.072-1.388.619-2.791 1.14-4.093.586-1.466 1.347-2.852 2.111-4.217.265-.473.755-.796 1.163-1.16.828-.739 1.704-1.416 2.497-2.197.984-.968 1.759-2.093 1.947-3.631.055-.448.375-.856.72-1.601.221.575.418.845.411 1.106-.063 2.11-.002 4.248-.294 6.321a22.873 22.873 0 0 1-2.724 8.041c-.201.36-.424.705-.614 1.072-.856 1.644-1.917 3.027-3.533 3.815-.691.337-1.294.894-1.973 1.267-.641.354-1.062.899-1.485 1.523-2.153 3.174-4.315 6.343-6.547 9.449-.585.814-1.013 1.618-1.306 2.616-.708 2.411-1.559 4.769-2.349 7.149-.625 1.882-1.245 3.767-1.877 5.677.215.04.303.083.326.057 2.009-2.309 4.007-4.629 6.022-6.931 1.148-1.312 1.858-2.876 2.301-4.746-1.114-1.669-.444-3.369.136-5.076.693-.06.662.852 1.169 1.076.713-.089.892-.833 1.206-1.359.787-1.316 1.854-2.23 3.095-2.929.267-.149.563-.36.837-.346 1.486.077 2.566-.874 3.736-1.864.216.305.536.55.538.799.006.816.343 1.468.699 2.11.547.984.348 1.968-.03 2.89-.169.413-.59.782-.975.982-.846.438-1.582 1.007-2.193 1.782-.544.688-1.249.928-2.04.952-1.149.037-2.255.282-3.674 1.024l4.126.425c-1.418 1.867-2.665 2.113-6.079 1.195-.68 1.156-1.449 2.304-2.064 3.548-.749 1.513-1.762 2.754-2.847 3.948-1.081 1.192-2.194 2.349-3.237 3.582-1.524 1.803-2.634 3.921-3.647 6.117-.482 1.044-1.1 2.016-1.701 2.986-1.644 2.66-3.061 5.429-3.534 8.681-.107.736-.235 1.469-.409 2.547.509-.47.888-.655 1.025-.971.924-2.138 2.632-3.498 4.116-5.033 1.578-1.635 3.037-3.336 4.06-5.44.573-1.18 1.367-2.009 2.415-2.597 1.421-.795 2.704-1.869 4.27-2.382 1.113-.364 1.953-1.279 2.691-2.279.288-.389.6-.761.926-1.111.093-.099.275-.093.418-.137.539.251.548.696.418 1.251-.463 1.984-1.273 3.801-2.068 5.634-1.462 3.373-4.122 5.102-7.029 6.505-.338.164-.737.218-1.11.233-1.169.051-2.209.577-3.276 1.022-2.017.843-3.448 2.42-4.451 4.485-.54 1.112-.929 2.312-1.432 3.449-.368.831-.737 1.686-1.232 2.424-1.546 2.301-1.907 4.957-1.861 7.695.067 3.985.265 7.965.383 11.948.023.757-.066 1.518-.101 2.276-.095 2.028-.43 4.052-.002 6.083.086.408.119.851.078 1.265-.255 2.577.33 5.048.712 7.545.203 1.336.36 2.644.166 4.03-.301 2.148-.546 4.325-.124 6.55-.357.046-.618.175-.778.083-1.208-.692-2.067-1.714-2.244-3.285-.275-2.438-.572-4.873-.78-7.318-.079-.917.07-1.857.105-2.787.125-3.299.186-6.621.732-9.862.663-3.93-.166-7.359-2.119-10.597a214.935 214.935 0 0 1-4.551-7.88c-1.141-2.09-2.148-4.271-3.215-6.412-.037-.073-.062-.156-.105-.225-.844-1.372-.531-3.387-1.978-4.423-.677-1.512-1.344-3.031-2.038-4.534-.208-.45-.475-.869-.747-1.276-.271-.403-.583-.771-.902-1.188-1.457 1.1-2.374 2.856-4.202 2.616-.628-.082-1.401.207-1.915-.798 1.434-.589 3.093-.722 3.783-2.504zm25.47-160.144c.092-1.345 1.195-1.913 1.885-2.861-.22.012-.379-.03-.489.036-2.141 1.25-4.047 2.904-6.019 4.438-.481.374-.944.91-1.196 1.49-1.098 2.515-1.832 5.148-1.702 7.993.007.157.22.302.338.453l2.11-3.026c-.003.977-.411 1.757-.923 2.51-.488.718-.844 1.51-.846 2.795 1.947-1.845 3.763-3.32 5.093-5.402.697-1.09 1.395-2.202 2.223-3.164 1.036-1.204 1.66-2.576 1.915-4.195.104-.66.268-1.31.353-1.973.045-.361.268-.824-.327-1.108l-2.346 2.01c-.1.96-.546 1.66-1.274 2.146-.003.235.042.508-.058.668-.82 1.293-1.676 2.56-2.52 3.835-.002-.243-.092-.549.007-.718.77-1.322 1.376-2.785 2.514-3.801.124-.931.499-1.674 1.262-2.125zm-4.567 7.9c-.023-.515.25-.817.613-1.054-.205.35-.41.703-.613 1.055zm-15.03 35.579.407-.823c-.106-.049-.295-.155-.304-.138a7.517 7.517 0 0 0-.355.777c-.004.011.106.08.252.184zm-3.018 31.236c-1.48-1.622-2.882-3.255-4.383-4.767-1.018-1.025-3.007-.593-3.809.689-.364.582-.255 1.421.263 1.785a5.98 5.98 0 0 0 1.01.56c1.535.674 3.029 1.437 4.64 1.931.832.257 1.445.209 2.279-.198zm39.647 58.118c2.097-.834 3.857-1.673 5.151-3.452.546-.75.769-1.583.712-2.573-.895-.345-1.497.493-2.221.492-1.071-.001-1.834.72-2.675 1.265-.749.485-1.106 1.197-.691 2.114.305.674.102 1.227-.276 2.154zM6.464 100.544c1.195.427 1.563 1.607 1.974 2.757.446 1.247.761 2.59 1.395 3.706.931 1.641 1.837 3.281 2.553 5.052.075.188.29.304.563.576.323-1.245-.037-2.3-.031-3.351.011-1.704-.611-3.073-1.696-4.262-.858-.941-1.628-1.986-2.404-3.016-.617-.818-1.269-1.576-2.069-2.23l-.285.768zm15.091-24.596c-.093.203-.173.295-.156.35.894 2.848 2.583 5.09 4.469 7.163.875.962 2.207 1.457 3.545 1.48-.417-.954-1.131-1.561-1.885-2.127-1.016-.761-1.866-1.686-2.459-2.904-.25-.513-.69-.918-.907-1.443-.541-1.31-1.627-1.805-2.607-2.52zm39.051 83.323c.522-.676 1.355-1.343.939-2.786l-.939 2.786zM16.8 142.229l.162-.101c-.052-.037-.104-.103-.157-.104-.057-.001-.114.059-.171.094l.166.111zm-2.645-26.185.166-.136-.259-.336-.244.243.337.229zm15.05-61.353c.919.79 1.619 1.423 2.346 2.012 1.321 1.07 2.33 2.37 2.653 4.218.069.392.18.773.361 1.542.319-.61.666-.802.48-1.31-.597-1.634-1.114-3.318-1.844-4.875-.537-1.147-1.02-2.423-2.159-3.22l-1.837 1.633zm34.14 80.916c.179-.249.462-.505.45-.742-.083-1.568-.013-3.196-.825-4.589-.493-.846-1.117-1.597-1.615-2.44-.794-1.345-1.542-2.732-1.178-4.46.089-.422.267-.824.404-1.235-1.06-.125-1.957-.247-2.856-.332-.74-.072-1.217.517-.947 1.261.546 1.506.868 3.052.966 4.67.019.324.17.644.287.953 1.052 2.792 3.023 4.769 4.903 6.824.083.091.237.099.372.131l.018-.1c-.065-.183-.133-.365-.185-.551-.017-.061.032-.145.051-.219.075.064.218.131.216.19-.009.194-.047.387-.082.58l.021.059zm7.91-56.073c-.123-.003-.249-.014-.363.018-2.671.77-4.617 2.771-6.52 4.826-.312.337-.482.853-.668 1.311-.163.4-.646.706-.315 1.4 1.145-.513 2.123-1.287 3.01-2.162 1.408-1.385 2.752-2.854 4.102-4.31.29-.315.506-.718.754-1.083zm-37.878 14.1c-.276 1.085-.275 1.77.12 2.57.677-.85.335-1.505-.12-2.57zm8.569 106.922.041.878c.446-.441.218-.665-.041-.878zm-1.273-1.063c.201.158.4.321.604.474.089.067.179.132.27.197-.14-.14-.282-.28-.431-.408-.13-.113-.294-.176-.443-.263zm33.496-45.875c.45.207.857.279 1.036-.419-.451-.172-.773.028-1.036.419zm-41.905-93.76.227-.252c-.066-.218-.093-.465-.204-.65-.762-1.27-1.92-2.047-3.011-2.897-.055-.043-.371.33-.59.53l3.578 3.27zm13.04 50.998c.002-.976.011-1.451.001-1.926-.012-.585-.023-1.172-.066-1.755-.028-.389-.111-.775-.17-1.163-.103 1.481-1.115 2.943.235 4.844zm-22.079 56.188c-.389-.305-.498-.445-.632-.487-1.593-.494-1.608-.499-2.497 1.112-.562 1.018-1.224 1.887-2.192 2.466-.458.273-.833.717-1.25 1.078a2.94 2.94 0 0 0-1.019 1.903c-.028.216.032.523.161.666.129.145.433.245.593.175.555-.245 1.146-.481 1.602-.888.782-.698 1.582-1.245 2.588-1.465 1.037-.228 1.722-1.005 2.042-2.132.223-.785.397-1.586.604-2.428zm20.243 3.947c-.031.058-.085.113-.088.172-.004.065.039.133.061.2.032-.057.086-.113.09-.172.003-.066-.04-.133-.063-.2zm6.646 17.216c-.19.08-.496.104-.552.247-.69 1.78-1.34 3.579-1.523 5.532-.009.098.141.215.303.446.898-2.035 1.501-4.082 1.792-6.257l-.042-.447.022.479zM47.042 2.83c-.298.296-.625.468-.696.725-.123.449-.188.975-.102 1.428.314 1.667.402 3.31-.063 4.961-.077.273-.034.588-.067 1.403.68-1.305 1.172-2.12 1.549-2.997.827-1.92.377-3.687-.621-5.52zm10.77 63.528c-.317-.629-.772-1.021-1.39-1.135-.11-.021-.296.096-.354.208-.056.109-.045.342.026.438.455.616.983.989 1.718.49zM47.359 197.46c.165-.73.27-.967.256-1.196-.014-.229-.147-.447-.228-.67l-.264.099.236 1.767zM32.032 62.374c-.255-1.651-1.357-2.642-2.424-3.518-1.048-.86-2.146-1.803-3.722-2.065-.05.734-.243 1.344-.094 1.82.343 1.093.408 2.349 1.283 3.18 1.151 1.092 2.585 1.277 3.907 1.537l1.05-.955zm20.295 93.318c.038.639-.35 1.33.248 2.011l-.248-2.011zm27.269-28.735c.084.999-.312 1.806-.828 2.561-1.843 2.7-3.383 5.612-4.824 8.593-.071.146-.199.257-.28.399-.145.254-.483.481-.102.869 1.789-.827 3.083-2.196 4.156-4.04 1.431-2.461 2.209-5.188 3.08-7.891.197-.61.155-1.253-.129-2.065-.263.439-.411.718-.589.972-.148.212-.319.404-.484.602zm-65.029 20.59-.027-.018c-2.629-.163-4.652 1.204-6.466 3.143-1.038 1.109-2.121 2.164-3.176 3.252-.177.184-.315.415-.622.827 1.085-.001 1.702-.443 2.311-.957 2.349-1.988 4.688-3.99 7.284-5.578.24-.147.407-.441.616-.664.027-.001.053-.002.08-.005zm36.836 43.297c-.172-.09-.34-.222-.371-.189-.719.74-1.236 1.59-1.194 2.924.957-.773 1.131-1.836 1.565-2.735zm-6.323-36.485a5.158 5.158 0 0 0-.124.008l.076 1.609.124-.009-.076-1.608zm-4.197 28.415c1.144-1.8 1.037-3.832 1.092-5.808.015-.532-.046-1.158-.695-1.362-.316 2.363-.992 4.676-.397 7.17zm-16.572-61.01c-.914-.681-1.174-2.171-2.46-2.467.402 2.091.716 2.43 2.46 2.467zm-.781-45.798c-.224-.247-.393-.479-.605-.64-.066-.05-.249.09-.379.143.161.229.304.48.495.674.049.05.247-.085.489-.177zm5.412 6.878c-.467-1.512-1.151-2.475-1.794-3.482-.541-.848-1.16-1.55-1.999-2-.236-.127-.504-.396-.751.148 1.329 1.78 2.125 4.148 4.544 5.334zm5.984-32.399c-.149-.263-.296-.535-.495-.9-.713.42-1.434.834-1.932 1.566-.127.186-.063.583.007.853.019.072.444.126.583.021.365-.274.661-.66 1.011-.962.257-.22.547-.392.826-.578zm8.496-49.348c-.152.746-.241 1.381-.414 1.985-.183.64-.357 1.317-.691 1.86-.932 1.514-.801 2.957 0 4.458.346.647.568 1.374.892 2.038.12.246.251.657.659.428l.269-1.161.502.99c.601-1.084.878-2.186.997-3.324.217-2.096-.68-5.043-2.214-7.274zm23.073 172.588c-.739.319-1.303.504-1.815.798-.668.385-1.29.868-1.94 1.293-1.516.991-2.07 1.827-2.739 4.172 2.889-1.447 4.768-3.223 6.494-6.263zM52.376 61.675c-.051.13-.157.277-.144.409.016.141.143.268.222.402.066-.18.167-.359.182-.544.005-.081-.169-.178-.26-.267zm25.809 88.034-.763 1.446c.895-.293 1.146-.595.763-1.446zm-49.336-98.46c-.845-.421-1.247-.506-1.486-.773-.224-.248-.261-.697-.406-1.043a1.03 1.03 0 0 0-.291-.383c-1.216-.998-2.425-2.008-3.669-2.96a1.79 1.79 0 0 0-1.064-.336c-.981.016-1.964.082-2.937.217-.391.056-.757.342-1.321.615.691.74 1.14 1.57 1.777 1.83 1.438.586 2.764 1.323 3.958 2.38.115.1.275.211.408.203 1.503-.092 2.953.754 5.031.25zm-5.622 43.58c.137.246.207.557.362.622 1.538.643 3.09 1.248 4.638 1.86.68.27 1.361.372 2.398.028-.735-.45-1.153-.878-1.62-.96-1.283-.225-2.453-.731-3.606-1.363-.462-.255-.998-.365-1.513-.464-.182-.034-.398.16-.659.276zm6.265 49.684c.739.25.875 1.045 1.196 1.671.545 1.065.926 2.248 1.674 3.1.263-.029.413-.047.564-.061-.062.134-.149.262-.177.403-.014.07.081.166.127.25-.01-.077-.039-.155-.029-.229.019-.139.059-.275.089-.412-1.124-2.281-2.241-4.566-3.376-6.841-.734-1.47-1.411-2.986-2.263-4.368-.767-1.245-1.746-2.326-2.616-3.495-1.301-1.749-2.735-3.379-3.755-5.379-.238-.465-.653-.818-.986-1.222-.176.529-.169.966.014 1.27.758 1.259 1.526 2.517 2.371 3.704 1.828 2.574 3.743 5.071 5.543 7.667.686.989 1.169 2.155 1.706 3.265.078.162-.042.444-.082.677zm27.717-57.29.357.03c.31-1.8.492-3.644.965-5.389.479-1.77.759-3.523.806-5.507-.804.961-1.101 1.605-1.189 2.72-.162 2.077-.395 4.138-.77 6.18-.117.642-.116 1.31-.169 1.966zM41.364 106.46c.506 1.179.872 2.463 1.97 3.235.055-.222.169-.424.119-.518a49.91 49.91 0 0 0-1.544-2.743c-.055-.089-.35.007-.545.026zm14.197 15.338c-1.031.627-.994 1.755-.85 2.78.15 1.071.658 2 1.837 2.474.137-1.129-.131-2.044-.402-2.97-.221-.751-.394-1.522-.585-2.284zM39.78 181.444c.249-1.542.501-2.999.71-4.463.055-.391.061-.856-.448-.971-.824.944-.637 2.185-.794 3.308-.106.761.214 1.439.532 2.126zm13.011-14.56c.705-1.952.709-2.527.141-5.247-.434 1.828-.263 3.552-.141 5.247zM33.49 151.675l-.134-.02.058.174.076-.154zm4.019-82.938c-.066-1.792-.726-3.187-1.368-4.857l-1.236 1.878c.671 1.255 1.249 2.4 2.604 2.979zm-27.123 65.276c.314.17.687.276.909.54 1.596 1.903 3.149 3.85 4.737 5.76.277.334.656.562 1.13.958.07-1.008-.457-1.437-.767-1.97-.82-1.411-1.898-2.708-2.424-4.242-.925-2.7-2.313-4.882-4.391-6.567-.363-.294-.644-.713-.986-1.044-.202-.194-.449-.331-.875-.637.04.862.091 1.441.089 2.019-.004 1.617.455 2.934 1.716 3.884.378.284.587.845.862 1.299zm14.568-15.227c.338-.629.468-1.133.948-.612.194.211.277.633.826.446.251-1.288.591-2.648.501-4.068-.085-1.338-.253-2.67-.409-4-.038-.326-.095-.711-.273-.945-.632-.827-1.314-1.609-1.995-2.388-.079-.089-.273-.051-.525-.089-.129.606-.193 1.256-.41 1.835-.26.692-.651 1.323-.984 1.983-.309.611-.363 1.205-.191 1.925.492 2.059 1.522 3.804 2.512 5.913zm-14.564 15.3c-.521.109-.756-.38-1.104-.661-1.292-1.045-2.155-2.319-2-4.22.026-.321-.062-.676-.525-.681-.07.203-.26.469-.206.638.498 1.58.834 3.282 1.605 4.684 1.636 2.973 3.76 5.496 6.557 7.204.243.149.491.456.834.044-.339-.848-.985-1.415-1.587-2.032a20.193 20.193 0 0 1-3.574-4.976zm37.974 82.647c.136-5.345.389-10.698-.306-16.38-.735 1.516-.601 2.783-.549 4.024.147 3.534.3 7.069.492 10.599.032.591.223 1.172.363 1.757zM45.415 85.385c-.159-3.68-1.183-8.47-2.497-11.679-.304 2.674 1.123 9.346 2.497 11.679zm18.739 2.39c3.727-1.293 7.534-4.43 8.373-7.795-1.08.918-2.098 1.65-2.973 2.556-1.75 1.81-3.273 3.9-5.4 5.24zM48.337 216.978c-.288.22-.513.467-.556.92-.18 1.846-.439 3.684-.584 5.531-.198 2.525-.493 5.049-.247 7.594.22 2.267.443 4.535.632 6.806.075.898.305 1.625 1.213 1.977.169-1.525.424-3.009.475-4.501.052-1.512-.064-3.036-.169-4.551-.059-.839-.312-1.662-.366-2.5a783.183 783.183 0 0 1-.589-10.403c-.014-.279.118-.567.191-.873zm10.47-131.489c1.027-1.35 1.575-2.4 1.571-3.725-.005-1.44-.012-2.859.291-4.285.156-.737.139-1.585-.2-2.387-.134.143-.229.194-.238.26-.305 2.497-.37 5.034-1.288 7.416-.247.642-.089 1.477-.136 2.721zM40.384 24.752c-1.08-.482-1.712-1.51-2.199-2.582-.463-1.019-1.175-1.745-1.839-2.538a89.871 89.871 0 0 0-2.55-2.89c-1.017-1.117-1.598-2.418-1.559-4.05.017-.691-.04-.694-.584-1.664-.062.041-.165.072-.178.128-.401 1.68-.509 3.307.458 4.852.432.687.72 1.489 1.062 2.244.697 1.542 1.638 2.887 2.873 3.902 1.28 1.05 2.659 1.952 4.015 2.881.083.058.32-.16.501-.283zm.134-.046.727-.14c-.435-2.53-1.399-4.557-3.169-6.24a12.906 12.906 0 0 1-2.386-3.042c-.566-1.003-1.173-1.979-1.768-2.961-.254-.418-.501-.863-1.139-.8-.323.948.319 1.756.429 2.633.087.704.472 1.432.888 2 .718.98 1.543 1.868 2.36 2.751.754.814 1.584 1.483 2.079 2.621.48 1.104 1.306 2.02 1.972 3.026.023.034.016.092.007.152zm-9.505 42.509c.958-.328.958-.328 1.254-1.26-.666.202-1.119.511-1.254 1.26zM7.042 154.639c1.908-.144 3.245-.875 4.465-1.895 1.151-.962 2.267-1.977 3.383-2.991.602-.547 1.268-1.042 1.934-2.224-3.735 1.855-6.794 3.932-9.782 7.11zm63.184-91.04c.559-.714.791-1.511.821-2.356.017-.485-.001-1.079-.232-1.446-.536-.85-.967-1.662-.867-2.773.022-.25-.432-.727-.721-.79-.292-.063-.703.187-.964.43-.21.197-.281.584-.401.893-.596 1.532-1.5 2.69-2.969 3.253-1.138.436-2.25.956-3.366 1.458-.111.05-.172.234-.256.355.204.103.408.206.62.31l-1.068.819c1.414.599 2.617.514 3.722-.027 1.455-.712 2.879-.869 4.391-.361.418.14.867.162 1.29.235zm-6.839-3.711c1.372-.134 2.562-.483 3.197-1.75.7-1.395 1.331-2.835 1.958-4.273.279-.64.149-1.184-.444-1.478-1-.499-1.69-1.296-2.385-2.222-.633-.843-1.574-1.342-2.602-.471-.144.121-.411.064-.539.08-1.108-.672-.89-2.696-2.581-2.751-.65 1.805-.262 3.865-1.309 5.474 1.031 1.142 2.183 1.349 3.414 1.427 1.32.083 1.895.672 2.254 2.036.223.843.244 1.66-.177 2.441-.265.494-.524.99-.786 1.487zm1.013 73.6.75-.359.256 2.097c.753-.434.883-1.48 1.744-1.609.272-.04.556-.562.707-.927.764-1.863 1.898-3.441 2.985-5.063.39-.583.901-1.17.762-1.878-.852-.309-1.656-.511-2.384-.893-.672-.353-1.331-.47-1.961-.119-1.545.859-2.935.4-4.304-.477-.328-.211-.631-.497-.982-.626-.246-.09-.636-.082-.809.082-.173.163-.262.606-.202.876a8.387 8.387 0 0 0 1.412 3.133c1.207 1.664 2.208 3.417 2.026 5.763zM52.326 155.69c-.398-1.518-.856-2.986-1.562-4.391-.611-1.218-.846-2.664-1.319-3.977-.143-.399-.526-.691-1.138-1.457l.775 4.68c.04.248.053.503.111.744.365 1.53 1.574 2.431 2.264 3.726.164.307.573.45.869.675zm-7.02-3.422-.071.153.123.014-.052-.167zm-3.957-45.853c.073-.11.165-.218.175-.334.007-.088-.144-.192-.224-.288-.021.064-.067.132-.058.188.025.148.07.29.107.434zm28.205 17.218c.329.49.726.986 1.292.606.232-.155.347-.724.329-1.094-.019-.425-.32-.779-.763-.757-.7.035-.789.642-.858 1.245zm-38.871 54.164c.072-.272.186-.465.14-.57-.652-1.497-.678-3.107-.732-4.717-.027-.761-.016-1.539-.16-2.276-.253-1.305-.583-2.602-1.596-3.546-.473.784-.866 1.473-1.292 2.135-1.625 2.531-1.62 3.903.119 6.366.31.439.749.957 1.192 1.047.963.198 1.591.934 2.329 1.561zm.996-77.932-.014.125.151-.053-.137-.072zm-25.267.708-1.797-.408c.561 2.104.455 4.156 1.944 5.688.475.489.75 1.245 1.045 1.917.232.528.348 1.118.528 1.674.749 2.316 2.078 4.112 3.957 5.392.212.144.508.131 1.077.263-.372-.733-.58-1.154-.798-1.568-.267-.505-.628-.97-.797-1.512-.431-1.377-1.09-2.594-1.82-3.794-.505-.829-.912-1.755-1.236-2.693-.593-1.717-1.27-3.381-2.103-4.959zm22.361-46.93c-.065-.017-.133-.053-.195-.044-.028.005-.045.098-.067.152.066.02.133.06.198.054.025 0 .043-.104.064-.161zm.551 66.06c-1.712.585-1.713.588-1.992 1.87 1.122-.425 1.127-.42 1.992-1.87zm50.262 7.268a1.544 1.544 0 0 0-.062.075l-.071-1.51c-3.653 2.534-4.227 3.226-5.929 7.168-.778 1.803-1.043 3.714-1.029 6.299.777-1.324 1.343-2.117 1.745-3.002 1.471-3.242 3.553-6.028 5.346-9.03zm-32.86 65.076c-.021-2.935-.166-5.843-.511-8.762-.464-3.924-.709-7.886-.349-11.861.119-1.317.061-2.649-.281-3.952-.203 2.094-.244 4.191-.357 6.282-.205 3.797-.232 7.592.459 11.328.428 2.31.862 4.609 1.039 6.965zm21.275-37.613c.581-.559.572-1.044-.009-2.038l.009 2.038zm2.958 2.655.082-.403-1.431-.009-.011.322 1.36.09zM46.126 15.224c.131-.07.292-.108.378-.22.04-.052-.067-.244-.107-.374-.13.065-.297.097-.376.208-.043.06.064.252.105.386zm-18.709 92.582c.243 1.122.434 1.745.502 2.384.079.746.033 1.508.075 2.261.037.668.113 1.334.184 2 .034.324.074.666.503.564 1.325-2.988 1.081-4.833-1.264-7.209zm38.468 30.658c.243-.177.515-.321.721-.543.193-.207.316-.496.555-.891-1.007-.138-1.255.527-1.276 1.434zm-4.436-16.476c1.04.713 1.791 1.271 2.578 1.757 1.454.894 2.786.05 4.1-.49 1.08-.444 1.139-1.686 1.396-2.717.163-.657-.226-1.132-.868-1.126-2.539.021-4.798 1.017-7.206 2.576zm-16.417-6.504-.16-.003c-.029.497-.072.995-.087 1.492-.049 1.603-.085 3.206-.132 4.809-.055 1.859-.265 3.73-.138 5.572.179 2.599.605 5.176.943 7.906.069-.892.236-1.659.167-2.399-.299-3.185.501-6.411-.312-9.579-.12-.465.03-1.01.009-1.515-.087-2.095-.192-4.188-.29-6.283zM32.963 37.596c-1.301 1.357-2.837 1.843-4.594 1.234a.855.855 0 0 0-.224-.043c-.738-.046-1.311.26-1.749.943-.558.873-.803 1.783-.571 2.862a6.177 6.177 0 0 0 1.416 2.842c1.05 1.197 2.117 2.376 3.273 3.67l.181-2.378 1.046 2.441c.912-1.012 1.954-1.902 2.182-3.263.28-1.673.723-3.27 1.194-4.873.22-.753.085-1.49-.228-2.21-.339-.785-.926-1.068-1.926-1.225zm23.974 25.452c.891-.13 1.729-.028 2.35-.388 1.788-1.038 3.063-2.755 4.042-4.671.736-1.44-.039-2.72-1.591-2.976-.671-.11-1.36-.216-1.991-.476-2.534-1.048-3.399-2.462-3.502-5.52-.013-.38-.122-.754-.203-1.228-.737.15-1.079.518-1.256 1.132-.613 2.134-.787 4.281-.342 6.5.278 1.393.43 2.823.578 4.244.061.594-.013 1.175.655 1.43.067.026-.061.614-.053.94.003.132.129.262.212.418.411-.168.969-.865 1.101.595zm-30.66 105.21c-.179-1.188-.388-2.136-1.302-2.826-.205.393-.507.699-.472.946.154 1.059-.409 1.849-.69 2.749-.644 2.064-1.716 3.476-3.817 3.755-.751.099-1.326.674-1.113 1.814.111.597-.383.806-.906.426-.177-.128-.277-.389-.391-.56-2.062 1.052-2.379 3.006-2.744 4.874 1.572.603 2.993 1.142 4.411 1.695.876.341 1.758.468 2.682.28 1.63-.333 3.265-.627 4.871-.933.164-1.919 1.774-.587 2.449-1.572-.347-.422-.696-.84-1.039-1.265-.658-.813-1.284-1.662-1.976-2.437-1.669-1.872-1.541-3.898-.49-6.028.144-.292.323-.563.527-.918zm35.048-30.929-.044.334c.407.14.81.302 1.224.403.112.027.26-.127.392-.198-.117-.183-.217-.501-.357-.526-.396-.068-.809-.016-1.215-.013zm-5.731-15.68c.555-.612 1.255-.785 2.011-.763.831.025 1.662.086 2.492.101 1.004.017 1.875-.319 2.608-1.213-.785-1.004-1.756-1.094-2.73-1.31-1.075.882-2.2 1.496-3.573 1.382-.3-.024-.628.386-.96.606l.152 1.197zm-1.693 40.685c.983-2.471.964-4.982-.122-7.271-.923-1.948-1.619-3.984-2.415-5.98-.173-.433-.451-.812-.753-1.344-.281 1.007.105 1.679.425 2.324 1.297 2.613 1.902 5.471 2.406 8.359.224 1.288.31 2.607.459 3.912zM28.913 37.46c.068-.447.136-.772.16-1.102.018-.25.004-.51-.036-.757-.18-1.111-1.08-1.61-2.052-1.225-1.002.397-1.558 1.335-2.108 2.204-.577.911-1.26 1.405-2.231 1.489-.372.032-.742.11-1.023.152-.65.566-.942 1.225-1.088 1.998-.126.67-.429 1.202-.893 1.705-1.007 1.094-.967 1.14-.127 2.83.72-.043 1.474-.143 2.224-.111.51.022 1.093.09 1.507.379 1.466 1.025 3.021 1.936 4.143 3.478.602.829 1.292 1.535 2.446 2.088-.473-1.46-1.072-2.465-2.039-3.187-1.164-.872-1.999-2.062-2.588-3.454-.665-1.571-.447-3.105.25-4.618.611-1.327 1.659-1.612 2.846-1.664.144-.007.286-.093.609-.205zm11.72 162 .155-.736-.194-.029.036.763.003.002zm10.607-98.913c-1.722 2.381-2.585 4.259-3.082 6.943 1.375-2.132 2.435-4.018 3.167-6.115.08-.23-.034-.545-.085-.828zm.123-.154c.107-.035.213-.072.317-.115.006-.002-.032-.135-.049-.206l-.268.321zM30.197 141.25l.04-.179-.161.121.121.058zm39.623 31.021c-2.244 1.263-3.524 3.336-5.088 5.086-.891.996-1.964 1.819-3.039 2.568-.633.441-1.243.847-1.966 1.621 1.144.305 1.974.241 2.802-.194 3.024-1.593 5.545-3.746 6.718-7.421.151-.472.322-.936.573-1.66zM30.133 35.769c-.146.82-.35 1.521.085 2.348.754-.414 1.553-.585 1.944-1.465-.443-.884-1.032-1.246-2.029-.883zm12.954-19.52c-.936-1.194-1.452-2.398-2.474-3.159-.139-.102-.481-.092-.58.025-.12.14-.186.555-.094.669.701.865 1.434 1.7 2.192 2.505.104.109.401-.008.956-.04z" fill="#687E6B"/></g><defs><clipPath id="a"><path fill="#fff" d="M0 0h82v242H0z"/></clipPath></defs></svg>