<svg width="141" height="232" fill="none" xmlns="http://www.w3.org/2000/svg"><g clip-path="url(#a)"><path d="M109.865 66.474c-.19.635-.531 1.317-1.014 2.027a78.231 78.231 0 0 1-4.696 6.26c-1.568 1.882-2.862 4.052-4.114 6.151-.525.88-1.066 1.788-1.621 2.664-.204.323-.394.665-.577.996-.087.157-.174.314-.263.47l-.044.077-.089-.017-.323-.063-.108-.02.006-.11c.03-.56.054-1.123.076-1.685.052-1.243.105-2.53.237-3.789.277-2.654 1.297-5.036 2.154-6.814 1.22-2.53 1.597-5.27 1.822-7.853.08-.916.31-1.829.532-2.712.139-.557.283-1.132.388-1.7.382-2.068 1.358-3.917 2.3-5.705.837-1.586 1.701-3.226 2.132-4.994.27-1.113.701-2.189 1.118-3.229.614-1.535 1.249-3.12 1.366-4.832.02-.289.176-.55.392-.914.116-.195.249-.417.387-.688l.133-.263.097.278c.139.4.274.756.401 1.088.257.671.478 1.252.594 1.85.144.741.215 1.506.283 2.245.045.477.091.971.156 1.452.075.553.171 1.114.262 1.657a38.5 38.5 0 0 1 .315 2.075c.174 1.501.307 3.068.396 4.657.031.544-.027 1.157-.177 1.877a65.76 65.76 0 0 1-.821 3.362l-.258.976c-.453 1.72-.921 3.495-1.442 5.226zM95.821 83.248c-.253-.568-.503-1.114-.746-1.648-.536-1.174-1.043-2.284-1.489-3.418-.654-1.659-1.213-3.384-1.755-5.053-.502-1.547-.26-3.096-.027-4.595l.043-.274c.407-2.637.935-5.489 1.615-8.72.129-.61.433-1.188.728-1.746.112-.21.223-.42.324-.633.058-.118.145-.214.229-.306.076-.083.148-.162.188-.248.925-1.983 2.439-3.503 3.903-4.974.627-.63 1.276-1.282 1.868-1.96.464-.532.955-1.055 1.43-1.562 1.417-1.514 2.882-3.079 3.814-5.04.361-.762.949-1.42 1.518-2.059.254-.285.517-.58.755-.879l.062-.079.091.044.196.096.197.096.087.042-.019.096a15.09 15.09 0 0 0-.157 1.004c-.101.75-.205 1.523-.539 2.18-.662 1.306-1.072 2.716-1.469 4.081-.254.873-.517 1.776-.843 2.645-.418 1.112-.841 2.193-1.418 3.193-1.249 2.166-2.062 4.088-2.556 6.046-.143.57-.341 1.13-.532 1.673-.373 1.06-.758 2.157-.747 3.334.004.461-.06.926-.121 1.374-.047.343-.096.698-.113 1.045-.085 1.738-.741 3.321-1.375 4.852l-.141.342c-.223.541-.457 1.076-.691 1.612a66.053 66.053 0 0 0-.814 1.911c-.257.642-.404 1.162-.462 1.637-.123 1.014-.22 2.05-.315 3.051-.059.626-.118 1.253-.184 1.88-.016.156-.072.307-.148.515-.044.118-.096.258-.154.434l-.1.31-.133-.299zm-2.272-2.658c.212.447.426.894.628 1.343.16.354.34.708.514 1.05.552 1.082 1.123 2.201 1.138 3.522.003.22.098.445.198.683.037.09.074.177.108.265.525 1.43.795 2.672.404 4.09-.179.647-.152 1.374-.124 2.077.012.324.024.66.017.986-.012.568-.026 1.136-.04 1.704l-.018.744-.003.121-.121.001-.42.006-.113.002-.014-.113a14.167 14.167 0 0 0-.037-.278c-.03-.203-.062-.414-.061-.626.004-2.522-1.045-4.79-2.059-6.985-.463-1-1.358-2-2.347-2.634-1.125-.72-2.021-1.69-2.82-3.053a95.888 95.888 0 0 0-.867-1.435c-1.129-1.844-2.297-3.75-2.875-5.923-.051-.195-.109-.39-.168-.584-.139-.473-.284-.96-.343-1.456-.4-3.297-1.932-6.33-4.821-9.545-.544-.607-1.085-1.219-1.626-1.829l-.742-.838-.067-.076.059-.082.261-.357.055-.075.088.031c.293.102.589.2.885.295.648.213 1.32.434 1.958.71l.758.324c1.38.59 2.807 1.2 4.122 1.96 1.526.88 3.045 1.947 3.828 3.786.077.182.23.34.392.504.128.13.26.264.361.42.098.15.203.297.307.447.331.473.674.962.817 1.505.226.852.402 1.732.571 2.583.218 1.095.443 2.228.777 3.304.365 1.175.911 2.32 1.44 3.426zm-.776 11.498-2.441-4.285-.198-.348.361.172c2.215 1.055 2.761 3.06 3.288 5 .138.504.28 1.025.449 1.52l-.227.102-1.232-2.16zm10.998 25.553.36.137.327.124-.332.113c-.407.137-.816.266-1.226.395-.884.279-1.799.568-2.657.937a9.667 9.667 0 0 0-.813.396c-2.16 1.179-3.712 3.082-5.243 5.093-.715.939-1.374 1.902-2.071 2.922-.315.461-.635.928-.965 1.4l-.108.156-.101-.161c-1.631-2.617-2.137-5.448-2.44-8.116l-.007-.064.048-.044.193-.173c.556-.5 1.186-1.067 1.968-1.494.493-.269.99-.455 1.519-.565.557-.118 1.079-.387 1.565-.652l.242-.133.243-.135c.279-.152.579-.31.896-.443.074-.03.148-.063.222-.095.704-.307 1.503-.653 2.316.034.036.031.209.035.301-.012 2.033-1.046 3.929-.321 5.763.38zm1.934 1.586c.751.068 1.297.604 1.389 1.367.164 1.338.348 2.856-.444 4.314-.904 1.665-1.545 2.344-3.137 3.67-.919.764-1.772 1.644-2.596 2.495-.402.414-.817.842-1.236 1.253-.138.136-.295.253-.446.366-.095.072-.19.143-.282.22-.236.198-.475.394-.713.59-.638.525-1.297 1.068-1.902 1.643-.398.379-.491.793-.286 1.268.103.235.03.525-.062.891-.048.187-.101.4-.142.641l-.039.238-.172-.169c-2.337-2.297-4.919-2.116-7.582-1.702-.877.137-1.76.334-2.616.525a47.71 47.71 0 0 1-2.264.467c-3.748.648-7.107-1.747-8.487-4.448-.879-1.72-.384-3.562.186-4.805.386-.84 1.098-1.523 2.245-2.149.229-.126.479-.251.765-.383 2.118-.98 4.22-.59 6.249 1.159a39.9 39.9 0 0 1 3.945 3.925c.412.47.647 1.094.874 1.698.084.223.168.446.261.66.118.275.207.556.319.913l.129.405c.106-.108.212-.206.308-.296.255-.239.458-.429.507-.634.394-1.641 1.327-2.987 2.231-4.29.224-.323.449-.647.666-.976.193-.293.406-.578.611-.855.305-.41.619-.833.87-1.278 1.225-2.175 3.047-4.029 5.735-5.835.119-.08.24-.154.365-.222 1.172-.64 2.681-.851 4.751-.666zm-6.033 14.604c.872 1.949.939 2.931.328 4.776l-.201.605-.044-.636-.223-3.234-.1-1.451-.048-.705.288.645zm-.226 11.729.007.102-.098.028-.037.011-.173.05-.095.028-.049-.087a12.642 12.642 0 0 0-.13-.22 4.968 4.968 0 0 1-.274-.504c-.31-.699-.616-1.399-.922-2.099-.363-.83-.725-1.658-1.094-2.484-.781-1.752-.004-4.111 1.889-5.737l.19-.163.017.249.374 5.256.395 5.57zm1.044 3.419-.029.131-.215 1.897.008.008-.012.071c.026.366.061.753.096 1.141.076.852.155 1.733.154 2.602-.004 4.194-1.33 8.06-2.485 10.959-.091.227-.172.456-.254.683-.277.777-.564 1.58-1.191 2.222-.093.096-.2.175-.362.294a15.8 15.8 0 0 0-.349.262l-.333.257.138-.398c.202-.58.407-1.125.605-1.652.408-1.079.791-2.097 1.026-3.13.201-.881.43-1.771.65-2.633.651-2.535 1.324-5.157 1.361-7.857.008-.657.224-1.312.434-1.945.087-.264.177-.537.25-.805-.43-.521-.262-1.049-.112-1.517.054-.171.105-.332.132-.493l-.062-.491-.142-1.128-.033-.262.224.14c.764.476.624 1.097.501 1.644zm-23.488-24.333a11.767 11.767 0 0 1 3.224-2.614 11.648 11.648 0 0 1 3.885-1.288c.935-.14 2.658-.152 3.694 1.33.303.433.509.978.55 1.458.12 1.397.271 2.558 1.017 3.712.446.69.594 1.56.751 2.48.07.417.143.847.248 1.274l.096.397-.303-.275c-.387-.351-.756-.683-1.111-1.002-.819-.736-1.593-1.431-2.329-2.138-.203-.195-.37-.433-.531-.662-.21-.3-.409-.582-.675-.765-1.34-.922-2.482-1.6-3.595-2.136-1.308-.63-2.544-.636-3.674-.019a4.63 4.63 0 0 0-.479.305.633.633 0 0 1-.051.032c-.123.067-.269.08-.411.093-.063.006-.128.012-.188.023l-.359.07.241-.275zm8.345-10.786c-.939-1.547-1.57-3.308-2.18-5.011a92.64 92.64 0 0 0-.488-1.343c-.257-.689-.287-1.511-.093-2.588l.051-.291.173.239c.136.188.277.371.418.555.311.406.632.826.891 1.277.668 1.163 1.471 2.177 2.528 3.191 1.908 1.829 3.788 3.905 4.616 6.677.082.274.116.553.155.874.017.155.038.318.064.493l.025.161-.163-.017c-3.296-.355-5.001-2.577-5.997-4.217zm-4.293-13.523.164.075c3.075 1.433 5.979 2.786 7.626 6.022 1.173 2.308 2.468 4.509 3.84 6.84a316.122 316.122 0 0 1 1.815 3.111l.074.129-.14.051-.672.248-1.458.537-.113.042-.046-.112c-.169-.414-.317-.835-.46-1.241-.313-.893-.609-1.736-1.1-2.446-1.071-1.55-2.369-3.1-3.969-4.74-1.007-1.032-1.97-2.069-2.685-3.411-.63-1.185-1.375-2.338-2.094-3.452-.317-.49-.633-.979-.942-1.474l-.223-.358.383.179zm17.292 15.392-.108-1.384-.107-1.384-.027-.328.239.228c.734.707 1.487 1.676.772 2.899l-.034.059-.07.003-.401.017-.134.006-.121.004-.009-.12zm12.423 32.689c.146-.264.264-.483.366-.672.183-.34.316-.586.463-.823.167-.266.339-.527.511-.787.634-.962 1.289-1.955 1.595-3.14.129-.501.527-.923.913-1.332.153-.164.313-.333.449-.502 1.272-1.577 2.549-3.151 3.826-4.726l.406-.5c.237-.293.448-.516.706-.657.349-.191.726-.184 1.148.021.446-1.272 1.455-1.912 2.372-2.413.162-.089.327-.176.492-.263.163-.086.328-.172.49-.26.152-.083.302-.169.451-.258.157-.095.315-.186.475-.273 1.579-.862 3.3-1.38 4.964-1.88 1.199-.36 2.439-.732 3.61-1.23l.128-.055.041.133.127.411.024.077-.061.054c-.052.047-.102.097-.153.148a1.617 1.617 0 0 1-.373.31c-.912.47-1.828.924-2.714 1.364-1.483.736-3.017 1.497-4.492 2.303-.407.223-.813.45-1.214.682-1.896 1.098-3.38 2.434-4.407 3.971-1.862 2.784-3.919 5.323-6.115 7.546a31.76 31.76 0 0 1-2.301 2.087 2.4 2.4 0 0 1-.385.254 12.07 12.07 0 0 1-.482.24 20.2 20.2 0 0 0-.692.342l-.369.194.201-.366zm1.635-5.942c.006-.162.007-.292.007-.4.002-.192.003-.33.028-.465.458-2.412.703-4.895.941-7.296.186-1.881.379-3.826.672-5.727.187-1.216.504-2.506 1.027-4.185.224-.723.5-1.444.765-2.142.432-1.134.879-2.306 1.113-3.495.29-1.474.619-3.145.13-4.918-.377-1.365-.492-2.821-.601-4.229-.046-.578-.093-1.176-.156-1.757-.012-.102.046-.183.119-.286.033-.046.072-.101.111-.167l.13-.219.095.236c.184.458.352.922.516 1.371.372 1.025.724 1.992 1.235 2.884a29.692 29.692 0 0 1 2.195 4.739c1.106 3.064 1.302 6.102.601 9.288-.455 2.07-.874 4.274-.565 6.474.12.851-.134 1.477-.734 1.81-1.489.826-2.481 2.162-3.44 3.454-.285.382-.579.778-.882 1.156-.676.843-1.341 1.705-2.046 2.617-.332.43-.676.875-1.036 1.338l-.238.306.013-.387zm7.053-30.386a77.95 77.95 0 0 0-.721-1.526c-1.165-2.423-2.371-4.93-2.24-7.844l.024-.551.216.508c.141.329.286.655.432.983.315.706.64 1.437.903 2.178a23.322 23.322 0 0 0 5.342 8.623c2.793 2.886 4.368 6.305 4.681 10.164.088 1.078.067 2.141.046 3.17-.008.436-.017.858-.016 1.259v.077l-.068.035-6.414 3.319-.159.082-.022-.178c-.01-.078-.025-.16-.039-.246a3.027 3.027 0 0 1-.067-.652c.114-2.777.374-4.91.845-6.916.328-1.393.186-2.944.014-4.413-.32-2.713-1.411-5.11-2.565-7.648l-.192-.424zm15.192 16.479.381-.265.259-.181.099-.069.073.098.118.158.068.093-.086.076-.446.396-.13.115-.098.087-.083-.102-.157-.194-.024-.03-.085-.105.111-.077zm3.28-1.493.217-.193-.008.29c-.039 1.384-.733 2.171-1.405 2.932-.262.296-.508.576-.709.883-.469.718-1.146 1.422-1.959 2.035-.472.356-.912.644-1.344.88a6.697 6.697 0 0 1-1.247.535c-.963.293-1.872.671-2.698 1.123a12.08 12.08 0 0 0-2.695 1.991c-.777.765-1.445 1.671-2.092 2.547a32.477 32.477 0 0 1-1.377 1.776l-.103.122c-1.077 1.262-2.188 2.567-3.459 3.653-.837.714-1.395 1.157-1.947 1.459-.936.511-1.82.608-3.953.842l-.097.01-.392.043.295-.261c.394-.351.761-.685 1.11-1.004.762-.696 1.42-1.297 2.14-1.856 1.137-.883 1.928-1.978 2.772-3.215 1.556-2.278 3.491-5.115 6.491-6.753.29-.158.59-.306.892-.439a66.228 66.228 0 0 0 7.627-3.97c.939-.57 1.761-1.363 2.632-2.202.416-.401.846-.816 1.309-1.228zM94.39 172.939a902.621 902.621 0 0 1-2.207 3.515c-1.687 2.68-3.431 5.452-5.094 8.208-1.818 3.011-4.028 5.622-6.146 7.994-.987 1.105-2.121 2.106-3.219 3.075-.566.5-1.152 1.017-1.711 1.543-.281.264-.548.557-.807.841-.281.308-.572.627-.886.915-.412.379-.847.743-1.268 1.095-.529.445-1.077.905-1.578 1.391-.37.358-.749.712-1.129 1.065-1.179 1.098-2.4 2.234-3.313 3.542-.845 1.208-1.902 1.979-3.022 2.794a47.83 47.83 0 0 0-.67.494l-.269.201.07-.328c.237-1.1.973-1.914 1.623-2.63.746-.823 1.524-1.636 2.277-2.424.472-.493.945-.987 1.412-1.486.648-.692 1.292-1.389 1.934-2.086 1.383-1.498 2.813-3.048 4.273-4.519.437-.44.98-.777 1.506-1.103.407-.25.827-.511 1.191-.816 3.19-2.674 5.496-5.308 7.257-8.292 1.102-1.867 2.444-3.629 3.744-5.332.778-1.02 1.582-2.075 2.326-3.141.66-.947 1.245-1.973 1.812-2.966.285-.5.57-1.001.866-1.494.08-.133.184-.247.284-.357.044-.048.088-.097.13-.146l.075-.091.095.07.272.198.139.102.095.069-.062.099zm-33.18 38.407c-1.164 2.27-2.84 3.98-5.124 5.228-.126.068-.253.135-.382.201l-.393.2c-.959.488-1.95.992-2.91 1.517-1.955 1.068-3.459 2.051-4.736 3.096-.383.313-.836.61-1.427.932-.317.173-.641.337-.965.501-.322.163-.644.325-.959.497-.085.047-.17.094-.254.143l-.124.069-.319.168a15.87 15.87 0 0 0-.317.168c-.276.15-.587.338-.816.593-.723.806-1.632 1.494-2.858 2.164a37.83 37.83 0 0 1-1.914.952c-.333.158-.666.316-.996.478-.242.119-.482.242-.723.364-.941.476-1.913.968-2.928 1.28-.77.235-1.604.284-2.411.331-.298.017-.596.035-.89.061-.463.042-.93.062-1.47.085l-.872.04-.312.017.214-.228c.13-.136.238-.261.337-.375.195-.224.35-.401.543-.542.166-.12.33-.242.495-.363.693-.512 1.409-1.042 2.178-1.462.731-.399 1.436-.658 2.154-.79 1.047-.192 1.847-.452 2.515-.816a5.217 5.217 0 0 0 1.047-.753c.071-.067.158-.129.264-.188.114-.061.237-.113.36-.164.06-.025.12-.049.177-.076.794-.357 1.59-.709 2.387-1.059 1.705-.752 3.468-1.53 5.17-2.356a62.068 62.068 0 0 0 2.64-1.371c.825-.45 1.644-.914 2.462-1.377l.692-.391c.492-.277.977-.592 1.447-.898a25.452 25.452 0 0 1 1.609-.988c.282-.154.544-.283.803-.396.323-.139.649-.3.97-.474 1.58-.864 2.95-2.056 4.274-3.209l.644-.559c.116-.1.24-.191.363-.283.056-.041.112-.082.166-.124l.443-.338-.254.495zm14.803-26.958c.092-.418.168-.783.239-1.115.135-.643.242-1.151.372-1.659.079-.311.155-.622.232-.934.475-1.934.966-3.932 2.08-5.719.691-1.106 1.252-2.323 1.795-3.5.177-.383.354-.765.534-1.144.051-.106.037-.26.021-.423-.01-.103-.02-.21-.014-.314.002-.043.002-.09.002-.139.002-.203.003-.414.134-.526.853-.735 1.453-1.693 2.033-2.619.498-.795 1.013-1.616 1.692-2.314l.446-.461c1.541-1.592 3.134-3.239 5.406-4.514l.321-.181-.144.339-.052.122c-.875 2.048-1.631 3.817-2.893 5.357-.796.971-1.533 2.021-2.245 3.037-.3.428-.6.856-.905 1.279-.032.044-.056.104-.084.167-.049.118-.099.24-.212.308-2.222 1.355-2.957 3.628-3.668 5.826-.15.465-.305.945-.472 1.41-.16.443-.284.913-.405 1.367-.189.716-.386 1.457-.724 2.121-.691 1.356-1.695 2.515-2.857 3.858l-.414.479-.323.375.105-.483zm-.747-3.459c-.058-.47-.118-.908-.174-1.325-.123-.9-.228-1.676-.28-2.472-.072-1.113-.385-2.226-1.017-3.608l-.051-.111c-.627-1.371-1.275-2.789-1.623-4.26-.649-2.748-1.193-5.712-.781-8.77.172-1.29.307-2.608.438-3.883.06-.583.119-1.165.183-1.747l.01-.098.098-.013.298-.04.186-.025.099-.013.035.093c.092.244.197.485.301.726.227.526.462 1.069.564 1.634.601 3.292.744 6.819.437 10.783-.043.551.086 1.137.211 1.704.033.152.067.303.097.453l.251 1.251c.463 2.32.941 4.719 1.474 7.064.183.803.164 1.57-.524 2.707l-.188.309-.044-.359zm-3.228-29.373c-.078-.141-.117-.294-.166-.487-.026-.099-.054-.208-.091-.333l-.057-.188.195.028c1.227.178 1.715 1.006 2.145 1.736 2.086 3.536 2.933 6.56 2.682 9.546-.157 1.866.134 3.706.415 5.486.192 1.221.392 2.484.445 3.744.073 1.734.071 3.775-.899 6.052l-.156.366-.082-.389-.29-1.376-.527-2.506c-.081-.383-.166-.764-.251-1.146-.188-.848-.384-1.724-.526-2.596-.039-.242-.084-.486-.129-.731-.174-.957-.355-1.947-.242-2.894.651-5.468-.156-10.15-2.466-14.312zm7.22-78.864.194.456-.388-.308c-.228-.182-.463-.357-.697-.532-.516-.384-1.048-.782-1.503-1.247a69.697 69.697 0 0 1-1.937-2.09 66.343 66.343 0 0 0-2.088-2.247c-.531-.535-.521-1.123-.51-1.747.006-.345.012-.703-.066-1.093l-.108-.55.333.451c.824 1.12 1.741 2.136 2.627 3.118 1.634 1.811 3.177 3.522 4.143 5.79zM58.404 58.867a40.358 40.358 0 0 0-2.979 1.811 73.257 73.257 0 0 0-2.401 1.687c-.93.674-1.893 1.371-2.879 2-.253.162-.524.322-.807.477-.738.403-1.556.775-2.655 1.207-3.546 1.396-7.38 2.753-11.381 3.218-3.517.411-6.453-.343-8.974-2.302-.66-.513-1.317-1.03-1.974-1.549-.607-.478-1.214-.956-1.823-1.43l-.032-.025c-.16-.125-.341-.266-.513-.3-1.582-.307-2.767-1.278-3.915-2.218-.282-.23-.564-.462-.852-.683-1.54-1.184-2.46-2.87-3.351-4.502l-.234-.429c-2.255-4.097-5.612-6.042-10.261-5.944-.536.011-.979.006-1.392-.015-.126-.007-.239-.062-.348-.114-.044-.02-.089-.043-.134-.06l-.14-.055.078-.128c1.197-1.946 3.064-3.01 4.868-4.038.361-.206.721-.41 1.076-.622l.081-.048c.215-.127.437-.258.575-.434.525-.665 1.176-1.204 1.987-1.648 1.017-.555 2.16-.89 3.266-1.213l.241-.07c.734-.217 1.483-.42 2.209-.617 1.961-.533 3.988-1.084 5.892-1.925.242-.108.483-.226.714-.353 1.233-.673 2.324-1.632 3.241-2.85.42-.557.867-.96 1.368-1.234.329-.18.683-.307 1.084-.39 1.493-.308 2.769-.759 3.901-1.378.289-.157.574-.329.849-.51.314-.209.647-.408 1.017-.61.873-.477 1.806-.886 2.708-1.28.322-.14.642-.28.959-.425 1.226-.553 2.521-.355 3.744.571l.218.165c.997.753 2.029 1.531 2.814 2.494 1.005 1.232 2.322 2.063 4.271 2.692 5.392 1.743 9.866 5.044 13.301 9.811a43.288 43.288 0 0 1 4.61 8.157c.188.434.329.886.477 1.364.071.228.144.462.225.705l.048.146-.153.018c-2.876.337-5.697 1.277-8.624 2.876zm7.945 2.01c.753 2.368 1.387 12.037.955 14.571l-.046.276-.175-.22c-.723-.908-1.02-1.89-1.333-2.93a35.47 35.47 0 0 0-.241-.773c-.041.18-.071.35-.038.497l.043.19c.151.663.305 1.351.63 1.918 1.075 1.878 1.31 3.964 1.538 5.983l.045.397c.085.74.253 1.484.416 2.205.076.334.152.67.22 1.004l.096.47-.314-.364c-2.514-2.918-3.809-6.493-3.959-10.93-.028-.833-.137-1.679-.243-2.498-.055-.432-.11-.865-.155-1.297a4.653 4.653 0 0 0-.05-.327c-.058-.33-.117-.672.016-.937.416-.83.584-1.764.746-2.668.221-1.233.451-2.509 1.304-3.574.118-.146.165-.37.214-.608.027-.126.054-.257.092-.384l.116-.389.123.387zm-2.447-.998c-.304.365-.618.741-.942 1.1-1.496 1.652-3.366 3.907-4.553 6.71-.418.986-1.383 1.817-2.072 2.356-.196.153-.372.33-.56.516-.293.291-.595.593-.976.801-.33.18-.678.27-1.065.271-.128.001-.27.046-.447.143a5.14 5.14 0 0 0-.414.262c-.162.11-.329.222-.51.321a2.34 2.34 0 0 1-.555.224l-.219.054.07-.215c.02-.06.034-.13.048-.199.037-.177.074-.36.206-.468.492-.405 1.001-.805 1.493-1.193a55.5 55.5 0 0 0 2.274-1.855c.347-.303.959-.913 1.16-1.589.873-2.942 2.991-4.979 5.04-6.95l.279-.268c.127-.123.28-.233.47-.336.239-.13.507-.235.764-.335.198-.076.401-.155.586-.245l.079-.038.063.061.099.096.1.096.084.081-.076.09-.426.51zM50.893 73.063c-.608 1.32-1.449 2.3-2.433 2.837-1.414.773-3.045.64-4.717-.382l-.228-.138.252-.087 6.738-2.32.233-.082.278-.095-.123.267zM5.09 44.773l.551-1.265.98-2.248.27-.624a689.912 689.912 0 0 0 1.576-3.644c.045-.107.078-.235.108-.358.059-.235.118-.477.283-.639.456-.452.888-.949 1.305-1.43.911-1.05 1.852-2.138 3.139-2.84.045-.026.093-.05.141-.076.081-.042.168-.052.277-.065.054-.006.117-.013.19-.026l.108-.019.033.106.387 1.25c.401 1.297.816 2.638 1.24 3.954.068.208.251.41.434.597.294.303.606.602 1.001.981.186.177.392.375.626.602l.155.151-.208.06c-.782.225-1.535.416-2.262.601-1.549.394-3.013.766-4.341 1.373-.276.126-.55.263-.838.421-1.003.547-1.98 1.231-3.013 1.954-.622.435-1.264.885-1.959 1.34l-.351.23.168-.386zM15.716 33.79c-.215-.535-.436-1.088-.578-1.656-.225-.905-.243-1.417.283-1.704.305-.167.795-.249 1.484-.327l.11-.012.026.107c.658 2.721 1.508 5.544 3.981 7.537l.149.12-.168.09-.07.036c-.115.063-.227.128-.339.193-.111.064-.221.127-.331.187a3.88 3.88 0 0 1-.638.29c-.264.09-.849.154-1.075-.087a14.947 14.947 0 0 0-.58-.574c-.694-.668-1.413-1.357-1.659-2.452-.134-.594-.368-1.18-.595-1.748zm-1.236-4.177-.106-1.92-.181-3.282-.014-.25.208.138c.859.566 1.191 1.375 1.512 2.157.296.721.602 1.467 1.324 2.046l.169.136-.201.08-2.54 1.005-.162.063-.009-.173zm1.487-5.212c-1.377-1.953-1.253-3.987-.967-6.25.097-.778.349-1.542.593-2.28.135-.412.275-.837.386-1.258.14-.53.399-.902.767-1.104a1.59 1.59 0 0 1 .661-.179l.774-.05c1.057-.073 2.15-.147 3.221-.092 1.552.08 3.016-.242 4.432-.553 1.915-.422 3.885-.73 5.793-1.028.458-.07.917-.143 1.376-.216.428-.069.898.011 1.258.09.877.187 1.755.371 2.632.555 2.653.556 5.395 1.131 8.063 1.815 1.478.38 2.866 1.182 3.91 1.84 1.025.645 1.975 1.395 2.892 2.12.381.302.755.598 1.125.877l.045.035.004.058c.106 1.746-.338 3.278-1.358 4.683-.676.932-.981 2.02-1.277 3.071-.126.446-.255.908-.412 1.355-.09.254-.177.51-.267.774l-.127.374-.056.162-.137-.1c-1.492-1.092-2.186-3.072-1.652-4.708.197-.6.415-1.234.741-1.795.666-1.145.741-2.376.819-3.678l.004-.069c-.53.004-.931.084-1.224.244-.445.243-.654.685-.657 1.39-.001.278.043.567.086.846.053.351.108.714.079 1.072-.034.42-.165.827-.332 1.343-.084.26-.178.548-.273.882l-.083.291-.147-.265c-.128-.23-.238-.414-.332-.57-.165-.275-.284-.474-.355-.69-.321-.99-.63-2-.931-2.977-.149-.484-.297-.967-.447-1.45-.023-.073-.042-.15-.062-.227-.052-.198-.105-.404-.215-.535-.087-.102-.169-.22-.252-.339-.291-.423-.543-.787-1.071-.618a.711.711 0 0 0-.107.047c-.227.124-.473.415-.71.842-.436.785.212 1.283.512 1.461.988.586 1.697 1.457 2.105 2.586.244.677.527 1.354.8 2.01.668 1.6 1.36 3.257 1.566 5.064.056.49.147.966.245 1.47.146.75.296 1.523.319 2.354l.01.345-.228-.259a15.333 15.333 0 0 0-.448-.474c-.339-.349-.688-.71-.943-1.128a28.763 28.763 0 0 1-1.025-1.882c-.25-.486-.509-.989-.784-1.47-.624-1.092-1.33-2.223-2.482-3.017-.495-.34-.887-.836-1.267-1.316a13.354 13.354 0 0 0-.526-.64l-.043-.05.016-.064c.495-2.08-.779-4.076-3.04-4.81.042.265.061.533.08.794.064.88.124 1.708 1.05 2.285.393.246.618.823.752 1.235.434 1.327 1.363 2.218 2.358 3.088.777.68 1.482 1.493 2.039 2.353.548.846 1.018 1.74 1.515 2.684.217.415.441.84.678 1.274l.228.417-.404-.25c-3.26-2.02-5.394-4.22-6.712-6.923-.2-.408-.448-.916-.795-1.282-.387-.409-.825-.525-1.201-.32a1.095 1.095 0 0 0-.288.235c-.423.476-.246.86.205 1.36.592.658 1.179 1.321 1.785 2.005l.778.878.102.115-.133.077-.105.06c-1.092.596-1.883.362-2.806-.21-1.952-1.208-3.413-2.723-4.47-4.632-.688-1.244-1.503-1.72-2.635-1.538-.113.836.123 1.307.802 1.616 1.29.585 2.133 1.606 3.024 2.687l.05.06c.604.731 1.373 1.33 2.188 1.963.367.285.747.581 1.122.897l.142.12-.165.087-1.598.837-.81.424-.067.035-.063-.044c-.162-.113-.312-.224-.457-.33-.319-.234-.595-.438-.896-.6-.316-.173-.748-.407-1.032-.336a3.675 3.675 0 0 0-.837.312c-.243.134-.409.28-.493.434-.251.461.156.783.712 1.156l.044.03c.114.077.26.121.5.195.144.044.318.098.537.175l.35.122-.353.115c-.621.203-1.22.37-1.799.531-1.163.323-2.259.63-3.203 1.144l-.135.076c-1.002.58-1.852 1.404-2.751 2.278-.394.382-.801.778-1.225 1.154l-.059.052-.072-.03c-1.714-.704-2.855-2.084-3.392-4.103a15.947 15.947 0 0 0-.266-.855c-.2-.607-.408-1.234-.436-1.867-.106-2.422-1.263-4.369-2.38-5.955zm16.576-15.07c.007-.33-.022-.676-.048-1.01-.082-1.04-.168-2.117.681-3.058.123-.136.193-.332.292-.604.055-.155.119-.33.205-.53l.056-.13.123.071c.304.18.598.341.88.496.594.325 1.155.633 1.645 1.022.627.498 1.339.877 2.027 1.244.487.26.991.527 1.46.835.414.272.86.53 1.291.78 1.594.918 3.24 1.87 4.11 3.925l.087.206-.219-.033-.589-.085-.887-.129c-.569-.083-1.139-.16-1.708-.238-1.295-.176-2.635-.358-3.94-.606-1.642-.312-3.282-.773-4.668-1.183-.34-.1-.805-.609-.798-.973zm10.856-1.817c.158-.45.305-.915.445-1.364.528-1.674 1.073-3.405 2.37-4.843l.057-.064.081.03c.077.03.163.056.252.083.215.066.459.14.663.282l.439.304c1.166.807 2.371 1.642 3.508 2.53.541.42 1.089.835 1.639 1.25 1.69 1.275 3.437 2.595 4.924 4.124 1.118 1.15 1.871 2.683 2.6 4.165.145.296.29.592.437.882.762 1.504.723 1.686.468 2.871l-.059.277-.05.24-.165-.18c-.39-.424-.78-.833-1.164-1.235-.879-.922-1.709-1.792-2.462-2.746l-.162-.205c-.871-1.109-1.694-2.157-3.199-2.76-.667.922-.727 2.03-.786 3.101-.045.818-.091 1.663-.401 2.428l-.056.138-.127-.078-.966-.596c-.726-.449-1.454-.899-2.184-1.343-1.272-.773-2.473-1.596-3.204-3.149-.407-.864-1.196-1.582-1.958-2.277-.147-.134-.293-.267-.435-.4-.405-.378-.748-.775-.505-1.465zm20.604 6.476c.188-.12.341-.318.487-.51.071-.092.141-.183.213-.264l.136-.153.074.19c.243.618.473 1.233.702 1.843.539 1.44 1.049 2.8 1.69 4.122.241.494.556.937.89 1.405.472.663.96 1.348 1.207 2.181.228.765.569 1.565 1.075 2.516a29.878 29.878 0 0 1 3.026 8.844c.204 1.154.055 2.054-.481 2.921l-.145.236-.081-.265c-.08-.26-.172-.52-.265-.779-.205-.575-.417-1.17-.487-1.778-.153-1.312-.775-2.445-1.375-3.54-.133-.24-.264-.48-.391-.72-.787-1.497-1.607-3.104-2.233-4.844-.776-2.153-2.192-3.918-4.207-5.245-1.016-.668-1.592-1.764-1.58-3.008a3.745 3.745 0 0 1 1.745-3.152zm-3.585-3.056c2.001 1.835 2.039 1.871 2.023 2.73l-.002.075-.066.034-.343.175-.105.054-.06-.103-1.641-2.809-.418-.717.612.561zM49.702 33.425c.05.367.103.756.166 1.174l.051.343-.259-.23c-1.108-.989-1.161-2.193-1.213-3.358-.019-.43-.038-.874-.112-1.297l-.099-.559.325.466c.077.111.168.22.259.327.21.252.428.512.498.818.166.725.267 1.463.384 2.316zm22.045 3.784c.764 2.733 1.027 5.215.805 7.59-.029.321-.067.631-.2.893a315.578 315.578 0 0 1-3.175 6.165c-.235.443-.531.854-.843 1.29-.151.21-.305.425-.462.656l-.13.191-.089-.213c-1.664-3.948-3.865-7.525-6.732-10.935-2.102-2.502-4.708-4.602-7.746-6.243-.82-.44-1.665-.899-2.085-1.84-.49-1.097-1.024-2.57-.819-4.266.321-2.637 1.1-4.892 2.385-6.894.969-1.51 1.393-3.165 1.295-5.06-.069-1.34-.003-2.705.062-4.025l.023-.47c.014-.297.116-.578.234-.905.057-.158.118-.328.176-.515l.051-.17.143.105c.143.106.273.193.39.272.235.157.421.281.564.455.738.896 1.468 1.8 2.199 2.701a344.61 344.61 0 0 0 2.298 2.821c.228.278.538.534.894.741 2.018 1.17 3.56 2.501 4.714 4.07a13.619 13.619 0 0 1 1.625 2.893c.505 1.24 1.076 2.478 1.629 3.675 1.036 2.246 2.108 4.57 2.794 7.018zm-.666 16.135c1.072-.647 1.997-1.593 2.891-2.508l.186-.19c1.188-1.212 2.555-2.232 4.176-3.117.445-.243.916-.479 1.398-.7.835-.382 1.808-.477 2.735-.522l.301-.014-.203.224c-.146.163-.284.33-.42.492-.402.486-.782.945-1.351 1.256-.26.142-.535.24-.843.301-.988.196-1.953.55-2.867 1.048-1.321.721-2.568 1.753-3.812 3.153-.327.37-.691.713-1.043 1.046-.135.13-.27.257-.404.387l.047.057.042.052c.122-.09.25-.179.377-.267.347-.238.676-.463.905-.764.866-1.135 1.99-2.07 3.435-2.859 1.171-.64 2.422-1.117 3.598-1.538.319-.113.624-.25.908-.405.712-.389 1.342-.922 1.927-1.629.369-.448.707-.747 1.064-.94.568-.31 1.196-.35 1.921-.12.488.155 1.025.184 1.545.212.233.013.462.025.684.048l.441.047-.4.192c-.464.221-.938.434-1.416.648-.853.383-1.737.78-2.571 1.234-.196.107-.389.218-.58.332-2.375 1.43-4.712 3.007-7.096 4.633-.421.287-.845.548-1.26.775-1.618.883-3.238 1.338-4.953 1.391l-.107.004-.02-.106c-.159-.847-.085-1.34.765-1.853zM69.87 90.578l.113 2.657.006.125-.126.006-.283.011-.141.006-.128.005-.003-.128-.048-2.043-.015-.612-.003-.122.122-.007.374-.018.127-.006.005.126zM91.6 45.446l2.927-.652.347-.077-.222.278c-.35.438-.619.69-.899.844-.592.323-1.269.181-2.169-.153l-.398-.148.414-.092zm20.912 15.886c.038-.658.266-1.308.488-1.936.087-.247.174-.494.25-.74.69-2.263.811-4.67.36-7.156-.126-.693-.264-1.384-.401-2.075-.356-1.784-.723-3.63-.875-5.5-.132-1.62-.773-3.229-1.383-4.588-.266-.593-.633-.983-1.062-1.127-.358-.12-.762-.067-1.168.155a3.06 3.06 0 0 0-.702.547c-1.091 1.114-2.229 2.313-3.114 3.654-1.62 2.455-3.507 4.574-5.627 6.892l-.8.87c-1.539 1.67-3.13 3.396-4.485 5.331-1.15 1.641-1.57 3.491-1.977 5.28-.26 1.15-.53 2.34-.991 3.457a.368.368 0 0 0 .021.245c.349.77.138 1.481-.066 2.17-.146.493-.298 1.003-.232 1.525l.03.237-.212-.11a2.672 2.672 0 0 1-.847-.674l-.064-.077c-.698-.832-1.421-1.693-2.106-2.56-.642-.812-1.53-1.148-2.468-1.504a13.814 13.814 0 0 1-1.06-.436 153.011 153.011 0 0 0-6.154-2.759c-1.152-.487-2.356-.215-3.275.076a.544.544 0 0 0-.066.028c-.125.07-.251.218-.425.425-.08.096-.173.206-.282.328 1.453.081 2.085.91 2.696 1.712l.093.122.165.217c.326.432.665.88 1.074 1.208 2.101 1.688 3.225 4.037 4.312 6.308.192.403.385.805.583 1.204.143.29.189.62.233.94.022.146.042.293.072.436l.106.506c.105.503.21 1.006.326 1.506.078.333.172.67.263.995l.124.448.152.565-.371-.454c-1.109-1.358-2.054-2.82-2.969-4.233a147.65 147.65 0 0 0-.688-1.06c-.162-.246-.322-.495-.482-.743-1.07-1.66-2.176-3.379-3.888-4.545-.293-.199-.518-.49-.734-.772-.074-.094-.146-.189-.221-.279a29.66 29.66 0 0 1-.779-.99c-.544-.71-1.106-1.445-1.77-2.032-.749-.663-1.516-1.399-1.938-2.465a87.173 87.173 0 0 0-.762-1.852c-.115-.273-.23-.545-.342-.817l-.034-.082.065-.059c.197-.18.408-.33.647-.46.597-.327 1.253-.457 1.886-.582.352-.07.717-.142 1.06-.247l.698-.21c1.101-.327 2.24-.664 3.228-1.204.089-.048.178-.099.264-.15 1.591-.958 3.159-2.018 4.675-3.043 1.217-.823 2.475-1.674 3.74-2.468.192-.12.387-.235.583-.342 1.58-.863 3.401-1.35 5.413-1.45 1.061-.054 2.249-.284 3.529-.683.094-.03.191-.072.289-.125.837-.457 1.674-1.75 1.784-2.729a6.925 6.925 0 0 1-.245-.02c-.267-.025-.518-.049-.745.007a54.372 54.372 0 0 0-3.65 1.012c-1.987.636-3.988.566-5.854.396l-.13-.012.017-.129.115-.856a8.54 8.54 0 0 1-.479.28c-1.666.911-3.378 1.155-5.035 1.392l-.069.01a9.844 9.844 0 0 0-3.291 1.09 8.631 8.631 0 0 0-2.137 1.63c-.674.708-1.416 1.323-2.134 1.918-.488.404-.993.822-1.465 1.262-.301.281-.611.552-.99.885l-.649.573-.461.41.265-.557.858-1.805c.645-1.352 1.253-2.63 1.835-3.884.054-.114.108-.23.164-.345.243-.505.494-1.028.588-1.559.389-2.203.707-4.458 1.015-6.638l.007-.05c.524-3.708.186-6.923-1.032-9.826-.504-1.2-1.099-2.389-1.676-3.538-.296-.59-.591-1.179-.877-1.773-.18-.376-.338-.776-.491-1.163-.312-.79-.635-1.609-1.159-2.225-1.949-2.29-2.901-4.746-2.91-7.506-.001-.334-.073-.67-.165-1.098a23.93 23.93 0 0 1-.119-.58l-2.329 1.556-.083.056-.073-.069-.642-.604c-.49-.46-.998-.937-1.5-1.418l-.339-.325c-2.208-2.12-4.491-4.315-7.45-5.478-1.351-.53-2.488-1.407-3.588-2.254-.833-.64-1.695-1.303-2.637-1.806-.702-.374-1.179-.453-1.543-.254-.264.144-.497.45-.712.93-.687 1.538-1.366 3.08-2.054 4.642l-.887 2.01-.059.132-.122-.076a87.85 87.85 0 0 1-.547-.34c-.38-.24-.738-.466-1.105-.676-.461-.265-.928-.522-1.394-.779-.435-.24-.871-.48-1.303-.728-.301-.172-.596-.365-.881-.55-.887-.58-1.724-1.127-2.797-1.168-.355-.014-.821.031-1.028.144-.056.031-.073.056-.077.066-.432.942-.899 2.056-1.082 3.178-.124.76-.093 1.551-.061 2.318.012.335.026.665.026.987v.1l-.097.023c-.654.155-1.297.314-1.935.471-1.522.376-2.959.731-4.439 1.01a15.055 15.055 0 0 1-3.802.245c-1.3-.089-2.996-.118-4.591.457a3.54 3.54 0 0 0-.495.224c-.536.293-.95.68-1.137 1.06-.927 1.885-1.746 3.755-1.603 5.89.025.375.012.734-.039 1.065-.448 2.926-.192 5.948.035 8.614.065.778-.127 1.226-.738 1.713l-.458.363c-1.974 1.561-4.016 3.176-4.724 5.826-.04.151-.129.277-.215.4-.055.077-.106.15-.143.225-.21.425-.427.847-.644 1.27-.539 1.05-1.097 2.135-1.535 3.243-.424 1.071-.88 1.863-1.479 2.57-1.027 1.211-2.081 2.61-3.221 4.273-.196.285-.271.666-.358 1.107-.035.178-.07.361-.117.551.266.01.512.024.743.037.528.031.985.058 1.418 0a10.342 10.342 0 0 1 4.858.486c1.211.426 2.469.912 3.377 1.75.913.84 1.594 1.953 2.251 3.03.102.166.202.331.304.495 1.716 2.77 3.557 4.94 5.629 6.636.325.266.701.49 1.064.705.12.071.242.142.36.215.41.252.841.492 1.258.724.887.493 1.804 1.003 2.582 1.662 3.873 3.281 8.066 4.417 12.819 3.472 3.666-.729 7.108-1.862 9.991-2.875a16.32 16.32 0 0 0 2.398-1.075c.288-.158.577-.326.859-.5a194.218 194.218 0 0 0 3.729-2.392c1.462-.952 2.973-1.937 4.491-2.856.21-.128.417-.267.627-.407.309-.207.629-.422.971-.609.771-.42 1.491-.6 2.267-.565l.308.014-.231.205c-.399.355-.781.697-1.151 1.03a92.735 92.735 0 0 1-2.361 2.075c-.937.785-1.609 1.82-2.114 3.254-.534 1.518-1.329 2.622-2.431 3.374-.138.094-.28.186-.422.278-.491.317-.997.645-1.343 1.075-.682.846-1.511 1.53-2.535 2.09-1.406.766-2.999 1.197-4.54 1.614l-.18.048c-.735.2-1.494.34-2.229.478-.615.114-1.251.233-1.865.384a2.486 2.486 0 0 0-.605.252 9.591 9.591 0 0 0-.339.196c-.108.064-.215.127-.322.187.558.806 1.235.806 1.937.73.801-.089 1.536.063 2.386.49 1.116.561 2.354.468 3.552.378.328-.025.653-.049.976-.062.149-.005.318-.06.505-.162.155-.085.318-.2.474-.337a21.83 21.83 0 0 0 1.138-1.095c.242-.243.484-.486.732-.722.113-.108.225-.219.338-.33.377-.372.765-.756 1.215-1.038.185-.116.373-.225.566-.33.268-.147.544-.286.818-.425.272-.137.542-.275.808-.42a7.95 7.95 0 0 0 1.109-.71c1.512-1.183 3.227-2.648 4.481-4.552.58-.88 1.22-1.707 1.899-2.583.308-.397.62-.8.936-1.22l.188-.252.09-.373.196-.816.281-1.163.122-.508.121.508c.233.974.224 1.013-.493 2.078l-.209.31-.074.32c-.095.411-.189.806-.282 1.19-.203.85-.395 1.651-.545 2.455l-.031.172c-.156.833-.318 1.694-.27 2.522.048.818.154 1.65.256 2.454.129 1.012.262 2.06.281 3.094.052 2.842.872 5.405 2.435 7.62 1.663 2.353 2.025 5.021 2.375 7.601.069.51.139 1.018.218 1.526.135.873.182 1.772.228 2.64.033.605.066 1.231.128 1.841.006.053.01.11.015.17.021.28.049.63.228.771.087.07.21.09.376.063a.704.704 0 0 0 .224-.082c.23-.126.453-.364.668-.595a8.8 8.8 0 0 1 .184-.193c.121-.125.15-.432.164-.579.043-.45.108-.909.172-1.353.147-1.033.3-2.1.165-3.103-.221-1.645-.589-3.3-.946-4.9-.238-1.074-.485-2.184-.686-3.284-.269-1.467-.587-3.4-.67-5.354-.088-2.067-.089-4.17-.09-6.205 0-.879 0-1.759-.008-2.638-.001-.16.005-.322.011-.484.014-.368.026-.716-.042-1.049-.085-.418-.21-.84-.33-1.248-.184-.625-.374-1.272-.434-1.926-.075-.835-.01-1.692.053-2.52.028-.364.056-.728.072-1.09l.015-.337.209.265c1.177 1.497 2.05 2.975 2.818 4.35 2.253 4.03 5.662 6.853 8.381 8.863.622.46 1.326.98 1.844 1.615.645.792 1.27 1.622 1.875 2.424.685.91 1.394 1.852 2.135 2.74 1.384 1.66 2.935 3.632 3.817 6.03.403 1.096.987 2.232 1.735 3.375 3.117 4.761 4.935 9.047 5.723 13.489.295 1.666.535 3.353.713 5.013.181 1.685.32 3.339.468 5.089.062.739.125 1.484.191 2.235l.012.126-.126.01-.9.072-1.006.08-.091.007-.035-.084c-.09-.213-.171-.426-.251-.636-.175-.461-.341-.896-.583-1.282-.205-.326-.469-.628-.724-.92-.274-.316-.56-.642-.779-1.005a222.013 222.013 0 0 1-2.377-4.058c-.491-.849-.98-1.698-1.476-2.542-.086-.147-.17-.299-.254-.452-.274-.5-.558-1.017-.959-1.366-3.865-3.377-7.526-5.209-11.507-5.756.084.781.109.792.508.983.111.052.226.097.342.142.269.103.546.211.75.408 1.758 1.696 2.82 3.927 3.25 6.819.223 1.5.475 3.2 1.589 4.61.517.655.935 1.498 1.176 2.374.526 1.918 1.729 3.309 3.788 4.378.299.155.582.321.883.496l.413.239.109.062-.062.109c-.352.611-.724 1.018-1.137 1.244-.48.262-1.042.296-1.718.104-1.407-.4-2.672-.392-3.865.025-1.166.407-2.533.919-3.828 1.626-.516.282-1 .585-1.44.901-2.024 1.452-3.821 2.987-3.585 5.773.023.271-.066.543-.152.805l-.031.097c-.609 1.9-.428 3.325.604 4.764 2.39 3.334 5.495 4.723 9.493 4.248.95-.113 1.9-.334 2.818-.547 1.68-.39 3.419-.793 5.266-.575 1.72.204 2.668.792 3.271 2.029.156.32.292.656.424.981.212.523.43 1.065.733 1.534 1.489 2.302 2.163 4.791 2.063 7.607-.016.434-.005.614.003.686.879.187.781.842.709 1.322-.013.089-.027.177-.035.262-.034.364-.067.729-.099 1.094-.11 1.235-.223 2.513-.432 3.755a72.838 72.838 0 0 1-1.192 5.601c-.974 3.889-2.241 7.972-4.903 11.484-.164.217-.309.458-.45.691-.066.111-.133.221-.202.33-.341.538-.679 1.078-1.016 1.619a116.105 116.105 0 0 1-2.314 3.613 228.358 228.358 0 0 1-2.889 4.142c-.599.849-1.2 1.697-1.794 2.549-.212.305-.42.612-.628.92-1.009 1.492-2.053 3.036-3.55 4.212-1.512 1.186-3 2.456-4.44 3.684-.564.481-1.129.962-1.696 1.44-.307.258-.605.525-.974.857-.196.176-.412.37-.66.59l-.317.281.113-.409c.056-.202.098-.366.133-.505.061-.242.105-.417.174-.581.286-.694.584-1.384.881-2.075.597-1.385 1.214-2.816 1.726-4.255 1.012-2.84 2.597-5.46 4.845-8.012 1.022-1.162 1.739-2.559 2.255-4.399l.195-.704c.649-2.357 1.32-4.794 2.982-6.79l.183-.22c1.547-1.859 3.146-3.78 4.613-5.748 1.583-2.124 2.735-4.741 3.522-8.001.184-.764-.039-1.225-.704-1.449-.12.032-.231.075-.331.13-.401.219-.616.593-.844.989-.113.196-.229.398-.368.579-.082.105-.162.212-.244.318-.4.528-.814 1.072-1.323 1.495-2.526 2.096-4.388 3.967-5.862 5.887-.906 1.181-1.622 2.547-2.314 3.869a68.318 68.318 0 0 1-.875 1.633c-.236.422-.447.851-.713 1.393-.138.278-.288.583-.46.927l-.205.407-.033-.455-.104-1.498c-.066-.95-.122-1.779-.19-2.609-.067-.817-.149-1.648-.229-2.452-.174-1.755-.354-3.569-.381-5.359-.022-1.553-.183-3.37-1.188-5.062-.186-.311-.321-.653-.451-.983a8.511 8.511 0 0 0-.332-.766c-.093-.181-.183-.368-.273-.555-.277-.578-.566-1.177-.985-1.622-1.693-1.801-3.47-3.579-5.19-5.3l-1.354-1.357c-.03 0-.087.009-.136.017a5.015 5.015 0 0 1-.157.022 5.97 5.97 0 0 1-.036.28c-.025.182-.073.52-.009.571.735.584 1.136 1.369 1.524 2.128.179.349.362.709.575 1.041 1.288 2.007 1.612 4.248 1.049 7.266-.146.79-.191 1.616-.235 2.415-.019.343-.037.685-.063 1.027a7.789 7.789 0 0 0-.016.459c-.003.175-.006.351-.022.525-.028.316-.064.631-.099.946-.06.529-.122 1.076-.147 1.613-.016.323.008.666.03.996.042.608.086 1.236-.107 1.789-.326.936-.19 1.541.524 2.31.38.41.778 1.035.752 1.556-.057 1.176.457 2.073 1.003 3.023.106.183.211.367.314.555.834 1.526 1.267 3.211 1.253 4.874a5.03 5.03 0 0 1-.023.393c-.022.27-.043.525.026.833.292 1.319.591 2.881.605 4.459a16.068 16.068 0 0 1-1.167 6.158c-.696 1.733-1.328 3.492-1.916 5.144-.483 1.36-1.315 2.509-2.143 3.548-.542.68-.969 1.509-1.313 2.176-.127.248-.251.496-.373.743-.58 1.17-1.18 2.379-2.221 3.359-.773.728-1.425 1.62-2.054 2.483-.279.381-.566.775-.861 1.151a4.701 4.701 0 0 0-.194.277c-.136.206-.277.419-.477.564-.99.714-1.923 1.538-2.825 2.335-1.381 1.218-2.809 2.479-4.489 3.397-.07.038-.142.077-.214.114-.187.098-.372.198-.558.298-1.025.561-2.044 1.181-3.029 1.78a75.117 75.117 0 0 1-3.032 1.783c-.614.335-1.18.622-1.729.876-1.308.605-2.654 1.188-3.955 1.753-2.504 1.085-5.095 2.208-7.536 3.542l-.185.101c-.509.279-1.077.425-1.624.566-.241.061-.48.123-.714.194a2.95 2.95 0 0 1-.328.076c-.171.033-.333.064-.464.136-1.09.629-2.162 1.258-3.235 1.886-1.171.686-2.341 1.372-3.516 2.048-.244.142-.376.278-.414.428-.035.14.007.31.13.52.079.008.16.019.241.031.222.029.453.06.675.046.592-.04 1.195-.099 1.779-.155 1.116-.108 2.271-.219 3.409-.209 1.971.017 3.673-.381 5.203-1.217.259-.142.516-.297.765-.464.134-.089.278-.176.441-.266.257-.139.525-.266.784-.388.217-.103.433-.206.644-.316.328-.171.672-.33 1.005-.484.386-.179.785-.364 1.157-.567.401-.218.73-.437 1.003-.669 1.247-1.053 2.65-2.013 4.29-2.935.449-.253.884-.559 1.304-.854l.281-.197c2.401-1.671 4.398-2.93 6.285-3.961a43.238 43.238 0 0 1 2.501-1.264c.258-.119.514-.248.761-.382 1.59-.869 2.957-2.043 4.301-3.696a30.952 30.952 0 0 1 2.242-2.455 66.854 66.854 0 0 1 1.603-1.522c.727-.675 1.478-1.372 2.17-2.1.632-.664 1.232-1.382 1.811-2.077.48-.575.975-1.17 1.49-1.732.401-.441.879-.819 1.341-1.184.158-.125.314-.249.469-.376.341-.28.687-.556 1.033-.83.423-.335.845-.671 1.259-1.017.542-.453 1.031-.979 1.503-1.488.482-.519.981-1.056 1.55-1.534 3.142-2.638 5.436-5.066 7.22-7.644 2.178-3.146 4.73-6.88 7.142-10.712.833-1.323 1.575-2.736 2.293-4.103.5-.953 1.017-1.937 1.562-2.886.365-.636.85-1.212 1.318-1.768.162-.192.322-.383.478-.576.476-.589.957-1.173 1.437-1.757.723-.878 1.469-1.786 2.183-2.693a107.196 107.196 0 0 0 3.021-4.026c1.558-2.187 2.922-4.187 3.837-6.519.566-1.444 1.162-2.714 2.733-3.632.255-.149.508-.292.761-.431 1.382-.755 2.641-1.289 3.965-1.681 1.256-.373 2.227-.757 3.053-1.208.305-.166.592-.345.854-.529 2.141-1.511 3.755-3.614 5.315-5.648.45-.586.915-1.191 1.385-1.774 1.345-1.665 2.516-2.719 3.795-3.418a8.198 8.198 0 0 1 2.062-.788 6.37 6.37 0 0 0 1.636-.625c.759-.415 1.469-.986 2.232-1.799.57-.606 1.103-1.269 1.62-1.91.309-.385.62-.771.939-1.147 1.1-1.294 1.423-2.913 1.736-4.479l.13-.638c.035-.166-.016-.361-.076-.588l-.049-.194c-.524.32-1.039.647-1.538.964-.955.607-1.857 1.18-2.803 1.696a20.26 20.26 0 0 1-.916.473c-1.281.62-2.621 1.089-4.039 1.586-.628.22-1.279.448-1.936.693l-.207.078.04-.218c.054-.29.112-.562.168-.825.112-.525.218-1.02.256-1.508.185-2.386.18-5.183-1.271-7.836-1.082-1.98-2.513-3.73-3.898-5.423l-.485-.594a42.416 42.416 0 0 0-.759-.898c-.68-.789-1.382-1.604-1.89-2.515-.737-1.325-1.32-2.76-1.885-4.149-.15-.369-.3-.737-.452-1.105-.898-2.157-2.311-3.881-4.2-5.125-.795-.522-1.644-1.002-2.531-.685.18.344.361.681.539 1.014.462.862.898 1.678 1.293 2.526.469 1.009.801 1.912 1.017 2.76.258 1.017.467 2.062.669 3.073.114.569.229 1.139.352 1.706.58 2.681.774 5.115.594 7.442-.08 1.015-.394 2.009-.691 2.849-.201.568-.411 1.134-.621 1.7-.821 2.219-1.672 4.512-1.963 6.933a1716 1716 0 0 1-1.887 14.916l-.101.787-.024.181c-.1.788-.205 1.603-.479 2.348-.209.568-.489 1.116-.76 1.645-.25.488-.509.993-.707 1.508-1.954 5.057-4.916 9.84-9.605 15.506l-.365.441.147-.552c.153-.58.312-1.16.472-1.742.347-1.274.708-2.592 1.013-3.901.607-2.597.602-5.286.597-7.888-.001-.757-.002-1.54.012-2.31.005-.34.017-.68.029-1.02.024-.674.05-1.372.023-2.054a94.932 94.932 0 0 0-.151-2.654 90.493 90.493 0 0 1-.152-2.696c-.032-.827-.038-1.667-.044-2.48-.012-1.415-.024-2.879-.164-4.303-.133-1.344.239-2.284 1.242-3.142.456-.39.906-.788 1.355-1.186a62.545 62.545 0 0 1 2.321-1.988c1.728-1.384 2.616-3.301 2.638-5.696.022-2.319-.627-3.782-2.041-4.605l-.253-.148c-1.127-.66-2.292-1.342-3.69-1.373-.525-.011-1.034-.151-1.483-.274a9.595 9.595 0 0 0-.488-.125l-.08-.017-.017-.08c-.067-.331-.126-.644-.184-.943-.117-.608-.227-1.182-.367-1.737-.221-.869-.452-1.736-.685-2.604a160.366 160.366 0 0 1-.886-3.416 18.354 18.354 0 0 1-.281-1.524c-.123-.793-.251-1.613-.54-2.349-.733-1.858-.564-3.683-.309-5.546.076-.556.169-1.119.258-1.663.303-1.832.615-3.725.337-5.64-.346-2.388.715-4.407 1.93-6.435.399-.666.849-1.316 1.284-1.944.602-.868 1.225-1.766 1.711-2.71 1.083-2.1 2.616-3.872 4.099-5.585.55-.637 1.121-1.296 1.659-1.96.946-1.172 2.105-2.73 2.67-4.4.136-.402.28-.803.426-1.204.532-1.469 1.082-2.988 1.171-4.606z" fill="#687E6B"/></g><defs><clipPath id="a"><path fill="#fff" d="M0 0h141v232H0z"/></clipPath></defs></svg>