<svg width="127" height="188" fill="none" xmlns="http://www.w3.org/2000/svg">
    <path
        d="m96.338 21.878-.27-.066c-.05.271-.101.541-.153.812.066.013.13.027.195.042l.228-.788zM38.356 89.33c-.165.142-.263.194-.257.226.031.156.089.307.136.46l.121-.686zm45.886-14.391-.075-.173-.753.599.828-.426zm14.117 52.036.001-.259-.679.089.013.17h.665zM37.817 97.131l.434.121.043-.592-.317-.086-.16.557zm27.213 55.997c.344-.423.347-.424.169-.86-.014-.037-.104-.044-.204-.082l.035.942zm33.001-87.363a6.46 6.46 0 0 0-.077-.193l-1.1.634.071.129 1.106-.57zM65.84 143.77l.278.125c.153-.351.304-.702.455-1.052l-.255-.114-.478 1.041zm15.751-67.314.04.074c.468-.24.936-.482 1.403-.723-.012-.025-.026-.05-.04-.075l-1.403.724zM73.467 80.8c.545-.667.551-.667.253-1.391l-.253 1.391zM38.269 93.807l-.245-.051.04 1.475.238-.006c-.011-.472-.023-.945-.033-1.418zm1.657 21.104-.339.059c.641.907-.098 2.162 1.058 3.182l-.719-3.241zm59.54-103.538c.246-.488.448-.928.685-1.349.246-.435.524-.851.788-1.275l-.302-.155c-.276.959-1.686 1.375-1.171 2.779zM64.63 47.149l-.295.141c.556 1.028 1.111 2.056 2.035 2.846l-1.74-2.987zm-33.46 69.175c.684 1.092 1.782 1.881 2.695 1.914-.876-.707-1.55-1.581-2.695-1.914zm30.078-.823-1.141-4.441c.045 1.571.241 3.103 1.141 4.441zm8.048 22.269c-1.107.952-1.594 2.293-2.364 3.765.97-.864 1.932-2.397 2.364-3.765zM93.073 28.715c.92-.847 1.78-2.819 1.817-4.217-.386 1.482-1.746 2.54-1.817 4.217zm-17.556 51.64 3.785-2.649c-.488-.169-.833-.2-1.204.175-.346.351-.774.706-1.231.843-.89.266-1.079.981-1.35 1.631zm11.591 31.132c-.734 1.56-1.949 2.864-2.358 4.794 1.485-1.418 1.972-3.095 2.358-4.794zm2.274 16.599c.019.098.04.195.06.292.862-.16 1.724-.322 2.587-.481.223-.041.462-.139.67-.096 1.247.26 2.429-.145 3.631-.328.235-.036.452-.177.678-.269-.177-.184-.306-.176-.431-.153-1.373.26-2.75.396-4.155.425-1.017.02-2.027.394-3.04.61zM70.295 61.582c.749-.637.793-.854.457-1.473-.27-.498-.478-1.029-.733-1.536-.471-.933-.955-1.859-1.434-2.788l-.08.045 1.79 5.752zm1.269.535-.384.014c-.068.43-.27.893-.177 1.285.313 1.325.715 2.632 1.721 3.71-.029-.931-.146-1.79-.59-2.582-.418-.744-.043-1.713-.57-2.427zM88.2 45.785a38.42 38.42 0 0 1-.314-.104c-.919 2.823-2.37 5.487-2.615 8.51l.281.086 2.648-8.492zm15.428 15.06c-1.818 1.294-2.93 3.397-5.059 4.477 1.654.19 3.52-1.439 5.059-4.477zM57.78 145.686c.642 1.746 1.751 3.145 2.987 4.473.835.9 1.875 1.631 2.404 2.804.083.185.355.285.637.496.033-.799-.179-1.276-.712-1.653a9.95 9.95 0 0 1-2.394-2.381c-.915-1.288-1.942-2.496-2.922-3.739zm6.87 1.148.249-.029c.025-.652.106-1.308.067-1.957-.103-1.66-.293-3.316-.371-4.976-.025-.508.203-1.027.312-1.541.031-.141.123-.327.067-.419-.308-.512-.228-1.029-.132-1.571.025-.142-.15-.32-.246-.507-.777 1.463-.486 2.985-.442 4.465.048 1.617.228 3.23.353 4.845.043.564.095 1.127.143 1.69zm6.189-11.229c2.208-2.313 4.367-4.668 6.11-7.374-2.433 2.123-4.571 4.496-6.11 7.374zm-3-29.819c.229-1.783.326-3.344.656-4.854.266-1.213.317-2.394.186-3.616-.405 1.315-1.133 2.538-.996 3.981.013.145-.042.311-.109.447-.657 1.349.019 2.564.263 4.042zm-2.711 47.909-.116-.049c-.192.886-.527 1.77-.544 2.66-.036 1.77-.449 3.521-.235 5.3.045.382.047.771.058 1.157.048 1.591.06 3.183.144 4.772.086 1.618.24 3.232.363 4.847.019.252.033.504.064.987.185-.386.344-.556.325-.704-.124-.944.221-1.867-.072-2.855-.263-.891-.157-1.906-.133-2.864.028-1.168.044-2.332.186-3.504.176-1.449.071-2.931.103-4.399.012-.565.148-1.139.08-1.691-.07-.562.176-1.098-.135-1.715-.267-.528-.076-1.285-.088-1.942zm15.249-28.749c-1.027 2.845-3.335 4.989-5.165 7.474.281-.142.506-.354.769-.493 1.296-.68 2.476-1.578 3.909-2.01.778-.234 1.497-.78 2.277-.863 1.262-.136 2.079-.717 2.999-1.575 1.316-1.228 1.921-2.704 2.602-4.556-2.389 1.168-4.688 1.818-7.391 2.023zm6.889-39.904c-.088 1.115-.24 2.23-.242 3.345-.002.868-.217 1.601-.766 2.261-.17.206-.335.448-.403.701a135.377 135.377 0 0 0-1.209 4.73c-.084.361.037.77.073 1.156.024.268.107.537.091.8-.057.893.368 1.558.919 2.202.371.435.68.929.982 1.418.545.884 1.064 1.784 1.594 2.678.243-.311.305-.561.298-.809-.074-2.126-.173-4.251-.235-6.378a156.56 156.56 0 0 1-.048-4.28c-.001-.576.078-1.152.062-1.727-.022-.803-.229-1.625-.12-2.406.196-1.404-.786-2.431-.996-3.691zM49.803 27.497l-.127.159c.058.093.096.21.176.275.923.753 1.862 1.485 2.775 2.249.411.344.784.773 1.189 1.081.85.648 1.001.668 1.372 1.675a.599.599 0 0 0 .205.246c1.253.93 1.72 2.437 2.64 3.614.784 1.003 1.449 2.099 2.153 3.163.234.353.401.752.64 1.101.534.779 1.095 1.541 1.7 2.389.683-2.323-.26-4.393-.256-6.511 0-.148-.089-.297-.138-.446-.18-.553-.439-1.095-.521-1.663-.119-.825-.52-1.352-1.276-1.651-.423-.168-.851-.33-1.26-.529-1.259-.614-2.522-1.225-3.763-1.875a55.657 55.657 0 0 1-2.721-1.546c-.939-.56-1.859-1.153-2.788-1.731zm63.362 14.886c-.491.829-.932 1.781-1.563 2.584-.665.846-1.398 1.743-2.302 2.275-1.925 1.135-2.015 1.022-2.795 2.338-.735 1.24-1.34 2.525-1.138 4.064.184 1.395.155 2.802-.165 4.188-.01.043.075.107.013.024l.896-.145c.037-.096.074-.322.193-.49.49-.694.977-1.393 1.519-2.046.684-.822 1.456-1.571 2.121-2.408.527-.662.974-1.392 1.405-2.123.271-.459.532-.955.648-1.469.512-2.264 1.274-4.487 1.168-6.792zm-87.119 70.216c-.289-.731-.621-1.185-.615-1.635.012-1.042-.602-1.69-1.282-2.25-1.107-.91-2.31-1.702-3.459-2.561-.98-.732-2.06-.947-3.254-.758a8.457 8.457 0 0 1-1.396.084 9.415 9.415 0 0 1-1.373-.111c-1.261-.198-2.511-.547-3.776-.603-1.263-.056-2.559-.219-3.816.219-.948.331-1.895.327-2.841-.121-.344-.164-.781-.134-1.175-.193l-.055.239c.187.098.362.239.561.286 1.552.371 3.093.829 4.668 1.059 2.586.378 5.009 1.315 7.491 2.041 1.333.391 2.581 1.069 3.863 1.628.677.295 1.335.636 2.018.915 1.383.566 2.778 1.104 4.441 1.761zm13.113-3.708c.339-.342.608-.611.873-.883.32-.326.635-.656.956-.981 1.006-1.018 2.191-1.915 2.979-3.08 1.092-1.615 1.688-3.475 1.456-5.508-.038-.326.088-.695.217-1.011.765-1.868 1.575-3.724 1.664-5.783.037-.869.013-1.74.015-2.61l-.28-.037c-.2.521-.318 1.094-.614 1.553-.919 1.424-1.425 3.012-2.006 4.579a6.311 6.311 0 0 1-1.02 1.798c-1.063 1.289-2.24 2.484-3.297 3.777-.534.652-1.134 1.383-1.309 2.167-.4 1.794-.052 3.631.082 5.448.013.167.157.324.284.571zm26.012 19.731c.381-.51.671-.973 1.033-1.371 1.247-1.367 1.901-3.018 2.314-4.78.256-1.093.46-2.199.677-3.301.572-2.888.694-5.777-.081-8.649-.167-.618-.458-1.202-.698-1.82-.154.09-.211.103-.218.13-.038.145-.087.292-.091.44-.042 1.461-.37 2.777-1.267 4.024-1.037 1.44-1.811 3.06-2.02 4.894-.053.469-.341.933-.595 1.354-.388.64-.645 1.243-.11 1.932.137.175.212.421.251.646.35 2.017 1.003 4 .701 6.093-.014.103.053.219.104.408zM37.365 94.368c-.004-.467.008-.676-.009-.883-.067-.772-.253-1.55-.194-2.311.146-1.838.388-3.67.63-5.499.051-.38.377-.734.389-1.106.032-.996-.151-2.007-.044-2.991.281-2.617.676-5.222 1.012-7.834.054-.421.039-.85.058-1.327-.877 1.173-1.716 2.242-2.493 3.355-.666.952-1.428 1.888-1.852 2.949-.878 2.197-1.565 4.47-2.318 6.717-.305.908-.046 1.633.656 2.303.496.472.861 1.092 1.242 1.673.744 1.138 1.317 2.366 1.876 3.604.193.427.583.765 1.047 1.35zm-2.473 25.43c-.411-.091-.571-.175-.711-.15-1.37.249-2.742.492-4.104.784-1.278.274-2.511.248-3.756-.209a3.698 3.698 0 0 0-1.586-.196c-.842.082-1.667.404-2.507.448-1.472.076-2.952.029-4.428.008-.412-.005-.815-.064-1.21.32.345.248.601.509.911.643 1.367.591 2.753 1.14 4.128 1.715.602.251 1.228.472 1.78.808 1.196.727 2.302 1.612 3.535 2.261 1.417.746 3.422.853 4.505-.677.468-.661 1.036-1.259 1.44-1.955.693-1.193 1.294-2.44 2.003-3.8zm79.5-75.312c-.154.236-.246.321-.267.421-.336 1.633-.66 3.268-.993 4.902a.922.922 0 0 1-.148.316c-1.039 1.539-2.013 3.127-3.14 4.599-1.203 1.571-2.613 2.984-3.561 4.749-.144.268-.379.486-.561.734-.655.888-1.306 1.778-2.072 2.823.49-.034.768.027.942-.08.953-.584 2.021-.793 3.082-1.041.682-.159 1.363-.32 2.038-.504 1.068-.29 2.078-.71 2.845-1.545.502-.545.962-1.128 1.434-1.7a3.293 3.293 0 0 0 .788-2.145c.023-2.498.068-4.996.112-7.494.005-.266.087-.53.091-.796.017-1.067.17-2.161-.59-3.239zM35.9 118.568c-.087-.898-.236-1.516-.19-2.118.144-1.883-.619-3.406-1.808-4.752-.664-.753-1.476-1.375-2.148-2.123-1.34-1.49-3.117-2.298-4.883-3.054-1.514-.649-3.156-1.005-4.743-1.487-.597-.181-1.176-.141-1.936.223.76.503 1.423.932 2.079 1.374 1.724 1.166 3.352 2.372 3.908 4.592.183.734.756 1.509 1.372 1.967 1.104.821 2.38 1.413 3.58 2.106.731.422 1.482.816 2.175 1.294.847.586 1.643 1.247 2.594 1.978zm55.713-47.873.07.169c1.055.057 2.112.159 3.168.159.764.001 1.51-.145 2.294.047.538.133 1.17.064 1.721-.072 1.045-.257 2.116-.518 3.078-.98.986-.473 1.856-1.188 2.777-1.797.679-.449 1.303-1.09 2.049-1.301 1.027-.29 1.826-.811 2.56-1.52.473-.456.913-.957 1.436-1.346 1.468-1.094 1.95-2.836 2.918-4.294-1.209 1.576-2.851 2.138-4.735 2.377-1.931.244-3.719 1.08-5.549 1.725-.173.061-.331.207-.464.345-.896.928-1.961 1.615-3.102 2.192-.726.368-1.475.69-2.2 1.061a164.167 164.167 0 0 0-3.136 1.654c-.966.519-1.924 1.054-2.885 1.581zm10.565-65.351c-.575.444-1.029.792-1.481 1.144-.304.238-.589.506-.912.719-1.108.735-2.105 1.586-2.89 2.67-.153.21-.329.403-.5.599-1.079 1.233-2.178 2.441-2.786 4.013-.263.678-.619 1.357-1.082 1.91-.73.875-1.34 1.754-1.715 2.867-.359 1.065-.348 2.014-.024 3.054.394 1.262.684 2.557 1.022 3.836.17.644.345 1.286.507 1.886.35-.494.799-.874.912-1.336.296-1.22 1.037-2.213 1.509-3.335.498-1.182.942-2.387 1.387-3.59.45-1.215.998-2.391 1.481-3.592.68-1.697.992-3.444 1.136-5.218.072-.873.43-1.433 1.025-1.949.105-.092.25-.156.32-.268.67-1.076 1.327-2.16 2.091-3.41zm21.306 108.637c-.496.182-.785.219-.984.373-1.195.924-2.611 1.116-4.042 1.276-.269.031-.558.036-.8.139-1.858.799-3.804 1.106-5.809 1.014-.929-.043-1.871-.132-2.774-.343-.877-.206-1.491.146-1.908.771-.611.917-1.558 1.63-1.696 2.865-.04.357-.49.674-.77.994-.149.172-.377.284-.5.468-.837 1.258-2.015 2.151-3.201 3.038-.269.202-.528.418-.947.751.834-.128 1.443-.32 2.044-.295 1.803.074 3.388-.787 5.098-1.094.364-.065.752-.09 1.079-.244 1.261-.595 2.477-1.295 3.759-1.841 1.317-.562 2.688-.996 4.038-1.475.585-.208 1.246-.285 1.76-.602 2.278-1.399 4.191-3.182 5.653-5.795zm-27.466 14.194c1.528.04 2.86.361 4.185.776.954.3 1.936.593 2.924.682 1.32.12 2.623-.294 3.961-.33 1.194-.033 2.375-.251 3.594-.114 1.139.127 2.258.003 2.883-1.218.119-.234.345-.422.546-.605.971-.887 1.962-1.751 2.921-2.651 1.131-1.06 2.241-2.144 3.351-3.226.271-.265.534-.546.764-.848.613-.805 1.164-1.659 1.817-2.428.591-.694.551-1.508.674-2.315a.794.794 0 0 0-.364.291c-1.29 1.882-2.752 3.587-4.925 4.482-1.212.5-2.484.855-3.697 1.354-1.671.687-3.421 1.274-4.939 2.224-1.795 1.123-3.844 1.139-5.753 1.635-2.053.534-4.097 1.02-6.047 1.86-.096.042-.239.097-.308.057-.614-.353-.999.127-1.587.374zm-14.655-4.57c.883-.142 1.537-.223 2.18-.357a9.012 9.012 0 0 0 1.342-.405c.941-.357 1.861-.769 2.809-1.105.423-.149.717-.294.911-.767.273-.671.858-1.174 1.607-1.138.42.019.641-.109.91-.34.737-.63 1.471-1.208 2.476-1.454.543-.133 1.155-.619 1.426-1.116 1.013-1.855 1.593-3.863 1.493-6.003-.068-1.432-.334-2.86-.318-4.288a10.214 10.214 0 0 0-.519-3.377c-.254 1.623-1.008 2.901-1.073 4.366-.016.328-.196.685-.391.965-1.312 1.875-3.006 3.376-4.784 4.788-1.394 1.107-2.845 2.086-3.85 3.67-1.138 1.795-2.359 3.545-3.515 5.335-.225.349-.415.72-.704 1.226zm30.514 6.443c-.329-.134-.469-.243-.605-.238-1.894.059-3.792.065-5.678.228-1.371.118-2.642.338-4.064-.162-1.645-.578-3.473-.63-5.219-.925-.418-.071-.854-.141-1.233-.317-1.045-.483-2.108-.203-3.162-.133-.575.037-1.142.209-1.712.328-1.241.259-2.482.524-3.884.82.341.226.514.386.718.469 1.553.631 2.781 1.695 3.909 2.896.293.312.562.654.892.922.325.263.694.493 1.078.659.461.201.95.408 1.442.455 1.133.107 2.281.2 3.414.14.794-.042 1.566-.462 2.361-.511 1.949-.119 3.86-.393 5.726-.97.81-.25 1.737-.315 2.414-.763 1.242-.819 2.337-1.86 3.603-2.898zM66.24 52.554c-.214-.417-.399-.834-.633-1.22-1.249-2.062-2.541-4.099-3.756-6.18-.703-1.205-1.269-2.489-1.937-3.716-.333-.612-.741-1.185-1.14-1.757-.66-.949-1.469-1.818-1.984-2.837-1.125-2.231-2.651-4.12-4.49-5.771-.294-.264-.554-.715-1.145-.703.745 1.646 1.359 3.222 1.569 4.948.258 2.12.452 4.25 1.044 6.324.23.804.253 1.68.275 2.527.024.891-.063 1.785-.103 2.722.452.271.864.568 1.317.778.799.371 1.643.649 2.43 1.042.619.31 1.168.756 1.771 1.1.775.442 1.566.858 2.364 1.256.551.275 1.112.546 1.696.737.837.273 1.698.472 2.722.75zM31.957 86.412c-.541.72-.978 1.206-1.307 1.757-1.136 1.9-2.056 3.776-1.863 6.193.191 2.382 1.158 4.211 2.632 5.913.664.769 1.321 1.521 1.557 2.564.188.832.455 1.65.733 2.458.307.894.85 1.645 1.681 2.111.572.321 1.202.542 1.818.779.182.069.402.039.66.059a12.69 12.69 0 0 1-.337-3.422c.076-2.656-.138-5.321-.088-7.979.022-1.105-.337-1.925-.956-2.763a8.323 8.323 0 0 1-1.107-2.03 11.67 11.67 0 0 0-1.973-3.392c-.529-.641-1.293-1.085-1.45-2.248zm73.453-35.864c-.96.93-1.915 1.865-2.885 2.785-.334.317-.668.666-1.067.881-1.764.951-3.553 1.852-5.325 2.786-.341.18-.671.401-.962.655-.702.616-1.435 1.212-2.055 1.906-1.236 1.386-2.518 2.788-1.93 4.909.029.105-.019.231-.032.348-.134 1.236-.271 2.472-.401 3.709-.038.363-.204.75.134 1.117.168-.078.326-.116.44-.208.745-.6 1.469-1.229 2.226-1.814.459-.355.953-.666 1.451-.963.468-.279.729-.763 1.359-.929.741-.194 1.345-.856 2.071-1.168.891-.383 1.495-1.084 2.195-1.684.554-.473 1.113-.917 1.456-1.613.192-.391.617-.702.998-.958.778-.525 1.392-1.163 1.554-2.106.248-1.45.649-2.875.346-4.392-.221-1.102-.264-2.25.427-3.261zM69.461 62.441c-.288-.827-.545-1.476-.739-2.143-.479-1.642-.895-3.303-1.406-4.934-.192-.611-.471-1.263-.902-1.714-.609-.637-1.368-1.146-2.347-1.139-.302.002-.607-.123-.909-.195-1.28-.303-2.214-1.248-3.35-1.822-1.585-.8-3.024-1.888-4.791-2.319-.367-.089-.701-.309-1.22-.546.191.816.326 1.569.548 2.295.445 1.456.889 2.921 2.03 4.035.133.129.19.341.267.52.495 1.147 1.05 2.272 1.458 3.448.332.963.908 1.707 1.66 2.325 1.086.892 2.385 1.422 3.659 1.971.485.209 1.051.3 1.585.318.662.022 1.409.083 1.976-.182.822-.383 1.528-.335 2.481.082zm19.452 23.662c.1.621.218 1.221.287 1.827.066.574.099 1.153.113 1.731.034 1.406.062 2.813.065 4.219.002 1.197-.045 2.393-.051 3.59-.01 2.162.492 4.301.275 6.476-.084.838.061 1.713-.107 2.528-.336 1.629-.813 3.228-1.238 4.838-.221.837-.452 1.67-.68 2.505l.228.14c1.424-1.241 2.864-2.463 4.264-3.729.778-.703 1.569-1.482 1.851-2.493.809-2.894 1.717-5.79 1.284-8.869-.059-.42-.153-.835-.204-1.256-.134-1.11-.182-2.237-.402-3.329-.175-.87-.434-1.768-.876-2.525-.448-.765-1.007-1.493-1.548-2.213-.963-1.281-2.02-2.427-3.261-3.44zm7.819 30.187c-.125.192-.216.282-.248.39-.479 1.633-1.577 2.515-3.241 2.806-.379.066-.738.383-1.052.649-.89.749-1.707 1.595-2.647 2.269-.351.252-.518.464-.644.845-.475 1.429-.968 2.856-1.986 4.022-.135.154-.231.342-.437.652.774-.199 1.372-.341 1.963-.507 1.047-.294 2.081-.806 3.14-.864 2.301-.125 4.554-.498 6.804-.927a2.31 2.31 0 0 0 1.004-.482c1.279-1.072 2.577-2.131 3.773-3.293.91-.883 1.874-1.753 2.168-3.123.107-.492.572-.912.895-1.35.3-.408.629-.794 1.129-1.422-2.276-.15-4.248-.421-6.21-.358-1.285.042-2.736-.043-3.701 1.121l-.71-.428zm-4.639-82.469c.195-.211.504-.393.564-.637.169-.685.719-1.023 1.197-1.382 1.796-1.348 3.781-2.418 5.673-3.616 1.693-1.072 3.249-2.197 4.568-3.694.528-.601.836-1.227.722-2.007-.214-1.479-.19-2.989-.608-4.441-.059-.208.012-.453.021-.681.1-2.818.476-5.635.019-8.456-.164-1.015-.296-2.036-.442-3.054-.842 1.161-1.591 2.293-2.112 3.522-.917 2.166-1.697 4.388-2.525 6.591-.095.254-.107.537-.186.799-.494 1.629-.937 3.277-1.507 4.879-.678 1.902-1.451 3.772-2.219 5.641-.277.678-.541 1.418-1.014 1.95-1.168 1.314-1.442 3.028-2.151 4.586zm-3.588 9.333c.055-.419.027-.635.112-.79.85-1.568.714-3.354 1.139-5.014.144-.561.334-1.111.521-1.66.149-.436.459-.86.464-1.291.018-1.527.658-2.889.995-4.329.122-.515.182-1.093.08-1.604-.32-1.59-.659-3.182-1.125-4.734-.389-1.292-.958-2.529-.528-3.986-.235.08-.328.083-.369.13a606.16 606.16 0 0 0-2.932 3.451c-.475.566-1.045 1.087-1.38 1.729-.647 1.236-1.16 2.542-1.723 3.821-.957 2.176-.956 4.454-.721 6.76.058.559.244 1.023.602 1.478.765.974 1.413 2.043 2.187 3.011.794.992 1.681 1.909 2.678 3.028zm1.613 1.055c.132-.048.281-.09.417-.155 2.163-1.028 4.332-2.044 6.479-3.104.323-.159.615-.488.798-.809.75-1.325 1.519-2.608 2.804-3.519.663-.47 1.264-1.049 1.816-1.649a7.73 7.73 0 0 0 1.114-1.6c1.09-2.057 1.222-4.325 1.314-6.585.027-.651-.108-1.309-.17-1.986-.742.778-1.331 1.576-2.091 2.153-1.123.852-2.356 1.564-3.561 2.304-1.224.753-2.487 1.444-3.705 2.209a11.08 11.08 0 0 0-1.648 1.279c-.537.498-1.012 1.066-1.495 1.619-.22.251-.492.516-.573.819-.578 2.188-1.165 4.376-1.634 6.588-.163.762-.677 1.608.135 2.436zm-26.821 75.272.372.003c.257-.68.619-1.34.749-2.043.326-1.764 1.109-3.317 2.066-4.789 1.325-2.035 1.435-4.104.45-6.312-.455-1.018-.849-2.085-.762-3.26.026-.361-.086-.757-.221-1.103-.525-1.342-1.192-2.639-1.6-4.014-.35-1.179-.828-2.259-1.506-3.266-.732-1.087-1.197-2.259-1.241-3.586-.006-.176-.119-.348-.27-.761-.129.528-.24.815-.264 1.109-.087 1.103-.928 2.053-.646 3.227-.762 1.429-.681 3.034-.85 4.562a25.441 25.441 0 0 0 .033 6.06 25.3 25.3 0 0 0 1.145 4.874c.544 1.613.968 3.269 1.416 4.914.397 1.456.754 2.923 1.129 4.385zm-1.303-85.723c.078.761-.013 1.389.219 1.853.905 1.805.692 3.799 1.087 5.685.046.22-.01.468-.045.699-.211 1.391.249 2.637 1.028 3.711 1.239 1.704 2.353 3.469 3.267 5.364.153.316.3.637.426.965.344.896.659 1.804 1.019 2.694.436 1.077.872 2.157 1.375 3.205.344.716.511 1.56 1.36 2.129.296-.409.621-.783.862-1.204.418-.731.881-1.458.823-2.359.79-.912.636-2.101.902-3.161.263-1.053-.171-2.053-.482-3.054-.838-2.704-2.174-5.138-3.891-7.375-1.064-1.386-2.23-2.685-3.052-4.261-.443-.849-1.058-1.713-1.819-2.262-.734-.53-1.351-1.089-1.897-1.795-.256-.331-.708-.51-1.182-.834zm-23.115 67.227c.934-.958 1.687-1.691 2.395-2.465 1.206-1.321 2.391-2.633 2.879-4.455.289-1.075.863-2.076 1.327-3.103.442-.977.915-1.941 1.357-2.918.077-.173.127-.392.096-.574-.302-1.761-.364-3.581-1.253-5.205-.204-.373-.321-.795-.522-1.172-.767-1.439-1.474-2.92-2.351-4.291-1.014-1.582-1.932-3.176-2.232-5.062-.024-.158-.147-.3-.224-.45-.216.635-.227 1.244-.242 1.854-.009.306-.017.613-.045.918-.072.771-.154 1.54-.234 2.309-.024.231-.005.481-.092.687-.401.957-.383 1.967-.433 2.974-.081 1.619-.196 3.237-.29 4.856-.014.232-.001.466.006.699.042 1.551.084 3.102.129 4.653.048 1.638.131 3.275.139 4.912.005 1.037-.089 2.075-.162 3.111-.059.838-.151 1.675-.248 2.722zm-34.773 5.402c.353.299.481.432.632.531 1.331.869 2.68 1.709 3.992 2.606.505.347 1.074.734 1.362 1.245a68.669 68.669 0 0 1 2.541 5.004c.286.62.411 1.318.864 1.86 1.045 1.246 2.148 2.387 3.994 2.188a3.19 3.19 0 0 1 .934.055c1.529.298 3.026.044 4.521-.238 1.196-.226 2.366-.4 3.569.061 1.08.414 2.229.397 3.354.145 1.087-.243 2.162-.537 3.353-.837-.475-.339-.862-.589-1.219-.875-1.931-1.544-4.13-2.602-6.371-3.602-1.495-.666-2.948-1.427-4.401-2.183-1.993-1.038-3.938-2.17-5.961-3.143-1.009-.485-2.147-.699-3.222-1.051-.515-.169-1.004-.438-1.528-.55-1.715-.37-3.44-.689-5.161-1.023-.324-.063-.653-.101-1.253-.193zm49.382-2.915c-.128.658-.197 1.11-.304 1.553-.373 1.543-.214 3.187-.92 4.671-.535 1.127-.823 2.297-.924 3.575-.238 2.991.51 5.728 1.882 8.308.708 1.332 1.637 2.53 3.14 3.163.81.341 1.527.902 2.289 1.358.2.12.403.249.622.32 1.898.62 3.349 1.755 4.208 3.593.088.19.225.358.339.537.176-2.828.215-5.607-.717-8.306-.312 1.275.191 2.559-.026 3.828-.421-1.573-.776-3.15-1.164-4.718-.185-.75-.464-1.477-.645-2.228-.264-1.087-.289-2.276-.76-3.256-.58-1.207-1.091-2.388-1.233-3.722a1.048 1.048 0 0 0-.221-.527 275.953 275.953 0 0 0-2.972-3.591c-1.082-1.28-1.877-2.718-2.594-4.558zm30.585-5.22c-.056.16-.13.293-.151.434-.193 1.279-.937 2.286-1.718 3.233-1.036 1.256-2.257 2.365-3.259 3.646-.876 1.121-1.802 2.265-1.955 3.791-.049.492-.116 1.01-.314 1.454-.929 2.078-1.348 4.221-.807 6.458.158.654.49 1.349.945 1.834 1.05 1.118 2.226 2.12 3.376 3.192.265-.369.45-.618.627-.871a32.232 32.232 0 0 0 3.435-6.202c.713-1.717 2.077-3.103 2.433-4.986.026-.136.178-.246.263-.374.806-1.215 1.076-2.604 1.226-4.011.042-.392-.121-.854-.316-1.216-1.166-2.157-2.555-4.185-3.785-6.382zm-23.808-8.824c.444-.472.444-.472.332-1.194l-.301 1.206c-.104.109-.235.204-.308.332-1.023 1.803-1.698 3.797-3.008 5.445-.362.453-.68.942-.996 1.428-.824 1.26-1.184 2.709-1.709 4.096-.572 1.509-.266 2.883.4 4.152.626 1.192 1.26 2.411 2.275 3.386.735.706 1.294 1.593 1.932 2.399.174-.567.186-1.096.143-1.621-.189-2.275-.46-4.545-.572-6.824-.077-1.57-.19-3.211.168-4.712.339-1.418.531-2.853.845-4.269.281-1.272.532-2.55.799-3.824zM39.836 123.41l-2.62-2.526c.667 1.068 1.441 2.014 2.618 2.509.168.418.253.899.881.956l-.879-.939zm40.607-56.492.433-1.166c-.431.321-.646.7-.402 1.174-.626.604-.812 1.368-.838 2.187.386-.691.862-1.351.807-2.195zm-18.265 52.986c.287-.551.096-1.012-.364-1.413.137.475.275.95.414 1.424.117.748.117.748.594 1.114-.215-.375-.431-.75-.644-1.125zm51.147-84.188c.63.386.712.83.764 1.293.168 1.511.249 3.039.54 4.526.184.933.616 1.84 1.067 2.689.264.496.419.94.46 1.51.154 2.092-.138 4.171-.088 6.257.024.969-.07 1.94-.033 2.908.028.708-.157 1.376-.221 2.055-.204 2.152-1.411 3.86-2.353 5.665-.523 1.003-1.436 1.815-2.227 2.663-1.233 1.319-2.614 2.363-4.379 2.999-1.248.45-2.309 1.426-3.44 2.186-1.134.763-2.329 1.405-3.693 1.591-.994.135-2.008.176-3.013.176-1.703-.002-3.406-.078-5.109-.099-.262-.004-.525.168-.788.172-.313.005-.627-.083-.942-.132-.03-.081-.06-.162-.092-.243-1.009.838-1.982 1.726-3.037 2.502-1.749 1.287-3.494 2.566-5.48 3.52-2.204 1.06-4.273 2.383-5.847 4.332-.122.152-.23.323-.378.446-1.055.88-1.429 2.053-1.816 3.35-.48 1.609-.925 3.245-1.673 4.807-1.108 2.31-1.795 4.807-1.915 7.427-.063 1.359-.315 2.709-.481 4.064-.076.617-.174 1.232-.216 1.852-.032.48.078.943-.314 1.381-.298.333-.187.77.058 1.195 1.033 1.794 1.661 3.745 2.096 5.76.048.226.086.458.086.687-.005 2.331.074 4.659-.653 6.936-.47 1.472-.638 3.043-1.147 4.497-.388 1.105-.794 2.249-1.798 3.074-.508.417-.753 1.153-1.149 1.794.257 1.205.076 2.49-.213 3.729-.609 2.619-.619 6.656-.188 9.137.383-.803.632-1.427.965-2.001.479-.824.931-1.694 1.568-2.384.381-.412.655-.832.926-1.303.328-.569.819-1.048 1.127-1.626.734-1.382 1.703-2.586 2.711-3.765.606-.708 1.244-1.388 1.875-2.074.238-.258.516-.481.742-.747.396-.467.779-.891 1.347-1.219.991-.572 1.518-1.605 1.984-2.633.677-1.496.613-1.428-.637-2.581-1.182-1.09-2.576-2.037-3.164-3.648-.196-.539-.383-1.095-.463-1.659-.164-1.175-.387-2.319.082-3.54.51-1.324.63-2.793 1.085-4.142.593-1.757 1.341-3.436 2.723-4.793 1.074-1.054 1.947-2.311 2.954-3.439 1.162-1.302 1.685-2.812 1.954-4.531.361-2.294.94-4.549 2.18-6.591.361-.596.441-1.407.497-2.132.087-1.117-.098-2.268.086-3.363.253-1.515-.472-2.772-.771-4.142-.023-.105.01-.222.021-.395.497-.163.717.024.937.497.9 1.942 1.964 3.742 3.591 5.237 1.336 1.227 2.427 2.738 3.531 4.195.821 1.085 1.545 2.25 1.882 3.61.448 1.806.911 3.6.81 5.491-.03.572.103 1.156.187 1.731.172 1.177.396 2.347.537 3.527.266 2.235.475 4.478.736 6.713.152 1.308-.183 2.542-.467 3.788-.042.181-.099.358-.141.509 1.378-.223 2.705-.647 4.016-.606 2.786.088 5.575.226 8.314.951 2.09.552 4.227.455 6.329-.226 1.062-.344 2.179-.537 3.284-.731 1.684-.294 3.138-1.128 4.565-1.975 1.315-.78 1.072-.535 1.262-2.287l1.168.502c-.071.281-.082.523-.188.713-.564 1.007-.588 2.138-.748 3.233-.104.72-.105 1.453-.161 2.18a.81.81 0 0 1-.097.327c-.511.904-1.056 1.789-1.538 2.707-.791 1.509-2.164 2.465-3.343 3.606-.753.728-1.491 1.47-2.229 2.212-1.555 1.566-3.104 3.14-4.662 4.703-1.018 1.022-2.063 2.018-3.068 3.053-.629.647-1.458.892-2.262 1.103a61.801 61.801 0 0 1-5.103 1.121c-2.402.418-4.821.738-7.262.801-.494.012-.992-.166-1.489-.253-1.743-.305-3.048-1.313-4.001-2.719-1.067-1.575-2.616-2.313-4.341-2.742-2.634-.655-4.976.192-7.138 1.643a9.534 9.534 0 0 1-2.381 1.175c-1.648.544-3.151 1.333-4.277 2.82-.992 1.311-1.846 2.673-2.682 4.081-1.14 1.92-2.03 3.942-2.927 5.968-.217.491-.373 1.055-.374 1.586-.001 1.383.106 2.766.158 4.149.026.703.021 1.406.041 2.108.019.698-.005 1.402.091 2.09.21 1.52.076 3.024-.038 4.541-.147 1.978-.174 3.965-.268 5.948-.035.729-.128 1.455-.162 2.183-.019.385.002.777.057 1.159.251 1.737.41 3.458.134 5.225-.14.904.029 1.872.157 2.798.32 2.32-.04 4.57-.565 6.815-.105.45-.142.917-.224 1.471-.119-.171-.265-.284-.26-.39.046-.91.11-1.82.185-2.729.102-1.224.327-2.45.301-3.671-.03-1.394-.278-2.784-.457-4.405l-1.696 11.868-1.242.152c-.058-.367-.237-.735-.14-1.002.721-1.995 1.116-4.055 1.327-6.156.182-1.809.422-3.614.532-5.427.082-1.353.21-2.759-.059-4.063-.455-2.19-.415-4.401-.559-6.597-.128-1.959.098-3.942.187-5.914.04-.89.099-1.782.196-2.668.09-.828-.48-1.267-.951-1.774-1.325-1.427-2.779-2.757-3.942-4.306-1.162-1.548-2.077-3.291-3.021-4.993-.867-1.563-1.569-3.221-2.462-4.767-.538-.932-1.264-1.766-1.977-2.582-1.039-1.189-2.166-2.301-3.209-3.486-1.106-1.257-2.105-2.61-3.247-3.833-1.567-1.679-3.235-3.265-4.84-4.912-.594-.611-1.084-1.331-1.706-1.91-.785-.729-1.657-1.364-2.619-2.142-.367.828-.707 1.474-.944 2.156-.498 1.425-1.38 2.62-2.322 3.742-.956 1.138-2.265 1.445-3.767 1.221-1.722-.257-3.094-1.058-4.43-2.129-.913-.732-2.058-1.198-3.142-1.686-.99-.446-2.051-.73-3.057-1.143-1.117-.46-2.042-1.227-2.935-2.024a8.11 8.11 0 0 1-.816-.832c-.999-1.195-2.033-2.356-2.436-3.937-.16-.628-.521-1.208-.811-1.8-.393-.802-.755-1.624-1.224-2.38-.319-.514-.732-1.021-1.217-1.374a116.504 116.504 0 0 0-4.801-3.298c-1.09-.711-1.981-1.629-2.861-2.559-.312-.33-.535-.769-.709-1.195-.08-.192.058-.474.099-.726 1.254.347 2.308.998 3.562.917.292-.019.619.086.889.217.817.396 1.6.373 2.492.171 1.833-.414 3.714-.458 5.581-.185.759.11 1.493.4 2.252.495.725.091 1.468.045 2.204.041 1.392-.006 2.794.054 4.095-.606.143-.072.371-.038.539.014 1.212.377 2.398.862 3.63 1.139 1.503.338 2.808 1.104 4.179 1.72.762.342 1.459.855 2.131 1.364a17.664 17.664 0 0 1 4.369 4.789c.608.98.893 2.053.884 3.22-.007 1.048.076 2.096.108 3.144.016.495.344.726.696 1.003a52.366 52.366 0 0 1 2.939 2.462c.44.401.762.931 1.18 1.388-.409-1.145-.445-2.374-1.113-3.479-.54-.892-1.018-1.888-.92-3.056.043-.495-.183-1.083-.459-1.521-.688-1.094-.39-2.387-.819-3.524-.048-.128 0-.294.008-.442.089-1.668-.739-2.608-2.286-3.145-.9-.311-1.772-.73-2.495-1.461-.833-.843-1.238-1.826-1.444-2.934-.217-1.174-.68-2.207-1.463-3.132-.729-.863-1.372-1.804-2.007-2.741-.812-1.194-1.145-2.536-1.109-3.978.024-.922-.193-1.913.073-2.754.45-1.418 1.145-2.769 1.841-4.093.41-.781 1.035-1.445 1.537-2.18.679-.998.994-2.101.852-3.145.365-.452.815-.758.881-1.131.375-2.147 1.429-3.96 2.649-5.7 1.721-2.454 3.449-4.901 4.451-7.767.047-.133.18-.236.302-.389.598.282.74.784.794 1.334.28 2.891 1.263 5.488 2.982 7.86.813 1.124 1.241 2.519 1.953 3.726.579.982.903 2.037 1.276 3.09.112.317.474.546.835.94-.387 1.279-.041 2.684.108 4.103.147 1.379.387 2.762.124 4.157-.084.444-.084.914-.229 1.336-.327.949-.8 1.855-1.066 2.818-.32 1.156-.487 2.354-.718 3.534-.015.076-.014.156-.015.235-.003 1.717-.811 3.112-1.786 4.438-.184.25-.389.491-.61.708-.89.869-1.821 1.697-2.675 2.597-.691.726-1.295 1.534-1.926 2.293.43 1.075.848 2.128 1.27 3.179.713 1.776 1.116 3.632 1.384 5.516.299 2.099.928 4.069 2.108 5.847.148.225.268.472.38.718a20.243 20.243 0 0 0 3.301 5.085c1.312 1.489 2.491 3.094 3.822 4.563 1.034 1.141 1.808 2.433 2.619 3.721a100.68 100.68 0 0 0 3.229 4.847c.881 1.234 1.88 2.384 2.813 3.581.809 1.039 1.592 2.098 2.404 3.134.255.325.569.602.977 1.027.003-1.333.064-2.455-.005-3.568-.145-2.283-.292-4.568-.567-6.837-.197-1.627-.354-3.236-.066-4.857.095-.533.312-1.047.384-1.582.177-1.348-.008-2.65-.602-3.892-.425-.886-.73-1.841-1.672-2.362-.406-.225-.783-.503-1.187-.731-1.657-.935-3.324-1.853-4.98-2.79-1.007-.569-1.717-1.494-2.298-2.416-1.163-1.842-2.066-3.823-2.206-6.071-.047-.771-.333-1.528-.38-2.299-.102-1.625.349-3.172.941-4.655.526-1.318.776-2.662.94-4.064.193-1.64.501-3.266 1.068-4.848.571-1.598 1.071-3.201 1.885-4.716.332-.615.881-.959 1.192-1.539.568-1.06 1.205-2.083 1.777-3.14a89.841 89.841 0 0 0 1.924-3.711c.406-.837.822-1.691 1.051-2.585.207-.811.754-1.082 1.409-1.278.515-.155.809.176.704.728-.396 2.105-.655 4.22-.368 6.365.179 1.334.74 2.527 1.369 3.693.332.614.741 1.193 1.023 1.829.494 1.121.916 2.274 1.374 3.43.593-1.527 1.168-2.998 1.736-4.471.195-.505.34-1.031.566-1.519.556-1.196 1.173-2.363 1.709-3.567.195-.436.212-.947.34-1.417.358-1.314.686-2.639 1.109-3.932.477-1.461 1.169-2.813 1.039-4.472-.113-1.408.222-2.852.367-4.352l.422-.084c-.058-4.711-2.028-8.755-4.23-12.914-1.235.142-2.59.358-3.952.432a5.138 5.138 0 0 1-2.061-.312c-1.925-.743-3.882-1.527-5.125-3.283-.706-.996-1.209-2.149-1.709-3.273-.49-1.099-1.018-2.141-1.7-3.155-1.259-1.876-2.084-3.976-2.023-6.319.036-1.385.06-2.771.051-4.156-.004-.49-.106-.982-.196-1.468-.174-.946-.577-1.863-.338-2.861.025-.101-.047-.224-.068-.339-.226-1.258-.458-2.516-.674-3.775-.425-2.475-1.462-4.676-3.128-6.533-.755-.841-1.733-1.482-2.716-2.301l.554-1.068c.318.11.559.145.742.266.914.604 1.923.996 2.91 1.455 1.311.611 2.487 1.511 3.735 2.264.629.379 1.274.735 1.935 1.055 1.331.644 2.675 1.258 4.016 1.88.381.177.771.335 1.153.507.206.092.411.189.608.299.288.161.556.446.855.48.61.072 1.033.367 1.325.853.418.697 1.091 1.075 1.717 1.532.43.314.817.715 1.142 1.139 1.481 1.933 2.619 4.118 4.318 5.895.231.24.371.566.56.847.477.71.937 1.434 1.442 2.124.745 1.018 1.146 2.187 1.566 3.354.184.513.433 1.002.662 1.498.57 1.238.878 2.47.303 3.824-.317.743-.381 1.591-.68 2.343-.53 1.338-1.132 2.65-1.75 3.95-.156.327-.489.57-.708.815.471 1.954.932 3.88 1.401 5.806.524 2.15 1.082 4.292 1.569 6.45.28 1.244.562 2.504.191 3.794.174.007.295.032.304.01.492-1.204.974-2.413 1.456-3.621.013-.035-.007-.086.011-.116.862-1.402.785-3.133 1.652-4.562.451-.742.492-1.723.773-2.578.256-.776.5-1.569 1.151-2.145a.77.77 0 0 0 .224-.484c.06-.882.506-1.607.866-2.379.781-1.672 1.794-3.235 2.191-5.091.137-.636.477-1.22.364-1.914-.029-.179.033-.4.121-.568a5.293 5.293 0 0 0 .617-2.301c.036-.826.412-1.652.713-2.451a58.992 58.992 0 0 1 1.543-3.744c.584-1.268-.252-2.079-.895-2.905-.544-.697-1.348-1.194-1.878-1.899a35.271 35.271 0 0 1-2.481-3.771c-.26-.459-.204-1.123-.214-1.694-.016-.929.081-1.86.042-2.786-.063-1.517.42-2.878 1.059-4.208.101-.211.239-.413.291-.635.52-2.244 1.943-3.92 3.391-5.614 1.388-1.624 2.636-3.366 3.956-5.05.308-.394.678-.742.972-1.145.343-.47.686-.952.937-1.473.658-1.366 1.195-2.801 2.497-3.736.118-.086.196-.236.276-.367.94-1.539 2.286-2.653 3.762-3.639.313-.208.541-.54.844-.765.714-.531 1.487-.987 2.169-1.554 1.225-1.018 2.399-2.098 3.599-3.148.371-.323.756-.628 1.137-.944.549.428.788.801.27 1.305-1.248 1.213-1.362 2.934-1.933 4.442-.186.491.031 1.146.098 1.723.155 1.352.435 2.699.469 4.053.04 1.512-.155 3.028-.215 4.544-.066 1.629.082 3.24.294 4.862.184 1.412.071 2.864.084 4.298.002.269-.062.544-.022.805.399 2.582-.266 5.038-1.048 7.429-.417 1.273-1.389 2.307-2.443 3.204-1.327 1.129-2.694 2.2-3.443 3.89-.447 1.011-1.377 1.61-2.463 2.03-1.298.502-2.509 1.23-3.763 1.85-1.19.589-2.316 1.228-3.221 2.26-.372.424-.701.803-.82 1.34-.624 2.814-1.791 5.441-2.912 8.068-.648 1.516-1.619 2.9-2.139 4.487-.362 1.107-.67 2.231-1.016 3.342-.341 1.099-.804 2.172-1.031 3.294-.418 2.067-1.555 3.807-2.391 5.684-.694 1.559-1.418 3.104-2.187 4.781 1.05-.43 2.053-.83 3.045-1.255.318-.137.589-.41.915-.502 1.695-.479 2.931-1.724 4.389-2.594 1.166-.696 2.254-1.527 3.446-2.167.484-.259.576-.535.608-.982.041-.565.05-1.149.204-1.688.391-1.376.327-2.779.323-4.176-.005-1.597.267-3.033 1.351-4.336 1.66-1.994 3.495-3.704 5.865-4.82 1.247-.587 2.516-1.178 3.646-1.957 1.367-.943 2.478-2.181 3.484-3.535.68-.915 1.629-1.638 2.497-2.404.513-.454 1.056-.921 1.669-1.209 1.061-.501 1.794-1.323 2.501-2.195.216-.266.465-.551.554-.868.282-.999.841-1.895.937-2.974.091-1.021.264-2.05.76-2.998.162-.308.083-.742.131-1.315z"
        fill="#687E6B" />
</svg>