<svg width="178" height="269" fill="none" xmlns="http://www.w3.org/2000/svg"><g clip-path="url(#a)"><path d="M63.779 161.066c.957.086.81-.442.866-.803.01-.064-.074-.142-.184-.334l-.682 1.137zm47.722-36.482-.384-.099-.252.811.268.103.368-.815zm33.136-19.876c-.089.68.244.977 1.056 1.164l-1.056-1.164zm-67.63 53.71c.826-.743.536-1.306.23-1.873l-.23 1.873zm36.01-35.476c-.693.092-1.66-.038-1.116 1.25l1.116-1.25zM58.072 223.048l.623-2.403c-.621.699-1.23 1.402-.623 2.403zm22.414-51.551c1.258-1.16 1.374-1.447.896-2.093l-.896 2.093zm2.233-83.986c1.073-1.237 1.109-1.346.907-2.75l-.907 2.75zm-13.124 29.344.163-.113-1.3-2.026-.45 1.182 1.587.957zm45.015 1.355c-1.07.706-1.293 1.004-1.961 2.732.508-.971 1.793-1.363 1.961-2.732zm-11.108-51.397-.21-.279-2.249 1.827c1.301.093 1.781-.855 2.459-1.548zM44.667 77.994c.616 1.678.616 1.678 2.53 1.151l-2.53-1.151zM40.44 47.987l-1.283.307c.31.343.606.783 1.007 1.079.39.29.889.433 1.659.789l-1.383-2.175zM67.568 200.43l-.317-.128c-.593.715-1.19 1.427-1.352 2.62l1.506-.927.163-1.565zm10.207-55.542c-.751 1.522.039 2.971.418 4.44.04-1.489.617-3.002-.418-4.44zm-31.352-78.48c.037-1.228-1.098-4.584-2.393-7.077-.013 1.736 1.28 5.563 2.393 7.077zm120.405 20.057c1.523.343 2.902 1.163 4.527.724-2.469.016-3.758-1.697-5.268-3.293l.741 2.569zm2.334-8.105.414-.183-1.706-4.769c-.357.708-.788 1.495-.573 2.015.437 1.056 1.223 1.966 1.865 2.937zM67.488 215.546c.168-1.725.372-3.448.485-5.176.046-.7-.106-1.413-.168-2.12-.921 2.434-1.131 4.852-.317 7.296zm-9.614 23.303c.047-1.321.122-2.395.117-3.469-.012-2.26-.045-4.522-.113-6.782-.021-.71-.502-1.456.31-2.044.08-.058.079-.288.055-.427-.125-.711-.27-1.419-.441-2.295-.931 3.26-.925 12.791.072 15.017zm14.089-54.841.353.027 1.91-13.458c-.331.376-.575.531-.637.741-.437 1.476-1.045 2.939-1.203 4.449-.286 2.732-.297 5.492-.423 8.241zM33.547 2.863c.449.04.642.063.836.073 1.345.068 2.775-.128 4.013.271 1.326.427 2.128-.3 3.262-.51-2.78-1.992-5.345-1.779-8.111.166zm16.185 2.01.039-.424c-1.077-.402-2.161-1.151-3.23-1.128-1.928.04-3.906.308-5.61 1.237.556 1.361 1.53 1.617 2.848 1.68 2.167.101 3.983-.872 5.953-1.365zM10.02 21.227c.258.032.466.031.659.085 2.13.601 3.508.023 3.985-2.116.405-1.814 1.3-3.323 2.157-4.882.475-.863.797-1.692.524-2.694-.096-.356-.02-.758-.022-1.256-1.578 1.142-2.431 2.584-2.956 4.233-.574 1.806-1.326 3.445-2.955 4.61-.588.421-1.414.854-1.392 2.02zm103.178 94.668c1.208-2.31 1.396-4.567 1.312-6.815-.029-.796.183-1.416.459-2.055.588-1.36.963-2.647.836-4.291-.121-1.574-.464-3.13-.652-4.701-.183-1.537-.292-3.083-.433-4.626-.294.267-.527.591-.444.751.726 1.413-.302 2.74-.154 4.126.106.994.146 2.016.039 3.008-.102.94-.344 1.89-.689 2.772-.411 1.056-.191 1.93.462 2.862-.882.66-1.135 1.539-.765 2.599.045.129-.084.308-.082.463.03 1.884.069 3.767.111 5.907zm-.732-.338c-.085-.608-.335-1.248-.226-1.818.451-2.351-.332-4.694.161-7.087.27-1.315.242-2.729.695-4.048.085-.249.135-.519.143-.782.066-2.084.119-4.169.172-6.116-.74.732-1.977 3.333-2.388 5.232-1.08 4.984-.844 9.868 1.443 14.619zM65.105 86.94l-.34.012c.112 1.074.11 2.176.36 3.217.338 1.395.879 2.74 1.313 4.113.094.301.19.64.14.938-.168 1.037-.345 2.079-.621 3.091-.534 1.956-.466 3.88-.07 5.859.3 1.492.404 3.038.443 4.563.037 1.477-.522 2.931-.218 4.445.076.374-.043.952-.3 1.197-.724.688-.348 1.552-.5 2.35.32-.276.595-.597.653-.954.323-2.023 1.354-3.887 1.273-6.008-.04-1.04.182-2.087.223-3.133a70.46 70.46 0 0 0 .028-3.649c-.02-1.597-.032-3.194-.121-4.787-.121-2.173-.131-4.376-.53-6.502-.305-1.635-1.136-3.172-1.733-4.752zm-2.477 11.833c.18 2.218.103 4.468 1.143 6.542.162.323.17.723.265 1.082.322 1.219.65 2.436 1.002 3.753.25-1.206.468-2.233.673-3.263.018-.091-.047-.199-.075-.298-.21-.742-.538-1.474-.603-2.229-.152-1.763-.733-3.514-.192-5.31.247-.819.472-1.653.602-2.496.11-.731.302-1.571.062-2.216-.82-2.206-1.358-4.453-1.551-6.793-.004-.051-.122-.093-.358-.264-.304 3.218-1.271 6.282-.181 9.422.123.354.297.701.353 1.065.094.608-.32.963-1.14 1.005zm94.216 23.013c2.179-.078 3.687-1.34 4.065-3.167.149-.72.409-1.278.977-1.748.838-.694 1.417-1.57 1.638-2.665.166-.828.295-1.677.596-2.455.27-.696.323-1.304-.02-1.988l-4.184.214c-.006.349-.06.529-.003.661.452 1.038.316 1.998-.152 3.022-.357.783-.521 1.671-.67 2.53-.162.921-.209 1.862-.3 2.796-.074.762-.276 1.433-.98 1.89-.365.236-.647.602-.967.91zM41.179 75.223l.136-.244c-1.432-1.021-2.861-2.05-4.303-3.059-.158-.111-.392-.162-.59-.163-2.188-.009-4.104-1.004-6.111-1.667-.708-.234-1.393-.551-2.114-.728-1.904-.468-3.812-.935-5.738-1.295-1.611-.302-3.25-.496-5.021-.262.168.22.193.289.233.3 1.739.482 3.172 1.931 5.17 1.621.219-.034.494.145.713.275.957.568 1.89 1.178 2.859 1.725.489.276 1.015.548 1.557.65 2.374.442 4.708 1.053 7.065 1.565 2.045.443 4.096.856 6.144 1.282zm117.541 36.68c-.1-.224-.482-.778-.584-1.381-.138-.821-.796-1.2-1.316-1.188-1.181.025-1.746-.711-2.417-1.418-.231-.243-.564-.389-1.035-.702l.998 1.767-.284.314c-.219-1.263-1.271-.283-1.831-.929-.468-.539-1.198-.892-1.87-1.199-.681-.313-1.432-.469-2.153-.694l-.063.215.864.399-.426.57c1.864 1.086 3.757 2.092 4.644 4.193.64 1.516 1.374 3.018 1.771 4.6.256 1.016.528 2.16-.157 3.272-.366.593-.606 1.406-.248 2.3.408-.374.756-.623 1.014-.943.591-.735 1.37-1.43 1.645-2.279.328-1.01.101-2.188.312-3.254.224-1.133.68-2.221 1.136-3.643zM7.559 51.624c1.114-.492 1.996-.682 2.598-1.199.69-.592 1.426-1.203 1.855-2.095.318-.66.832-1.2 1.65-1.385 1.227-.279 2.42-.725 3.656-.947.586-.106.992-.179 1.069-.781-.91-.233-1.92-.253-2.63-.724-1.592-1.061-3.136-1.965-5.157-1.984-1.458-.014-3.092.628-3.818 2.005-.235.446-.498.98-.451 1.443.049.49.452.945.708 1.429-.49.46-.514.958-.014 1.496.645.696 1.068 1.469.534 2.742zm8.133 16.012-.195.279c.919.944 1.743 2.009 2.774 2.809 2.466 1.912 5.373 2.954 8.357 3.717 2.896.74 5.846 1.288 8.545 2.638 2.025 1.012 3.84 2.566 6.322 2.335 1.076.754 2.082.204 3.243-.086-.515-.581-.92-1.425-1.342-1.434-.968-.022-1.362-.789-2.057-1.12-.62-.296-1.205-.778-1.852-.884-2.594-.423-4.974-1.757-7.686-1.711-.818.014-1.648-.601-2.465-.584-1.676.035-2.95-.768-4.255-1.604-.584-.373-1.16-.845-1.808-1.014-1.422-.37-2.887-.586-4.185-1.334-.727-.418-1.435-.871-2.156-1.301-.408-.243-.826-.47-1.24-.706zm107.889 58.508c.837.464 1.427.725 1.94 1.095.499.361.876.893 1.381 1.245 1.049.73 2.102 1.503 3.475 1.488.674-.007 1.349-.069 2.023-.063 1.249.012 2.497.044 3.745.092 1.272.048 2.563.014 3.81.226 1.186.201 2.506-.074 3.545.83.122.106.422.071.617.019 1.119-.295 2.23-.614 3.588-.994-.662-.178-1.096-.403-1.524-.39-2.048.06-3.949-.659-5.899-1.084-1.889-.412-3.748-.78-5.663-.204-.297.09-.642.165-.934.102-1.552-.329-3.107-.656-4.632-1.086-.603-.171-1.13-.607-1.692-.921 2.066.453 4.053.895 6.123.922 2.184.029 4.367.094 6.235.136-4.829-2.872-10.123-4.17-16.138-1.413zm2.022-55.262c.623.435.681 1.197 1.554 1.114 2.213-.211 4.46-.08 6.63-.714.254-.074.529-.153.787-.132 2.983.235 5.285-1.347 7.521-2.939 1.776-1.265 2.321-1.312 3.738.377.066.078.063.211.127.291 1.065 1.316 1.745 1.499 3.296.889.79-.31 1.577-.632 2.327-.932.156-1.463-1.021-1.873-1.836-2.145-1.491-.5-3.111-.614-4.672-.914-.615-.118-1.313-.156-1.809-.482-1.559-1.022-3.011-.324-4.385.259-1.057.449-1.902 1.372-2.933 1.909-1.135.592-2.369 1.36-3.572 1.383-2.431.047-4.55.74-6.773 2.036zM49.578 6.466c.203.143.359.326.548.372 1.098.273 1.97.955 2.939 1.477 1.698.918 3.348 1.939 5.359 2.269 2.016.329 3.953 1.132 4.867 3.205.696 1.576 1.394 3.185 1.776 4.852.325 1.422 1.354 2.178 2.278 2.969.553.474 1.102.954 1.226 1.56.437 2.134 1.783 3.716 3.04 5.347.406.524.829 1.306 1.982.911-.236-.655-.284-1.48-.72-1.857-1.105-.958-1.401-2.328-2.097-3.485-.135-.223-.278-.491-.278-.738 0-2.263-.602-4.345-1.672-6.338-.462-.862-.532-1.957-1.066-2.756-1.32-1.978-2.95-3.734-5.398-4.217-.961-.191-1.65-.59-2.346-1.18-1.298-1.103-2.634-2.143-4.314-2.654-1.104-.337-2.17-.533-3.282-.07-.274.114-.726.242-.888.109-.74-.608-1.29-.066-1.954.224zM78.887 131.76l-.311-.108c-.901 2.358-2.565 4.119-4.335 5.827-.748.723-1.441 1.589-1.888 2.521-1.164 2.426-1.71 5.053-2.163 7.695-.081.473-.12.985-.335 1.397-1.132 2.16-1.951 4.487-3.473 6.44-.488.626-.904 1.317-1.276 2.019-.244.463-.351.998-.515 1.484 1.248-1.859 2.5-3.672 3.696-5.524.913-1.413 1.764-2.866 2.622-4.314.559-.944 1.076-1.912 1.62-2.864.472-.826.985-1.628 1.425-2.47.367-.702.653-1.446.974-2.171-.074 1.533-.37 2.955-1.411 4.099-.835.915-1.36 2.003-1.776 3.175-.278.785-.788 1.496-1.25 2.204-1.547 2.373-3.136 4.717-4.675 7.095-.497.768-.533 1.146-.49 1.974 3.112-1.26 4.39-3.893 5.39-6.845.59-1.745 1.537-3.37 2.335-5.044.065-.136.228-.222.335-.342.958-1.072 1.979-2.096 2.85-3.236.767-1.003 1.422-2.105 1.606-3.412.36-2.579.76-5.152 1.097-7.733.079-.61-.03-1.244-.052-1.867zm74.308-63.772c1.488-.316 2.16-.077 2.969 1.099.982 1.427 1.804 2.976 2.881 4.325 1.072 1.343 1.427 2.753 1.238 4.416-.079.698.097 1.425.163 2.221 2.37-.515 4.186.104 5.626 1.817.41.487.85.951 1.299 1.402 1.218 1.224 2.267 2.746 4.339 2.494.196-.023.403.034.569.051.967-1.475.537-3.675-.913-4.485-1.085-.607-2.254-1.061-3.099-1.45l-2.755-4.209.297-1.429c.12-.576.261-1.15.358-1.73.333-1.998-.644-2.778-2.559-2.173-.714.225-1.263.449-1.546 1.195-.078.205-.477.288-.829.481.583-2.231.583-2.231-.13-3.812-2.135-.602-4.104-1.452-5.811-2.864-.294-.243-.718-.332-1.088-.479-.286-.113-.616-.151-.865-.316-1.068-.707-3.077-1.134-4.229-.805-.755.216-1.487.513-2.23.772 2.512.522 4.91 1.037 6.315 3.479zm-115.26 79.085.42-.162c.79.846 1.485 1.818 2.393 2.511 1.683 1.285 3.505 2.385 5.238 3.607.55.39.988.938 1.506 1.38.309.262.646.578 1.019.666 1.27.299 2.289.913 3.1 1.949.21.267.704.309 1.062.463.366.158 1.012.287 1.043.5.19 1.327 1.672 1.763 1.974 2.984.015.063.274.065.464.105.472-.974-.284-1.549-.681-2.131-1.142-1.674-2.013-3.466-2.816-5.318a19.317 19.317 0 0 0-2.047-3.609c-.58-.803-1.387-1.489-2.21-2.056-1.717-1.18-3.652-1.932-5.612-2.632-1.334-.478-2.667-1.014-3.906-1.695-1.638-.9-3.063-2.111-4.31-3.523-.342-.388-.776-.693-1.168-1.037.218.849.075 1.787.964 2.326 1.23.744 1.89 1.954 2.45 3.236-.693.344-.84-.166-1.055-.595-.708-1.419-1.816-2.455-3.171-3.284.408 1.123.844 2.222 1.47 3.2.77 1.198 1.685 2.304 2.56 3.433a585.555 585.555 0 0 0 3.845 4.888c1.093 1.379 2.107 2.835 3.32 4.097 1.246 1.294 2.545 2.659 4.087 3.509 1.842 1.015 3.972 1.5 6.03 2.053.576.155 1.138.362 1.706.546-.77-1.028-1.69-1.84-2.573-2.691a27.864 27.864 0 0 1-1.641-1.76c-.296-.34-2.588-2.071-2.938-2.27a17.263 17.263 0 0 1-1.831-1.194c-.466-.347-.814-.974-1.318-1.121-1.41-.414-2.303-1.441-3.285-2.389-.192-.186-.404-.351-.61-.522-1.057-.875-2.13-1.731-3.158-2.637-.197-.174-.218-.547-.321-.827zm28.955 56.981c-1.66.299-2.261 1.276-2.684 2.478-.831 2.368-1.638 4.748-2.58 7.073-1.76 4.342-2.314 8.903-2.532 13.515-.104 2.22.072 4.454.124 6.681.056 2.411.115 4.823.173 7.234 1.256-1.717 2.116-3.561 3.218-5.281 1.013-1.584 1.688-3.436 2.232-5.253.93-3.106 1.887-6.226 1.706-9.552-.078-1.431.253-2.904.032-4.3-.497-3.147-.397-6.24.158-9.359.18-1.02.106-2.084.153-3.236zm9.896-57.29a36.348 36.348 0 0 0-.353-.095c-.645.755-1.447 1.428-1.903 2.286-1.066 2.01-1.977 4.103-2.93 6.173-1.137 2.47-2.56 4.675-5.1 5.956-.607.305-1.154.763-1.66 1.226-1.246 1.141-1.45 1.957-.48 3.186.786.993 1.109 2.149 1.624 3.237.73 1.541 1.303 3.162 2.099 4.667 1.14 2.156 1.635 4.474 2.014 6.838.176 1.099.32 2.202.52 3.575.227-.495.442-.756.455-1.025.075-1.482.042-2.97.155-4.448.187-2.451.653-4.852 1.614-7.133.6-1.425 1.363-2.803 1.778-4.28.488-1.735.203-3.656 1.18-5.299.049-.082.01-.212.023-.318.123-1.002.215-2.009.378-3.004.299-1.834.826-3.653.913-5.496.095-2.005-.201-4.03-.327-6.046zm-.178-14.074c-.085-.273-.188-.688-.341-1.084-.382-.984-.685-2.018-1.204-2.926-.834-1.463-1.9-2.796-2.713-4.269-.904-1.638-1.627-3.375-2.45-5.06-.106-.221-.307-.509-.507-.55-.644-.13-.783-.613-1.023-1.101-.131-.266-.521-.405-.991-.743-.324 1.049-.621 1.888-.837 2.747-.206.82-.283 1.673-.497 2.49-.498 1.902-1.045 3.792-1.57 5.686-.398 1.435-.781 2.873-1.19 4.303a87.087 87.087 0 0 1-1.011 3.371 912.208 912.208 0 0 1-2.848 8.507c-.553 1.628-.937 3.299-.575 4.996.78 3.666 1.906 7.233 3.423 10.666.129.293.347.546.524.818.195-2.637 1.895-4.496 2.977-6.608.849-1.657 1.939-3.189 2.885-4.8.175-.298.185-.699.25-1.056.382-2.09.527-4.23 1.454-6.198 1.17-2.487 1.8-5.34 4.648-6.654.028-.013.005-.111.033-.152.477-.734.959-1.464 1.563-2.383zM37.866 7.85c.565 1.236 1.207 2.308 1.556 3.469.745 2.48 1.747 4.931 1.447 7.616-.011.101-.025.226.02.306.756 1.306.514 2.756.596 4.156.019.313.08.689-.06.932-.681 1.19-.733 2.51-.936 3.812-.19 1.214-.398 2.452-.835 3.59-.313.818-.304 1.513-.104 2.314.38 1.531.664 3.084 1.027 4.62.16.678.417 1.335.668 2.122l.428-.607.229.097-.172 5.094c.293-1.069.56-2.044.829-3.02l.39.086c-.053.492-.114.985-.152 1.48-.004.057.119.125.224.228l1.077-.84.07.852c1.145-.921 2.165-1.838 3.282-2.615a6.46 6.46 0 0 1 3.808-1.187 27.93 27.93 0 0 0 4.418-.339c1.576-.245 2.51-1.529 3.6-2.543.406-.379.885-.936 1.347-.951 1.67-.057 3.104-.816 4.546-1.446 1.325-.578 2.904-1.029 3.575-2.495.614-1.343 1.592-1.98 2.85-2.055-.846-.912-1.808-1.755-2.521-2.772-.625-.89-1.086-1.939-1.415-2.983-.643-2.042-2.426-3.005-3.781-4.513l-2.055 2.065-.254-.239c.38-.549.83-1.063 1.125-1.655.39-.783.942-1.455.81-2.511-.34-2.702-2.283-5.616-5.666-6.04-.47-.059-.977-.097-1.387-.303-1.378-.694-2.806-1.337-4.06-2.221-2.793-1.97-5.837-2.074-9.017-1.642-.057 1.458-.057 1.458-.69 1.964-.228-.589-.485-1.155-.666-1.745-.532-1.724-2.115-2.186-3.396-.961-.27.258-.49.568-.755.88zm1.059 34.331.85.633c-.065-1.912-.42-3.699-.774-5.486-.124-.622-.226-1.249-.375-1.866-.168-.7-.423-1.38-.553-2.085a3.417 3.417 0 0 1 .019-1.385c.266-1.079.656-2.127.923-3.206.353-1.421.61-2.866.958-4.288.344-1.405.1-2.763-.066-4.162-.106-.892-1.024-1.727-.432-2.593.415-.607.28-1.094.139-1.629-.305-1.163-.87-2.293-.972-3.468-.257-2.958-2.126-4.69-4.302-6.287-.508-.373-1.01-.448-1.481-.166-1.521.912-3.455 1.051-4.681 2.56l.415 3.478c-.488-.428-.844-.907-.966-1.44-.464-2.017-2.02-2.365-3.72-2.642-1.548-.253-2.861-.004-4.083 1.071-.82.72-1.106 1.467-.974 2.513.083.661.14 1.403-.076 2.007-.34.94-.838 1.851-1.42 2.668-.693.975-1.138 2.031-1.465 3.158-.923 3.188-1.906 3.258-4.492 3.106-.211-.011-.416-.118-.628-.136-1.321-.118-2.701.074-3.81.605-1.361.653-2.355 1.898-2.381 3.638-.01.633-.162 1.288-.375 1.888-.443 1.251-.711 2.693-1.526 3.652-1.1 1.291-1.818 2.342-1.034 4.085.27.599.415 1.181 1.01 1.484 1.49.76 2.873 1.75 4.595 2.009 1.16.175 2.313.431 3.453.713.616.153 1.23.379 1.788.679a40.653 40.653 0 0 1 2.856 1.71c1.785 1.156 3.745.909 5.672.681 1.359-.16 2.69-.546 4.04-.794 2.106-.387 3.805.841 5.558 1.607 2.007.877 4.06 1.558 6.14 2.189.2.061.46-.073.758-.13l-.75-.995.126-.142 2.207 1.184.235-.289-2.154-3.185.186-.163 1.837 1.715c.087-.07.174-.139.26-.21l-.658-2.206.123-.08zM172.26 97.364l.028.047c.189-.219.359-.606.57-.628.931-.104 1.266-.654 1.377-1.49.041-.313.253-.602.297-.915.277-1.976 1.05-3.996-.508-5.917-.869.501-2.086-.667-2.891.585-.016.025-.185-.049-.282-.077-1.149-.321-2.3-.632-3.445-.966-1.252-.366-1.891-1.297-2.257-2.48-.252-.812-.443-1.656-.805-2.419-.731-1.546-1.685-2.781-3.842-1.843-.042.136-.076.292-.136.439-.973 2.388-1.986 4.736-4.538 5.935-.565.266-1.081.681-1.542 1.109-.772.718-1.403 1.608-2.24 2.226-.868.641-1.262 1.903-2.559 1.981-.072.005-.172.092-.203.164-.793 1.877-2.642 2.427-4.201 3.331-1.757 1.019-4.206.753-5.374 2.893-.077.141-.383.171-.589.223-.492.122-.989.226-1.503.342.641.928-.856.661-.597 1.471 1.17.759 2.17-.954 3.374-.477l-.272.62c.989-.173 1.855-.518 2.657-.408.774.107 1.484.685 2.222 1.056l-.108.31c-.498-.103-.995-.244-1.499-.283-.111-.008-.25.346-.376.531-.839-.697-.839-.697-2.019-.424l2.02.42c.692-.361 1.367-.202 1.981.157.64.375 1.276.784 1.831 1.272 1.346 1.184 3.065 1.659 4.645 1.42 1.943-.294 3.372.096 4.65 1.476.322.348.696.653 1.073.945.8.619 1.571 1.05 2.729.789a20.093 20.093 0 0 1 6.65-.386c1.741.194 3.24-.457 4.534-1.482 1.769-1.402 3.424-2.948 5.154-4.454-1.214-.795-1.506-2.117-1.861-3.409-.297-1.082-.857-1.852-2.145-1.684zm-32.884-.698.101.14c.078.416.361.613.658.302.72-.751 1.68-.825 2.582-1.127 1.05-.353 2.118-.791 3.02-1.421 1.341-.936 2.554-2.061 3.802-3.13 1.334-1.141 2.643-2.312 3.968-3.466.71-.619 1.369-1.325 2.158-1.821 2.394-1.503 3.704-4.574 3.098-7.364-.094-.432-.005-.942.129-1.377.186-.605.18-1.031-.252-1.603-1.04-1.377-1.971-2.841-2.858-4.323-.4-.668-.45-1.546-1.304-1.916-.845-.365-1.504-.077-2.11.515-.055.053-.219-.022-.314.014-1.434.546-2.864 1.101-4.347 1.673-.06.384-.09.753-.179 1.108-.092.365-.243.717-.368 1.074l-.418.004c.525-1.239-.084-2.184-.738-2.967-.648-.775-1.584-1.311-2.37-1.934-1.199.734-2.397 1.509-3.635 2.213-1.261.717-2.61 1.051-4.086 1.194-1.865.179-3.693.739-5.553 1.138.055.236.038.452.134.535 1.931 1.654 1.757 4.061 1.991 6.205.14 1.276.221 2.501.773 3.66.98 2.054 1.389 4.258 1.784 6.476.173.971.401 1.998.897 2.823.386.643.583 1.221.547 1.921-.042.8-.142 1.599-.141 2.399.001.251.248.502.383.753l.371.155c.372-.319.739-.645 1.118-.955.379-.309.772-.6 1.159-.898zm-37.173 73.433.797.242c-.153.383-.316.756-.45 1.139-.721 2.05-1.66 3.935-3.38 5.384-1.007.848-1.828 1.911-2.768 2.843-1.916 1.899-3.591 4.082-6.112 5.285-.19.09-.384.207-.521.36-2.085 2.344-4.472 4.419-5.967 7.277-.518.992-1.433 1.891-2.375 2.518-1.647 1.098-3.454 1.952-5.347 2.992 1.882.264 3.395-.111 4.827-.938 1.527-.881 3.086-1.708 4.62-2.578.222-.126.372-.373.569-.55.988-.887 1.898-1.888 2.988-2.624 1.857-1.254 3.806-2.378 5.758-3.484 1.166-.661 2.069-1.561 2.645-2.722.639-1.287 1.27-2.618 1.609-4.002.369-1.507 1.175-2.735 1.92-4.024.293-.505.624-.998.852-1.533.994-2.334 1.586-4.763 1.644-7.38-.982.274-.785 1.291-1.27 1.831-.492.464-.998.914-1.472 1.396-.408.414-.708.98-1.183 1.275-1.435.895-2.945 1.667-4.4 2.531-1.3.774-2.546 1.664-3.512 2.824-1.353 1.624-2.594 3.333-4.45 4.456a5.174 5.174 0 0 0-1.23 1.027 174.245 174.245 0 0 0-3.82 4.592c-1.52 1.902-2.77 4.027-4.673 5.611-.122.102-.217.239-.314.366-1.002 1.338-2.002 2.678-3.003 4.017 1.096-.336 2.148-.774 3.105-1.365 1.62-1 3.372-1.768 4.828-3.071.848-.758 1.025-1.823 1.712-2.623 1.276-1.486 2.538-2.991 3.71-4.559 1.026-1.37 2.12-2.571 3.878-2.953.199-.043.415-.15.557-.292.896-.897 1.768-1.817 2.657-2.72 1.487-1.512 2.952-3.048 4.48-4.518 1.619-1.558 2.457-3.542 3.209-5.584.044-.118-.074-.295-.118-.446zM32.855 4.772a150.91 150.91 0 0 1-.316-.752c-2.352 1.67-4.807 2.208-7.502 1.363-.255-.08-.532-.088-.786-.171-1.502-.49-2.987-.12-4.44.184-.671.14-1.383.551-1.867 1.045-2.822 2.874-4.815 6.33-6.687 9.855-.244.46-.24 1.053-.403 1.839.996-.563 1.442-1.162 1.778-1.92 1.063-2.392 1.704-4.931 3.979-6.742C19.33 7.306 22 6.002 25.478 7.363c1.004.392 2.189.46 2.994-.372.509-.525.959-.85 1.665-1.017.897-.213 1.75-.611 2.618-.946.054-.022.05-.193.074-.295 1.732.398 3.273 1.138 4.3 2.516l2.486-2.743c-1.635-.22-3.317-.49-5.01-.656-.717-.071-1.514-.039-1.75.922zm45.429 92.595c.69-.392.799-1.11 1.11-1.713-.105-.051-.21-.102-.315-.151-.256.636-.511 1.273-.76 1.919l-.92 1.521c.797-.304.994-.879.885-1.576zm7.37-14.944c-.751.213-.751.213-.86.963.26-.296.557-.63.849-.966.216-.427.43-.856.775-1.541-.967.441-.918.973-.764 1.544zm-3.607 4.415c-.022-.154-.114-.348-.053-.458a111.372 111.372 0 0 1 1.785-3.088c.135-.225.427-.372.518-.605 1.03-2.659 3.48-4.147 5.17-6.261.522-.652 1.264-1.133 1.929-1.662 1.659-1.319 3.317-2.64 5.005-3.922.834-.632 1.75-1.157 2.592-1.78.283-.209.462-.563.672-.862.669-.948 1.16-2.05 2.534-2.788l-.533 1.462c.069.008.156.048.217.024.924-.384 1.461-1.287 2.578-1.558.856-.207 1.478-1.324 1.748-2.332.298-1.113 1.017-1.852 1.957-2.421 1.344-.815 2.654-1.665 4.275-1.925.955-.154 1.72-.7 2.194-1.688.522-1.087 1.278-2.06 1.906-3.099.293-.486.526-1.008.837-1.615.166.088.475.172.479.266.031.877.161 1.793-.042 2.623-.182.745-.746 1.398-1.144 2.091-1.003 1.744-2.826 2.285-4.516 2.932-1.3.498-2.438 1.213-3.603 1.934-.919.567-1.119 1.541-1.497 2.384-.281.626-.64 1.039-1.167 1.448-.608.474-1.09 1.117-1.592 1.716-1.275 1.521-2.97 2.326-4.8 2.952-.68.232-1.295.652-1.89 1.098 1.033.105 1.925.009 2.853-.58 1.106-.703 2.417-1.082 3.643-1.591 1.656-.689 3.285-1.465 4.988-2.01.889-.284 1.91-.198 2.872-.204 1.204-.006 2.409.066 3.714.107-.035.172-.045.419-.149.617-.04.076-.319-.006-.443.064-1.548.889-3.298.415-4.939.694-1.301.222-2.45.684-3.621 1.184-.637.273-1.266.562-1.896.852-.191.088-.497.172-.533.312-.283 1.132-1.283 1.183-2.126 1.438-.945.285-1.62 1.047-2.705 1.18-1.83.224-3.632.726-5.425 1.192-2.33.604-3.71 2.455-5.078 4.21-.938 1.204-1.644 2.599-2.378 3.95-1.091 2.005-2.194 4.009-3.142 6.084-.703 1.538-1.1 3.214-1.76 4.774a54.505 54.505 0 0 1-2.424 5.025c-.503.914-1.195 1.748-1.913 2.513-2.244 2.396-3.634 5.367-5.502 8.014-.616.872-1.222 1.755-1.882 2.595-.523.666-.726 1.347-.176 2.041 1.576 1.986 1.768 4.581 2.964 6.699 1.084 1.92 1.654 4.073 2.99 5.883.852 1.151 1.325 2.581 2.006 3.965.417-.404.406-.986.517-1.536.177-.885.368-1.773.634-2.634.192-.622.91-.737 1.223-.186.278.491.49 1.086.513 1.645.12 3.095-.015 6.183-.497 9.251-.272 1.735-.521 3.474-.775 5.212-.03.208-.114.471-.026.624 1.119 1.954.87 4.119.855 6.203-.015 2.246-.223 4.506-.552 6.73-.223 1.502-.796 2.953-1.224 4.423-.8 2.744-1.776 5.45-2.364 8.238-.625 2.962-.871 6.002-1.311 9.005-.13.877-.354 1.739-.6 2.915 1.294-1.043 2.167-2.095 2.562-3.456.2-.692.39-1.3.987-1.767.228-.18.285-.585.403-.894.072-.187.07-.412.17-.576 1.452-2.361 2.456-4.992 4.348-7.089.415-.46.786-1.058.924-1.65.334-1.438 1.249-2.734 1.053-4.307-.037-.3.042-.694.22-.927 1.199-1.554 1.377-3.543 2.28-5.224.717-1.336 1.417-2.703 1.913-4.129.416-1.196.545-2.494.762-3.753.199-1.162-.13-2.283-.264-3.427-.252-2.142.003-4.254.49-6.412.458-2.016 1.08-4.036 1.219-6.129.069-1.059.677-2.305 1.66-3.092-.068.552-.11.926-.163 1.299-.494 3.406-.912 6.826-1.514 10.213-.345 1.936.236 3.704.56 5.53.168.937.409 1.86.643 2.909 1.203-.254 1.922-1.361 2.48-2.291.533-.887 1.314-1.412 1.955-2.116 1.033-1.134 2.548-1.986 3.177-3.288.732-1.515 2.144-2.513 2.664-4.166.211-.673 1.184-1.104 1.806-1.648.239-.211.568-.39.685-.658.831-1.904 2.554-3.352 3.1-5.315.537-1.93 1.921-3.623 1.669-5.796-.043-.376.425-.789.579-1.214.802-2.214.432-4.425-.045-6.637-.5-2.325-1.305-4.647-1.362-6.986-.059-2.401.597-4.827.994-7.233.401-2.434 1.408-4.638 2.698-6.723.911-1.472.849-3.17 1.09-4.794.293-1.976.351-3.975 1.686-5.688.66-.847.94-1.989 1.431-3.082 1.264-.173 1.562.11 1.189 1.333-.385 1.263-.87 2.502-1.161 3.786-.21.927-.185 1.91-.244 2.869-.079 1.275.01 2.583-.239 3.823-.39 1.951.01 3.839.242 5.727.283 2.313.674 4.573.427 6.951-.223 2.158-.85 4.248-.916 6.418-.01.366-.059.741.001 1.095.132.767-.084 1.413-.395 2.117-.487 1.1-.786 2.284-1.165 3.432l.286.275c.537-.242 1.226-.351 1.575-.754.513-.592 1.107-.943 1.783-1.249 1.268-.576 2.103-1.517 2.807-2.759.632-1.117 1.702-2.001 2.641-2.926 1.412-1.392 2.903-2.706 4.31-4.103.691-.686 1.47-1.12 2.343-1.546 1.264-.615 2.368-1.558 3.477-2.318.338-.955-.264-2.056.725-2.742l-.247-3.928c.106-.044.377-.161.649-.277-.01-.106.01-.228-.037-.315-.711-1.331-1.08-2.754-1.196-4.254-.182-2.314-1.065-4.43-1.82-6.59-.417-1.193-.618-2.469-.841-3.72-.207-1.167-.287-2.348-.682-3.487-.727-2.089-2.291-3.175-4.313-3.728-.957-.26-1.692-.771-1.87-1.761-.175-.975.484-1.527 1.242-2.034 1.701-1.136 3.485-1.803 5.59-1.844 1.673-.032 3.321-.493 4.773-1.507 1.091-.763 2.306-1.345 3.451-2.031 1.399-.838 2.961-.931 4.307-.254 1.326.666 2.297.163 3.182-.478 1.537-1.113 3.057-1.309 4.803-.651 1.285.486 2.659.747 3.923 1.276.863.362 1.618.994 2.398 1.54.842.589 1.693.873 2.783.866 1.205-.006 2.264.616 2.442 2.126 1.405-.256 2.743-.339 3.747.771.664.734 1.22 1.565 1.848 2.333.981 1.2 1.099 2.755 1.645 4.125.83 2.078 2.13 3.856 3.187 5.784.662 1.208 1.22 2.386.919 3.788-.072.337-.297.642-.403.861.661 1.102 1.468 2.143 1.949 3.317.83 2.027.316 4.105-.358 6.054-.703 2.034.018 3.652 1.054 5.262.165.258.464.429.629.686.853 1.327.774 1.347-.459 2.341-1.442 1.162-2.783 2.451-4.159 3.695-1.609 1.455-3.671 1.911-5.647 2.537-.309.099-.721-.127-1.229-.233.016 1.866-.638 3.539-1.028 5.269-.243 1.082-1.023 1.695-1.434 2.597-.65 1.43-1.513 2.769-2.353 4.104-.528.841-1.337 1.238-2.365 1.379-1.202.165-2.387.516-3.554.869-.999.301-1.715-.26-2.396-.753-.204-.147-.134-.879.014-1.266.497-1.306.825-2.617.976-4.022.125-1.162-.194-2.076-.713-3.02-.329-.6-.703-1.2-.89-1.849-.684-2.361-2.323-3.554-4.631-4.041-.37-.077-.839-.28-1.018-.574-.968-1.589-3.202-1.948-3.764-3.915-.037-.132-.206-.303-.332-.319-1.394-.186-2.714-1.068-4.181-.537-2.532.916-4.913 2.164-7.298 3.398-.848.44-1.455 1.135-1.869 2.091l-.776-.389c-1.924 2.056-3.603 4.411-5.813 6.051-2.072 1.536-3.553 3.553-5.385 5.261-1.697 1.582-3.042 3.544-4.532 5.346-.114.138-.155.336-.348.773 1.893-1.532 3.881-2.025 5.799-1.401 2.226.725 4.188.113 6.19-.489 1.42-.427 2.788-1.014 4.277-1.197.208-.026.41-.187.61-.177 1.622.081 3.263.065 4.856.331 1 .167 1.947.732 2.88 1.193.737.364 1.396.771 2.295.8.556.019 1.098.572 1.642.892 1.601.943 3.273 1.578 5.177 1.689 1.023.061 2.009.613 3.033.848.868.198 1.826.54 2.451-.72l1.209 1.039c-1.547 1.509-2.98 2.809-5.129 3.018-.91.089-1.781.542-2.692.656-.648.081-1.342-.084-1.999-.216-.88-.177-1.734-.53-2.619-.628-1.934-.215-3.879-.342-5.823-.456a22.38 22.38 0 0 0-2.837.011c-2.363.16-4.215-.978-5.946-2.344-1.888-1.489-3.807-2.773-6.385-2.449-.522.067-1.073.009-1.598-.071-1.931-.294-3.62.213-5.328 1.155-1.405.775-2.338 1.776-3.288 3.055-.91 1.226-1.891 2.421-2.722 3.718-.398.62-.648 1.339-1.073 1.935-.528.743-1.147 1.427-1.765 2.101a121.135 121.135 0 0 1-2.964 3.118c-.785.798-1.727 1.468-2.39 2.352-1.807 2.412-4.067 4.41-5.98 6.712-1.254 1.511-2.266 3.221-3.386 4.842-.454 3.075-2.337 5.588-3.32 8.456-.707 2.061-1.347 4.153-2.193 6.156-.38.901-1.215 1.603-1.802 2.425-2.435 3.414-5.057 6.714-6.477 10.748-.222.628-.828 1.122-1.047 1.751-.621 1.787-1.51 3.491-1.625 5.444-.036.608-.306 1.246-.613 1.789-.687 1.214-.97 2.589-1.717 3.804-.478.777-.284 1.968-.39 2.974-.07.673-.138 1.346-.073 2.111 1.059-1.211 2.992-1.442 3.408-3.316.052-.232.29-.438.476-.621.189-.186.539-.285.615-.495.837-2.333 3.287-3.421 4.304-5.63.3-.65.977-1.123 1.456-1.697.915-1.096 1.775-2.239 2.725-3.303 1.077-1.208 2.217-2.361 3.349-3.52.887-.907 1.684-1.875 2.719-2.676.703-.543 1.194-1.546 1.936-2.197 1.558-1.367 3.104-2.761 4.765-3.996.78-.58 1.822-.801 2.732-1.215.329-.149.697-.32.914-.588 1.473-1.825 2.969-3.635 4.333-5.539.644-.9 1.01-1.998 1.528-3.058.902.752.926 1.517.714 2.465-.264 1.178-.456 2.41-.423 3.612.078 2.843-.814 5.459-2.122 7.832-1.187 2.154-1.924 4.48-3.064 6.634-.493.932-.83 1.949-1.357 2.858-.39.672-.885 1.347-1.491 1.814-.876.675-1.895 1.166-2.855 1.729-2.386 1.402-4.876 2.635-6.752 4.788-.568.652-1.475 1-2.2 1.525-1.471 1.065-3.011 1.993-4.797 2.418-.928.22-1.876.528-2.811.514-2.31-.033-4.415.357-6.205 1.957-.586.523-1.344.854-2.095 1.318.106 2.418.269 4.849.299 7.282.017 1.429-.124 2.866-.285 4.289-.313 2.753-.717 5.496-1.036 8.249-.625 5.419-2.343 10.524-4.526 15.477-.722 1.637-1.758 3.137-2.656 4.696-.397.689-.825 1.36-1.207 2.058-.118.214-.194.49-.183.733.12 2.874.246 5.749.405 8.621.085 1.545.257 3.086.35 4.631.096 1.587.172 3.177.194 4.766.007.462-.11 1.008-.93.931-.99-2.021-.24-4.305-.78-6.43-.444 2.74-.881 5.481-1.338 8.218-.137.82-.23 1.681-1.247 2.374.254-2.649.405-5.063.739-7.451.32-2.305.929-4.571 1.218-6.878.16-1.276-.018-2.607-.154-3.902-.088-.841-.376-1.659-.594-2.571-1.053.354-1.575 1.286-2.105 2.174-1.192 1.997-2.385 3.972-4.115 5.592-.681.638-1.113 1.557-1.603 2.381a24.405 24.405 0 0 0-2.593 6.189c-.022.085-.137.145-.428.435.19-1.328.232-2.447.536-3.489.287-.983.85-1.883 1.1-2.983-.508.602-.945 1.289-1.543 1.783-.572.471-.573 1.62-1.701 1.447-.416-.808.294-1.302.65-1.762 1.899-2.443 3.893-4.812 5.837-7.221 1.668-2.065 3.255-4.199 4.996-6.199.682-.783.79-1.628.766-2.496-.038-1.366-.22-2.732-.417-4.088a50.605 50.605 0 0 1-.452-10.008c.117-2.165.143-4.335.218-6.502.01-.266.038-.543.124-.793.733-2.148 1.49-4.288 2.225-6.435.376-1.099.716-2.21 1.085-3.311.165-.494.24-1.083.563-1.446 1.205-1.36 1.553-3.143 2.41-4.673.633-1.126.87-2.468 1.457-3.626.729-1.438 1.37-2.92 2.159-4.34.857-1.543 1.765-3.255 1.742-5.189-.007-.577.153-1.153.183-1.732.205-4.042.144-8.081-.311-12.104-.13-1.144-.488-2.194-1.087-3.254-.88-1.556-1.348-3.34-2.023-5.015-.43-1.062-.916-2.101-1.354-3.101-1.352-1.067-2.69-2.14-4.05-3.186-.234-.18-.554-.353-.837-.357-3.261-.047-5.994-1.766-8.947-2.786-.2-.07-.387-.21-.591-.236-2.351-.294-3.93-1.784-5.388-3.459-1.326-1.522-2.658-3.041-3.962-4.583-.57-.673-1.063-1.41-1.611-2.101-1.45-1.827-2.964-3.606-4.353-5.478-1.971-2.656-3.362-5.545-3.085-8.988.02-.265-.011-.543.064-.791.253-.839.787-.971 1.383-.335.403.429.79.882 1.12 1.369 1.683 2.495 4.022 4.265 6.5 5.869.435.283 1.002.35 1.49.559 2.159.922 4.322 1.835 6.462 2.798 2.598 1.169 4.204 3.348 5.189 5.858 1.14 2.906 2.817 5.486 4.39 8.127 1.394 2.336 3.48 4.071 5.755 5.672-1.112-2.898-2.258-5.784-3.32-8.701-.596-1.636-1.077-3.316-1.567-4.987-.374-1.277-.852-2.558-.97-3.865-.105-1.192.097-2.45.369-3.631.417-1.81 1.12-3.557 1.5-5.374.466-2.214 1.707-4.099 2.382-6.214.13-.409.313-.807.386-1.225.5-2.832 1.119-5.652 1.424-8.506.372-3.488.548-7.003.654-10.512.036-1.191-.394-2.397-.617-3.594-.103-.554-.222-1.105-.331-1.657-.113-.573-.13-1.187-.351-1.714-1.062-2.517-1.291-5.183-1.362-7.852-.04-1.473-.446-2.697-1.347-3.828-1.19-1.494-2.377-2.994-3.481-4.552-.726-1.023-1.298-2.156-1.948-3.234-.653-1.08-1.38-2.12-1.956-3.239-.423-.824-1.034-1.421-1.651-2.078-1.031-1.096-2.22-1.087-3.486-.848-2.095.395-4.206.463-6.328.454-1.774-.008-3.393-.653-4.785-1.577-2.651-1.759-5.555-2.653-8.61-3.327a45.262 45.262 0 0 1-6.408-1.949 15.518 15.518 0 0 1-3.92-2.217c-1.202-.937-2.203-2.145-3.217-3.3-.7-.795-1.15-1.84-1.933-2.518-.684-.592-.4-1.169-.576-1.845 1.02 0 1.71.371 2.128 1.098.748 1.306 1.849 1.591 3.265 1.478 2.284-.184 4.604-.063 6.822.404 2.495.526 4.896 1.492 7.345 2.241 1.734.531 3.483 1.011 5.219 1.534.497.15 1.009.311 1.452.573 2.026 1.196 3.928 2.561 5.633 4.197 1.248 1.196 2.667 2.119 4.34 2.661.772.249 1.466.737 2.514 1.283-.308-.874-.415-1.4-.667-1.846-.64-1.132-1.047-2.301-1.026-3.627.007-.393-.246-.81-.444-1.182-.843-1.592-1.676-3.184-2.076-4.961-.043-.19-.088-.441-.222-.538-1.581-1.134-1.983-2.895-2.511-4.6-.233-.756-.604-1.469-.833-2.227-.27-.895-.441-1.819-.678-2.724-.325-1.236-.691-2.462-1.005-3.702-.454-1.797-1.292-3.537-2.586-4.691-1.234-1.102-2.623-2.392-4.527-2.48-.257-.013-.62.075-.755-.061-1.422-1.417-3.571-1.312-5.113-2.503-1.12-.867-2.453-.5-3.715-.302-.2.032-.377.257-.57.265-1.957.093-3.44 1.054-4.9 2.297-.684.584-1.852.682-2.827.827-1.646.246-2.787 1.166-3.736 2.433-.187.249-.352.586-.608.7-1.635.735-2.877 1.937-3.984 3.335-1.227-.696-1.743-1.597-1.258-2.927.225-.616-.073-1.035-.368-1.586-.622-1.158-1.02-2.443-1.424-3.704-.095-.295.049-.775.252-1.041.903-1.178 1.599-2.626 3.34-2.827.205-.023.412-.116.592-.221.117-.068.187-.216.392-.468-1.662-.346-3.206-.712-4.768-.975-.831-.139-1.442-.459-1.991-1.125-.605-.733-1.393-1.316-2.172-2.029-.194-.319.619-.525.129-1.153-.751-.963-.41-2.092.36-3.026.955-1.153 1.569-2.448 1.953-3.909.323-1.228.64-2.424.8-3.702.164-1.293 1.337-2.134 2.363-2.892.633-.467 1.393-.76 2.244-1.211.772-2.082 1.506-4.381 2.48-6.574.582-1.309 1.814-2.313 1.913-3.88 1.68-2.353 3.496-4.599 5.869-6.289.557-.397 1.386-.48 2.107-.565 1.229-.145 2.4-.142 3.686.196 1.378.363 3 .974 4.485-.039.187-.128.532.004.772-.077 1.153-.391 2.242-.776 3.123-1.786C34.644-.085 37.134-.532 40.054.575c1.222.463 2.422 1.18 3.834.845 2.438.833 5.178.818 7.247 2.725.43.398 1.27.473 1.925.486 2.694.055 5.157.491 7.07 2.713.759.882 1.965 1.218 3.188 1.56 1.706.477 3.31 1.439 4.482 2.975 1.533 2.01 2.116 4.464 3.255 6.657.653 1.255.72 2.844.908 4.301.196 1.515.905 2.687 1.978 3.705 1.027.972 1.395 3.69.463 4.725-.418.466-1.317.712-1.99.695-1.391-.039-2.168.653-2.81 1.74-.732 1.242-1.943 2.021-3.187 2.544-1.638.688-3.421 1.026-5.127 1.56-1.102.346-1.972 1.044-2.67 1.969-.55.728-1.155 1.31-2.19 1.381-1.572.108-3.13.438-4.702.555-2.511.183-4.7.901-6.167 3.127-.252.383-.614.774-1.017.958-.934.428-1.205 1.136-1.156 2.074.132 2.496.243 4.993.395 7.487a4.5 4.5 0 0 0 .325 1.399c1.096 2.701 2.306 5.359 3.307 8.093.579 1.582.805 3.29 1.25 4.926a139.626 139.626 0 0 0 1.737 5.951c.5 1.564 1.09 3.099 1.688 4.628.162.416.478.78.755 1.143.425.552 1.137.878 1.089 1.788-.017.309.484.661.775.969 1.709 1.812 3.468 3.569 4.755 5.746.587.995 1.434 1.837 2.39 3.033.148-1.836.288-3.373.388-4.913.076-1.144.183-2.295.128-3.436-.104-2.177-.326-4.348-.475-6.524-.084-1.227-.118-2.456-.175-3.678 1.167-.55 1.519-.443 1.578.669.089 1.685.618 3.234 1.19 4.785.056.15.135.315.117.462-.273 2.2 1.03 4.001 1.553 5.996.449 1.719 1.426 3.304 1.832 5.028.424 1.791.473 3.676.625 5.525.078.942.01 1.895.032 2.843.073 3.133.158 6.266.243 9.605.312-.339.548-.568.752-.822.658-.819 1.348-1.615 1.945-2.477a15.093 15.093 0 0 1 2.92-3.145c.306-.247.466-.697.64-1.076.812-1.764 1.647-3.518 2.39-5.31.628-1.511 1.08-3.096 1.723-4.6.69-1.616 1.506-3.178 2.29-4.753.084-.167.328-.253.497-.376-.382.808-.825 1.594-1.128 2.431-.243.671-.316 1.403-.464 2.109.905.219.41.737.24 1.172-.122.315-.276.617-.416.924.805-.905 1.573-4.036 1.768-6.634z" fill="#687E6B"/></g><defs><clipPath id="a"><path fill="#fff" d="M0 0h178v269H0z"/></clipPath></defs></svg>