<svg width="196" height="216" fill="none" xmlns="http://www.w3.org/2000/svg"><g clip-path="url(#a)"><path d="M22.68 23.912c.022-.55-.199-.625-.55-.7l.55.7zM134.574 148.57c-.201-.29-.253-.412-.344-.482-.068-.052-.187-.038-.283-.053l-.046.149.673.386zM53.099 59.504c.03-.796-.052-.966-.394-.858l.394.858zm75.59 47.647.122-.29c-.421-.088-.71-.436-1.213-.369l1.091.659zM23.282 24.258l-.184.16.838.82.166-.172-.82-.808zM71.655 58.11l.065.219c.934-.031 1.965.177 2.774-.156.846-.35 1.757-.497 2.564-.914.786-.406 1.622-.475 2.475-.515.222-.011.445-.034.729-.056l-.476-.98-8.131 2.402zm64.103 91.104-.111.184c.706.745 1.407 1.494 2.12 2.233.47.487.918 1.005 1.442 1.425 1.021.818 2.082 1.585 3.139 2.357 1.63 1.192 3.271 2.368 4.904 3.555.487.353.961.72 1.442 1.081-.436-.76-.925-1.461-1.514-2.067-1.265-1.302-2.466-2.707-3.903-3.789-1.73-1.3-3.472-2.646-5.541-3.429-.188-.071-.332-.257-.498-.388l-1.48-1.162zM109.121 59.37a7.7 7.7 0 0 0 .093-.18c-.582-.403-1.126-.891-1.758-1.188-.766-.36-1.595-.615-2.422-.813-.993-.238-2.063-.227-3.008-.574-1.906-.701-3.911-.645-5.861-.987-1.116-.196-2.251-.287-3.378-.415-.736-.083-1.476-.221-2.211-.204-1.599.039-3.197.145-4.792.257-.912.063-1.819.193-2.728.293l.004.262c.645.013 1.292.047 1.937.034.602-.012 1.242-.226 1.797-.086 1.769.448 3.578.223 5.362.446 2.004.249 4.053.13 6.066.339 1.69.175 3.369.533 5.03.913 1.352.31 2.673.757 3.998 1.176.636.203 1.248.482 1.871.727zm24.368 88.261.199-.158c-.765-.826-1.44-1.768-2.313-2.456-1.986-1.563-4.044-3.042-6.126-4.478-1.096-.757-2.149-1.648-3.542-1.872-.081-.012-.208-.129-.207-.195.007-.463-.389-.445-.656-.568-.616-.285-1.254-.529-1.858-.837-.708-.362-1.391-.774-2.084-1.165l-.126.168c.341.296.65.643 1.03.877.844.518 1.48 1.371 2.523 1.566.736 1.102 2.006 1.483 3.018 2.211 1.204.865 2.49 1.615 3.737 2.421.117.076.2.202.308.293 1.137.956 2.176 2.012 3.606 2.602.897.371 1.665 1.05 2.491 1.591zm-46.84-64.074c.046-.255.092-.39.09-.522-.027-2.148-.599-4.203-1.092-6.27-.041-.172-.25-.35-.425-.438-1.371-.7-2.569-1.643-3.767-2.595-1.442-1.15-2.921-2.252-4.369-3.395-.603-.477-1.167-1.005-1.749-1.51 3.562 5.005 7.042 10.057 11.312 14.73zm-14.49-17.042-.278.22c.887 1.2 1.798 2.382 2.651 3.605.547.786 1.075 1.6 1.492 2.46.511 1.054.838 2.198 1.351 3.25.951 1.949 1.978 3.86 2.975 5.785.376.724.644 1.54 1.158 2.148 1.147 1.356 2.396 2.627 3.651 3.885.325.327.826.479 1.449.824.051-1.193.046-2.147.148-3.09.067-.602-.178-1-.538-1.416-1.207-1.392-2.418-2.782-3.584-4.208-.97-1.185-1.893-2.41-2.811-3.637-.873-1.167-1.709-2.363-2.569-3.54-.819-1.122-1.608-2.268-2.481-3.347-.824-1.018-1.739-1.962-2.614-2.94zm95.136 147.719c.072-.047.143-.094.213-.142-.045-.27-.051-.554-.141-.807-.356-1-.691-1.988-.852-3.059-.248-1.645-.666-3.267-1.06-4.888-.577-2.383-1.211-4.752-1.793-7.134-.336-1.383-.623-2.779-.926-4.17-.205-.936-.324-1.9-.627-2.802-.247-.734-.767-1.372-1.072-2.092-.556-1.316-1.034-2.665-1.564-3.992a3.964 3.964 0 0 1-.272-1.326c-.059-1.137-.164-2.297-.464-3.388-.34-1.23-.889-2.408-1.392-3.588-.68-1.596-1.403-3.172-2.146-4.841-.201.675-.205 1.253-.035 1.857.396 1.403.83 2.8 1.118 4.227.324 1.609.713 3.202 1.45 4.656 1.521 2.999 2.431 6.223 3.606 9.35.038.1.07.204.092.309a60.21 60.21 0 0 1 1.18 8.621c.128 1.949.516 3.883.812 5.819.052.338.218.657.333.985.541 1.539 1.073 3.081 1.631 4.614.114.313.266.661.508.866.423.36.93.622 1.401.925zM100.366 98.193c1.516 1.093 1.919 1.225 3.652 1.355.415.03.841.167 1.224.34 1.782.805 3.59 1.538 5.515 1.924 1.19.239 2.388.438 3.585.631 1.785.288 3.576.537 5.359.841.732.124 1.468.289 2.166.54.837.3 1.628.726 2.452 1.071.801.337 1.618.64 2.599 1.025-.363-.371-.577-.744-.895-.891-1.74-.804-3.229-2.113-5.146-2.559-.135-.032-.257-.123-.387-.178-.754-.319-1.501-.659-2.267-.949-1.093-.414-2.214-.757-3.297-1.195a177.986 177.986 0 0 1-5.102-2.172c-.583-.256-1.129-.596-1.69-.902-2.094-1.146-4.197-2.273-6.272-3.452-.691-.392-1.306-.918-2.11-1.492l.614 6.063zM46.607 59.842c-.111-.722-.673-1.118-.989-1.655-1.202-2.038-3.278-2.685-5.328-3.38-.064-.022-.143-.001-.212-.017-.617-.143-1.26-.221-1.844-.45-1.183-.461-2.456-.688-3.552-1.374-.358-.225-.72-.59-1.097-.613-.809-.05-1.42-.528-1.993-.92-1.774-1.208-3.785-1.856-5.757-2.56-1.588-.565-3.313-.732-4.931-1.227a49.97 49.97 0 0 1-5.012-1.86c-1.559-.667-2.758-1.963-4.374-2.582-1.297-.497-2.592-.916-3.984-.982-.132-.007-.269.069-.563.15.301.119.429.185.565.22 1.975.505 3.626 1.659 5.314 2.716 1.167.73 2.169 1.743 3.372 2.394 1.514.818 3.051 1.618 4.667 2.249 1.55.605 3.082 1.26 4.59 1.963 1.869.87 3.768 1.709 5.532 2.766 1.004.602 2.056 1.07 3.11 1.496 1.782.72 3.652 1.219 5.482 1.82.981.325 1.958.666 2.935 1.004 1.296.448 2.575.984 4.069.842zM4.174 42.545c1.591 1.152 3.057 2.209 4.518 3.273.69.502 1.336 1.075 2.065 1.51 1.585.944 3.173 1.9 4.839 2.682.647.304 1.278.575 1.825 1.038.19.16.409.287.614.43 1.6 1.122 3.144 2.302 4.335 3.886.25.332.595.63.959.83 1.327.726 2.675 1.41 4.026 2.09.344.174.725.274 1.092.4 1.689.583 3.379 1.165 5.07 1.744.944.323 1.89.644 2.836.963 2.851.959 5.768.549 8.667.374.377-.023.939-.187.852-.814-1.569-.491-3.095-.953-4.611-1.446-1.612-.524-3.227-1.042-4.819-1.626-1.499-.55-2.985-1.115-4.418-1.864a102.929 102.929 0 0 0-3.005-1.52c-1.767-.851-3.438-1.892-5.311-2.53-.974-.332-1.919-.757-2.861-1.175-1.292-.573-2.57-1.175-3.852-1.772-.222-.104-.451-.218-.636-.375-.486-.407-.9-.918-1.429-1.248-1.389-.867-2.85-1.617-4.233-2.491-1.953-1.232-3.988-2.19-6.523-2.36zm21.662-15.656c.06.082.106.18.18.246.982.873 1.955 1.756 2.959 2.605.597.505 1.237.957 1.867 1.42.343.254.713.47 1.053.728.793.6 1.538 1.254 2.475 1.653.785.334 1.542.742 2.28 1.174 1.755 1.027 3.453 2.154 5.242 3.115a102.099 102.099 0 0 0 6.322 3.099c1.092.493 2.296.733 3.42 1.163 2.068.794 4.117 1.642 6.172 2.473.296.12.58.268.869.404.832.389 1.689.736 2.491 1.179 1.028.567 2.01 1.214 3.018 1.817.089.053.219.04.493.084-.264-.351-.395-.56-.56-.74-.194-.207-.414-.391-.626-.58-.292-.261-.615-.495-.879-.78-1.815-1.958-3.834-3.654-6.173-4.957a2.912 2.912 0 0 1-.356-.24c-1.289-.992-2.553-2.02-3.874-2.97-.773-.557-1.657-.96-2.455-1.487a27.265 27.265 0 0 0-5.299-2.7c-2.004-.766-4.109-1.305-6.281-1.48-.919-.073-1.834-.24-2.74-.42a5.137 5.137 0 0 1-1.308-.472c-1.016-.515-1.981-1.14-3.021-1.595a42.123 42.123 0 0 1-5.269-2.74zm5.169 100.803c.924-.045 1.507-.34 2.076-.732 1.476-1.016 3.201-1.323 4.911-1.654.451-.087.934-.055 1.362-.197 1.857-.618 3.687-1.322 5.553-1.913 1.248-.395 2.525-.738 3.816-.946 1.004-.162 2.049-.127 3.074-.095 1.454.045 2.905.188 4.361.249 1.609.067 3.189.255 4.758.654 1.414.358 2.867.565 4.302.841.069.013.139.034.206.059 1.44.528 2.96.327 4.441.455 1.475.128 2.969.061 4.455.041.714-.009 1.428-.104 2.381-.178-1.343-.527-2.424-.986-3.53-1.376-1.475-.522-2.946-1.085-4.462-1.459-2.006-.494-3.934-1.264-6.006-1.544-1.364-.185-2.682-.689-4.037-.981-2.157-.463-4.322-.89-6.493-1.284-.545-.099-1.155-.132-1.681.01-1.653.448-3.283.983-4.916 1.503-2.182.695-4.261 1.623-6.201 2.844-.902.568-1.866 1.094-2.624 1.825-.965.931-2.16 1.454-3.239 2.174-.674.449-1.414.799-2.115 1.208-.108.063-.168.206-.392.496zm128.779-33.423-.226.058c.184.856.394 1.707.544 2.568.206 1.18.41 2.363.53 3.554.1.988-.049 2.014.139 2.979.264 1.357.736 2.674 1.124 4.006.168.575.268 1.187.54 1.709.644 1.241.922 2.587 1.274 3.915.788 2.965.588 6.023.793 9.04.101 1.481-.055 2.985-.169 4.474-.111 1.456-.326 2.899-.891 4.272a18.403 18.403 0 0 0-1.407 6.492c-.029.987-.168 1.969-.24 2.954a479.613 479.613 0 0 0-.379 5.607c-.054.92-.064 1.842-.09 2.763-.006.259 0 .52.001.78.204-.151.316-.302.357-.47.503-2.061 1.6-3.891 2.264-5.892.615-1.855 1.443-3.63 1.949-5.532.688-2.59 1.223-5.202 1.542-7.861.165-1.383.175-2.794.457-4.152.419-2.018.45-4.026.208-6.048-.085-.701-.234-1.425-.514-2.068-1.113-2.554-1.508-5.278-1.972-7.985-.409-2.385-.904-4.747-1.624-7.056a12.371 12.371 0 0 0-.753-1.867c-.529-1.048-1.106-2.072-1.676-3.098-.585-1.052-1.187-2.095-1.781-3.142zm-35.217 9.08.116-.152c-1.029-1.606-1.998-3.255-3.103-4.808-1.656-2.331-3.907-4.042-6.232-5.655-1.111-.77-2.233-1.527-3.344-2.3-1.781-1.24-3.548-2.501-5.589-3.308-1.822-.722-3.622-1.474-5.243-2.63-.559-.398-1.122-1.01-1.944-.937.079 2.23.14 4.42.248 6.608.021.436.012.93.482 1.245.619.415 1.181.919 1.814 1.31 1.054.653 2.151 1.237 3.22 1.867 2.493 1.466 5.004 2.874 7.761 3.82 1.854.636 3.613 1.552 5.473 2.163 1.658.544 3.246 1.227 4.83 1.936.524.235 1.009.558 1.511.841zM65.516 49.556c-1.146-.686-2.092-1.31-3.088-1.838-2.904-1.54-5.83-3.037-8.929-4.157-.935-.338-1.921-.546-2.84-.92-1.753-.708-3.5-1.443-5.205-2.262-1.99-.956-3.956-1.962-5.831-3.142a104.057 104.057 0 0 0-5.267-3.076c-2.037-1.124-3.862-2.534-5.645-4.008-.416-.344-.827-.695-1.241-1.042a20.85 20.85 0 0 1-.143.163l.337.37c.405.446.888.843 1.198 1.347 1.392 2.267 2.441 4.749 4.318 6.71.858.898 1.604 1.908 2.499 2.764.762.728 1.659 1.316 2.508 1.952.758.568 1.513 1.145 2.302 1.667.801.53 1.606 1.087 2.478 1.479 1.929.868 3.882 1.689 5.859 2.438 2.1.797 4.297 1.166 6.546 1.16.99-.004 1.993.027 2.962-.127 2.365-.374 4.645.124 7.182.522zm-32.298 78.429c.488-.021.976-.049 1.464-.062 1.878-.05 3.759-.057 5.635-.153 2.17-.11 4.337-.272 6.501-.46 1.582-.137 3.118-.025 4.634.47 3.558 1.163 7.083 2.451 10.881 2.662 2.298.127 4.52-.236 6.726-.807 1.375-.357 2.736-.859 4.136-1.014 2.011-.223 3.915-.77 5.792-1.455.996-.363 1.96-.816 2.937-1.228-.526-.297-1.039-.464-1.556-.484-2.805-.101-5.612-.249-8.417-.219-2.437.026-4.84-.091-7.222-.616-.799-.176-1.651-.189-2.405-.47-1.597-.594-3.257-.788-4.922-.962-1.418-.147-2.852-.143-4.269-.299-2.681-.297-5.266.108-7.79.968-1.177.402-2.293.999-3.485 1.333a62.14 62.14 0 0 1-5.817 1.352c-1.1.198-2.001.67-2.823 1.444zm129.733 19.69c.939-.551 1.536-1.152 2.029-1.843 1.079-1.511 2.124-3.046 3.183-4.57.489-.703 1.121-1.346 1.437-2.119a26.886 26.886 0 0 0 1.331-4.184c.586-2.573 1.051-5.174 1.56-7.765.536-2.733 1.067-5.467 1.593-8.201.288-1.499.126-3.009-.199-4.456-.287-1.275-.907-2.477-1.384-3.71-1.129-2.928-3.111-5.27-5.269-7.458-1.334-1.353-2.548-2.78-3.563-4.38-.4-.631-.798-1.267-1.167-1.918a271.127 271.127 0 0 1-2.695-4.828c-.413-.767-.898-1.42-1.366-1.673l1.104 2.046c.574 1.067 1.138 2.14 1.724 3.2.914 1.654 1.871 3.283 2.752 4.951.393.747.747 1.542.943 2.357.476 1.973.913 3.959 1.245 5.959.404 2.43.761 4.872 1.753 7.14.795 1.819.874 3.73.986 5.643.046.811-.073 1.637-.17 2.45-.123 1.025-.384 2.038-.439 3.065-.148 2.754-.812 5.418-1.294 8.114-.447 2.506-1.459 4.837-2.286 7.224-.553 1.594-1.154 3.172-1.808 4.956zM81.747 55.468c.018.37-.02.519.036.612 1.196 2.005 2.164 4.139 3.479 6.079.437.643.748 1.379 1.053 2.1a212.249 212.249 0 0 1 2.122 5.214 129.406 129.406 0 0 1 1.61 4.389c.188.536.23 1.123.419 1.657.405 1.139.891 2.25 1.295 3.389.632 1.779 1.423 3.513 1.562 5.439.051.718.187 1.43.296 2.144.081.522.203 1.039.268 1.563.229 1.853.381 3.718.675 5.56.318 1.992.198 3.973.069 5.959-.06.923-.383 1.874-.239 2.756.361 2.217.809 4.431 1.646 6.536.122.307.299.592.454.894.373-.951.751-1.825 1.06-2.722.499-1.449.958-2.912 1.422-4.373.118-.373.245-.756.27-1.142a50.03 50.03 0 0 0 .107-2.976c.006-.743-.013-1.49-.079-2.231-.23-2.57-.71-5.112-.749-7.701-.008-.554-.191-1.12-.125-1.66.282-2.302-.332-4.446-1.069-6.573-.781-2.257-1.638-4.49-2.35-6.766-.299-.954-.491-1.938-1.082-2.76a97.034 97.034 0 0 0-2.69-3.567c-.411-.52-.965-.925-1.377-1.445-1.41-1.784-3.068-3.35-4.354-5.252-.993-1.47-2.171-2.813-3.04-4.375-.125-.224-.354-.39-.689-.748zm40.99 1.956s.063-.015.062-.02c-.176-1.081-.306-2.173-.547-3.24-.408-1.807-.779-3.634-1.359-5.388-.926-2.8-2.04-5.537-3.016-8.322a85.586 85.586 0 0 1-1.617-5.205c-.355-1.265-.591-2.563-.89-3.844-.55-2.357-1.095-4.716-1.669-7.068-.354-1.45-.645-2.897-.803-4.393-.171-1.612-.614-3.204-1.043-4.775a9.008 9.008 0 0 0-1.104-2.518c-.832-1.298-1.675-2.621-1.967-4.19-.029-.158-.191-.292-.291-.437.043.867.29 1.644.47 2.435.419 1.833.842 3.68.486 5.57-.387 2.052-.798 4.104-1.625 6.04-.038.09-.018.203-.023.305-.098 2.094-.213 4.187-.278 6.283-.016.485.076.999.23 1.462.371 1.113.92 2.126 1.572 3.123 1.677 2.566 2.599 5.469 3.32 8.425.495 2.033 1.176 3.968 2.433 5.663.381.513.778 1.014 1.171 1.517 1.052 1.34 2.093 2.69 3.168 4.01.255.315.711.477.931.805.827 1.229 1.594 2.499 2.389 3.762zm29.443 19.114.158.115c.167-.22.35-.43.499-.661.634-.976 1.253-1.962 1.885-2.94.562-.866 1.205-1.687 1.686-2.595 1.1-2.082 2.44-4.007 3.91-5.821 1.654-2.04 3.477-3.943 5.247-5.888 1.339-1.471 2.713-2.91 4.061-4.371 1.278-1.384 2.528-2.793 3.819-4.163a32.737 32.737 0 0 1 2.22-2.157c.858-.753 1.783-1.428 2.659-2.16 1.313-1.098 2.89-1.725 4.455-2.284 1.094-.391 2.248-.625 3.351-1.055 1.494-.584 2.778-1.433 3.967-2.475.645-.565 1.329-1.086 1.987-1.635.132-.11.229-.26.463-.53-.561.2-.919.359-1.292.457-.784.207-1.576.383-2.364.57-1.794.429-3.566 1.052-5.385 1.24-2.692.278-5.166 1.166-7.501 2.377a20.263 20.263 0 0 0-6.593 5.448c-1.075 1.357-2.412 2.507-3.635 3.746-.125.126-.282.22-.421.332-1.3 1.04-2.615 2.063-3.892 3.132-.513.429-.942.959-1.406 1.445-.566.592-1.141 1.177-1.69 1.785-.492.545-1.044 1.063-1.412 1.687-.862 1.464-1.635 2.98-2.431 4.483-.668 1.262-1.06 2.617-1.258 4.026-.372 2.629-.726 5.26-1.087 7.892zM109.454 7.955l-.211.085c.021.204.011.417.069.61.42 1.424 1.233 2.63 2.085 3.82.245.344.517.714.609 1.11.432 1.865.842 3.735 1.191 5.616.406 2.192.763 4.388 1.436 6.526.479 1.519.845 3.077 1.192 4.633.375 1.688.605 3.41 1.023 5.087.234.939.763 1.802 1.086 2.724.752 2.145 1.461 4.307 2.187 6.46.225.669.391 1.365.691 1.996.721 1.519 1.232 3.114 1.613 4.734.462 1.968.739 3.977 1.136 5.96.142.717.394 1.41.671 2.369.245-.546.411-.852.522-1.176.277-.81.359-1.745.828-2.412.757-1.076.876-2.274 1.17-3.467.233-.942.024-1.836.014-2.753-.019-1.711-.084-3.405-.476-5.09-.562-2.424-1.176-4.824-2.188-7.11-.359-.813-.715-1.653-.885-2.517a46.696 46.696 0 0 1-.804-6.444c-.086-1.568-.42-3.096-1.464-4.388-.896-1.107-1.71-2.28-2.551-3.43-.539-.737-1.041-1.502-1.599-2.224-.476-.618-1-1.2-1.517-1.786-1.197-1.353-2.386-2.704-3.332-4.261-.647-1.065-1.421-2.047-1.837-3.246-.171-.492-.436-.951-.659-1.426zm42.384 71.03c.582-.15.932-.201 1.251-.328 1.191-.473 2.487-.635 3.603-1.346.804-.511 1.682-.94 2.579-1.266 1.046-.381 2.056-.773 2.914-1.514.674-.584 1.449-1.054 2.091-1.668 1.415-1.353 2.863-2.688 4.132-4.173 1.589-1.861 2.522-4.122 3.493-6.36.647-1.49 1.42-2.966 2.379-4.27 1.092-1.485 2.408-2.818 3.71-4.135 2.28-2.306 4.662-4.512 6.924-6.835 1.165-1.197 2.151-2.568 3.246-3.835.462-.534 1.003-1 1.499-1.505.14-.143.246-.32.367-.481-.32.059-.539.18-.734.334-1.481 1.167-3.171 1.894-4.98 2.367-.689.179-1.395.306-2.066.534-2.202.748-4.011 2.166-5.689 3.688-1.679 1.523-3.15 3.274-4.716 4.92-.902.95-1.812 1.89-2.716 2.84-.856.898-1.7 1.808-2.563 2.7-.915.947-1.862 1.863-2.766 2.82-.554.587-1.059 1.222-1.573 1.846-.405.492-.794.999-1.184 1.504-.665.863-1.408 1.68-1.963 2.61-.653 1.088-1.391 2.117-1.977 3.262-.919 1.797-2.129 3.447-3.222 5.156-.628.979-1.268 1.95-2.039 3.135zM92.246 40.04l.263-.112-.403-1.397c-.735-2.568-1.833-4.94-3.606-6.98-1.353-1.557-2.645-3.17-3.961-4.76-1.296-1.568-2.601-3.136-4.21-4.393-1.314-1.026-2.697-1.965-4.064-2.922-1.891-1.323-3.799-2.621-5.691-3.942-.847-.592-1.721-1.16-2.495-1.84-1.092-.96-2.104-2.013-3.154-3.023a.865.865 0 0 0-.274-.164c-1.921-.761-3.566-2.058-5.54-2.743-1.836-.637-3.577-1.55-5.398-2.237-1.26-.475-2.582-.787-3.883-1.151-1.153-.323-2.345-.47-3.462-.967-.701-.312-1.524-.338-2.252-.603-2.084-.757-4.184-1.372-6.624-1.166.358.106.546.17.738.217.616.152 1.29.185 1.839.466 1.324.677 2.593 1.46 3.876 2.218.27.159.479.424.753.575 1.435.79 2.896 1.534 4.319 2.344 1.17.666 2.269 1.459 3.453 2.096 2.003 1.078 4.086 2.012 6.066 3.128 2.102 1.186 3.933 2.767 5.774 4.319 2.425 2.045 4.61 4.352 7.151 6.28 1.85 1.403 3.755 2.715 5.742 3.884 2.241 1.318 4.088 3.08 6.013 4.767 1.152 1.009 2.249 2.079 3.396 3.094.819.725 1.699 1.384 2.515 2.113 1.059.945 2.081 1.93 3.119 2.899zm-.666.673.091-.154c-.971-.884-1.947-1.764-2.914-2.653-.233-.215-.412-.497-.664-.683-2.552-1.892-4.766-4.168-7.158-6.24-1.234-1.068-2.584-2.011-3.929-2.943-1.301-.901-2.712-1.646-3.984-2.582-1.747-1.284-3.412-2.68-5.106-4.036-.36-.29-.693-.615-1.032-.931-1.222-1.14-2.394-2.34-3.674-3.41-1.258-1.05-2.642-1.946-3.936-2.955-1.498-1.168-3.268-1.85-4.889-2.796-1.107-.647-2.273-1.19-3.397-1.808-.966-.531-1.91-1.103-2.863-1.657-.739-.431-1.48-.856-2.216-1.293-.366-.218-.712-.47-1.081-.683-1.322-.77-2.66-1.515-3.973-2.3-1.277-.762-2.696-.966-4.124-1.181.29.233.613.375.933.52 2.361 1.068 4.502 2.428 6.013 4.6.321.463.526 1.007.853 1.465.392.552.931 1.009 1.276 1.586.953 1.593 2.375 2.752 3.675 4.008 1.265 1.224 2.698 2.275 4.062 3.396.66.54 1.317 1.088 1.999 1.599 1.653 1.238 3.324 2.452 4.981 3.684.542.402 1.059.838 1.597 1.247.959.727 1.998 1.367 2.872 2.184 1.439 1.345 2.956 2.553 4.631 3.595 2.284 1.42 4.36 3.164 6.775 4.385 1.296.655 2.583 1.33 3.886 1.969.346.17.749.222 1.111.363 1.594.625 3.176 1.278 4.775 1.887.667.254 1.372.404 2.049.634 1.125.38 2.241.787 3.361 1.183zm-37.754 19.47-.223.099c0 .099-.035.214.003.294.835 1.73 1.068 3.618 1.385 5.476.185 1.086.126 2.214.312 3.3.409 2.398 1.148 4.709 2.056 6.966.451 1.119.838 2.267 1.332 3.367.606 1.35 1.216 2.71 1.967 3.984 1.103 1.873 1.747 3.932 2.59 5.909.931 2.179 1.462 4.552 3.284 6.28.791.75 1.401 1.698 2.212 2.422.897.8 1.841 1.538 2.721 2.371 1.414 1.34 3.025 2.471 4.538 3.708 1.378 1.125 2.729 2.283 4.106 3.408 1.259 1.028 2.133 2.381 3.114 3.642a9.147 9.147 0 0 0 2.463 2.239c-.157-.547-.239-.885-.351-1.213-.351-1.04-.749-2.066-1.066-3.117-.667-2.213-.93-4.521-1.81-6.697-.982-2.431-2.136-4.708-3.812-6.747-1.643-2-3.128-4.127-4.713-6.175-.868-1.122-1.815-2.184-2.695-3.297-.305-.386-.532-.836-.773-1.27-.172-.308-.266-.667-.469-.952-.942-1.335-1.795-2.742-2.971-3.897-.864-.848-1.741-1.681-2.61-2.522-1.177-1.14-2.343-2.286-3.187-3.714-.635-1.072-1.286-2.135-1.935-3.2-1.78-2.92-3.626-5.804-4.661-9.11-.171-.55-.533-1.037-.807-1.554zm32.328 29.54c-.9-.754-1.642-1.345-2.347-1.978-.495-.444-.916-.971-1.412-1.414-.967-.863-1.794-1.853-2.366-2.997-1.418-2.835-2.769-5.704-4.12-8.572-.895-1.904-1.675-3.87-3.283-5.337-.229-.21-.346-.54-.532-.801-.832-1.173-1.222-2.665-2.524-3.498-.06-.038-.13-.092-.148-.152-.055-.194-.177-.437-.105-.58.066-.133.344-.227.527-.223.278.006.565.084.831.178 1.506.528 2.872 1.344 3.978 2.46 2.339 2.359 4.966 4.358 7.58 6.379.794.615 1.659 1.137 2.491 1.702-.009-.57-.202-.995-.276-1.44-.326-1.965-1.06-3.806-1.658-5.69a14.595 14.595 0 0 1-.497-2.18c-.085-.558-.014-1.14-.079-1.704-.096-.845-.329-1.682-.355-2.527-.031-.991-.431-1.862-.701-2.774-.156-.525-.434-1.014-.582-1.35-.817.097-1.477.124-2.114.26-1.063.23-2.191.373-3.141.85-.745.376-1.486.48-2.231.527-1.694.103-3.396.063-5.095.102-2.27.052-4.542.193-6.812.17-2.2-.022-4.333.26-6.437.89.17.464.308.905.49 1.326.617 1.435 1.159 2.912 1.899 4.28.983 1.815 2.201 3.502 3.179 5.319a22.4 22.4 0 0 0 4.946 6.242c2.032 1.798 3.893 3.749 5.224 6.15.415.75.835 1.507 1.343 2.193 1.009 1.363 2.081 2.682 3.129 4.016.528.67 1.198 1.272 1.555 2.022.321.675.818 1.138 1.264 1.679.921 1.12 1.863 2.225 2.733 3.384.485.646.844 1.388 1.259 2.088.089.149.194.294.253.456.583 1.585 1.168 3.17 1.729 4.762a23 23 0 0 1 .535 1.813c.353 1.342.662 2.696 1.042 4.029.37 1.296.795 2.577 1.223 3.855.089.263.264.514.452.723.887.985 1.793 1.952 2.692 2.927.241.263.457.554.72.791 1.509 1.355 3 2.732 4.553 4.034 1.91 1.602 3.698 3.366 5.924 4.562.86.463 1.697.968 2.544 1.454l.14-.178c-.629-.978-1.249-1.962-1.888-2.934-1.272-1.934-2.149-4.048-2.571-6.306-.289-1.542-.913-2.916-1.596-4.285-.244-.491-.596-.929-.899-1.39-.711.206-.682-.389-.857-.78-.114-.256-.231-.527-.413-.735-1.119-1.285-2.192-2.621-3.406-3.813-1.294-1.27-2.349-2.686-3.018-4.349-.729-1.814-1.336-3.678-1.977-5.528-.231-.666-.498-1.34-.593-2.03-.283-2.074-.577-4.156-.202-6.077zm-2.517-33.302-.084.197c.56.72 1.187 1.398 1.662 2.169a23.292 23.292 0 0 0 2.961 3.862c1.915 2.012 3.876 3.982 5.526 6.23.888 1.21 1.618 2.484 1.981 3.954.162.656.35 1.308.578 1.944.903 2.507 1.827 5.007 2.745 7.514 1.137.682 2.321 1.407 3.523 2.104.615.357 1.225.788 1.895.967 2.099.559 3.968 1.574 5.767 2.73 1.672 1.076 3.272 2.26 4.937 3.346 1.918 1.252 3.742 2.617 5.385 4.214 1.085 1.054 1.988 2.24 2.842 3.502 1.757 2.596 3.151 5.514 5.937 7.279.03.018.045.056.072.08 1.841 1.691 3.849 3.174 5.971 4.479 1.822 1.119 3.575 2.307 5.145 3.759.431.4.845.819 1.352 1.312.053-.268.109-.401.099-.53-.065-.85-.067-1.714-.236-2.544a24.412 24.412 0 0 0-2.182-6.199c-.889-1.752-1.91-3.436-2.832-5.171-.315-.594-.401-1.326-.775-1.87-1.066-1.547-1.627-3.324-2.433-4.99-.79-1.635-1.533-3.306-2.478-4.851-.829-1.358-1.923-2.551-2.873-3.837-1.077-1.46-2.233-2.863-2.951-4.566-.368-.873-.872-1.695-1.361-2.512-.843-1.407-1.723-2.791-2.585-4.186-.406-.655-.758-1.352-1.223-1.96-.91-1.19-1.927-2.298-2.82-3.501-1.869-2.521-3.683-5.083-5.529-7.621a1.618 1.618 0 0 0-.546-.493c-1.239-.626-2.455-1.311-3.742-1.817-2.525-.993-5.111-1.82-7.831-2.086-2.623-.255-5.25-.47-7.878-.66-1.275-.092-2.586.065-3.829-.17-1.423-.27-2.796.11-4.19-.078zm66.671 103.872c-.128-.708-.24-1.267-.327-1.831-.125-.812-.268-1.624-.341-2.442-.18-1.996-.386-3.979-.976-5.913a26.459 26.459 0 0 1-.821-3.549c-.591-3.737-1.113-7.485-1.683-11.226-.418-2.753-.838-5.508-1.316-8.252-.244-1.399-.373-2.834-1.028-4.141-.541-1.08-1.032-2.179-1.185-3.404-.036-.296-.251-.593-.444-.843-1.404-1.804-2.833-3.577-4.75-4.896-.965-.664-1.837-1.462-2.761-2.188a3.652 3.652 0 0 0-.725-.446c-2.574-1.171-4.754-3.033-7.371-4.141-1.393-.59-2.671-1.462-4.079-2.008-1.453-.565-2.983-.955-4.563-1.057a12.143 12.143 0 0 1-1.28-.131c-1.437-.249-2.862-.592-4.307-.765-2.399-.288-4.621-1.098-6.8-2.074-.686-.307-1.357-.602-2.146-.557-.924.053-1.741-.34-2.536-.765-.177-.095-.363-.176-.701-.34-.028.466-.043.803-.071 1.139-.043.496-.018 1.016-.159 1.483-.678 2.219-1.447 4.41-2.094 6.638-.425 1.467-.799 2.976-.083 4.483.136.287.271.574.409.86.481.991 1.034 1.955 1.427 2.98.6 1.563 1.054 3.181 1.635 4.751.345.934.784 1.839 1.24 2.726.672 1.306 1.526 2.488 2.496 3.598.501.573 1.015 1.067 1.699 1.413.695.352 1.373.751 2.013 1.196 1.131.786 2.163 1.735 3.354 2.407 1.298.731 2.729 1.228 4.103 1.822.615.266 1.247.497 1.852.784.578.275 1.122.621 1.698.902.785.384 1.711.591 2.344 1.141.607.529 1.64.447 1.913 1.388.752-.072 1.051.645 1.601.935a29.685 29.685 0 0 1 2.715 1.648c1.319.885 2.316 2.205 3.826 2.842.183.077.305.294.455.445.326.326.633.671.979.973 1.257 1.097 2.525 2.181 3.792 3.267.513.44.999.922 1.556 1.296 1.242.833 2.563 1.552 3.772 2.427 1.234.893 2.452 1.837 3.534 2.903 1.41 1.388 2.681 2.918 4.134 4.522zM51.44 58.201l.078-.628c-.315.218-.589.454-.049.615.056.665.093 1.332.17 1.995.144 1.228.473 2.442.128 3.694-.215.782-.41 1.577-.528 2.378-.338 2.292-.563 4.595-.37 6.916.053.636.084 1.278.2 1.903.175.947.41 1.884.632 2.822.548 2.322 1.159 4.626 2.148 6.807.247.545.729 1 .904 1.559.538 1.71 1.646 3.087 2.594 4.545.777 1.194 1.582 2.355 2.137 3.678.314.749.715 1.462 1.091 2.184 1.052 2.019 2.122 4.03 3.166 6.054.585 1.133.956 2.402 1.956 3.269.529.458 1.162.796 1.736 1.205 2.276 1.622 4.922 2.386 7.518 3.278 2.025.695 4.046 1.414 6.02 2.239 1.564.655 3.054 1.487 4.737 2.32-.236-.293-.357-.463-.498-.614-.849-.91-1.788-1.751-2.539-2.736-1.879-2.465-4.2-4.455-6.595-6.374-1.168-.936-2.392-1.802-3.57-2.727-1.288-1.012-2.299-2.335-3.676-3.262-.517-.348-.886-.917-1.325-1.384-.341-.364-.719-.698-1.019-1.092-.796-1.047-1.699-2.047-2.301-3.2-.722-1.383-1.193-2.9-1.744-4.37-.738-1.97-1.383-3.976-2.59-5.738a8.809 8.809 0 0 1-.899-1.708c-1.269-3.174-2.792-6.247-3.723-9.556-.486-1.728-.835-3.48-.893-5.258-.051-1.556-.385-3.056-.771-4.525-.359-1.357-1.055-2.626-1.632-3.921-.072-.163-.324-.247-.493-.368zm30.23-.904c.009-.472-.25-.77-.515-1.062l-.181.112.622.975c.063.237.118.477.19.71.262.85.634 1.68.771 2.549.255 1.61.35 3.244.557 4.862.094.737.256 1.472.46 2.187.603 2.126 1.241 4.242 1.868 6.362.091.306.154.63.306.905.917 1.658 1.072 3.523 1.453 5.323.117.549.035 1.138.101 1.702.145 1.217-.02 2.519.919 3.532.028.032-.018.13-.028.2l-.726-.045-.185 3.485.647.662-1.092.462c-.241 2.277.085 4.566.703 6.806.426 1.544.97 3.06 1.546 4.556.396 1.026.914 2.009 1.426 2.985.227.432.548.824.87 1.197.885 1.026 1.792 2.033 2.691 3.047.802 0 .989.645 1.285 1.196.14.261.36.479.545.716-.103-.653-.374-1.215-.572-1.802a51.98 51.98 0 0 1-1.376-4.934c-.286-1.257-.357-2.419-.155-3.682.396-2.47.47-4.96.106-7.451-.382-2.607-.783-5.213-1.116-7.828-.272-2.138-.771-4.193-1.648-6.175-.59-1.333-1.155-2.718-1.424-4.138-.258-1.36-.887-2.544-1.327-3.81-.631-1.814-1.465-3.558-2.201-5.337-.654-1.582-1.409-3.103-2.336-4.55-.663-1.036-1.416-2.036-1.769-3.251-.052-.181-.272-.312-.415-.466zM153.316 165.6l-.615.464.397 1.576c.523-.745.254-1.396.194-2.032-.093-.801-.137-1.613-.293-2.402-.206-1.046-.564-2.065-.737-3.115-.208-1.262-.277-2.546-.43-3.818-.236-1.977-.477-3.953-1.27-5.813-.18-.421-.267-.886-.361-1.338-.392-1.887-.803-3.77-1.144-5.666-.271-1.502-.528-3.013-.646-4.532-.135-1.751-.361-3.459-1.076-5.081-.156-.353-.19-.758-.302-1.133-.171-.573-.244-1.193-.745-1.651-.053.392-.014.763.052 1.129.371 2.018.806 4.027 1.11 6.056.329 2.209.524 4.438.806 6.654.117.919.269 1.838.472 2.742.36 1.6.892 3.169 1.135 4.785.357 2.388.506 4.803 1.022 7.176.467 2.154.91 4.287 2.431 5.999zm-20.294-73.797c.042.239.035.5.133.714a769.736 769.736 0 0 0 2.728 5.914c.418.897.832 1.795 1.279 2.678a180.96 180.96 0 0 0 2.115 4.051c.092.172.326.268.593.476-.034-.263-.022-.377-.063-.466a463.195 463.195 0 0 0-1.757-3.78c-.575-1.223-1.143-2.45-1.748-3.66a200.838 200.838 0 0 0-2.452-4.748c-.225-.421-.567-.78-.856-1.165-.039-.225-.03-.473-.126-.671-1.046-2.161-2.539-4.024-3.978-5.923-.3-.395-.534-.841-.793-1.267-.331-.545-.624-1.117-.991-1.636-.718-1.013-1.628-1.882-2.084-3.091-.162-.43-.645-.737-.981-1.101-.035-.193-.02-.416-.114-.574-.723-1.224-1.47-2.433-2.202-3.651-.294-.488-.552-.998-.857-1.48-.667-1.051-1.417-2.055-2.018-3.142-1.183-2.14-2.615-4.073-4.374-5.765-.233-.224-.527-.386-.793-.577l-.373.249c.138.117.305.212.408.353a96.664 96.664 0 0 1 1.677 2.34c.438.637.736 1.368 1.439 1.814.246.155.36.52.535.787.156.235.269.523.478.693 1.073.87 1.68 2.103 2.442 3.197 1.138 1.632 2.098 3.386 3.152 5.076.159.255.416.447.627.669.021.166-.006.36.072.494.963 1.654 1.908 3.32 2.929 4.938.701 1.112 1.507 2.158 2.277 3.227.831 1.153 1.658 2.309 2.52 3.438.398.52.526 1.239 1.156 1.589zm6.655 10.921c.151-.713.315-1.216.354-1.729.076-.989.4-1.874.933-2.698.481-.74.895-1.513 1.426-2.234.985-1.336 1.615-2.897 2.281-4.42 1.261-2.882 2.492-5.777 3.788-8.643 1.202-2.661 2.222-5.386 2.917-8.218.243-.991.24-2.05.295-3.08.1-1.853.68-3.61 1.134-5.38.305-1.19.98-2.293 1.556-3.401a48.249 48.249 0 0 1 1.901-3.332 13.19 13.19 0 0 1 1.412-1.844c2.309-2.548 4.962-4.714 7.576-6.937 1.152-.978 2.52-1.88 3.133-3.406 1.083-.548 1.597-1.692 2.513-2.407 1.261-.984 2.511-2.001 3.865-2.843 1.012-.63 2.171-1.03 3.284-1.483.851-.346 1.715-.69 2.606-.897.923-.215 1.883-.27 2.828-.384.175-.021.368.045.532-.002 1.672-.482 3.337-.984 5.008-1.47.477-.138.975-.21 1.448-.362a42.228 42.228 0 0 0 2.594-.92c.638-.254 1.268-.45 1.956-.38.286.515.18.878-.199 1.274a168.63 168.63 0 0 0-4.155 4.468c-1.552 1.746-3.025 3.56-4.587 5.298-.852.947-1.879 1.737-2.718 2.694-1.619 1.845-3.647 3.274-5.17 5.22-.92 1.174-2.029 2.198-2.995 3.339a9.52 9.52 0 0 0-1.291 1.952c-.603 1.235-1.16 2.5-1.745 3.739-1.176 2.48-2.414 4.98-4.674 6.736a5.298 5.298 0 0 0-.616.592c-1.356 1.459-2.88 2.73-4.502 3.868-.777.545-1.707.87-2.569 1.294-.862.424-1.726.845-2.589 1.267-.53.26-1.048.546-1.591.775-.821.346-1.641.705-2.491.964-1.895.576-2.924 1.944-3.544 3.717-.385 1.102-.713 2.227-1.162 3.303-.452 1.084-1.006 2.128-1.542 3.176-.711 1.387-1.47 2.749-2.168 4.143-.742 1.484-1.488 2.952-2.424 4.338-.719 1.065-.82 2.398-.959 3.683-.188 1.734-.225 3.459.126 5.17.171.832.451 1.643.672 2.466.117.434.266.827.159 1.337-.09.431.212.941.321 1.421.195.864.381 1.731.558 2.598.235 1.14.462 2.282.684 3.425.182.938.331 1.882.53 2.815.178.83.38 1.656.617 2.47.635 2.182 1.374 4.338 1.915 6.542.326 1.33.764 2.613 1.209 3.897.577 1.666.809 3.379.956 5.127.132 1.591.387 3.171.773 4.732.365 1.481.591 2.996.899 4.492.1.479.236.956.41 1.414.697 1.84 1.025 3.759 1.272 5.7.26 2.046.439 4.103 1.008 6.103.264.93.368 1.905.589 3.099.403-.952.704-1.755.917-2.579.285-1.106.445-2.247.771-3.34.19-.637.558-1.234.915-1.805.639-1.024 1.175-2.1 1.868-3.104.684-.991 1.619-1.906 1.883-3.167.095-.449.194-.905.206-1.361.079-2.78.055-5.565.22-8.34.146-2.447.424-4.893.778-7.319.173-1.183.675-2.314.985-3.481.265-.998.55-2.002.683-3.022.401-3.048.457-6.104.314-9.183-.108-2.313-.567-4.532-1.123-6.75-.104-.41-.338-.786-.467-1.192-.755-2.377-1.543-4.746-2.213-7.147-.193-.692.029-1.489-.046-2.226-.13-1.272-.331-2.538-.528-3.802-.116-.741-.317-1.47-.419-2.213-.151-1.09-.571-2.057-1.172-2.964-.452-.683-.882-1.382-1.318-2.075-.095-.151-.243-.308-.248-.466-.008-.225.033-.503.167-.665.09-.11.397-.127.57-.07 1.695.555 3.024 1.507 3.803 3.21.89 1.949 2.082 3.734 3.339 5.468.105.145.221.289.292.45.918 2.115 2.547 3.665 4.1 5.297 1.177 1.236 2.361 2.519 3.247 3.962a35.97 35.97 0 0 1 2.347 4.52c1.435 3.318 1.33 6.63.571 10.024-.225 1.01-.45 2.02-.653 3.034a978.23 978.23 0 0 0-1.379 6.982c-.216 1.114-.375 2.24-.617 3.347a33.838 33.838 0 0 1-.778 2.903c-.333 1.056-.801 2.031-1.486 2.942a64.024 64.024 0 0 0-3.536 5.186c-.972 1.597-2.213 2.931-3.523 4.229-.403.401-.78.835-1.12 1.29-.258.346-.708.688-.143 1.158-1.463.665-2.11 1.894-2.689 3.092-.587 1.217-.83 2.6-1.422 3.813-.69 1.415-.723 2.948-1.104 4.413-.197.755-.485 1.495-.603 2.261-.16 1.048-.342 2.128-.244 3.168.082.86.519 1.7.869 2.518a416.857 416.857 0 0 0 2.973 6.746c.522 1.16.813 2.415.785 3.629-.04 1.799.661 3.31 1.313 4.877 1.087 2.615 2.201 5.178 2.659 8.05.45 2.822 1.024 5.662 2.071 8.382.545 1.416.588 3.019.928 4.522.312 1.38.72 2.738 1.084 4.105l.89 3.347c-.477-.103-.797-.103-1.04-.239-.494-.276-.957-.612-1.411-.95-.41-.306-.823-.513-1.317-.205-.538-1.788-1.051-3.489-1.56-5.191-.03-.101.008-.23-.042-.313-1.144-1.919-.903-4.162-1.43-6.227-.323-1.261-.217-2.628-.333-3.944-.234-2.64-.773-5.213-1.54-7.755-.777-2.573-1.766-5.045-2.922-7.467a15.971 15.971 0 0 1-1.203-3.428c-.384-1.733-.754-3.457-1.504-5.076.095-1.494-.947-2.512-1.49-3.746-.44-.999-.886-2.019-1.105-3.159-.358-1.877-.806-3.79-1.799-5.478-.281-.476-.718-.875-1.132-1.258-2.119-1.958-4.516-3.55-6.846-5.236-2.25-1.628-4.478-3.297-6.339-5.396-1.531-1.727-3.555-2.836-5.399-4.169-1.208-.133-1.781-1.224-2.693-1.808-1.645-1.054-3.191-2.264-4.809-3.365-1.942-1.321-3.93-2.574-5.868-3.901-.789-.54-1.468-1.241-2.252-1.792-1.441-1.015-3.083-1.663-4.714-2.281-1.357-.513-2.486-1.387-3.742-2.053-1.317-.7-2.524-1.591-4.011-1.985-1.047-.277-2.058-.513-3.153-.405-.962.095-1.885-.165-2.832-.393-1.753-.422-3.561-.609-5.347-.89-2.036-.321-4.068-.661-6.108-.941-.507-.07-1.049.023-1.562.11-1.712.287-3.255 1.05-4.817 1.757-1.386.627-2.868.889-4.358 1.036-1.779.176-3.476.67-5.185 1.135-3.468.943-6.949 1.078-10.447.171-1.655-.429-3.316-.839-4.962-1.304-.685-.194-1.343-.493-2.001-.772-1.383-.587-2.834-.697-4.303-.586-1.922.145-3.838.388-5.761.508-1.772.111-3.56.247-5.325.134-2.267-.146-4.461.49-6.704.414-.836-.028-1.668-.185-2.502-.282l-.067-.266c.196-.154.371-.359.593-.455 1.539-.662 3.15-1.188 4.618-1.981a31.183 31.183 0 0 0 4.468-2.942c2.059-1.625 4.262-2.998 6.655-4.026 1.531-.659 3.176-1.053 4.77-1.564.677-.216 1.374-.382 2.03-.651 1.138-.467 2.247-.182 3.369.023 1.642.301 3.296.557 4.93.905 1.179.25 2.333.624 3.501.932.617.163 1.237.416 1.859.428.743.015 1.367.318 2.043.513.852.245 1.725.424 2.59.627.173.041.36.032.527.09 1.717.593 3.427 1.207 5.148 1.79 2.061.698 3.993 1.8 6.161 2.144 1.808.287 3.582.887 5.462.699.294-.03.804.187.89.412.18.474.548.453.86.488 1.873.213 3.733.487 5.588.838 1.53.289 3.1.368 4.655.523.868.086 1.74.138 2.657.04-.555-.41-1.129-.796-1.662-1.233-1.988-1.632-4.012-3.227-5.924-4.945-1.06-.952-2.068-1.96-3.266-2.739-.744-.483-1.549-.872-2.309-1.334-.877-.534-1.7-1.166-2.606-1.642-1.542-.812-3.129-1.537-4.699-2.293-.224-.108-.467-.181-.702-.268-2.987-1.096-5.978-2.181-8.958-3.297-.632-.237-1.231-.568-1.827-.89-.785-.424-1.551-.882-2.326-1.322-1.325-.753-1.943-2.047-2.574-3.339a668.431 668.431 0 0 0-3.169-6.41c-.658-1.308-1.3-2.626-2.033-3.893-.761-1.317-1.632-2.572-2.441-3.862-.454-.723-.928-1.441-1.315-2.201-1.049-2.063-2.02-4.162-2.597-6.42-.389-1.518-.692-3.067-1.206-4.543-.775-2.223-.615-4.515-.65-6.782-.019-1.301.25-2.626.527-3.91.344-1.604.81-3.18.583-4.937-1.04-.064-2.158-.163-3.276-.177-.268-.003-.653.213-.791.444-.605 1.018-1.591 1.353-2.633 1.385-2.167.065-4.344.266-6.503-.094-.666-.111-1.337-.26-1.97-.49-1.951-.708-3.879-1.477-5.827-2.192-.529-.194-1.108-.25-1.641-.432a25.128 25.128 0 0 1-2.169-.86c-.965-.434-1.937-.867-2.853-1.393-.54-.311-1.037-.748-1.452-1.22-1.3-1.483-2.81-2.715-4.386-3.886-1.353-1.006-2.925-1.6-4.365-2.434-1.537-.894-2.993-1.926-4.485-2.895-.438-.285-.892-.545-1.317-.85-1.329-.95-2.709-1.843-3.951-2.9-.886-.753-1.894-.931-2.945-1.117-.135-.024-.269-.045-.418-.07-.162-.627.147-.855.659-.801 2.116.224 4.238.083 6.354.16 2.401.088 4.785.499 6.758 1.975 2.556 1.914 5.565 2.765 8.463 3.89.325.128.695.14 1.046.202 1.75.309 3.504.565 5.095 1.47.668.38 1.475.509 2.177.839.673.316 1.29.75 1.936 1.126 1.813 1.057 3.708 1.91 5.733 2.504 1.674.489 3.315 1.094 4.956 1.692 1.745.635 2.833 2.02 3.661 3.57.544 1.02 1.2 1.617 2.378 1.553.49-.027.982-.033 1.516-.05.085-1.523-.714-3.04.188-4.567 1.419.983 2.305 2.298 3.221 3.719 1.032-.215 2.11-.402 3.168-.672.862-.22 1.703-.357 2.612-.35 3.056.025 6.111.066 9.144-.538 2.379-.473 4.737-.977 7.064-1.871-.074-.352-.349-.466-.64-.594-1.406-.623-2.823-1.223-4.202-1.9-1.213-.596-2.349-1.353-3.577-1.913-2.161-.987-4.433-1.598-6.833-1.55-1.423.028-2.843.174-4.265.21a24.438 24.438 0 0 1-7.497-.972c-.299-.087-.571-.266-.866-.375-.872-.32-1.753-.618-2.623-.945-.296-.111-.558-.31-.854-.422-.557-.213-1.126-.393-1.69-.588-.202-.07-.426-.107-.599-.222-2.189-1.454-4.409-2.87-6.535-4.41-.879-.635-1.59-1.52-2.318-2.344-.818-.927-1.621-1.877-2.336-2.885-.718-1.012-1.397-2.07-1.953-3.177-.859-1.713-2.011-3.182-3.378-4.495-.87-.836-1.816-1.593-2.666-2.448-.751-.755-1.416-1.596-2.116-2.402a.394.394 0 0 1-.098-.187c-.134-1.048-.671-1.854-1.601-2.414.417-.487.776-.308 1.143-.187 1.361.449 2.515 1.208 3.415 2.319 1.659 2.047 3.8 3.395 6.175 4.454 1.295.577 2.512 1.326 3.804 1.909a8.791 8.791 0 0 0 2.344.692c.938.133 1.856.365 2.839.338.818-.023 1.655.376 2.468.636 1.187.377 2.335.9 3.543 1.176 1.896.43 3.346 1.71 5.069 2.464.804.352 1.503.95 2.238 1.456 1.61 1.109 3.249 2.18 4.808 3.359 2.263 1.708 4.583 3.332 6.52 5.464 1.304 1.436 2.951 2.556 4.406 3.86 1.556 1.396 3.358 2.398 5.173 3.388 1.517.826 3.143 1.353 4.822 1.717.324.07.675.008 1.248.006l-1.239-1.904c.024-.292.251-.401.578-.39 1.011.037 1.815.574 2.359 1.32.578.792 1.214.905 2.103.81 3.08-.326 6.167-.62 9.269-.261 1.093.126 2.184.277 3.278.396 1.552.169 3.12.235 4.654.5 1.611.279 3.2.702 4.778 1.135 1.086.297 2.137.718 3.271 1.107-.091-.17-.161-.347-.267-.498-2.557-3.624-5.417-6.985-8.718-9.954-.846-.76-1.773-1.435-2.695-2.103-.247-.18-.618-.183-.925-.287-.174-.058-.357-.128-.498-.24-.835-.663-1.633-1.375-2.496-1.997-.545-.392-1.162-.705-1.783-.966-1.814-.762-3.703-1.296-5.584-1.875-2.377-.733-4.764-1.515-6.947-2.787-1.477-.861-3.06-1.548-4.5-2.463-2.732-1.736-5.408-3.564-8.081-5.391-.672-.46-1.243-1.066-1.865-1.6a93.304 93.304 0 0 0-6.48-5.055c-3.139-2.24-6.109-4.681-8.968-7.275-1.839-1.67-3.401-3.551-4.876-5.523-.578-.77-1.04-1.633-1.66-2.365-.543-.642-1.205-1.197-1.869-1.72a15.19 15.19 0 0 0-1.952-1.286c-.484-.273-1.058-.387-1.543-.657-.648-.363-1.254-.805-1.874-1.218-.839-.56-1.714-1.02-2.734-1.166-.695-.101-1.416-.137-2.021-.493-.037-.522.239-.655.601-.606a32.79 32.79 0 0 1 2.311.374c1.252.257 2.473.598 3.792.419.941-.128 1.913-.032 2.87-.025.249.002.507.008.744.075 1.168.33 2.357.608 3.486 1.043 2.174.836 4.459 1.239 6.688 1.855 1.027.283 2.074.516 3.066.892 1.534.584 3.029 1.274 4.543 1.913.363.153.726.35 1.107.406 1.063.158 1.941.7 2.833 1.228.368.219.728.472 1.125.612.726.256 1.307.696 1.87 1.2 2.79 2.496 5.793 4.718 8.86 6.856 1.487 1.037 3.017 2.012 4.521 3.027.765.516 1.599.97 2.25 1.609a84.342 84.342 0 0 1 4.271 4.497c1.535 1.735 3.003 3.53 4.465 5.33 1.548 1.906 2.533 4.11 3.134 6.472.315 1.232.824 2.366 1.407 3.474.438.83 1.088 1.447 1.92 1.937.883.52 1.664 1.217 2.49 1.834 1.496 1.12 2.624 2.626 4.01 3.853 1.968 1.739 3.365 3.953 5.097 5.884 1.422 1.586 2.802 3.21 4.265 4.758.922.976 1.983 1.817 2.937 2.764.504.5.913 1.096 1.362 1.653.423.526.84 1.058 1.261 1.587.284.357.63.656.626 1.2-.002.229.293.456.441.693 1.085 1.74 2.192 3.468 3.24 5.23.736 1.24 1.367 2.544 2.094 3.79.338.579.767 1.11 1.196 1.629.433.523.828 1.023.91 1.752.034.305.412.57.763.766-.402-1.067-.81-2.131-1.201-3.202-.134-.368-.304-.747-.325-1.128-.107-2.011-.858-3.873-1.271-5.811-.221-1.035-.236-2.114-.347-3.174-.054-.53-.117-1.06-.169-1.591-.084-.877-.156-1.755-.246-2.631a4.85 4.85 0 0 0-.152-.84c-.273-.954-.618-1.891-.832-2.857-.331-1.486-1.222-2.656-2.094-3.816-1.731-2.302-3.555-4.534-5.319-6.812-1.078-1.391-1.885-2.942-2.465-4.602-.245-.703-.391-1.441-.621-2.151-.608-1.863-1.174-3.744-1.88-5.57a13.46 13.46 0 0 0-1.581-2.89c-1.076-1.518-1.564-3.19-1.649-5.011-.121-2.57.139-5.09.764-7.595.498-2 .89-4.033 1.194-6.071.133-.895 0-1.852-.14-2.761-.147-.95-.513-1.865-.666-2.815-.213-1.326-.339-2.668-.453-4.007-.025-.29.16-.596.253-.908 1.878 1.304 2.481 3.375 3.49 5.182.606 1.087 1.216 2.183 1.936 3.194 1.047 1.468 2.186 2.87 3.305 4.285.351.443.799.81 1.146 1.255.981 1.262 1.932 2.546 2.897 3.82.408.54.814 1.084 1.234 1.615 1.085 1.373 1.489 2.974 1.635 4.678.11 1.275.277 2.545.415 3.818.246 2.26 1.058 4.348 1.823 6.47 1.065 2.955 1.99 5.985 2.151 9.142.08 1.584.389 3.199-.021 4.787-.326 1.265-.622 2.54-1.038 3.777-.409 1.216-.984 2.375-1.429 3.58-.832 2.252-.578 4.565-.313 6.875.146 1.27.306 2.54.398 3.816.096 1.326.418 2.587.801 3.855.567 1.876 1.002 3.79 1.517 5.68.233.86.516 1.706.792 2.553.077.236.186.47.325.675.9 1.319 1.864 2.597 2.705 3.952 1.327 2.137 2.724 4.235 3.694 6.582.46 1.117 1.134 2.145 1.7 3.22.937 1.784 1.865 3.572 2.902 5.56z" fill="#687E6B"/></g><defs><clipPath id="a"><path fill="#fff" d="M0 0h196v216H0z"/></clipPath></defs></svg>