<svg width="64" height="196" fill="none" xmlns="http://www.w3.org/2000/svg"><g clip-path="url(#a)"><path d="m32.189 137.597-.04.344c.038-.053.102-.104.109-.161.007-.057-.043-.121-.07-.183zm.476-60.888-.071-.176c-.038.041-.1.079-.106.125-.008.046.038.103.059.155l.118-.104zm.319 3.522.036.408c.044-.055.108-.104.126-.166a.35.35 0 0 0-.02-.213c-.01-.024-.092-.02-.142-.029zm.599 2.214v-.22c-.047.005-.135.004-.136.015-.01.071 0 .145.004.217l.132-.012zm-.98-4.4c-.04.141-.093.28-.116.422-.011.066.035.14.056.21.065-.076.185-.153.183-.228-.002-.135-.077-.269-.123-.404zm-1.436 97.136c-.353 2.051-.353 2.051.213 3.373.035-1.121.434-2.062-.213-3.373zm-.018-110.804.118-.004c.028-.445.078-.891.076-1.337-.002-.349-.068-.699-.106-1.047a9.09 9.09 0 0 0-.231.028l.143 2.36zm-1.26 85.268c.335-1.532.918-3.038.453-4.652-.502 1.514-.984 3.031-.453 4.652zm1.073 20.012-.381.251c.437 1.058-.415 2.325.672 3.505.43-1.207.08-2.215.05-3.212-.006-.185-.221-.364-.341-.544zM35.3 92.338c-.084 1.863-.085 3.707.534 5.488.1-1.855.31-3.719-.534-5.488zm-4.023 102.104c.64-3.135.54-6.866-.2-9.471-.434 2.655-.846 5.172-1.28 7.811.405.452.834.934 1.48 1.66zM29.975 31.129c-.316-2.243-.584-4.251-.894-6.253a3.408 3.408 0 0 0-.458-1.269c-.462-.726-.893-1.53-1.952-1.844.06.82.158 1.489.148 2.155-.041 2.781.875 5.145 3.156 7.211zm20.19 112.076c-1.11-.847-2.251-.81-3.36-.645-1.708.257-3.458.409-4.912 1.55-1.153.906-2.555 2.577-3.26 4.069.929.144 1.56-.475 2.213-.935a32.683 32.683 0 0 0 2.835-2.253c.887-.783 1.876-1.241 3.047-1.362 1.108-.115 2.213-.271 3.438-.424zM25.878 70.817c.08-.342-.258-.501-.488-.614a28.224 28.224 0 0 0-6.6-2.28c-.57-.119-1.212-.066-1.788.06-.805.176-1.591.468-2.363.767-.311.121-.563.395-.928.662.368.165.564.286.778.344 1.376.373 2.77.653 4.059 1.33.499.264 1.173.325 1.752.284 1.856-.134 3.703-.36 5.578-.553zm22.377 23.324c3.383-.241 6.19-.962 8.61-2.85 1.273-.993 1.819-1.591 2.36-2.832-.123-.07-.26-.216-.371-.2-1.568.222-3.14.431-4.694.724-.5.093-.972.389-1.43.643-1.832 1.014-3.022 2.654-4.475 4.515zm-9.531 5.812c.014.116.028.232.04.347 1.947 0 3.894.049 5.837-.023.817-.031 1.63-.287 2.434-.493.95-.243 1.879-.579 2.834-.803 1.133-.267 2.088-.792 2.993-1.53 1.36-1.111 2.445-2.467 3.613-3.751.218-.241.319-.586.5-.937-.302 0-.473-.054-.574.008-2.103 1.308-4.43 1.87-6.857 2.179-1.04.131-2.131.34-3.054.803-2.628 1.321-5.182 2.789-7.766 4.2zm7.415 71.252c1.916.412 3.542.726 5.15 1.115 1.475.356 2.852.25 4.15-.582 2.409-1.546 4.823-3.082 7.29-4.658-.17-1.004-.696-1.692-1.42-2.304-1.151-.033-2.262-.008-3.39.295a9.681 9.681 0 0 1-2.91.321c-1.474-.068-2.69.515-3.753 1.36-1.653 1.314-3.194 2.767-5.117 4.453zm-10.532-20.22c2.48.152 4.437.283 6.396.383.372.02.777-.007 1.12-.137a125.737 125.737 0 0 0 4.005-1.612c.56-.233 1.09-.536 1.646-.78 1.353-.595 2.789-.66 4.243-.699 1.593-.043 3.142-.319 4.413-1.337-.105-1.019-.566-1.566-1.406-1.998-1.063-.545-2.123-.736-3.285-.668-1.136.065-2.277.053-3.413.106-.834.038-1.667.105-2.496.197-.852.093-1.587.452-2.264.991-2.197 1.75-4.438 3.436-7.074 4.504-.483.196-.92.507-1.885 1.05zm18.445 13.256c-2.117-.549-4.142-.474-6.134.216-.5.173-1.04.222-1.55.369-2.047.591-4.093 1.176-5.671 2.758-.366.367-.87.602-1.322.879-2.398 1.472-4.657 3.13-6.706 5.061-.17.161-.182.491-.27.752.273.073.422.156.562.145 3.442-.266 6.69-1.329 9.923-2.447.353-.122.674-.35.994-.552 1.864-1.176 3.68-2.414 5.284-3.94 1.428-1.36 2.924-2.619 4.89-3.241zM33.115.663c-1.036 1.406-1.876 2.688-1.804 4.426.075 1.827-.292 3.556-.963 5.318-.74 1.941-.612 4.076.672 5.898 1.267 1.797 2.614 3.536 3.924 5.303.52.702 1.099 1.336 1.963 1.892.666-2.723 1.149-5.281-.017-7.759-.921-1.957-1.281-4.045-1.847-6.089-.168-.605-.162-1.152-.071-1.777.31-2.14.166-4.257-.884-6.21-.196-.365-.595-.622-.973-1.002zM29.06 73.094c-.137-.09-.253-.188-.387-.252-2.422-1.153-4.972-1.308-7.553-.8-1.345.265-2.511-.031-3.74-.509-1.333-.519-2.738-.855-4.118-1.249-.21-.061-.456-.04-.676 0-.863.154-1.581.727-2.543.707-.52-.011-1.08.5-1.572.844a217.614 217.614 0 0 0-4.223 3.055c-.097.071-.1.269-.147.409.721.693.72.694 1.448.846 1.267.266 2.553.515 3.549 1.425.802.732 1.74.851 2.755.802 2.22-.105 4.364-.535 6.386-1.489a39.977 39.977 0 0 1 8.136-2.831c.914-.21 1.943-.207 2.685-.958zm3.428 27.284c-.35-.296-.491-.495-.68-.563-1.31-.474-2.06-1.476-2.653-2.667-.371-.745-.812-1.457-1.253-2.164-.815-1.305-1.837-2.423-3.191-3.176a5.174 5.174 0 0 0-1.688-.6 50.125 50.125 0 0 0-4.283-.479c-.9-.058-1.812.021-2.712.106-1.128.106-2.248.29-3.375.423-1.267.149-2.552.227-3.647 1.015.187 1.204.946 1.958 1.725 2.676 1.988 1.828 4.318 3.102 6.887 3.862 2.454.726 4.89 1.597 7.52 1.551.593-.01 1.186.257 1.786.323 1.776.193 3.569.704 5.564-.307zM2.41 126.159c-.228 1.424-.231 1.425.069 2.006 1.405 2.722 3.43 4.343 6.704 4.15 2.035-.119 4.105-.104 6.046.771.406.183.889.264 1.338.269 1.85.022 3.612.492 5.36 1.019a4.284 4.284 0 0 0 2.47.012c1.48-.417 2.972-.609 4.51-.342.668.115 1.326.035 1.859-.591-1.508-1.862-3.241-3.253-5.494-3.952-.503-.156-.988-.402-1.444-.67-1.344-.786-2.78-1.214-4.34-1.2-1.002.01-1.981-.12-2.862-.631-1.674-.967-3.554-1.345-5.386-1.819-1.379-.357-2.798-.658-4.263-.208-1.447.444-2.933.767-4.567 1.186zm14.866-92.934c1.539 1.144 3.016 2.297 4.85 2.934.669.232 1.226.855 1.768 1.369 1.043.989 1.994 2.079 3.07 3.028.844.743 1.815 1.347 3.134 1.485-.067-.674-.115-1.267-.188-1.856-.065-.525-.292-1.067-.213-1.565.294-1.845-.063-3.614-.494-5.379-.197-.803-.243-1.778-.735-2.351-1.906-2.219-2.55-4.768-2.434-7.6.01-.299-.051-.607-.113-.903-.674-3.221-2.836-5.088-5.753-6.219-.902-.349-1.65.067-1.952 1.01-.208.648-.312 1.329-.44 1.999-.803 4.2-.52 8.464-.73 12.699-.021.44.147.89.23 1.349zm20.61-7.573c-.135.648-.265 1.316-.416 1.98-.227 1.004.119 1.792.894 2.42 1.009.817 2.046 1.606 3.31 1.979 2.559.753 5.065 1.636 7.42 2.903.9.484 1.878.61 2.877.587 1.105-.026 1.877-.559 2.24-1.619.27-.79.537-1.584.763-2.388.718-2.556 1.717-5.043 1.782-7.755.027-1.07.08-2.125-.345-3.137-.852-2.015-2.154-2.655-4.191-1.948-.78.271-1.496.733-2.224 1.138-.73.404-1.441.841-2.154 1.274-3.123 1.901-6.631 2.965-9.956 4.566zm-6.793 19.036c-2.103 1.029-3.558 2.788-5.014 4.521-1.698 2.023-2.561 4.43-3.077 6.996-.413 2.056.43 3.187 2.452 2.843 1.209-.206 2.214.024 3.292.462.905.368 1.872.611 2.83.819 1.57.342 3.22.523 4.73.03 2.78-.908 4.97-2.566 5.665-5.586-.752-1.651-1.431-3.249-2.203-4.803-.58-1.169-1.492-2.013-2.611-2.755-1.871-1.241-3.978-1.787-6.064-2.527zM16.86 180.633c.384 0 .703.063.988-.01 1.839-.466 3.708-.824 5.47-1.563a50.749 50.749 0 0 1 2.96-1.144 6.623 6.623 0 0 0 2.972-2.039c.61-.73.66-1.332.058-2.05-.728-.87-1.508-1.673-2.5-2.302-1.473-.932-2.93-1.933-4.23-3.088-2.37-2.107-4.934-1.996-7.658-.992-.994.367-1.973.777-2.981 1.101-1.014.325-2.055.567-3.082.85-.631.174-1.005.563-1.245 1.201-.362.962-.457 1.874-.173 2.885.575 2.04 1.558 3.692 3.378 4.938 1.886 1.29 3.853 2.112 6.043 2.213zm10.18-26.891c-.738-1.022-1.646-1.701-2.676-2.19-1.336-.633-2.431-1.546-3.408-2.632-.51-.565-.996-1.166-1.58-1.647-1.948-1.607-4.064-2.682-6.697-1.822-.288.094-.59.158-.89.207-1.098.177-2.037.675-2.704 1.553-.708.932-1.651 1.556-2.577 2.216-.557.399-1.127.778-1.68 1.183-1.435 1.048-2.556 2.387-3.471 3.892-.507.836-.381 1.354.42 1.972.539.415 1.113.808 1.725 1.098 1.506.713 3.134 1.167 4.498 2.189.288.217.703.305 1.074.362 2.039.314 4.082.438 6.074-.253 2.44-.845 4.866-1.735 7.302-2.594 1.84-.65 3.41-1.652 4.59-3.534zm4.637-80.191c1.267 1.503 1.99 3.077 2.52 4.754.112.354.305.706.538.997 1.575 1.976 3.27 3.836 5.698 4.775 2.194.85 4.406 1.654 6.64 2.385 1.49.489 2.844.169 3.91-1.077.694-.808 1.449-1.563 2.125-2.385.625-.759 1.253-1.533 1.752-2.376 1.506-2.541 1.174-4.405-1.13-6.179-1.696-1.307-3.237-2.746-4.587-4.416-2.037-2.523-4.653-2.96-7.496-1.357-1.854 1.046-3.767 1.93-5.82 2.557-1.43.437-2.825 1.083-4.15 2.322zm.934 59.22c1.346-.483 1.33-.497 2.088-1.301 1.275-1.356 2.765-2.324 4.652-2.656 1.04-.184 2.035-.627 3.073-.83 1.184-.233 1.878-.931 2.278-1.997.185-.497.328-1.01.482-1.518.55-1.817.955-3.695 1.689-5.435.763-1.813.373-3.249-.831-4.608-.605-.682-1.34-1.263-1.87-1.996-.984-1.364-2.345-2.059-3.861-2.664-1.72-.687-3.327-.51-4.805.398-1.657 1.019-3.503 1.915-4.165 4.009-.064.202-.29.349-.418.536-1.21 1.763-2.16 3.67-2.73 5.717-.321 1.15-.371 2.397-.385 3.602-.006.558.214 1.275.595 1.656 1.218 1.216 1.933 2.69 2.613 4.226.427.962 1.024 1.85 1.595 2.861zm-4.121 20.694c.072-.603.139-.889.136-1.173-.056-3.924.802-7.692 1.89-11.431.488-1.678.829-3.399 1.214-5.105.045-.2-.062-.434-.12-.794-.35-.039-.703-.111-1.057-.109-.606.003-1.23.155-1.815.059-1.393-.226-2.74-.055-4.067.316-.988.276-1.938.251-2.92-.008-1.912-.504-3.833-.966-5.818-1.078-.226-.013-.47-.026-.674-.111-2.102-.874-4.322-.823-6.521-.764-2.791.073-4.836-1.09-6.26-3.438-.51-.839-1.142-1.621-1.251-2.657-.117-1.111.25-1.811 1.31-2.08 1.692-.431 3.395-.872 5.121-1.106a8.017 8.017 0 0 1 3.167.212c1.969.55 3.9 1.263 5.806 2.01.788.309 1.52.649 2.395.59 1.8-.122 3.445.404 5.02 1.246.735.393 1.53.673 2.298 1.004 1.548.667 3.03 1.422 4.057 2.843.146.202.433.303.743.361-1.096-2.061-1.53-4.442-3.383-6.062-.65-.569-.833-1.422-.86-2.293-.062-2.102.44-4.087 1.342-5.953.69-1.432 1.66-2.735 2.285-4.19.673-1.566 1.797-2.613 3.176-3.464.616-.38 1.037-.816 1.148-1.582.373-2.562.337-5.119.118-7.761-.397 0-.732-.098-.966.014-2.465 1.186-5.031.972-7.61.589-.524-.077-1.042-.265-1.565-.28-3.325-.103-6.468-1.1-9.48-2.313-2.436-.981-4.793-2.375-6.391-4.621-1.636-2.298-1.412-3.111 1.413-3.615 2.169-.386 4.36-.642 6.546-.935.373-.05.762-.032 1.139.006 1.737.176 3.478.327 5.205.57 1.33.187 2.395.964 3.343 1.86 1.339 1.267 2.462 2.729 3.189 4.418.902 2.096 2.648 2.748 4.789 3.195.018-.634.067-1.142.043-1.646-.125-2.506-.296-5.01-.396-7.517-.058-1.456-.297-2.863-.673-4.271a222.167 222.167 0 0 1-1.912-7.748c-.305-1.329-.292-2.728-.854-4.003-.12-.272-.25-.537-.394-.849-2.813.849-5.57 1.641-8.3 2.521-1.37.441-2.706 1-4.023 1.582-2.197.971-4.482 1.413-6.878 1.375-.868-.014-1.668-.159-2.32-.768-.992-.928-2.216-1.252-3.511-1.495-.645-.121-1.294-.428-1.842-.797-.644-.435-.641-1.232-.11-1.787a3.39 3.39 0 0 1 .514-.451c1.68-1.176 3.352-2.366 5.053-3.512 2.363-1.591 5.013-2.554 7.733-3.294.769-.209 1.668-.14 2.468.013 3.564.68 6.76 2.232 9.742 4.264.413.283.857.521 1.49.903.52-3.966-.23-7.612-.445-11.311-1.6-.914-3.126-1.51-5.011-1.174-1.845.33-3.151-1.246-2.9-3.109.67-4.977 3.395-8.69 7.159-11.778.234-.193.488-.361.724-.549.056-.044.08-.127.187-.303-.095-.263-.161-.641-.36-.93-.16-.234-.454-.426-.73-.527-2.385-.87-4.054-2.642-5.653-4.487-.666-.77-1.455-1.293-2.354-1.746-1.286-.648-2.515-1.411-3.756-2.146-.943-.557-1.315-1.405-1.268-2.497.128-2.886.148-5.778.354-8.658.14-1.96.414-3.927.826-5.848.426-1.976 1.754-2.531 3.606-1.678 1.527.704 2.942 1.567 4.085 2.849 1.009 1.134 2.037 2.266 3.167 3.275 1.098.981 1.57 2.213 1.832 3.575.3 1.566.617 3.135.8 4.717.086.727-.022 1.521-.232 2.228-.25.839-.303 1.634-.087 2.466.29 1.117.344 2.246.245 3.398-.096 1.121-.002 2.231.567 3.376 1.035-2.841 2.295-5.48 2.923-8.261.625-2.772 2.219-5.162 2.785-8.023-.46-.678-.885-1.392-1.394-2.043-.98-1.255-2.021-2.462-3.007-3.712-.61-.772-1.16-1.592-1.75-2.383-1.576-2.119-1.935-4.524-1.077-6.917.635-1.771.96-3.524.892-5.346-.063-1.649.628-2.948 1.555-4.172.673-.886 1.668-.85 2.26.086.998 1.577 1.575 3.352 1.392 5.193-.242 2.415.385 4.681.82 6.986.124.656.48 1.279.79 1.885 1.049 2.042 1.269 4.176.91 6.428-.163 1.022-.67 2.048-.184 3.195.296-.042.614-.019.872-.132 3.685-1.616 7.415-3.13 10.802-5.365 1.185-.782 2.458-1.505 4.029-1.363 1.335.12 2.243.73 2.909 1.871.718 1.229.958 2.515.912 3.926-.09 2.774-.94 5.375-1.686 8.003-.27.95-.585 1.887-.872 2.833-.375 1.238-1.217 1.872-2.494 1.994-1.31.126-2.638.094-3.79-.535-2.087-1.142-4.356-1.793-6.577-2.54a13.298 13.298 0 0 1-4.857-2.863c-.268-.247-.543-.484-.96-.853-.323.583-.661.996-.797 1.468-1.244 4.288-2.578 8.554-3.322 13.119.463.208.91.465 1.392.618 2.06.655 3.903 1.668 5.502 3.136.805.738 1.384 1.618 1.812 2.603.605 1.393 1.178 2.8 1.783 4.242-.235 2.524-1.726 4.281-3.796 5.593-2.008 1.274-4.27 1.502-6.651 1.171-.132.391-.302.657-.302.925-.004 1.826-.015 3.653.06 5.478.056 1.285.243 2.564.388 4.003 1.394-.539 2.676-1.094 3.998-1.531 1.897-.626 3.588-1.647 5.319-2.598 2.277-1.249 5.083-.939 6.957.83 1.38 1.302 2.688 2.679 4.053 3.997.489.472 1.114.813 1.569 1.312.762.836 1.542 1.688 2.117 2.65.632 1.06.34 2.249-.152 3.298-.45.958-.981 1.908-1.64 2.731-1.04 1.303-2.284 2.443-3.316 3.753-.982 1.247-2.291 1.698-3.645 1.281-3.47-1.069-7.105-1.817-10.085-4.069-1.082-.818-1.977-1.883-2.965-2.826-.155-.148-.355-.251-.673-.473 0 .403-.046.675.007.927.74 3.57 1.564 7.125 2.212 10.711.295 1.632.26 3.326.343 4.993.04.83.007 1.663.007 2.561 1.3.205 2.358-.314 3.272-.884 2.123-1.329 4.574-2.114 6.433-3.875 1.579-.639 2.177-2.274 3.364-3.315.796-.699 1.56-1.435 2.342-2.153.054-.051.128-.079.193-.12 1.37-.877 6.142-1.751 7.72-1.379.265.062.485.311.756.495-.41 1.123-.774 2.182-1.183 3.223-.165.422-.347.885-.656 1.194-1.987 1.986-3.587 4.34-5.834 6.077-.797.615-1.63 1.093-2.637 1.279-.742.138-1.488.318-2.191.586-2.038.778-4.1 1.118-6.253.586-.29-.072-.6-.128-.893-.103-1.434.122-2.864.273-4.414.425-.117.28-.44.663-.37.948.445 1.819-.07 3.633.054 5.443.019.289.072.577.112.884 1.048 0 2.039-.153 2.962.035 1.412.285 2.745.881 3.949 1.704.372.255.752.52 1.06.843.788.825 1.479 1.748 2.315 2.515.967.889 1.306 2.04 1.574 3.224.093.412.035.939-.147 1.319-1 2.081-1.383 4.341-2.025 6.527-.191.652-.466 1.284-.743 1.907-.525 1.182-1.34 1.925-2.71 2.157-1.337.228-2.623.744-3.941 1.103-1.374.373-2.427 1.226-3.406 2.199-.59.586-1.174 1.178-1.813 1.82-.037.681-.068 1.441-.123 2.199-.033.454-.006.944-.171 1.35-.926 2.277-1.15 4.721-1.724 7.079-.303 1.244-.246 2.575-.497 3.836-.25 1.256-.556 2.493-.571 3.954 1.094-.715 2.09-1.333 3.318-1.373.27-.009.575-.213.792-.406.967-.855 1.96-1.689 2.844-2.627 1.144-1.216 2.206-2.511 3.276-3.795.917-1.1 2.099-1.767 3.455-2.095 1.859-.448 3.742-.651 5.654-.269 1.118.223 2.249.387 3.377.558 1.455.221 2.792.733 3.96 1.627.355.272.695.609.928.985 1.05 1.701.734 2.533-1.151 3.221-1.008.367-2.017.658-3.111.612-2.351-.099-4.493.615-6.535 1.721-.531.288-1.117.474-1.66.742-1.614.796-3.261 1.071-5.081.801-1.492-.221-3.036-.081-4.555-.124-1.393-.039-2.712.122-3.891.977-.42.304-.953.45-1.484.691-.435 1.168-.39 2.392-.27 3.582.269 2.644.788 5.27.92 7.916.1 1.989.6 3.878.89 5.816.064.427.248.836.386 1.284.33-.115.58-.14.747-.27 1.49-1.174 2.939-2.403 4.458-3.54.784-.586 1.787-.904 2.514-1.544 2.264-1.993 4.99-2.744 7.84-3.405 2.352-.546 4.652-.565 7.013-.357.968.085 1.962-.046 2.937-.143 2.296-.226 4.513.637 5.478 3.154.136.354.253.716.419 1.192-.217.227-.42.599-.725.728-2.05.871-3.735 2.323-5.622 3.448-.782.466-1.581.915-2.412 1.281-1.21.533-2.47.689-3.79.359-1.327-.333-2.678-.573-4.018-.857-1.061-.227-2.11-.238-3.14.148-3.705 1.392-7.475 2.539-11.541 2.961-.576 2.388-.708 4.797-.65 7.213.039 1.518.278 3.03.363 4.547.089 1.593.185 3.192.12 4.783-.05 1.26-.34 2.51-.55 3.951-.431-.254-.775-.337-.905-.551-1.634-2.698-1.947-1.573-1.423-5.182.59-4.072.766-8.173.525-12.286-.015-.274-.067-.547-.128-1.016-1.075.649-1.93 1.243-2.854 1.7-.951.467-1.994.746-2.951 1.202-2.235 1.064-4.66 1.521-7.047 1.768-1.94.201-3.901-.497-5.608-1.606-.32-.207-.604-.478-.941-.643-2.514-1.233-3.376-3.584-4.084-6.027-.414-1.429.12-2.711.824-3.902.2-.34.698-.583 1.108-.709 1.231-.376 2.493-.653 3.73-1.006.655-.187 1.32-.386 1.92-.696.963-.495 1.994-.654 3.018-.924 2.087-.551 3.828.16 5.348 1.292 1.948 1.449 3.848 2.957 5.89 4.276.426.274.758.689 1.31 1.206.45-1.706.452-3.234.373-4.678-.25-4.525-.627-9.048-1.355-13.813-.691.512-1.214.804-1.613 1.217-1.246 1.282-2.71 2.185-4.391 2.774-2.367.83-4.718 1.705-7.088 2.528-1.906.661-3.893.643-5.856.444-.798-.081-1.569-.534-2.328-.868-1.249-.55-2.507-1.09-3.708-1.734-1.2-.642-2.334-1.408-3.417-2.071-.53-1.386.073-2.418.779-3.285a24.336 24.336 0 0 1 3.177-3.258c1.624-1.367 3.48-2.448 4.927-4.05a3.247 3.247 0 0 1 1.545-.914c1.396-.345 2.82-.582 4.246-.786a2.37 2.37 0 0 1 1.323.228c1.418.714 2.888 1.355 4.01 2.546.679.721 1.393 1.407 2.09 2.11.215.216.397.484.648.641.9.564 1.843 1.062 2.735 1.638.876.566 1.513 1.473 2.808 2.032z" fill="#687E6B"/></g><defs><clipPath id="a"><path fill="#fff" d="M0 0h64v196H0z"/></clipPath></defs></svg>