<svg width="217" height="214" fill="none" xmlns="http://www.w3.org/2000/svg"><g clip-path="url(#a)"><path d="m50.365 55.688.072.034.3-.641-.074-.034-.298.641zm88.448-44.983-.104-.095-.516.429.151.167.469-.501zm28.879 10.861c-.578-.366-.578-.366-1.351.195l1.351-.195zM10.306 105.352l.3.024.033-1.485-.133-.012-.2 1.473zM181.345 4.564a6723.667 6723.667 0 0 1-3.837 2.854c.9-.067 3.142-1.707 3.837-2.854zM96.963 16.423c-.55-.333-1.234-.657-1.81-1.114-.78-.618-.905-.668-1.636-.057l.968 2.279c.758-.854 1.236-.956 2.478-1.108zM5.801 99.31c.247 1.466.43 2.728.678 3.976.241 1.214.076 2.538 1.005 3.828-.146-1.09-.193-1.956-.389-2.786-.333-1.416-.585-2.807.047-4.206.056-.121.014-.287.018-.473l-1.359-.339zm116.912-69.161c-.931.178-1.611.28-2.278.441-1.282.311-2.23 1.047-2.907 2.505.686-.269 1.168-.449 1.64-.648.279-.118.537-.374.814-.386.985-.046 1.681-.685 2.467-1.129.149-.084.152-.427.264-.783zM11.083 146.015l.231.076c.174-.372.37-.736.516-1.119.68-1.778.327-3.638.26-5.438-.072-1.931-.726-3.809-1.226-5.69-.113-.424-.273-.583-.709-.565l-.598 1.07c.771.603 1.048 1.455 1.187 2.39.146.98.392 1.945.532 2.925.21 1.48.398 2.968.144 4.465-.107.63-.224 1.258-.337 1.886zM131.667 3.331c-.623.417-1.197.967-1.88 1.225-1.467.552-2.464 1.638-3.451 2.748-.284.32-.63.702-.502 1.338L127 7.793c.1.934-.652 1.198-1.051 1.836 1.493-.641 2.633-1.502 3.473-2.687.816-1.15 1.815-2.186 2.245-3.611zm53.241 16.791c.329.273.578.411.732.619.903 1.213 2.171 1.731 3.602 1.962 1.234.199 2.464.419 3.7.605.513.077 1.037.088 1.556.129l.07-.225c-.718-.393-1.404-1.021-2.161-1.123-1.044-.139-1.993-.464-2.97-.785-1.794-.591-3.316-1.594-4.696-2.854-.387-.353-.813-.664-1.22-.995l-.168.199c.788.747 1.576 1.495 2.504 2.373l-.949.095zM33.962 64.331c-.014.831.07 1.547-.155 2.24-.075.235-.062.502-.072.755-.076 1.94-.593 3.801-1.638 5.387-1.066 1.619-2.465 3.018-3.71 4.52-.494.593-1.15 1.073-1.448 2.048.698-.603 1.267-1.069 1.806-1.567.547-.506 1.064-1.044 1.595-1.568l.193.162-.796 1.172c.346-.096.652-.242.788-.483.54-.956 1.014-1.949 1.536-2.915.413-.767.866-1.511 1.29-2.271.168-.301.327-.611.455-.93.267-.667.451-1.342.501-2.08.066-.983.3-1.955.45-2.933.114-.74-.079-1.165-.795-1.537zm15.795 27.635c.737-.057 1.417-.157 2.095-.152 1.863.015 3.152-.996 3.992-2.474a13.624 13.624 0 0 1 1.786-2.474c-.45-.574-.56-1.371-1.337-1.736-.077.462-.094.874-.217 1.252-.58 1.79-1.749 3.015-3.547 3.634-1.089.374-2.145.814-2.772 1.95zm119.347-71.934c-2.35-1.211-4.425-2.578-7.038-2.127l.284.441-2.128-.304c.842.799 1.732 1.438 2.626 2.07.214.151.423.345.664.409.361.097.748.109 1.125.135 1.481.1 2.862-.399 4.467-.624zM97.079 42.828c.342-.095.501-.089.552-.16.72-1.02 2.021-1.272 2.841-2.244.518-.613 1.244-1.129 1.605-1.86.51-1.031 1.316-1.785 2.043-2.623.577-.663 1.173-1.322 1.652-2.054.498-.76.806-1.617.58-2.71-.212.143-.356.195-.433.298-.792 1.058-1.661 2.072-2.338 3.201-1.15 1.914-2.421 3.694-4.254 5.016-.086.062-.217.163-.21.236.084.968-.69 1.351-1.246 1.892-.24.235-.423.532-.792 1.008zm14.955 9.141.326.649c.651 1.28 1.362 2.535 1.931 3.851.373.864.56 1.779.283 2.782-.281 1.02.043 1.975.917 2.652.798.618 1.624 1.202 2.523 1.865.014-.431.102-.818.02-1.166-.139-.592-.361-1.168-.59-1.734a274.586 274.586 0 0 0-2.02-4.859c-.315-.734-.631-1.481-1.061-2.149-.534-.827-1.12-1.656-2.329-1.891zM86.649 25.112l.297.138c.482-1.31 1.708-2.072 2.218-3.399.217-.564.935-.914 1.263-1.46.745-1.242 1.887-1.929 3.091-2.477l-1.329-3.966-.288-.02c-.215.462-.452.915-.64 1.386-.703 1.742-1.455 3.428-2.927 4.714-.459.4-.754 1.063-.959 1.662-.334.975-.538 1.994-.78 2.998-.032.129.033.282.054.424zM8.944 105.098l.291-.072c.1.444.197.888.33 1.478.755-1.143-.012-2.35.561-3.351l.661.308c.058-.593.687-.993.25-1.704-.31-.503.537-1.017.124-1.664-.322-.506-.43-1.143-.706-1.685-.26-.513-.617-.978-1.005-1.578-.846 1.796-1.856 3.337-1.722 5.203.225 3.164.587 4.455 1.32 5.109l-.104-2.044zm10.557 3.248c-.16.069-.315.084-.356.16-.084.16-.113.349-.156.528-.175.702-.294 1.422-.53 2.102-.326.937-.817 1.821-1.093 2.769a12.167 12.167 0 0 0-.445 2.709c-.056 1.022.061 2.053.077 3.079.028 1.802.344 3.542 1.05 5.462.277-1.194.622-2.132.69-3.09.133-1.874.065-3.761.172-5.638.064-1.098.194-2.219.506-3.266.258-.862.44-1.685.334-2.574-.085-.716-.159-1.433-.249-2.241zm161.273-97.893c.586.165.988.33 1.405.384.981.129 1.969.215 2.956.297.633.053 1.27.097 1.904.092 1.035-.007 2.106-.244 3.098-.053 2.254.432 4.125-.53 6.047-1.369.319-.139.567-.443 1.004-.798-1.396.059-2.565.088-3.731.169-.548.038-1.092.278-1.632.255-1.82-.078-3.636-.257-5.457-.345-.679-.033-1.395-.031-2.043.144-1.134.306-2.229.758-3.551 1.224zM22.184 80.189c-.13-.325-.199-.576-.323-.796-1.115-1.993-1.507-4.168-1.56-6.411-.023-.873.15-1.749.182-2.625.05-1.342-.157-2.637-.707-3.669l-3.075.406c.047.61.063 1.398.184 2.171.088.561.3 1.106.484 1.648.306.9.67 1.782.94 2.692.162.548.16 1.144.29 1.704.138.596.436 1.166.5 1.764.067.632.668.817.865 1.308.39.975 1.25 1.375 2.22 1.808zM156.708 8.711c-1.568-.217-2.916-.326-4.228-.604-1.686-.357-3.344-.63-5.095-.662-2.37-.043-4.418.797-6.508 1.641-.266.107-.477.351-.72.536.269.191.472.406.719.497.639.233 1.156.731 2.01.415.644-.238 1.469.286 2.193-.137.019-.01.103.139.163.144.291.025.586.053.876.031.491-.038.978-.114 1.468-.172 1.277-.152 2.577-.066 3.839-.383 1.346-.339 2.695-.667 4.043-1l1.24-.306zM115.61 49.41c.282.131.55.275.832.384 1.516.591 3.153.394 4.715.711.939.19 1.862.148 2.792-.205.38-.144.902-.035 1.325.083.723.201 1.422.493 2.126.76.339.128.637.211.948-.098.571-.565 1.215-1.06 1.75-1.655.692-.769.9-1.635.418-2.651-.195-.411-.155-.947-.167-1.428-.031-1.267.031-2.552-1.024-3.689-.282.87-.635 1.606-.745 2.377-.169 1.191-.715 2.116-1.763 2.594-2.11.963-4.197 2.07-6.62 2.018-.909-.019-1.818-.078-2.774-.122-.216.922-1.276.398-1.813.921zM45.1 58.591c.072-.522.158-1.044.213-1.569.04-.365.574-.013.63-.628.153-1.702.56-3.383.902-5.064.152-.747.515-1.468.567-2.215.108-1.525.021-3.081-.676-4.465-.718-1.426-1.616-2.763-2.454-4.127-.244-.396-.553-.75-.939-1.266-.502 1.504-.73 2.847-.737 4.223-.006 1.291.402 2.498.985 3.62.98 1.884.962 3.922.848 5.916a16.22 16.22 0 0 0 .66 5.575zm-5.413 45.913c-.34.49-.664.994-1.026 1.467-.576.756-1.065 1.574-1.957 2.061-1.125.613-1.532 1.738-1.9 2.896-.389 1.219-.796 2.448-1.358 3.593-.71 1.448-1.616 2.799-2.379 4.222a99.288 99.288 0 0 0-2.253 4.483c-.3.636-.47 1.335-.7 2.004 1.414-.906 1.99-2.51 3.262-3.537l.763.534c.443-.664.901-1.268 1.268-1.921.598-1.063 1.135-2.159 1.7-3.24.974-1.868 2.037-3.696 2.895-5.615.557-1.245.735-2.655 1.233-3.931.383-.982.402-1.977.452-3.016zm60.494-86.301c-1.367.445-2.7.516-3.715-.832-.38.224-.712.352-.958.575-.554.502-1.179.755-1.903.965a4.28 4.28 0 0 0-1.915 1.202c-.877.988-1.586 2.126-2.36 3.205-.378.526-.667 1.147-1.137 1.568-.605.539-.895 1.199-1.137 1.931 1.078-1.126 1.978-2.453 3.776-3.082l-2.665 2.702c.92-.431 1.647-1.097 2.632-1.302.368-.077.948-.322 1.071-.18.47.544.871.086 1.236-.006.763-.191 1.52-.46 2.23-.8 1.56-.747 3.07-1.58 3.866-3.254a2.94 2.94 0 0 1 .518-.739c.515-.546.811-1.13.461-1.953zM66.782 36.731l-.196-.142c-.229.174-.47.336-.686.526-1.203 1.051-2.313 2.223-3.823 2.87-1.168.501-2.082 1.32-2.875 2.3-.623.77-1.296 1.5-1.927 2.264-.628.761-1.302 1.497-1.829 2.324-.966 1.513-1.835 3.086-2.752 4.631-.254.428-.562.826-.79 1.266-.224.43-.377.897-.618 1.483l1.38-1.236.16.155-.992 1.475.21.139c1.103-1.311 2.194-2.634 3.318-3.928.457-.525.96-1.019 1.49-1.47.822-.7 1.731-1.303 2.526-2.032 1.994-1.828 3.423-4.109 4.903-6.341.72-1.084 1.377-2.208 2.047-3.323.182-.302.305-.64.454-.961zm-34.684 90.791c.046.558.895-.234.65.622.51.061 1.037.237 1.523.158.966-.158 1.853-.518 2.723-1.049 1.041-.636 2.14-1.204 3.384-1.512 1.334-.331 2.562-1.066 3.878-1.494.603-.196 1.091-.455 1.534-.882 1.572-1.515 3.441-2.561 5.437-3.405.462-.195.902-.441 1.536-.755-.375-.116-.526-.215-.656-.194-.778.129-1.493-.05-2.237-.281-1.482-.462-3.032-.304-4.558-.325-.219-.004-.453.088-.659.183-1.764.812-3.523 1.633-5.039 2.879-.41.337-.837.652-1.244.992-1.135.951-2.25 1.928-3.4 2.86-.96.778-1.96 1.507-2.872 2.203zm4.886-47.396c-.157.238-.235.36-.318.48-.91 1.318-1.565 2.797-2.765 3.936-.853.808-1.542 1.794-2.273 2.725-.427.543-.746 1.172-1.194 1.695-.905 1.057-1.643 2.245-2.087 3.524-.522 1.505-.774 3.109-1.067 4.683-.216 1.161-.249 2.355-.47 3.514-.325 1.696-.474 3.39-.32 5.11.04.457.05.916.083 1.373.014.189.051.377.104.751.973-2.016.775-4.289 2.42-5.79l-.1.67c.853-1.294 1.636-2.609 2.151-4.022.523-1.432.831-2.949 1.141-4.448.231-1.118.262-2.278.475-3.401.338-1.784 1.096-3.427 1.89-5.045.572-1.166 1.24-2.284 1.811-3.45.328-.671.696-1.362.52-2.305zm-21.122 81.995.273.227c1.346-1.622 2.944-2.94 4.635-4.186 1.262-.931 2.586-1.805 3.452-3.264a47.67 47.67 0 0 0 2.19-4.098c.367-.782.336-1.615.438-2.441.196-1.587.928-2.987 1.804-4.305.423-.637.813-1.276.843-2.126-1.418 1.528-2.875 2.872-4.802 3.594-.17.064-.312.221-.448.354-.658.64-1.32 1.274-1.96 1.933-1.073 1.106-2.087 2.26-2.559 3.771-.766 2.451-1.517 4.907-2.27 7.362-.064.205-.102.418-.209.87 1.615-2.156 2.365-2.855 3.305-2.997-.867.977-1.638 1.842-2.406 2.71-.763.864-1.524 1.73-2.286 2.596zm58.24-99.894-.105.352c.676.213 1.34.534 2.03.614 1.467.172 2.95.21 4.424.321.527.04 1.047.176 1.574.194.715.025 1.461.096 2.147-.06 1.601-.365 3.18-.835 4.758-1.297.876-.257 1.781-.488 2.583-.902a23.561 23.561 0 0 0 3.108-1.949 110.208 110.208 0 0 0 4.766-3.713c.728-.598 1.309-1.353 1.597-2.312-1.17.043-1.157.069-1.996.514-1.608.853-3.083 1.957-4.838 2.532-.699.229-1.384.499-2.075.751-.565.208-1.125.436-1.697.621-.724.235-1.529.316-2.175.68-1.225.692-2.373 1.428-3.81 1.732-1.913.403-3.757 1.071-5.767.949-.807-.048-1.63.174-2.452.273.073.42.83.293.563.841l-2.635-.141zM56.055 80.588c-.679.378-1.2.606-1.65.932-.812.586-1.716.755-2.682.769a5.646 5.646 0 0 0-1.005.105c-1.716.332-3.078 1.378-4.369 2.424-.815.66-1.41 1.648-1.77 2.845.354-.085.57-.138.787-.189-.653.547-.849 1.562-1.75 1.674l-.724 1.887c.694-.294.694-.294 1.32-.185-.76.576-1.247 1.382-2.242 1.554.596.209 1.152.132 1.662-.121.662-.328 1.29-.684 1.975-.056.058.053.22.013.327-.011 1.196-.271 2.42-.443 3.357-1.382.821-.823 1.76-1.447 2.948-1.698.61-.129 1.397-.379 1.69-.839.706-1.109 1.42-2.256 1.41-3.699-.006-.779.29-1.56.44-2.342.09-.478.16-.961.276-1.668zm26.1-32.587a13.416 13.416 0 0 0-.162-.094c-.837.514-1.666 1.045-2.516 1.537-.487.283-.986.603-1.522.734-2.304.561-4.612 1.12-6.942 1.56-2.524.476-4.696 1.604-6.673 3.194-.5.402-1.07.719-1.588 1.102-.522.387-1.064.762-1.516 1.221-1.94 1.972-3.588 4.187-5.155 6.456-.76 1.101-1.713 2.097-2.177 3.567.236-.188.378-.26.462-.375.733-1.008 1.491-1.965 2.955-1.707 1.213-.57 2.503-1.022 3.625-1.737 2.03-1.293 3.964-2.736 5.926-4.134.751-.535 1.43-1.177 2.205-1.67 1.598-1.017 3.243-1.96 4.861-2.946a391.8 391.8 0 0 0 4.368-2.708c.32-.2.636-.422.897-.689a57.648 57.648 0 0 0 1.792-1.941c.398-.446.773-.913 1.16-1.37zm64.627-18.283c-.277-.213-.544-.439-.833-.636-.875-.597-1.852-1.082-2.611-1.8-.708-.67-1.29-1.529-1.739-2.402-.453-.882-1.123-1.539-1.793-2.205-.392-.388-.945-.608-1.379-.96-.801-.648-1.591-1.282-2.643-1.5-.646-.133-1.262-.417-1.91-.533-1.162-.208-2.334-.423-3.51-.484-1.604-.084-3.223-.04-4.767-.542-1.737-.564-3.514-.698-5.314-.614-.521.023-1.038.218-1.548.365-.764.222-1.519.471-2.16.671-.393.404-.721.752-1.066 1.081-.038.035-.177-.035-.276-.058.114-.303.758-.228.445-.756-1.065.365-2.043.824-2.826 1.641-.776.808-2.099.968-2.636 2.25 1.967-1.012 3.83-2.033 6.211-2.131-1.586.676-2.985 1.272-4.565 1.947.32.11.43.19.518.171.95-.208 1.94-.324 2.837-.672 2.415-.938 4.97-.9 7.474-1.182 1.788-.202 3.562.225 5.32.5.831.131 1.696.336 2.394.981.756.7 1.604 1.31 2.454 1.9 1.576 1.094 3.18 2.148 4.776 3.213.77.513 1.566.963 2.527.999 2.204.082 4.405.192 6.62.756zM32.604 63.096c-.407-1.029-.523-1.109-1.415-.764a6.288 6.288 0 0 0-1.313.71c-.748.521-1.548.592-2.409.421-.637-.126-1.319-.401-1.919-.051-.938.547-1.75.242-2.625-.126-.616-.258-1.284-.39-1.858-.557-1.023 1.254-1.032 1.379-.592 2.73.24.729.42 1.477.623 2.217.432 1.576.62 3.158.127 4.761-.055.177-.108.379-.078.556.224 1.322.428 2.652.736 3.955.085.357.09.914.735 1.125-.383-.937-.272-1.744.076-2.538.11.209.112.414.11.619-.01.417-.187.937-.002 1.232.556.888.735 1.87.92 3.027l1.748-2.781.26.137c-.143.372-.285.743-.426 1.115.635-.435 1.113-.965 1.592-1.494.85-.936 1.71-1.862 2.542-2.811.302-.345.493-.789.811-1.115 1.384-1.418 2.18-3.092 2.316-5.074.012-.187.005-.386.068-.556.43-1.16.208-2.352.273-3.556l-1.048-.422.748-.76zm78.763-22.064c.757-.552 1.009-1.398 1.824-1.795.103.84-.505 1.164-.872 1.595-.336.393-1.117 1.488-1.342 1.949-.388.793-.818 1.565-1.197 2.284.857-.378 1.625-1.261 2.958-.741l-2.785 1.244c.8.768 1.546 1.065 2.547.642.697-.294 1.498-.34 2.386-.524-.399.937-1.395.614-1.862 1.205.908.575 1.746-.266 2.637-.144.886.123 1.802-.233 2.694.167l-3.807.41c.338.188.433.286.532.29 1.446.044 2.893.076 4.34.111l.231.005c1.354.029 2.672-.091 3.847-.873.149-.1.376-.074.553-.144.879-.344 1.788-.635 2.619-1.072.763-.402.941-1.26 1.162-2.023.33-1.137.579-2.297.915-3.431.562-1.903.158-3.437-1.388-4.779-.847-.734-1.431-1.772-2.119-2.683-.087-.115-.092-.291-.131-.439-.143-.545-.285-1.091-.442-1.697-.348.203-.687.327-.93.553-1.454 1.351-3.35 1.82-5.12 2.484-1.016.381-1.918.903-2.834 1.433-.328.189-.622.444-.91.695-.288.25-.553.527-.82.8-.268.275-.564.534-.776.849-.234.346-.385.748-.574 1.125-.17.338-.43.66-.49 1.015-.083.499-.56.203-.657.389-.142.27-.119.627-.189 1.1zM4.495 144.236l-.005.001c.151-.001.37-.07.442.005.89.903 1.993 1.544 2.918 2.393.622.57 1.133 1.261 1.693 1.898l.2-.136c-.265-.47-.55-.931-.789-1.415-.317-.645-.298-.776.032-1.506l.334-.114-.078 1.16c.535-.736-.108-1.579.681-2.395l.002 1.77c.31-.768.564-1.535.607-2.314.061-1.133 0-2.276-.074-3.411-.024-.379-.019-.76-.219-1.164-.28-.564-.362-1.245-.436-1.886-.18-1.562-1.097-2.78-2.605-3.081-1.003-.202-1.898-.428-2.296-1.519-.89.833-1.215 1.815-1.379 2.852-.18 1.138-.804 1.816-1.904 2.134-.733.213-.845.439-.512 1.088.697 1.359.931 2.832 1.21 4.306.102.543.354 1.08.635 1.563 1.053 1.809 2.988 2.246 4.93 3.168-.444-.84-1.017-1.129-1.54-1.495-.732-.511-1.486-1.022-1.847-1.902zm190.12-127.36-.251.795c.829.499 1.705.97 2.522 1.528 1.112.76 2.285 1.323 3.611 1.613a15 15 0 0 1 5.586 2.482c2.254 1.625 4.616 3.02 7.146 4.148.22.099.461.153.776.255-.669-1.54-1.236-2.985-1.917-4.373-.73-1.489-1.601-2.887-3.144-3.717a8.45 8.45 0 0 1-1.41-.985c-1.391-1.171-3.128-1.546-4.798-1.989-1.339-.354-2.765-.381-4.154-.545-.136-.016-.281.029-.421.053-.324.055-.648.155-.973.164-.916.026-1.833-.001-2.748.027-.335.009-.73.042-.663.686l.843-.112-.005-.03zm-67.93-6.598-.779.357c.293-.048.814.358.768-.363.311.099.636.315.929.278 1.567-.197 2.57-1.162 3.279-2.517.239-.458.48-1.045.886-1.258.721-.378.685-.948.847-1.592-.815.097-1.157.591-1.483 1.119-.679 1.1-1.368 2.217-2.521 2.874-.642.366-1.055 1.148-1.926 1.102zM11.233 184.423c.12-.431.331-.859.343-1.293.052-1.914.081-3.83.044-5.744-.014-.777-.217-1.55-.334-2.325-.842 3.14-.129 6.24 0 9.347.11.462-.388.953.1 1.592.15-.675.435-1.164-.153-1.577zM134.63 13.559c-.551.328-1.086.684-1.657.972-.359.181-.535.446-.76.765-.277.393-.845.58-1.479.976l1.894-.248c1.222-.158 2.442-.409 3.668-.454 2.745-.101 5.43-.395 8.036-1.371 1.747-.655 3.557-1.198 5.385-1.562 1.305-.26 2.646-.446 4.028-.328 1.526.129 3.075-.025 4.614-.062 1.151-.027 2.269-.168 3.364-.599.481-.189 1.086-.065 1.635-.077.104-.002.269.071.301.029.454-.584 1.186-.419 1.694-.401.76.025 1.546-.624 2.284.02.741-.408 1.552-.338 2.352-.343.115-.001.244-.023.344.018 1.184.478 1.867-.324 2.626-.989a42.614 42.614 0 0 1 2.293-1.883c1.621-1.233 3.295-2.4 4.889-3.668 1.118-.89 2.077-1.948 2.676-3.286.162-.361.404-.687.632-1.068.712.637.525 1.346.322 1.903-.324.89-.871 1.698-1.283 2.559-.934 1.959-2.833 2.85-4.455 4.039a3.266 3.266 0 0 1-1.419.595c-1.574.221-2.699 1.126-3.777 2.315.863.15 1.631.154 2.471-.026 1.933-.416 3.627-1.357 5.398-2.149 1.658-.742 3.42-1.228 5.245-1.172 1.878.057 3.751.297 5.626.456.269.023.543.088.805.055 1.974-.251 3.946-.51 5.915-.796a3.27 3.27 0 0 0 1.079-.379c.319-.174.634-.27.756.105.071.217-.065.626-.249.78a31.443 31.443 0 0 1-2.281 1.71c-1.464 1.012-3.051 1.757-4.813 2.088-.372.069-.752.166-1.124.15-1.708-.073-3.417.043-5.118.01-1.572-.031-3.136-.395-4.704-.61-.904-.124-1.807-.255-2.714-.357a2.328 2.328 0 0 0-.802.052c-.89.22-1.773.463-2.654.717-.155.044-.283.185-.61.41.98.275 1.769.452 2.526.719 1.113.393 2.24.777 3.296 1.298a15.198 15.198 0 0 0 4.894 1.479c1.172.142 2.475.502 3.648-.238.13-.082.375-.049.542.005a4.97 4.97 0 0 0 3.056.014c1.668-.524 3.348-.316 5.027-.333.918-.008 1.846-.04 2.751.076 1.133.145 2.267.362 3.365.675 1.084.309 2.136.745 3.177 1.186.485.206.948.511 1.353.851a77.482 77.482 0 0 1 2.971 2.642c.239.223.385.557.541.858.229.443.398.918.645 1.351a22.372 22.372 0 0 1 1.636 3.519c.327.908.912 1.605 1.583 2.201.436.388.536.773.622 1.43-.497-.163-.908-.237-1.261-.422-2.05-1.078-4.104-2.152-6.121-3.288-1.1-.62-2.148-1.338-3.19-2.054-1.976-1.357-4.144-2.275-6.447-2.895-1.91-.514-3.515-1.612-5.144-2.665-.801-.519-1.57-1.094-2.401-1.56-.385-.215-.878-.301-1.327-.322a150.86 150.86 0 0 0-4.803-.124 7.301 7.301 0 0 0-1.808.206c.739.215 1.131.799 1.65 1.232 1.057.883 2.198 1.635 3.555 2.022 1.245.355 2.488.737 3.696 1.201.819.315 1.64.703 2.34 1.221.689.511 1.41.474 2.164.508.278.013.554.093.887.153-.182.619-.578.786-.991.82-1.872.159-3.745.273-5.583-.3-.247-.077-.526-.057-.791-.072-1.356-.075-2.709-.202-3.976-.712-.392-.158-.698-.534-1.039-.814-.505-.414-.971-.886-1.516-1.235-.864-.552-1.328-1.348-1.693-2.265a4.194 4.194 0 0 0-.781-1.218c-.733-.811-1.56-1.536-2.26-2.382-.084-.103-.238-.161-.37-.21-1.14-.423-2.296-.803-3.419-1.265-1.362-.562-2.794-.722-4.233-.884-.603-.068-1.196-.239-1.799-.295-1.8-.166-3.591-.153-5.393.113-1.694.25-3.41.366-5.121.479-2.258.149-4.539-.043-6.769.524-.257.065-.57-.122-.861-.154-.377-.041-.758-.043-1.336-.071 1.001.534 1.8.908 2.547 1.369 1.533.946 3.121 1.743 4.942 1.908 1.137.103 2.284.083 3.422.18 1.453.122 2.919.215 4.344.499.761.151 1.438.698 2.171 1.028.683.308 1.39.565 2.234.904l.191.867-1.89.952-.274 1.084c-.62.105-1.14.21-1.665.277-.843.107-1.642.039-2.435-.379-.727-.382-1.567-.547-2.31-.905-.497-.24-1.043-.561-1.338-1-1.02-1.516-2.534-2.252-4.131-2.933a77.801 77.801 0 0 1-4.274-1.991c-1.676-.84-3.446-1.015-5.264-.82-.519.056-1.048.268-1.516.516-1.73.915-3.604 1.39-5.499 1.732-1.152.207-2.36.21-3.537.166-2.238-.084-4.447-.024-6.592.698a2.79 2.79 0 0 0-.424.182c-.058.031-.093.106-.199.233 1.211.204 2.344.497 3.563.408.62-.046 1.273.207 1.893.388 1.5.44 3.092.747 4.285 1.83 1.177 1.069 2.553 1.904 3.427 3.345 1.307 2.156 3.236 3.751 5.368 5.066.604.374 1.347.517 2.01.802.213.092.376.3.607.492-.831.954-1.788.649-2.665.512-2.156-.337-4.302-.739-6.452-1.115-1.927.519-3.254-.629-4.666-1.626-1.249-.881-2.588-1.631-3.854-2.486-.727-.491-1.385-1.083-2.081-1.62-1.196-.923-2.628-1.244-4.064-1.491-2.088-.359-4.186-.13-6.289-.026-2.002.099-3.794.914-5.698 1.328-.707.153-1.425.255-2.134.401-.662.136-1.319.297-1.978.45-.71.166-1.438.28-2.124.516-1.229.423-2.436.913-3.648 1.387-1.292.506-2.452 1.243-3.582 2.04-.618.437-1.283.817-1.959 1.162-.748.38-1.4.879-2.082 1.359-.9.634-1.973 1.014-2.938 1.563a88.486 88.486 0 0 0-3.802 2.302c-.802.513-1.545 1.117-2.329 1.659-1.36.941-2.688 1.94-4.113 2.772-.964.563-1.744 1.338-2.59 2.014-1.187.95-2.368 1.903-3.239 3.285-.79 1.251-2.176 2.144-3.353 3.129-1.025.857-2.127 1.62-3.193 2.428-.11.084-.2.194-.453.445 1.938-.412 3.67-.753 5.4-1.092 2.07-.405 3.69-1.568 5.39-2.643.097-.061.18-.196.275-.203.381-.03.843-.159 1.13.005.397.227.227.717.004 1.032-.552.779-1.152 1.524-1.738 2.278-.069.088-.213.123-.269.214-1.286 2.099-3.473 3.054-5.442 4.275-1.083.673-2.278 1.172-3.33 1.884-1.45.979-2.817 2.084-4.216 3.139-.152.115-.275.271-.43.379-2.266 1.562-4.504 3.165-6.817 4.652-.885.569-1.959.836-2.915 1.307-.887.438-1.733.958-2.589 1.457-.11.064-.17.216-.397.524.427-.137.628-.19.821-.264 2.83-1.089 5.652-2.192 8.254-3.788.78-.478 1.647-.811 2.468-1.224.441-.223.893-.44 1.295-.723.641-.451 1.222-.843 2.064-1.047 1.175-.284 2.22-1.115 3.318-1.713.331-.18.67-.347.986-.55.73-.47 1.547-.858 2.148-1.459 1.376-1.375 2.95-2.436 4.656-3.325 1.215-.633 2.446-1.237 3.665-1.865.304-.158.668-.295.861-.55.514-.676 1.298-.768 1.988-1.075a56.217 56.217 0 0 0 2.561-1.229c.193-.098.357-.282.488-.46.935-1.268 2.022-2.392 3.184-3.451.194-.178.35-.413.48-.645.903-1.622 2.19-2.95 3.368-4.355.704-.841 1.618-1.503 2.348-2.325.904-1.02 1.732-2.109 2.562-3.192 1.018-1.327 1.726-2.877 3.007-4.025a2.159 2.159 0 0 0 .686-1.874c-.099-.781.307-.815.991-.731.143 1.063.204 2.101.097 3.174-.231 2.326-.189 2.335-1.336 4.158-.196.312-.478.589-.77.82-1.117.886-1.863 2.025-2.594 3.241-.594.989-1.506 1.844-2.43 2.562-1.169.91-2.494 1.621-3.75 2.418-.032.02-.052.071-.084.078-1.458.311-2.028 1.644-2.945 2.571a30.536 30.536 0 0 0-1.943 2.199c.745-.296 1.542-.27 2.252-.81.551-.419 1.448-.381 2.19-.552.373-.085.751-.155 1.112-.277 2-.671 4.067-.909 6.158-1.002.131-.006.259-.059.39-.077.629-.086 1.268-.128 1.885-.265.47-.103.943-.271 1.364-.503 1.68-.926 2.776-2.315 3.326-4.172.733-2.477 2.019-4.696 3.491-6.792.455-.648 1.079-1.231 1.953-1.481.462-.133.879-.548 1.225-.921.486-.524.821-1.197 1.342-1.674.429-.391 1.011-.652 1.568-.854.642-.233 1.331-.331 1.998-.501 1.112-.284 1.225-.25 1.926.709l1.384-1.568c.416.124.703.338.633.805-.253 1.706.541 3.029 1.535 4.284.726.917 1.424 1.858 2.19 2.739.558.64.692 1.349.597 2.144-.023.189-.052.38-.11.561-.349 1.09.104 1.904.75 2.768.594.794.835 1.803.66 2.825-.132.774.005 1.479.247 2.213.26.793.213 1.52-.186 2.385-.668 1.447-2.127 1.869-3.066 3.006-.729-.266-1.432-.468-2.083-.776-.615-.29-1.215-.477-1.881-.282-1.171.343-2.346.139-3.522.055-.684-.049-1.367-.12-2.052-.135a9.592 9.592 0 0 1-4.586-1.269c-1.102-.632-2.011-1.597-3.007-2.414-.117-.096-.233-.264-.358-.271-.869-.05-1.807-.278-2.592-.031-.694.22-1.318.481-2.057.372-.203-.03-.42.033-.724.063.927.431 1.857.663 2.515 1.217 1.065.896 2.427.924 3.575 1.525 1.61.843 3.008 1.889 3.925 3.525.571 1.018.899 2.144 1.429 3.149.837 1.587 1.415 3.251 1.98 4.927.381 1.131.126 2.244-.414 3.291-.208.403-.509.564-1.025.296.132-.902-.369-1.509-1.114-1.992-.352-.228-.656-.529-.996-.776-1.381-1.005-1.912-2.373-1.419-3.977.258-.839-.106-1.425-.389-2.055-.578-1.288-1.257-2.531-1.874-3.802-.501-1.035-1.217-1.781-2.323-2.222-1.048-.417-2.03-1.002-3.029-1.535-.851-.455-1.69-.867-2.707-.845-1.181.026-2.387-.217-3.543-.056-1.994.278-3.959.765-5.93 1.189a62.98 62.98 0 0 0-3.64.877c-.47.131-.977.345-1.322.675-1.012.967-2.298 1.403-3.558 1.787-1.238.378-2.256 1.132-3.417 1.62-1.973.83-3.458 2.374-5.182 3.57-1.037.719-2.079 1.433-3.113 2.157-.208.146-.392.326-.71.594.885-.084 1.593-.163 2.302-.217 1.717-.128 3.44-.188 5.147-.387 1.023-.12 2.021-.447 3.028-.689.443-.107.896-.201 1.32-.361.677-.255 1.423-.445 1.981-.87 1.12-.854 2.397-1.158 3.72-1.44.735-.157 1.476-.373 2.16-.684 1.525-.697 3.018-1.467 4.521-2.214.165-.082.323-.194.457-.321.635-.603 1.4-.979 2.25-1.072 1.44-.158 2.629-.78 3.669-1.748.106-.098.253-.152.37-.22.385.175.496.434.313.758-.188.333-.373.701-.655.941-1.012.859-1.674 1.976-2.444 3.025-.551.751-1.343 1.324-2.029 1.976-.027.026-.074.031-.098.059-1.23 1.396-2.936 2.184-4.333 3.372-1.099.934-2.338 1.575-3.8 1.86-1.034.201-2 .735-3.005 1.103-1.618.592-3.284.998-5 1.159-.408.039-.828-.086-1.243-.115-1.486-.104-2.97-.266-4.458-.279-1.282-.011-2.425-.43-3.525-.971-2.156-1.06-4.266-1.028-6.398.037-1.574.785-3.173 1.522-4.742 2.318-.983.498-1.92 1.089-2.898 1.598-1.528.796-3.037 1.648-4.623 2.313-1.954.82-3.502 2.134-4.957 3.605-.105.107-.239.239-.254.372-.124 1.1-1.038 1.639-1.678 2.361-.785.885-1.667 1.683-2.445 2.574-1.26 1.446-2.512 2.905-3.692 4.418-.997 1.278-2.152 2.443-2.954 3.865-1.03 1.828-1.973 3.709-3.022 5.526-.728 1.262-1.628 2.423-2.349 3.687-.91 1.596-1.71 3.256-2.575 4.878-.759 1.421-1.595 2.804-2.303 4.249-.677 1.386-1.235 2.83-1.844 4.248l.231.128c.467-.541.998-1.039 1.39-1.63 1.17-1.767 2.56-3.315 4.131-4.743 1.054-.957 1.824-2.221 2.844-3.222 1.548-1.516 1.99-3.602 2.97-5.406.278-.51.26-1.178.397-1.768.295-1.251 1.24-2.095 2.067-2.939 1.36-1.386 2.654-2.79 3.598-4.502.253-.459.607-.912 1.024-1.221 1.095-.813 2.202-1.636 3.4-2.276.74-.395 1.58-.622 2.541-.434.996.195 2.004-.16 2.796-.868.7-.626 1.503-.872 2.472-.84.37 1.417-.492 2.685-.462 4.106.932.379 1.381 1.191 1.802 2.058.301.62.277 1.215-.046 1.75-.574.951-1.138 1.936-1.876 2.754-1.167 1.293-2.545 2.354-4.42 2.33-1.228-.016-2.339.343-3.42.854-1.083.512-2.194.543-3.37.389-1.655-.216-3.305-.093-4.8.745-.289.161-.452.575-.635.893-.207.361-.322.782-.567 1.112-.43.581-.769 1.143-.975 1.884-.237.853-.78 1.716-1.42 2.344-1.42 1.395-2.78 2.83-3.995 4.405a.37.37 0 0 1-.08.082c-1.8 1.271-3.252 2.895-4.59 4.617-.979 1.256-2.22 2.28-2.985 3.734-1.13 2.147-1.875 4.413-2.62 6.711-.493 1.523-.928 3.069-1.426 4.592-.293.893-.38 1.851-.65 2.754-.359 1.203-.792 2.383-1.214 3.566-.435 1.22-.715 2.462-.94 3.745-.34 1.931-.337 3.951-1.23 5.766-.112.229-.26.44-.47.793.535-.131.728-.501.968-.784.963-1.128 1.936-2.249 2.858-3.409.571-.718 1.05-1.509 1.584-2.256.31-.433.671-.831.965-1.274.177-.267.272-.588.401-.886.076-.176.12-.372.227-.526.595-.857.992-1.799 1.344-2.78.301-.839.685-1.623 1.303-2.346.761-.891.957-2.136 1.334-3.253.122-.365.24-.733.398-1.083.506-1.117.991-2.247 1.56-3.332.584-1.117 1.295-2.168 1.883-3.283.892-1.693 1.76-3.4 2.567-5.135.316-.68.357-1.489.672-2.17.385-.829 1.012-1.472 1.752-2.071.82-.663 1.525-1.535 2.084-2.438.742-1.197 1.315-2.502 1.917-3.782.186-.396.23-.859.342-1.308.525-.162.886-.064.896.521.011.649.026 1.313-.087 1.949-.375 2.111-.759 4.222-1.472 6.258-.419 1.197-.759 2.421-1.154 3.626-.11.335-.082.755-.595.885-.15.038-.249.443-.3.694-.267 1.311-.847 2.454-1.712 3.474a4.35 4.35 0 0 0-.769 1.267c-.845 2.274-2.114 4.211-4.067 5.711a22.684 22.684 0 0 0-3.026 2.776c-.679.753-1.136 1.707-1.68 2.579-.065.105-.053.258.101.508.328-.279.672-.542.981-.841.804-.779 1.941-.867 2.856-1.408.315-.186.595-.434.877-.67.638-.535 1.265-1.083 1.902-1.62.903-.761 1.803-1.526 2.718-2.274 1.545-1.26 3.055-2.575 4.812-3.544 1.33-.735 2.644-1.532 4.053-2.075.687-.265 1.575-.037 2.368.019.265.018.47.318.79-.024.131-.14.588-.036.875.042.511.141.995.383 1.508.516 1.311.338 2.6.065 3.884-.209.507-.109 1.017-.205 1.516-.305.184.622-.107.85-.46 1.053-1.189.686-2.367 1.392-3.565 2.064-1.436.806-2.89 1.58-4.329 2.382a2.004 2.004 0 0 0-.618.511c-.676.89-1.62 1.369-2.624 1.746-1.957.736-3.928 1.438-5.883 2.179-.41.156-.8.393-1.165.645-.936.649-1.928 1.052-3.094 1.108-1.373.067-2.743.417-4.106.378-1.9-.053-3.01 1.284-4.397 2.153-.157.098-.285.263-.39.421-1.338 2.013-2.627 4.06-4.02 6.033-.81 1.148-1.798 2.171-2.683 3.268a9.078 9.078 0 0 0-.888 1.318c-.497.897-.939 1.825-1.427 2.728-.61 1.132-.563 2.412-.858 3.615-.37 1.508-.826 2.998-1.137 4.517-.32 1.567-.515 3.161-.757 4.745-.034.224.035.475-.039.68-.464 1.292-.262 2.644-.393 3.966-.098.987-.215 1.974-.309 2.962-.027.281-.005.567.15.874.131-.351.32-.692.388-1.055.253-1.371.753-2.637 1.607-3.735 1.21-1.555 1.758-3.38 2.275-5.232.593-2.129 1.22-4.25 1.861-6.365.097-.317.336-.603.548-.872 1.141-1.443 2.334-2.844 3.788-3.984.624-.488 1.334-.866 2-1.302 1.795-1.176 3.293-2.638 4.354-4.523.073-.13.206-.225.312-.338.675-.034.832.481.758.907-.254 1.452-.363 2.91-1.38 4.188a7.682 7.682 0 0 0-1.637 4.002c-.099.944-.343 1.873-.52 2.809-.016.076-.012.163-.049.225-1.13 1.874-1.744 4.079-3.572 5.505a190.93 190.93 0 0 0-3.749 3.019c-.444.363-.872.752-1.267 1.167-.846.891-2.042 1.31-2.854 2.282-.906 1.084-1.647 2.138-1.87 3.611-.173 1.138-.79 2.208-1.207 3.309-.569 1.502-1.014 3.03-.492 4.634.461 1.418.29 2.879.365 4.32.048.888-.11 1.784-.129 2.677-.047 2.137-.144 4.277-.076 6.412.067 2.099.37 4.191.464 6.291.12 2.693.695 5.305 1.232 7.928.016.075.063.149.058.22-.085 1.185.26 2.31.462 3.456.137.778.09.917-.412 1.78-.614-1.873-.763-3.683-1.068-5.46-.31-1.798-.656-3.59-1.15-5.396-.032.18-.097.361-.089.54.07 1.52.165 3.039.22 4.559.017.454-.13.915-.099 1.365.083 1.18.145 2.345.705 3.462.307.611.29 1.412.313 2.131.036 1.14-.013 2.284-.037 3.426-.007.289-.058.576-.113 1.085-.485-.668-.513-1.236-.549-1.778-.08-1.182-.1-2.369-.173-3.552-.02-.346-.034-.767-.229-1.013-.57-.721-.627-1.542-.63-2.386-.009-1.598.036-3.196 0-4.793-.048-2.23-.149-4.459-.229-6.688-.007-.192-.087-.404-.03-.571.46-1.343.017-2.648-.112-3.97-.15-1.555-.224-3.118-.345-4.676-.085-1.098-.212-2.193-.287-3.291-.102-1.501-.256-3.006-.226-4.506.02-.901.376-1.791.528-2.694.19-1.122.42-2.25.46-3.381.091-2.682.116-5.369.1-8.053a93.512 93.512 0 0 0-.225-5.602c-.08-1.224-.293-2.439-.439-3.659-.103-.862.045-1.77-.404-2.568-.22-.391-.455-.862-.814-1.071-1.107-.648-2.286-1.171-3.418-1.777-.393-.211-.824-.459-1.07-.807-.317-.448-.8-.069-1.173-.448-1.139-1.158-2.185-2.249-2.35-4.04-.128-1.382-.662-2.736-1.09-4.077-.238-.74-.293-.834.46-1.255 1.272-.712 2.047-1.722 2.293-3.195.212-1.264.906-2.231 2.262-2.683.127.15.316.299.41.494.522 1.076 1.573 1.261 2.562 1.521.557.147.991-.008 1.363-.561.566-.841 1.445-.778 1.81.181.57 1.495 1.016 3.046 1.397 4.602.557 2.276.371 4.629.548 6.944.03.397-.155.808-.227 1.214-.235 1.328-1.034 2.436-1.437 3.699a5.818 5.818 0 0 0-.208 2.816c.216 1.272.284 2.57.388 3.859.072.909.098 1.82.153 2.901.137-.294.248-.455.288-.632.35-1.573.832-3.134.993-4.727.3-2.982 1.157-5.837 1.738-8.753.225-1.126.377-2.267.606-3.392.183-.899.322-1.83.674-2.666.587-1.392.586-2.828.62-4.281.012-.57.016-1.179.213-1.698.573-1.522.3-3.027.101-4.553-.338-2.595-1.47-4.879-2.657-7.155-.812-1.561-1.546-3.164-2.354-4.728-.468-.906-.972-1.8-1.535-2.648-.473-.712-.782-1.453-.874-2.3-.107-.997-.498-1.889-1.396-2.375-1.53-.83-2.216-2.215-2.557-3.783-.325-1.495-.517-3.026-.674-4.55-.07-.698.084-1.419.131-2.053.814-.489 1.455-.164 2.094.087.73-1.19 1.093-2.568 1.926-3.712.211.111.37.141.391.213.368 1.241 1.314 2.13 1.946 3.209.738 1.26.6 2.58.363 3.901-.42 2.372-.929 4.729-1.332 7.103-.243 1.436.02 2.793.844 4.054.65.993 1.162 2.077 1.74 3.118.9 1.626 1.805 3.25 2.922 4.839-.032-.922-.096-1.844-.089-2.766.007-.957.03-1.919.141-2.867.212-1.792.86-3.463 1.464-5.154.476-1.329.811-2.719.57-4.172-.046-.281.051-.586.108-1.139.442.357.76.54.981.804 1.082 1.291 1.474 2.787 1.395 4.471-.05 1.075-.224 2.096-.469 3.146-.3 1.289-.383 2.66-.35 3.99.082 3.278-.449 6.46-1.222 9.622-.119.488-.093 1.011-.135 1.517l.244.076c.133-.159.334-.297.39-.479.23-.771.417-1.555.62-2.333.376-1.445.738-2.894 1.132-4.334.302-1.104.622-2.205.975-3.294.185-.571.515-1.097.68-1.672.48-1.686.51-3.406.391-5.153-.153-2.257-.16-4.524-.28-6.785-.042-.798-.113-1.633-.387-2.37-.29-.775-.127-1.515-.115-2.26.02-1.243.19-2.484.257-3.728.023-.417-.05-.843-.114-1.259-.245-1.591-.332-3.185-.373-4.797-.036-1.467.015-2.904.248-4.343.11-.676.13-1.382.348-2.021.458-1.326-.17-2.23-1.053-3.039-.592-.542-1.262-.996-1.888-1.501-.228-.185-.476-.372-.637-.61-.857-1.261-1.453-2.715-1.499-4.17-.043-1.377-.62-2.446-1.045-3.645-.605-1.711-1.237-3.491.066-5.3.31.09.627.184.947.274.536.15.948-.113 1.398-.358.587-.32.394-.769.424-1.27.047-.772.326-1.532.521-2.294.026-.101.141-.254.217-.255.755-.018 1.481-.593 2.267-.091.403.256.85.444 1.276.662.547.279 1.056.31 1.618-.041.463-.29 1.01-.261 1.537-.071 1.074.387 2.023.237 3.001-.43.668-.455 1.53-.653 2.33-.873.21-.058.562.177.764.367.184.173.247.472.374.71.353.663.838 1.184 1.623 1.274.578.065.737.415.84.915.204.998.06 1.964-.11 2.947-.262 1.505-.272 3.065-1.155 4.409-.94 1.432-1.625 3.006-2.45 4.496-.668 1.203-1.59 2.275-2.977 2.838-.573.232-1.087.684-1.537 1.129-1.044 1.029-2.352 1.754-3.084 3.155-.78 1.495-1.334 3.002-1.332 4.684.001 1.551-.002 3.107.11 4.652.106 1.463.321 2.922.558 4.371.305 1.869.158 3.731.057 5.601a25.5 25.5 0 0 0 .003 2.806c.106 1.87.283 3.735.387 5.605.03.517-.096 1.042-.05 1.592.627-.769 1.07-1.606 1.144-2.602.125-1.668.378-3.34.33-5.003-.07-2.343.488-4.599.69-6.901.15-1.699.444-3.39.786-5.062.152-.738.556-1.43.894-2.119.216-.441.523-.837.787-1.253a39.31 39.31 0 0 1 3.8-5.01c1.043-1.174 1.998-2.39 2.774-3.773.571-1.018 1.398-1.893 2.103-2.82.623-.039.732.351.731.812-.003.57.024 1.149-.06 1.71-.09.601-.213 1.223-.47 1.765-.59 1.242-1.313 2.422-1.907 3.661-.98 2.045-1.925 4.107-2.019 6.438-.019.476-.166.946-.066 1.512.667-1.041 1.43-2.034 1.981-3.133 1.401-2.787 2.946-5.47 5-7.837.593-.685 1.27-1.336 1.701-2.117.47-.85.874-1.81 1.002-2.764.346-2.578.904-5.12 1.268-7.687.23-1.629.611-3.157 1.22-4.66.182-.451-.037-1.631-.216-2.169-.323-.964-.572-1.951-.85-2.928-.064-.22-.103-.449-.19-.658-.976-2.275-1.26-4.654-1.049-7.099.192-2.209.008-4.35-1.013-6.362-1.032-2.036-1.078-4.117-.352-6.259.206-.608.27-1.264.415-1.894.145-.621.313-1.237.454-1.79.563-.143.857.011.843.455-.029.917.41 1.639.875 2.364.855 1.334 1.68 2.689 2.562 4.006.484.721.708 1.498.883 2.338.291 1.403.406 2.757 0 4.176-.282.98-.258 2.042-.436 3.056-.279 1.578-.687 3.136-.899 4.722-.15 1.125-.102 2.282-.063 3.422.01.257.347.504.53.748.157-.103.265-.135.277-.188.282-1.216.634-2.422.805-3.653.242-1.741 1.155-3.158 2.006-4.61.501-.855 1.103-1.651 1.613-2.502 1.106-1.843 2.172-3.71 3.278-5.553.253-.42.585-.796.91-1.166 1.124-1.28 2.184-2.631 3.422-3.792.818-.768 1.898-1.258 2.86-1.873.415-.265.863-.49 1.237-.804 1.184-.993 2.316-2.042 3.293-3.248.102-.126.304-.172.535-.295.512 1.2.456 2.332-.133 3.358-1.255 2.184-2.539 4.355-3.919 6.461-1.497 2.286-3.436 4.171-5.669 5.759-.519.369-.923.904-1.366 1.375-1.409 1.498-2.802 3.01-4.219 4.501-.63.662-1.306 1.28-1.953 1.926-.102.103-.168.247-.235.379-.034.066-.01.165-.05.223-1.069 1.514-1.368 3.361-2.153 5.005-.6 1.26-.813 2.707-1.192 4.072-.284 1.026-.555 2.055-.836 3.082-.04.146-.125.283-.149.431-.393 2.436-.779 4.872-.989 7.386l2.667-2.628c-.328-.118-.89.414-.96-.203.96-.851 1.888-1.673 2.814-2.499.085-.077.162-.168.223-.264.891-1.412 1.79-2.819 2.665-4.241.802-1.301 1.524-2.653 2.375-3.92a71.977 71.977 0 0 1 3.158-4.334c.985-1.254 2.067-2.432 3.11-3.64.15-.174.295-.372.485-.487 2.04-1.228 3.716-2.98 5.864-4.048.067-.033.112-.126.18-.142 1.327-.315 2.235-1.286 3.266-2.069.992-.755 1.72-1.721 2.398-2.75.416-.634.915-1.217 1.403-1.8 1.227-1.469 2.57-2.854 3.677-4.407 1.076-1.509 1.99-3.14 2.775-4.841.522-1.131 1.273-2.157 1.931-3.224.52-.843.95-1.771 1.603-2.497 1.291-1.433 1.388-3.133 1.451-4.906.088-2.46.778-4.687 2.474-6.598.821-.925 1.357-2.11 1.975-3.205.504-.892.733-1.945 1.543-2.658.223-.196.476-.356.86-.639l.851 2.066c.258-.104.532-.222.811-.328.646-.244 1.113-.129 1.386.489.225.508.647.624 1.07.79 1.03.405 1.955.913 2.203 2.198.421-.045.822-.072 1.217-.135.563-.089.894.063 1.009.621.154.74.208 1.516-.303 2.149-.905 1.119-1.487 2.502-2.633 3.413-.67.534-1.43 1.014-2.225 1.33-2.227.884-4.524 1.597-6.733 2.523-1.285.539-2.565 1.215-3.28 2.552-.09.166-.194.343-.337.458-1.59 1.289-2.452 3.087-3.368 4.838-1.33 2.541-2.62 5.103-4.338 7.417a1.906 1.906 0 0 0-.344.88c.853-.824 1.661-1.701 2.568-2.461a71.835 71.835 0 0 1 3.905-3.024 192.175 192.175 0 0 1 4.895-3.42c.97-.662 1.976-1.269 2.957-1.914 1.244-.82 2.467-1.67 3.722-2.473.732-.469 1.503-.88 2.264-1.3 1.544-.852 3.083-1.712 4.645-2.529.609-.32 1.29-.502 1.909-.806.396-.194.928-.423 1.063-.767.213-.548.582-.766 1.035-.985.784-.38 1.6-.715 2.329-1.183.633-.405 1.165-.966 1.737-1.464.488-.424.942-.878 1.66-.914.181-.01.367-.248.519-.41.69-.729 1.454-1.336 2.449-1.598 1.124-.297 1.993-1.07 2.701-1.875.81-.921 1.841-1.482 2.761-2.216.477-.381 1.043-.625 1.037-1.389-.002-.194.321-.392.499-.585.519-.56 1.073-1.09 1.546-1.687.276-.347.494-.778.613-1.206.699-2.508 2.245-4.289 4.531-5.485.708-.37 1.372-.824 2.051-1.248.227-.141.419-.382.661-.443.302-.076.667-.092.955.009.442.153.447.605.383.983-.057.329-.226.638-.377 1.043l1.086.066c.254.865-.252 1.531-.593 2.212-.163.329-.502.566-.745.858-.221.264-.492.518-.615.827-.582 1.461-1.622 2.469-3.043 3.061-.51.213-1.106.233-1.666.312-.568.08-1.152.075-1.709.198-.784.173-1.386.561-1.943 1.243-.775.95-1.831 1.674-2.773 2.487-.565.489-1.143.963-1.823 1.533 1.634-.102 3.07-.337 4.485-.247 2.081.132 3.97-.414 5.861-1.138 1.8-.689 3.396-1.704 4.918-2.863.576-.438 1.228-.774 1.819-1.194.805-.571 1.619-1.136 2.367-1.778 1.559-1.339 3.45-1.983 5.328-2.665.428-.155.86-.307 1.303-.407a8.773 8.773 0 0 1 1.459-.221c.75-.042 1.505-.052 2.256-.027.745.024 1.557-.062 2.219.202 1.592.635 3.245.777 4.91.922 1.092.095 2.217.449 3.273.049.69-.261 1.162-.057 1.757.251-.119.595-.567.81-1.041.939-2.135.578-4.259 1.214-6.421 1.671-1.818.385-3.677.716-5.527.775-2.224.071-4.454.365-6.699-.023-1.144-.198-2.263.308-3.292.841-.983.51-1.91 1.117-2.671 1.941l.007.039.146-.926-.185-.048-.406.498.036-.051z" fill="#687E6B"/></g><defs><clipPath id="a"><path fill="#fff" d="M0 0h217v214H0z"/></clipPath></defs></svg>