<svg width="197" height="214" fill="none" xmlns="http://www.w3.org/2000/svg"><g clip-path="url(#a)"><path fill-rule="evenodd" clip-rule="evenodd" d="M148.358 140.823c.462-1.638 1.127-3.203 1.691-4.801 1.24-3.525 2.509-7.096 2.324-10.932-.097-1.999-.379-3.989-.493-5.989a67.664 67.664 0 0 1-.093-5.233c.027-1.301.213-2.597.32-3.895.142-1.695.831-3.222 1.438-4.775.033-.082.091-.159.103-.244.377-2.551 1.682-4.792 2.427-7.221.31-1.007.72-1.999 1.481-2.787.153-.157.284-.344.393-.534 2.054-3.603 4.979-6.508 7.681-9.591.262-.298.566-.581.745-.926.31-.599.688-1.059 1.281-1.443.656-.426 1.159-1.086 1.735-1.639.185-.178.363-.402.588-.496.644-.267 1.348-.684 2.005-.212.69.496.919 1.318.783 2.129-.278 1.647-.59 3.293-.998 4.912-.557 2.219-1.367 4.379-1.506 6.692-.002.044.011.091.002.132-.581 2.299-1.14 4.605-1.751 6.896-.433 1.623-.853 3.258-1.431 4.831-.711 1.935-1.09 3.984-2.233 5.776-.987 1.546-1.719 3.251-2.61 4.86-.316.571-.742 1.09-1.16 1.598-1.646 1.997-3.322 3.966-4.956 5.972-.662.813-1.039 1.825-1.895 2.527-.32.263-.366.87-.521 1.326-.985 2.876-1.989 5.742-2.559 8.746-.19 1.005-.451 2.026-1.234 2.838-.28.29-.245.875-.377 1.318-1.012 3.403-.962 6.83-.495 10.324.467 3.49 1.117 6.931 2.046 10.32.303 1.11.775 2.176 1.203 3.25a151.768 151.768 0 0 0 1.775 4.28c.226.52.487 1.051.845 1.482 1.009 1.212 2.103 2.353 3.115 3.562 1.3 1.553 2.504 3.188 3.842 4.707 1.188 1.348 2.493 2.592 3.76 3.868.652.657 1.333 1.286 2.003 1.926 2.163 2.064 4.31 4.144 6.495 6.185 1.593 1.488 3.239 2.917 4.854 4.38 1.892 1.714 3.82 3.391 5.65 5.168 1.542 1.497 3.017 3.062 4.293 4.814.719.988 1.636 1.836 2.489 2.723 1.492 1.554 3.012 3.083 4.495 4.646.162.17.165.491.242.741l-.247.165c-.575-.498-1.198-.951-1.718-1.502-2.635-2.785-5.44-5.402-7.809-8.452-1.278-1.647-2.999-2.953-4.523-4.41a658.965 658.965 0 0 0-3.832-3.642c-.079-.075-.227-.076-.522-.166.174.305.247.49.367.636 1.584 1.931 3.199 3.837 4.753 5.792.794.997 1.439 2.112 2.228 3.114 1.221 1.556 2.605 2.992 3.735 4.609.949 1.357 2.226 2.525 2.692 4.196.034.121.027.253.053.548-.286-.141-.548-.182-.652-.332-1.754-2.503-3.595-4.926-5.645-7.207-2.182-2.428-4.508-4.692-6.904-6.901-1.457-1.341-2.735-2.877-4.12-4.299-.761-.784-1.6-1.492-2.362-2.275a990.744 990.744 0 0 1-7.917-8.222c-1.607-1.695-3.223-3.389-4.72-5.18-2.695-3.223-5.305-6.511-7.694-9.977-1.597-2.318-3.407-4.489-5.085-6.753-1.259-1.7-2.405-3.488-3.704-5.157-1.275-1.638-2.717-3.145-4.012-4.769-.767-.961-1.418-2.02-2.076-3.063-1.652-2.625-3.649-4.972-5.812-7.175-.671-.684-1.514-1.197-2.257-1.815-1.341-1.117-2.607-2.31-3.854-3.537-1.402-1.379-3.102-2.457-4.69-3.644a112.947 112.947 0 0 0-3.838-2.764c-.528-.361-1.142-.594-1.861-.958-.064 1.382-1.118 1.406-1.887 1.621-.959.267-2.003.451-2.985.367-2.935-.251-5.857-.46-8.758-1.215-2.897-.754-5.479-2.232-8.33-3.035a65.469 65.469 0 0 1-4.647-1.52c-3.938-1.438-7.813-3.02-11.541-4.96-2.308-1.2-4.755-2.146-7.005-3.441-2.51-1.445-4.964-3.042-6.754-5.415-.829-1.098-.525-1.882.817-2.151 1.729-.345 3.48-.281 5.213-.107 2.489.249 4.977.548 7.448.934 1.738.271 3.452.7 5.168 1.099 2.142.497 4.275 1.036 6.411 1.557.043.011.088.013.132.021l4.492.839c-.222-.17-.476-.375-.741-.564-2.911-2.077-5.82-4.157-8.737-6.224-1.295-.916-2.606-1.808-3.915-2.704-1.887-1.29-3.802-2.539-5.659-3.871-1.072-.769-2.046-1.67-3.076-2.498a9.807 9.807 0 0 0-1.176-.833c-1.413-.829-2.704-1.781-3.723-3.097-.454-.584-1.059-1.052-1.606-1.562-1.636-1.526-3.247-3.08-4.924-4.559-1.686-1.485-3.443-2.889-5.161-4.337-.539-.453-1.029-.966-1.582-1.398-.62-.485-1.252-.97-1.937-1.347-1.895-1.043-3.82-2.027-5.73-3.04-.389-.206-.756-.45-1.145-.653-.311-.163-.626-.354-.962-.422-1.294-.266-2.607-.442-3.893-.736-2.569-.591-5.149-1.157-7.677-1.894-1.459-.426-2.826-1.167-4.235-1.765-1.86-.79-3.785-1.455-5.567-2.392-3.614-1.902-7.131-3.988-10.726-5.926-2.294-1.236-4.178-3.001-6.214-4.571-.199-.154-.299-.428-.484-.606-.492-.472-.831-1.054-1.51-1.404-.58-.298-.975-1.001-1.381-1.574-.318-.45-.029-1.059.321-1.11.782-.113 1.558-.775 2.394-.174.068.049.174.104.243.085 1.267-.34 2.43.237 3.627.438 1.376.231 2.732.597 4.088.937.99.249 1.986.498 2.943.844 1.991.721 3.998 1.419 5.923 2.293a47.177 47.177 0 0 1 4.997 2.651c1.41.859 2.41 2.12 3.736 2.995 1.752 1.156 3.339 2.571 5.362 3.32.852.314 1.563.988 2.387 1.404 2.365 1.195 4.406 2.876 6.421 4.532 1.357 1.116 2.602 2.245 4.217 3.054 1.364.684 2.42 1.978 3.614 3 .201.172.397.354.616.501 1.999 1.344 4.029 2.642 5.994 4.032 1.371.969 2.668 2.045 3.973 3.105 1.263 1.027 2.482 2.107 3.742 3.139.853.699 1.746 1.348 2.615 2.028 3.091 2.417 6.185 4.83 9.265 7.26.932.736 1.822 1.526 2.737 2.284.146.121.325.203.661.131l-6.482-9.548c-.336.774-.894.808-1.598.571a10.54 10.54 0 0 1-4.446-2.901c-1.23-1.337-2.564-2.595-3.445-4.229-.218-.405-.673-.676-.981-1.041-1.103-1.308-2.266-2.576-3.26-3.964-1.022-1.426-1.87-2.977-2.8-4.47-.234-.375-.428-.804-.746-1.092-.803-.727-.976-1.766-1.37-2.674-.959-2.212-1.761-4.491-2.681-6.722-1.041-2.524-2.282-4.975-3.176-7.549-.792-2.28-2.303-4.277-2.593-6.741-.05-.421-.389-.958.078-1.21.376-.203.936-.186 1.386-.106.866.155 1.376.844 1.967 1.443 1.113 1.131 2.329 2.161 3.483 3.254.382.363.701.791 1.054 1.186 2.365 2.652 4.753 5.286 7.085 7.967.574.66.939 1.496 1.456 2.21 2.29 3.168 4.678 6.268 6.874 9.5 1.377 2.026 2.406 4.264 3.318 6.564.675 1.699.904 3.478 1.339 5.215a4.717 4.717 0 0 1-.173 2.712c-.37.943-.127 1.637.456 2.164 1.965 1.771 3.294 4.051 4.987 6.035 1.431 1.677 2.863 3.352 4.285 5.038.731.866 1.418 1.769 2.164 2.621a78.976 78.976 0 0 0 2.513 2.727c1.527 1.591 3.061 3.179 4.989 4.305.648.378 1.294.79 1.992 1.043 3.692 1.336 7.335 2.764 10.603 4.992.398.271.736.63 1.134.901 2.123 1.443 3.758 3.421 5.565 5.198.772.76 1.676 1.227 2.485 1.863 1.141.898 2.531 1.411 3.541 2.524.634.699 1.527 1.174 2.332 1.706 1.892 1.254 3.441 2.897 5.097 4.421 1.295 1.192 2.598 2.377 4.022 3.49-.222-.469-.406-.961-.673-1.402a50.983 50.983 0 0 1-3.652-7.325c-.691-1.713-1.615-3.33-2.383-5.012-.434-.95-.719-1.97-1.154-2.92-.509-1.111-1.107-2.183-1.67-3.27-1.113-2.146-2.268-4.273-3.334-6.443-1.302-2.652-2.593-5.314-3.778-8.02-1.607-3.671-3.07-7.407-4.67-11.083-1.129-2.594-2.394-5.129-3.574-7.703-.312-.681-.487-1.427-.807-2.105a60.941 60.941 0 0 0-1.851-3.651c-.834-1.5-1.735-2.962-2.699-4.599-1.325.029-2.747.067-4.17.091-2.11.036-4.222.035-6.331.105-1.022.034-1.857-.491-2.756-.798-.812-.277-1.521-.844-2.32-1.178a12.123 12.123 0 0 0-2.399-.746c-2.122-.405-4.259-.724-6.385-1.106-.454-.081-.903-.243-1.329-.427-1.905-.82-3.624-1.944-5.204-3.278-.366-.309-.67-.689-.994-1.044-1.252-1.373-2.368-2.906-3.783-4.082-1.654-1.374-2.815-3.159-4.359-4.616-1.184-1.118-2.065-2.503-2.419-4.179-.298-1.41-.871-2.77-1.077-4.187-.155-1.062-.06-2.213.183-3.264.231-.995 1.174-1.362 2.225-1.436l-.605-1.658.58-1.048c-.667-1.432-1.272-2.88-2.004-4.26-.627-1.185-.596-2.472-.731-3.72-.107-.993.132-2.02.128-3.03-.005-1.491.603-2.76 1.461-3.874.833-1.078 1.837-2.03 2.809-2.994 1.754-1.742 3.646-3.348 5.08-5.399.342-.489.878-.861 1.371-1.223.817-.598 1.616-1.277 2.531-1.67.681-.292 1.541-.289 2.308-.234 1.547.11 3.069.394 4.421 1.476-.06-.311-.085-.633-.184-.93-.293-.884-.024-1.589.698-2.099.533-.377 1.118-.691 1.706-.979.711-.349 1.434-.685 2.18-.946.721-.252 1.222-.742 1.561-1.362.49-.893 1.14-1.658 1.722-2.478 1.289-1.815 3.005-2.452 5.222-2.335.137-.346.338-.737.445-1.153.28-1.09.971-1.706 2.047-1.976 1.511-.381 2.956-.991 4.553-1.074 1.488-.079 2.963-.39 4.451-.502 2.456-.186 4.615.533 6.354 2.338.273.284.53.582.88.968.494-.57.962-1.076 1.39-1.613a9.286 9.286 0 0 1 2.588-2.229c.521-.306.971-.734 1.491-1.046 1.651-.987 3.349-1.789 5.376-1.476 1.856.286 3.695-.107 5.522-.343 2.613-.338 4.995.071 7.457 1.112 2.155.912 3.227 2.53 4.283 4.166 1.413.508 2.771.985 4.117 1.493.233.088.413.313.62.473.902.7 1.755 1.475 2.717 2.08 1.631 1.026 2.621 2.455 3.009 4.308.249 1.191.495 2.394.595 3.604.061.756-.122 1.541-.252 2.303-.094.558-.343 1.093-.4 1.651-.029.299.164.646.324.933.428.771.886 1.526 1.344 2.279 1.379 2.268.879 4.625.228 6.935-.356 1.263-.909 2.488-1.519 3.655-.935 1.788-1.982 3.518-3.01 5.256-.365.617-.811 1.187-1.412 2.057 1.102-.637 2.086-.537 2.948-.757 1.965-.503 3.717-1.565 5.123-3.096.117-.128.179-.313.308-.42a13.504 13.504 0 0 0 4.233-5.939c.423-1.155 1.007-2.251 1.515-3.374.559-1.234 2.388-2.18 3.711-1.84.344.088.719.376.914.68a120.986 120.986 0 0 1 2.677 4.406c.146.25.101.604.182.899.524 1.911 1.108 3.796 1.231 5.803.153 2.479-.077 4.889-.596 7.321-.484 2.262-1.637 4.182-2.642 6.184a9.259 9.259 0 0 1-1.516 2.161c-1.361 1.448-2.925 2.65-4.624 3.709-1.894 1.182-3.863 2.261-5.484 3.869-.698.693-1.644 1.198-2.561 1.597-1.436.627-2.88 1.266-4.427 1.612-2.102.472-4.203.945-6.296 1.45-1.372.333-2.72.767-4.096 1.083-1.937.445-3.854.952-5.63 1.853-.852.433-1.61 1.046-2.426 1.555-1.117.696-2.193 1.494-3.386 2.027-1.843.824-3.638 1.859-5.737 1.96-1.934.094-3.868.184-5.891.28-.537 1.336-.97 2.761-.723 4.372.198 1.299.121 2.637.21 3.954.211 3.113 1.206 6.054 2.155 8.981.704 2.167 1.72 4.236 2.655 6.323.684 1.528 1.521 2.986 2.181 4.523.64 1.489 1.101 3.053 1.714 4.556.499 1.223 1.024 2.449 1.683 3.588.826 1.429 1.312 2.976 1.899 4.494.522 1.348 1.198 2.635 1.767 3.967.462 1.082.807 2.217 1.307 3.279.655 1.39 1.396 2.74 2.126 4.092 1.816 3.363 3.654 6.716 5.462 10.083.227.422.3.923.496 1.365.875 1.974 1.704 3.972 2.684 5.894.468.917 1.235 1.682 1.865 2.518 1.033 1.37 2.046 2.754 3.1 4.109 1.313 1.69 2.711 3.318 3.978 5.043 1.332 1.81 2.549 3.706 3.828 5.557.273.395.592.76.985 1.26.257-.637.247-1.162.02-1.616-.731-1.465-.735-3.082-.987-4.636-.402-2.472-.656-4.969-.933-7.462-.199-1.791-.259-3.6-.514-5.382-.437-3.058-.976-6.101-1.476-9.149-.39-2.382-.756-4.768-1.193-7.142-.293-1.592-.614-3.188-1.078-4.736-.218-.728-.809-1.342-1.214-2.017-.249-.414-.518-.827-.688-1.276-.602-1.588-1.492-3.004-2.488-4.364-.261-.356-.52-.729-.69-1.132-1.183-2.804-2.308-5.616-2.751-8.674-.346-2.386-.991-4.729-1.406-7.108-.21-1.204-.319-2.45-.272-3.67.117-2.994.081-5.98-.046-8.974-.028-.653.341-1.346.614-1.984.323-.752.692-.869 1.304-.417.38.281.752.655.965 1.071 1.041 2.031 1.891 4.175 3.087 6.106.718 1.158.705 2.659 1.832 3.579.089.072.142.236.146.36.055 1.496.95 2.722 1.316 4.119.356 1.355.826 2.68 1.185 4.035.451 1.701.879 3.409 1.246 5.129.316 1.485.438 3.014.817 4.48.517 1.998.482 4.02.487 6.042.003 1.185-.262 2.369-.257 3.554.01 2.586-.383 5.171.002 7.757.265 1.777.655 3.557.687 5.34.03 1.653.39 3.205.768 4.775.07.288.268.546.417.813zm-11.538-43.41c-.173-2.792-.763-5.444-1.639-8.039a.91.91 0 0 0-.185.522c-.038 1.354-.105 2.707-.077 4.06.008.388.254.796.465 1.15.306.514.693.981 1.02 1.484.166.256.279.548.416.823zm19.381 16.823.217.017c.133-.222.31-.429.39-.668.542-1.633 1.075-3.27 1.588-4.911.618-1.975 1.014-4.026 2.073-5.845.262-.452.518-.91.748-1.38 1.119-2.285 1.879-4.732 3.238-6.915.395-.633.543-1.471.627-2.234.191-1.748.197-3.517.669-5.231.033-.12-.054-.273-.124-.585-.873.989-1.652 1.819-2.373 2.696-1.503 1.831-3.197 3.515-4.293 5.662-.439.858-1.105 1.614-1.462 2.5-.729 1.799-1.305 3.659-1.969 5.485-.505 1.389-.639 2.763-.326 4.243.41 1.935.632 3.91.918 5.871.061.427.055.864.079 1.295zm-56.997 4.162c1.765 1.578 3.542 3.142 5.291 4.739.502.459 1.054.701 1.701.916 1.364.454 2.667 1.091 4.19 1.735-3.062-3.659-6.769-6.001-11.182-7.39zm23.255-46.9c.884-.552 1.779-.768 2.38-1.549.282-.366.748-.635 1.184-.83 1.361-.61 2.725-1.227 4.131-1.723 1.276-.449 2.604-.752 3.914-1.102 2.466-.658 4.912-1.409 7.407-1.932 3.469-.726 6.688-1.872 9.472-4.176a39.707 39.707 0 0 1 5.308-3.713c1.572-.916 2.788-2.138 3.934-3.482.141-.165.21-.39.366-.688-1.847.508-3.507 1.12-5.221 1.399-2.393.39-4.725.925-7.025 1.699-2.353.792-4.864.354-7.282.709-.606.089-1.243.218-1.832.122-1.586-.259-2.848.267-3.963 1.34-.25.241-.567.415-.861.61-1.585 1.052-3.107 2.156-4.288 3.702-.826 1.082-1.844 2.014-2.752 3.035-.786.884-1.594 1.757-2.291 2.709-.88 1.2-1.658 2.475-2.581 3.87zm-1.001 46.556c.074.186.158.372.151.554-.007.205-.18.405-.304.655.284.007.489.013.92.026l-.767-1.235zm49.524-36.607-.329-.211c-1.488 1.351-3.163 2.578-3.761 4.633-.467 1.611-1.029 3.229-.97 4.938l.269.085c1.597-3.149 3.195-6.296 4.791-9.445zm-78.753 40.086.029-.248c-.245-.093-.483-.208-.735-.273-1.533-.397-3.07-.782-4.605-1.171-2.815-.716-5.634-1.417-8.443-2.154a218.03 218.03 0 0 1-5.998-1.657c-1.042-.305-2.065-.682-3.083-1.064-1.063-.4-2.111-.837-3.161-1.269-.528-.217-1.045-.459-1.568-.69.194.47.494.717.802.952 1.888 1.438 3.739 2.911 6.016 3.759 1.472.548 2.943 1.196 4.258 2.043 1.386.892 2.937 1.382 4.365 2.148.261.14.6.191.902.186 1.231-.021 2.469-.01 3.691-.142 1.376-.147 2.809.161 4.127-.48.526.499 1.05.105 1.596.035.591-.077 1.204.01 1.807.025zm-4.985-90.735c.769 1.072.977 2.281 2.06 2.984.546-1.236 1.081-2.384 1.548-3.558.096-.241-.048-.585-.11-.875-.052-.244-.145-.477-.225-.726.741-.121.746-.118 1.104-.716.712-1.186 1.615-2.191 2.787-2.94.507-.324 1.015-.647 1.425-.907.068-.673-.526-1.207.029-1.731.118.049.242.061.27.118.171.346.319.702.547 1.221.638-.089 1.317-.179 1.995-.278.816-.121 1.627-.273 2.446-.368 1.134-.131 2.272-.222 3.408-.33.108-5.166.495-10.165 2.814-14.767-1.306-2.325-4.16-3.693-6.737-3.248-1.044.179-2.124.621-3.126.485-2.049-.276-3.785.499-5.568 1.194-.635.247-1.067.704-1.132 1.488-.067.81-.106 1.716-.498 2.38-.362.612-.178 1.079-.13 1.616.021.239.114.471.215.865-1.291-.892-1.099-2.401-1.906-3.473-.567.226-1.096.425-1.617.645-1.482.624-2.294 1.963-3.034 3.221-.896 1.524-2.126 2.396-3.707 3.008-.923.358-1.76.94-2.78 1.5.389.918.732 1.687 1.039 2.47.122.313.21.653.235.986.123 1.621.119 3.257.685 4.811.64 1.755 1.476 3.409 2.782 4.763a80.06 80.06 0 0 0 3.788 3.674c.689.625 1.499 1.117 2.351 1.74l.565-1.328c-1.251-1.927-1.592-2.763-1.523-3.924zm2.918-3.344c-.849-.817-1.297-1.585-1.165-2.688.67.581 1.113 1.565 1.165 2.688zm20.932 68.825.325-.164c-.447-2.71-2.14-4.907-2.927-7.209l-1.172-.071 3.774 7.444zm34.22 27.756.298-5.858-.308-.007c-.605 1.963-.952 3.933.01 5.865zM41.999 76.252c-1.69-2.126-6.954-5.758-8.915-6.325 1.334 1.278 2.522 2.705 3.986 3.74 1.502 1.061 3.275 1.739 4.929 2.585zm62.066 5.48c.347.353.337 1.062 1.106 1.001l-1.106-1.001zm17.249 36.023c-.375-1.18-.68-2.389-1.164-3.521-.568-1.327-1.307-2.58-1.978-3.863-.699-1.34-1.11-2.825-2.243-3.945-.561-.555-.902-1.332-1.342-2.009.588 3.22 1.847 6.102 3.795 8.674.346.457.649.948.952 1.435.665 1.072 1.319 2.151 1.98 3.229zm46.744-19.388-.232-.115c-1.057.986-2.07 2.023-3.179 2.947-1.75 1.46-2.857 3.365-3.616 5.426-.423 1.15-1.006 2.138-1.681 3.114-.197.283-.407.574-.522.893a363.844 363.844 0 0 0-2.379 6.741c-.254.75-.391 1.541-.581 2.312.978-.78 1.763-1.612 2.508-2.477.727-.845 1.538-1.541 2.553-2.053a3.571 3.571 0 0 0 1.399-1.328c1.572-2.698 2.957-5.485 3.7-8.553.257-1.06.658-2.084.967-3.132.369-1.254.71-2.516 1.063-3.775zm-95.14-5.586c-.434-.71-.858-1.319-1.196-1.971-.71-1.374-1.478-2.686-2.838-3.535-1.751-1.09-3.496-2.193-5.251-3.278-.198-.122-.446-.162-.916-.325.358.562.545.946.815 1.259.394.456.881.831 1.268 1.293.592.709 1.112 1.479 1.698 2.194 1.365 1.663 3.005 3.033 4.69 4.355.557.437 1.073.55 1.73.008zm10.333 12.643c-.377-.613-.548-1.428-1.39-1.59l-.224.24c.538.448 1.076.897 1.614 1.35zm77.417 10.833c-.306.289-.627.562-.912.869-.927.993-1.767 2.082-2.78 2.977-1.001.885-2.037 1.666-2.09 3.154-.007.172-.129.339-.199.509 1.776-2.694 4.32-4.739 5.981-7.509zm-25.606 29.428c.223.576.472 1.2 1.173 1.491l-1.173-1.491zm30.011 38.71-.262.247c5.15 5.474 10.653 10.602 15.924 15.985a1.38 1.38 0 0 0-.281-.694c-2.201-2.972-4.838-5.542-7.481-8.105-1.474-1.429-2.997-2.808-4.493-4.213-1.138-1.07-2.271-2.146-3.407-3.22zM49.785 54.707c.562.716 1.082 1.358 1.58 2.017.454.599.921 1.194 1.318 1.831.701 1.119 1.35 2.27 2.026 3.405.489.819.986 1.635 1.484 2.45.504.825 1.006 1.652 1.523 2.47.706 1.117 1.902 1.899 2.237 3.276.038.158.203.285.3.433.41.624.79 1.27 1.233 1.87.657.888 1.359 1.742 2.055 2.628-.385-1.782-.809-3.529-1.122-5.296-.144-.815-.43-1.519-.937-2.148-1.433-1.781-2.79-3.629-4.324-5.318-2.354-2.592-4.296-5.586-7.373-7.618zm109.718 52.946.317.144c.224-.455.477-.899.664-1.369.307-.77.519-1.58.861-2.332 1.016-2.239 2.99-3.646 4.696-5.28 1.384-1.325 2.578-2.746 3.013-4.695.546-2.452 1.195-4.881 1.749-7.332.32-1.418.541-2.858.806-4.289a60.039 60.039 0 0 0-3.063 5.421c-1.337 2.671-2.613 5.373-3.916 8.061-.443.912-.901 1.817-1.329 2.735-.744 1.594-1.505 3.183-2.197 4.802-.58 1.358-1.071 2.754-1.601 4.134zM82.32 65.666l.067-.315c-1.024-.329-2.035-.714-3.077-.971-1.68-.413-3.339-.843-4.728-1.946-.31-.248-.58-.57-.927-.739-1.949-.95-3.316-2.617-4.938-3.967-1.061-.881-2.032-1.872-3.093-2.753-.708-.588-1.538-1.031-2.252-1.614-.571-.466-1.126-.99-1.553-1.585-.839-1.168-1.584-2.402-2.362-3.598-1.552.408-1.892.733-1.65 2.186.277 1.671.885 3.288 1.147 4.96.377 2.406 1.921 3.985 3.665 5.361 1.992 1.571 4.314 2.541 6.815 3.084 2.021.439 4.084.703 6.02 1.521.896.38 1.885.421 2.869.173.375-.094.789-.069 1.182-.042.939.064 1.877.161 2.815.245zm-16.964-1.971c.228.527.272.814.437.98 1.266 1.27 2.54 2.533 3.843 3.764.595.563 1.339.981 1.878 1.586.987 1.109 2.313 1.622 3.618 2.069 1.314.45 2.739.585 4.118.838.862.157 1.763.485 2.585.353.783-.125 1.418.028 2.108.233.33.096.676.138 1.041.21l.038-.653c.888.396-.021.948.227 1.429 2.306 1.479 4.849 2.106 7.648 1.583l-.249-.705c1.688-.584 3.298.542 5.048.189l-1.082-.746 1.761-.07c-1.28-1.332-2.356-2.548-3.545-3.641-.461-.424-1.186-.556-1.778-.848a26.346 26.346 0 0 1-1.505-.817c-1.293-.746-2.574-1.513-3.877-2.243a2.056 2.056 0 0 0-.89-.243c-2.668-.111-5.336-.248-8.005-.272-1.325-.012-2.608-.05-3.895-.448-1.385-.427-2.822-.684-4.236-1.02-.498-.119-.999-.229-1.49-.373-1.171-.346-2.337-.709-3.798-1.155zm20.823 6.775 3.676.864c-1.176.47-2.329.215-3.676-.864zm1.754 3.816 2.306.641c-1.052.689-1.569.566-2.306-.641zm-7.256-5.697c1.264.126 2.466.436 3.438 1.426-.551-.222-1.093-.473-1.657-.656-.609-.2-1.239-.336-1.86-.5l.079-.27zm11.692 3.637c.599.057 1.208.093 1.65 1.002l-1.767-.748.117-.254zm61.103 51.229c2.375-5.373 2.285-10.832.742-16.518-.489.848-.792 1.602-.893 2.423-.122.992-.221 1.99-.287 2.988-.071 1.052-.15 2.111-.124 3.165.047 1.881.153 3.76.272 5.638.047.772.19 1.536.29 2.304zm-40.628 6.628c.08-.351.114-.606.2-.845.188-.52-.107-.82-.527-.823-1.613-.014-3.228.072-4.822.326-2.335.371-4.643 1.05-7.042.485-.042-.01-.114.108-.171.167 5.198 1.485 9.014 1.701 12.362.69zm-38.046-14.611c-.081-.104-.152-.216-.244-.308-1.682-1.667-3.805-2.665-5.831-3.805-.326-.182-.76-.209-1.148-.236a17.502 17.502 0 0 0-1.97-.042c-.756.032-1.509.13-2.499.22 3.871 1.932 7.607 3.404 11.692 4.171zM135.199 9.474c-.314-.223-.569-.323-.566-.414.029-.924.11-1.848.154-2.772.018-.343.109-.775-.056-1.016-.792-1.157-1.494-2.435-2.982-2.883-.253-.077-.523-.139-.742-.277-1.913-1.203-4.005-1.14-6.123-.88-1.438.178-2.87.398-4.31.561-.432.05-.891.036-1.315-.056-1.27-.276-2.51-.127-3.611.478-2.509 1.378-4.874 2.938-6.485 5.433-1.284 1.99-2.342 4.044-2.687 6.412-.107.739-.17 1.489-.338 2.213-.464 1.999-.384 4.011-.257 6.029.753.222 1.458.512 2.191.629.993.157 2.008.178 3.014.263.526.044 1.052.094 1.577.151.788.085 1.575.175 2.361.269.392.048.784.102 1.174.165.779.128 1.555.275 2.336.392.215.032.456.036.66-.027 1.458-.45 2.862-.363 4.204.491.15-2.24.15-2.24.584-2.594.347 1.165-.073 2.447.568 3.756 2.182-2.178 4.948-1.861 7.554-2.201.225-.559.404-1.106.67-1.608.085-.161.398-.203.607-.3.054.194.181.401.148.579-.066.346-.22.676-.337 1.013l.238.216c.954-.318 2.031-.456 2.836-.997 1.375-.925 2.655-2.027 3.827-3.201.703-.704 1.431-1.268 2.406-1.74l3.156 3.032c.087-.519.078-1.034.265-1.465.393-.908.366-1.8.156-2.73-.126-.559-.162-1.14-.295-1.699-.462-1.935-1.097-3.745-3.19-4.567-.435-.171-.771-.585-1.166-.865-.928-.657-1.825-1.369-2.806-1.933-1.414-.814-1.817-.716-3.117.392l-.303 1.751zM116.875 19.77c-.693-.356-.621-.881-.38-1.525.966.317.452.989.38 1.525zm.178 3.401c-.501-.611-.501-.611.06-1.115l-.06 1.115zm17.079-5.068c.378 1.099.262 1.919-.338 2.737-.409-.976-.352-1.521.338-2.737zm-46.28 18.912c-.999-.64-1.833-1.128-2.612-1.694-.382-.276-.618-.75-.993-1.04-1.84-1.421-3.329-3.178-4.633-5.064-1.318-1.907-2.106-4.048-2.149-6.424-.015-.817-.199-1.632-.282-2.268-.606-.123-1.019-.165-1.402-.295-.499-.168-.966-.425-1.46-.612-1.893-.712-3.718-.943-5.478.456-1.153.916-2.118 1.97-3.095 3.063-1.702 1.901-3.646 3.585-5.433 5.414-.732.748-1.464 1.559-1.948 2.473-1.332 2.516-1.244 5.299-.518 7.867.738 2.616 2.08 5.078 4.257 6.92.179.153.271.407.404.613l-.168.196-2.193-1.589c-.096.291-.279.763-.251.776.619.286.357.916.559 1.352 1.044 2.257 2.341 4.311 4.391 5.815 1.136.833 2.266 1.685 3.324 2.614 1.322 1.16 2.537 2.44 3.857 3.603.648.572 1.461.953 2.141 1.494 2.446 1.94 4.326 2.614 7.675 2.949-1.198-.68-2.569-.962-3.244-2.217 1.162.432 2.292.906 3.36 1.496 1.001.553 1.887 1.33 2.912 1.82 1.029.492 1.928 1.506 3.244 1.036.642.914 1.005 1.134 2.013 1.583.718.321 1.378.771 2.056 1.175.387.23.759.484 1.138.726l.201-.277-4.152-3.637.194-.258 2.488 1.65c-.376-1.156-.929-2.149-1.496-3.133-.237-.412-.423-.912-.777-1.184-1.084-.833-2.108-1.715-3.011-2.746-.256-.292-.61-.513-.948-.718-1.446-.878-2.802-1.948-4.579-2.127-.297-.03-.587-.196-.866-.329-1.631-.774-3.297-1.485-4.873-2.359-1.637-.908-2.408-2.488-2.72-4.268-.275-1.572-.371-3.158.516-4.61.337-.553.71-1.082 1.064-1.618-1.305-1.11-1.305-1.11-1.471-1.821l2.044 1.384c.382-.224.759-.437 1.129-.664 1.306-.796 2.478-1.876 4.171-1.819.346.011.7-.208 1.102-.338l-.99-1.685.237-.217c.368.309.764.59 1.097.932.484.496 1.016.903 1.732.788a18.995 18.995 0 0 0 2.361-.556c.322-.095.695-.282.876-.543.443-.644.788-1.355 1.199-2.085zM76.311 55.867l2.51 2.39c-1.031-.023-1.873-.775-2.51-2.39zm.517-20.769-1.731-1.532c.922.044 1.564.579 1.731 1.532zm9.418 28.398-5.068-3.097.183-.293c1.793.869 3.673 1.597 4.885 3.39zm-63.692 3.666c1.329.237 2.619.569 3.818 1.238a57.765 57.765 0 0 0 3.854 1.954c.627.291 1.351.376 1.978.667.61.285 1.154.713 1.727 1.079-.551-.785-1.213-1.407-1.872-2.033-.446-.423-.867-.877-1.335-1.274-1.407-1.196-2.87-2.328-4.24-3.565-2.14-1.93-4.632-3.266-7.238-4.407-1.608-.703-3.259-1.308-4.897-1.941-.597-.231-1.213-.414-1.82-.618l-.112.26c.31.23.632.446.927.693.436.366.875.733 1.275 1.137 1.141 1.15 2.087 2.527 3.722 3.089.191.067.315.307.5.412 1.273.724 2.034 2.231 3.725 2.293l-.012 1.016zm118.002 45.74c.287-1.091-.142-1.943-.403-2.853-.628-2.19-1.091-4.426-1.632-6.641-.28-1.146-.438-2.352-.913-3.415-.617-1.38-1.493-2.644-2.264-3.955-.034-.057-.131-.077-.2-.114-.366 1.176-.218 2.797.335 4.376.652 1.86.861 3.812 1.182 5.746.212 1.279.545 2.62 1.186 3.723.68 1.173 1.788 2.099 2.709 3.133zM37.781 75.263c-.19-.155-.361-.345-.574-.459-1.198-.646-2.41-1.268-3.61-1.91-.694-.371-1.344-.844-2.07-1.13-1.337-.527-2.827-.624-4.077-1.426-.174-.111-.425-.116-.644-.139a588.68 588.68 0 0 0-4.971-.491c-.024-.002-.058.114-.128.256 5.204 2.211 10.34 4.579 16.074 5.299zM177.12 194.861l.23-.242-1.323-1.122c-.056.064-.113.126-.17.189l1.263 1.175zm-35.532-77.508c.272-2.235-.875-3.652-2.639-4.706.574 1.736 1.487 3.279 2.639 4.706zm-34.372-36.041-.124 1.364c-.39-.916-.552-1.886-.801-2.832-.246-.933-.132-1.983-.855-2.782-.058.351-.024.682.02 1.012.168 1.265.468 2.529.466 3.793-.001.923.266 1.689.672 2.438.522.962 1.114 1.884 1.681 2.821.204.338.428.664.635 1 .2.326.391.659.586.989-1.301-4.164-1.191-8.461-1.487-12.712-.144.532-.18 1.053-.176 1.574.006 1.011.043 2.021.049 3.032.003.408-.172.583-.568.313a9195.4 9195.4 0 0 1-.065-4.41c-.646-.175-.916.063-.824.567.234 1.284.523 2.556.791 3.833zm4.238 15.436c-.513.517-.513.517.269 1.234l-.269-1.234zM51.971 63.433c1.193 2.954 2.424 5.723 3.425 8.573.742 2.109 1.942 3.936 3.048 5.829.488.836.941 1.803 1.675 2.36 1.432 1.089 2.559 2.528 4.177 3.407 1.59.863 3.003 2.046 4.806 2.716-.477-.912-.86-1.758-1.343-2.545a596.918 596.918 0 0 0-5.096-8.153c-.921-1.447-1.915-2.848-2.865-4.277-.487-.732-.888-1.53-1.437-2.209-.954-1.181-1.907-2.387-3.023-3.403-.947-.862-2.126-1.468-3.367-2.298zm59.941 64.107c-1.02-.479-1.878-.93-2.773-1.292-1.712-.694-3.428-1.386-5.173-1.988a36.868 36.868 0 0 0-4.064-1.149c-1.665-.369-3.316-1.064-5.047-.78-.912.149-1.78.127-2.669.045-.83-.077-1.635-.041-2.475.052-1.091.121-2.157.462-3.323.289-1.215-.179-2.487.029-3.734.068a25.965 25.965 0 0 0 4.144 1.915c1.816.644 3.682 1.146 5.506 1.771 1.328.456 2.671.914 3.916 1.551 1.264.649 2.473 1.068 3.892.607.399-.13.872-.074 1.307-.045 1.951.133 3.865-.158 5.785-.438 1.51-.219 3.028-.392 4.708-.606zm30.159-27.367-.232.008c-.198 1.026-.45 2.045-.579 3.079-.126 1.008-.106 2.032-.187 3.046-.076.964.429 1.991-.306 2.898-.053.065.128.31.181.478.159.506.313 1.015.462 1.525.485 1.646.941 3.303 1.465 4.937.234.733.6 1.422.952 2.237l-.827.107.723 2.694c.536-1.84 1.055-3.52 1.502-5.218.164-.618.307-1.307.202-1.919-.405-2.337-.895-4.658-1.39-6.978a48.777 48.777 0 0 0-.849-3.32c-.344-1.199-.742-2.384-1.117-3.574zm-30.407-33.835c-.182.681-.314 1.381-.567 2.034-.35.902-.805 1.763-1.198 2.648-.398.895-.774 1.798-1.124 2.615.007-.003.214-.021.315-.133.762-.854 1.511-1.72 2.246-2.598.104-.125.179-.468.151-.482-.769-.389-.144-.675.064-.983.444-.657.908-1.301 1.336-1.968 1.268-1.98 2.702-3.827 4.382-5.473.269-.264.593-.473.891-.707l.239.254c-.382.462-.75.935-1.15 1.38-.414.461-.848.905-1.296 1.334-.402.384-1.04.58-1.105 1.537 1.395-1.363 2.604-2.566 3.844-3.736.169-.159.494-.153.746-.223l.193.258c-.258.369-.466.79-.785 1.095-.638.611-1.364 1.127-2.004 1.737-1.444 1.375-2.776 2.842-3.682 4.916 1.403-1.104 2.593-2.084 3.832-2.998 1.172-.865 2.414-1.634 3.593-2.491 1.244-.901 2.662-1.564 3.653-2.814.837-1.056 2.029-1.679 3.161-2.367.525-.32 1.042-.676 1.491-1.093a188.775 188.775 0 0 0 3.898-3.749c1.289-1.27 2.386-2.687 3.249-4.287.481-.894.966-1.802 1.575-2.609 1.511-2 3.103-3.936 4.413-6.085 1.396-2.288 3.123-4.374 4.072-6.929.397-1.072.97-2.084 1.298-3.174.803-2.664 1.067-5.298-.888-7.668-.9-1.091-1.731-2.24-2.639-3.323-.439-.523-.987-.954-1.471-1.412-1.199.525-1.871 1.429-2.586 2.241-2.323 2.633-5.328 3.653-8.713 3.847-.955.054-1.934.011-2.858.212-1.786.387-3.436 1.16-3.245 3.448.046.559-.057 1.134-.433 1.886-.144-1.153-.24-2.029-.364-2.901-.235-1.641-2.224-3.126-3.759-2.608-1.455.49-2.778.083-4.157-.134-1.564-.245-3.136-.668-4.698-.64-1.666.03-3.234-.315-4.835-.591a3.622 3.622 0 0 0-1.029-.03c-1.212.146-2.431.505-3.629.444-1.781-.092-3.417.691-5.17.616a.59.59 0 0 0-.376.113c-1.23 1.041-2.915 1.563-3.641 3.18-.415.925-.833 1.849-1.241 2.779-1.297 2.951-2.608 5.896-3.872 8.861-.339.796-.911 1.156-1.705 1.275-1.046.156-2.089.335-3.139.45-2.425.266-4.654.87-6.721 2.355-1.867 1.343-3.05 3.42-2.376 6.191.382 1.567 1.122 2.995 2.711 3.74.996.466 1.995.924 3 1.368.553.244 1.115.472 1.685.675.987.353 2.077.524 2.952 1.055 1.263.764 2.382 1.769 3.543 2.697.653.522 1.239 1.13 1.902 1.637a7.843 7.843 0 0 1 2.394 2.957c.315.675.558 1.391.935 2.029.803 1.356 1.666 2.679 2.518 4.006.262.408.531.823.865 1.17.915.951 1.875 1.856 2.799 2.799.947.968 2.008 1.716 3.538 2.064-.472-.922-1.727-.716-1.853-1.957l3.028 1.8-.7-1.443c1.004-.048.922.764 1.298 1.123.201.193.478.308.72.458.106-.25.213-.5.318-.751a.142.142 0 0 0-.008-.018l-.625.4c-.207-1.793.535-3.359.761-5.026.132.883.276 1.766.382 2.653.016.132-.131.293-.223.426-.329.477-.576.964-.295 1.547a.269.269 0 0 0 .022-.014c-.001.008-.006.039-.006.047.461-1.104.779-2.293 1.921-3.3.063 1.547-1.407 2.416-1.172 3.87.621-.244.74-.587.831-1.071.066-.348.5-.612.708-.952.785-1.281 1.281-2.683 1.807-4.088.461-1.231.933-2.539 2.058-3.401l.012-.044.05-.028c.225-.578.415-1.175.706-1.717.086-.16.473-.159.947-.298-.504.954-.934 1.608-1.653 2.015l-.015.037-.047.035zm-9.554-5.082.445 1.342c-.781-.25-.851-.757-.749-1.328l.304-.014zm12.909-1.019c.365-1.335 2.024-2.987 2.947-3.065-.499 1.166-.887 1.577-2.947 3.065zM97.45 69.86c.37.266.75.52 1.106.802.169.134.417.326.415.488-.013 1.016.631 1.705 1.169 2.464-1.598-.754-2.178-2.221-2.69-3.754zm5.351 1.864c-.549-1.092-1.122-2.175-1.151-3.444.751 1.022 1.145 2.167 1.151 3.444zm-5.626-3.964c-1.072-.343-.914-1.327-1.414-2.064.84.323 1.063.666 1.414 2.064zm23.095-8.812c.298-.826.866-1.444 1.746-1.83l-1.523 2.006-.223-.176zm-15.604 11.616-.583-2.559c.82.872.979 1.546.583 2.559zm21.278-18.461-.807 1.363-.227-.122c.202-.494.406-.987.609-1.481l.425.24zm-23.648 20.248-1.024-1.303.085-.067c.342.433.683.867 1.024 1.303l-.085.067zm30.404-27.23c-.07.328-.064.698-.22.979-2.002 3.599-4.167 7.087-7.229 9.968.434-.776.756-1.651 1.325-2.312 1.41-1.637 2.736-3.3 3.639-5.292.505-1.114 1.213-2.138 1.844-3.193.08-.133.256-.211.388-.313l.253.163zm-25.387 23.527-.759-11.988.1-.059c.195.58.508 1.15.564 1.743.225 2.406.376 4.819.544 7.229.046.659.072 1.319.073 1.979.001.378-.065.756-.101 1.134l-.421-.038zm5.161-21.231c.605 2.689.537 5.358-.236 8.006l-.276.026c-.039-.306-.131-.616-.107-.917.104-1.311.285-2.618.35-3.93.043-.859-.071-1.725-.098-2.589-.007-.208.057-.418.088-.627l.279.031zm-.644 10.328c-.521 2.312-.61 4.719-1.869 6.906-.017-.319-.141-.679-.035-.95.665-1.695.716-3.507 1.068-5.26.06-.295.251-.563.381-.844l.455.148zm11.497 3.286-4.807 3.778-.204-.27c1.547-1.333 3.001-2.789 5.011-3.508zm-39.926 44.571 1.06 1.488.229-.192c-.43-.432-.86-.863-1.289-1.296zm64.943 35.289c-.668.172-.338.559-.044.922l.044-.922zM48.01 54.058c.822 3.815 4.579 9.971 7.281 10.563-.869-1.402-1.743-2.806-2.609-4.213-.599-.973-1.115-2.006-1.796-2.917-.884-1.183-1.895-2.273-2.876-3.433zM22.517 67.155c-.118-.022-.246-.027-.345-.085a1441.13 1441.13 0 0 1-6.778-3.959c-.107-.062-.265-.232-.242-.297.299-.84-.461-1.072-.845-1.521-1.813-2.112-4.096-3.461-6.749-4.26-1.579-.475-3.186-.638-4.973-.793 1.348 1.209 2.901 1.737 4.208 2.686 1.05.762 2.483 1.128 3.8 1.357 1.392.243 2.319 1.259 3.818 1.611-.798.572-1.26.227-1.774-.006-.755-.343-1.544-.609-2.323-.895-1.669-.614-3.449-.923-4.928-2.041-.678-.514-1.428-1.036-2.469-1.13.76.748 1.386 1.424 2.073 2.029 1.443 1.269 2.971 2.427 4.653 3.376.608.342 1.147.809 1.756 1.151 1.563.877 3.129 1.752 4.729 2.558 1.355.681 2.466 1.866 4.14 1.911 1.056.028 2.103.277 3.16.33.642.031 1.294-.121 1.942-.192-1.039-.591-2.268-.678-2.853-1.83zm117.602 38.703c.283-1.905.564-3.856.866-5.803.283-1.824.256-3.594-.76-5.226-.185-.296-.392-.584-.531-.901-1.015-2.323-2.003-4.657-3.033-6.972-.161-.361-.492-.646-.823-1.068-.135 1.721 3.339 17.655 4.281 19.97zm-27.645-8.762c.208 2.798 1.23 5.276 3.154 7.555-.016-.286.022-.48-.044-.628-1.028-2.312-2.07-4.619-3.11-6.927zm51.867 86.951.185-.143c-.646-.863-1.287-1.731-1.942-2.589-1.848-2.418-3.65-4.874-5.567-7.235-1.903-2.343-3.982-4.542-5.876-6.892-1.576-1.955-2.992-4.038-4.488-6.058-.228-.309-.506-.58-.761-.869a.729.729 0 0 0 .163.67c1.107 1.396 2.394 2.685 3.29 4.206 1.275 2.167 2.875 4.082 4.3 6.128 1.073 1.539 2.178 3.055 3.443 4.459 1.764 1.958 3.416 4.018 5.135 6.018.679.791 1.41 1.538 2.118 2.305zM63.727 70.797l-.162.072c.127.896.19 1.805.392 2.683.622 2.684 1.726 5.185 3.112 7.554 1.246 2.13 2.611 4.192 3.835 6.334.588 1.03 1.459 1.639 2.623 2.441-.341-1.609-.537-2.961-.919-4.259-1.077-3.663-3.11-6.861-5.153-10.027-1.093-1.696-2.475-3.204-3.728-4.798zm58.741 50.118c.49 2.668 7.702 17.573 8.87 18.576l-8.87-18.576zm-59.74-29.64c2.294 2.61 4.876 4.885 7.662 6.976 2.901 2.177 7.694 5.632 8.504 5.762-2.664-2.179-5.233-4.487-8.018-6.497-2.774-2.004-5.258-4.371-8.148-6.241zm39.822 31.755.106-.218c-.806-.74-1.674-1.423-2.405-2.231-1.61-1.778-3.384-3.332-5.578-4.333-.617-.281-1.326-.373-1.999-.524-.676-.152-1.363-.256-2.039-.405-.344-.076-.672-.226-1.016-.303-.834-.187-1.676-.334-2.509-.526-1.586-.364-3.16-.787-4.754-1.114-1.811-.372-3.637-.672-5.459-.993-1.95-.345-3.903-.681-5.857-1.01-.08-.014-.178.083-.369.179.346.241.572.471.845.575 1.734.654 3.02 1.972 4.421 3.083.955.758 1.912 1.384 3.077 1.682 1.146.292 2.307.527 3.452.824 3.702.959 7.396 1.946 11.099 2.901 2.843.734 5.756 1.205 8.493 2.326.15.062.327.06.492.087zm31.39-68.372-.001-.005c-.664.698-1.291 1.436-2.002 2.081-1.695 1.539-3.34 3.148-5.366 4.275-.114.063-.205.169-.31.25-1.703 1.328-3.318 2.792-5.129 3.949-2.625 1.676-4.98 3.675-7.365 5.645-.246.203-.4.516-.597.778 1.667-1.06 3.497-1.851 4.601-3.572.703.427 1.106.08 1.609-.371 1.278-1.145 2.633-2.208 3.981-3.272.238-.189.595-.472.902-.018-.047.081-.072.18-.135.227-2.244 1.674-4.179 3.77-6.788 4.947a2.81 2.81 0 0 0-.664.43c-1.7 1.468-3.5 2.786-5.514 3.799-.132.066-.21.238-.387.449.251.086.407.191.554.182 1.444-.096 2.887-.217 4.331-.317.709-.049 1.408-.061 1.972-.621.205-.203.548-.264.819-.407 2.106-1.123 3.695-2.762 4.89-4.819.459-.791.976-1.562 1.555-2.269.891-1.088 1.928-2.062 2.781-3.177 2.267-2.961 5.277-5.045 8.294-7.112.582-.4 1.357-.577 2.07-.703.625-.112 1.291.035 1.934-.008 1.187-.078 2.39-.404 3.548-.279 2.185.235 4.182-.287 6.187-.994.862-.304 1.746-.632 2.645-.735 2.551-.294 5.003-.973 7.448-1.706.957-.287 1.912-.741 2.333-1.632.71-1.502 1.395-3.065 1.745-4.678.716-3.308.57-6.618-.215-9.953-.575-2.441-1.715-4.515-3.108-6.513-.511-.734-1.071-.818-1.771-.283-.313.239-.67.488-.854.818-.603 1.075-1.204 2.16-1.676 3.295-.63 1.509-1.345 2.938-2.281 4.302-.691 1.007-1.652 1.661-2.417 2.533-1.233 1.404-2.82 2.241-4.416 3.079-.538.283-1.167.411-1.768.553-1.022.241-2.063.402-3.075.672-.305.082-.591.373-.802.634a175.4 175.4 0 0 0-3.1 3.942c-.245.321-.388.718-.687 1.289 1.847-1.35 2.084-1.455 3.06-1.307-.444.385-.764.74-1.153.986-1.808 1.145-3.36 2.541-4.55 4.337-.315.475-.748.87-1.127 1.303a.008.008 0 0 1 .002.005c.315.438.491.027.709-.122.796-.541.796-.541 1.738-.537-.742.637-1.323 1.235-2.245 1.311a75.27 75.27 0 0 1-.202-.652l-.003-.004v-.005zm15.045-12.221c-1.418 1.935-3.797 2.407-5.711 3.598.466-1.227 1.757-1.403 2.63-2.106.867-.697 1.886-1.209 2.837-1.803l.244.311zm-30.945 29.41c-.648.785-.648.785-3.041 1.435.825-1.072 2.091-.896 3.041-1.435zm22.292-20.121c.737-.572 1.462-.822 2.338-.774-.369.762-.758.889-2.338.774zm4.505 106.744c-.78-1.041-1.56-2.085-2.343-3.124-1.482-1.969-2.943-3.954-4.467-5.89-.447-.566-.797-1.315-1.676-1.44 2.868 3.461 5.254 7.289 8.486 10.454zm-39.773-76.917.371-.109-.836-3.953c-.33-.021-.631-.044-.932-.057-.029-.002-.06.051-.165.149.512 1.301 1.036 2.636 1.562 3.97z" fill="#687E6B"/></g><defs><clipPath id="a"><path fill="#fff" d="M0 0h197v214H0z"/></clipPath></defs></svg>