<svg width="130" height="178" fill="none" xmlns="http://www.w3.org/2000/svg"><g clip-path="url(#a)"><path fill-rule="evenodd" clip-rule="evenodd" d="M80.466 155.877c-.256.262-.7.508-.724.791a41.917 41.917 0 0 0-.165 4.223c.064 4.482-.954 8.777-2.189 13.033-.068.237-.397.398-.813.789-.063-.668-.217-1.134-.128-1.548.318-1.474.756-2.922 1.08-4.395.829-3.765.774-7.606.864-11.428.054-2.308-1.307-3.955-2.954-5.372-2.745-2.36-5.702-4.427-8.777-6.34-1.711-1.064-3.344-2.259-4.978-3.441-.476-.344-.986-.782-1.216-1.295-.56-1.25-1.659-1.67-2.775-2.166-2.574-1.144-5.12-2.349-7.688-3.509-2.202-.994-4.422-1.685-6.916-1.881-3.913-.308-7.839.151-11.745-.485-2.306-.376-4.553-.78-6.661-1.821-.629-.31-1.311-.526-1.984-.736-3.328-1.039-6.197-2.9-8.934-4.99-3.374-2.575-5.741-5.926-7.354-9.812-1.565-3.769-2.374-7.674-2.122-11.801.165-2.71.188-5.444.046-8.155-.212-4.055-1.525-7.905-2.53-11.807-.601-2.336-1.23-4.666-1.772-7.017-.152-.661.258-1.141 1.182-1.258 1.512 1.843 3.075 3.782 4.677 5.688.903 1.074 1.82 2.146 2.821 3.126 1.365 1.337 2.771 2.64 4.244 3.854.925.762 1.925 1.564 3.031 1.944 2.324.797 3.773 2.606 5.431 4.19a37.072 37.072 0 0 1 2.069 2.163c.466.521.919 1.065 1.29 1.655 1.286 2.044 2.483 4.144 3.807 6.162 2.1 3.2 4.27 6.306 7.205 8.887 2.356 2.073 4.91 3.803 7.442 5.611 2.817 2.01 5.256 4.539 6.638 7.703.873 2 2.187 3.36 3.838 4.473 2.812 1.895 4.983 4.326 6.752 7.18a5.081 5.081 0 0 0 1.42 1.486c1.413.957 2.883 1.831 4.35 2.705.853.509 1.745.953 2.907 1.583-.073-.768.011-1.266-.177-1.618-.899-1.69-1.8-3.389-3.379-4.588-.235-.179-.418-.441-.589-.689-1.47-2.135-3.502-3.498-5.771-4.725-2.748-1.488-5.195-3.453-6.564-6.44-.293-.638-.695-1.228-1.069-1.826-1.306-2.092-2.059-4.32-1.957-6.832.151-3.671-.488-7.184-2.286-10.448-.245-.446-.185-1.061-.277-1.672 1.188-.105 1.916.398 2.708.826 2.328 1.258 4.109 3.215 6.213 4.745 3.731 2.713 5.78 6.66 7.902 10.531.868 1.583 1.071 3.457 1.026 5.304-.027 1.106.014 2.215-.028 3.32-.143 3.824 1.639 6.844 4.229 9.357 2.193 2.128 3.919 4.501 5.346 7.182.787 1.479 2.068 2.653 3.23 3.888.791-.612.422-1.242.3-1.73-.518-2.08-.726-4.175-.51-6.304.47-4.629-.41-9.068-2.17-13.295-.88-2.116-2.094-4.155-3.479-5.984-2.764-3.651-5.079-7.462-6.371-11.911-.669-2.301-1.72-4.494-2.967-6.599-1.536-2.595-2.788-5.359-4.142-8.06-.178-.354-.259-.765-.339-1.16-.722-3.557-1.698-7.087-2.091-10.68-.816-7.453-.802-14.894 1.426-22.19.733-2.402 1.146-4.9 1.717-7.352.272-1.17.491-2.362.876-3.496a57.423 57.423 0 0 1 1.873-4.789c.612-1.38 1.258-2.765 2.069-4.033 1.631-2.548 3.407-5.002 5.082-7.522a883.656 883.656 0 0 0 6.296-9.629c1.09-1.689 2.101-3.429 3.193-5.117 1.006-1.554 1.448-3.306 1.965-5.047.514-1.735 1.057-3.47 1.726-5.151 1.052-2.64 1.826-5.342 2.174-8.16.073-.592.003-1.203-.002-1.808.599-.391.929-.022 1.134.462 1.254 2.954 1.264 6.104 1.281 9.217.029 5.093.751 10.026 2.728 14.749 1.956 4.673 3.122 9.544 3.752 14.57.262 2.093.728 4.178 1.288 6.216 1.523 5.538 3.04 11.064 4.135 16.718.478 2.47 1.066 4.909 1.208 7.422.079 1.401-.099 2.817-.019 4.217.188 3.323.483 6.64.691 9.961.203 3.248-.081 6.429-1.241 9.52-.489 1.307-.732 2.715-1 4.094-.542 2.782-1.184 5.549-2.453 8.084-1.687 3.368-2.8 6.9-3.606 10.558-.169.767-.471 1.557-.908 2.203a171.182 171.182 0 0 1-4.561 6.406c-1.822 2.438-3.57 4.961-4.485 7.852-1.346 4.25-2.161 8.612-.558 13.047.625.135.771-.427 1.049-.799 1.441-1.934 2.625-4.084 4.641-5.535 2.223-3.241 4.539-6.421 5.368-10.396.39-1.873.638-3.756.903-5.646.491-3.492.973-7.012 1.865-10.413 1.369-5.215 3.447-10.123 7.875-13.626 1.342-1.063 2.586-2.254 3.967-3.26 1.825-1.326 3.443-2.89 4.606-4.765 2.206-3.56 5.051-6.548 7.946-9.5 2.012-2.053 3.621-4.287 4.517-7.058.588-1.817 1.419-3.558 2.192-5.31.238-.543.612-1.037.979-1.51.283-.366 1.123-.273 1.303.162.224.538.596 1.226.433 1.679-.926 2.57-.516 5.222-.454 7.803.103 4.262-.193 8.451-.946 12.64-.463 2.578-.644 5.204-1.066 7.791-.258 1.581-.546 3.203-1.146 4.674-1.331 3.262-2.746 6.5-4.824 9.394-.521.726-.925 1.559-1.257 2.393-.98 2.462-2.23 4.73-4.282 6.477-.075.064-.132.151-.19.234-2.806 4.006-6.941 6.363-10.981 8.833-.425.26-.886.519-1.364.623-3.594.787-6.285 3.083-9.002 5.335-1.007.833-1.925 1.783-2.981 2.544-2.103 1.518-3.73 3.35-4.483 6.129.455-.133.823-.179 1.129-.343 1.421-.758 2.751-1.761 4.251-2.282 2.828-.983 4.812-3.032 6.406-5.273 2.627-3.694 6.056-5.124 10.396-4.896.504.027 1.011.04 1.511.104 2.019.26 3.999.248 5.771-.815.702.57.519 1.181.25 1.718-1.31 2.616-2.796 5.148-4.999 7.102-1.508 1.337-3.244 2.39-5.44 2.277-.691-.035-1.422.086-2.087.289-2.077.634-4.185.589-6.278.278-1.557-.231-2.934-.021-4.397.6-2.222.944-4.483 1.76-6.565 3.026-1.449.882-2.513 1.909-2.908 3.648-.31 1.364-.928 2.657-1.375 3.993-.453 1.355-.556 2.747-.473 4.179.179 3.123.358 6.249.394 9.375.032 2.72-.134 5.444-.212 8.13-1.016 1.668-2.713 1.996-4.379 2.375-.54.124-.66.066-1.84-.632.728-2.416 2.838-2.452 4.865-2.652.363-1.998.338-3.908.359-5.809.041-3.723-.068-7.44-.494-11.145-.063-.557.131-1.146.209-1.723zm-3.129-90.993c-.471 3.059-.363 6.106.144 9.477.906-3.4.363-6.439-.144-9.477zm14.304 47.822-.748 2.802c.943-1.11 1.204-1.913.748-2.802zm-21.849 29.076c.588 1.841.588 1.841 1.949 2.628-.254-1.122-.725-1.883-1.949-2.628zm9.548 33.963c-.553-.011-.873-.108-1.094 0-.298.145-.521.447-1.018.903.618 0 .93.088 1.135-.021.304-.164.532-.466.977-.882zm-20.469-52.971c.752.351 1.061 1.054 1.352 1.775.676 1.674 1.328 3.358 2.048 5.013.264.605.693 1.138 1.375 2.23-.05-2.607-.052-4.575-.134-6.54-.118-2.813-1.538-5.104-2.838-7.516-2.136-3.963-5.566-6.518-8.98-9.15-.044-.034-.156.021-.193.028.786 2.023 1.523 4.076 2.383 6.075.59 1.373 1.252 2.691 2.313 3.842 1.127 1.222 2.358 2.476 2.674 4.243zm-45.796-12.148c-.79-.341-.963-1.162-1.255-1.832-1.415-3.246-2.393-6.632-2.683-10.164-.301-3.652-1.434-7.101-2.37-10.597-.306-1.145-1.075-2.159-1.478-3.288-.392-1.096-1.242-1.691-2.228-2.343.549 2.108.725 4.277 1.39 6.318 1.018 3.127 1.241 6.306 1.113 9.555-.146 3.727-.066 7.444.541 11.145.806 4.915 2.918 9.179 6.164 12.914.328.377.693.732 1.085 1.042 3.015 2.389 6.162 4.553 9.875 5.747.479.154.96.326 1.404.558 3.498 1.824 7.323 2.282 11.149 2.324 2.815.03 5.6-.077 8.425.265 2.06.248 3.91.819 5.739 1.682a364.69 364.69 0 0 0 7.137 3.275c.306.135.715.037 1.339.054-1.368-2.281-3.227-3.712-4.947-5.183-1.505-1.287-3.299-2.408-5.155-3.078-4.645-1.68-9.479-2.655-14.387-3.334-2.976-.413-5.901-1.207-8.834-1.893-.733-.171-1.509-.445-1.755-1.31-.899.135-1.575-.144-1.916-1.036-.809.058-1.188-.406-1.345-1.143-1.866-1.232-2.73-3.158-3.514-5.138-1.242-.848-2.175-1.95-2.749-3.346-.602-.172-.73-.647-.745-1.194zM23.406 122.4l3.393.997c-1.734-2.861-3.497-5.009-5.833-6.603-2.71-1.85-4.991-4.092-6.613-6.934-.991-1.735-1.766-3.593-2.655-5.387-.219-.441-.507-.848-.763-1.271a1.78 1.78 0 0 0 .007 1.281c.727 2.035 1.469 4.064 2.205 6.096.634.155.739.647.741 1.206 1.438.823 1.98 1.488 2.716 3.324.093-.002.203-.015.235.029 1.213 1.636 2.575 3.177 3.305 5.122.733.014 1.135.433 1.342 1.089.847-.031 1.494.308 1.92 1.051zm25.47 5.537c-.237-.838-.275-1.143-.408-1.4-.23-.445-.5-.873-.786-1.284-2.105-3.029-4.797-5.407-7.979-7.26a16.135 16.135 0 0 1-2.432-1.747c-1.137-.988-2.21-2.053-3.287-3.109-.714-.7-1.39-1.441-2.079-2.167-3.015-3.175-5.051-7.017-7.24-10.746-.824-1.403-1.691-2.726-2.929-3.795-.456-.393-.921-.813-1.25-1.307-1.156-1.737-2.758-2.906-4.592-3.813-2.09-1.034-3.935-2.367-5.548-4.09-.812-.867-1.795-1.73-3.248-2.125.139.541.173.838.289 1.098 1.11 2.491 2.04 5.034 2.483 7.744.805 4.906 2.531 9.503 4.853 13.876 1.428 2.689 3.205 5.154 5.738 6.902 2.268 1.566 4.201 3.458 5.868 5.603 1.31 1.686 2.934 2.705 4.978 3.152 2.946.644 5.897 1.268 8.832 1.96 1.654.39 3.284.887 4.919 1.354 1.132.324 2.254.68 3.818 1.154zm43.393 6.947c2.04-1.448 3.253-3.075 4.712-4.439 2.823-2.637 4.913-5.845 7.107-8.974a6.4 6.4 0 0 0 .833-1.6c1.258-3.726 3.536-7.013 4.612-10.82.189-.665.603-1.272.943-1.889 1.52-2.752 3.435-5.195 5.621-7.461 3.294-3.414 5.273-7.583 6.288-12.166.587-2.647.94-5.343 1.927-7.892.098-.254.026-.573.035-.937-2.322 2.448-4.646 4.761-6.803 7.22-1.522 1.735-2.831 3.658-4.212 5.514-1.568 2.109-3.24 4.119-5.441 5.603-2.442 1.648-4.44 3.787-6.521 5.834-.424.417-.834.9-1.083 1.431-.897 1.913-1.797 3.831-2.561 5.799-1.803 4.646-2.145 9.594-2.873 14.461-.118.791-.148 1.604-.353 2.372-.663 2.492-1.389 4.968-2.231 7.944zm10.496 6.461c.11-.158.234-.308.317-.479.025-.05-.073-.161-.114-.243-.15.086-.43.185-.423.257.017.168.146.326.22.465zM77.743 57.908c1.02-.981.825-1.84.348-3.427l-.348 3.427zm30.062 82.526c-1.445-.429-2.178-.345-2.854.272l2.854-.272zm-30.268-79.45-.06-.184-.032.155.092.029zm49.733 15.225c-1.548 3.396-2.735 6.704-3.402 10.182-.512 2.664-.975 5.412-2.028 7.88-1.862 4.36-4.45 8.347-7.397 12.091-2.665 3.388-5.417 6.71-6.903 10.885-1.509 4.237-4.295 7.732-7.033 11.232-.268.342-.477.73-.858 1.32 1.852-.191 3.242-.616 4.532-1.51 1.49-1.033 3.113-1.872 4.611-2.895.989-.675 1.899-1.48 2.769-2.306.876-.832 1.627-1.794 2.491-2.64a15.423 15.423 0 0 0 3.637-5.506c.547-1.399 1.186-2.815 2.062-4.022 1.856-2.559 3.038-5.444 4.318-8.282.83-1.838 1.265-3.797 1.487-5.829.305-2.803.739-5.598 1.266-8.369.644-3.391.858-6.8.764-10.236-.018-.667-.206-1.33-.316-1.995zm-58.078 69.518c1.897 1.284 3.742 2.639 5.382 4.273.216.214.664.197 1.483.414-2.024-2.56-3.833-4.481-6.865-4.687zm28.879-52.325c.463-1.277 1.051-2.526 1.342-3.84.728-3.29.163-6.611.002-9.918-.017-.344-.082-.81-.659-.724-.056.189-.164.375-.157.556a64.534 64.534 0 0 1-.769 12.957c-.048.302.126.64.241.969zm13.289 14.33c2.362-1.81 3.832-4.231 5.095-6.808-2.362 1.766-3.73 4.309-5.095 6.808zm-19.705 4.74c.227-.261.496-.505.627-.809.868-2.013 1.631-4.074 2.55-6.063 1.771-3.833 2.556-7.916 3.196-12.046-.615-.026-.669.556-.845.937-.46.992-.844 2.017-1.276 3.022-2.064 4.798-4.21 9.573-4.252 14.959zM80.466 155.82c-.138-3.085-.389-6.167-.369-9.248.012-1.908-.409-3.744-.519-5.623-.007-.114-.268-.213-.45-.349-.103.144-.298.29-.297.434.018 2.284-.261 4.574.426 6.836.315 1.038.297 2.175.46 3.262.235 1.565.498 3.126.749 4.688zm3.451-144.015.002-.002-.264-.957-.164.07.426.889zM57.573 124.006c-.201-.143-.438-.269-.536-.464-.95-1.877-1.893-3.758-2.78-5.665-.674-1.447-1.245-2.942-1.896-4.4-.527-1.18-1.103-2.336-1.947-4.11.211 3.677.387 6.659.551 9.641.073 1.333.489 2.571 1.129 3.715.634 1.136 1.398 2.198 2.068 3.315 1.607 2.681 4.026 4.41 6.742 5.791.299.151.661.176 1.113.29-.608-2.284-1.568-4.101-3.043-5.652-.315-.331-.464-.82-.681-1.245-.564-.198-.716-.659-.72-1.216zm.81 1.17.951-.001-.546-2.374-1.189-.158.068 1.354c.608.156.671.662.716 1.179zm25.519-113.36c-.472.053-1.045-.097-1.289.486-.267.636-.56 1.283-.681 1.954-.659 3.641-2.198 6.931-4.182 9.984-3.682 5.665-7.46 11.268-11.279 16.842-3.419 4.99-5.571 10.464-6.687 16.383-.353 1.877-.717 3.762-1.254 5.591-1.787 6.079-2.174 12.262-1.767 18.557.302 4.673 1.752 9.1 2.609 13.652.073.388.269.76.445 1.122 1.057 2.174 1.978 4.432 3.225 6.492 1.845 3.048 3.194 6.279 4.284 9.648a26.3 26.3 0 0 0 4.37 8.192c2.313 2.947 4.381 6.014 5.653 9.567.221.616.506 1.209.762 1.813.241-1.676.135-3.264-.07-4.841-.401-3.1-.967-6.183-1.264-9.292-.384-4.013-.627-8.042-.82-12.069-.109-2.31-.026-4.631.024-6.946.028-1.305.157-2.609.254-3.912.18-2.411.214-4.848.608-7.224.302-1.828.342-3.609.137-5.417-.272-2.407-.517-4.82-.892-7.211-.708-4.523-.669-9.081-.263-13.589.615-6.839 2.224-13.515 4.129-20.113 1.598-5.537 2.846-11.128 2.864-16.944.011-3.422.22-6.843.335-10.265.03-.891-.056-1.812.749-2.46zm-4.067 124.407c.357-.687.697-1.036.692-1.382-.025-2.017.852-3.686 1.848-5.345 1.657-2.76 3.199-5.591 4.907-8.318 1.868-2.983 2.878-6.302 3.199-9.689.507-5.341 2.392-10.171 4.543-14.962.955-2.127 1.629-4.329 1.958-6.641.887-6.226.185-12.486.415-18.727a60.182 60.182 0 0 0-.18-7.256c-.442-5.241-1.535-10.355-3.144-15.377-.92-2.871-1.645-5.814-1.918-8.847-.154-1.707-.224-3.463-.695-5.092-1.006-3.477-2.254-6.884-3.391-10.324-.535-1.622-1.196-3.224-1.526-4.889-.45-2.268-.627-4.59-.952-6.885-.051-.359-.081-.839-.864-.85-.117.366-.357.783-.372 1.208-.184 5.124-.26 10.254-.528 15.374-.121 2.301-.462 4.615-.96 6.866-.955 4.312-2.134 8.574-3.128 12.879-.291 1.26-.431 2.601-.361 3.89.116 2.134-.051 4.218-.446 6.308-.624 3.29-.688 6.598-.384 9.938.191 2.103.163 4.231.143 6.346-.033 3.513-.555 7.015-.154 10.538.664 5.846.28 11.686-.435 17.486-.811 6.576-.208 13.081.545 19.59.509 4.396 1.282 8.766.896 13.221-.016.184.113.381.292.94zm16.827 4.13c.768-.036 1.156-.016 1.532-.076 3.275-.522 6.614-.814 9.803-1.661 2.862-.761 5.092-2.618 6.129-5.715-2.188-.08-4.183-.217-6.177-.209-2.924.013-5.549.9-7.555 3.125-1.202 1.332-2.287 2.769-3.732 4.536z" fill="#687E6B"/></g><defs><clipPath id="a"><path fill="#fff" d="M0 0h130v178H0z"/></clipPath></defs></svg>