<svg width="128" height="181" fill="none" xmlns="http://www.w3.org/2000/svg">
    <path
        d="m104.925 164.046-.438-.394c-.076.099-.236.24-.212.288.075.147.212.27.347.373.019.013.168-.146.303-.267zm13.601 11.353.235-.272-.794-.713-.186.196.745.789zm-15.888-13.806-.196.145.456.585.183-.134-.443-.596zm4.067 2.444.473-.081-1.591-3.891c.074 1.434.412 2.769 1.118 3.972zM94.512 134.67c-.174-2.87-.632-4.747-1.307-5.405-.164 1.891.365 3.609 1.307 5.405zm-21.234 19.384c2.983-.425 5.541.07 8.241 1.122-1.953-2.166-6.027-2.774-8.241-1.122zm-1.184-20.178-.225.295c1.178 1.746 2.935 2.928 4.413 4.383 1.693 1.666 4.244 3.658 5.178 3.771l-9.366-8.449zM25.217 40.711l.339-.165c-.387-2.07-1.129-4.05-1.948-5.973-1.398-3.282-2.437-6.64-2.847-10.19-.044-.38-.24-.743-.366-1.113-.229.256-.254.453-.219.637.43 2.303.87 4.604 1.306 6.906.153.813.193 1.667.472 2.433.713 1.96 1.513 3.887 2.319 5.81.244.581.625 1.105.944 1.655zm20.973 28.99.306-.022c.052-.28.145-.562.147-.843.017-2.396.128-4.799-.005-7.188-.183-3.286-.552-6.562-.849-9.84a9.879 9.879 0 0 0-.192-1.16c-.069-.326-.176-.643-.347-1.252-.117.454-.179.587-.183.723-.12 3.213.246 6.387.726 9.557.462 3.046.773 6.104.333 9.187-.039.271.04.558.064.837zm3.968 60.663c-.398-.532-.704-.947-1.016-1.356-1.73-2.268-3.57-4.408-6.295-5.55-1.953-.818-3.659-1.984-5.076-3.577-.418-.471-.961-.83-1.435-1.253-.431-.383-.846-.783-1.267-1.176.469 1.89 1.618 3.349 3.365 4.503.605.401 1.343.619 1.9 1.069a173.147 173.147 0 0 1 5.25 4.433c1.33 1.163 2.459 2.605 4.574 2.907zm25.825-23.886.238-.007c.112-.554.371-1.125.309-1.659-.214-1.839-.188-3.735-1.106-5.44-.18-.335-.203-.76-.268-1.147-.306-1.816-.547-3.643-.914-5.445-.449-2.21-1.252-4.377-1.44-6.6-.205-2.442-.907-4.604-2.185-6.628-.784-1.242-1.682-2.39-3.076-3.317.835 1.947 1.512 3.777 2.389 5.505 1.291 2.545 1.603 5.324 2.141 8.05.319 1.61.41 3.268.741 4.876.254 1.233.729 2.418 1.097 3.627.329 1.078.687 2.149.958 3.242.406 1.639.747 3.294 1.116 4.943zM6.835 75.78l-.249.164c.212.542.435 1.081.634 1.628.183.503.446 1.008.487 1.528.111 1.397.467 2.722 1.256 3.86 1.399 2.016 3.262 3.623 5.02 5.31 1.196 1.146 2.514 2.165 3.77 3.25.773.668 1.595 1.295 2.283 2.043 1.814 1.973 3.571 4.014 5.742 5.604 2.198 1.61 4.419 3.206 7.085 4.026.827.255 1.587.72 2.397 1.039.306.12.667.096 1.123.153-.627-.6-1.12-1.07-1.611-1.542-3.614-3.469-7.724-6.242-12.072-8.697a23.659 23.659 0 0 1-3.353-2.307c-.894-.733-1.628-1.659-2.45-2.483-.45-.45-.945-.855-1.401-1.3-.768-.75-1.489-1.553-2.287-2.27-1.617-1.453-2.981-3.126-4.029-5.005-.782-1.404-1.276-2.968-1.917-4.453-.088-.206-.282-.366-.428-.548zm5.437 64.229-.229.324c1.006.968 1.914 2.072 3.039 2.874 2.42 1.725 4.994 3.184 8.025 3.611.618.088 1.197.415 1.809.577 1.087.29 2.175.595 3.28.791 2.44.431 4.905.73 7.333 1.216 1.563.314 3.043.94 4.678 1.055 1.647.116 3.319.36 4.897.826 1.371.406 2.723.731 4.142.785a4.93 4.93 0 0 0 1.145-.075c.322-.062.836.007.759-.405-1.646-.23-3.202-.368-4.722-.684-1.186-.245-2.344-.66-3.482-1.089-1.147-.434-2.233-1.032-3.381-1.463-2.199-.827-4.206-2.16-6.629-2.407-1.357-.138-2.7-.42-4.044-.672-1.101-.207-2.182-.565-3.291-.682-2.974-.316-5.89-.863-8.67-1.984-.943-.38-1.834-.894-2.726-1.388-.664-.368-1.29-.804-1.933-1.21zm20.833-27.661c-.014.217-.089.411-.024.492 1.168 1.433 1.943 3.173 3.481 4.326.613.46 1.029 1.174 1.613 1.682 1.175 1.019 2.279 2.241 3.644 2.888 1.462.693 2.743 1.638 4.147 2.394.662.357 1.318.865 1.759 1.465.922 1.252 2.358 2.09 2.905 3.634 1.734 1.362 3.468 2.726 5.204 4.087a.883.883 0 0 0 .259.133c2.036.673 4.071 1.347 6.109 2.011 1.071.349 2.147.678 3.22 1.016l.17-.313-6.812-5.399.6-.674c-.844-.569-1.673-1.087-2.456-1.666-1.695-1.254-3.301-2.64-5.065-3.781-1.517-.981-3.192-1.719-4.817-2.523-1.494-.739-3.131-1.252-4.498-2.172-2.206-1.484-4.262-3.197-6.343-4.861-1.059-.846-2.035-1.795-3.096-2.739zm50.674 45.677.047-.244c-.773-.414-1.524-.88-2.324-1.23-1.024-.449-2.059-.978-3.142-1.161-1.435-.244-2.921-.248-4.385-.248-2.819-.002-5.507.731-8.188 1.531-1.195.355-2.231.928-3.242 1.614-.351.238-.809.41-1.23.437-1.419.09-2.843.094-4.265.145-.267.01-.531.08-.906.14.162.274.223.474.356.589 1.328 1.153 2.925 1.625 4.638 1.787 1.123.105 2.26.136 3.368.331 2.537.448 5.099.433 7.656.508.927.026 1.883-.013 2.782-.216 1.384-.314 2.725-.813 4.094-1.2 1.314-.372 2.695-.346 4.024-.763.776-.242 1.488-.408 2.24-1.142-.773-.087-1.353-.105-1.91-.227a15.926 15.926 0 0 1-2.231-.651c-.202-.078-.291-.454-.545-.885l3.163.885zm8.927-18.141c1.391.863 1.99 2.27 3.07 3.621.126-1.57-.056-2.71-.692-3.744-1.433-2.331-1.915-4.999-2.555-7.581-.576-2.324-.771-4.743-1.131-7.12-.231-1.528-.86-2.903-1.595-4.243-.898-1.634-1.853-3.245-2.634-4.935-.918-1.989-1.651-4.064-2.516-6.079-.385-.894-.952-1.686-2.02-2.336.045.539.07.902.108 1.265.142 1.313.521 2.652.38 3.934-.23 2.085-.654 4.148-.904 6.243-.414 3.485.619 6.673 1.893 9.718 1.003 2.397 2.687 4.518 4.145 6.711 1.241 1.867 2.694 3.599 3.862 5.507 1.074 1.755 2.619 3.059 3.894 4.631-.412-.994-1.102-1.833-1.487-2.794-.412-1.03-1.846-1.336-1.818-2.798zM43.654 79.752l.189.044c.314-.758.669-1.502.936-2.275.599-1.74.986-3.476.382-5.342-.26-.806-.189-1.737-.178-2.61.026-2.248.256-4.504.116-6.739-.132-2.116-.646-4.207-.958-6.313-.164-1.11-.453-2.25-.34-3.34.424-4.072.244-8.11-.359-12.142-.131-.875-.159-1.782-.421-2.615-.576-1.824-1.206-3.639-1.943-5.402a16.621 16.621 0 0 0-1.793-3.2c-.572-.805-1.156-1.685-2.307-2.18-.46 1.835-.648 3.605-.759 5.382-.102 1.612.023 3.257-.254 4.836-.235 1.338-.817 2.623-.869 4.016-.068 1.856-.449 3.773-.113 5.554.525 2.782 1.534 5.474 2.351 8.2.069.23.268.418.347.647.754 2.168 1.54 4.326 2.219 6.516.316 1.02.237 2.183.653 3.144 1.01 2.328 1.193 4.806 1.618 7.245.042.24.059.485.082.728l.453 4.878.296-.009.259-2.053.257.011.136 3.02zM26.243 58.466c-.045-1.859-.291-3.742-.076-5.57.195-1.656-.097-3.233-.283-4.809-.198-1.687-.832-3.322-1.275-4.979-.107-.4-.172-.819-.331-1.197-.764-1.808-1.508-3.628-2.349-5.4-.548-1.157-.999-2.328-1.201-3.59-.193-1.207-.337-2.423-.555-3.625-.306-1.682-.838-3.34-.957-5.032-.226-3.213-1.02-6.259-2.189-9.229-.285-.723-.596-1.453-1.012-2.104-1.209-1.89-2.511-3.72-3.709-5.618a33.678 33.678 0 0 1-1.971-3.6c-.339-.722-.461-1.544-.681-2.32-.334.367-.451.697-.438 1.023.037.98.175 1.956.184 2.935.022 2.493.273 4.961-.017 7.487-.376 3.287-.078 6.6.795 9.855.652 2.432 1.99 4.68 1.997 7.285 0 .047.033.092.048.14.719 2.22 1.482 4.428 2.141 6.666.629 2.137 1.147 4.307 1.721 6.46.048.183.114.375.223.527.769 1.07 1.537 2.14 2.332 3.19.737.97 1.514 1.91 2.259 2.875.743.963 1.469 1.94 2.203 2.91-.215-1.2-1.22-2.068-.955-3.396 1.842 2.82 2.906 5.983 4.096 9.116zm48.295 59.524c1.224-3.508 1.02-6.99.368-10.417-.557-2.927-1.396-5.809-2.233-8.675-.842-2.885-1.7-5.753-1.826-8.783-.014-.334-.14-.663-.214-.995-.17-.762-.408-1.518-.497-2.29-.229-2.01-.901-3.856-1.798-5.654-.898-1.8-1.774-3.62-2.524-5.486-.97-2.413-1.953-4.817-3.549-6.883-1.08-1.4-1.945-3.017-3.597-4.113.007.853-.023 1.566.025 2.274.155 2.35.35 4.698.508 7.05.071 1.061.27 2.143-.322 3.148-.093.157-.151.406-.097.57.556 1.661.086 3.341.077 5.006-.014 2.587-.29 5.22.466 7.708.693 2.277 1.598 4.54 2.776 6.6.824 1.44 1.544 3.073 3.002 4.101.084.059.081.229.137.337.849 1.639 1.698 3.279 2.571 4.905.022.041.319-.066.281-.058.511.891 1.007 1.76 1.509 2.626.268.461.618.889.808 1.379a13.245 13.245 0 0 0 2.11 3.664c.506.62.955 1.321 1.143 2.178.139.636.573 1.208.876 1.808zM1.623 130.646c.494.404.753.648 1.043.845.401.275.893.448 1.23.781 1.937 1.914 4.52 2.974 6.434 4.912 1.695.585 2.752 2.092 4.286 2.936 1.964 1.079 3.954 2.049 6.17 2.443 1.732.307 3.486.491 5.222.785 2.644.447 5.199 1.417 7.933 1.341a1.1 1.1 0 0 1 .434.081c1.356.543 2.706 1.102 4.064 1.642 2.341.933 4.52 2.255 7.004 2.854 1.759.424 3.518.807 5.335.659 2.342-.191 4.679-.442 7.019-.66 3.268-.307 6.449-.965 9.534-2.128 2.048-.773 4.228-.942 6.401-1.079.202-.013.393-.193.879-.446-1.187-.29-2.094-.424-2.935-.737-1.763-.653-3.564-1.18-5.192-2.228-1.015-.654-2.337-.824-3.514-1.232-.689-.239-1.367-.515-2.045-.786-.857-.345-1.721-.679-2.563-1.06-1.333-.602-2.763-1.078-3.954-1.896-2.627-1.805-5.411-3.309-8.25-4.722-3.352-1.668-7.038-2.361-10.567-3.51-.047-.016-.09-.044-.138-.055-2-.435-3.991-.917-6.003-1.29-3.019-.561-6.066-.974-9.074-1.586-1.902-.387-3.77-.105-5.649-.041-2.502.085-4.986.376-7.301 1.433-1.823.834-3.627 1.712-5.803 2.744zm35.675-27.588c-.092-.27-.118-.595-.288-.798-.689-.828-1.436-1.608-2.133-2.43-.16-.189-.207-.476-.441-1.048 2.243 1.031 3.008 3.076 4.517 4.355 1.527 1.295 2.83 2.853 4.231 4.296.11-.248.093-.393.018-.495-2.21-3.002-4.605-5.833-7.556-8.15a32.948 32.948 0 0 1-1.571-1.32c-1.837-1.635-3.836-3.128-5.454-4.958-1.912-2.162-3.605-4.545-5.193-6.963-2.518-3.834-5.381-7.336-8.882-10.309-1.218-1.035-2.521-2.003-3.578-3.186a97.898 97.898 0 0 1-5.353-6.565c-.683-.913-1.397-1.245-2.615-1.056.219.667.351 1.347.654 1.94.753 1.481 1.64 2.893 2.368 4.385.679 1.393 1.196 2.863 1.831 4.278a191.61 191.61 0 0 0 2.523 5.42c.484.995 1.16 1.853 1.984 2.618a50.572 50.572 0 0 1 3.285 3.313c1.308 1.462 2.81 2.72 4.068 4.252 1.265 1.542 3.173 2.396 4.949 3.333.488.257.889.676 1.371.95 1.134.648 2.357 1.16 3.428 1.896a54.461 54.461 0 0 1 6.915 5.669c.254.244.626.364.943.541.519 1.332 1.812 1.794 2.727 2.68l.265-.306-3.013-2.342zm47.096 43.088c-1.896-1.318-3.825-2.589-5.679-3.963-2.936-2.177-5.581-4.677-7.963-7.454-2.848-3.32-5.719-6.62-8.561-9.944-1.369-1.6-2.75-3.195-4.024-4.869-1.048-1.378-2.541-2.147-3.878-3.127-1.382-1.012-2.85-1.905-4.267-2.87-.405-.275-.774-.606-1.144-.93-.567-.495-.859-1.335-1.978-.995-.431.13-.843-.663-.801-1.442l-.763.356c-.894-1.263-2.133-2.102-3.593-2.723-1.154-.492-2.171-1.296-3.276-1.914a3.572 3.572 0 0 0-1.253-.391c-1.284-.165-2.505-.48-3.614-1.176a3.837 3.837 0 0 0-.943-.427c-3.925-1.15-7.04-3.646-10.11-6.176-1.088-.897-1.981-2.038-2.916-3.11-1.658-1.9-3.637-3.438-5.56-5.043-.554-.462-1.007-1.045-1.516-1.56-1.196-1.216-2.391-2.433-3.6-3.634-1.501-1.492-2.186-3.34-2.405-5.399-.019-.176-.001-.373-.077-.52-1.264-2.429-1.226-5.217-2.143-7.736-.406-1.116-.917-2.193-1.334-3.305-.358-.954-.66-1.93-.966-2.902-.253-.802-.083-1.459.817-1.905.241.116.532.358.84.384 1.857.157 2.718 1.642 3.806 2.81.75.803 1.426 1.677 2.147 2.507.608.698 1.187 1.43 1.862 2.057a201.644 201.644 0 0 0 5.215 4.7c1.926 1.671 3.666 3.503 5.152 5.58a624.788 624.788 0 0 0 5.606 7.724c.947 1.283 1.857 2.62 2.97 3.747 1.298 1.315 2.832 2.394 4.207 3.637 2.496 2.258 5.224 4.289 7.231 7.039a48.219 48.219 0 0 0 5.128 5.979c1.145 1.128 2.149 2.407 3.345 3.475.749.668 1.736 1.068 2.614 1.591.376.224.748.451 1.412.851-.596-.892-.995-1.571-1.471-2.191-2.732-3.557-5.016-7.356-6.558-11.592-.858-2.354-2.222-4.46-3.597-6.538-.907-1.37-1.988-2.624-2.894-3.994-.946-1.43-1.802-2.92-2.646-4.414-.571-1.007-1.124-2.002-1.869-2.91-.644-.785-1.082-1.753-1.533-2.678-.688-1.412-1.275-2.874-1.973-4.28-.381-.77-.861-1.502-1.371-2.196-1.186-1.613-1.794-3.459-2.274-5.366-.046-.182-.023-.384-.084-.559-.818-2.354-1.572-4.733-2.492-7.046-.697-1.755-1.426-3.49-2.498-5.102-1.173-1.76-1.995-3.754-2.971-5.646-.068-.13-.122-.275-.212-.389-1.294-1.656-2.639-3.275-3.877-4.97-.99-1.356-1.689-2.9-1.891-4.568-.19-1.554-.677-3.016-1.1-4.494-.87-3.028-1.859-6.022-2.773-9.038-.625-2.063-1.319-4.113-1.778-6.214-.512-2.343-.758-4.726-.353-7.146.388-2.315.47-4.648.184-7-.132-1.077.022-2.187.041-3.282.003-.188.018-.389-.038-.563C8.006 1.815 8.326.902 9.038 0c.917.38 1.529.997 1.851 1.946.377 1.11.713 2.25 1.254 3.28.488.926 1.25 1.706 1.854 2.577 1.228 1.771 2.546 3.496 3.605 5.366.781 1.38 1.209 2.958 1.8 4.446.426 1.075.84 2.156 1.298 3.217.683 1.58 1.201 3.183 1.501 4.902.39 2.24.969 4.454 1.845 6.58.724 1.761 1.359 3.563 1.952 5.374.425 1.295.898 2.617 1.025 3.957.273 2.886.881 5.776.509 8.687-.34 2.657-.15 5.301-.067 7.95.044 1.404-.001 2.83.246 4.2.258 1.431.728 2.844 1.266 4.203 1.188 2.997 2.418 5.981 3.747 8.918.783 1.725 1.765 3.364 2.701 5.017 1.587 2.803 3.146 5.625 4.843 8.361.721 1.163 1.763 2.127 2.86 3.111-.112-.374-.256-.742-.331-1.124-.467-2.354-1.051-4.667-.89-7.13.114-1.746-.206-3.525-.385-5.285a431.286 431.286 0 0 0-.948-8.475c-.064-.525-.351-1.019-.473-1.542-.403-1.72-.708-3.466-1.181-5.165-.487-1.748-1.13-3.452-1.699-5.177-.321-.973-.63-1.95-.944-2.927-.149-.462-.238-.955-.453-1.385-1.162-2.324-1.653-4.852-2.111-7.362-.401-2.195-.038-4.417.53-6.557.494-1.864.612-3.743.72-5.649.113-2.005.312-4.015.649-5.994.313-1.828 1.62-2.23 2.898-.889 1.966 2.06 3.644 4.321 4.315 7.194.219.935.787 1.785 1.032 2.718.484 1.85.851 3.731 1.271 5.6.44 1.956.899 3.91 1.326 5.87.436 2 .849 3.992.822 6.075-.02 1.51.324 3.021.446 4.537.086 1.068.077 2.145.099 3.22.003.19-.121.412-.059.571.562 1.466.228 3 .198 4.47-.036 1.723-.572 3.437-.889 5.156-.121.66-.219 1.324-.358 1.98a162.913 162.913 0 0 1-.763 3.375 2.52 2.52 0 0 1-.264.678c-.938 1.622-1.38 3.411-1.742 5.223-.076.373.016.778.022 1.17.004.34.131.78-.032 1.006-.98 1.36-.246 2.675.022 4.001.068.335.256.651.293.985.295 2.684 1.444 5.064 2.671 7.404 1.024 1.953 2.202 3.827 3.199 5.794.876 1.729 1.545 3.562 2.398 5.304.791 1.616 1.685 3.181 2.95 4.502 1.148 1.2 2.253 2.442 3.401 3.643.467.489 1.043.876 1.49 1.38 1.65 1.865 3.256 3.77 4.904 5.638.611.692 1.325 1.295 1.93 1.992 2.363 2.722 4.79 5.368 7.516 7.748 2.422 2.113 4.67 4.425 7.02 6.622 2.465 2.303 4.96 4.574 7.626 7.029-.054-.374-.019-.605-.106-.669-1.075-.794-1.342-2.097-2.022-3.133-.78-1.188-1.708-2.277-2.535-3.434-1.7-2.378-3.805-4.456-5.233-7.033-.448-.81-.692-1.772-1.27-2.463-1.313-1.572-1.87-3.465-2.589-5.305-.792-2.024-1.099-4.178-1.707-6.238-.597-2.024-1.107-4.201-2.744-5.78a.9.9 0 0 1-.161-.247c-.733-1.44-1.27-3.033-2.249-4.281-1.009-1.287-1.762-2.684-2.619-4.046-1.457-2.318-2.507-4.874-4.306-7-.831-.984-1.363-2.239-1.936-3.416-.602-1.236-1.091-2.525-1.626-3.792-.057-.135-.118-.277-.131-.42-.203-2.238-.446-4.474-.577-6.716-.08-1.369-.033-2.752.046-4.123.053-.928.357-1.844.38-2.769.058-2.364-.049-4.723-.254-7.087-.181-2.094-.103-4.213-.108-6.32 0-.262.193-.524.297-.786.736-.046 1.328.061 1.781.618 1.32 1.624 2.686 3.212 3.957 4.873.583.761.929 1.7 1.482 2.488.956 1.364 1.982 2.68 2.997 4 .205.268.486.48.74.707 2.968 2.674 4.628 5.946 5.085 9.967.303 2.678 1.134 5.295 1.723 7.94.18.81.328 1.626.517 2.433.269 1.147.512 2.303.854 3.428.744 2.448.805 4.902.402 7.424-.337 2.11-.464 4.254-.699 6.382-.204 1.852-.358 3.714-.659 5.55-.454 2.768.108 5.343 1.255 7.834.696 1.51 1.428 3.003 2.153 4.499.341.703.627 1.448 1.073 2.077 1.612 2.277 3.24 4.547 4.943 6.757 1.886 2.45 3.902 4.799 5.78 7.254a22.624 22.624 0 0 1 2.249 3.603c.779 1.556 2.044 2.662 3.316 3.698 2.131 1.738 4.026 3.698 5.942 5.65.466.474 1.071.812 1.846 1.386-.699-2.293-1.318-4.274-2.779-5.926-.929-1.051-1.655-2.281-2.467-3.434-.914-1.301-1.815-2.612-2.735-3.909-1.157-1.631-2.294-3.278-3.507-4.865-.677-.886-1.533-1.634-2.234-2.503-.646-.799-1.208-1.667-1.78-2.525a185.044 185.044 0 0 1-2.331-3.589c-1.152-1.816-2.201-3.706-3.457-5.447-1.208-1.674-1.394-3.612-1.829-5.504-.432-1.883-.753-3.766-.405-5.707.314-1.753.566-3.517.886-5.268.24-1.315-.108-2.583-.215-3.871-.06-.715-.217-1.427-.223-2.142-.008-.894.685-1.242 1.531-.853 1.088.502 1.732 1.449 2.225 2.441 1.07 2.151 1.995 4.374 3.031 6.542.701 1.466 1.396 2.949 2.262 4.317 1.462 2.311 2.226 4.923 3.396 7.351 1.421 2.948 1.824 6.129 2.279 9.269.379 2.616 1.001 5.202 1.01 7.895.004 1.355.743 2.711 1.168 4.06.102.325.337.616.401.944.429 2.175 1.92 3.694 3.259 5.299.814.978 1.7 1.894 2.534 2.855 1.531 1.764 2.38 3.898 3.153 6.051.556 1.546 1.327 2.979 2.362 4.202.762.899 1.845 1.541 2.83 2.232 2.137 1.502 4.269 3.014 6.468 4.421 1.469.94 2.939 1.908 4.614 2.488.531.182 1.114.356 1.366 1.252-2.252-.372-4.134-1.172-5.936-2.393.581.922 2.176 2.08 3.781 2.745 1.424.59 2.86 1.15 4.291 1.724l-.054.404c-.337.048-.711.214-1.004.121-1.298-.41-2.6-.83-3.851-1.365-2.037-.87-3.822-2.167-5.603-3.472-1.854-1.357-3.833-2.555-5.627-3.985-2.172-1.734-4.193-3.653-6.304-5.463-1.537-1.319-3.153-2.51-5.169-3.043-.554-.148-1.087-.447-1.574-.763-1.679-1.089-3.591-1.479-5.491-1.923-.815-.19-1.638-.361-2.433-.618-1.461-.471-2.912-.417-4.262.237-1.926.932-3.942 1.336-6.053 1.5-.746.057-1.466.436-2.201.659-1.222.369-2.424.894-3.673 1.055-1.55.2-3.148.216-4.709.095-2.626-.204-5.234-.649-7.861-.854-1.697-.132-3.258-.643-4.824-1.218-1.42-.522-2.133-1.507-2.105-3.06.61-.729 1.473-.707 2.282-.574.779.128 1.507.02 2.261-.09.648-.094 1.32-.041 1.958-.17.539-.109 1.103-.299 1.552-.605 1.481-1.01 3.089-1.634 4.851-1.948 1.803-.321 3.474-.968 5-2.043 1.289-.91 2.805-1.06 4.365-.865 2.091.262 3.87 1.248 5.597 2.354 1.609 1.03 3.159 2.158 4.805 3.124.649.38 1.523.353 2.23.66 2.072.896 4.213 1.472 6.44 1.855 1.329.227 2.594.822 4.044 1.053-.732-.749-1.462-1.502-2.199-2.248a4091.128 4091.128 0 0 0-7.475-7.549c-.199-.2-.429-.447-.682-.504-1.73-.39-3.265-1.219-4.79-2.071-.894-.499-1.69-.976-2.872-.756-.955.178-2.039-.16-3.033-.4-2.746-.667-5.488-.394-8.175.161-2.685.555-5.305 1.419-7.958 2.133-.618.166-1.245.328-1.879.396-1.764.191-3.391.867-5.082 1.313-2.237.591-4.409 1.542-6.776 1.559-.768.005-1.553-.018-2.298-.176-1.581-.336-3.129-.827-4.713-1.143-.995-.198-2.044-.116-3.044-.297-1.571-.283-3.121-.687-4.683-1.029-1.14-.249-2.274-.561-3.428-.702-2.583-.318-5.184-.476-7.606-1.595-.657-.304-1.442-.317-2.147-.531-2.658-.805-5.035-2.195-7.225-3.84-1.061-.796-1.807-2.01-2.701-3.029-.695-.792-1.465-1.529-2.087-2.373-1.399-1.896-3.505-2.913-5.262-4.36-1.155-.952-2.395-1.801-3.589-2.706-.147-.112-.247-.286-.473-.556.39-.288.7-.585 1.067-.776 2.295-1.187 4.578-2.406 6.92-3.493.871-.403 1.882-.566 2.848-.687 2.758-.341 5.527-.818 8.306-.639 1.987.128 3.952.605 5.922.957 1.675.301 3.357.587 5.011.982a253.01 253.01 0 0 1 8.679 2.223c2.211.611 4.491 1.127 6.552 2.089 2.27 1.057 4.63 1.954 6.742 3.404 1.351.928 2.809 1.731 4.174 2.669 1.426.98 3.218 1.086 4.748 1.836 2.525 1.236 5.227 1.892 7.938 2.566 2.121.527 4.182 1.289 6.27 1.948l.149-.255c-.304-.255-.575-.567-.916-.755-2.874-1.593-5.672-3.369-8.672-4.678-2.49-1.087-5.042-2.106-7.741-2.736-1.837-.43-3.549-1.416-5.297-2.198-1.158-.519-2.32-1.051-3.413-1.694-1.464-.862-2.95-1.727-4.269-2.787-2.492-2.003-4.656-4.398-7.494-5.992-1.342-.753-2.251-1.981-3.083-3.309-.791-1.261-1.517-2.521-1.886-3.954-.416-1.614-.755-3.249-1.097-4.882-.043-.205.096-.449.201-.88.682.427 1.32.706 1.802 1.153 1.282 1.19 2.425 2.54 3.758 3.667 1.576 1.333 3.325 2.459 4.939 3.749 1.835 1.466 4.157 1.88 6.159 2.984 1.875 1.033 3.858 1.845 5.53 3.253 1.757 1.48 3.498 3.065 5.492 4.152 2.342 1.276 3.814 3.352 5.639 5.103.842.807 1.559 1.742 2.343 2.61 1.729 1.913 3.844 3.279 6.057 4.582 1.519.895 3.104 1.779 4.255 3.295.504.666 1.692.87 2.611 1.152 1.236.379 2.511.636 3.774.923.108.024.256-.131.385-.199.221.283-.255 1.048.78.897l-.789-.867z"
        fill="#687E6B" />
</svg>