<svg width="188" height="230" fill="none" xmlns="http://www.w3.org/2000/svg"><g clip-path="url(#a)"><path d="m116.152 74.823.182.179.637-.698-.192-.181-.627.7zm-21.188 42.578.334.112.417-1.203-.29-.102-.461 1.193zM42.725 78.344l.269-.26-.717-.572-.157.17.605.662zm56.872 30.915-.279-.091-.308.953.234.073.353-.935zm-1.301 2.948-.289-.225c-.227.423-.455.846-.681 1.27l.259.141c.237-.395.473-.791.711-1.186zm31.91-16.328c-.621-.291-1.037-.208-1.061.602l1.061-.602zM76.317 161.19c.605-.445.774-.846.268-1.342-.043-.042-.163-.005-.268-.005v1.347zm-12.861-50.771-.246.07v1.474l.331-.017-.085-1.527zm-15.27-26.743.335-.196-.581-1.034-.239.13.485 1.1zm95.238 18.053.028-.352-1.836-.406a72.84 72.84 0 0 0-.08.457l1.888.301zm-85.437-.71-.506.184.721 1.619.262-.11c-.16-.564-.318-1.128-.477-1.693zM40.265 73.937l-.456.932 1.818.301.097-.192-1.459-1.041zm35.327 110.778.362.057.332-2.452-.279-.042c-.137.812-.276 1.625-.415 2.437zM42.706 76.501l1.882 1.649c-.291-.853-.277-2.055-1.882-1.649zm88.85-19.113c.829-.437 1.658-.873 2.488-1.308-.804-.535-.804-.535-2.488 1.308zm-5.919 40.19-1.731 1.744 2.123-.121-.392-1.623zm-22 10.334c-2.808.909-3.115 1.191-2.938 2.458l2.938-2.458zM74.45 150.353l.912 4.212c.552-1.616.139-3.013-.912-4.212zM55.701 96.157c-.139 1.522.166 2.939 1.517 3.926l-1.517-3.926zM42.607 71.866l.371.037c.299-1.827.085-3.874-.636-4.842l.265 4.805zm1.827 1.601c1.087-1.153.676-2.575.543-3.883-.136-1.346-.48-2.671-.734-4.005l-.065.025.256 7.863zm1.589 5.216.749-4.904-2.309 1.54 1.56 3.364zm20.534 47.925c.026-2.923-1.132-5.436-2.637-7.826.15 2.855 1.792 5.202 2.637 7.826zm-6.456 41.634c.337-3.172-.737-5.734-1.281-8.379-.349-1.698-.86-3.361-1.231-5.055-.312-1.433-.319-2.967-.837-4.311-.579-1.501-1.583-2.837-2.4-4.247-.326-.564-.642-1.134-.966-1.698l-2.515-4.387c-.22.45-.263.831-.164 1.172.527 1.812 1.036 3.633 1.655 5.415.694 1.995 1.552 3.933 2.242 5.929.829 2.394 1.584 4.816 2.318 7.242.404 1.337.648 2.724 1.057 4.06.434 1.42.873 2.861 2.122 4.259zM166.34 88.17l-.077.427 1.55.782c-.186.509-.51.967-.482 1.402.063.996-.328 1.64-1.105 2.204-1.077.783-1.702 1.811-1.378 3.224.058.252.059.516.106.959 1.386-.071 2.589.433 3.311 1.625.679 1.118 1.16 2.344.649 3.896 2.537-2.152 3.242-5.86 1.781-8.58-.248-.018-.519-.026-.787-.058-.277-.034-.552-.09-1.113-.185 1.715-.445 1.918-.798 1.485-2.174-.081-.259-.191-.509-.3-.758-.402-.925-.436-1.81.309-2.59.442-.465.339-.92.196-1.501-.306-1.245-1.459-1.71-2.171-2.569-.63-.761-1.295-.623-1.88.193-.291.407-.551.837-.883 1.344l2.524-.217c-.954 1.158-2.028.885-2.976 1.27l4.384.94c-.457.746-.965.362-1.472.304-.547-.063-1.113.034-1.671.062zm-71.122 21.59c.105-.53.176-.734.182-.94.087-3.025.58-6.036.246-9.075-.295-2.694-.202-5.426-.85-8.087a136.646 136.646 0 0 1-1.175-5.25c-.26-1.276-.402-2.577-.656-3.855-.555-2.795-1.147-5.584-1.726-8.374-.147-.704-.419-1.402-.436-2.108-.079-3.263-1.629-6.111-4.115-9.571.348 1.493.632 2.705.913 3.919.184.791.4 1.576.536 2.375.469 2.728.904 5.462 1.367 8.19.053.318.229.614.298.931.104.477.204.961.234 1.446.121 1.945.275 3.891.304 5.838.047 3.157.229 6.291.977 9.373.328 1.354.516 2.755.977 4.062 1.195 3.394 2.413 6.769 2.526 10.422.004.133.143.263.398.704zm-42.636 66.083c-.614-.282-.934-.487-1.284-.581-1.458-.391-2.929-.728-4.385-1.126-1.364-.373-2.755-.69-4.057-1.223-1.805-.74-3.524-1.684-5.302-2.493-2.074-.944-4.248-1.054-6.482-.713-2.493.382-4.977.683-7.245-.932-.508-.363-1.204-.512-1.838-.637-1.877-.373-3.508-1.249-4.897-2.503-1.238-1.12-2.775-1.325-4.299-1.721.388.521.809 1.016 1.343 1.287a155.465 155.465 0 0 0 6.005 2.893c2.466 1.124 5.065 1.964 6.967 4.098.85.952 2.001 1.631 2.967 2.486 3.168 2.805 7.091 2.941 10.928 2.76 2.405-.114 4.929.239 7.259-.785 1.471.334 2.661-.62 4.32-.81zm-3.687-2.471c-.458-.634-.695-1.07-1.031-1.404-.652-.65-1.436-1.18-2.032-1.873-2.117-2.457-4.986-3.744-7.813-5.079-.759-.358-1.677-.392-2.53-.533-.538-.089-1.117-.006-1.629-.162-2.181-.665-4.418-.424-6.596-.244-2.428.201-4.627-.037-6.721-1.351-.6-.377-1.508-.661-2.152-.501-2.145.536-4.214.21-6.305-.172l-1.172-.212c.635 1.152 1.724.99 2.621 1.269 1.232.382 2.762.472 3.619 1.271 2.644 2.465 6.199 2.87 9.192 4.492.274.148.643.192.962.175 1.57-.085 3.142-.161 4.704-.328a13.647 13.647 0 0 1 5.314.474c1.173.343 2.288.893 3.411 1.391.644.285 1.31.578 1.863 1.001.53.405 1.078.636 1.711.793.838.208 1.642.553 2.481.755.592.143 1.219.145 2.103.238zM22.88 21.339c-1.393.461-2.624.721-3.718 1.261-2.258 1.114-4.602 1.98-7.041 2.515-1.1.241-1.737.743-2.155 1.693-.877 1.992-1.794 3.968-2.599 5.988-.167.421.084 1.007.135 1.518.014.144.002.291.002.461l-.964-.488c-.562.678-.958 1.472-1.6 1.869-1.451.897-1.599 2.069-1.154 3.521.128.415.242.854.246 1.284.008 1.189.665 2.05 1.489 2.729.833.685 1.254 1.599 1.783 2.467.142.232.296.458.445.687-.463-2.994-1.009-5.876.385-8.78.748-1.558 2.24-2.63 3.924-2.306 1.143.219 2.027-.167 2.694-1.093.188-.261.296-.599.526-.806 1.084-.973 1.403-2.128.759-3.433-.517-1.049-.184-2.005.433-2.717.533-.614 1.395-1.08 2.197-1.298 2.172-.588 3.144-2.372 4.288-4 .115-.164-.027-.508-.075-1.072zM54.218 121.99l.174-.246c-.823-1.257-1.656-2.509-2.465-3.776-.406-.637-.764-1.303-1.147-1.954-1.014-1.723-1.659-3.695-3.368-4.948-.171-.125-.287-.327-.423-.498-2.066-2.586-3.974-5.311-6.69-7.31-1.742-1.282-3.424-2.661-5.598-3.15a232.863 232.863 0 0 0-6.851-1.449c-1.432-.276-2.888-.428-4.329-.663-1.219-.198-2.456-.346-3.641-.673-1.834-.507-3.63-1.147-5.517-1.754l5.435 4.212c.129.1.248.241.395.285 1.755.526 3.31 1.572 5.209 1.768 1.491.153 2.933.736 4.421.979 1.852.303 3.465 1.219 5.193 1.835 1.905.679 3.299 2.045 4.545 3.582.334.412.668.828 1.044 1.2 1.08 1.068 2.336 1.999 3.235 3.199 1.087 1.45 2.224 2.791 3.675 3.882 1.675 1.261 3.458 2.386 4.844 4.015.501.589 1.233.982 1.859 1.464zm108.644-5.152c.392-.24.618-.392.857-.523 2.162-1.178 2.417-1.964 1.892-4.335-.265-1.191-.401-2.543-.105-3.696.509-1.99 1.406-3.879 2.128-5.815.131-.348.358-.756.279-1.07-.417-1.658-1.206-3.021-2.991-3.337-.515.905-.941 1.761-1.463 2.552-1.257 1.904-3.456 2.683-5.677 2.299-1.37-.236-2.791-.189-4.191-.223-.2-.006-.406.246-.661.411-.104-1.028-.901-.969-1.567-1.081-.816-.136-1.11-.099-2.079.181l3.122.604c-.894.2-1.736.235-2.575.19-.858-.045-1.593-.927-2.578-.5.154.831.772.568 1.189.709.512.173 1.021.358 1.523.56.423.17.824.411 1.257.545.247.076.54-.011.812-.001.204.009.406.057.609.087l.02.206-.93.256c1.434 1.654 2.793 3.254 4.188 4.822.721.812 1.473 1.556 1.812 2.665.191.624.663 1.467 1.189 1.628 1.635.504 2.896 1.414 3.94 2.866zm-36.579 6.082-.282-.066c-.508.761-.967 1.56-1.535 2.274-1.053 1.327-2.168 2.607-3.263 3.901-.214.252-.502.451-.683.723-1.205 1.814-1.611 4.101-3.324 5.622-.148.13-.155.404-.269.585-.535.858-.945 1.852-1.655 2.53-1.597 1.523-3.28 2.976-5.051 4.292-1.406 1.045-2.423 2.434-3.647 3.634-1.114 1.094-2.045 2.378-3.026 3.604-.671.842-1.174 1.858-1.964 2.556-.775.685-1.675 1.208-2.366 2.032-.757.905-1.64 1.711-2.521 2.503-.845.759-1.755 1.445-2.709 2.223.287.116.415.217.478.186 2.25-1.081 4.521-2.121 6.729-3.281a102.654 102.654 0 0 0 5.951-3.405c1.896-1.162 4.058-1.996 5.453-3.828 1.017-1.334 1.793-2.849 2.784-4.204 1.698-2.323 3.279-4.764 5.706-6.444.808-.559 1.267-1.362 1.514-2.276.779-2.888 1.517-5.788 2.294-8.677.226-.839.534-1.655.793-2.485.206-.664.396-1.333.593-1.999zM144.029 1.49c-.898.504-1.542.791-2.101 1.195-1.055.764-1.936 1.732-2.885 2.614-2.383 2.213-3.946 4.9-5.219 7.816-.503 1.152-.897 2.384-1.587 3.414-1.825 2.728-3.094 5.728-4.28 8.741-1.178 2.99-1.605 6.197-1.957 9.388-.052.477.021.997.158 1.46.346 1.171.763 2.321 1.149 3.48.237.709.472 1.418.707 2.126l.191-.051.119-2.236.757 2.571c.09-1.954.782-3.382.97-4.948.185-1.533.719-3.008.587-4.615-.083-1.009.07-2.067.292-3.063.307-1.373.901-2.686 1.15-4.065.253-1.402 1.713-2.267 1.543-3.806-.005-.041.053-.093.091-.132 1.007-1.051 2.007-2.109 3.028-3.146.412-.419.951-.732 1.291-1.197 1.475-2.015 3.319-3.788 4.145-6.242.099-.293.375-.532.586-.782.648-.768 1.303-1.528 1.966-2.306l-1.363-1.591-1.703 2.654c.02-1.324.617-2.387 1.326-3.393.743-1.054 1.031-2.218 1.039-3.886zM93.247 118.041c.543-1.41.973-2.485.944-3.673-.023-.925-.161-1.848-.177-2.773-.053-3.223-.475-6.392-1.532-9.442-1.476-4.265-2.249-8.682-2.967-13.113-.043-.267-.006-.547-.001-.82.033-1.725.236-3.466.063-5.17-.296-2.906-.746-5.802-1.279-8.675-.614-3.314-1.367-6.603-2.105-9.893-.262-1.163-.538-2.349-1.021-3.429-.504-1.125-1.264-2.135-1.916-3.192-.135-.218-.292-.423-.438-.635.151 1.137.712 2.103.893 3.137.537 3.054.879 6.139.711 9.253-.047.866-.167 1.728-.196 2.595-.117 3.482-.28 6.964-.289 10.446-.005 2.163.206 4.329.389 6.487.057.69.198 1.438.984 1.814-.439-1.289-.558-2.577-.512-3.914.046-1.325-.06-2.659-.153-3.986-.196-2.782-.195-2.96.374-3.86.058.273.131.472.137.672.053 2.102.077 4.204.147 6.306.032.918.046 1.856.249 2.744.398 1.745.949 3.454 1.374 5.193.093.38-.072.824-.128 1.33.591 1.086 1.376 2.262 1.892 3.546.542 1.349.775 2.818 1.242 4.202.291.863-.456.704-.932 1.107 2.493 4.07 3.458 8.691 4.247 13.743zm-2.622 42.565.215.195c.825-.621 1.72-1.167 2.457-1.878 1.357-1.309 2.467-2.921 3.957-4.038 3.144-2.359 5.276-5.573 7.763-8.496.818-.962 1.792-1.802 2.756-2.625 1.808-1.543 3.81-2.889 5.45-4.587 1.559-1.611 2.931-3.387 3.918-5.523 1.372-2.969 3.365-5.61 5.548-8.095 1.3-1.479 2.355-3.177 3.483-4.803.71-1.025 1.237-2.132 1.048-3.599-.247.218-.443.323-.542.487a26.902 26.902 0 0 1-6.71 7.518c-2.742 2.108-5.537 4.146-8.295 6.234a18.241 18.241 0 0 0-1.839 1.596c-1.007 1.005-2.06 1.986-2.531 3.397-.17.513-.338 1.029-.548 1.526-.759 1.792-1.536 3.576-2.186 5.088-1.127.862-2.021 1.576-2.947 2.245-.756.546-1.63.951-2.309 1.575-.742.684-1.352 1.521-1.96 2.337-.809 1.088-1.627 2.18-2.32 3.342-1.306 2.19-2.533 4.428-3.775 6.656-.254.458-.424.964-.633 1.448zM12.338 95.702l-.149.242c.449.511.872 1.049 1.353 1.529.688.687 1.412 1.34 2.133 1.994 1.304 1.183 2.977 1.708 4.489 2.52 2.021 1.086 3.845 2.404 4.987 4.494 1.218 2.228 2.995 3.998 4.982 5.514 1.809 1.38 3.811 2.504 5.654 3.843 2.129 1.547 4.519 2.71 6.315 4.764.855.977 2.277 1.45 3.417 2.187 1.083.7 1.768 1.851 3.094 2.343 1.301.481 2.419 1.437 3.659 2.108.75.405 1.553.788 2.378.965 2.272.488 4.564.876 6.856 1.268.412.071.851-.025 1.279-.044l.037-.334c-2.015-.465-3.765-1.428-5.329-2.717a291.85 291.85 0 0 1-5.459-4.593c-.941-.815-1.726-1.832-2.733-2.543-2.674-1.888-5.055-3.996-6.912-6.76-1.056-1.573-2.665-2.767-3.97-4.181-2.486-2.692-5.804-3.752-9.162-4.709-2.395-.683-4.822-1.253-7.241-1.851a6.829 6.829 0 0 1-2.732-1.349c-1.525-1.232-3.12-2.382-4.73-3.504-.682-.476-1.474-.795-2.216-1.186zm153.043-81.016c.151-2.164 1.704-3.762 1.129-5.866-.982-.359-1.853-.989-2.98-1.075-.643-.048-1.122-.426-1.49-1.097-.431-.787-1.134-1.447-1.801-2.075-.449-.424-1.026-.723-1.572-1.033-.371-.21-.777-.446-1.185-.488-.954-.098-1.92-.11-2.881-.109-.56 0-.914-.091-1.358-.595-1.111-1.259-1.628-1.353-2.882-.449-.779.562-1.742.869-2.624 1.286-.691.326-1.403.614-2.075.975-.929.5-1.013 1.139-.289 1.933.219.239.479.442.712.654.125-.028.23-.037.325-.075 2.028-.809 2.013-.795 3.584.799.365.371.846.667 1.326.874.53.228 3.694 1.856 4.149 2.256.122.107.244.218.376.309.942.647 1.281 1.572 1.268 2.673-.01.93-.048 1.863.01 2.79.125 2.038.523 2.39 2.589 2.445.099.003.196.076.391.157.12.456.34.972.372 1.5.034.556-.112 1.123-.185 1.74l1.252-1.109c-.369 2.074-2.539 2.956-2.786 5.071l1.095-1.291.852.76c1.007-.991 1.898-2.019 2.941-2.858 1.379-1.111 2.735-2.236 4.531-2.782 1.101-.334 1.881-.034 2.487.589 1.842 1.89 4.345 2.358 6.625 3.464l.465-1.152c-.914-1.677-1.697-3.276-2.633-4.778-.766-1.229-1.258-2.697-2.576-3.509-.939-.578-1.685-1.324-2.222-2.269-.501-.881-1.285-1.012-2.071-.67-.609.266-1.139.776-1.613 1.267-.436.452-.749 1.022-1.256 1.738zM17.713 31.861c.595-.32 1.088-.453 1.389-.769 1.268-1.338 3.038-1.339 4.627-1.807.274-.081.656.061.944.196 1.689.792 3.031 2.181 4.817 2.819.184.065.326.29.452.467 2.46 3.45 4.884 6.923 6.806 10.717.49.968.969 1.976 1.65 2.804.976 1.186 1.517 2.477 1.704 3.98.096.769.362 1.517.612 2.517l.766-1.068c.252.557.447.991.644 1.424l.426-.118c-.112-1.609-.242-3.218-.324-4.828-.021-.41.102-1.184.167-1.185.849-.012.712-.686.668-1.085-.16-1.453-.457-2.89-.639-4.34-.407-3.212-1.509-6.281-1.829-9.517-.326-3.31-.316-6.599.072-9.59-.434-.805-.742-1.365-1.038-1.933-.629-1.206-2.326-2.021-3.397-1.463-.877.458-1.631.363-2.484.058-1.321-.47-2.564-.53-3.486.833-.231.341-.636.566-.915.805.097.732.631 1.399-.171 2.062-.193-.282-.424-.478-.474-.713-.246-1.173-1.228-1.607-2.146-1.772-.859-.155-1.375.722-1.842 1.395-.589.849-1.292 1.646-1.727 2.568-.861 1.832-2.341 2.781-4.154 3.444-1.65.603-1.824 1.043-1.441 2.818.068.315.157.626.323 1.281zm28.888 36.335.527.05c.161-1.212.346-2.422.478-3.637.124-1.138.046-2.317.316-3.414.61-2.489 1.017-4.934.832-7.548-.187-2.646.13-5.334.309-7.998.161-2.41 1-4.646 2.199-6.709.686-1.178 1.499-2.261 1.634-3.671.015-.161.039-.349.131-.47.614-.814.466-1.748.519-2.675.092-1.626.22-3.259.495-4.862.42-2.46 2.412-3.68 4.325-5.085-.131-.796-.283-1.646-.407-2.499-.23-1.579-.369-1.716-2.006-1.527-1.553.178-3.097.424-4.749.655v3.164c-1.063-1.061-.853-2.263-.773-3.148-.865-.469-1.581-.806-2.244-1.226-1.169-.738-2.241-.688-3.326.149-.456.351-.986.616-1.504.876-.674.34-1.168.76-1.205 1.599-.084 1.908-.307 3.814-.3 5.721.009 2.123.167 4.25.341 6.368.107 1.297.303 2.593.568 3.867.742 3.55 1.662 7.073 1.562 10.742-.018.648-.403 1.366-.223 1.924.535 1.657-.029 3.264-.179 4.837-.244 2.549.173 4.994.456 7.473.052.47.307.917.567 1.653l.558-2.205.283.015v5.548l.233-.005.185-1.458.149.025.249 3.471zm3.499.419c.251-.016.323.001.358-.026 1.825-1.433 2.935-3.579 4.88-4.894.042-.029.091-.081.096-.126.124-1.31 1.243-2.101 1.686-3.274.55-1.462 1.153-3.015 2.146-4.177 2.5-2.924 3.075-6.503 3.473-10.025.29-2.583.845-5.119 1.081-7.701.089-.968.115-1.943.145-2.916.041-1.342-.113-2.692.285-4.016.293-.974.488-1.977.738-2.964.236-.936.51-1.863.72-2.804.075-.335.011-.701.011-1.039l-6.94-1.201c-.776.608-1.538 1.016-2.028 1.636-.626.791-1.25 1.7-1.493 2.654-.698 2.763-.374 5.68-1.255 8.459-.298.938-.529 1.818-1.103 2.637a14.555 14.555 0 0 0-1.963 3.887c-.608 1.857-.615 3.741-.857 5.61-.231 1.779-.413 3.604-.264 5.379.14 1.652.167 3.254-.104 4.881-.304 1.815-.849 3.579-.949 5.441-.078 1.476-.423 2.938-.648 4.407 1.435-2.868 1.493-6.046 2.237-9.074.14 2.946-.436 5.802-1.106 8.648l.335.075c.486-.955.971-1.909 1.458-2.863l.256.113-1.195 3.273zm78.865 28.888.013.448c.987.206 1.987.362 2.955.628 2.365.648 4.744 1.145 7.213 1.219 1.668.049 3.332.255 4.995.419.92.089 1.838.357 2.75.33 2.242-.066 4.444.071 6.616.675.615.171 1.291.265 1.921.205.937-.088 1.787-.124 2.697.312 1.079.516 3.419.068 3.835-.688.971-1.768 1.7-3.622 1.31-5.736l-1.97-.586.062-.173h2.157l-.15-.262 2.96-2.974c-.659-1.749-1.83-2.906-3.419-3.692-.83-.41-1.588-.989-2.445-1.316-.791-.3-1.664-.46-2.511-.51-1.331-.079-2.727.224-3.995-.067-1.812-.416-3.554-.806-5.433-.5-1.487.242-3.01.269-4.515.401a1.325 1.325 0 0 0-.449.151c-.919.456-1.848.892-2.745 1.39a48.424 48.424 0 0 0-2.634 1.597c-.541.346-1.021.791-1.575 1.111-.939.541-1.94.979-2.865 1.542-.358.218-.579.659-.863.998l.188.27c.589-.563 1.174-1.071 2.033-.712.13.054.416-.3.645-.44.807-.494 1.622-.979 2.433-1.467l.226.342c-1.22.842-2.508 1.603-3.643 2.549-1.166.972-2.718 1.479-3.714 2.945h1.661l-3.744 1.591zM34.69 74.15c-1.063-.264-1.642-1.065-2.274-1.801.815-.444 1.161.761 2.048.517.722-.198 1.546.665 2.58-.087-1.951-.449-3.036-1.816-3.956-3.374.427.26.857.552 1.145.947.447.616.919.537 1.592.31-1.013-1.98-2.215-3.676-3.752-5.056-2.54-2.279-4.947-4.664-7.017-7.382-.361-.473-.712-.984-1.172-1.345-2.518-1.974-5.067-3.91-7.612-5.848-.167-.128-.391-.184-.593-.26-1.775-.673-3.55-1.345-5.328-2.01-.356-.133-.737-.362-1.084-.328-1.375.137-2.558-.363-3.703-1-.619-.343-1.206-.745-1.788-1.148-.635-.439-1.079-.301-1.494.332-.744 1.138-1.08 2.354-1.005 3.718.112 2.023 1.013 3.825 1.546 5.728.172.615.523 1.224.934 1.718 1.141 1.374 2.372 2.671 3.535 4.025 1.167 1.358 2.425 2.664 3.401 4.152.77 1.176 1.763 1.936 2.976 2.428 2.14.868 4.025 2.133 5.878 3.473.395.285.81.591 1.264.737 2.905.933 5.817 1.814 8.855 2.278 1.784.273 3.348-.295 5.024-.724zm98.076-23.421.243-.014 1.587-3.622.356.145c-.44 1.826-1.074 3.584-1.904 5.395l3.896-2.558.166.238-1.727 1.577c.343-.024.517.015.629-.051 2.386-1.406 4.823-2.749 6.664-4.889.459-.533.749-1.219 1.232-1.725 2.059-2.163 3.898-4.477 5.279-7.143.295-.57.734-1.075 1.154-1.57.914-1.074 1.978-2.04 2.757-3.2.932-1.387 1.685-2.905 2.417-4.413 1.209-2.489 2.354-5.009 3.486-7.534.132-.295.018-.701.018-.985l-2.671-.869-1.099 1.276c-.052-.256-.125-.389-.085-.451.752-1.182 1.314-2.368.673-3.825-.159-.358-.033-.868.037-1.297.257-1.612.118-3.052-1.528-3.918-.14-.074-.333-.168-.375-.296-.421-1.25-1.481-1.302-2.517-1.33-.807-.022-1.411-.231-1.925-.939-.393-.541-1.058-.885-1.606-1.32-1.596.999-3.094 1.886-4.045 3.424-.62 1.001-1.163 2.057-1.858 3.002-1.148 1.559-2.262 3.182-3.631 4.533-1.669 1.647-3.228 3.263-4.298 5.429-1.372 2.782-2.306 5.58-2.202 8.705.039 1.141.23 2.442-.225 3.395-.647 1.353-.578 2.759-.902 4.121-.209.882-.197 1.816-.284 2.726 1.172-1.399.564-3.26 1.403-4.843.638 1.233.277 2.347.153 3.463-.315 2.837-.837 5.666-.426 8.63.719-.977-.18-2.261.904-3.216l.254 3.949zm10.323-1.96c-.268.054-.649.013-.784.176a7.71 7.71 0 0 1-2.495 1.987c-1.09.559-2.288 1.063-2.928 2.254 2.337-1.099 4.659-2.217 6.181-4.448.318-.161.708-.251.939-.494.884-.931 1.718-1.91 2.571-2.872.163.436.14.81-.058 1.021-1.295 1.386-2.562 2.808-3.974 4.067-.748.667-1.105 1.743-2.165 2.076-.037.012-.022.193-.039.389l2.107-.159-2.186 1.487c3.715.89 7.104-.027 10.408-1.221 2.656-.959 5.21-2.199 7.825-3.277a4.731 4.731 0 0 1 1.584-.329c3.562-.151 6.787-1.13 9.509-3.562 1.335-1.192 2.811-2.223 4.189-3.368 1.294-1.076 2.508-2.249 3.819-3.302 1.571-1.262 2.533-2.856 3.107-5.065l-2.438.204c.364-.778 1.137-1.343.988-2.302-.35-2.245-.483-4.492-2.331-6.257-1.163-1.11-2.443-1.941-3.917-2.234-1.205-.239-2.093-.634-2.872-1.579-.833-1.009-1.086-.906-2.241-.429-2.089.865-3.418 2.661-5.106 4.011-2.156 1.724-3.814 4.057-6.441 5.221-.346.153-.631.609-.792.989-.876 2.088-2.721 3.443-3.931 5.274a314.729 314.729 0 0 1-2.144 3.214c-.518.766-1.01 1.555-1.59 2.272-1.47 1.821-2.992 3.601-4.469 5.416-.181.222-.219.56-.326.84zM39.485 68.091l-.032.029c.855.415.797 1.307 1.071 2.031.312.819.663 1.622.996 2.432.362-1.534.012-2.875-.502-4.2-.253-.653-.394-1.35-.569-2.031-.013-.051.115-.14.234-.277l.683.978c.128-.277.33-.501.283-.645a410.815 410.815 0 0 0-2.208-6.562c-.315-.912-.64-1.814-.387-2.828l2.834 6.891c.157-.967.077-.946-.354-2.339-.563-1.812-1.032-3.654-1.5-5.494-.306-1.204-.608-2.416-.785-3.642-.313-2.159-.72-4.206-2.305-5.92-.781-.843-1.134-2.083-1.676-3.145-.147-.288-.242-.608-.421-.872-1.772-2.616-3.611-5.189-5.319-7.846-1.19-1.851-3.204-2.511-4.877-3.658-.338-.23-.956-.196-1.402-.096-1.376.312-2.72.727-3.864 1.625-.378.297-.816.571-1.27.706-1.839.545-2.564 2.024-1.757 3.72.257.54.563 1.057.81 1.6.106.234.122.509.178.766l-.253.121a2541.31 2541.31 0 0 0-2.044-2.502c-1.173.091-2.285.215-3.399.253-.961.032-1.76.357-2.128 1.248-.578 1.397-1.236 2.812-.991 4.388.239 1.545.562 3.077.814 4.435 2.486.885 4.88 1.728 7.263 2.599.288.106.52.369.776.564 1.192.906 2.413 1.778 3.568 2.729 1.65 1.36 3.556 2.554 4.798 4.23 1.576 2.127 3.565 3.793 5.31 5.716 1.258 1.386 2.729 2.579 3.969 3.979.945 1.067 1.675 2.324 2.512 3.488.03.042.181-.005.277-.011l-.144-1.005 2.304 2.024-.493-3.479zm98.757-11.675c.326.237.624.615.983.688 2.539.512 5.091.962 7.524 1.41-.212.222-.25.569.355.646.714.09 1.441.082 2.303.123-.713.582-1.645-.033-2.213.797 1.573.164 3.022.326 4.474.457.32.029.649-.062.974-.082.589-.035 1.192-.15 1.767-.072 2.709.368 5.393.487 8.021-.474 1.223-.446 2.528-.736 3.658-1.349 1.306-.709 2.781-1.025 3.961-2.1 1.059-.964 2.471-1.571 3.787-2.212 1.771-.864 3.606-1.597 5.399-2.416.337-.153.643-.413.903-.681.682-.7 1.468-1.097 2.463-1.081.958.015 1.62-.454 2.146-1.261.335-.513.865-.899 1.289-1.324-.713-1.179-.547-3.103-2.609-3.38l-2.312 1.557a58.9 58.9 0 0 1-.253-.24c1.719-1.074 2.811-2.527 2.987-4.536a.382.382 0 0 1 .046-.156c.437-.707.104-1.348-.393-1.735-.797-.62-1.728-1.066-2.661-1.619-.451.631-.722 1.178-1.142 1.566-1.671 1.544-3.34 3.097-5.101 4.535-1.708 1.395-3.61 2.557-5.272 3.999-1.754 1.522-3.785 2.271-5.987 2.611-2.538.391-4.988.873-7.349 2.033-2.477 1.216-4.959 2.541-7.769 2.954-2.3.339-4.555 1.106-6.941.518-.498-.123-1.091.139-1.79.246l.904.985c-.839-.14-1.512-.252-2.196-.353-.755-.534-1.572-.873-2.826-.866 1.05.707 1.724 1.576 2.87.812zm.156 46.232.028-.035c-.272.002-.568.077-.813-.003a94.382 94.382 0 0 1-3.696-1.285c-.635-.236-1.24-.429-1.977-.028l1.912 1.317c-1.087-.154-2.03-.503-2.935-.93-.882-.416-1.726-.913-2.853-1.517.54 2.082 1.973 3.075 3.149 4.302-.722.827-.293 1.472.316 2.046.625.589 1.293 1.134 1.941 1.698l.04-.04c-.082.186-.286.451-.225.544.531.814 1.048 1.653 1.69 2.378.819.924 1.903 1.642 2.601 2.638 1.513 2.158 3.842 2.671 6.114 3.293 1.776.485 3.613.746 5.399 1.205 2.076.533 4.098 1.311 6.194 1.728 1.921.383 3.895.926 6.007.197l.182-1.833c-1.618-.64-1.634-.695-.548-2.06l-5.478-2.115.012-.158h1.34c-.07-1.198-.494-2.126-1.338-2.926-1.104-1.046-2.38-2.029-3.129-3.305-1.599-2.726-4.298-3.492-6.956-3.943-2.168-.368-4.092-.928-5.889-2.159-.595-.408-1.39-.559-2.115-.731-1.422-.338-2.858-.621-4.291-.906-1.411-.28-2.826-.535-4.371-.825.107.389.122.649.192.666 1.025.233 2.055.455 3.091.637 1.636.288 3.28.525 4.913.827.412.076.84.256 1.169.508.199.153.223.535.324.815zm-68.117-25.27c.17-.674.265-1.378.523-2.015.918-2.257 1.892-4.489 2.376-6.897.644-3.199 1.206-6.414 2.363-9.495.353-.941.331-2.024.475-3.043.107-.755.155-1.522.317-2.266.456-2.097.31-4.159-.177-6.414-.209.439-.392.674-.431.929-.395 2.595-1.33 5.023-2.304 7.433-1.203 2.97-2.481 5.909-3.7 8.872-.493 1.199-1.067 2.395-1.336 3.649-.393 1.841-.49 3.743-.82 5.6-.247 1.387-.633 2.751-1.01 4.111a341.24 341.24 0 0 1-1.985 6.894c-.958 3.198-1.751 6.433-1.819 9.785-.055 2.672.029 5.345.071 8.018.002.155.184.306.382.613.847-2.902 1.623-5.611 2.436-8.308.212-.703.712-1.351.792-2.056.355-3.134 1.947-6.005 1.776-9.269-.11-2.082.798-4.021 1.599-5.925.058-.136.342-.178.524-.266-.077.468-.114.948-.241 1.402-.336 1.195-.828 2.357-1.046 3.571-.33 1.832-.142 3.71-.621 5.564-.483 1.877-.64 3.833-1.522 5.612-.237.478-.29 1.047-.435 1.573-.214.782-.376 1.586-.665 2.341-1.185 3.095-1.842 6.287-1.846 9.601-.001 1.162.092 2.324.143 3.486.4-.155.543-.315.637-.501 1.269-2.516 1.783-5.229 2.078-8 .068-.648.077-1.333.304-1.928.693-1.824 1.323-3.7 2.271-5.39.957-1.707 1.05-3.772 2.366-5.303.195-.226.211-.603.316-.908.525-1.533.882-3.155 1.632-4.568.632-1.192.771-2.297.557-3.551-.061-.36-.133-.841.044-1.096.707-1.012.41-2.301 1.013-3.331.157-.268.233-.616.247-.932.113-2.557.187-5.115.305-7.672.07-1.517.249-3.031.288-4.549.029-1.154.541-2.319-.02-3.731-.601 2.262-1.175 4.271-1.659 6.302-.199.838-.055 1.773-.321 2.58-.881 2.666-1.853 5.302-2.85 7.927-.214.566-.678 1.037-1.027 1.551zm64.72 10.652c-.745-.508-1.357-.231-1.822.392-.303.407-.209.816.241.973.553-.487 1.064-.934 1.574-1.382l.505.924c1.099-.687 2.197-1.358 3.278-2.055.593-.383 1.104-.957 1.744-1.193 3.024-1.11 6.091-2.058 9.384-1.828 1.083.075 2.265-.17 3.233.186 1.426.524 2.822.507 4.269.52 1.068.009 2.165.063 3.195.318.838.208 1.578.498 2.499.289 1.211-.276 1.63-.557 1.892-1.872-.706-.268-1.611.06-2.344-.801 1.158-.292 2.144-.339 3.124-.022.968.313 1.772.136 2.498-.617-.658-.899-1.246-1.751-1.885-2.563-.839-1.065-1.839-1.756-3.318-1.75-1.331.006-2.661-.277-3.995-.399a10.552 10.552 0 0 0-1.61-.003c-2.057.126-4.11.252-6.035 1.133-.423.194-.957.143-1.437.222-.317.051-.685.048-.935.213-2.388 1.584-5.296 2.212-7.508 4.133-.638.554-1.478.868-2.185 1.35a116.97 116.97 0 0 0-4.243 3.013c-.156.117-.078.548-.119.819zm-85.514 52.918c.111.694.28 1.386.321 2.084.101 1.722-.037 3.478.252 5.163.386 2.252.537 4.566 1.5 6.711.863 1.922 1.572 3.914 2.35 5.875.42 1.057.81 2.127 1.264 3.169.606 1.389 1.356 2.685 2.661 3.718.047-.291.125-.455.088-.587-.454-1.672-.883-3.353-1.402-5.005-.681-2.167-1.443-4.307-2.153-6.464-.271-.821-.373-1.717-.755-2.477-1.679-3.338-2.545-6.92-3.364-10.527-.131-.573.035-1.364-.771-1.651.31-1.092.303-1.092-.355-1.543l.364 1.534zm81.736-85.67c-.979.868-1.663 1.922-2.013 3.2a42.973 42.973 0 0 0 3.221-2.962c.3-.307.719-.767.066-1.2-.128-.219-.257-.626-.385-.626-.857.003-1.154.57-.889 1.588zm-89.696.213c.1.56.197 1.121.298 1.68.088.484.178.966.267 1.449.277-.745.29-1.445.272-2.144-.014-.543-.3-.885-.844-.987.576-.869.584-1.666-.488-2.615l.495 2.617zm34.444 135.761c-.461-.036-.673.125-.699.638-.09 1.778-.183 3.558-.375 5.327-.08.743-.379 1.468-.626 2.186-.954 2.779-.693 5.681-.886 8.538-.2 2.978-.448 5.953-.608 8.934-.056 1.045.052 2.104.145 3.151a10.987 10.987 0 0 1-.615 4.787c-.257.709-.338 1.48-.564 2.203-.069.219-.354.37-.756.765.138-1.168.178-2.012.346-2.83.547-2.665-.115-5.332.069-7.999.324-4.681.562-9.367.881-14.049.07-1.028.202-2.085.521-3.058 1.051-3.205.944-6.318-.613-9.314-.824-1.586-1.769-3.116-2.74-4.62-1.184-1.835-2.483-3.595-3.669-5.427-.578-.891-1.332-1.36-2.352-1.579-2.075-.448-4.118-1.061-6.206-1.43-2.343-.414-4.673-.318-7.041.233-2.215.515-4.526.688-6.806.837-2.111.138-4.24.107-6.356.038-2.262-.073-4.41-.55-6.339-1.893-1.393-.97-2.832-1.841-3.931-3.179-2.141-2.605-5.338-3.44-8.219-4.792-1.471-.689-3.035-1.2-4.454-1.979-1.016-.557-1.877-1.406-2.778-2.161-1.035-.867-2.071-1.739-3.044-2.674-.935-.898-1.804-1.865-2.663-2.836-.127-.144-.041-.477-.058-.82 1.432.061 2.406.914 3.456 1.493 2.372 1.309 4.961 2.124 7.547 1.644 2.591-.48 4.687.286 6.9 1.238.668.288 1.509.457 2.211.334 2.836-.496 5.64-.199 8.455.095.746.079 1.505.066 2.245.178.752.113 1.59.157 2.213.529 2.242 1.337 4.757 2.233 6.716 4.032 1.36 1.249 2.671 2.552 4.045 3.783.89.796 1.761 1.698 2.807 2.217a55.476 55.476 0 0 0 6.601 2.788c1.618.557 3.358.76 5.362 1.189l-1.569-3.207c-.442-.137-1.033-.177-1.079-.358-.628-2.428-2.54-3.854-4.249-5.381-1.93-1.723-3.505-3.567-3.922-6.229-.113-.722-.59-1.38-.828-2.092-.438-1.306-1.055-2.54-1.689-3.741-1.525-2.896-1.83-5.99-1.832-9.168 0-.209-.107-.416-.127-.627-.143-1.455-.25-2.913-.417-4.363-.363-3.109-1.14-6.052-3.08-8.628-.663-.882-1.001-2.02-1.412-3.07-.066-.168.266-.492.472-.843.262.23.514.342.553.504.303 1.291 1.228 2.132 2.104 3.017a52.297 52.297 0 0 1 6.595 8.133c.588.898 1.011 1.902 1.512 2.857.902 1.722 1.855 3.418 2.685 5.173.361.761.487 1.636.689 2.467.528 2.173 1.079 4.342 1.548 6.528.636 2.964 1.517 5.871 1.78 8.926.129 1.487.557 3.052 1.255 4.366 1.985 3.746 4.12 7.416 6.309 11.048 1.363 2.261 2.93 4.397 4.515 6.754.048-.786.057-1.51.14-2.225.246-2.103.532-4.202.78-6.306.16-1.352.33-2.706.412-4.064.147-2.446.143-4.904.361-7.342.465-5.166-.453-10.17-1.501-15.182-1.183-5.664-2.937-11.166-4.628-16.686a57.673 57.673 0 0 0-1.726-4.915c-.175-.431-.729-.812-1.196-.998-1.182-.472-2.388-.961-3.631-1.188-2.456-.45-4.94-.772-7.422-1.064-2.313-.273-4.196-1.44-6.057-2.69-.491-.33-.997-.639-1.479-.979-1.906-1.343-3.839-2.649-5.696-4.057-1.548-1.174-2.985-2.492-4.505-3.704-.592-.472-1.23-.966-1.93-1.209-2.402-.83-4.14-2.71-6.323-3.88-.404-.217-.658-.709-.988-1.068-1.779-1.935-3.795-3.663-5.182-5.936-1.049-1.719-2.815-2.578-4.474-3.409-3.908-1.96-6.973-4.724-9.397-8.354-1.03-1.544-2.602-2.716-3.785-4.173-.696-.858-1.142-1.93-1.637-2.937-.113-.229.04-.589.112-1.288.503.503.809.742 1.025 1.044.213.297.258.742.51.98 1.417 1.342 2.826 2.702 4.341 3.929.7.566 1.615.893 2.468 1.242a127.78 127.78 0 0 0 5.177 2.005 67.889 67.889 0 0 0 4.48 1.443c.551.156 1.175.028 1.748.128 2.792.485 5.578 1.002 8.366 1.509.268.049.531.146.8.164 3.739.252 6.665 2.287 9.276 4.642 2.463 2.222 4.648 4.773 6.784 7.324.972 1.162 1.532 2.671 2.278 4.024.053.095.079.207.14.296 1.395 2.07 2.503 4.443 4.272 6.12 1.762 1.669 3.561 3.467 5.955 4.453 1.158.476 2.107 1.49 3.103 2.318.272.227.371.664.549 1.004l.474-.377c-.442-1.197-.881-2.397-1.327-3.593-.675-1.809-1.544-3.528-1.779-5.513-.157-1.319-.828-2.575-1.24-3.868-.561-1.764-1.152-3.522-1.629-5.31-.872-3.269-2.378-6.262-3.856-9.275-.569-1.162-1.276-2.315-1.544-3.554-.381-1.768-1.381-3.191-2.216-4.687-1.283-2.302-2.841-4.449-4.196-6.712-1.096-1.829-2.255-3.592-3.819-5.059-.119-.111-.173-.311-.304-.383-1.975-1.086-3.619-2.578-5.247-4.11-.344-.323-1.019-.429-1.533-.413-1.681.052-3.356.237-5.036.311-1.033.045-2.115.164-3.1-.068-2.477-.584-4.983-.988-7.419-1.861-2.124-.761-3.874-1.931-5.634-3.214a6.76 6.76 0 0 0-1.876-.975c-2.052-.655-3.55-1.885-4.756-3.698-1.014-1.524-2.396-2.805-3.625-4.184-1.043-1.168-2.162-2.274-3.129-3.501-.561-.711-.952-1.581-1.307-2.426-1.024-2.43-1.505-4.954-1.269-7.614.129-1.452 1.009-2.501 1.778-3.588.207-.292.978-.296 1.47-.243.457.049.887.351 1.491.366-.403-.528-.876-1.017-1.198-1.59-1.063-1.893-1.47-3.958-1.303-6.108.075-.965.647-1.695 1.482-2.242.433-.283.828-.68 1.124-1.105a20.473 20.473 0 0 0 2.778-5.686c.301-.98.906-1.862 1.262-2.829.358-.977 1.045-1.422 1.992-1.687 1.676-.468 3.356-.941 4.991-1.53 1.794-.646 3.511-1.515 5.322-2.102.75-.243 1.656-.004 2.818.024.992-1.395 2.472-2.254 4.306-.816.915-.584 1.711-1.054 2.464-1.583.891-.626 1.795-.591 2.735-.176.778.344 1.504.478 2.33-.005.541-.317 1.17-.249 1.831.088.989.505 2.352.318 2.691 1.512.674-.569 1.273-1.131 1.93-1.61.777-.566 1.576-1.113 2.417-1.574 1.451-.799 2.782-.821 4.156.397 1.108.982 2.465 1.356 4.032.675 1.018-.443 2.193-.556 3.311-.732.945-.149 2.717 1.387 2.82 2.361.118 1.11.231 2.22.334 3.222 1.749.412 3.312.856 4.905 1.12.7.116 1.462-.137 2.269-.23.37.831.272 1.696.107 2.538-.46 2.347-.975 4.683-1.443 7.029-.084.424-.154.9-.048 1.305.492 1.889.061 3.759-.133 5.611-.289 2.758-.78 5.496-1.219 8.237-.449 2.809-1.169 5.478-2.852 7.901-1.413 2.034-2.366 4.381-3.627 6.53a35.42 35.42 0 0 1-5.553 7.184c-.998.994-2.179 1.81-3.311 2.661-.529.398-.832.863-.794 1.518.073 1.242.12 2.488.258 3.724.217 1.943.697 3.832 1.312 5.689.732 2.215 1.415 4.496 2.99 6.253.941 1.05 1.747 2.134 2.389 3.366.423.816.859 1.627 1.261 2.454 1.811 3.719 3.739 7.387 5.013 11.345.166.517.409 1.01.642 1.503.06.128.214.212.436.421-.105-1.471.026-2.871-.35-4.119-.519-1.726-.272-3.42-.333-5.132-.037-1.075-.316-2.159-.227-3.216.179-2.113.51-4.215.829-6.314.187-1.231.434-2.455.724-3.666.186-.783.496-1.537.758-2.301 1.214-3.534 2.389-7.065 2.768-10.827.183-1.812.384-3.64 1.247-5.357.625-1.24.822-2.691 1.26-4.033.251-.771.51-1.565.925-2.252 1.212-2.002 1.839-4.238 2.699-6.383.559-1.396 1.191-2.764 1.726-4.168.187-.49.169-1.055.268-1.58.169-.899.424-1.789.518-2.695.092-.903.056-1.823.029-2.733-.03-.979-.161-1.956-.171-2.935-.026-2.47-.437-4.869-1.155-7.228-.187-.612-.192-1.278-.301-2.073 1.065.368 1.428 1.131 1.738 1.897 1.581 3.895 2.161 7.97 2.544 12.147.27 2.938.331 5.868.42 8.799.065 2.163-.177 4.337-.321 6.504-.208 3.101-.496 6.198-.664 9.302-.121 2.232.05 4.487-.18 6.703-.321 3.1-.742 6.208-1.439 9.24-.271 1.175-.737 2.474-1.727 3.46-.624.621-1.032 1.502-1.403 2.326-1.179 2.621-2.43 5.221-3.386 7.925-.591 1.667-.679 3.509-1.02 5.268-.434 2.241-1.06 4.419-2.194 6.426-.531.94-1.157 1.863-1.472 2.877-.204.661-.07 1.522.169 2.203.504 1.432 1.214 2.791 1.766 4.209.332.853.533 1.757.776 2.644.328 1.202.665 2.403.953 3.616.415 1.742.725 3.512 1.198 5.238.386 1.41.824 2.832 1.457 4.143a52.939 52.939 0 0 1 3.047 7.921c.463 1.555 1.28 3.002 1.874 4.522 1.089 2.794 1.469 5.746 1.85 8.696.14 1.078.329 2.15.667 3.269.173-.656.363-1.309.517-1.97.496-2.12.976-4.244 1.469-6.365.048-.211.082-.447.202-.616 1.047-1.478 1.144-3.242 1.505-4.924.576-2.682 1.39-5.288 2.897-7.594 1.542-2.362 2.505-4.96 3.196-7.641.836-3.245 2.126-6.3 3.529-9.309.707-1.517.832-3.057.539-4.582-.418-2.169-.462-4.419-1.352-6.499-.403-.945-.511-2.031-.989-2.927-1.692-3.169-2.359-6.677-3.315-10.068-.725-2.576-1.641-5.058-2.517-7.572-.489-1.405-.468-2.99-.655-4.496-.093-.744-.142-1.494-.204-2.242-.043-.542-.13-1.089-.103-1.629.19-3.753.493-7.502.584-11.256.069-2.866-.033-5.744-.238-8.604-.074-1.032-.771-2.005-.996-3.046-.356-1.638-1.259-2.957-2.149-4.311-.172-.261-.085-.693-.14-1.301 1.834.353 3.17 1.153 4.341 2.302 2.194 2.156 3.653 4.801 5.04 7.497.59 1.148 1.33 2.234 1.784 3.431.533 1.411.869 2.902 1.212 4.377.207.885.22 1.814.4 2.708.606 3.033 1.255 6.059 1.876 9.089.348 1.697.64 3.405 1.02 5.094.299 1.323.789 2.609 1.021 3.942.232 1.337.255 2.712.362 4.07.077.977.059 1.971.232 2.93.385 2.145-.064 4.267-.102 6.397-.043 2.376-.316 4.748-.498 7.239.324-.451.702-.843.926-1.308a626.413 626.413 0 0 0 3.666-7.783c.662-1.424 1.244-2.887 1.954-4.286.537-1.06 1.184-2.07 1.845-3.062 1.062-1.596 1.793-3.329 2.427-5.131 1.422-4.039 2.983-8.018 5.219-11.702 1.465-2.41 2.776-4.914 4.267-7.307.823-1.323 1.883-2.498 2.821-3.752.765-1.021 1.38-2.189 2.282-3.064 2.523-2.445 3.785-5.639 5.464-8.599.723-1.273 1.457-2.494 1.74-3.95.336-1.735.44-3.365-.601-4.996-.777-1.215-1.288-2.628-1.747-4.009-.495-1.489-1.428-2.822-1.534-4.449-.138-2.106-.499-4.204-.101-6.321.111-.588.177-1.186.224-1.784.068-.868.008-1.763.667-2.474.065-.071.084-.206.086-.312.097-2.888 1.855-5.144 2.848-7.695 1.009-2.589 2.449-4.949 3.501-7.501.589-1.425 1.228-2.803 2.024-4.15.931-1.578 2.318-2.705 3.328-4.17 1.307-1.897 3.179-3.142 5.187-4.172.532-.274 1.195-.294 1.834-.438l.836 2.26a13.054 13.054 0 0 0 4.251-1.829c.449-.296.982-.481 1.495-.663.537-.19 1.043-.194 1.506.281.336.345.762.623 1.189.856.417.226.92.565 1.326.497 3.535-.596 5.646 1.625 7.826 3.791.433.431 1.035.729 1.607.976.644.277 1.45.277 1.992.666.947.679 1.658 1.604 1.275 2.878.9.272 1.801.367 2.489.8.697.439 1.191 1.208 1.764 1.84.18.199.286.545.498.62 1.524.543 2.106 1.997 2.974 3.129.606.789.839 1.854 1.321 2.751.409.763.849 1.543 1.433 2.168.85.91.855 1.807.307 2.813-.103.189-.234.362-.398.611 1.38 1.741 1.744 3.883 2.042 6.024.143 1.033.26 1.945 1.163 2.692.787.653.556 1.575-.106 2.432.785.54 1.471 1.051 2.195 1.503 1.541.962 2.395 2.519 1.337 4.29-.607 1.018-.385 1.196.527 2.046a4.292 4.292 0 0 1 1.049 1.59c.255.69.126 1.481.934 1.98.42.259.183.718-.242 1.053-.845.668-1.575 1.486-2.451 2.104-.586.414-1.333.605-2.021.866-.754.286-1.548.481-2.277.819-1.027.475-2.008 1.052-3.015 1.573-2.407 1.247-4.93 2.232-7.176 3.843-1.609 1.153-3.565 1.84-5.404 2.648-1.189.523-2.426.97-3.681 1.296-.877.228-1.824.277-2.736.258-1.729-.037-3.456-.207-5.185-.27-1.126-.041-2.256.004-3.384.02-1.713.023-3.328-.41-4.944-.93-.818-.263-1.714-.271-2.566-.441-1.987-.395-3.926-.955-5.699-1.962-.595-.339-.992-1.076-1.829-.9-1.076.226-2.097.587-2.915 1.367-2.253 2.146-4.504 4.294-6.755 6.442-1.099 1.049-2.39 1.884-3.149 3.295-1.094 2.037-2.419 3.919-3.919 5.703-.734.872-.991 2.141-1.487 3.219-.25.543-.478 1.118-.842 1.581-1.562 1.994-2.546 4.301-3.671 6.537-1.259 2.5-2.632 4.943-3.872 7.453-.84 1.703-1.529 3.481-2.301 5.219-1.275 2.87-2.562 5.735-3.84 8.602-.08.179-.131.37-.31.884 2.376-1.289 4.878-1.371 6.895-2.863.865-.641 2.011-.923 3.052-1.305 3.155-1.16 6.249-2.409 9.05-4.336 1.739-1.196 3.661-2.12 5.483-3.197.836-.495 1.611-1 1.747-2.169.075-.648.532-1.306.959-1.849 1.267-1.614 2.503-3.276 3.948-4.722 1.094-1.095 2.438-1.973 3.768-2.79 1.425-.875 2.966-1.564 4.454-2.34.191-.1.381-.219.54-.364 2.18-1.98 5.002-2.838 7.494-4.273.362-.208.82-.31 1.243-.343 1.085-.086 2.061-.602 3.065-.817 2.124-.455 4.33-1.169 6.536-.164.264.12.629.019.946.028 1.139.031 2.28.017 3.413.111 1.315.108 2.086 1.121 2.853 2.009.943 1.093 1.748 2.305 2.683 3.561-.795 1.146-.363 2.02.76 2.906 1.225.966 1.473 2.807.768 4.164-.232.446-.151.826-.13 1.306.078 1.819.932 3.406 1.255 5.13.155.834.173 1.736.042 2.573-.227 1.433-.42 2.877-1.19 4.191-.619 1.059-1.488 1.891-2.572 2.113-1.233.251-1.496 1.132-1.638 1.953-.355 2.071-.778 4.138-.044 6.281.536 1.563-.774 3.859-2.471 4.833-.608.35-1.267.613-1.751.843l-.712 3.322c-3.163.62-6.014.246-8.874-.581-2.601-.751-5.278-1.234-7.895-1.934-1.44-.385-2.823-.985-4.238-1.469-.963-.329-1.946-.603-2.904-.947-.347-.125-.723-.315-.959-.586-1.92-2.21-4.116-4.189-5.571-6.792-.361-.646-1.02-1.116-1.468-1.723-.951-1.29-1.856-2.614-2.772-3.93-.123-.178-.206-.385-.296-.584-.597-1.335-1.534-1.825-3.071-1.805-1.997.026-3.67.879-5.44 1.518a259.297 259.297 0 0 0-7.179 2.697c-3.969 1.565-7.569 3.694-10.794 6.551-1.755 1.553-2.614 3.58-3.78 5.444-1.47 2.352-2.77 4.815-4.07 7.27-1.208 2.283-2.488 4.55-3.428 6.946-1.122 2.864-1.879 5.87-2.869 8.789-.505 1.49-1.137 2.941-1.781 4.377-.975 2.175-2.029 4.314-3.011 6.486a9.983 9.983 0 0 0-.651 2.013c-.503 2.344-.957 4.698-1.438 7.047-.632 3.082-1.272 6.162-1.902 9.245-.02.098.037.212.11.587.99-.901 1.903-1.687 2.764-2.525 2.248-2.187 4.188-4.734 6.96-6.31 1.217-.691 1.991-1.634 2.637-2.805.523-.949 1.169-1.831 1.742-2.754a6.56 6.56 0 0 0 .507-1.017c1.315-3.289 3.204-6.174 5.963-8.442 1.3-1.069 2.663-2.068 3.914-3.192 1.241-1.114 1.876-2.656 2.409-4.185.608-1.743 1.581-3.285 2.45-4.882 1.104-2.025 3.069-3.207 4.811-4.578 2.466-1.943 4.943-3.888 7.538-5.651 2.834-1.925 4.613-4.685 6.428-7.445.536-.815.967-1.701 1.532-2.493.22-.311.71-.668 1.01-.617.286.049.616.574.699.942.398 1.764.101 3.472-.57 5.13-1.413 3.488-2.466 7.08-3.321 10.748-.603 2.586-1.451 5.12-2.276 7.65-.193.589-.636 1.189-1.128 1.572-2.932 2.278-5.217 5.067-6.937 8.348-1.268 2.418-3.148 4.169-5.616 5.421a136.672 136.672 0 0 0-8.206 4.515c-2.051 1.223-4.314 2.098-6.508 3.07-1.044.462-2.164.754-3.219 1.195-.431.18-.806.525-1.166.843-.432.384-.821.818-1.228 1.23l-.27-.224 1.276-1.735c-.559.091-.919.048-1.14.203-1.199.845-2.391 1.705-3.532 2.625-1.09.879-2.114 1.837-3.167 2.76-.041.036-.094.06-.132.099-1.094 1.106-2.143 2.261-3.289 3.31-1.351 1.235-1.561 2.789-1.43 4.456.177 2.246.025 4.456-.345 6.684-.262 1.578-.218 3.209-.27 4.819-.095 2.951-.058 5.91-.265 8.853-.234 3.314-.766 6.608-.998 9.923-.155 2.229-.005 4.478-.005 6.719 0 3.412.079 6.821-.272 10.231-.171 1.664.012 3.374.135 5.056.078 1.069.143 1.112-.923 2.131-.085-1.75-.052-3.321-.269-4.857-.216-1.536-.043-3.045.104-4.539.219-2.228-.006-4.457.142-6.656.207-3.064-.21-6.119.14-9.169.335-2.92.667-5.841.951-8.767.087-.904-.021-1.825.029-2.735.031-.584.186-1.161.28-1.742a1657.22 1657.22 0 0 1-.096-4.994 19.237 19.237 0 0 0-.426 3.749c-.004.412.351.827.541 1.24z" fill="#687E6B"/></g><defs><clipPath id="a"><path fill="#fff" d="M0 0h188v230H0z"/></clipPath></defs></svg>