<svg width="103" height="182" fill="none" xmlns="http://www.w3.org/2000/svg">
    <path
        d="m51.998 86.373.287-.038-.171-.847c-.071.011-.143.023-.215.033l.099.852zm.553 1.215-.216.009.049 2.563.326-.014-.159-2.558zm37.834 16.177c.238-1.654.174-1.904-.644-2.708l.644 2.708zM45.047 54.178c.748-2.21.748-2.21.422-2.721-.299.896-.722 1.738-.422 2.721zm2.398-7.881.291.326 2.133-2.162c-.957.453-2.038.765-2.424 1.836zm37.797 42.229-.278.206 1.869 3.285c-.022-1.428-.644-2.543-1.591-3.491zM66.644 166.79c.621-1.943.458-3.555-.522-4.532.271 1.553-.189 3.084.522 4.532zm-6.185-59.196c.423-1.378.745-2.612-.614-3.641-.078 1.261-.587 2.493.614 3.641zM24.33 93.333l2.615-6.589-.313-.135c-1.331 1.78-1.46 4.114-2.556 6.003-.057.099.109.327.254.721zm5.91-30.032c-.256 2.952.58 5.582.044 8.386.721-1.68.725-6.827-.044-8.386zm.317-16.23c-.039.287-.088.455-.081.621.078 1.886.307 3.751-.046 5.659-.278 1.493-.241 3.052-.261 4.583-.016 1.22.093 2.443.146 3.665l.285.006c.059-.437.127-.874.178-1.312.26-2.231.502-4.463.783-6.691.082-.637.337-1.254.402-1.892.169-1.665-.321-3.161-1.406-4.639zm32.775-10.005c-.389-.893-.725-1.526-1.438-1.954-.475-.286-1.082-.68-1.217-1.147-.45-1.543-1.737-1.288-2.861-1.579 1.623 1.835 1.387 4.065 1.406 6.231l4.11-1.551zM9.283 104.459l.334.169c1.064-1.808 2.072-3.651 3.208-5.411.813-1.258 1.283-2.617 1.21-4.055-.08-1.554.436-2.965.703-4.433.151-.826.618-1.59.812-2.415.46-1.962.771-3.961 1.274-5.91.575-2.224-.461-4.12-1.045-6.115-.054-.188-.248-.337-.496-.658-.127.419-.206.632-.256.852-.387 1.719-.121 3.416.102 5.131.186 1.439.164 2.876-.505 4.269-.401.834-1.012 1.598-1.03 2.622-.011.603-.264 1.2-.394 1.804-.242 1.126-.639 2.251-.662 3.382-.022 1.104-.004 2.2-.272 3.27-.296 1.177-.665 2.335-1.002 3.502-1.456.964-1.46 2.599-1.981 3.996zm84.055 11.157c-1.052 1.94-1.663 3.623-1.914 5.467-.177 1.302-.403 2.631-1.28 3.747-.369.468-.695 1.13-.69 1.701.017 1.946-.322 3.806-.961 5.629-.024.069.055.176.109.335 1.659-.286 2.562-1.527 3.435-2.762.461-.651.781-1.401 1.168-2.106.092-.167.244-.317.283-.495.518-2.314 1.511-4.563.992-7.024-.038-.181-.081-.381-.045-.556.296-1.465-.97-2.369-1.097-3.936zM55.961 31.889c-.854-.048-1.862-.454-2.872.101-.981.539-1.853 1.169-2.502 2.107-.627.905-1.384 1.724-1.967 2.654-.417.665-.79 1.427-.915 2.189-.209 1.274-.209 2.581-.286 3.876-.028.48-.026.962-.044 1.658 1.911-1.104 3.519-2.17 5.242-2.989 1.76-.834 3.635-1.425 5.395-2.097.695-2.943-.124-5.339-2.051-7.499zM72.1 47.527c.316-.674.765-1.36.963-2.112.376-1.429.455-2.856-.858-3.954-.215-.181-.38-.422-.567-.636a6.996 6.996 0 0 0-3.506-2.136c-1.923-.476-4.024-.668-5.942.149-1.331.566-2.976.825-3.515 2.669-.163-.352-.272-.584-.376-.811-1.03.441-2.012.862-2.995 1.281l.011.335c4.212-.396 7.472 1.715 10.587 3.81 1.121-.568 2.074.09 3.005.24 1.001.161 1.944.691 3.193 1.165zm-2.208 73.064-.385.164c.194 1.442-.189 2.88.254 4.351.264.88.133 1.89.116 2.839-.007.363-.303.726-.287 1.08.118 2.744 1.544 5.133 2.14 7.75.011.044.036.11.068.119 1.24.392.973 1.897 1.876 2.537.553 2.257 2.476 3.413 4.012 5.138.011-.635.046-1.062.022-1.484a293.116 293.116 0 0 1-.309-6.866c-.078-2.252-.637-4.244-1.761-6.109-.616-1.02-1.497-1.88-2.11-2.901-1.035-1.728-1.952-3.525-2.918-5.294-.24-.44-.478-.883-.718-1.324zm-1.928 8.063-.277.107c-.246.919-.435 1.858-.751 2.753-.655 1.849-.996 3.717-.615 5.67.208 1.068-.179 2.107-.17 3.185.013 1.359-.587 2.744-1.021 4.085a13.402 13.402 0 0 0-.459 6.541c.168.97.11 1.947-.086 2.975-.426 2.236-.082 4.462 1.131 6.505l-.279-1.698c.554-1.725 1.072-3.334 1.584-4.944.143-.45.507-1.022.355-1.339-.498-1.036.392-1.592.609-2.369.53-1.894 1.074-3.788 1.478-5.711.374-1.772.495-3.6.881-5.369.216-.987.093-1.883-.157-2.8-.108-.4-.296-.779-.494-1.284l-.307.869c.415-1.291.086-2.466-.341-3.66-.412-1.153-.725-2.342-1.081-3.516zm3.298-80.118c-1.068-.721-2.106-.972-3.169-1.22-1.615-.378-3.408-.2-4.715-1.605-.348-.374-1.109-.332-1.544-.661-1.514-1.146-3.302-1.406-5.077-1.622-1.617-.198-3.047.58-4.486 1.202-.52.224-1.18.303-1.546.675-.962.979-1.819 2.067-2.674 3.146-.301.379-.666.831-.052 1.549.332-.586.709-1.066.885-1.612.203-.63.46-1.127 1.135-1.384-.353.698-.682 1.352-1.105 2.193.995-.133 1.761-.175 2.493-.351.618-.15 1.2-.134 1.829-.107 2.681.116 5.083 1.195 7.568 2.01 1.073.352 2.182.63 3.298.81a3.023 3.023 0 0 0 1.679-.233c1.793-.849 3.541-1.792 5.481-2.79zm-35.693 73.27a8.53 8.53 0 0 0-.133-.136c-.617 1.071-1.452 2.074-1.811 3.226-1.066 3.411-2.448 6.683-3.926 9.924-.278.613-.577 1.234-.722 1.883-.7 3.126-.367 6.256.343 9.309.406 1.741.71 3.448.64 5.222-.04 1.002-.206 2.003-.178 3.001.086 2.96 1.062 5.701 2.212 8.388.187.436.379.868.566 1.304l1.304 3.042c.309-.281.405-.5.409-.721.029-1.442.121-2.89.037-4.326-.223-3.802-.74-7.574-1.901-11.206-.916-2.865-1.443-5.756-1.369-8.757.023-.963.023-1.933.151-2.884.152-1.134.357-2.271.676-3.367.252-.865.754-1.655 1.071-2.506.825-2.204 1.643-4.398 1.833-6.792.124-1.547.523-3.071.798-4.604zM94.7 96.92c-.629-1.673-1.179-3.2-1.778-4.709-.53-1.337-1.183-2.63-1.653-3.986-.325-.933-.567-1.873-.986-2.792-.705-1.548-1.731-2.745-3.109-3.634-2.254-1.456-4.897-1.964-7.4-2.78-1.549-.505-3.078-1.008-4.534-1.744-.669-.338-1.385-.594-2.098-.828-.496-.162-1.023-.231-1.54-.323-1.187-.211-2.347-.229-3.545.502 1.123.293 2.074.716 3.036.744 1.067.032 2.047.238 3.065.507 1.766.464 3.234 1.481 4.22 2.847.995 1.377 2.356 2.35 3.357 3.684.297.396.82.642 1.273.897 2.198 1.237 3.982 2.923 4.799 5.313.615 1.802 1.431 3.385 2.691 4.804.447.504.883.854 1.51.985.838.174 1.68.321 2.692.513zM5.033 121.892c.869.32 1.324.303 1.816-.063.366-.273.847-.448 1.302-.536 2.539-.488 5.138-.831 6.651-3.351.048-.079.153-.123.209-.199.563-.773 1.132-1.542 1.678-2.327.628-.899 1.185-1.854 1.869-2.707.529-.662 1.321-1.129 1.79-1.821.8-1.185 1.368-2.526 2.168-3.711.662-.982 1.362-2.093 2.33-2.669a23.85 23.85 0 0 1 2.873-1.48c1.133-.476 1.62-1.316 1.538-2.494a124.48 124.48 0 0 0-.412-4.727c-.168-1.562-.384-3.12-.602-4.675-.108-.777-.269-1.547-.406-2.321-.997 1.739-1.756 3.463-2.545 5.173-.521 1.127-1.124 2.216-1.62 3.353-1.015 2.329-1.661 4.781-2.35 7.221-.218.772-.803 1.439-1.03 2.211-1.03 3.496-3.288 6.209-5.636 8.84-.851.954-1.97 1.708-3.064 2.399-2.055 1.299-4.182 2.485-6.559 3.884zm80.911-4.299c-.08-.575-.133-.903-.169-1.232-.096-.901-.309-1.811-.253-2.705.14-2.208.449-4.405.606-6.612.157-2.221.222-4.462-1.521-6.218a119.853 119.853 0 0 0-3.528-3.383c-1.796-1.666-3.721-3.242-4.545-5.663-.521-1.534-.914-3.114-1.335-4.681-.656-2.443-1.581-4.594-4.325-5.449-1.069-.333-2.098-1.012-2.953-1.755-1.082-.939-2.238-1.054-3.558-.955 1.812 1.29 3.531 2.589 5.332 3.766.875.571 1.363 1.302 1.617 2.261.173.647.301 1.315.545 1.935.913 2.318 1.586 4.726 2.951 6.867 1.293 2.029 2.506 4.097 4.031 5.976 1.176 1.451 2.11 3.098 2.511 4.936.477 2.185.926 4.397 1.109 6.621.211 2.556 1.36 4.479 3.485 6.291zM36.94 177.131c.005-.329.007-.658.016-.987.061-2.252-.115-4.543.241-6.748.487-3.005 1.304-5.965 2.128-8.904.428-1.523.415-3.016.351-4.551-.06-1.382-.102-2.77-.048-4.152.085-2.148.23-4.295.406-6.438.097-1.186.306-2.364.466-3.544l.425-3.098c-.323.298-.49.396-.58.544-.947 1.562-2.242 2.709-3.834 3.627-.789.454-1.341 1.332-1.97 2.045-.25.284-.442.63-.617.97-.265.517-.617.822-1.425.428.3 1.087.517 1.914.757 2.735.121.415.344.809.409 1.23.07.453.6.489.641 1.083.108 1.569.481 3.12.757 4.678.159.897.422 1.787.486 2.691.205 2.946.309 5.889-.24 8.822-.63 3.359.133 6.529 1.631 9.569zm30.709-5.093c.536-.461.949-.772 1.31-1.136 1.319-1.324 2.593-2.693 3.94-3.987.652-.626 1.049-1.307 1.081-2.207a2.64 2.64 0 0 1 .112-.691c.366-1.172.8-2.326 1.112-3.511a90.335 90.335 0 0 0 1.211-5.177c.551-2.739 1.043-5.496.698-8.307-.131-1.063-.537-2.076-1.403-2.759-1.159-.918-1.941-2.09-2.613-3.374-.361-.69-.825-1.326-1.37-2.19-.156.468-.312.691-.283.887.404 2.675-.249 5.275-.593 7.888-.19 1.441-.541 2.896-.164 4.296.321 1.186.164 2.264-.015 3.409-.264 1.691-.56 3.394-.609 5.098-.051 1.797-.509 3.418-1.335 4.981-.142.27-.195.636-.164.944.201 1.933-.796 3.655-.915 5.836zm25.526-41.799.361.244c.322-.326.738-.601.95-.988 1.031-1.884 2.009-3.796 3.002-5.701.508-.973.824-2.121 1.548-2.889 1.669-1.77 1.976-3.921 1.946-6.124-.033-2.491-1.173-4.783-1.667-7.201-.389-1.911-1.43-3.555-2.18-5.318-.221-.52-.427-1.055-.725-1.53-.579-.923-1.218-1.809-1.793-2.653l-4.271-.835c.345 1.437.75 2.811.992 4.212.215 1.246.265 2.522.358 3.787.086 1.162-.001 2.355.224 3.486.464 2.339 1.114 4.623 2.456 6.667.462.704.645 1.59.953 2.395.627 1.644.062 3.341.229 5.002.131 1.325-.263 2.524-.71 3.725-.251.672-.483 1.355-.775 2.009-.262.587-.596 1.143-.898 1.712zM17.348 86.982c.229.003.342.039.408-.001 1.662-1.02 3.04-2.28 3.623-4.234.44-1.478 1.282-2.667 2.594-3.523.395-.258.829-.594 1.022-.999 1.045-2.197 2.93-3.866 3.755-6.231.252-.725.551-1.386.524-2.152a836.689 836.689 0 0 0-.293-7.596c-.015-.348-.135-.691-.185-.928-1.365.636-2.582 1.329-3.884 1.775-1.418.485-2.575 1.281-3.553 2.359-1.909 2.107-3.159 4.661-4.645 7.05-.414.665-.596 1.53-.284 2.36.436 1.161.855 2.331 1.347 3.468.76 1.753.686 3.533.297 5.338-.235 1.098-.48 2.193-.726 3.314zm72.145 37.009c.204-.564.403-.966.494-1.389.509-2.384.513-4.899 1.911-7.049.126-.193.038-.55-.004-.824-.232-1.538-.778-3.029-.678-4.618a1.082 1.082 0 0 0-.072-.422c-.481-1.343-.993-2.677-1.446-4.032-.227-.679-.376-1.388-.508-2.094-.046-.247.184-.586.085-.778-.789-1.532-.787-3.201-.984-4.851-.18-1.507-.385-3.066-1.395-4.311-.934-1.153-1.792-2.339-2.453-3.679a7.33 7.33 0 0 0-1.33-1.881 104.663 104.663 0 0 0-4.326-4.128c-3.528-3.182-4.623-3.572-8.842-4.237.604.355 1.213.715 1.866.958a5.825 5.825 0 0 1 3.002 2.519c.943 1.592 1.77 3.283 1.772 5.226.001.281.084.579.2.838.946 2.109 1.915 4.182 3.7 5.784 1.891 1.697 3.644 3.546 5.503 5.281.601.559.885 1.183 1.061 1.966.767 3.406-.146 6.715-.471 10.06-.052.539.009 1.147.215 1.639.281.671.72 1.241.122 1.975-.117.144.035.548.124.812.786 2.344 1.586 4.683 2.454 7.235zm-36.972-14.164-.174.03c-.032.234-.053.469-.097.701-.351 1.834-.69 3.67-1.064 5.501-.143.696-.443 1.365-.541 2.064-.314 2.262-.471 4.55-.877 6.794-.279 1.538-.786 3.053-1.354 4.515-.392 1.007-1.066 1.906-1.603 2.859-.115.203-.315.566-.25.63.747.746-.101 1.412-.076 2.114.028.769-.08 1.496-.497 2.214-.214.368-.129 1.035.044 1.48.587 1.503 1.396 2.928 1.893 4.457.631 1.938 2.095 3.292 3.139 5.273.179-1.301.509-2.311.412-3.277-.227-2.238.494-4.289 1.135-6.317.582-1.841 1.618-3.533 2.39-5.318.339-.784.593-1.623.756-2.463.285-1.467.499-2.95.684-4.435.07-.559.077-1.166-.062-1.707-.603-2.342-.925-4.735-1.86-7.024-.813-1.994-1.045-4.225-1.542-6.349-.137-.584-.303-1.161-.456-1.742zm-2.512-.008c-1.337.859-2.496 1.524-3.564 2.311-1.067.786-2.073 1.664-3.052 2.559-1.093.998-2.015 2.218-3.208 3.062-2.257 1.593-3.274 3.851-3.843 6.383-.305 1.357-.426 2.76-.567 4.15-.237 2.342-.984 4.538-2.091 6.569-.889 1.631-1.208 3.328-1.294 5.121-.042.866-.125 1.734-.097 2.598.034 1.055.166 2.108.279 3.424.308-.554.478-.844.632-1.142.553-1.065 1.145-2.022 2.311-2.627 1.758-.914 3.211-2.251 4.316-3.932.569-.866 1.107-1.765 1.768-2.559 1.011-1.215 2.17-2.307 3.161-3.538a8.495 8.495 0 0 0 1.376-2.401c.548-1.522.938-3.1 1.373-4.66.253-.91.573-1.821.667-2.75a19.58 19.58 0 0 1 .936-4.292c.875-2.596 1.131-5.248.897-8.276zM29.052 74.156c-.405.586-.696 1.045-1.024 1.477-.548.72-1.271 1.352-1.646 2.151-.617 1.312-1.597 2.256-2.616 3.205-.291.271-.568.598-.735.953-.445.951-.762 1.965-1.25 2.891-.795 1.502-2.189 2.371-3.627 3.169-.267.149-.557.322-.735.56-1.383 1.854-1.996 3.966-2.108 6.261-.049 1.005.014 2.123-.403 2.982-1.188 2.451-2.231 4.986-3.989 7.144-1.445 1.775-2.527 3.808-2.937 6.088-.155.867.312 1.868.086 2.697-.485 1.784-.767 3.668-1.885 5.232-.228.317-.494.627-.023.96.522-.434 1.016-.876 1.542-1.276 1.608-1.222 3.563-1.851 5.092-3.293 1.035-.975 2.153-1.905 3.005-3.018 2.306-3.019 4.021-6.362 4.87-10.103.106-.467.273-.922.402-1.384.575-2.057 1.243-4.095 1.694-6.18.484-2.243.925-4.489 1.951-6.561.72-1.454 1.557-2.851 2.247-4.319.606-1.288.998-2.68 1.639-3.948.43-.852.602-1.701.588-2.612-.014-.997-.087-1.994-.138-3.076zm20.307 74.071c-.261-.935-.923-1.577-1.557-2.268-.891-.97-1.288-2.194-1.475-3.489-.044-.31-.171-.606-.248-.91-.326-1.288-1.118-2.287-1.989-3.239.137-.019.375-.005.395-.063.386-1.136.745-2.281 1.201-3.705-1.177 1.221-1.598 2.028-1.738 3.122-.157.149-.385.268-.46.451-.307.751-.631 1.504-.835 2.286-.485 1.853-1.108 3.675-.935 5.656.124 1.43.159 2.884.054 4.314-.184 2.54-.508 5.07-.768 7.605-.383 3.735-1.556 7.283-2.485 10.894-.368 1.426-.292 2.965-.419 4.453.352-.074.478-.2.57-.347 1.165-1.851 1.7-4.052 3.184-5.727.476-.537.997-1.044 1.413-1.624 1.409-1.969 3.035-3.79 3.885-6.131.521-1.432 1.09-2.889 1.91-4.157.88-1.359.623-2.958 1.313-4.35.548-1.104-.515-1.926-1.043-2.804l.027.033zM31.952 68.015c-.098.468-.3.941-.277 1.403.105 2.245-.405 4.399-.931 6.544-.218.89-.399 1.753-.361 2.675.023.569-.103 1.147-.183 1.718-.072.52-.003 1.322-.295 1.496-.765.453.144.886-.174 1.374-1.152 1.771-.734 3.785-.613 5.721.154 2.474 1.129 4.836.905 7.387-.089 1.027.346 2.102.542 3.153l.293.035c.341-1.176.724-2.343 1.011-3.533.42-1.74.941-3.426 1.824-5.004.657-1.171 1.146-2.428 1.282-3.798.08-.809.242-1.612.344-2.42.104-.817.223-1.635.258-2.455.053-1.237.172-2.493.024-3.71-.279-2.285-.841-4.503-1.902-6.588-.645-1.268-1.097-2.634-1.64-3.953-.01-.024-.091-.018-.136-.027.189-.479.282-.945-.312-1.307l.341 1.289zm34.888 92.526c.183.157.464.279.534.476.292.823.52 1.669.772 2.506 1.303-4.489 1.753-8.997 1.129-13.609a2.504 2.504 0 0 0-.493.986c-.251 1.018-.467 2.044-.706 3.065-.088.37-.268.728-.298 1.101-.106 1.336-.11 2.682-.274 4.01-.063.505.044 1.206-.666 1.466.659-1.237.484-2.585.578-3.898-.714 1.23-.802 2.542-.576 3.897zM52.366 98.633l-.685 7.064.299.022c.839-2.305 1.053-4.652.349-7.063.611-2.468.353-4.965.333-7.79-.207 1.513-.348 2.69-.534 3.86-.212 1.325-.156 2.624.238 3.907zm15.255 21.115c.145-.088.42-.19.412-.262-.054-.488-.167-.97-.261-1.454l-.235.027.123 1.741c-.077.395-.272.81-.21 1.181.186 1.093.473 2.168.72 3.25a.776.776 0 0 0 .236-.638c-.056-.749-.256-1.512-.165-2.241.088-.714-.195-1.153-.62-1.604zM33.69 94.583c-.515 1.844-.997 3.697-1.554 5.528-.59 1.937-2.252 2.931-3.753 4.035-.576.424-1.252.714-1.887 1.057-1.329.719-2.44 1.604-3.178 3.013-.965 1.846-2.005 3.636-3.603 5.105-1.017.934-1.595 2.345-2.377 3.536-.314.478-.606.981-.986 1.402-.673.747-1.4 1.449-2.118 2.156a4.997 4.997 0 0 1-2.649 1.374c-.47.088-.919.304-1.39.37-2.327.324-4.346 1.718-6.76 1.821-1.42.061-1.799.461-2.996 1.721-.67-.91-.576-1.341.305-2.071.904-.751 1.998-1.264 2.672-2.312 1.488-2.316 2.661-4.757 3.175-7.479.087-.46.107-.938.11-1.407.012-1.954.568-3.789 1.162-5.62.059-.182.137-.39.104-.567-.42-2.26.613-4.148 1.638-5.979 1.061-1.893 1.638-3.866 1.716-6.014.108-2.998 1.055-5.79 2.087-8.568.276-.742.409-1.567.442-2.36.044-1.101.033-2.224-.141-3.308-.196-1.233-.079-2.406.268-3.567.438-1.466.894-2.93 1.428-4.363.231-.62.664-1.168 1.028-1.734 1.053-1.648 2.099-3.301 3.183-4.928 1.192-1.791 3.028-2.735 4.893-3.639 1.501-.727 2.985-1.491 4.3-2.149.183-3.211.396-6.175.505-9.143.07-1.881-.001-3.767-.598-5.591-.127-.386-.055-1.09-.248-1.159-.594-.211-.324-.41-.303-.819.023-.496-.397-1.027-.665-1.522-.659-1.221-1.285-2.466-2.029-3.634-.643-1.01-1.425-1.931-2.152-2.886-.776-1.023-1.621-1.999-2.32-3.072-.673-1.031-1.219-2.149-1.782-3.249-.944-1.838-1.985-3.641-2.749-5.554-.961-2.405-2.426-4.555-3.241-7.041-.496-1.508-1.44-2.893-2.315-4.246-1.574-2.436-2.847-4.993-3.669-7.779-.193-.656-.335-1.264.043-2.202.38.527.695.818.828 1.176a36.658 36.658 0 0 1 1.02 3.148c.588 2.185 2.111 3.85 3.155 5.78.118.218.535.259.784.426.597.403-.021.97.17 1.432.176.426 1.031.334.81 1.07-.04.133-.077.309-.024.421.302.642.629 1.273.954 1.904.529 1.024 1.048 2.053 1.607 3.062.095.172.365.247.554.368-.031.575-.418 1.211.29 1.656l1.902 3.607c.349 1.874 1.842 3.044 2.82 4.53.037.057.339-.061.518-.097-.364.618-.46 1.077.132 1.763 1.147 1.333 2.162 2.803 3.08 4.308 1.795 2.941 3.496 5.94 5.212 8.929.502.873.809 1.878 1.407 2.671 1.533 2.035 2.738 4.254 3.938 6.485.159.296.4.549.603.821.083-.051.166-.1.25-.15-.095-.238-.178-.48-.285-.71-.284-.603-.577-1.201-.868-1.801-.585-1.207-1.121-2.442-1.769-3.614a276.107 276.107 0 0 0-4.381-7.687c-1.554-2.614-3.137-5.211-5.088-7.569-.865-1.045-1.509-2.274-2.258-3.414-.639-1.12-1.238-2.267-1.921-3.359-.358-.571-.535-1.346-1.354-1.522-.028-.434.102-.984-.116-1.275-.507-.677-.934-1.342-1.044-2.198-.017-.126-.276-.219-.422-.329-.145-.395-.085-.931-.692-1.01-.116-.407-.185-.834-.354-1.217-.855-1.935-1.642-3.88-2.247-5.922-.581-1.959-1.515-3.82-2.352-5.697-.834-1.872-1.769-3.699-2.599-5.572-.274-.618-.354-1.321-.523-1.986L9.37 0c.241.31.523.596.717.932a71.347 71.347 0 0 1 5.668 12.32c.621 1.78 1.272 3.534 2.116 5.21a451.849 451.849 0 0 0 4.385 8.43c.676 1.274 1.369 2.543 2.141 3.76.72 1.133 1.491 2.247 2.354 3.274 2.251 2.677 3.853 5.757 5.556 8.776.754 1.337 1.41 2.74 2.265 4.009 1.289 1.911 2.045 4.078 3.134 6.083 1.263 2.326 2.358 4.732 3.953 6.888 1.275 1.723 2.243 3.672 3.523 5.813-.093-.577-.051-.917-.197-1.129-.758-1.108-.724-2.327-.662-3.588.035-.698-.161-1.406-.211-2.112-.129-1.816-.336-3.636-.303-5.45.014-.814.4-1.697.842-2.407.693-1.116.804-2.415 1.352-3.562.096-.199.1-.465.08-.693-.241-2.785.224-5.53.445-8.288.012-.145.041-.288.068-.43.16-.871.308-1.654 1.219-2.22.68-.422 1.214-1.225 1.579-1.973.482-.986 1.254-1.622 2.143-2.064 1.926-.957 3.919-1.464 6.054-.507.727.326 1.564.414 2.356.589.683.15 1.193.496 1.589 1.089.279.418.637.832 1.054 1.1 1.118.715 1.716 1.708 1.863 3.145 1.297.178 2.638.279 3.936.57.809.181 1.556.644 2.329.987 1.248.554 2.166 1.567 2.93 2.593 1.031 1.385 1.426 3.034.64 4.757-.514 1.127-1.004 2.264-1.556 3.51-1.514-.179-2.547 1.074-3.858 1.71a131.994 131.994 0 0 1-3.521 1.627 1.013 1.013 0 0 1-.564.062c-1.224-.218-2.509-.29-3.651-.728a38.749 38.749 0 0 0-6.349-1.856c-1.78-.355-3.526-.15-5.122.347-1.489.463-2.996 1.291-3.108 3.406-.09 1.711-.701 3.388-.922 5.101-.085.652.125 1.449.466 2.021.376.629.477 1.239.478 1.913.003 1.521-.018 3.019.661 4.47.44.943.599 2.015.886 3.028.276.973.585 1.9 1.424 2.597.498.414.814 1.04 1.245 1.542.459.534.964.912 1.709 1.144 1.496.467 3.146.406 4.517 1.305.135.087.4.084.558.015 1.938-.846 3.998-.545 6.013-.713a12.206 12.206 0 0 0 3.475-.809c2.052-.82 4.054-.858 6.202-.405 1.175.248 2.112.759 3.117 1.312.994.547 2.114.872 3.195 1.248 1.454.507 2.923.972 4.386 1.451.867.283 1.759.504 2.599.851 1.447.595 2.507 1.745 3.661 2.746.313.27.543.69.693 1.086.632 1.672 1.168 3.381 1.836 5.037.685 1.698 1.485 3.351 2.235 5.024.134.299.252.605.403.894.317.605.748 1.172.946 1.811.163.53-.012 1.156.091 1.714.109.595.213 1.245.931 1.52.115.044.132.368.175.567.038.175-.009.398.083.526.221.304.608.522.739.85.794 1.985 1.584 3.975 2.274 5.998.336.987.429 2.056.676 3.077.188.779.416 1.55.674 2.309.521 1.535.148 3.038-.089 4.556-.256 1.65-1.4 2.844-2.103 4.264-.307.619-.462 1.312-.743 1.947-.273.616-.609 1.205-.931 1.797-.717 1.32-1.348 2.698-2.186 3.935-1.043 1.538-2.486 2.612-4.33 3.142-1.277.367-2.505.902-3.742 1.357-.978-.817-.703-1.718-.365-2.564 1.42-3.558 1.109-7.057-.403-10.475-.359-.812-1.047-1.49-1.641-2.18-.686-.797-1.381-1.602-2.174-2.287-.985-.852-1.233-2.039-1.598-3.157-.282-.86-.351-1.791-.498-2.693-.305-1.867-.521-3.751-.92-5.597-.436-2.017-1.649-3.68-2.801-5.343-.929-1.342-2.1-2.544-2.85-3.973-1.002-1.909-2.323-3.658-2.842-5.841-.383-1.622-1.114-3.164-1.728-4.727-.135-.342-.394-.655-.655-.922-1.524-1.553-3.254-2.805-5.099-3.983-2.072-1.323-4.172-1.794-6.548-1.57-1.276.122-2.565.095-3.903.136.064.204.067.412.152.454 1.612.79 2.123 2.509 3.152 3.78 1.234 1.524 1.962 3.333 2.468 5.261.923 3.521 2.191 6.941 3.719 10.24.989 2.134 1.877 4.291 2.46 6.559.535 2.081.893 4.207 1.429 6.287.316 1.226.829 2.401 1.261 3.596.03.083.171.139.179.215.214 2.131 1.489 3.646 2.792 5.226.865 1.049 1.278 2.46 1.996 3.646.969 1.597 2.062 3.118 3.057 4.7.601.954 1.466 1.826 1.217 3.119.934 1.643 1.081 3.404.879 5.248-.07.64.117 1.305.139 1.959.096 2.874.179 5.737-.184 8.615-.331 2.626-.468 5.273-1.171 7.844-.273 1-.48 2.018-.716 3.028l-.746 3.207c-.273 1.17-.505 2.351-.834 3.504-.167.585-.399 1.219-.794 1.657-.76.839-1.657 1.552-2.494 2.321-.177.162-.381.313-.507.509-.878 1.369-2.195 2.332-3.234 3.549-.145.17-.207.424-.265.651-.483 1.884-1.575 3.597-1.564 5.623 0 .255-.182.51-.293.802-.815-.147-.909-.655-.862-1.288.109-1.434.258-2.867.277-4.303.033-2.495-.027-4.99-.035-7.485-.007-2.328-.437-4.595-.988-6.838-.272-1.11-.868-2.157-1.026-3.274-.157-1.108.051-2.268.099-3.406.031-.708.135-1.423.078-2.124-.093-1.139-.333-2.266-.427-3.404a5.946 5.946 0 0 1 .129-1.848c.424-1.777.992-3.522 1.361-5.31.259-1.257.369-2.561.394-3.847.036-1.846.033-3.685.496-5.487.023-.094.025-.195.058-.285 1.285-3.476 1.233-7.048.84-10.664-.112-1.04.039-2.107.031-3.162-.011-1.485.031-2.979-.13-4.451-.084-.771-.496-1.529-.855-2.245a16.731 16.731 0 0 1-1.563-4.708 10.35 10.35 0 0 0-1.049-3.072c-.976-1.861-2.147-3.704-2.174-5.938-.002-.1-.18-.199-.349-.375-.152 1.54.167 2.927.536 4.313.333 1.251.642 2.507.932 3.769.226.98.318 1.946-.053 2.945-.165.444-.026 1-.024 1.764-1.473-.67-2.335-1.669-2.731-2.933-.275-.883-.171-1.89-.197-2.843-.033-1.196.019-2.376-.425-3.546-.337-.889-.519-1.866-.592-2.818-.147-1.908-.534-3.783-.383-5.741.094-1.241-.472-2.527-.703-3.801-.154-.839-.204-1.698-.369-2.534-.119-.601-.227-1.265-.556-1.757-1.112-1.66-2.32-3.256-3.498-4.872-.035-.047-.162-.028-.291-.045.451 1.622.888 3.217 1.34 4.809.393 1.389.733 2.769.653 4.244-.06 1.089.125 2.189.117 3.283-.02 3.129-.082 6.258-.135 9.386a4.545 4.545 0 0 1-.097.863c-.495 2.34-.378 4.661.101 6.994.55 2.677.922 5.395 1.55 8.052.586 2.475 1.37 4.905 2.138 7.332.425 1.341.363 2.639.035 3.97-.183.744-.349 1.498-.44 2.257a15.222 15.222 0 0 1-1.415 4.798c-.042.087-.078.181-.137.254-.39.47.009 1.24-.839 1.646-.473.227-.611 1.199-.85 1.854-.263.719-.517 1.45-.692 2.195-.185.789-.452 1.621-.364 2.398.23 2.02-.32 3.92-.72 5.834-.205.98-.237 1.845.117 2.786.527 1.398.366 1.937-.597 2.675-.057.044-.178.004-.381.001l.142-1.041c-.198.044-.34.041-.355.084-.451 1.219-.884 2.443-1.329 3.663-.245.673-.641 1.327-.718 2.017-.084.744-1.027 1.025-.831 1.837-1.041.645-1.219 1.798-1.65 2.804-.037.087-.086.211-.158.237-1.299.474-1.611 1.92-2.679 2.682-.772.551-1.414 1.509-1.738 2.42-.631 1.775-1.85 3.205-2.574 4.917-.775 1.833-1.28 3.703-1.47 5.679-.061.635-.31 1.252-.474 1.877l-.359.056c-.257-.469-.611-.909-.751-1.41-.383-1.379-.483-2.872-1.066-4.152-.472-1.036-.758-2.095-1.071-3.159a33.2 33.2 0 0 1-.782-3.324c-.357-1.955-1.152-3.752-1.871-5.584-.641-1.634-1.593-3.145-1.896-4.917-.12-.697-.461-1.354-.663-2.04-.538-1.824-.208-3.675-.194-5.525.013-1.47-.199-2.963-.481-4.414-.449-2.305-.982-4.596-.98-6.958.002-2.559.714-4.927 1.775-7.267 1.136-2.509 2.04-5.135 2.893-7.758.599-1.843 1.726-3.316 2.867-4.794.644-.834 1.442-1.55 2.171-2.318.099-.105.183-.269.303-.303 1.81-.519 2.846-2.014 4.111-3.222 1.874-1.788 3.839-3.456 6.125-4.716.576-.317 1.104-.73 1.612-1.149.142-.117.199-.417.187-.628-.041-.763-.026-1.059.435-1.098.884-.076.824-.702.887-1.234.09-.762.055-1.538.123-2.303.224-2.562.357-5.118.151-7.694-.087-1.087.151-2.2.256-3.301.189-1.981.231-3.941-.177-5.921-.218-1.054-.34-2.249-.063-3.258.472-1.717-.257-3.083-.916-4.45a53.016 53.016 0 0 0-3.231-5.786c-1.3-2.013-2.3-4.216-3.471-6.313-.549-.985-1.167-1.934-1.801-2.867-1.972-2.897-3.998-5.759-5.938-8.677-.786-1.182-1.402-2.474-2.109-3.708-.113-.198-.293-.357-.534-.642-.476 3.464-.958 6.771-1.36 10.087a3.083 3.083 0 0 0 .445 2.045c.515.84.88 1.833 1.054 2.806.332 1.856.73 3.658 1.704 5.306 1.907 3.223 2.4 6.793 2.205 10.435-.136 2.572-.562 5.138-.995 7.682a11.333 11.333 0 0 1-1.145 3.374c-.335.626-1.016 1.087-1.199 1.856h.004z"
        fill="#687E6B" />
</svg>