<svg width="187" height="130" fill="none" xmlns="http://www.w3.org/2000/svg"><g clip-path="url(#a)"><path fill-rule="evenodd" clip-rule="evenodd" d="M41.202 100.829c-1.235 1.177-2.447 2.379-3.71 3.524-1.571 1.424-3.141 2.856-4.799 4.174-.821.653-.676 1.321-.409 2.189-3.097 2.381-6.225 4.758-9.32 7.175-1.586 1.239-3.11 2.556-4.669 3.828-1.386 1.13-2.779 2.233-4.073 3.488-2.044 1.981-4.481 3.37-7.671 3.808 1.414-1.277 2.594-2.441 3.875-3.48 4.319-3.5 8.719-6.901 13.002-10.444 3.496-2.892 6.882-5.918 10.294-8.91 3.034-2.661 6.039-5.354 9.052-8.038 1.962-1.747 3.908-3.511 5.875-5.253 1.449-1.282 2.392-2.908 3.458-4.4-.684-.729-1.134-.306-1.548-.189-3.697 1.035-7.289 2.36-10.855 3.787-4.126 1.651-8.367 3.011-12.498 4.648a245.41 245.41 0 0 0-12.238 5.225c-4.125 1.902-8.156 4.007-12.23 6.019-.805.399-1.601.881-2.738.369 2.162-1.641 4.169-3.348 6.36-4.771 1.766-1.147 3.697-2.099 5.657-2.877 3.278-1.301 6.725-2.198 9.935-3.635 2.886-1.29 5.991-1.764 8.892-2.941 3.825-1.551 7.703-2.973 11.571-4.414 1.891-.705 3.812-1.334 5.722-1.989 1.146-.394 2.272-.917 3.452-1.123 1.869-.327 2.795-1.612 3.368-3.143.545-1.457 1.446-2.62 2.301-3.87 1.359-1.987 2.539-4.101 3.733-6.196.582-1.021 1.045-2.109 1.977-2.884l.004-.066-.083.023c-.068-1.163.505-2.121.939-3.141.75-1.76 1.408-3.557 2.095-5.343 1.612-4.189 2.335-8.555 2.61-13.016.043-.694.309-1.372.468-2.059.477-2.064.912-4.14 1.437-6.193.829-3.245 2.059-6.34 3.756-9.234.766-1.305 1.602-2.571 2.427-3.841.327-.506.65-1.038 1.079-1.451 3.31-3.182 6.068-6.754 7.946-10.973.229-.516.572-.981.845-1.441.93.3.869.938.841 1.532-.133 2.852-.724 5.622-1.824 8.244-2.934 6.987-5.866 13.976-8.968 20.887-.854 1.902-2.303 3.537-3.484 5.29-1.295 1.922-2.852 3.721-3.824 5.794-1.031 2.199-1.869 4.561-1.949 7.181.273-.225.564-.363.699-.594.921-1.565 1.965-3.085 2.666-4.746.848-2.008 2.303-3.548 3.551-5.243 1.133-1.54 2.534-2.881 3.69-4.405 1.736-2.291 3.909-4.045 6.24-5.682 2.785-1.957 5.683-3.809 7.706-6.664.39-.55.844-1.054 1.571-1.952.128.794.318 1.182.207 1.439-.316.737-.733 1.433-1.149 2.123-2.866 4.762-5.987 9.333-9.688 13.506-2.493 2.809-5.281 5.285-8.12 7.716-1.456 1.245-2.984 2.405-4.467 3.619-.95.777-1.712 1.686-2.193 2.851-.5 1.212-1.129 2.371-1.707 3.551-.887 1.812-1.834 3.579-3.077 5.197-.854 1.111-1.487 2.398-2.176 3.632-1.271 2.275-2.51 4.569-3.824 6.969.369-.015.832.102 1.1-.076.58-.384 1.094-.886 1.575-1.398 2.968-3.16 5.911-6.345 8.879-9.505 3.175-3.379 6.5-6.628 9.515-10.144 2.755-3.21 5.924-6.058 8.349-9.55a31.53 31.53 0 0 0 1.763-2.813c.724-1.321 1.126-2.698 1.297-4.26.358-3.265 1.481-5.361 5.506-4.746 1.865-1.269 2.955-3.208 3.883-5.214.863-1.862 2.012-3.426 3.49-4.862 2.642-2.566 4.275-5.854 5.956-9.08.54-1.038.164-2.031-.578-2.77a10.053 10.053 0 0 0-2.418-1.782c-1.151-.598-1.808-1.578-2.475-2.591a2.192 2.192 0 0 1-.143-.266c-.507-1.069-.629-2.129.093-3.16.492-.702 2.257-1.158 3.332-.872 1.363.362 2.358 1.158 2.819 2.507.327.956.545 1.948.854 2.909.144.446.389.859.615 1.346.918-.593 1.229-1.216 1.113-2.114-.136-1.056-.645-1.875-1.302-2.678-.761-.93-1.515-1.893-2.092-2.942-.832-1.514-.517-3.262.624-4.485.804-.862 2.907-.758 3.834.332.569.669.96 1.525 1.288 2.353.241.61.288 1.294.87 1.928.168-1.857.338-3.545.47-5.236.135-1.735 1.078-3.013 2.294-4.129 1.072-.985 2.54-.96 3.502.094 1.893 2.075 2.051 3.997-.479 6.23-.979.864-2.091 1.578-3.133 2.373-.037.027.02.179.063.485.53-.007 1.089.004 1.646-.024 1.108-.056 2.216-.133 3.324-.199 1.642-.1 2.262 1.752 1.825 2.777-.365.855-.844 1.585-1.87 1.809-1.3.284-2.576.434-3.893.069-2.484-.687-4.357.102-5.582 2.431.819.718 1.674.498 2.519.137.836-.357 1.643-.78 2.482-1.127 1.516-.625 2.977-.341 4.383.37.701.356.879 1.059.531 1.807-.402.865-.984 1.5-1.93 1.794-1.788.557-3.578.613-5.381.114-1.378-.382-2.756-.65-4.373-.119-1.362 2.417-2.81 4.946-4.218 7.498-.878 1.592-1.597 3.278-2.566 4.809-1.021 1.614-2.262 3.089-3.391 4.635-1.668 2.283-3.298 4.592-4.991 6.857-.737.986-.558 2.058-.753 3.435 2.077-.971 3.411-2.364 4.58-3.778.731-.885 1.546-1.547 2.428-2.192 2.586-1.894 5.224-3.72 7.763-5.675 1.752-1.35 3.372-2.869 4.882-4.167.345-1.313-.037-2.248-.281-3.225-.163-.653-.191-1.41-.036-2.062.565-2.375 2.189-3.888 4.627-2.302.86 1.523-.383 2.677-.71 3.992.482.572.975.258 1.241-.129.735-1.066 1.489-2.149 2.008-3.325.422-.955.919-1.787 1.695-2.461.728-.631 1.546-.992 2.508-.649 1.073.382 1.572 1.29 1.699 2.321.299 2.426-1.033 4.332-3.403 5.043-.938.281-1.875.568-3.183.966.968.354 1.542.511 2.067.767 1.863.902 2.118 2.731.634 4.163-1.165 1.123-2.576 1.032-3.987.834-.586-.083-1.149-.376-1.709-.608-1.605-.661-3.219-.513-4.702.22-1.441.712-2.844 1.561-4.112 2.545-3.11 2.414-6.141 4.929-9.184 7.428-.685.562-1.29 1.222-2.084 1.984 1.091.735 2.126.495 3.042.718.877.213 1.553 1.106 1.493 2.001-.084 1.242-1.226 2.937-2.531 3.062-1.202.115-2.402.266-3.607.343-.601.038-1.212-.043-1.817-.09-2.309-.182-4.207.676-5.568 2.484-1.602 2.126-3.753 3.623-5.697 5.364-4.807 4.306-9.74 8.491-13.667 13.681-.788 1.042-1.551 2.082-2.858 2.624-1.18.491-1.697 1.671-2.264 2.747-.265.178-.532.355-.798.532l.015.022.809-.537-.419 1.687c.411-.109.726-.17 1.026-.274 5.385-1.845 10.32-4.536 15.042-7.711 4.546-3.057 8.56-6.722 12.623-10.347 2.409-2.149 4.679-4.466 7.479-6.149.501-.3.931-.769 1.293-1.238 1.476-1.916 2.893-3.878 4.372-5.792.86-1.113 1.677-2.274 3.078-2.843.44-.18.801-.619 1.127-1.001 1.616-1.888 3.718-2.914 6.052-3.63a10.56 10.56 0 0 0 4.154-2.433c.252-.238.58-.395 1.25-.839-.113.793-.045 1.236-.233 1.486-2.113 2.819-3.65 6.08-6.382 8.425-2.304 1.977-4.705 3.846-7.437 5.185-5.299 2.597-10.196 5.71-14.355 9.969-1.827 1.87-3.964 3.44-5.973 5.13-1.057.89-2.136 1.75-3.053 3.2 4.99-2.283 9.303-5.083 13.581-7.95a120.087 120.087 0 0 1 5.377-3.4c2.168-1.293 4.378-2.517 6.576-3.759.7-.395 1.39-.84 2.14-1.103 1.183-.414 2.146-1.018 2.877-2.078.638-.925 1.588-1.359 2.722-1.715 1.802-.564 3.522-1.475 5.172-2.422 2.451-1.409 4.796-2.999 7.213-4.469 1.98-1.203 4.027-2.297 5.99-3.527 1.367-.857 2.655-1.843 3.954-2.805 1.784-1.321 3.545-2.676 5.318-4.013.242-.183.516-.324.748-.517 2.458-2.047 3.197-2.772 1.607-5.871-1.157-2.253-.125-4.137.985-5.937.66-1.069 2.319-1.184 3.265-.483 1.044.774 1.429 2.101.889 3.204-.22.448-.583.831-.777 1.287-.096.226-.063.661.094.81.364.349.802.117 1-.229.597-1.047 1.178-2.11 1.665-3.211.658-1.486 1.354-2.928 2.521-4.104.693-.698 1.488-1.009 2.456-.919.69.066 1.109.437 1.247 1.11.528 2.567-.439 4.562-2.444 6.094-1.068.817-2.213 1.532-3.329 2.285 1.21.052 2.187.579 2.95 1.376.538 2.374-.5 3.797-2.416 4.774-.97.494-1.983.451-2.959.176-2.661-.752-4.983.101-7.141 1.506-1.942 1.265-3.779 2.692-5.662 4.05-2.041 1.474-4.08 2.95-6.692 4.838 1.148-.189 1.687-.17 2.126-.37 2.303-1.048 4.767-1.592 7.159-2.355 4.703-1.503 9.377-3.071 13.953-4.954a35.006 35.006 0 0 0 6.094-3.229c1.028-.682 1.471-1.528 1.643-2.714.245-1.681.649-3.341 1.03-5.001a4.69 4.69 0 0 1 .579-1.384c.45-.73 1.446-.885 2.125-.373 1.243.938 1.782 2.168 1.398 3.706-.287 1.148-.798 2.248-.891 3.637.453-.109.776-.089.937-.24 1.901-1.786 3.299-3.795 2.96-6.607-.083-.688-.017-1.415.107-2.102.297-1.644 1.546-2.794 2.775-2.646 1.643.197 3.029 2.052 2.665 3.745-.187.869-.624 1.691-1.005 2.507-.163.352-.471.636-.92 1.22.67-.019 1.168.115 1.467-.07 1.129-.7 1.963-1.686 2.611-2.871.999-1.83 2.672-2.334 4.644-2.103 1.066.126 1.703.689 1.717 1.758a4.935 4.935 0 0 1-.413 2.031c-.367.818-.932 1.547-1.514 2.479-1.805.562-3.739.914-5.803.72-1.494-.141-3.018-.048-4.522.051-.39.026-.753.464-1.138.72.62.939 1.395.476 2.039.529.798.068 1.611-.075 2.412-.033 1.747.094 3.131.75 3.705 2.777-.338.981-1.042 1.772-2.209 2.051-1.279.306-2.588.602-3.832-.135-.692-.411-1.44-.788-2.008-1.339-1.441-1.399-3.11-1.346-4.809-.83-1.221.371-2.373.971-3.878 1.606 1.564.423 2.745.097 3.924.019 1.278-.084 2.208.635 2.709 1.62.722 1.417.469 2.597-.826 3.423-1.716 1.092-2.683 1.071-4.439.005-4.567-2.77-4.49-3.163-9.529-1.43-3.337 1.147-6.61 2.483-9.915 3.726-1.321.497-2.659.952-3.977 1.459-5.355 2.059-10.763 3.965-16.196 5.803-1.428.483-2.887.886-4.279 1.455-.912.373-1.728.981-2.651 1.52 1.301 2.84-.936 4.796-1.694 7.439 1.065-.876 1.933-1.496 2.682-2.235a7.993 7.993 0 0 0 1.421-1.907c.47-.886.769-1.862 1.171-2.786.517-1.187 1.445-1.923 2.664-2.305 1.137-.357 2.107.003 2.926 1.036.675.851.451 1.681.017 2.543-.472.939-1.185 1.626-2.087 2.134-.44.247-.884.486-1.335.712-.434.217-.879.412-1.693.791.935.471 1.53.739 2.094 1.062 1.194.686 1.614 1.859.982 3.084-.345.667-.905 1.224-1.383 1.824 2.388.201 4.689-.193 6.978-.879 1.406-.422 2.252-1.213 2.567-2.643a17.26 17.26 0 0 1 .701-2.303c.397-1.066 1.047-1.919 2.11-2.452 1.246-.625 1.954-.575 3.009.361.688.611.896 1.337.521 2.162-.493 1.085-1.047 2.144-1.529 3.121.458.818.967.503 1.329.231.385-.291.627-.764.965-1.125.915-.977 1.983-1.629 3.346-1.888 1.654-.314 3.019.89 2.518 2.649-.543 1.909-1.449 3.325-3.595 3.484a26.513 26.513 0 0 1-3.287.05c-1.001-.05-1.996-.344-2.992-.334-.619.006-1.236.321-1.854.521.41.192.824.378 1.228.581 1.917.966 2.335 1.968 1.637 3.903-.716 1.986-2.352 2.587-4.062 1.367-.888-.634-1.629-1.486-2.392-2.283-.485-.508-.83-1.155-1.339-1.631-.834-.781-1.8-1.15-3.025-1.078-8.53.493-11.237.79-19.131 2.629-3.334.776-6.604 1.824-9.921 2.679-3.802.982-7.638 1.829-11.432 2.838-5.948 1.583-11.819 3.402-17.466 5.893-1.84.811-3.765 1.427-5.64 2.16-.441.173-.836.464-1.66.931 1.036.153 1.612.301 2.192.313 5.754.113 11.508.239 17.263.278 1.403.009 2.805-.323 4.212-.436 3.918-.316 7.796-.791 11.656-1.636 3.034-.664 6.188-.833 9.301-1.078 3.484-.274 6.851.537 10.084 1.715 1.289.469 2.503.634 3.824.614a78.016 78.016 0 0 1 4.537.09c2.01.089 4.004.373 5.991-.366.712-.266 1.603-.135 2.398-.052.312.032.775.394.825.668.054.297-.206.789-.48.986-1.662 1.195-3.562 1.891-5.548 2.286-2.372.472-4.77.816-7.155 1.221-3.483.593-6.956 1.257-10.453 1.758a18.95 18.95 0 0 1-4.522.091 230.599 230.599 0 0 1-11.116-1.366c-2.088-.308-4.148-.829-6.202-1.33-5.998-1.461-12.089-2.248-18.252-2.225-2.708.01-5.415.515-8.122.806-.502.053-1.037.308-1.49.198-1.616-.393-2.706.458-3.785 1.41-2.945 2.6-5.932 5.153-8.819 7.816-1.991 1.837-3.829 3.841-5.765 5.74-.712.698-1.511 1.307-2.534 1.704.264-.307.647-.577.754-.932.085-.279-.166-.66-.268-.998zM98 51.198c.652.572 1.341.124 1.952-.04 1.131-.302 1.574-1.134 1.334-2.295-3.01-.62-3.167-.576-4.575 1.355.324.053.613.063.875.153.415.142.555.431.414.827zm17.599 7.646c.912-.111.8-.745.899-1.165.194-.818 1.179-.416 1.396-.93.262-.619.352-1.344.349-2.021-.001-.193-.576-.52-.907-.546-.651-.053-1.186.325-1.425.927-.478 1.209-.54 2.455-.312 3.735zM44.421 98.251c.396-.259.785-.518 1.174-.775l-.141-.187-1.033.962zm40.847-53.336.406-.074-.428-.043c-1.456 1.206-2.865 2.474-4.378 3.604-3.075 2.297-5.774 4.956-7.978 8.093-.457.651-1.126 1.31-1.013 2.604 1.581-1.376 2.992-2.5 4.279-3.75a331.392 331.392 0 0 0 7.849-7.881c.654-.681 1.527-1.378 1.263-2.553zm72.991-20.231.062.142.147-.158-.209.016zm-2.024.335c.82-.544 1.2-.884 1.646-1.068.529-.219 1.114-.301 1.627-.43.404-1.453.404-1.453-.056-2.807-1.773.255-1.773.255-3.217 4.305zM57.369 81.075l.377-.463-.387-.049c.004.171.008.341.01.512zm26.037-58.069c-.653-.269-1.191.042-1.58.489-2.176 2.5-4.526 4.841-6.225 7.753-1.641 2.814-2.692 5.862-3.971 8.821-.157.363-.263.787-.249 1.178.054 1.548-.365 2.989-.847 4.432-.093.277-.388.752.376.981.442-.618.971-1.221 1.34-1.908.572-1.065 1.036-2.188 1.544-3.287.417-.906.83-1.812 1.245-2.718l.002.046.602-1.358c.316.702-.111 1.073-.6 1.417.052 1.615-.488 3.089-1.197 4.493-.724 1.434-1.565 2.81-2.367 4.205-.529.921-1.178 1.81-.598 2.954l-.372.276.383-.223c.763-1.057 1.559-2.09 2.277-3.175.882-1.333 1.862-2.636 2.515-4.08 2.108-4.662 4.11-9.373 6.095-14.09.465-1.104.737-2.288 1.08-3.444-.539.671-1.089 1.333-1.6 2.023-.837 1.132-1.643 2.289-2.461 3.435.049.177.15.379.09.501-.926 1.838-1.745 3.747-3.217 5.252.697-2.107 1.577-4.114 3.088-5.783.09-.446.111-.934.336-1.296 1.193-1.92 2.448-3.802 3.682-5.697-.278-.662.2-.917.629-1.197zm-.376 2.44c.577-.484 1.005-1.033.762-1.862l-.932.625.17 1.237zm.8-2.005.258-.372a45.757 45.757 0 0 1-.522-.037l.264.409zm73.143 6.978c-2.665-.304-4.87.313-6.811 2.572 1.707.159 2.911-1.086 4.682-.924-.722.751-1.891.401-2.04 1.532 1.036.627 2.036.435 2.997-.193 1.02-.668 1.363-1.63 1.172-2.987zm-55.638 3.959.256-.431c-.089-.014-.207-.07-.26-.033-.147.101-.265.241-.395.365l.399.099zM82.402 75.192l.408-.271c-.031-.047-.087-.137-.091-.134-.143.078-.28.166-.418.252l.101.153zm84.581-48.857c-1.372 1.774-1.479 3.794-1.497 6.56 1.04-1.588 1.501-2.734 2.474-3.599.895-.797.449-1.792-.977-2.961zm-39.422 58.507c1.102.622 1.126.6 2.193-.359-.815-.078-1.536-.047-2.193.359zm-38.325.887 2.694-.501c.621.206 1.231.534 1.866.589.89.079 1.708.257 2.444.767l-2.544.151c.305.497.636.704.986.744 4.176.485 8.35.983 12.533 1.396 2.2.217 4.388.069 6.541-.815l-.275-.882c3.846-.461 7.699-.88 11.536-1.413.794-.111 1.539-.571 2.302-.901-1.903-.552-3.847-.528-5.8-.376-1.518.118-2.934-.108-4.39-.684-3.292-1.303-6.767-1.873-10.307-1.638-3.494.232-6.973.617-10.399 1.448-1.548.375-3.184.379-4.477 1.488-1.051-.331-2.038-.425-2.71.627zm19.408 1.523c-.878.467-1.7.448-2.442-.302l2.339.261c1.531-.664 3.073-.135 4.611-.04-1.5.296-3 .546-4.508.081zm-9.109-.52c-.866.423-1.693.491-2.424-.306l2.338.26c1.371-.394 2.691-.235 3.973.347l2.425-.129c-.804.496-1.621.772-2.483.176-1.314.291-2.595.228-3.829-.348zm16.724-58.6c.712-1.039 1.306-1.8 1.78-2.629.392-.686.083-1.128-.715-1.234-1.32.88-1.846 2.022-1.065 3.863zm69.006-3.543c-.816-.023-1.398-.063-1.977-.043-.289.01-.619.061-.853.213-.569.369-1.2.741-.78 1.626.099.21.075.494.058.74-.078 1.14.541 1.724 1.458 1.312 1.496-.671 2.257-1.8 2.094-3.848zm-65.666 7.98c-.188.272-.556.497-.139 1.061.641.103 1.435.386 2.189.304.625-.069 1.271-.484 1.782-.9.611-.498.363-1.396-.379-1.657-1.268-.445-2.534-.474-3.772.096-.118.054-.151.291-.22.435l.539.661a.912.912 0 0 0 .044-.071l.001-.002c.064.021.128.044.191.066l.505-.093c-.053.068-.118.198-.157.192a2.544 2.544 0 0 1-.348-.099l-.21.038-.026-.031zm2.637 29.112-1.2.541c1 .917 2.054.964 3.093.766.406-.078.821-.502 1.074-.876.243-.359-.27-1.244-.823-1.382-.756-.187-1.543-.256-2.321-.335-.123-.012-.268.197-.403.304l.58.982zm27.473-32.683c.159-.712.199-1.406.474-1.99.332-.703.967-1.268 1.267-1.978.157-.373-.014-.988-.233-1.387-.233-.428-1.257-.362-1.645.01-.858.821-1.122 1.922-1.189 3.018-.054.88.147 1.797 1.326 2.327zm5.312-.237c-.282-.416-.509-.332-.695.142.175-.01.352-.004.523-.036.061-.012.116-.06.172-.106zM57.27 81.366l-.224.339c.069-.016.194-.022.199-.048a2.17 2.17 0 0 0 .025-.291zm57.464-35.428c-.045-.663.547-.874.964-1.221.396-.33.76-.7 1.507-1.396-4.185.762-6.314 3.617-9.329 5.982 1.29-.282 2.112-.46 2.934-.639-1.485 1.2-2.985 2.383-4.443 3.614-.424.358-.963.779-.518 1.489 5.047-2.42 8.473-5.021 10.745-8.288l-1.771.576c.003.062.002.12-.028.151-1.145 1.224-2.405 2.263-4.155 2.471 1.459-.771 2.479-2.204 4.094-2.739zM86.169 73.5c.314.112.64.274.923.22a75.898 75.898 0 0 0 4.969-1.122c.399-.107.738-.437 1.095-.702-.625 0-1.272-.086-1.857.065-1.724.446-3.419.996-5.13 1.539zm-72.661 27.653c-.08.001-.17-.022-.234.009-.071.033-.116.118-.173.18.08 0 .171.023.237-.008.069-.033.114-.118.17-.181zm72.337-27.547c-.664.23-.685.277-1.038 1.097l1.038-1.097zm37.816-47.723c.199-.224.446-.505.677-.112.169.288.166.678.24 1.022 1.139-.165 1.623-.952 1.847-1.813.164-.631.078-1.367-.067-2.018-.06-.274-.551-.628-.859-.641-1.392-.056-2.566 1.974-2.036 3.443.022.061.137.089.198.119zm-4.496-7.084c1.152.025 2.253.028 2.822-1.368-1.007-.916-1.998-.753-3.065-.377l.243 1.745zm55.929 14.892a.163.163 0 0 1-.02.017c-.328.278-.505.56-.127.951 1.179 1.216 2.586.607 3.915.464.31-.033.819-.419.82-.644.001-.422-.183-1.024-.501-1.236-.934-.62-1.989-.776-3.05-.214.024 1.066-.026 1.095-1.037.662zm.967-.706c-.667-.405-.681.206-.862.56l.862-.56zM9.346 103.084l.076.115 1.02-.677-.076-.114-1.02.676zm123.731-35.37c.351 1.404 1.38 2.173 2.542 2.785.549.288 1.168.313 1.677-.157.566-.523.689-1.199.551-1.923-.128-.67-.603-1.002-1.241-1.125a5.7 5.7 0 0 0-3.529.42zm37.201-28.41c-.658-2.524-.785-2.574-3.008-1.537-.341.16-.761.194-1.145.2-.534.007-1.069-.066-2.123-.142 1.312.95 2.147 1.636 3.065 2.183.385.228.988.312 1.416.192.643-.179 1.219-.596 1.795-.896zm-51.132-26.837-.034.606c1.333.32 2.667.368 3.888-.453.418-.281.556-.828.194-1.3-.319-.414-.702-.312-.915.099-.268.518-.686.593-1.198.651-.652.075-1.29.26-1.935.397zm27.222 48.112c-2.593-.04-2.738.059-4.984 3.311l3.292-1.54c.08.515.137.877.192 1.24 1.654-.761 1.654-.761 1.5-3.011zM89.175 85.736c-.072-.773-.55-.466-1.045.02l1.045-.02zm8.583-34.501a2.593 2.593 0 0 0-.333-.088c-.033-.006-.09.129-.137.199l.47-.111zM41.214 100.82c1.316-.426 2.705-.757 3.029-2.414l-3.029 2.414zM117.16 7.205l.318.458c.992-.657 2.044-1.242 2.962-1.991 1.361-1.11 1.245-2.769-.165-3.823-.599-.447-1.517-.444-1.886.145-.572.915-1.019 1.91-1.486 2.887-.033.068.21.267.324.405l2.119-.785.206.323-2.392 2.381zm-9.107 10.014c-.266-.582-.189-1.581-.041-2.143.072-.275.129-.591.066-.858-.359-1.518-1.364-2.178-3.116-2.097-.95.044-1.616 1.08-1.174 1.931.846 1.629 2.016 2.884 4.265 3.167zM91.402 70.348c1.549.68 2.761-.119 4.003-.273 1.882-.235 3.872-.443 5.556-1.223 2.202-1.019 4.479-1.748 6.738-2.57a63.987 63.987 0 0 0 4.467-1.811c.832-.378 1.479-.987 1.748-1.957.389-1.402.402-3.131-.1-5.285-7.949 3.389-15.49 7.476-22.412 13.119zm-4.161-29.226c-2.41 2.39-5.898 3.368-7.697 6.874 3.239-1.67 5.532-3.944 7.878-6.147.061-.057-.076-.327-.181-.727zm48.477 24.448c-1.243-.749-1.258-.744-2.41.103.836.26 1.643.442 2.41-.103zm-42.351 6.259c1.027.519 1.971-.128 2.966-.256l.408-.306-.458.307c-.205-.162-.404-.453-.616-.463-.843-.038-1.631.178-2.3.718zm29.588-14.58c1.693-.976 2.82-1.609 3.93-2.274.541-.322.735-1.043.478-1.577-.25-.516-1.006-.889-1.523-.638-.529.256-1.061.583-1.466 1.001-.795.819-.96 1.915-1.419 3.488zm-33.392-5.964c-1.295 1.911-3.11 3.429-3.831 5.66 1.918-1.462 3.531-3.135 3.831-5.66zm84.061-23.716c.522-.346.801-.673 1.12-.72 1.701-.25 1.82-1.604 2.012-2.855.121-.796-.501-1.508-1.326-1.753-.762-.226-1.484.195-1.799 1.136a4.406 4.406 0 0 0-.23 1.439c.011.786.121 1.571.223 2.753zm-38.168 34.723.48.309c1.157-1.195 2.35-2.357 3.445-3.606.27-.31.434-1.03.256-1.327-.19-.318-.837-.468-1.295-.493-.775-.041-1.372.423-1.625 1.126-.473 1.311-.847 2.659-1.261 3.991zm-11.811-36.395c-.162.005-.338-.021-.469.045-.092.046-.106.246-.155.377.068-.049.135-.099.205-.146.139-.093.278-.185.419-.276zM99.259 70.703l.104-.243c-.087-.014-.233-.064-.25-.035-.061.099-.076.225-.108.34l.254-.062zm-8.118-20.402 1.333-2.467c1.716-.127 1.538-1.554 1.777-2.652.172-.786.236-1.632-.579-2.153-.584-.373-1.596.227-2.125 1.213-.142.262-.302.535-.352.82-.269 1.532-.364 3.067-.054 5.239zM124.893 64.7c-1.76-.03-3.472-.34-5.021-1.184-1.316-.716-2.651-.808-4.163-.539-1.336 2.108-3.839 2.632-5.881 4.136.283.194.565.113.853.078 3.479-.42 6.958-.834 10.437-1.247 1.346-.159 2.635-.485 3.775-1.244zM113.148 9.585c-.111-1.558-.615-2.76-2.191-3.26-.746-.236-1.384.078-1.647.836-.711 2.048.726 4.315 3.387 5.028l-.635-2.559 1.086-.045zm-73.46 94.763-2.228 1.477c.421-.674.814-1.386 2.228-1.477zm-3.702 3.199-1.629 1.08c-.054-.05-.107-.1-.161-.148.25-.236.478-.502.755-.698.275-.193.601-.315.904-.468l.131.234z" fill="#687E6B"/></g><defs><clipPath id="a"><path fill="#fff" d="M0 0h187v130H0z"/></clipPath></defs></svg>