<svg width="163" height="204" fill="none" xmlns="http://www.w3.org/2000/svg"><g clip-path="url(#a)"><path d="M111.936 158.295c.055-.032.108-.065.162-.098l-.513-.807-.115.069.466.836zm14.187 19.715a4.51 4.51 0 0 0-.123.05c.117.208.199.448.359.613.13.133.352.176.534.259l.07-.147-.84-.775zm-10.489.106.052-.306-2.091-.221c.777.832 1.412.648 2.039.527zM66.351 76.191c-.159-1.569-.636-2.605-1.693-3.78l1.693 3.78zm59.263 105.102c-.364-1.416-.802-1.675-2.431-1.627l2.431 1.627zm-35.716-59.769c.099 1.414.91 2.745 1.942 3.478l-1.942-3.478zm42.097 66.599c-.645-2.397-1.793-4.071-3.265-4.47 1.177 1.571 1.901 3.122 3.265 4.47zm.42 4.246.405-.245c-1.183-1.562-.984-3.853-2.692-5.139l-.291.148 2.578 5.236zm-26.812-82.62.141.021c.024-.238.09-.481.066-.713-.232-2.255.181-4.54-.308-6.78-.356-1.635-.712-3.274-1.134-4.893-.26-.997-.698-1.947-.963-2.943-.551-2.067-.962-4.172-1.573-6.218-.739-2.47-1.618-4.897-2.454-7.336-.133-.391-.36-.749-.598-1.233-.118.275-.239.414-.222.536.21 1.556.433 3.111.666 4.664.122.817.287 1.628.404 2.445.218 1.515.396 3.035.633 4.546.076.484.281.951.442 1.421.602 1.759 1.251 3.504 1.803 5.278.528 1.691 1.21 3.317 1.495 5.107.33 2.066 1.051 4.068 1.602 6.098zm-1.036 72.547-.031-.405c-1.156.064-2.31.133-3.465.193-1.322.068-2.644.189-3.965.184-2.262-.009-4.48-.42-6.695-.841-.528-.101-1.079-.105-1.619-.1-1.888.017-3.781.147-5.664.057-1.455-.069-2.896-.403-4.254-.607.344.747.345.746 1.036 1.043.544.234 1.089.463 1.628.711 2.536 1.169 5.147 2.116 7.926 2.498 1.274.176 2.566.221 3.845.367 1.544.174 2.923-.542 4.392-.755 2.445-.354 4.663-1.321 6.866-2.345zm-82.529-82.65-.3.378c1.419.743 1.99 2.133 2.815 3.331.057.082.116.163.183.237 1.69 1.878 3.442 3.683 5.567 5.091.65.429 1.188 1.031 1.844 1.447.831.526 1.729.923 2.319 1.784.241.351.666.581 1.024.843.719.527 1.469 1.015 2.173 1.561.744.58 1.386 1.311 2.182 1.796 2.746 1.676 5.505 3.34 8.33 4.876 1.691.92 3.521 1.578 5.276 2.381 1.852.848 3.832 1.518 5.496 2.649 1.908 1.297 4.197 1.611 6.113 2.844a28.23 28.23 0 0 0-3.28-2.954 406.582 406.582 0 0 0-6.977-5.284c-1.788-1.323-3.528-2.751-5.455-3.839-2.511-1.418-5.149-2.607-7.698-3.975-2.03-1.09-4.127-2.08-6.124-3.248-.985-.577-1.994-1.138-2.886-1.84-2.017-1.591-3.929-3.317-5.96-4.887-1.483-1.146-3.091-2.134-4.642-3.191zm61.083-4.862.213-.004c.166-1.061.359-2.119.493-3.184.34-2.717.763-5.43.943-8.158.13-1.969-.063-3.962-.139-5.943-.137-3.621-.273-7.241-.45-10.86-.118-2.418-.037-4.843-.463-7.252-.334-1.887-.487-3.813-.61-5.728-.111-1.728-.11-3.445-.568-5.151-.587-2.198-.945-4.457-1.471-6.673-.195-.824-.584-1.601-.884-2.4l-.324.068c.065.821.14 1.642.192 2.463.181 2.817.99 5.53.989 8.414-.001 2.335.222 4.716.252 7.075.021 1.631-.212 3.263-.28 4.897-.049 1.181.039 2.37-.036 3.549-.069 1.088-.366 2.166-.402 3.253-.079 2.43-.16 4.867-.045 7.292.093 2.005.627 3.994.676 5.996.076 2.993.716 5.882 1.211 8.803.202 1.187.467 2.363.703 3.543zm-29.325 63.651-.14.341c.57.235 1.134.488 1.715.699.324.118.7.11 1.007.255 2.907 1.367 5.983 2.354 8.745 4.053 1.261.776 2.687 1.288 4.047 1.897 1.806.807 3.59 1.676 5.441 2.364 1.801.669 3.681 1.121 5.514 1.709 2.733.877 5.435 1.853 8.187 2.661 1.557.458 3.181.705 4.786.981 1.807.309 3.64.476 5.436.834 1.621.322 3.181.996 5.124.73-.74-.383-1.276-.699-1.842-.945-2.224-.969-4.446-1.942-6.692-2.859-1.011-.413-2.074-.633-3.084-1.137-2.99-1.495-6.001-2.954-9.329-3.656-1.977-.417-3.923-.978-5.818-1.793-1.828-.786-3.846-1.136-5.79-1.642-2.208-.575-4.436-1.074-6.636-1.676-1.468-.4-2.885-.989-4.357-1.37-2.089-.541-4.208-.97-6.314-1.446zM37.453 50.388l-.201.11c.645 1.154 1.324 2.29 1.925 3.466 1.008 1.967 2.52 3.552 3.877 5.255 1.082 1.358 2.16 2.722 3.294 4.037.998 1.157 2.068 2.254 3.113 3.37.54.576 1.209 1.067 1.622 1.721 1.188 1.88 2.269 3.826 3.404 5.738a73.012 73.012 0 0 0 1.569 2.531c1.921 2.952 4.45 5.415 6.605 8.18.18.231.433.408.659.604 1.291 1.124 2.66 2.17 3.856 3.386 1.447 1.472 2.75 3.086 4.115 4.639-.793-1.87-1.745-3.643-2.76-5.378-1.76-3.007-3.444-6.069-5.38-8.96-1.596-2.383-3.137-4.811-5.18-6.902-2.28-2.335-4.146-5.06-6.543-7.309-.903-.848-1.724-1.782-2.566-2.692-1.302-1.409-2.559-2.858-3.889-4.237-1.204-1.247-2.498-2.406-3.723-3.634-1.284-1.289-2.533-2.616-3.797-3.925zm86.654 54.09c-.111.143-.192.201-.207.272-.626 3.052-.531 6.117-.178 9.188.085.738.139 1.489.316 2.208.415 1.682.917 3.343 1.336 5.025.117.467.053.977.101 1.464.191 1.954.408 3.905.59 5.859.1 1.081.339 2.197.177 3.243-.266 1.715-.378 3.424-.489 5.15a33.24 33.24 0 0 0 .424 7.82c.412 2.392.856 4.774.908 7.224.039 1.788.39 3.569.605 5.377.555-1.534 1.105-2.945 1.567-4.384.175-.548.306-1.2.177-1.738-.476-1.971.656-3.872.168-5.838-.083-.336.18-.753.256-1.138.063-.323.113-.653.124-.981.034-1.033.028-2.066.073-3.098.049-1.109.203-2.219.192-3.327-.017-1.679-.115-3.358-.223-5.033-.06-.928-.107-1.877-.345-2.767-.316-1.183-.64-2.318-.65-3.581-.011-1.354-.278-2.732-.62-4.051-.681-2.617-1.512-5.194-2.235-7.801-.291-1.05-.474-2.132-.681-3.205-.2-1.033-.336-2.079-.556-3.106-.199-.929-.175-1.941-.83-2.782zM71.679 78.384l.31.053c.162-.778.284-1.566.496-2.33.371-1.337.583-2.783 1.255-3.958.891-1.561 1.434-3.201 1.594-4.911.228-2.416.152-4.858.235-7.289.074-2.184.171-4.369.287-6.551.21-3.928.51-7.846-.624-11.717-.415-1.419-.543-2.923-.795-4.389-.495-2.885-1.022-5.76-2.487-8.499.046 1.51.193 2.898.106 4.271-.173 2.714-.714 5.38-.686 8.14.028 2.764-.454 5.516-.078 8.319.227 1.692-.019 3.452-.083 5.18-.078 2.127-.276 4.254-.257 6.38.022 2.515-.87 5.038.045 7.549.062.17-.039.393-.024.589.232 3.054.47 6.108.706 9.163zm-10.93-19.033c.132-.033.264-.064.396-.095-.216-.936-.504-1.862-.634-2.81-.538-3.957-1.029-7.921-1.536-11.881-.107-.841-.129-1.703-.327-2.521-.67-2.764-1.054-5.587-1.908-8.318-.829-2.649-1.443-5.367-2.101-8.067-.68-2.787-1.208-5.615-1.987-8.373-.366-1.298-.504-2.617-.82-3.896-.331-1.332-.59-2.645-.43-3.979.255-2.134-.585-4.025-1.107-6.008-.224 1.421-.661 2.903-.384 4.238.424 2.055-.217 3.947-.374 5.898-.262 3.259-.759 6.48-.039 9.757.699 3.187 1.167 6.423 1.808 9.623.584 2.911 1.272 5.802 1.899 8.705.103.479.077.988.2 1.46.729 2.8 2.24 5.27 3.413 7.88.683 1.52 1.345 3.076 2.406 4.412.295.371.407.894.58 1.356.324.87.631 1.746.945 2.619zm57.981 103.015.339-.044c-.12-1.92-.083-3.867-.406-5.752-.323-1.879-.989-3.702-1.537-5.541-.397-1.332-.742-2.695-1.3-3.961-.842-1.908-1.847-3.744-2.791-5.606-.112-.221-.274-.415-.417-.619-.37-.526-.766-1.032-1.106-1.575-.808-1.294-1.549-2.633-2.396-3.901-.906-1.354-1.872-2.647-2.293-4.277a20.799 20.799 0 0 0-1.239-3.506c-1.609-3.476-3.299-6.912-4.942-10.372-.966-2.036-2.163-3.955-2.806-6.157-.428-1.469-1.166-2.848-1.764-4.267a1.125 1.125 0 0 0-.156.789c.419 3.351.831 6.703 1.271 10.051a19.745 19.745 0 0 0 2.306 6.997c.76 1.386 1.407 2.837 2.053 4.281 1.684 3.765 3.348 7.538 5.003 11.316.709 1.617 1.5 3.213 2.037 4.887.988 3.078 2.346 5.955 4.127 8.639.44.662.857 1.347 1.364 1.956 1.65 1.987 3.214 4.028 4.384 6.344.062.121.178.213.269.318zm14.206-2.314c.205-.403.369-.744.55-1.074.258-.473.52-.943.796-1.406.735-1.236 1.544-2.433 2.201-3.71.769-1.496 1.239-3.17 2.152-4.561.949-1.447 1.691-2.972 2.46-4.501.775-1.541 1.553-3.092 2.484-4.539 2.135-3.323 4.606-6.41 6.364-10.004.889-1.82 1.852-3.602 2.546-5.508 1.4-3.852 2.786-7.708 4.924-11.237.457-.755.883-1.537 1.23-2.347.28-.658.397-1.384.627-2.065.424-1.26.895-2.503 1.303-3.768.071-.221-.065-.509-.141-.99-.992 1.688-1.788 3.113-2.65 4.496-1.492 2.393-3.559 4.309-5.368 6.438-1.753 2.063-3.5 4.146-5.048 6.361-1.09 1.56-1.854 3.351-2.742 5.051-.637 1.219-1.236 2.46-1.858 3.687-.309.612-.613 1.228-.95 1.824-1.01 1.787-2.192 3.497-3.013 5.367-.968 2.2-1.674 4.521-2.406 6.817a71.07 71.07 0 0 0-1.447 5.311c-.281 1.19-.32 2.439-.627 3.619-.399 1.528-1.011 3-1.423 4.525-.178.657-.632 1.381.036 2.214zm-45.799-57.033.349.103c.161-.349.338-.693.48-1.051.516-1.288.994-2.591 1.533-3.87 1.334-3.155 2.677-6.303 3.244-9.715.137-.83.385-1.648.448-2.482.284-3.812.477-7.631.79-11.439.161-1.959.492-3.904.766-5.852.293-2.107.621-4.21.913-6.317.175-1.276.142-2.607.503-3.825.719-2.433 1.063-4.925 1.121-7.42.092-3.982-.08-7.97-.141-11.957-.653.622-1.186 1.229-1.439 1.936-.634 1.774-1.133 3.596-1.703 5.393-.39 1.233-.756 2.478-1.224 3.681-.899 2.311-1.993 4.553-2.762 6.903-.767 2.351-1.338 4.78-1.794 7.212-.232 1.238-.024 2.558-.016 3.842.01 1.684-.252 3.426.094 5.038.485 2.252.665 4.515.835 6.784.129 1.722.296 3.511-.025 5.18-.41 2.127-.438 4.219-.346 6.345.013.297.086.604.033.889-.313 1.693-.71 3.372-.974 5.072-.287 1.841-.461 3.699-.685 5.55zm26.668 36.374c.129.011.259.023.388.036.334-1.542.664-3.085 1.004-4.626.212-.963.461-1.918.653-2.884.197-1 .607-1.932.509-3.024-.146-1.617-.038-3.254-.061-4.882-.014-1.122-.069-2.243-.098-3.365-.011-.395-.089-.817.018-1.18.375-1.27-.356-2.686.534-3.875-.344-1.664-.194-3.328-.058-5.002.12-1.479.076-2.97.187-4.449.133-1.767.318-3.531.543-5.288.258-2.001.255-4.028.922-5.991.596-1.749.997-3.578 1.319-5.401.427-2.431.741-4.885 1.019-7.339.321-2.83.586-5.668.81-8.508.187-2.378.288-4.763.407-7.146.011-.235-.119-.475-.203-.783-.184.173-.288.226-.316.305-.762 2.237-1.384 4.533-2.31 6.698-1.02 2.382-1.42 4.903-2.113 7.358-.584 2.072-.383 4.381-1.814 6.208-.075.096-.037.276-.065.415-.155.764-.251 1.546-.48 2.287-.671 2.18-1.492 4.318-2.072 6.521-.742 2.82-1.323 5.684-1.937 8.538-.133.619-.018 1.295-.175 1.904-.349 1.36-.224 2.712.087 4.02.36 1.508.475 3.008.492 4.551.019 1.779-.013 3.617.42 5.317.464 1.822.5 3.596.448 5.425-.038 1.295.036 2.593.07 3.89a4.2 4.2 0 0 0 .088.741c.343 1.685.716 3.365 1.034 5.054.28 1.485.502 2.982.75 4.475zm-68.53-44.297-.2.217c.27.412.507.851.817 1.232.812 1.002 1.668 1.967 2.481 2.968 1.44 1.769 2.843 3.57 4.294 5.331 2.009 2.437 4.546 4.443 6.007 7.333.086.171.226.356.39.439.929.474 1.195 1.429 1.668 2.234.396.674.62 1.583 1.199 1.991 1.27.891 1.743 2.273 2.555 3.445.14.203.223.446.364.649.622.898 1.201 1.833 1.901 2.666.53.63 1.352 1.032 1.812 1.697 1.679 2.425 3.944 4.281 5.989 6.348 1.078 1.089 2.27 2.07 3.443 3.061a70.26 70.26 0 0 0 3.013 2.394c1.425 1.077 2.891 2.101 4.306 3.191.462.356.789.879 1.229 1.268 1.037.913 2.127 1.765 3.154 2.689 1.745 1.57 3.411 3.232 5.201 4.748 1.086.921 2.329 1.66 3.525 2.444a410.781 410.781 0 0 0 6.142 3.948c.426.267.922.424 1.386.632-.352-.922-.844-1.664-1.365-2.385-.582-.804-1.186-1.592-1.786-2.382-1.137-1.5-2.236-3.033-3.433-4.484-.934-1.133-1.975-2.179-3-3.233-.687-.704-1.672-1.23-2.091-2.055-.754-1.488-2.347-2.082-3.195-3.438-.4-.638-1.109-1.092-1.708-1.592-1.438-1.198-2.916-2.348-4.334-3.566-1.354-1.161-2.665-2.373-3.975-3.583-2.341-2.161-4.669-4.336-7-6.508-1.485-1.385-2.985-2.753-4.443-4.165-1.917-1.856-3.791-3.755-5.698-5.621-1.097-1.074-2.157-2.2-3.348-3.16-2.127-1.712-3.981-3.682-5.833-5.672-1.237-1.328-2.248-2.881-3.879-3.846-.703-.416-1.226-1.134-1.836-1.709-1.249-1.178-2.501-2.351-3.752-3.526zm-16.981 33.626-.156.224c.082.169.132.367.251.502.913 1.041 1.793 2.118 2.774 3.091.948.941 1.97 1.817 3.024 2.64 1.158.904 2.436 1.658 3.576 2.583 1.497 1.217 3.002 2.414 4.722 3.295.96.491 1.986.851 2.967 1.304 2.296 1.062 4.583 2.145 6.874 3.218.225.106.468.181.68.309 1.951 1.175 3.865 2.418 5.856 3.519a49.772 49.772 0 0 0 5.081 2.452c1.871.777 3.864 1.269 5.709 2.097 2.691 1.206 5.548 1.764 8.38 2.417 1.838.424 3.728.617 5.584.975 1.216.234 2.409.591 3.618.868.617.142 1.26.185 1.869.353 2.335.645 4.638 1.425 6.997 1.958 2.55.578 5.18.561 7.784.735 1.921.128 3.82.563 5.737.802 1.717.213 3.418.46 5.015 1.18.133.06.331-.025.499-.044-1.081-.942-2.197-1.73-3.41-2.324a43.919 43.919 0 0 0-4.668-1.952c-2.514-.889-5.046-1.734-7.605-2.477-1.705-.495-3.463-.821-5.212-1.145-2.185-.405-4.27-1.119-6.363-1.84-2.012-.693-4.056-1.296-6.092-1.921-5.709-1.755-11.44-3.44-17.121-5.278-2.441-.789-4.789-1.867-7.163-2.855-1.969-.818-3.905-1.719-5.876-2.536-1.28-.53-2.643-.875-3.886-1.474-3.429-1.656-6.845-3.343-10.202-5.136-1.657-.885-3.148-2.073-4.76-3.049-1.462-.884-2.987-1.665-4.483-2.491zm47.987-24.233c-.28-.5-.344-.696-.473-.833-1.152-1.232-2.382-2.399-3.465-3.689-2.337-2.785-5.322-4.706-8.351-6.616-2.221-1.401-4.377-2.907-6.217-4.834-1.192-1.248-2.514-2.381-3.85-3.478-.866-.711-1.975-1.146-2.77-1.917-.956-.926-2.098-1.399-3.262-1.899-1.282-.551-2.603-1.031-3.827-1.689-2.178-1.172-4.344-2.34-6.42-3.726-2.733-1.825-5.556-3.6-8.726-4.691-2.105-.724-4.162-1.589-6.232-2.412a158.17 158.17 0 0 1-3.814-1.592c-1.224-.524-2.43-1.095-3.664-1.597-.595-.243-1.25-.34-1.854-.566-2.25-.838-4.544-1.507-6.963-1.946.072.183.082.302.146.354 1.656 1.375 3.323 2.739 4.977 4.116 1.171.974 2.308 1.99 3.499 2.936.379.301.882.449 1.336.649 2.313 1.01 4.759 1.739 6.814 3.293.468.353 1.04.568 1.554.862 1.112.635 2.232 1.257 3.322 1.927 3.253 1.996 6.069 4.629 9.46 6.437 2.971 1.583 5.694 3.62 8.904 4.771.733.263 1.489.627 2.066 1.135 1.761 1.554 3.8 2.668 5.777 3.886.463.285.902.612 1.342.931 1.647 1.189 3.177 2.605 4.961 3.527 2.895 1.495 5.509 3.6 8.801 4.28 2.004 1.33 4.43 1.366 6.929 2.381zm-22.024-48.79c-.193-.543-.337-1.11-.593-1.62-.288-.567-.698-1.071-1.022-1.622-1.502-2.558-3.263-4.922-5.332-7.049-1.233-1.268-2.497-2.507-3.752-3.755-1.969-1.958-3.894-3.962-5.925-5.853-2.031-1.89-3.991-3.84-5.808-5.937-.776-.895-1.587-1.758-2.621-2.9.465 1.569 1.221 2.595 2.154 3.382.795.672 1.297 1.473 1.836 2.311.67 1.04 1.388 2.069 2.223 2.976.63.684 1.232 1.305 1.738 2.138 1.517 2.497 3.235 4.881 4.996 7.218 1.034 1.373 2.13 2.809 3.501 3.794 1.911 1.372 3.415 3.132 5.164 4.645.898.777 1.792 1.56 2.725 2.293.144.112.489-.031.738-.056-.209.342-.463.673.021 1.015.413.292.803.619 1.203.93l.256-.204c-.321-.575-.626-1.16-.981-1.714-.049-.077-.341.001-.521.008zm27.89 53.675c.263.384.546.755.782 1.153.405.686.781 1.388 1.257 2.24.112-.345.228-.514.184-.595-.476-.873-.952-1.748-1.491-2.581-.105-.163-.484-.148-.736-.215.171-1.113.109-1.29-.861-2.351.305.832.586 1.59.865 2.349zm-2.817 28.118c-.939-.88-1.878-1.757-2.815-2.637-1.015-.956-2.009-1.932-3.049-2.859-.43-.384-.967-.646-1.434-.993-.314-.232-.628-.483-.876-.781-1.203-1.444-2.357-2.931-3.587-4.351-.572-.661-1.32-1.168-1.912-1.813-.499-.543-.907-1.176-1.325-1.788-1.511-2.211-3.023-4.422-4.511-6.65-.994-1.487-1.896-3.04-2.942-4.49-.626-.866-1.477-1.565-2.178-2.383-2.481-2.89-4.847-5.886-7.444-8.666-1.347-1.441-2.247-3.148-3.446-4.662a6.465 6.465 0 0 0-.831-.84c-.566-.494-.819-1.098-.776-1.915 1.13-.489 1.963.203 2.672.793 1.818 1.514 3.536 3.147 5.295 4.73 1.173 1.055 2.373 2.082 3.514 3.17.533.509.981 1.115 1.422 1.71 1.983 2.682 4.808 4.422 7.267 6.574 1.324 1.157 2.483 2.501 3.74 3.736 1.203 1.185 2.445 2.328 3.653 3.508.6.587 1.135 1.18 1.464 2.026.234.604.934 1.185 1.563 1.444 1.637.674 2.591 2.141 3.937 3.146 1.781 1.331 3.501 2.795 5.02 4.414 1.842 1.964 3.94 3.59 6.017 5.265.488.393.843.955 1.26 1.438.322.374.572.905.98 1.093 1.594.738 2.315 2.455 3.815 3.273.869 1.863 2.876 2.692 3.964 4.382.5.778 1.271 1.407 2 2.004 1.382 1.135 2.16 2.685 3.082 4.153.577.918 1.312 1.736 1.973 2.602.538.704 1.076 1.409 1.606 2.12 1.037 1.393 2.059 2.796 3.111 4.176.166.219.456.343.945.694-.726-1.549-1.475-2.704-2.283-3.861-.956-1.368-2.187-2.586-2.631-4.304-.135-.526-.7-.927-.987-1.433-1.402-2.467-2.807-4.934-4.152-7.431-.992-1.839-1.775-3.799-2.869-5.57-1.142-1.847-2.285-3.722-3.825-5.296-.241-.247-.521-.517-.623-.829-.943-2.872-3.071-5.068-4.379-7.728-.277-.563-.562-1.139-.725-1.741a8.943 8.943 0 0 0-1.686-3.344 77.118 77.118 0 0 1-3.02-4.04c-.762-1.083-1.351-2.297-2.174-3.326-1.07-1.338-2.256-2.593-3.481-3.792-.395-.388-1.056-.533-1.621-.715-2.828-.906-5.76-1.5-8.449-2.819a123.166 123.166 0 0 1-3.827-1.964c-1.705-.912-3.435-1.79-5.078-2.805-1.257-.775-2.389-1.75-3.592-2.614-.68-.488-1.401-.917-2.085-1.399-1.614-1.141-3.214-2.301-4.825-3.446-.325-.23-.658-.464-1.017-.632-1.524-.711-3.059-1.399-4.591-2.096-.312-.143-.639-.263-.931-.44-1.871-1.13-3.744-2.256-5.595-3.419-1.511-.949-3.024-1.9-4.478-2.933-2.837-2.016-5.711-3.944-8.778-5.621-1.715-.939-3.32-2.009-5.206-2.655-3.252-1.111-5.692-3.49-8.13-5.772a24.163 24.163 0 0 0-4.521-3.325c-1.496-.86-2.782-2.1-4.522-2.545-.196-.05-.479-.57-.414-.668.166-.25.531-.57.772-.535.934.132 1.928.23 2.759.633 2.541 1.235 5.33 1.607 7.972 2.471.71.232 1.449.386 2.141.66a3920.782 3920.782 0 0 1 15.09 6.048c1.565.631 3.185 1.167 4.659 1.968 2.18 1.186 4.253 2.57 6.371 3.871.634.389 1.238.839 1.905 1.161 2.19 1.06 4.387 2.108 6.611 3.095 2.424 1.077 4.497 2.674 6.568 4.281.273.212.522.457.799.666.747.566 1.417 1.164 2.031 1.915.86 1.052 2.024 1.883 3.145 2.689 2.65 1.906 5.393 3.683 8.012 5.63 1.218.904 2.232 2.084 3.345 3.13.677.636 1.368 1.257 2.252 1.704-.181-.256-.347-.525-.549-.763-.19-.226-.482-.385-.621-.634-2.027-3.634-5.029-6.49-7.692-9.612-.86-1.007-2.001-1.769-2.964-2.695-.711-.684-1.366-1.433-2.003-2.188-2.11-2.495-4.155-5.047-5.98-7.755-1.353-2.006-2.515-4.141-3.792-6.2-.362-.585-.775-1.158-1.258-1.645-1.675-1.685-3.341-3.363-4.71-5.332-.982-1.408-2.118-2.719-3.275-3.993-2.426-2.672-4.229-5.746-5.945-8.885-.654-1.194-1.473-2.23-2.677-2.93-.288-.167-.516-.454-.737-.714-.81-.952-1.649-1.838-2.834-2.37-.858-.385-.822-.466-.801-1.533 1.123-.144 2.005.367 2.827 1.031 2.935 2.367 5.694 4.921 8.328 7.621 1.827 1.874 3.799 3.606 5.642 5.466 1.115 1.127 2.098 2.383 3.155 3.567.597.667 1.223 1.308 1.836 1.959 1.396 1.482 2.819 2.937 4.18 4.449 1.426 1.586 2.788 3.231 4.186 4.841.228.262.467.551.764.709 1.509.802 2.129 2.275 2.918 3.652.839 1.462 1.822 2.84 2.702 4.279 1.525 2.493 3.01 5.01 4.535 7.503.331.54.737 1.042 1.153 1.521 1.358 1.569 1.544 3.63 2.228 5.465.507 1.36.909 2.665 1.876 3.827 1.068 1.286 1.871 2.795 2.766 4.222.389.621.72 1.279 1.209 1.865.168-.99-.115-1.901-.551-2.684-1.884-3.368-2.872-7.071-4.154-10.667-.866-2.429-1.913-4.755-3.461-6.889-1.144-1.576-2.604-3.01-3.074-5.058-.153-.668-.769-1.247-1.227-1.825-1.419-1.79-2.097-3.941-2.905-6.018-.93-2.388-2.302-4.512-3.684-6.64-.136-.208-.323-.386-.436-.604-1.489-2.911-3.681-5.208-6.168-7.286-1.202-1.002-2.211-2.231-3.333-3.333-.419-.414-.928-.736-1.368-1.133-1.594-1.436-3.301-2.773-4.733-4.357-2.154-2.384-4.18-4.893-6.125-7.452-.873-1.148-1.416-2.547-2.117-3.827-.114-.207-.235-.491-.42-.564-1.333-.528-1.737-1.795-2.389-2.876-.658-1.091-1.318-2.148-2.301-3.043-.918-.836-1.552-1.995-2.261-3.046-.659-.973-1.25-1.992-1.935-3.093.531-.395 1.131-.065 1.605.254a10.712 10.712 0 0 1 1.917 1.645c.794.873 1.464 1.855 2.23 2.756.449.528.958 1.01 1.475 1.474 1.769 1.591 3.33 3.393 5.306 4.785 1.146.806 1.948 2.094 2.938 3.134 1.908 2.005 3.758 4.064 5.912 5.83.91.748 1.659 1.715 2.39 2.654a115.24 115.24 0 0 1 3.542 4.802 94.142 94.142 0 0 1 3.116 4.741c1.26 2.062 2.441 4.175 3.664 6.26.445.76.867 1.547 1.98 2.171-.994-1.96-1.19-3.92-2.525-5.423-.36-.408-.375-1.115-.577-1.672-.221-.609-.419-1.234-.724-1.799-.825-1.535-1.706-3.04-2.554-4.564-.169-.302-.357-.621-.415-.953-.238-1.383-.87-2.619-1.572-3.779-.767-1.268-1.203-2.612-1.465-4.027-.215-1.164-.267-2.358-.472-3.524a20.3 20.3 0 0 0-.706-2.872c-.782-2.352-1.065-4.796-1.482-7.221-.376-2.185-.949-4.336-1.41-6.507-.103-.48-.118-.982-.142-1.476-.052-1.093-.168-2.191-.108-3.279.118-2.175.35-4.343.51-6.515.094-1.27.134-2.544.214-3.815.082-1.323-.201-2.65.273-3.979.234-.656.055-1.46.06-2.198.002-.376-.003-.753-.004-1.175 1.137.197 1.516.907 1.715 1.774.61 2.657 1.208 5.296 1.342 8.054.111 2.271.619 4.534 1.09 6.771a238.073 238.073 0 0 0 2.208 9.426c.634 2.502 1.443 4.959 2.063 7.464.5 2.016 1.082 4.011 1.542 6.043.921 4.082 1.198 8.252 2.066 12.334.483 2.269.541 4.625.865 6.932.145 1.024.502 2.018.713 3.035.252 1.212.404 2.444.685 3.649.223.96.431 1.971.897 2.823 1.332 2.437 2.252 5.053 3.445 7.547.858 1.797 1.907 3.503 2.877 5.247.085.152.213.28.611.333-.122-.943-.24-1.885-.366-2.826-.237-1.76-.486-3.519-.714-5.28-.165-1.277-.257-2.566-.47-3.835-.424-2.526-.107-5.028.085-7.546.16-2.098.141-4.21.22-6.314.065-1.732.225-3.463.216-5.194-.007-1.236-.331-2.471-.322-3.705.012-1.626.221-3.252.326-4.879.051-.782.033-1.569.097-2.35.171-2.099.421-4.192.544-6.294.162-2.792-.099-5.551-.906-8.245-.081-.273-.11-.562-.173-.899.794-.212 1.214.151 1.475.729.651 1.446 1.275 2.905 1.905 4.361 1.035 2.394 1.606 4.91 2.031 7.476.525 3.175 1.222 6.323 1.677 9.507.216 1.505.083 3.066.039 4.6-.09 3.068-.459 6.111-.306 9.206.164 3.323-.158 6.672-.844 9.949-.199.949-.688 1.843-1.086 2.744-.979 2.214-1.294 4.587-1.614 6.943-.242 1.787-.258 3.606-.355 5.411-.01.176.095.366.173.537.605 1.344 1.04 2.808 1.867 3.999 1.378 1.984 1.763 4.348 2.801 6.458.906 1.845 1.339 3.922 1.993 5.893.156.471.253 1.01.552 1.376 1.917 2.351 2.943 5.201 4.446 7.781.163.281.348.548.523.822.097-.035.194-.068.291-.101-.364-1.503-.744-3.002-1.087-4.51-.272-1.199-.392-2.444-.773-3.605-.406-1.238-.423-2.505-.582-3.76-.323-2.542-1.175-4.97-1.555-7.496-.072-.486.014-.998-.07-1.482-.342-1.945-.721-3.883-1.09-5.824-.065-.342-.24-.686-.212-1.017.138-1.641-.202-3.24-.365-4.854-.118-1.173-.253-2.346-.309-3.521-.04-.842.008-1.691.072-2.533.182-2.414.104-4.831.564-7.247.375-1.968.204-4.04.289-6.064.054-1.279.241-2.562.18-3.833-.168-3.468-.27-6.941-.837-10.382-.352-2.133-.726-4.291-.744-6.44a18.112 18.112 0 0 0-.903-5.539c-.12-.37-.324-.714-.431-1.086-.14-.479-.221-.975-.367-1.651 1.257.378 1.603 1.239 1.971 2.02 1.098 2.332 2.025 4.715 2.272 7.328.082.872.543 1.702.77 2.568.545 2.068 1.157 4.125 1.543 6.224.283 1.546.259 3.148.357 4.726.128 2.075-.12 4.203.59 6.2.673 1.895.422 3.825.475 5.749.071 2.584.012 5.18.255 7.748.114 1.214.368 2.426.377 3.658.016 2.216.166 4.425.129 6.649-.028 1.712-.533 3.414-.187 5.133.029.141.058.323-.005.435-.772 1.371-.56 2.896-.716 4.364a2.529 2.529 0 0 1-.14.575c-.957 2.686-.772 5.374.2 7.977.48 1.284.253 2.64.727 3.889.049.129.116.25.32.684.063-.524.15-.764.106-.975-.353-1.682-.388-3.341.085-5.02.212-.751.208-1.562.329-2.341.172-1.117.349-2.234.561-3.345.479-2.506.393-5.037.372-7.567-.003-.349-.026-.707.044-1.044.65-3.103.221-6.219.103-9.326-.044-1.174-.377-2.335-.515-3.509a24.73 24.73 0 0 1-.15-2.68c-.011-1.227.121-2.462.035-3.682-.111-1.572.288-3.046.617-4.54.477-2.165.512-4.417 1.354-6.511.919-2.284 1.895-4.555 2.656-6.894.638-1.962 1.443-3.863 1.893-5.907.38-1.726 1.238-3.357 1.968-4.993.868-1.942 1.372-3.921 1.13-6.068-.075-.664.017-1.348.035-2.162.986.302 1.441.764 1.461 1.614.05 2.14.144 4.279.142 6.418-.001 1.726-.311 3.472-.126 5.171.171 1.58.118 3.134.126 4.704.02 3.537-.195 7.035-1.09 10.49-.368 1.423-.331 2.951-.477 4.432-.024.246-.01.5-.067.737a61.77 61.77 0 0 0-1.678 11.731c-.108 2.41-.134 4.826-.275 7.234-.07 1.181-.363 2.349-.477 3.531-.334 3.478-1.374 6.773-2.656 9.985-1.042 2.613-2.436 5.092-3.372 7.736-.841 2.371-1.455 4.842-.586 7.439.372 1.109.456 2.346.487 3.529.052 1.968.76 3.645 1.806 5.272 2.512 3.902 4.849 7.907 6.673 12.19.193.455.451.89.724 1.303 1.301 1.957 2.65 3.884 3.914 5.863.582.912 1.003 1.923 1.512 2.881 1.298 2.447 2.61 4.885 3.902 7.333.641 1.215 1.586 2.253 2.037 3.584.102.305.384.597.659.786 1.634 1.125 2.792 2.65 3.915 4.259 1.084 1.553 2.398 2.945 3.611 4.407l.254-.155c-.048-.159-.059-.344-.147-.474-.949-1.389-1.923-2.76-2.861-4.155-1.325-1.971-2.607-3.971-3.941-5.934-.986-1.452-1.525-3.069-2.111-4.709-.893-2.505-2.119-4.891-3.185-7.336-.668-1.531-1.305-3.075-1.949-4.616-.095-.227-.136-.479-.241-.702-.841-1.799-1.706-3.588-2.537-5.391-.976-2.118-1.916-4.253-2.892-6.37-.584-1.266-.941-2.554-.93-3.976.006-.676-.434-1.343-.557-2.034-.387-2.202-.767-4.408-1.058-6.625-.192-1.465-.153-2.96-.351-4.423-.164-1.215-.539-2.4-.784-3.605-.104-.512-.118-1.042-.179-1.624 1.025-.197 1.562.207 1.895.972.477 1.095.962 2.188 1.407 3.295 1.034 2.569 2.099 5.128 3.056 7.726 1.12 3.043 2.549 5.932 4.1 8.77.405.74.701 1.538 1.082 2.291.123.244.365.428.671.774.113-.32.237-.49.215-.639-.425-3.023-.813-6.05-.965-9.103-.181-3.671-1.01-7.213-1.891-10.776-.863-3.49-2.575-6.666-3.381-10.145-.435-1.879-.662-3.806-.995-5.709-.193-1.104-.418-2.202-.61-3.305-.118-.676-.2-1.358-.297-2.036-.368-2.568-.487-5.195-1.958-7.486-.199-.311-.109-.808-.17-1.386 1.042.269 1.788.525 2.11 1.44.431 1.224.947 2.393 1.89 3.344.254.257.327.708.453 1.08.955 2.812 1.966 5.607 2.829 8.447.574 1.887 1.38 3.708 1.436 5.759.038 1.399.744 2.698 1.279 3.996.701 1.703 1.327 3.382 1.097 5.305-.108.905.244 1.856.273 2.79.02.657.176 1.283.016 2.001-.251 1.128-.271 2.36-.114 3.511.232 1.698-.501 3.208-.653 4.821-.041.435-.153.882-.096 1.305.36 2.697.71 5.397 1.164 8.079.231 1.353.698 2.665 1.009 4.007.143.616.131 1.265.257 1.885.077.379.231.765.439 1.091 1.012 1.587 2.055 3.155 3.227 4.943-.086-.92-.071-1.68-.239-2.399-.54-2.3-.915-4.62-1.189-6.967-.164-1.404-.115-2.765.023-4.165.099-1.004-.185-2.048-.315-3.071-.263-2.063-.771-4.126-.742-6.183.03-2.212-.35-4.376-.362-6.573-.026-4.533.866-10.714 2.099-14.277.625-1.805 1.176-3.634 1.774-5.449.383-1.164.806-2.316 1.18-3.483.229-.716.175-1.505.794-2.113.229-.224.208-.754.21-1.144.019-3.075.871-5.948 2.049-8.751.803-1.91 1.651-3.806 2.334-5.76.383-1.096.45-2.3.699-3.448a34.39 34.39 0 0 1 .634-2.398c.082-.281.196-.605.404-.779.243-.204.629-.401.909-.351.253.045.576.395.639.666.133.573.196 1.187.151 1.773-.219 2.774-.482 5.543-.735 8.313-.031.347-.205.718-.128 1.032.417 1.702-.161 3.317-.349 4.968-.051.439 0 .89-.027 1.334-.13 2.108-.138 4.234-.439 6.318-.378 2.624-.982 5.218-1.517 7.818-.375 1.825-.833 3.632-1.179 5.461-.124.657-.007 1.356-.041 2.033a27.321 27.321 0 0 1-.187 2.193c-.189 1.471-.422 2.937-.614 4.408-.096.738-.178 1.48-.204 2.223-.07 1.923-.067 3.849-.163 5.771-.086 1.712-.357 3.417-.376 5.127-.015 1.308.349 2.619.342 3.928-.011 2.252.256 4.483-.284 6.767-.575 2.439-1.105 4.896-1.698 7.337-.326 1.339-.625 2.69-.831 4.052-.066.426.087 1.005.356 1.34.93 1.157 1.021 2.651 1.694 3.916.67 1.258 1.028 2.679 1.584 4.003 1.089 2.596 1.141 5.41 1.743 8.108.145.655.079 1.381-.013 2.057-.281 2.085-.074 4.19.462 6.14.45 1.638.773 3.42 2.153 4.795 1.139 1.134 1.868 2.677 2.809 4.017.417.595.91 1.137 1.529 1.902-.155-1.783-.347-3.299-.405-4.82-.061-1.575.046-3.156.009-4.733-.022-.919-.253-1.834-.262-2.752-.012-1.276.089-2.554.156-3.83.021-.394.172-.794.123-1.173-.245-1.919-.536-3.831-.814-5.745-.057-.39-.151-.775-.188-1.166-.205-2.223-.36-4.45-.605-6.669-.249-2.249-.64-4.483-.861-6.734-.219-2.226-.049-4.446.455-6.632-.546-1.778.499-3.524-.008-5.368-.394-1.433-.152-3.028-.313-4.539-.153-1.434.127-2.894-.476-4.315a24.914 24.914 0 0 1-1.446-4.489c-.255-1.192-.23-2.459-.213-3.691.027-2.022.123-4.045.245-6.063.038-.628.273-1.242.386-1.868.061-.337.12-.696.067-1.027-.218-1.369-.51-2.727-.702-4.099-.046-.327.185-.694.289-1.041.363.173.942.259 1.051.534.45 1.131.808 2.306 1.104 3.489.431 1.72.801 3.457 1.152 5.195.186.92.123 1.917.443 2.78.791 2.132.936 4.406 1.619 6.564.668 2.113 1.245 4.285 1.544 6.475.213 1.556.809 3.04.698 4.684-.07 1.033.483 2.1.711 3.162.374 1.75.419 3.517.384 5.31a49.841 49.841 0 0 1-.387 5.125c-.105.861.195 1.772.1 2.636-.205 1.841-.13 3.694-.303 5.525-.188 2.01-.652 3.997-1.05 5.984a203.562 203.562 0 0 1-1.5 6.949c-.237.997-.795 1.901-.658 3.004.187 1.512.277 3.037.54 4.568.543-1.237 1.141-2.39 1.436-3.715.36-1.617 1.136-3.137 1.608-4.737.377-1.277.566-2.611.843-3.919.165-.778.323-1.559.507-2.333.783-3.299 1.537-6.605 2.381-9.887.32-1.241.848-2.428 1.298-3.634.32-.854.912-1.687.948-2.547.067-1.576 1.089-2.629 1.742-3.866a250.254 250.254 0 0 0 3.632-7.114c.967-1.985 1.846-4.05 3.083-5.862 2.47-3.622 4.944-7.253 8.232-10.254 1.329-1.213 2.337-2.782 3.1-4.467.257-.57.698-1.057 1.038-1.593 1.16-1.829 2.294-3.675 3.488-5.483.18-.273.624-.372 1.099-.637-.206 2.161-.114 4.222-.651 6.103-.804 2.812-1.6 5.656-3.101 8.245-1.165 2.011-2.148 4.139-3.07 6.276-.718 1.667-1.198 3.436-1.822 5.145-.719 1.965-1.466 3.922-2.562 5.717-1.318 2.153-2.622 4.316-3.997 6.432-.645.995-1.433 1.899-2.174 2.829-1.121 1.408-1.867 3.017-2.635 4.628-.915 1.92-2.005 3.756-2.945 5.664-.851 1.725-1.969 3.296-2.699 5.101-.548 1.354-1.428 2.581-2.215 3.83-.603.958-1.307 1.852-1.933 2.796-.244.369-.424.789-.584 1.204a294.053 294.053 0 0 0-1.716 4.561c-.598 1.631-1.523 3.125-1.905 4.852-.344 1.55-.132 3.052.339 4.492.567 1.736 1.324 3.408 2.014 5.103.591 1.448 1.203 2.887 1.806 4.331.077.183.149.37.239.548 1.045 2.088 2.107 4.169 3.134 6.265.473.965.867 1.967 1.323 2.941.209.447.437.899.734 1.289a146.32 146.32 0 0 0 3.025 3.826c.284.349.327.586-.174.896-.218-.208-.472-.409-.678-.652-1.641-1.943-3.317-3.873-4.48-6.154-.717-1.404-1.26-2.896-1.916-4.332-.366-.801-.794-1.574-1.219-2.347-.052-.096-.254-.111-.647-.266.671 1.565 1.299 2.92 1.823 4.315.19.506.883 1.066.105 1.664l.007-.01c-.285-.637-.569-1.275-.853-1.914l-.281.114c.825 3.686 2.925 6.942 3.989 10.547l-.341.136c-.138-.248-.313-.482-.409-.746-.968-2.657-2.356-5.13-3.195-7.86-.619-2.016-1.85-3.841-2.777-5.766-.407-.845-.717-1.736-1.104-2.591-.747-1.646-1.685-3.098-3.348-4.042-1.401-.796-2.451-2.105-4.044-2.692-2.364-.872-4.7-1.105-7.111-.294-.895.301-1.785.702-2.707.813-1.346.162-2.37.951-3.52 1.495-.661.314-1.276.724-1.939 1.031-1.162.537-2.315 1.128-3.529 1.514-1.641.525-3.338.871-5.008 1.306-.671.175-1.347.347-1.999.578-1.399.494-2.803.346-4.21.096-1.174-.208-2.334-.522-3.516-.644-2.826-.292-5.338-1.456-7.839-2.673-.404-.196-.785-.459-1.206-.6-1.549-.519-2.112-1.874-2.715-3.178-.118-.258-.086-.765.09-.927.164-.151.648-.082.925.039.813.357 1.563.887 2.399 1.161.87.284 1.811.47 2.724.485 1.988.033 3.979-.115 5.969-.1 1.087.008 2.194.095 3.253.325 2.485.54 4.961.847 7.509.52 1.664-.215 3.353-.227 5.024-.394a41.452 41.452 0 0 0 8.128-1.653c.323-.099.661-.151 1.102-.251-.416-1.272-1.53-1.333-2.379-1.346-1.642-.028-3.259-.158-4.864-.465-1.151-.222-2.285-.542-3.439-.748-.869-.156-1.771-.138-2.636-.307-1.748-.342-3.483-.758-5.222-1.143-.292-.065-.602-.226-.875-.177-2.685.48-4.972-1.191-7.531-1.372-.19-.014-.377-.111-.563-.179-1.844-.68-3.678-1.393-5.539-2.029-1.023-.351-2.119-.499-3.132-.871-1.92-.707-3.805-1.508-5.704-2.27-1.723-.691-3.452-1.369-5.166-2.081-.637-.266-1.236-.624-1.863-.918-.842-.395-1.694-.765-2.539-1.152-.225-.103-.477-.191-.653-.355-1.055-.987-2.429-1.248-3.722-1.72-1.129-.412-2.205-.967-3.307-1.455-.947-.42-1.867-.948-2.856-1.21-.747-.197-.992-.676-1.41-1.321.697-.212 1.262-.34 1.899-.233 1.029.17 2.079.217 3.099.426 2.035.418 4.061.886 6.081 1.376a393.82 393.82 0 0 1 6.921 1.761c1.004.263 1.992.588 2.991.871 3.092.875 6.27 1.469 9.207 2.844.179.084.361.257.531.243 1.92-.152 3.576.797 5.302 1.351a29.474 29.474 0 0 1 4.288 1.768c1.784.903 3.737 1.468 5.602 2.214 2.051.821 4.113 1.621 6.118 2.545 2.006.924 3.939 2.001 5.921 2.981.345.17.761.229 1.151.271 2.319.247 4.649.403 6.954.73 1.671.236 3.31.694 4.965 1.039.813.169 1.633.305 2.68.499-.469-.917-.724-1.749-1.239-2.361-1.679-1.99-2.543-4.352-3.37-6.755-.299-.873-.621-1.767-1.113-2.536-.353-.553-.938-1.087-1.541-1.328-1.954-.782-3.915-1.581-6.029-1.872-1.437-.197-2.866-.447-4.296-.686-1.203-.201-2.454-.1-3.68-.186-.776-.055-1.547-.199-2.318-.315-2.458-.371-4.936-.649-7.364-1.161-1.144-.241-2.286-.629-3.41-1.052-2.761-1.041-5.635-1.632-8.595-1.948-1.632-.174-3.38-.142-4.902-1.091-.467-.292-1.16-.219-1.748-.326-3.05-.553-5.808-1.931-8.66-3.052-2.015-.793-3.944-1.78-5.938-2.622-2.133-.903-4.062-2.275-6.125-3.355-1.603-.84-3.118-1.864-4.887-2.376-.361-.103-.638-.471-.992-.626-1.493-.654-3.022-1.23-4.495-1.924-.93-.438-1.821-.985-2.67-1.569-3.417-2.349-6.645-4.94-9.807-7.622-1.846-1.566-3.054-3.621-4.503-5.491-.258-.333-.239-.88-.386-1.48 1.767.199 3.082.961 4.235 1.819 3.658 2.722 7.644 4.86 11.702 6.883 2.739 1.366 5.477 2.75 8.291 3.948 2.509 1.068 5.153 1.815 7.683 2.84 2.847 1.154 5.61 2.512 8.455 3.674 1.167.477 2.46.64 3.677 1.006.638.192 1.229.718 1.853.738 2.043.07 3.927.772 5.851 1.293 1.893.514 3.74 1.198 5.613 1.787 1.639.516 3.286 1.006 4.93 1.505.472.144.953.262 1.421.416 1.713.565 3.403 1.22 5.142 1.686 1.746.468 3.545.738 5.315 1.118 1.167.251 2.327.543 3.575.837.012-.607-.588-.734-.991-.979-1.552-.94-3.161-1.795-4.673-2.794-1.07-.707-2.399-.991-3.239-2.082-.827-1.076-1.924-1.776-3.205-2.284-.706-.28-1.233-.982-1.898-1.404-1.762-1.12-3.573-2.163-5.329-3.293-.993-.641-1.895-1.423-2.872-2.09-1.235-.84-2.464-1.701-3.772-2.413a15.18 15.18 0 0 1-2.74-1.931c-1.15-1-2.443-1.837-3.687-2.727-1.363-.977-2.668-2.065-4.129-2.865-1.943-1.067-4.024-1.878-6.025-2.843-1.425-.687-2.816-1.443-4.22-2.174-.477-.249-.93-.554-1.422-.769-2.138-.937-4.295-1.83-6.423-2.785-.63-.282-1.185-.726-1.784-1.081-.686-.406-1.349-.873-2.081-1.174-2.259-.933-4.23-2.337-6.209-3.725-1.043-.733-1.984-1.608-2.997-2.385-1.913-1.468-3.881-2.865-5.757-4.376-1.84-1.481-3.542-3.119-5.242-4.768-1.511-1.467-2.267-3.462-3.848-4.854-1.101-.969-2.053-2.106-3.089-3.186.231-.751.607-1.068 1.327-.652.471.273.926.574 1.391.859 3.382 2.07 6.685 4.234 9.699 6.849 1.831 1.589 4.04 2.739 5.895 4.304 2.105 1.776 4.729 2.452 7.054 3.745 2.214 1.231 4.553 2.24 6.742 3.509 1.611.933 3.065 2.137 4.598 3.205 1.446 1.008 2.969 1.917 4.343 3.014 1.815 1.449 3.516 3.042 5.274 4.563.365.317.778.579 1.148.893.833.708 1.868 1.296 2.427 2.181 1.022 1.617 2.727 2.382 3.991 3.667 2.089.457 3.172 2.624 5.262 3.103.304.069.524.451.822.613.498.272 1.03.482 1.547.717 1.048 1.367 2.521 2.195 3.944 3.079.443.275.95.45 1.427.671-.235-.429-.59-.665-.937-.913-.604-.433-1.286-.795-1.781-1.329-.741-.796-1.591-1.325-2.62-1.607z" fill="#687E6B"/></g><defs><clipPath id="a"><path fill="#fff" d="M0 0h163v204H0z"/></clipPath></defs></svg>