<svg width="108" height="204" fill="none" xmlns="http://www.w3.org/2000/svg"><g clip-path="url(#a)"><path fill-rule="evenodd" clip-rule="evenodd" d="M22.904 186.404c.03-.187.006-.405.096-.555 1.139-1.897 2.285-3.787 3.749-5.465a48.212 48.212 0 0 0 2.071-2.59c.178-.235.233-.564.396-.98-.736-.206-1.359-.269-1.996-.33-2.107-.202-4.054-.905-5.88-1.962-.565-.326-1.139-.633-1.708-.952a11.53 11.53 0 0 1-3.285-2.712c-2.826-3.396-5.714-6.74-8.538-10.137-.746-.896-1.383-1.889-2.004-2.879-.553-.881-1.081-1.79-1.501-2.74-.63-1.425-1.276-2.861-1.697-4.354a88.565 88.565 0 0 1-1.761-7.399c-.341-1.783-.426-3.615-.62-5.426-.035-.323.015-.666-.074-.97-.471-1.607.225-2.9 1.009-4.213.455-.763 1.068-1.103 1.901-1.137 3.937-.162 7.626.785 11.072 2.629 1.602.858 3.082 1.92 4.232 3.395.554.711 1.229 1.347 1.926 1.924 1.612 1.336 3.092 2.78 4.277 4.521.51.749 1.139 1.415 1.675 2.149 1.274 1.745 2.282 3.614 2.835 5.731.493 1.888 1.085 3.753 1.692 5.608.828 2.525.81 5.124.776 7.729a101.09 101.09 0 0 1-.349 7.362c-.011.119.066.245.142.503.567-.31.675-.912 1.005-1.312.33-.4.588-.859.878-1.292.942-1.405 1.898-2.801 2.82-4.219.46-.707.806-1.493 1.296-2.176a44.914 44.914 0 0 0 4.073-6.852c.102-.212.336-.36.511-.538.424.263.511.224.915-.313l-.918.275c-.018-.116-.065-.245-.025-.332 1.243-2.672 2.496-5.339 3.757-8.003.042-.087.164-.135.261-.196.131-1.124.392-2.184 1.429-2.864-.324 1.029-.705 2.031-1.395 2.881l-.004.841c1.47-1.727 2.92-4.109 3.181-5.842-1.031.276-1.321 1.172-1.749 1.94l.623-2.465c-1.435-1.411-2.862-2.826-4.303-4.225-.896-.869-1.922-1.258-3.205-.961-1.012.233-2.043.307-3.08-.056-.453-.159-.99-.242-1.573-.046.1.204.137.404.256.499.304.242.625.477.974.643 2.875 1.374 5.76 2.728 8.637 4.097.346.165.662.39 1.226.727-.461.1-.713.242-.889.178-.732-.267-1.484-.523-2.152-.915-2.139-1.254-4.3-2.452-6.627-3.329a3.854 3.854 0 0 1-.869-.439c-2.61-1.841-5.181-3.729-7.25-6.204-1.209-1.448-2.457-2.864-3.635-4.337-1.069-1.336-1.605-2.965-2.302-4.501-.322-.71-.577-1.452-.918-2.152-.639-1.317-.9-2.676-.887-4.154.021-2.534-.188-5.069-.169-7.604.016-2.009.033-4.054.407-6.015.378-1.979 1.234-3.819 3.117-4.984.987-.611 1.966-.789 2.933-.242 1.639.927 3.436 1.597 4.88 2.852.735.64 1.541 1.242 2.121 2.008 1.215 1.602 2.527 3.127 3.408 4.986 1.42 2.997 3.068 5.886 4.499 8.878.612 1.279.956 2.692 1.355 4.064.327 1.123.527 2.283.832 3.414.661 2.454 1.405 4.887 2.013 7.354.388 1.577.572 3.203.884 4.801.248 1.27.552 2.53.817 3.734.602.122.641-.263.789-.522 2.668-4.671 4.293-9.751 5.846-14.863.814-2.679 1.707-5.332 2.559-7.999.158-.495.358-.989.425-1.498.29-2.202.717-4.367 1.64-6.504-2.869-1.221-5.453-2.836-8.369-3.763-.982-.312-1.926-.816-2.802-1.369-1.926-1.214-3.794-2.519-5.689-3.781-1.593-1.06-2.84-2.41-3.886-4.036-1.837-2.855-3.4-5.852-4.841-8.91-1.211-2.571-1.782-5.337-1.477-8.179.158-1.472.604-2.929 1.059-4.348.361-1.127.647-2.235.698-3.426.036-.838.205-1.686.434-2.496.341-1.217 1-2.189 2.153-2.88.868-.519 1.68-.595 2.605-.408 1.981.401 3.568 1.541 5.144 2.707 2.772 2.05 4.787 4.737 6.523 7.671.629 1.063 1.33 2.083 1.994 3.125.246.385.527.755.711 1.167 1.059 2.382 2.279 4.676 3.771 6.815 1.625 2.329 2.051 5.01 2.402 7.739.384 2.976.595 5.953.494 8.953-.008.246.077.495.162 1a6.846 6.846 0 0 0 1.043-2.259c.8-2.952 1.623-5.901 2.296-8.884.443-1.964.645-3.982.952-5.977.417-2.701.857-5.399 1.235-8.106.18-1.287.215-2.593.354-3.886.273-2.524.579-5.044.855-7.567a8.203 8.203 0 0 0 .042-1.558c-.027-.316-.231-.588-.62-.586l.063.911c-2.188.363-4.11-.238-5.957-1.06-1.485-.663-2.911-1.465-4.337-2.253-2.36-1.306-4.255-3.212-6.242-4.987-.514-.458-.928-1.116-1.18-1.764-1.591-4.094-2.624-8.327-2.742-12.733-.051-1.876-.009-3.775.237-5.632.167-1.268.723-2.494 1.185-3.708.118-.31.503-.603.831-.728.414-.158.92-.254 1.344-.171 1.79.354 3.6.711 4.87 2.214.546.646.992 1.398 1.618 1.948 1.146 1.007 1.722 2.38 2.532 3.601.826 1.246 1.677 2.486 2.373 3.805a107.241 107.241 0 0 1 3.251 6.662c.549 1.241.856 2.589 1.254 3.895.171.56.26 1.146.446 1.7.46 1.365.798 2.748.906 4.192.048.632.25 1.254.379 1.862.581-.045.621-.411.659-.708.206-1.614.4-3.23.57-4.847.464-4.408.387-8.835.421-13.258.012-1.493.011-2.987.016-4.417-1.124-.964-2.177-1.821-3.172-2.74-.616-.569-1.253-1.167-1.688-1.87-1.19-1.919-2.782-3.613-3.378-5.874a2.306 2.306 0 0 0-.203-.549c-1.193-2.135-1.327-4.463-1.255-6.828.043-1.432.087-2.863.162-4.293.033-.649.141-1.293.213-1.94.074-.643.131-1.289.222-1.93.073-.51.12-1.038.295-1.516.757-2.076 1.553-4.139 2.345-6.202a9.653 9.653 0 0 0 .529-2.059c.171-1.145.534-2.278.945-3.368.372-.988 1.595-1.917 3.042-1.271 1.758.783 3.327 1.75 4.389 3.423 1.36 2.146 2.743 4.26 3.563 6.708.702 2.095 1.618 4.118 2.43 6.177.19.483.413.97.502 1.476.662 3.785 1.194 7.587 1.191 11.438-.002 2.112-.447 4.149-1.518 5.988-.418.72-.939 1.433-1.569 1.964-.835.703-1.863 1.172-2.732 1.841-.865.666-1.8.973-2.953.86-.083.376-.205.678-.207.98-.003.709.106 1.421.068 2.127-.065 1.239.024 2.457.203 3.684.386 2.649.423 5.305.051 7.966-.432 3.088-.822 6.181-1.232 9.279.867-.136 2.279-.938 2.891-1.656.338-.397.668-.803.968-1.228 2.555-3.611 4.989-7.314 7.687-10.814 1.967-2.551 4.592-4.418 7.623-5.611 1.451-.571 2.929-1.025 4.509-1.208 1.14-.133 2.295-.407 3.37-.932.631-.309 1.358-.423 1.973-.605 1.004.368 1.33 1.085 1.508 1.968.368 1.823.184 3.633-.078 5.436a35.115 35.115 0 0 1-.682 3.447c-.285 1.136-.649 2.248-1.389 3.203-1.434 1.852-2.77 3.792-4.56 5.333-.885.762-1.826 1.464-2.779 2.144a82.055 82.055 0 0 1-3.559 2.401c-.433.276-.949.422-1.422.638-.646.293-1.276.628-1.936.886-.663.26-1.341.517-2.036.654-1.848.366-3.735.465-5.586.887-1.25.285-2.583.127-3.822-.437-.876-.398-1.802-.688-2.797-1.06-.135.444-.268.738-.31 1.043-.221 1.613-.415 3.228-.625 4.842-.059.451-.115.904-.214 1.347-.486 2.157-1.013 4.305-1.474 6.467-.733 3.44-1.23 6.917-1.382 10.432-.072 1.693-.246 3.36-.459 5.041-.255 2.025-.9 3.929-1.331 5.896-.124.567-.376 1.107-.575 1.658-.352.973-.637 1.959-.749 3.009 1.046-.044 1.601-.346 2.691-.967 3.307-1.885 5.581-4.824 8.028-7.61 2.494-2.841 4.505-6.054 7.017-8.881 2.343-2.638 4.876-5.025 7.704-7.154 2.074-1.561 4.336-2.613 6.725-3.49.244-.09.492-.22.743-.235 2.102-.127 4.025-1.013 6.066-1.404 1.193-.228 2.335-.009 3.476.204.734.137 1.189.659 1.472 1.411.766 2.033.711 4.128.348 6.172-.466 2.623-1.268 5.175-2.182 7.691-.766 2.111-2.315 3.601-3.851 5.083a43.6 43.6 0 0 1-8.396 6.312c-1.175.682-2.463 1.175-3.714 1.721-1.014.444-2.034.885-3.08 1.241-1.04.353-2.084.675-3.178.896-1.311.264-2.634.567-3.915 1.12-1.274.549-2.783.624-4.203.745-2.396.203-4.802.281-7.204.402-.256.013-.517-.029-.774-.059-1.47-.169-2.94-.341-4.465-.519-.609.614-.775 1.468-1.147 2.211-.154.307-.384.575-.588.856-.017.441.043.904-.073 1.317-.919 3.254-1.701 6.551-3.117 9.648-.511 1.12-.99 2.269-1.124 3.523-.034.319-.158.63-.25.942-.701 2.369-1.385 4.742-2.116 7.101-.267.862-.667 1.682-.969 2.535-.357 1.011-1.055 1.924-.996 3.151.533-.157.99-.229 1.39-.42 4.049-1.925 8.112-3.823 12.014-6.042a12.045 12.045 0 0 0 2.635-1.994c.96-.973 1.905-1.96 2.867-2.932 2.8-2.828 5.81-5.403 9.257-7.419.893-.523 1.877-.892 2.819-1.333.882-.414 1.752-.857 2.648-1.242 2.448-1.051 4.893-2.097 7.273-3.311 1.444-.736 3.044-1.014 4.71-.305 1.34.571 2.193 1.625 2.441 2.853.656 3.25 1.062 6.556.305 9.868-.099.437-.289.857-.463 1.275-.123.297-.452.606-.405.857.149.812-.389 1.225-.873 1.6-.644.499-1.092 1.106-1.425 1.823-.848 1.826-2.245 3.196-3.841 4.328-2.822 2.003-5.853 3.636-9.158 4.718-1.235.404-2.341 1.093-3.568 1.547-2.085.771-4.251 1.199-6.358 1.858-1.673.523-3.34 1.11-5.131 1.119a1.62 1.62 0 0 0-.568.134c-2.686 1.058-5.407.727-8.057-.002-3.07-.845-6.081-1.907-9.11-2.894-.426-.139-.816-.388-1.21-.58-.975 1.076-3.097 4.835-3.437 6.078-.442 1.62-1.161 3.099-2.21 4.412.024-.268.017-.546.104-.791.333-.934.705-1.855 1.062-2.781-.165.089-.416.137-.484.273a82.315 82.315 0 0 0-1.51 3.264c-.061.14.057.358.093.54l.687-.403c-.009.176.021.379-.066.501-1.478 2.091-2.358 4.49-3.493 6.757-.175.35-.29.733-.498 1.06a466.378 466.378 0 0 1-3.28 5.072c-.993 1.515-1.811 3.126-2.691 4.645.296.411.531.204.727.099 2.229-1.198 4.291-2.687 6.578-3.788.35-.169.706-.354 1.002-.6.862-.717 1.841-1.214 2.852-1.674.469-.212.939-.466 1.33-.795.408-.345.788-.623 1.352-.678.371-.037.725-.272 1.081-.43 1.898-.847 3.752-1.815 5.703-2.515 1.949-.699 3.965-1.266 6.069-1.347 3.303-.127 6.606-.254 9.909-.377.324-.012.662-.057.971.013 3.369.753 6.845.76 10.223 1.485 1.917.412 3.557 1.213 4.883 2.652.219.238.434.481.634.735 1.237 1.563 1.297 3.154.237 4.864-.818 1.319-1.453 2.735-2.51 3.921a18.396 18.396 0 0 1-3.347 2.97c-.582.398-1.327.578-1.66 1.301-.047.101-.184.186-.297.228-1.58.591-3.166 1.164-4.744 1.758-1.728.649-3.54.845-5.355 1.003-2.203.191-4.41.325-6.614.503-1.354.109-2.704.287-4.059.378-4.658.313-9.205-.364-13.687-1.59-1.253-.343-2.535-.598-3.65-1.321a1.012 1.012 0 0 0-.371-.12c-2.972-.531-5.689-1.836-8.518-2.803-.302-.103-.626-.142-1.039-.232-.532.543-1.144 1.042-1.6 1.658-2.017 2.718-3.907 5.521-5.46 8.539-1.102 2.139-2.192 4.285-3.648 6.221-1.823 2.422-2.842 5.245-3.937 8.029a16.7 16.7 0 0 1-1.024 2.09c-.103.181-.438.353-.635.323-.188-.029-.461-.316-.478-.509-.13-1.425-.173-2.855.159-4.263.055-.237.213-.471.377-.661.935-1.079 1.634-2.302 2.295-3.559.388-.739.908-1.408 1.369-2.108.109-.367.14-.785.34-1.092 1.16-1.783 2.359-3.54 3.545-5.306zm19.019-29.639-.043-.027.04-.011.005.035-.002.003zm2.054-1.5a2.06 2.06 0 0 1-.008.078l-.04.024.003-.046.045-.056zm-24.762 37.63c-.375.818-.717 1.653-1.131 2.451-.566 1.092-1.12 2.2-1.801 3.22-.815 1.221-1.025 2.231-.499 4.009.295-.721.527-1.32.783-1.909.727-1.666 1.378-3.372 2.224-4.976.724-1.374 1.711-2.607 2.517-3.941.905-1.5 1.735-3.045 2.601-4.569.641-1.129 1.279-2.26 1.931-3.383.603-1.036 1.223-2.062 1.84-3.1-.396-.17-.538.102-.677.296-.719 1.005-1.417 2.024-2.13 3.033-.592.837-1.015 1.808-1.896 2.418-.138.483-.172 1.034-.43 1.441-1.074 1.693-2.216 3.344-3.332 5.01zm26.41-42.962-.365.952c.314-.243.526-.526.365-.952zm-14.397 25.235c.515-.203.808-.225.927-.381a20.5 20.5 0 0 0 1.204-1.771c.917-1.497 1.791-3.021 2.722-4.509 1.139-1.82 2.332-3.605 3.469-5.426.21-.336.469-.737.239-1.436-.47.64-.839 1.081-1.14 1.564-.685 1.103-1.21 2.33-2.025 3.32-1.917 2.33-3.357 4.954-4.918 7.506-.156.255-.238.555-.478 1.133zm17.315-3.715-.077-.248c-1.224.361-2.449.72-3.671 1.091-.053.017-.074.142-.156.308l3.904-1.151zm1.292-.458-.021-.118-.143.092.164.026zm23.822-8.177c-1.759-.581-3.09-.716-4.449-.638-1.876.107-3.758.365-5.625.283-1.322-.058-2.398.398-3.522.877-.236.101-.442.272-.668.399-2.834 1.582-5.322 3.677-8.047 5.421-.155.099-.2.371-.384.739 1.625-.232 3.028-.498 4.444-.618 1.54-.131 3.093-.126 4.64-.18 1.124.707 1.931.082 2.766-.61.693-.575 1.353-1.246 2.287-1.429 1.509-.295 2.759-1.109 3.987-1.959 1.285-.887 2.579-1.745 4.571-2.285zm-43.918 11.004c-1.08-2.486-2.024-4.682-3.543-6.515-1.697-.17-3.293-.474-4.927-.127a3.59 3.59 0 0 1-1.728-.088c-1.55-.475-3.069-1.053-4.603-1.585-.367-.128-.735-.272-1.115-.338-.305-.053-.661-.061-.763.468.149.213.315.491.521.736 1.176 1.389 2.343 2.787 3.551 4.148 1.002 1.13 2.212 2.014 3.555 2.701.339.173.737.377 1.093.353 2.219-.152 4.405.197 6.604.354.367.026.741-.055 1.355-.107zm5.218.496.193.31c.684-.202 1.375-.383 2.049-.614.36-.124.759-.265 1.019-.522.672-.66 1.277-1.389 1.907-2.091-.478.002-.792.197-1.099.403-.324.217-.63.463-.964.663-.39.234-.801.433-1.205.645-.345.181-.706.338-1.035.546-.305.192-.578.438-.865.66zM3.894 152.144c.285.767.401 1.134.555 1.485 1.617 3.683 4.104 6.778 6.697 9.791.641.745 1.444 1.304 2.554 1.203.366-.033.76.145 1.13.262 1.425.455 2.859.885 4.261 1.404.702.259 1.418.339 2.107.226.981-.162 1.944-.084 2.916-.06.496.012.991.009 1.545.014-.086-.292-.098-.493-.195-.637-1.713-2.526-3.464-5.026-5.147-7.572-1.289-1.95-3.122-2.837-5.38-3.038-2.403-.216-4.734-.78-7.01-1.561-1.219-.418-2.413-.905-4.033-1.517zm-2.121-18.56c1.228 1.005 2.338 2.001 3.539 2.871 1.241.898 1.999 2.344 3.556 3.179-.085-.381-.097-.56-.165-.714-.526-1.185-1.117-2.343-1.581-3.551-.386-1.006-.947-1.831-1.795-2.489-.754-.586-1.621-.248-2.495-.402l-1.059 1.106zm-.345 7.551c.452 3.403 1.235 6.791 2.226 10.202 1.563.621 3.039 1.303 4.576 1.793a57.315 57.315 0 0 0 5.459 1.43c1.069.228 2.188.222 3.285.316.047.004.114-.03.146-.068.04-.048.053-.118.112-.257-.204-.272-.403-.608-.668-.881-1.942-2.006-2.921-4.587-4.152-7.009-.827-1.626-1.668-3.227-2.793-4.73-.417-.099-.886-.134-1.288-.316-1.64-.74-3.392-.842-5.14-.979-.586-.046-1.159-.012-1.763.499zm17.166 12.156.334-.104c-.074-.887-.12-1.778-.23-2.661-.303-2.445-.395-4.932-1.521-7.212a3.76 3.76 0 0 1-.36-1.514c-.048-1.897-.94-3.505-1.735-5.132-.552-1.129-1.38-2.038-2.65-2.456-1.422-.467-2.82-1.007-4.241-1.476-.719-.237-.732-.197-1.856.07.274.45.577.864.794 1.319.841 1.754 1.656 3.52 2.475 5.284.077.166.169.361.15.53-.104.929.392 1.603.881 2.306 1.486 2.132 2.915 4.304 4.427 6.418 1.128 1.577 2.351 3.087 3.532 4.628zm66.277 12.002c-.698-.476-1.026-.788-1.416-.951-1.699-.707-3.508-.957-5.317-1.167-.769-.089-1.565-.187-2.323-.084-2.152.294-4.182.965-5.965 2.267-.578.422-1.165.84-1.789 1.187-.733.409-1.482.829-2.276 1.077-.89.278-1.69.637-2.427 1.391 1.623.3 3.173.066 4.71.017a9.86 9.86 0 0 0 2.673-.475c1.559-.5 3.137-.827 4.759-1.026 1.096-.134 2.245-.238 3.245-.655 1.852-.771 3.681-1.539 6.126-1.581zm-63.065-6.61.027.024c.047.167.086.339.147.501.022.058.1.094.151.14-.032-.053-.075-.101-.097-.159-.061-.159-.115-.322-.172-.484l-.056-.022zm-.656-.911-.024-.093c-.309-.484-.587-.991-.933-1.447-1.325-1.748-2.67-3.481-4.011-5.217-.502-.649-.895-1.401-1.855-1.981.202.578.261.971.458 1.275 1.725 2.658 3.932 4.929 5.96 7.344.054.065.241.02.366.027l.039.092zm20.166 18.775c.218.068.477.1.612.246a15.3 15.3 0 0 1 1.35 1.646c1.1 1.579 2.675 2.435 4.476 2.854 1.83.426 3.694.706 5.547 1.032.316.055.648.019.972.025.843.016 1.686.073 2.527.039a77.696 77.696 0 0 0 4.259-.275c.804-.077 1.597-.281 2.505-.448-.451-.684-1.006-.984-1.571-1.31-2.254-1.3-4.407-2.762-6.193-4.667-1.886-2.01-4.364-2.726-6.883-3.392-.293-.078-.64.019-.959.059-2.347.294-4.4 1.457-6.575 2.256-.386.142-.709.457-1.057.689.372.467.683.857.99 1.246zm-.046.004c-.218-.057-.458-.085-.632-.206-1.04-.718-2.094-.895-3.296-.365-.511.227-1.136.196-1.707.294-.255.044-.516.091-.753.189-.202.085-.559.033-.513.423.089.102.152.24.255.281 1.86.748 3.706 1.53 5.676 1.978.81.184 1.568.584 2.359.859.33.115.653.466 1.044.121-.034-.114-.04-.242-.102-.33-.772-1.084-1.553-2.163-2.331-3.244zM8.888 141.158c-1.943-2.902-4.576-4.375-6.842-6.252-.167-.139-.462-.125-.82-.212-.18 1.888-.38 3.66.277 5.499 2.428-.199 4.781-.094 7.385.965zm50.879 21.566c-4.489.702-8.615 2.44-12.593 4.549-2.306 1.223-4.22 3.03-6.382 4.476-.661.441-.627.491-1.064 1.459.113.037.245.133.335.103 1.356-.457 2.709-.924 4.058-1.401 1.411-.499 2.797-1.076 4.231-1.495.785-.23 1.423-.562 1.971-1.165.929-1.023 2.076-1.766 3.299-2.396.345-.178.713-.335 1.013-.575 1.616-1.293 3.23-2.587 5.132-3.555zm-36.656 11.452c2.101 1.146 4.319 1.512 6.613 1.83.119-.261.246-.483.316-.721.03-.102-.019-.292-.099-.349-.203-.145-.436-.315-.672-.341a102.5 102.5 0 0 0-3.872-.351c-.76-.054-1.523-.047-2.286-.068zm58.237-7.301 6.058 1.469c-.381-.73-.596-1.272-.927-1.731-.215-.299-.566-.582-.912-.687-1.038-.318-2.03.253-3.063.267-.438.007-.93.019-1.156.682zm4.797 4.471c.554-.644.92-1.274.962-2.176-1.691-.612-3.344-1.126-5.067-1.396-.127-.02-.286.16-.515.298l4.62 3.274zm-58.626-21.741-.349.019c-.061.158-.192.324-.173.47.36 2.7.725 5.393.673 8.134-.02 1.124-.106 2.174-.541 3.226-.552 1.332-.706 2.757-.711 4.202-.002.55.155.981.441 1.447.78 1.271 1.479 2.59 2.225 3.882.189.327.432.622.682.978.175-.225.351-.358.398-.527.156-.562.333-1.132.379-1.708.104-1.292.108-2.591.198-3.884.269-3.87-.195-7.628-1.64-11.247-.121-.3-.169-.628-.268-.937-.435-1.353-.875-2.703-1.314-4.055zm10.089 25.377c-1.481-.37-2.709.206-3.84 1.112 1.29-.312 2.637-.388 3.84-1.112zm-9.525 4.788c.02.043.031.115.06.123.044.013.102-.018.154-.031a16.292 16.292 0 0 0-.086-.193l-.128.101zm1.349-1.679c.703-.529 1.259-.814 1.178-1.895-.502.651-.898 1.009-1.178 1.895zm12.053-4.405c-1.043.188-1.845.326-2.644.48-.316.061-.418.24-.18.576.861-.279 1.889-.085 2.824-1.056zm-25.931-37.498c.149.504.162.792.303.986.677.923.9 2.011 1.2 3.075.406 1.441.854 2.869 1.238 4.314.249.94.444 1.896.615 2.853.42 2.361.26 4.812 1.113 7.106.112.3.134.646.295.912.57.941 1.163 1.871 1.784 2.78 1.211 1.775 2.279 3.615 2.917 5.687.106.348.423.631.695 1.018.099-.298.187-.473.215-.657.203-1.341.214-2.715 1.013-3.922.225-.341.21-.886.193-1.333-.067-1.751.056-3.501-.241-5.254-.316-1.852-.401-3.743-.646-5.609a3.374 3.374 0 0 0-.547-1.429c-.552-.796-1.289-1.469-1.804-2.284-1.097-1.742-2.599-3.074-4.175-4.332a12.119 12.119 0 0 1-1.922-1.92c-.557-.695-1.072-1.465-2.246-1.991zm48.534 34.852c-.979.238-1.388-.752-1.768-.914-4.403-.219-8.322.402-12.231 1.546.458.715 1.18.688 1.761.908 1.725.652 3.271 1.529 4.54 2.919 1.096 1.199 2.422 2.137 3.801 3.019 1.519.971 3.271 1.634 4.376 3.2 4.503-.178 8.952-.348 13.076-2.689a3.476 3.476 0 0 0-2.064-1.503c-2.737-.734-5.145-2.154-7.638-3.407-.337-.169-.7-.31-.771-.74-.746.054-1.225-.505-1.735-.892-.517-.392-.908-.951-1.347-1.447zm3.121 2.285c.112-.031.24-.091.318-.051.867.434 1.715.906 2.585 1.332 1.104.542 2.192 1.141 3.345 1.556 1.771.639 3.502 1.338 5.052 2.363 3.483-1.304 6.413-3.974 7.129-6.565-.759-.616-1.535-1.298-2.366-1.908-.939-.69-1.933-1.304-2.89-1.971-.63-.438-1.359-.586-2.044-.395-1.132.314-2.278.355-3.428.481a20.423 20.423 0 0 0-3.8.808c-1.567.488-3.122.804-4.776.731-.99-.043-2.006.028-3.054.361l.803.913c.115-.005.245-.031.319.022.992.705 1.953 1.449 2.807 2.323zm-22.726-73.2c.036.168.051.374.154.439 2.896 1.812 5.48 4.176 8.939 5.001.746.177 1.435.593 2.148.905.357.155.7.347 1.065.478.569.205.681.145 1.336-.526l-3.839-3.833c-.874-.194-1.806-.464-2.757-.601-2.423-.35-4.699-1.234-7.046-1.863zm-.148-.106c-.13-.137-.259-.274-.396-.403-.025-.024-.153.009-.155.024-.008.087-.016.244.016.254.174.054.355.089.535.125zM66.329 1.131c-.168.024-.332-.003-.41.066-.885.796-1.237 1.896-1.033 2.964.326 1.709 1.429 3.009 2.89 4.263-.038-.801-.026-1.383-.102-1.953-.06-.444-.248-.868-.345-1.309-.167-.752-.364-1.504-.444-2.267-.067-.647-.164-1.251-.556-1.764zm-.72 34.302-.173-.351-.12.147.293.204zM49.163 93.534c.04 1.251.557 1.799 1.263 2.243l-1.263-2.243zm28.471-33.897c.745-.058 1.058-.507 1.369-.881a28.766 28.766 0 0 1 4.603-4.459 4.508 4.508 0 0 0 1.482-2.016c.641-1.724 1.175-3.487 1.851-5.531-1.394.926-2.527 1.613-3.479 2.621-1.074 1.136-2.043 2.337-2.981 3.583-1.47 1.952-2.564 4.037-2.845 6.683zm21.436 63.091c-.486.558-.818.954-1.166 1.336-.394.432-.793.86-1.205 1.276-.365.369-.736.737-1.131 1.073-.446.378-.909.738-1.388 1.073-.425.297-.883.547-1.325.82-.498.308-.98.641-1.492.922-.453.248-.934.446-1.409.653-.485.211-1.094.168-1.503.626.194.117.296.233.399.233 2.419.009 4.791.348 7.14.912.545.131 1.136.068 1.639.091 1.593-2.891 1.956-5.125 1.441-9.015zM64.727 5.449c-.101.141-.28.312-.364.521-.583 1.443-1.097 2.916-1.732 4.335-.422.943-.336 1.748.282 2.528.521.657 1.023 1.334 1.595 1.944 1.062 1.132 2.186 2.206 3.012 3.539.079.128.266.189.537.373.025-.382.066-.624.052-.863-.145-2.328-.343-4.654-.425-6.984-.026-.754-.184-1.367-.622-1.972-.791-1.091-1.524-2.224-2.335-3.421zM47.741 39.111c-.031 2.322-.171 4.305-.136 6.311.03 1.765.824 2.766 2.278 3.481.463.228.955.464 1.321.815 1.354 1.298 3.106 1.85 4.743 2.619.211.099.465.274.732-.132-1.734-1.813-2.954-4.018-4.231-6.182-.98-1.663-1.639-3.517-3.22-4.804-.56-.455-.873-1.214-1.487-2.108zm14.557 19.888c.482-1.283.978-2.409 1.325-3.58.414-1.396.515-2.812-.207-4.182-.453-.86-.817-1.767-1.272-2.625a193.11 193.11 0 0 0-2.626-4.788c-.124-.218-.419-.34-.805-.64.102.506.148.761.206 1.013.389 1.674.533 3.328-.122 4.991-.182.461-.155 1.019-.158 1.533-.007 1.104.028 2.209.047 3.376l3.612 4.902zm14.678 41.858-.161-.003.029.199c.05-.025.109-.041.146-.078.017-.018-.008-.078-.014-.118zm12.686-17.371c-.388 1.657-.74 3.306-1.707 4.786-.48.734-.622 1.694-.882 2.563-.061.205.021.453.051.879.436-.241.72-.364.966-.54.841-.603 1.639-1.27 2.507-1.828 1.254-.807 2.513-1.627 3.848-2.282 1.324-.651 1.889-1.882 2.682-2.962.452-.616.59-1.286.625-2.007.03-.642.327-1.093.913-1.35l.713-1.686c-1.957.649-3.826.882-5.628 1.441-1.11.344-1.994.831-2.774 1.651-.429.451-.629 1.141-1.314 1.335zm-.047-.056-.208-.706c-.843.586-1.667 1.099-2.425 1.695-2.156 1.691-4.086 3.625-5.858 5.708-1.055 1.241-2.006 2.587-2.55 4.136-.634 1.808-1.146 3.659-1.769 5.678 1.408-.429 2.436-1.132 3.377-1.893 1.769-1.429 3.436-2.983 5.162-4.466.472-.406.699-.874.808-1.491.262-1.476.607-2.949 1.354-4.263.583-1.026 1.131-2.035 1.31-3.227.072-.482.266-.972.799-1.171zm-8.032-16.323c-.043.252.119.278.324.235.051-.011.089-.085.132-.129-.101-.058-.197-.13-.305-.166-.039-.014-.098.031-.151.06zM51.881 43.385c1.237 2.973 2.687 5.33 4.313 7.025-.054-.714-.285-1.216-.572-1.664-.973-1.516-1.979-3.011-2.984-4.506-.158-.235-.376-.429-.757-.855zm16.326 26.837c.717-.627.421-1.301.13-1.973-.118.653-.398 1.297-.13 1.973zm.639 71.264c-1.438-.156-2.923-.014-4.135-.59-1.238.365-2.354.698-3.472 1.024-1.194.348-2.214.965-3.146 1.998 1.705 1.063 3.337 2.095 4.989 3.095.266.161.617.193.934.258.693.141 1.389.275 2.086.392.246.041.515.082.75.025 2.458-.597 5.004-.814 7.384-1.746.543-.213 1.127-.317 1.683-.5.264-.087.68.009.699-.506-1.04-.372-2.086-.721-3.112-1.12-.685-.268-1.428-.465-1.885-1.116-.113.027-.238.08-.319.042-.824-.408-1.64-.834-2.456-1.256zm2.785 1.161c.357.068.724.105 1.064.218 1.291.431 2.555.95 3.861 1.325 1.751.504 3.518.372 5.096-.534 1.367-.784 2.827-1.308 4.252-1.938 1.243-.549 2.433-1.221 3.637-1.856.266-.14.604-.283.445-.741-2.023-.573-4.092-.976-5.999-2.058-1.751-.994-3.795-1.224-5.84-1.301-1.095-.041-2.103.12-2.993.649-1.51.9-3.077 1.653-4.68 2.368-1.253.56-2.46 1.167-3.84 1.337-.213.026-.415.146-.854.308.938.239 1.626.387 2.295.597.255.081.476.268.709.421 1.243-.282 2.132.26 2.847 1.205zM69.29 26.854c-.36 1.018-.186 2.007.179 3.158.613-1.223.092-2.183-.179-3.158zm.529 28.763-.003.017.133.452.052-.02-.182-.449zm-1.465 12.467c.091-.044.19-.084.225-.156.031-.064-.082-.197-.13-.299-.029.049-.076.095-.083.147-.012.101-.011.205-.012.308zm16.614-14.178a2.698 2.698 0 0 0-.263.102c-.053.026-.089.085-.133.129.108.015.266.08.312.034.059-.058.068-.166.084-.265zM37.465 74.032c-.533.09-.742-.372-1.078-.636-.279-.221-.617-.366-1.006-.589-.539 1.675-1.125 3.185-1.497 4.745-.329 1.377-.468 2.793-.281 4.243.193 1.503 1.018 2.49 2.26 3.157.673.362 1.447.542 2.186.771.992.309 1.944.664 2.515 1.62.251.116.518.209.734.372 1.604 1.204 3.324 2.161 5.373 2.722.066-.977-.403-1.577-.835-2.207-1.694-2.468-2.963-5.159-4.081-7.925-.46-1.137-.913-2.282-1.287-3.45-.387-1.212-1.059-2.041-2.363-2.305-.239-.048-.432-.321-.64-.518zm.001-.046 1.584.179c.201-.704-.013-1.239-.225-1.788-.21-.543-.347-1.115-.534-1.667-.187-.554-.356-1.119-.606-1.644-.233-.492-.221-1.129-.781-1.56-1.26 1.096-1.28 2.526-1.48 3.847l2.042 2.633zm-2.032 52.727-.173-.584-.233.113c.135.158.27.315.406.471zm24.036-21.997c-.426.511-.628.988-.05 1.497.546-.483.46-.966.05-1.497zm.094 9.035c-.051-.02-.102-.042-.117-.027-.086.08-.152.18-.225.273.07-.055.139-.112.21-.164.042-.031.088-.055.132-.082zm-7.98 28.575c.512.139.705.26.863.224 1.13-.256 2.253-.514 3.428-.491.292.006.678-.134.864-.345.604-.681 1.141-1.423 1.547-2.373-1.226.479-2.313.859-3.361 1.325-1.056.469-2.073 1.025-3.341 1.66zm18.773-93.945c.336-.311.132-.602-.265-1.121l.265 1.121zM69.299 26.69c.324-.394.102-.693-.282-.956l.282.956zM40.485 87.311c-.441-.181-.884-.359-1.324-.546-.417-.177-.815-.466-1.246-.528-1.062-.15-1.958-.659-2.878-1.139-.246-.129-.482-.454-.925-.03.397.966.752 2.011 1.246 2.986.965 1.911 1.993 3.791 3.026 5.667.562 1.022 1.186 2.011 1.785 3.012.28.468.71.732 1.214.923 1.276.484 2.523 1.019 3.585 1.923.278.237.691.368 1.062.436 2.098.387 4.08 1.307 6.246 1.359.413.01.76.584 1.313.063-.868-1.114-1.697-2.258-2.61-3.329-1.362-1.598-2.521-3.296-3.103-5.34-.247-.868-.77-1.405-1.657-1.739-1.573-.594-3.105-1.307-4.481-2.307-.526-.383-1.084-.722-1.253-1.411zm-4.936 39.586c.111.299.247.545.644.241l.018.279.028-.282-.69-.238zm63.666-83.332c-1.541 1.543-2.989 2.988-4.428 4.443-.082.082-.089.239-.153.425 1.605.16 3.191.537 4.833-.128.228-1.57.396-3.086-.252-4.74zM68.203 70.333c-.134.379-.301.751-.382 1.142-.165.794-.277 1.599-.411 2.399.039.103.07.21.12.307.026.051.087.084.132.125-.032-.05-.069-.096-.096-.149-.051-.096-.097-.196-.144-.294.194-.137.518-.241.564-.417.267-1.019.498-2.055.217-3.113zm-11.052 50.959c-.532.142-.437.538-.222.966l.222-.966zM45.259 86.047l.104-.019-.083-.127-.021.146zm13.371 21.511c.469.482.815.836 1.393.527-.635-.918-.635-.918-1.393-.527zm-32.886 7.126c.56.39 1.134.761 1.671 1.179.663.516 1.344.956 2.21 1.014.036-.164.104-.291.082-.4a34.37 34.37 0 0 0-2.859-8.257c-.086-.173-.167-.369-.305-.494-.674-.61-1.433-1.139-2.033-1.813-.625-.702-1.102-1.536-1.664-2.342-.16.205-.294.297-.31.407-.265 1.861-.529 3.725-.449 5.613.012.306.128.626.266.905.818 1.648 2.027 2.984 3.396 4.187l-.005.001zm-.048.009c-.824.147-1.326-.389-1.697-.973-.453-.712-1.004-1.283-1.819-1.869-.011.64-.036 1.148-.025 1.655.029 1.297.131 2.596.1 3.891-.04 1.594.341 3.053.979 4.507.902 2.058 2.508 3.416 4.304 4.588.579.378 1.317.687 1.992.71 1.778.059 3.451.537 5.141.988.219.058.522.17.642-.229a12.546 12.546 0 0 1-1.738-3.859c-.144-.547-.479-1.053-.774-1.55-.498-.833-1.091-1.613-1.54-2.47-.718-1.372-1.784-2.329-3.128-3.059-1.01-.549-1.949-1.219-2.437-2.33zm63.367-23.588c-.596.476-1.208.933-1.781 1.434-.534.466-1.057.953-1.529 1.482-.453.507-1.263.69-1.469 1.576 2.096-1.071 3.488-2.77 4.779-4.492zm-25.498 9.046c.551-.953.55-.96.385-2.046-.253.73-.6 1.332-.385 2.046zm6.26-44.566c.139-.116.355-.215.386-.355.505-2.249.546-4.509.116-6.776-.524.275-.264.786-.273 1.175-.042 1.982.125 3.97-.229 5.956zm-2.871 10.508c-.301-.598-.759-1.076-1.428-1.125-.565-.041-.788-.391-1.043-.749a14.197 14.197 0 0 1-.835-1.317c-.947-1.7-2.655-2.202-4.313-2.168-1.517.03-2.966-.248-4.449-.321-.275-.014-.647-.169-.794.343.895.825 1.841 1.604 2.937 2.186 1.323.702 2.663 1.372 3.976 2.091 1.871 1.026 3.829 1.495 5.949 1.06zm-3.806 35.375c.398-.341.667-.724.414-1.285-.47.326-.451.802-.414 1.285zm-36.828 4.974-.989-6.631c-1.381.869-1.685 1.278-2.227 2.944.968 1.189 1.337 2.913 3.216 3.687zm66.419-58.104c2.096-.981 4.735-3.631 5.347-5.12-1.057.312-2.177.582-3.244.991-.371.142-.719.575-.894.96-.422.929-.737 1.908-1.209 3.169zM67.192 1.302c.503 3.908.503 3.908 1.364 5.347.709-1.201 1.314-2.366 1.56-3.663-1.229-1.271-1.229-1.271-2.924-1.684zm31.472 79.507c-.237 1.232-.413 2.48-1.043 3.603-.096.171-.072.41-.123.743 1.674-.603 2.756-1.769 4.014-2.653 1.332-.937 2.77-1.644 4.227-2.227.02-.932-.377-1.446-1.188-1.637-1.727-.408-3.354-.424-4.599 1.137a6.987 6.987 0 0 1-.795.854c-.122.108-.322.128-.493.18zm-17.15-13.72c-1.151-.675-2.316-1.326-3.443-2.035-1.029-.647-2.179-.828-3.337-.915-.561-.042-1.174.081-1.705.281-.973.367-1.909.835-2.847 1.287-.272.131-.589.295-.472.8 1.144.488 2.298 1.097 3.524 1.464.908.272 1.964.467 2.859.269 1.271-.281 2.564-.399 3.826-.693.539-.126 1.065-.303 1.595-.458zm7.042-15.347c-.951.137-.963.12-1.875 1.064 1.068-.243 1.068-.243 1.875-1.064zM70.715 38.949c1.302.328 1.307.336 1.744.109 1.268-.659 2.513-1.373 3.572-2.335 1.493-1.356 2.2-3.089 2.336-5.379-.473.564-.761.888-1.028 1.229-1.005 1.286-2.136 2.416-3.497 3.351-1.06.728-1.982 1.66-2.956 2.512-.081.071-.082.234-.171.513zM83.28 96.133l-.112.087.14.014-.028-.101zm4.963 8.986c-.436-.109-.868-.245-1.309-.323-1.986-.352-3.904-.901-5.71-1.817-.286-.145-.607-.225-.918-.317-1.885-.555-3.694-.411-5.444.532-.853.46-1.756.827-2.636 1.238-.529.247-1.067.477-1.582.751-.476.254-1.047.371-1.457.789.19.178.271.322.372.337 1.534.233 2.795 1.058 3.9 2.037.825.732 1.643.971 2.66.757.696-.146 1.394-.29 2.082-.473 1.313-.35 2.6-.836 3.932-1.066 2.19-.379 4.094-1.481 6.11-2.445zM57.471 53.536c-3.442-.939-6.236-3.098-9.238-4.84-.095.163-.149.212-.147.258.17 2.917 1.381 5.532 2.398 8.2.257.674.709 1.238 1.413 1.55 2.222.987 4.509 1.6 6.975 1.396.506-.042 1.025.12 1.54.146.29.014.638.224.898-.197l-3.839-6.513zm17.1-43.106a51.007 51.007 0 0 1-.395-.008c-.159.536-.345 1.064-.469 1.608-.219.963-.578 1.866-1.153 2.664a151.493 151.493 0 0 1-3.023 4.061c-.335.436-.586.871-.508 1.42.172 1.215.382 2.425.556 3.64.137.96.283 1.92.347 2.886.045.684.07 1.345.517 2.048.667-.744 1.202-1.391 1.791-1.985.97-.978 1.797-2.044 2.409-3.287.803-1.633 1.65-3.243 2.493-4.856.295-.563.296-1.108.061-1.686-.88-2.166-1.751-4.336-2.626-6.505zM41.523 71.219c-.026-1.321.44-2.665-.279-4.05-.375-.122-.852-.332-1.352-.428-.672-.13-1.454-.479-1.987.171-.529.645-.023 1.355.155 2.025.016.062.04.127.079.177.612.79.8 1.754 1.113 2.67.204.599.325 1.265.946 1.634.603-.313.471-1.249 1.228-1.404-.143.563-.258 1.134-.437 1.685-.481 1.488-.199 2.806.775 4.016.365.454.652.968.982 1.451 1.369 2.004 2.283 4.221 3.072 6.5.354 1.023.683 2.063 1.708 3.155.036-.352.046-.553.078-.751.314-1.917.696-3.815.571-5.789-.134-2.134-.132-4.277-.157-6.417-.018-1.614-.595-3.122-1.347-4.433-.898-1.569-2.59-2.426-4.251-3.438-.086.56-.158.934-.198 1.312-.074.699-.043 1.43-.699 1.914zm36.192-10.032.128-.097c-.047-.018-.098-.056-.142-.049-.046.008-.086.059-.128.09l.142.056zm-2.337 2.222c.524.181.881.396 1.246.411.755.032 1.371.303 1.946.769 1.394 1.127 3.083 1.601 4.275 2.015 3.038-.457 5.179-1.812 7.164-3.413 1.997-1.609 4.216-3.008 5.579-5.402-.479.005-.868.029-1.253.007-1.876-.106-3.752-.301-5.629-.317-1.878-.016-3.763-.198-5.64.176-1.136.226-2.015.677-2.743 1.643-1.048 1.394-2.186 2.752-3.985 3.294-.318.097-.555.461-.96.817zm30.135 23.609c-1.7.466-3.037.375-4.364-.077-.49-.167-1.006-.303-1.519-.343-1.623-.128-3.246-.213-4.685.805a42.413 42.413 0 0 0-6.707 5.895c-.119.129-.155.334-.279.616.948.097 1.831.307 2.696.247 1.047-.074 1.898.182 2.711.816 1.898 1.481 4.181 1.668 6.461 1.81.594.037 1.19-.109 1.597-.59.629-.743 1.351-1.45 1.799-2.296 1.097-2.07 1.595-4.356 2.29-6.883zM48.139 73.142c.166 1.546.36 2.831.427 4.123.076 1.49-.07 2.997.079 4.477.238 2.368-.016 4.677-.63 6.94-.233.858-.074 1.528.32 2.222.416.734.875 1.445 1.283 2.184 1.163 2.101 2.307 4.212 3.467 6.314.14.253.172.657.716.564.894-1.717 1.493-3.49 1.191-5.549-.166-1.135-.091-2.354.132-3.485.333-1.689.17-3.356.091-5.031a4.729 4.729 0 0 0-.428-1.69c-.618-1.362-1.159-2.797-2.01-4.006-1.428-2.029-2.651-4.169-3.905-6.298-.153-.258-.423-.448-.733-.765zm2.004-31.666c.017-.669.086-1.038.025-1.383a92.523 92.523 0 0 0-.788-3.977c-.049-.218-.31-.39-.571-.697-.217.505-.41.896-.553 1.305-.166.478-.287.971-.419 1.431l2.306 3.321zm6.854 101.176c.466.433.466.433.967.082l-.967-.082zm13.334-39.282c.4-.107.823-.172 1.18-.362.913-.483 1.764-1.084 2.684-1.549 1.046-.53 1.744-1.396 2.161-2.397.514-1.233.787-2.567 1.155-3.859.007-.024-.091-.078-.22-.182-.525.708-1.01 1.447-1.578 2.115-1.779 2.09-3.588 4.156-5.382 6.234zm-17.228 30.551c-.188.214-.416.407-.532.654a641.229 641.229 0 0 0-3.007 6.523c-.127.278-.196.583-.309.927.558.144.853-.01 1.036-.422.681-1.54 1.451-3.048 2.011-4.631.346-.98.946-1.932.801-3.051zm.022-.084c.405-.144.419-.448.31-.821-.407.185-.498.457-.31.821zm23.938-75.724c-1.25 1.351-2.358 2.799-3.246 4.509.663.119 1.184-.023 1.451-.462.761-1.245 1.76-2.384 1.934-3.919.004-.036-.087-.082-.139-.128zm-47.464 55.358c.661 2.545.948 4.821 2.667 6.856-.742-2.4-.903-4.722-2.667-6.856zm38.267 25.611c2.004-.338 6.649-2.723 8.588-4.273-3.208.768-5.81 2.696-8.588 4.273zm-17.971 4.721c3.653 1.883 11.017 4.059 13.06 3.897-1.483-.965-2.949-1.912-4.408-2.869-.482-.317-.937-.911-1.423-.931-.797-.032-1.257-.589-1.9-.866-.956.269-1.887.471-2.887.189-.538-.152-1.161-.062-1.736.001-.197.021-.368.291-.706.579zm48.392-58.214c.189.125.334.288.502.318 1.077.196 2.18.286 3.236.559 1.338.348 2.557.198 3.808-.522.321-1.532.478-3.089.149-4.635-3.149.516-5.183 2.764-7.695 4.28zM85.942 52.195c.554-.153.838-.421 1.164-.601.559-.31 1.094-.708 1.694-.889 3.039-.922 3.971-3.345 4.581-6.109-1.546-.232-2.741.495-4.012.931-.841.289-1.474.776-1.853 1.576-.744 1.567-1.187 3.222-1.574 5.092zm-3.136 70.427-.094-.672c-2.793 1.085-5.111 2.699-7.364 4.438-2.274 1.756-4.337 3.673-5.581 6.331-.061.131-.252.203-.405.309-.318.833-.592 1.687-.971 2.49-.385.816-.833 1.595-.848 2.602 1.079-.069 1.922-.585 2.687-1.128 1.718-1.222 3.629-1.992 5.449-2.567.564-.954.937-1.884 1.567-2.583 1.074-1.193 1.768-2.536 2.22-4.05.353-1.185.856-2.302 1.787-3.169-.487 1.267-1.005 2.523-1.452 3.803-.454 1.301-.973 2.543-1.984 3.533-.33.322-.648.717-.65 1.44.591-.352 1.057-.577 1.464-.88 1.454-1.087 3.168-1.476 4.884-1.85.821-.179 1.651-.346 2.485-.42 1.476-.133 2.342-.994 2.912-2.26.88-1.954 1.752-3.911 2.631-5.865.768-1.707 1.402-3.496 2.889-4.772.036-.031-.057-.214-.093-.334-.729-.048-1.361.238-2.012.551-1.874.902-3.75 1.808-5.672 2.595-1.222.501-2.38 1.01-3.195 2.105-.131.175-.381.261-.59.377-.01.415-.333.505-.646.606-.088.56-.548.875-.878 1.276-.198-.751.235-1.087.826-1.316.033-.381.349-.469.634-.59zm2.305-68.826c.141-.042.282-.083.411-.148.05-.026.038-.171.055-.262-.062.013-.15.004-.183.042-.101.116-.191.243-.283.368zm-39.924 76.997c-.396 1.005-.874 1.986-1.167 3.021-.31 1.094-.445 2.239-.673 3.452.566.551 1.194 1.203 1.866 1.806.657.59 1.078 1.473 2.194 1.758-.602-3.39-1.096-6.707-2.22-10.037zm24.717-97.09-.021-.138c.122-.13.333-.25.35-.393.099-.816.113-1.632-.42-2.453-.411 1.018.133 1.939.052 2.862l.039.122zm-.544-15.606c2.093-2.509 3.722-5.117 4.322-8.277.112-.59.253-1.168-.067-1.704-.857-1.438-1.639-2.927-2.77-4.364-.826 1.292-1.34 2.614-1.919 3.898-.737 1.636-.984 3.333-.695 5.131.205 1.28.258 2.585.351 3.881.039.544.197 1 .778 1.435zm26.942 98.918c-.694.492-1.242.842-1.743 1.249-.401.325-.837.665-1.093 1.097-.496.836-.902 1.729-1.296 2.621a460.798 460.798 0 0 0-2.627 6.085c-.145.338-.459.65-.226 1.164a4.397 4.397 0 0 0 2.139-.683c1.697-1.087 3.423-2.154 4.827-3.626 1.068-1.12 2.277-2.152 2.747-3.707-.416-1.725-.619-3.538-2.728-4.2zM55.983 86.389c-.136 2.156-.203 3.832-.363 5.498-.094.974-.182 1.935-.015 2.905.253 1.463-.057 2.834-.658 4.169-.29.643-.507 1.319-.708 1.851.62 1.76 1.842 2.848 3.006 3.965.291.28.745.39 1.175.602.247-.667.526-1.196.636-1.758.398-2.023.924-4.03.475-6.136-.255-1.203-.451-2.443-.456-3.667-.013-2.767-1.322-4.949-3.092-7.429zm13.402-48.874c.178-1.891.03-3.551-.205-5.218-.19-1.347-.671-2.473-1.815-3.301-.518-.375-.951-.886-1.364-1.384-1.567-1.888-2.657-4.131-4.365-5.918-.043-.044-.042-.13-.085-.173-.205-.209-.418-.411-.806-.786-.055 2.075-.189 3.884.151 5.679.291 1.543.989 2.95 1.607 4.378.175.405.457.796.776 1.103 1.675 1.615 3.225 3.366 5.1 4.769.297.222.569.479 1.006.851zM61.883 12.57c-.213.512-.472.91-.539 1.338-.219 1.408-.414 2.823-.522 4.243-.043.558.026 1.215.291 1.689.594 1.06 1.16 2.163 2.149 2.955.348.277.797.612.885.993.312 1.352 1.375 2.178 2.121 3.21.545.753 1.196 1.492 2.111 1.997.093-.218.18-.324.175-.426a48.301 48.301 0 0 1 .017-5.048c.053-.926.104-1.953-.375-2.849-.858-1.603-1.852-3.105-3.107-4.438-1.058-1.122-2.036-2.319-3.206-3.664zm9.087 25.081c1.093-.954 1.919-1.789 2.856-2.47 1.88-1.365 3.228-3.167 4.482-5.075.346-.525.433-1.037.432-1.644-.007-2.602-.509-5.154-.749-7.731-.036-.389-.016-.906-.459-1.131-.141.061-.227.07-.249.113-.456.858-.946 1.702-1.345 2.586-.837 1.853-1.91 3.531-3.339 4.991-.766.782-1.436 1.659-2.003 2.321.1 1.48.208 2.705.258 3.933.053 1.275-.305 2.564.116 4.107zM58.927 138.862l.141.032-.008-.106-.133.074zm19.408-5.349c-.061 0-.126-.012-.182.006-.017.005-.007.091-.01.141.058-.004.122.006.172-.017.022-.01.014-.084.02-.13zM52.372 35.46c-.787-.256-1.615-.871-2.689-.398.34 1.153.653 2.267.999 3.369.336 1.068.321 2.278 1.27 3.25.706-2.088 1.431-4.048.42-6.221zm23.826 65.972c-1.936.314-2.995 1.549-4.593 2.325 1.843-.309 3.113-1.141 4.593-2.325zm-33.316-2.303c-.041-.035-.079-.089-.126-.1-.037-.007-.086.038-.129.06.036.038.069.101.111.107.044.006.096-.043.144-.067zm23.856-34.582c-.098-2.484-.535-4.972-1.565-8.708-.109-.396-.066-.898-.586-1.178-.437 1.168-.902 2.286-1.275 3.434-.414 1.274-.407 2.533.417 3.687.224.315.408.659.622.982.6.9.95 1.158 2.387 1.783zm-3.782 44.573c1.53.561 3.057.97 4.586.751 1.671-.239 3.344-.291 5.015-.442.256-.023.64.191.768-.339-1.203-.972-2.475-1.733-4.004-2.223-1.293-.415-2.281-.206-3.264.514-.645.473-1.327.789-2.111.925-.369.065-.788.097-.99.814zM58.07 51.726c-.128-1.459.114-2.638.498-3.813.172-.531.148-1.167.063-1.733a63.076 63.076 0 0 0-.848-4.585c-.125-.548-.475-1.056-.776-1.55-.336-.55-.7-1.091-1.112-1.585-.689-.828-1.331-1.718-2.488-2.424.155 1.803-.18 3.343-.479 4.902-.237 1.238.039 2.52.686 3.662 1.27 2.245 2.925 4.268 3.864 6.705.036.094.191.141.592.421zm7.656-16.164c.862 1.721 2.317 3.002 3.691 3.142-.881-1.127-1.927-1.948-2.933-2.803-.203-.172-.496-.237-.758-.339zM44.487 84.21a14.093 14.093 0 0 0-1.339-3.556 1.778 1.778 0 0 0-.348-.451c-.136-.126-.312-.211-.778-.513.962 1.735 1.196 3.381 2.465 4.52zm12.688 37.013.453-.922c-.449.208-.747.479-.453.922zM99.73 97.851c-.11-.152-.138-.236-.185-.249a4.143 4.143 0 0 0-.561-.118c-2.062-.3-4.063-.717-5.845-1.937-1.709-1.169-3.688-1.098-5.633-.807-.615.093-1.233.395-1.769.73-1.094.682-2.069 1.575-3.207 2.158-1.923.985-3.35 2.528-5.308 4.171 1.984-.424 3.32.323 4.708.837.73.27 1.422.643 2.148.925.479.185.981.325 1.485.422.955.183 1.938.25 2.876.494 1.299.339 2.454.028 3.527-.637a75.863 75.863 0 0 0 3.888-2.592c1.412-1.002 2.644-2.214 3.876-3.397zm-57.8 38.821c-1.587-2.61-3.289-4.877-5.134-7.034-.307-.359-.86-.554-1.337-.709-.67-.217-1.384-.293-2.062-.489-.998-.289-1.979-.574-3.045-.576-1.616-.003-3.033-.632-4.292-1.633-.28-.223-.577-.422-.866-.632.44 1.585 1.174 2.942 2.211 4.109 1.034 1.164 2.206 2.215 3.169 3.433 1.351 1.708 3.026 2.816 5.134 3.289a113.8 113.8 0 0 0 3.215.665c.185.035.39 0 .581-.029.7-.107 1.398-.226 2.426-.394zm57.467-87.326c-1.495-.071-2.84-.12-4.182-.204-1.94-.122-3.564.568-4.874 1.952-1.038 1.096-2.221 1.948-3.54 2.675-1.127.622-2.174 1.396-3.225 2.148-.268.192-.413.554-.671.916.344.08.55.2.706.153 1.524-.457 3.087-.091 4.627-.234.827-.077 1.759-.121 2.495.182 1.225.507 2.437.154 3.645.264 1.765.162 2.942-.762 3.588-2.384.144-.361.314-.719.406-1.094.351-1.435.676-2.876 1.025-4.374zm-21.594 85.681c.465.086.773.187 1.083.192 1.646.029 3.219.337 4.696 1.093.8.409 1.591.878 2.442 1.135 1.235.372 2.527.55 3.782.861 1.391.343 2.474-.047 3.533-1.02 1.467-1.349 2.373-3.052 3.434-4.748-2.592-.83-5.224-1.103-7.876-1.263-.447-.027-.963.015-1.318-.194-.651-.383-1.255-.261-1.869-.063-1.296.418-2.625.776-3.852 1.347-1.393.649-2.89 1.192-4.055 2.66zm-49.659-30.522c.06-.358.07-.737.202-1.066.447-1.114.651-2.229.23-3.457-.798-.43-1.568-1.127-2.66-.405.13 1.983.284 3.918.84 5.798.044.151.204.267.322.412l1.066-1.282zm11.862 14.064c.035.248.148.519.085.739-.481 1.684-.742 3.405-.974 5.134-.042.313-.123.668-.31.907-.813 1.043-.861 2.278-.977 3.432.619.989 1.215 1.914 1.784 2.855.805 1.331 1.572 2.684 2.398 4.001.206.329.377.88 1.08.604-.078-1.361.289-2.645.849-3.909.364-.823.534-1.732.781-2.606.254-.901.174-1.782-.079-2.683-.506-1.811-.941-3.641-1.42-5.46a63.216 63.216 0 0 0-.795-2.808 6.769 6.769 0 0 0-.548-1.242c-.233-.423-.297-.963-.856-1.394-.218.671-.368 1.216-.577 1.737-.1.25-.283.466-.441.693zm-6.748-3.72c-.103.542-.192 1.089-.317 1.626-.32 1.384-.48 2.718.019 4.145.913 2.608 2.399 4.824 4.262 7.009.173-.54.225-1.015.457-1.374.915-1.419 1.057-3.024 1.258-4.632.132-1.055.423-2.08 1.018-2.99.043-.438.036-.888.141-1.311.373-1.511.262-2.964-.465-4.345-1.085-2.061-2.17-4.123-3.311-6.154-.289-.513-.632-1.102-1.313-1.232-.123.195-.235.295-.25.408-.324 2.37-.627 4.743-.956 7.112-.083.604.029 1.286-.543 1.738zm-5.08-10.345c-.082.416-.11.857-.275 1.239-.496 1.151-.506 2.261.101 3.366.467.852.915 1.715 1.401 2.556.908 1.57 1.927 3.084 2.371 4.88.016.067.191.095.294.14.594-.49.406-1.476 1.149-1.873-.067-2.304.265-4.565.691-6.821.179-.947.286-1.909.395-2.868.061-.539-.154-.98-.517-1.403-.979-1.144-2.194-1.993-3.425-2.818-.297-.199-.706-.234-1.181-.38-.028 1.491.212 2.948-1.004 3.982zm41.136 28.549-.479-.297c-.359.281-.844.594-1.248.988-1.375 1.34-3.036 2.234-4.729 3.068-2.099 1.035-3.664 2.646-5.023 4.493-.105.142-.106.36-.184.648.284.036.534.131.759.089a25.65 25.65 0 0 0 5.945-1.865c1.176-.536 2.062-1.552 2.611-2.803a89.665 89.665 0 0 1 1.84-3.876c.092-.186.322-.304.508-.445zm-9.289-20.016c-.03-.222-.101-.457-.039-.651.97-3.007 1.977-6.004 2.938-9.015.182-.57.527-1.16.211-1.794-.316.751-.672 1.489-.937 2.258a846.544 846.544 0 0 0-2.808 8.319c-.184.551-.313 1.121.187 1.583.096-.27.028-.659.448-.7z" fill="#687E6B"/></g><defs><clipPath id="a"><path fill="#fff" d="M0 0h108v204H0z"/></clipPath></defs></svg>