<svg width="189" height="162" fill="none" xmlns="http://www.w3.org/2000/svg">
    <path fill-rule="evenodd" clip-rule="evenodd"
        d="M67.868 103.387c-.916.01-1.837.073-2.747.018-1.68-.102-3.292.236-4.899.702-3.147.913-6.01 2.422-8.799 4.13-1.653 1.013-3.407 1.86-5.266 2.863.43.176.674.375.907.357 3.124-.233 6.008.603 8.826 1.723 1.274.506 2.511 1.054 3.961.956.53-.036 1.087.172 1.607.339 4.708 1.507 9.408 3.037 14.117 4.539.508.162 1.063.283 1.594.265 2.595-.09 5.156-.387 7.609-1.413 1.027-.429 2.105-.743 3.176-1.05 2.939-.84 5.891-1.636 8.639-3.865-1.234 2.125-1.851 2.63-3.386 3.19a52.922 52.922 0 0 0-3.869 1.574c-2.89 1.322-5.888 2.286-8.966 3.022-.167.617.296.75.708.925 1.429.605 2.851 1.229 4.291 1.808.59.238 1.205.453 1.833.554 4.082.655 8.172 1.276 12.138 1.889.292-.171.514-.224.587-.355.965-1.731 2.513-2.018 4.286-1.906 2.293.145 4.622.052 6.766 1.023a.665.665 0 0 0 .268.057c3.894.006 5.736 2.721 7.503 5.528.58.921 1.098 1.882 1.69 2.795.963 1.486 2.209 2.637 3.962 3.185.395.123.737.402 1.175.65-.283.218-.403.388-.519.388-2.519.003-4.912.522-7.248 1.564-1.885.841-3.792.671-5.575-.35-1.503-.862-3.109-1.499-4.726-2.141-2.181-.866-3.653-2.65-5.087-4.418-.97-1.197-1.899-2.427-2.851-3.638-.161-.205-.505-.398-.493-.587.08-1.259-.86-1.191-1.658-1.303-1.637-.228-3.271-.491-4.917-.651-4.648-.452-8.905-2.043-13.041-4.013-.383-.183-.8-.298-1.15-.426-.472.523-.129.812.065 1.065.609.792 1.2 1.612 1.909 2.31 2.132 2.103 3.834 4.615 6.235 6.459.213.164.455.292.51.327 1.39-.374 2.61-.738 3.846-1.028 1.726-.405 3.027.263 4.115 1.547 1.376 1.624 2.268 3.518 2.954 5.49.338.971.738 1.844 1.383 2.617.979 1.171 1.471 2.555 1.281 4.061-.147 1.167.425 2.358-.258 3.696-.521-.274-1.011-.446-1.397-.749-1.233-.968-2.463-1.898-4.2-1.678-.174.022-.452.029-.523-.071-.961-1.353-2.599-1.181-3.937-1.679-.955-.355-1.781-.858-2.443-1.671-1.032-1.267-2.201-2.422-3.235-3.687a15.077 15.077 0 0 1-1.64-2.494c-.86-1.628-.683-2.623.588-3.968.309-.326.673-.6 1.028-.913-.158-.317-.229-.598-.403-.783-2.292-2.445-4.278-5.181-6.967-7.248-.072-.055-.174-.08-.229-.146-1.896-2.324-4.649-3.106-7.398-3.828a16.284 16.284 0 0 1-4.026-1.662c-1.354-.78-2.809-1.255-4.352-1.59-1.606-.347-3.225-.774-4.718-1.426-6.789-2.965-12.958-1.559-18.662 2.985-6.057 4.824-11.674 10.113-16.974 15.769-2.468 2.635-5.416 4.841-8.223 7.149-1.87 1.537-3.844 2.958-5.834 4.338a29.373 29.373 0 0 1-4.902 2.74c.31-.315.599-.652.935-.937.354-.301.746-.559 1.132-.821 2.003-1.359 4.102-2.596 5.996-4.093 3.361-2.657 6.634-5.429 9.867-8.242 1.186-1.031 2.112-2.353 3.225-3.475a489.276 489.276 0 0 1 8.129-8.043c.851-.819 1.871-1.463 2.615-2.444-1.532 1.177-3.087 2.326-4.592 3.537-3.12 2.509-6.241 5.018-9.303 7.596-1.203 1.013-2.182 2.289-3.381 3.308-2.128 1.812-4.337 3.532-6.529 5.268-2.568 2.032-5.366 3.679-8.363 4.986-.162.071-.282.239-.582.503l-.238 2.811c-.366-.477-.709-.72-.751-1.012-.265-1.838.224-2.605 1.999-3.42 3.143-1.444 6.081-3.21 8.758-5.437 2.296-1.91 4.547-3.837 6.555-6.065 1.11-1.233 2.53-2.2 3.848-3.239 2.78-2.195 5.658-4.274 8.359-6.563 2.482-2.104 4.775-4.43 7.171-6.637 1.096-1.009 2.193-2.025 3.368-2.936 1.721-1.334 3.133-2.87 4.068-4.852.915-1.936 2.134-3.657 3.77-5.123 1.168-1.048 2.106-2.347 3.172-3.512.751-.82.906-1.836.954-2.835.123-2.567.382-5.11.86-7.65.218-1.155.221-2.37-.267-3.507-.61-1.423-.465-2.829.304-4.198-.279-.46-.518-.91.378-1.21l-.185 1.228c.125.425.311.842.363 1.277.363 3.024.705 6.051 1.03 9.08.026.245-.125.513-.194.768a18.753 18.753 0 0 1-.145-.126c.034.046.068.093.104.138.586 1.18.047 2.206-.523 3.227.331-.048.813.02.959-.167 2.584-3.302 5.07-6.667 6.323-10.722.19-.616.505-1.244.5-1.858-.009-1.25.271-2.339 1.102-3.327.281-.333.427-.819.521-1.257.599-2.789.466-5.483-1.078-7.924a2.853 2.853 0 0 0-1.18-1.038c-1.282-.569-2.63-.72-4.034-.246-2.387.807-4.758 1.664-6.675 3.386-1.252 1.125-2.662 1.588-4.304 1.69-2.065.125-4.046-.195-6.022-.633-1.122-.249-2.044-.84-2.651-1.792-.846-1.326-1.927-2.395-3.209-3.29-.12-.084-.132-.316-.263-.662 2.725-.366 4.794-2.169 7.189-3.283 2.781-1.295 5.363-1.179 7.968.114.49.243 1.01.452 1.448.77 1.928 1.4 4.045 1.433 6.367.868-1.073-2.078-2.142-4.025-2.713-6.206-.156-.595-.565-1.136-.931-1.649-.629-.887-1.316-1.732-1.883-2.47-.018-.843-.124-1.486-.022-2.1.134-.808.21-1.784.706-2.347 1.108-1.26 1.59-2.65 1.73-4.232.008-.085.301-.153.638-.312.193.361.419.72.586 1.104.667 1.537 1.631 2.731 3.139 3.622 2.667 1.574 4.5 3.865 5.298 6.955.603 2.338.487 4.511-.97 6.495l2.118 8.99c1.791-.83 2.507-1.285 3.087-2.619 1.207-2.777 2.473-5.504 2.785-8.612.273-2.71 1.027-5.416 1.858-8.04.502-1.588.872-3.184 1.219-4.792.565-2.622-.6-6.188-2.579-7.949-.098-.088-.437.09-.668.142a1.905 1.905 0 0 1-1.014 1.733c-.63.343-1.415.633-2.102.591-2.502-.15-4.882-.61-6.767-2.495-1.67-1.67-3.56-3.102-5.862-3.904-1.652-.575-2.696-1.87-3.501-3.294-1.012-1.793-1.831-3.697-2.724-5.532.343-.515.611-.154.939-.064.593.163 1.233.338 1.834.274 1.005-.108 1.99-.42 2.99-.609 1.543-.293 3.085-.618 4.64-.802.804-.096 1.685-.065 2.444.168 2.543.78 4.962 1.81 7.152 3.356 2.091 1.477 3.055 3.58 3.465 5.953.157.917-.29 1.951-.499 3.143 1.658 1.586 2.449 3.88 3.324 6.316 2.241-2.578 3.451-5.377 4.159-8.458.992-4.318 2.362-8.52 4.661-12.39-.488-.246-.976-.49-1.464-.737-2.942-1.484-4.327-5.313-2.057-8.39 1.01-1.37 1.811-2.792 2.142-4.463.087-.435.333-.875.607-1.24a187.15 187.15 0 0 1 3.575-4.62c.343-.429.751-.858 1.218-1.129C89.44 3.39 91.331 1.923 92.759 0c.775.128.859.56.516.977-1.094 1.336-1.333 2.712-.906 4.38.425 1.664.608 3.382 1.148 5.043.99 3.045.6 6.167-.419 9.18-.468 1.385-1.455 2.59-2.682 3.492-.747.55-1.583.975-2.356 1.49-.907.604-1.785.926-2.827.318-.51-.297-1.069-.034-1.527.342-.042 2.308-.579 4.506-1.928 6.43-1.26 1.798-1.757 3.821-2.209 5.877-.189.858-.346 1.722-.579 2.892 3.479-1.299 6.146-3.508 9.343-4.68l.127-1.297c-.795-2.106.077-3.916 1.61-5.192 2.706-2.25 5.774-3.753 9.457-2.99 1.378.285 2.739.2 4.042-.513.556-.304 1.177-.485 1.994-.812-.058.511-.008.87-.143 1.138-.58 1.158-1.352 2.243-1.802 3.443-.997 2.653-2.593 4.861-4.655 6.791a14.857 14.857 0 0 0-1.49 1.642c-.864 1.092-2.031 1.344-3.247 1.103-1.424-.283-2.935-.475-4.022-1.578-.831-.844-1.768-.838-2.789-.379-3.066 1.38-5.946 3.07-8.541 5.224-.353.293-.703.643-.919 1.037-2.275 4.152-4.435 8.353-5.488 12.99-.075.33-.043.682-.083 1.442.672-.609 1.062-.926 1.408-1.286.707-.736 1.304-1.607 2.099-2.226a168.226 168.226 0 0 1 6.977-5.139c.729-.508 1.646-.745 2.835-1.263-.667 1.254-1.589 1.534-2.33 1.987-1.437.878-2.775 1.804-3.885 3.132-.879 1.052-2.126 1.8-3.18 2.714-.981.852-1.957 1.715-2.876 2.631-1.217 1.214-1.838 2.681-2.209 4.371-.933 4.247-2.327 8.346-5.089 11.88-1.156 1.478-1.887 3.134-2.17 5.227.946-.198 1.347-.83 1.867-1.28.565-.486 1.154-.945 1.735-1.413.58-.469 1.146-.959 1.75-1.394.599-.432 1.263-.773 1.853-1.214.595-.446 1.126-.977 1.702-1.448.578-.473 1.175-.922 1.768-1.374.594-.452 1.183-.912 1.794-1.339a30.687 30.687 0 0 1 1.873-1.223c.639-.38 1.332-.674 1.955-1.078.62-.4 1.183-.892 1.918-1.456.055-.786.257-1.714.16-2.602-.374-3.399 2.139-5.56 5.129-6.769a4.103 4.103 0 0 1 1.079-.263c1.135-.125 2.116-.542 3.052-1.24 1.357-1.01 2.893-1.214 4.461-.6.846.331 1.684.693 2.487 1.112 2.665 1.387 5.222 3.011 8.341 3.343.227.024.421.296.711.514-.228.213-.384.483-.585.527-2.395.527-4.29 1.777-5.543 3.897-1.361 2.304-3.258 3.725-5.964 4.007-1.419.15-2.637.92-3.819 1.635-2.293 1.387-4.479.928-6.57-.136-.732-.372-1.18-1.274-1.885-2.082-.279.095-.743.165-1.111.391-2.696 1.66-5.478 3.204-8.027 5.068-2.839 2.077-6.034 3.733-8.35 6.47-1.135 1.341-2.35 2.697-3.124 4.24-1.382 2.752-3.158 5.24-4.914 7.735-1.438 2.044-3.146 3.904-4.734 5.845-1.759 2.15-3.56 4.267-5.257 6.462-.611.792-.995 1.762-1.435 2.672-.095.196.015.486.041.925 1.024-.496 1.918-.92 2.805-1.359 4.084-2.023 8.217-3.951 12.231-6.108 2.615-1.406 5.042-3.169 7.579-4.727 2.217-1.362 4.442-2.716 6.716-3.975 4.238-2.347 8.708-4.154 13.212-5.914 3.109-1.215 6.194-2.656 9.014-4.436 3.931-2.482 7.704-5.265 10.865-8.73 1.635-1.793 2.133-4.09 2.456-6.38.204-1.438.295-2.872 1.339-4.033.023 1.518.075 3.03-.354 4.535-.245.863-.49 1.772-.134 2.792 1.613-.178 2.955-.92 4.126-1.969 1.872-1.675 3.759-3.344 5.517-5.133 1.721-1.749 3.619-3.206 5.817-4.266 2.227-1.073 3.681-2.77 4.408-5.105.136-.436.378-.84.545-1.27.955-2.458 1.486-4.91.582-7.5-.441-1.266-.57-2.645-.833-3.934-.306-.013-.532-.095-.642-.015-.835.601-1.645 1.253-2.765 1.025-1.545-.315-3.097-.713-4.101-1.994-2.549-3.249-4.35-6.884-5.223-10.96-.262-1.224.15-2.37.593-3.486.514-1.297 1.031-2.575.557-3.912.502-.318.818-.275.958.166.38 1.2 1.211 1.95 2.278 2.578 1.958 1.153 3.872 2.381 5.765 3.633 1.826 1.207 3.504 2.551 4.576 4.551.745 1.391.808 2.761.325 4.227-.086.262-.185.531-.335.761-1.8 2.757-.767 5.463-.047 8.166.055.21.376.341.568.504.997-.68.759-2.12 1.838-2.68-.162-.635.11-1.168.504-1.666.977-1.23 1.874-2.54 2.972-3.654.811-.823 1.326-1.729 1.844-2.773-.331-.167-.541-.347-.778-.382-1.099-.165-1.481-.933-1.692-1.882a66.847 66.847 0 0 0-.695-2.909c-1.086-4.023-.06-7.43 3.278-10.11 1.452-1.167 2.991-2.228 4.516-3.299 1.824-1.282 3.672-2.53 5.519-3.778.284-.192.619-.307 1.022-.502.131.356.352.654.275.795-.788 1.435-.431 2.82-.074 4.251.527 2.11.934 4.253 1.432 6.371.153.652.215 1.23-.219 1.83-.21.287-.322.672-.392 1.028-.753 3.86-3.478 6.225-6.533 8.297-1.417.96-3.035 1.344-4.841.955-.256.58-.521 1.051-.676 1.554-.868 2.798-2.779 5.006-4.328 7.42-1.846 2.876-3.681 5.76-4.817 9.001-.231.661-.543 1.296-.825 1.958.267.064.471.184.57.126 8.66-5.158 18.155-8.52 27.223-12.964.191-1.502.797-2.76 1.886-3.898 1.083-1.13 2.214-1.856 3.77-2.128 1.448-.253 2.884-.72 4.265-1.255 3.517-1.362 6.861-.918 9.674 1.221 2.415 1.837 5.125 2.183 7.94 2.525.327.04.65.107.983.162-.08.337-.064.59-.165.652-2.131 1.312-4.276 2.6-6.417 3.896-1.425.862-2.819 1.785-4.282 2.577-1.216.658-2.473 1.298-3.782 1.713-2.525.8-5.104.63-7.668.278-1.083-.148-1.816-.822-2.485-1.568-.849-.946-1.707-1.868-3.077-2.537-1.602.676-3.319 1.351-4.994 2.122-1.518.7-2.961 1.571-4.489 2.246-1.61.711-3.292 1.253-4.923 1.917a378.523 378.523 0 0 0-6.929 2.916c-.194.083-.314.345-.64.723 1.132-.053 2.029-.116 2.926-.133.921-.016 1.841.025 2.762.017 2.173-.02 4.334.015 6.345.903-.298-.515-.25-1.044.058-1.61.332-.61.781-1.05 1.473-1.169 2.139-.365 4.228-.416 6.158.732.882.525 1.531 1.207 2.091 2.08 1.271 1.98 2.648 3.893 4.05 5.783.296.4.852.66 1.345.842.594.22 1.248.286 1.864.415.347.537.008 1.125-.355 1.082-2.846-.335-5.083 1.488-7.633 2.168a2.915 2.915 0 0 1-1.016.06c-.544-.054-1.075-.229-1.619-.253-3.136-.14-5.331-1.665-6.72-4.373-.496-.968-1.02-1.94-1.338-2.975-.198-.644-.034-1.406-.031-2.335-.409-.097-.903-.295-1.411-.323-3.13-.168-6.258-.254-9.399.187-4.305.605-7.911 2.545-10.955 5.63-.126.128-.208.306-.288.471-.037.077-.017.181-.036.46 5.429-.773 10.75-2.409 16.309-2.15-.13.26-.194.531-.28.541-2.187.242-4.284 1.192-6.543.932-.511-.059-1.072.251-1.611.384-2.883.707-5.78 1.36-8.644 2.142-1.148.313-2.198 1-3.341 1.353-2.609.81-4.422 2.664-6.201 4.565-1.794 1.916-3.74 3.652-5.998 4.985-2.734 1.614-5.339 3.403-7.911 5.262-1.498 1.082-3.192 1.891-4.782 2.85-.632.382-1.221.84-1.814 1.251.183.676.694.511 1.114.52 3.134.06 6.265.078 9.355.668a8.363 8.363 0 0 0 3.022.013c2.822-.524 5.626-1.136 8.245-2.46 2.155-1.09 4.385-2.028 6.574-3.048.242-.113.438-.326.752-.568-.219-.564-.491-1.13-.662-1.726-.605-2.113.113-3.865 2.104-4.869 1.998-1.008 4.054-1.919 6.305-2.137 1.473-.142 2.605-.676 3.486-1.968.788-1.156 1.862-2.077 3.403-2.195 1.07-.082 1.261-1.175 1.971-2.112.199.6.46.955.375 1.202-.661 1.92-1.278 3.863-2.128 5.705-.78 1.693-1.562 3.332-1.759 5.213-.224 2.133-1.498 3.77-3.088 5.125-1.724 1.47-4.517 1.637-6.513.471-.36-.21-.646-.618-.843-.999-.198-.386-.244-.85-.388-1.402-.42.041-.898-.058-1.091.13-1.997 1.947-4.6 2.737-7.027 3.873-1.228.574-2.617.833-3.927 1.97.631-.003.979.003 1.327-.007 2.124-.065 4.248-.109 6.372-.21 2.211-.104 4.42-.32 6.631-.389 4.271-.135 8.417-1.218 12.625-1.815 3.93-.558 7.917-.69 11.882-.89 2.172-.11 2.797-.414 3.512-2.389.374-1.036.733-2.076 1.042-2.952.357-.208.509-.363.675-.383 3.058-.38 6.086-.043 9.095.297 1.682.19 3.019 1.234 4.22 2.386 1.181 1.132 2.41 2.191 3.821 3.06 1.703 1.05 3.463 1.596 5.503 1.134.324-.073.692.055 1.035.11.053.01.085.126.144.22-.475.863-1.425.825-2.175 1.013-1.677.418-3.081 1.151-4.304 2.423-.682.71-1.666 1.161-2.563 1.63-1.198.628-2.452.752-3.752.317-1.605-.537-3.25-.607-4.891-.004-4.042 1.486-8.175-.943-9.205-4.484-.127-.438-.225-.883-.334-1.316-3.21-.52-12.77.283-15.879 1.334.1.117.175.298.292.327 4.364 1.061 8.728 2.122 13.101 3.146 1.197.28 2.098.911 2.814 1.891-3.375-1.682-7.234-1.64-10.704-2.904-2.669-.056-5.21-1.12-7.93-.799-.269.032-.558-.012-.823-.075-4.115-.977-8.223.258-12.642.154.779 1.072 1.7 1.28 2.543 1.405 4.145.62 7.512 2.73 10.73 5.156.286.216.598.401.984.656 1.032-.14 1.944-.937 3.135-.716 1.309.242 2.387.881 3.537 1.426 1.05.5 1.763 1.29 2.193 2.327.627 1.513 1.242 3.034 1.789 4.578.938 2.65.428 5.043-1.606 7.114-.196.2-.424.368-.619.568-1.087 1.116-1.51 1.452-3.053 2.061-1.861.735-3.348 1.999-4.833 3.277-.555.476-1.099.964-1.62 1.422-.548-.371-.34-.745-.131-1.005.913-1.138.581-2.25.056-3.351-.483-1.014-1.259-1.778-2.245-2.313-1.581-.858-2.621-2.257-3.557-3.693-1.058-1.623-1.639-3.382-.961-5.445.456-1.388.866-2.825.749-4.33-.07-.89.348-1.6 1.162-2.063.472-.269.93-.565 1.301-.792.112-.79-.419-.919-.789-1.095-1.895-.9-3.81-1.763-5.718-2.637a1.362 1.362 0 0 0-.257-.094c-2.588-.6-5.163-1.263-7.77-1.78-2.895-.573-5.1-.508-8.65.027.333 1.222.847 2.408.938 3.636.09 1.23-.243 2.501-.404 3.873.552.02.906.082 1.248.037 4.322-.569 8.198 4.437 7.095 8.599-.354 1.337-.726 2.673-.981 4.028-.325 1.714-1.163 3.087-2.481 4.232-1.682 1.461-3.332 2.955-5.204 4.618-.164-.596-.308-.97-.366-1.36-.228-1.521-1.148-2.642-2.068-3.777-2.197-2.713-3.895-5.69-4.454-9.207a43.644 43.644 0 0 1-.486-4.612c-.075-1.466.438-2.776 1.86-3.46 1.436-.69 2.696-.235 3.749.832.253.255.492.523.923.983.155-.585.292-.97.355-1.364a46.86 46.86 0 0 0 .368-2.735c.112-1.127-.09-2.164-.77-3.11-.565-.785-1.249-1.282-2.223-1.424-2.638-.385-5.259-.894-7.911-1.164-3.461-.353-6.795.265-9.964 1.891-1.732.89-3.544 1.618-5.32 2.418-.17.077-.404.11-.5.24-1.252 1.695-3.419 1.711-5.019 2.795-1.533 1.038-3.218 1.855-4.855 2.733-3.198 1.716-6.416 3.396-9.612 5.117-.715.385-1.376.875-2.408 1.54.708.168 1.019.281 1.341.312 1.538.149 3.149-.131 4.573.677l5.591.371.345-2.292c.345-2.247 1.881-3.966 4.077-4.368.691-.127 1.454.033 2.153.188.427.095.816.4 1.184.661 2.833 2.012 6.149 3.139 9.168 4.808.94.519 1.906.565 2.934.365.431-.084.897-.324 1.263.214-.027.133-.002.365-.104.453-1.754 1.513-3.556 2.974-5.28 4.522-1.246 1.118-2.679 1.681-4.287 1.74-1.213.045-2.38.193-3.517.659-.338.139-.717.188-1.083.243-2.463.378-4.27-.461-5.457-2.65-.599-1.105-1.041-2.296-1.626-3.61-.765-.063-1.671-.111-2.567-.222-.989-.121-2.047-.043-2.854-.781zm44.687-41.35c-.385-.543.065-1.009.189-1.507.332-1.336.695-2.668.96-4.015.139-.7.097-1.43.129-2.02-1.286-.56-2.503-.935-3.548-1.578-2.167-1.332-3.184-4.18-2.475-6.673.17-.598.526-1.167.879-1.695.305-.455.806-.789 1.085-1.255 1.436-2.393 3.117-4.583 5.212-6.454.662-.59.885-1.376 1.05-2.206.079-.398.31-.769.48-1.17.834.33.831.913.618 1.4-.414.945-.149 1.72.195 2.6a38.415 38.415 0 0 0 3.577 7.01c.438.672.727 1.448 1.03 2.2.515 1.277.384 2.495-.545 3.606-.705.844-1.32 1.784-2.126 2.517-1.168 1.062-2.436 2.062-4.332 1.702-.331 1.533-.588 2.96-.958 4.36-.296 1.122-.34 2.38-1.42 3.178zm-.016.05-.001-.038.017-.012.013.017-.029.033zM92.444 16.862c-.427.32-.822.752-1.3.903-1.813.568-3.159 1.877-4.681 2.89-1.065.71-2.033 1.636-1.766 3.157.96.233 1.875.745 2.894.098 1.562-.992 3.095-2.01 4.123-3.606.69-1.07 1.267-2.16.73-3.442zm-1.476-12.63c-.704 2.346-1.256 4.158-1.782 5.978-.066.23.014.498.028.774 3.151-1.298 3.043-3.518 1.754-6.753zm-4.042 7.257c.425-.327.846-.484.936-.746.665-1.93 1.931-3.714 1.783-6.144-.813.402-1.488.656-2.074 1.044-1.099.724-1.624 1.734-1.31 3.054l.665 2.792zm-5.773 4.367c-1.597 1.704-1.854 3.45-1.217 5.27.534 1.527 1.636 2.491 3.373 2.603.504-2.499.475-3.07-.327-4.597-.535-1.018-1.119-2.009-1.829-3.276zm3.311 3.16.655.852c.533-1 1.037-1.729.711-2.659-.889.266-.851 1.25-1.366 1.806zm1.393-1.858.866-.578a519.91 519.91 0 0 0-.594-.773c-.03.512-.831.883-.272 1.351zm.918-.51-.371 2.655c.191.003.297.038.365.001 1.053-.57 2.108-1.136 3.148-1.728 3.293-1.873 4.007-4.083 2.273-7.599-.361.316-.684.61-1.017.891-.922.777-2.022 1.422-2.724 2.358-.751 1.002-1.127 2.276-1.668 3.43l-.006-.009zm-2.378 2.29c.048-1.345.729-2.5 1.26-3.698.956-2.155.561-4.176-.336-6.317-2.363 1.75-3.304 3.921-2.993 6.533.168 1.41.615 2.786 2.069 3.481zm42.482 40.691c-3.038 1.68-3.495 2.058-4.76 3.918 1.812-1.003 3.214-2.012 4.76-3.918zM94.983 144.15c1.092.389 2.076.774 3.276.811-.832-1.083-1.511-2.034-2.271-2.916-.238-.276-.583-.731-1.239-.267l.234 2.372zm20.377-74.757c-3.772.583-5.304 3.324-7.762 5.747 3.129-1.559 5.407-3.368 7.762-5.747zm36.276-53.702c-1.175.993-1.73 1.802-2.289 3.505-.118.36-.04.78-.061 1.435l3.05-2.342c-.151-.818-.269-1.522-.419-2.218-.03-.14-.183-.254-.281-.38zm-5.826 11.016.142.575.212-.14a8.996 8.996 0 0 1-.354-.435zm20.161 14.925c-1.268-.569-2.335-.208-3.625.988 1.511-.224 2.643-.327 3.625-.988zM53.81 94.597l-.199-2.663c-.657 1.348-.38 2.032.193 2.664h.006zm36.721-36.315c-.266-.194-.536-.49-.797-.477-3.264.187-7.227 2.61-6.461 6.9.028.155.172.287.295.48.578.087 1.192.18 1.773.265 1.668-1.475 3.025-3.067 3.721-5.133.078-.23.308-.416.478-.619-.051-.717.523-1.033.991-1.416zm-.96 1.503c.034 1.892-1.327 3.244-2.413 5.041 1.941-.63 3.488-1.258 5.089-1.619 1.72-.388 3.001-1.358 4.144-2.582.854-.914 1.623-1.905 2.517-2.965-.66-.395-1.202-.702-1.726-1.036-1.336-.854-2.663-1.038-4.056.01-.805.605-1.666 1.134-2.503 1.696.041.738-.591 1.04-1.052 1.455zm76.54-18.166c.847.434 1.596-.05 2.935-.282-1.928-.333-1.973-.34-2.935.282zm-18.245-22.338c1.296-1.059 1.35-2.44 2.247-3.59-2.776.888-3.069 1.344-2.247 3.59zM70.142 41.126c-.345-1.285-1.222-1.834-2.564-1.897-1.316-.062-3.859.413-6.141 1.328 1.858 1.656 4.02 2.104 6.378 1.896.423-.037.841-.354 1.236-.584.38-.22.729-.492 1.091-.743zm21.045-4.557c.103.267.132.544.232.57 1.226.311 2.449.687 3.703.831.707.082 1.435-.28 1.649-1.36-1.863-.348-3.676-.715-5.584-.04zm30.319-12.216c-.871 1.081-1.139 2.325-1.102 3.585.017.571.336 1.253.748 1.65.78.75 1.799 1.105 2.971 1.02-.498-2.668-1.225-4.406-2.617-6.255zm-80.823 40.68c.412 1.14 1.154 1.488 2.003 1.52.817.03 1.646-.179 2.469-.189.885-.009 1.767.092 2.678.146-.471-1.956-2.026-2.524-3.497-2.838-1.247-.266-2.454.527-3.653 1.361zm136.593 18.731c-1.547-1.135-2.903-2.15-4.289-3.124-.188-.132-.54-.114-.796-.06-.82.167-2.106 1.148-2.963 2.193 2.646.778 5.803 1.194 8.048.991zM102.25 27.631c-.134.064-.273.121-.398.2-.025.015.003.114.006.175.134-.063.274-.118.4-.196.025-.015-.004-.117-.008-.179zm-13.738 6.73 1.211 1.16c.622-1.15 1.171-2.169 1.724-3.186.42-.772.747-1.617 1.588-2.07l-.42-1.559c-.495.271-.825.43-1.132.625-1.549.991-2.645 2.235-2.564 4.204.01.266-.241.55-.407.826zm44.063 3.35c1.006-1.197 1.555-2.392 1.342-3.83-.141-.956-.444-1.833-1.375-2.442-.533 1.471-1.007 2.756-1.457 4.05-.055.156.016.353.034.604l1.456 1.617zm-6.571 40.568c1.899-1.97 2.321-3 2.338-5.515-1.343-.002-2.286.698-2.913 1.79-.732 1.271-.398 2.452.575 3.725zM55.763 60.13c.82-.017 1.578.687 2.585.132-.236-.633-.456-1.127-.604-1.642-.447-1.549-1.573-2.395-3.021-2.888-.372-.127-.859-.39-1.148.21l2.188 4.188zm40.499 1.705c2.891-.562 5.211-1.01 7.529-1.469.066-.013.135-.114.165-.188.032-.078.018-.173.028-.315-.994-.389-2.03-.734-3.008-1.194-.996-.47-1.779-.186-2.47.561-.626.675-1.205 1.394-2.244 2.605zm-39.927-28.86c.396-.085.791-.186 1.19-.24.498-.069 1.001-.09 1.597-.14-.463-1.279-.32-2.535-1.217-3.457-.47-.484-.945-.872-1.651-.72-1.929.41-3.852.853-5.762 1.28.199 1.377 1.591 1.248 2.139 2.048 1.349.085 2.557.57 3.704 1.23zm-3.787-1.156c-.423.196-1.079-.124-1.301.66.44 1.024 1.068 1.977 1.914 2.615 1.604.193 2.825-.282 3.935-1.348-.312-.28-.561-.506-.808-.729-1.416.08-2.787.034-3.74-1.198zm3.824 29.496c-.154 1.211.352 2 1.075 2.497.8.548 1.8.723 2.814.382-.256-2.194-.77-2.583-3.889-2.879zm87.783-26.82c2.214-.087 3.651-1.3 5.031-2.512 1.278-1.12 2.653-2.242 2.988-4.218-1.547.44-2.989.764-4.373 1.26-2.449.876-3.588 2.58-3.646 5.47zm-32.434 72.896c-.036 1.755.207 3.325.855 4.965.859-.492 1.658-.903 2.029-1.941-.421-1.389-1.325-2.39-2.884-3.024zM54.12 49.661c-.596.548-1.086.84-1.349 1.266-1.227 1.99-.518 3.488 1.802 3.86.321.051.675-.08 1.189-.15L54.12 49.66zm102.031 10.157c.798 1.55 1.315 2.681 1.963 3.73.184.297.763.522 1.142.49 1.162-.099 2.286-.405 3.259-1.263l-6.364-2.957zm-42.218 73.305c1.16 1.974 1.446 3.956 3.575 4.762.996-.473 2.236-.553 3.038-1.61-1.969-1.232-3.661-2.783-6.613-3.152zm63.502-48.136c-2.865-.253-5.038-.84-7.559-.714.899 1.43 1.553 2.704 2.789 3.478 1.928.012 2.985-1.374 4.77-2.764zM91.626 68.622c-2.419-.673-4.193-2.829-6.994-1.049.372.621.553 1.395 1.008 1.603 1.839.842 3.762 1.48 5.986-.554zm71.99-6.94c-.663-1.152-1.035-1.989-1.585-2.686-.368-.466-.947-.962-1.503-1.045-1.222-.184-2.484-.082-4.007.663 2.17 1.592 4.027 3.031 7.095 3.067zm-3.639-4.866-1.016-2.069c-1.75-.34-3.258.03-4.704.714-.372.176-.644.566-.955.853.994 1.42 2.163 1.733 3.684 1.19.864-.31 1.795-.42 2.991-.688zm-45.682 75.051 6.139 2.986c-.861-1.374-1.421-2.298-2.012-3.202-.328-.502-.861-.697-1.435-.578-.697.145-1.375.398-2.692.794zm45.366-50.028c.685.238 1.075.451 1.489.501 1.001.122 2.031.084 3.017.264 1.793.326 3.4.248 4.927-1.058.812-.693 2.011-.927 2.609-1.945-2.502-2.952-5.612-3.137-8.308-.585-.661.625-1.466 1.1-2.201 1.647-.429.32-.85.651-1.533 1.176zM61.537 56.794c-.112-.228-.303-.449-.322-.688-.174-2.125-1.514-3.304-3.252-4.279-.954 2.81-1.012 3.083-.345 4.61.458 1.05 1.047 2.04 1.585 3.071 1.424-1.103 1.424-1.103 2.329-2.718-.022.426.059.89-.092 1.267-.199.497-.618.905-.876 1.386-.475.885-.348 1.778.076 2.614.249.492.614.906 1.325.66.675-1.234.884-2.543.737-3.944-.091-.874-.473-1.5-1.165-1.979zm76.106 38.752c.143.067.286.19.428.183.13-.005.258-.149.388-.23-.154-.137-.287-.326-.468-.389-.094-.032-.272.153-.412.24-1.399-2.816-2.44-2.963-5.34-.624l-.1 3.603c1.635-.56 3.103-1.095 4.592-1.56.653-.206.825-.659.912-1.223zm-79.814 8.107c-1.155-.318-1.884.636-2.783 1.031-2.718 1.193-5.401 2.472-8.074 3.767-.813.393-1.713.759-2.101 1.804.281.045.594.205.775.109 3.622-1.904 7.38-3.557 10.743-5.942.445-.315.97-.514 1.466-.77l.713-.548-.009-.012-.73.561zm94.001-42.04c1.033.973 2.255 1.85 3.778 2.246.405.105.878.268 1.282-.386-.425-.976-.858-2.039-1.353-3.07-.148-.309-.42-.62-.719-.778-.92-.483-1.488-1.224-1.914-2.144-.122-.266-.519-.4-.846-.635l-.228 4.767zm-11.076-28.558c.895.43 1.584.223 2.042-.698.614-1.235 1.214-2.475 1.329-3.92-.604-.9-1.247-1.774-1.798-2.703-.584-.986-1.08-2.025-1.716-3.234-1.383 2.13-1.544 4.251-1.084 6.413.299 1.405.81 2.761 1.227 4.142zm-23.261 96.91c-1.214-1.393-2.063-2.442-3.005-3.402-.274-.279-.844-.484-1.225-.411-2.143.414-4.184 1.141-6.318 2.391 1.509.84 2.735 1.601 4.035 2.215.629.297 1.426.533 2.093.421 1.339-.224 2.64-.706 4.42-1.214zm44.866-86.175c2.398 3.237 4.166 4.022 7.945 3.458-.307-.313-.511-.6-.784-.788-1.194-.817-2.465-1.535-3.599-2.424-1.16-.909-2.286-.909-3.562-.246zm-51.955 82.097c-.39-.261-.578-.447-.806-.529-2.377-.856-4.864-.682-7.344-.557-.178.01-.42.038-.519.154-.278.323-.498.697-.73 1.036 3.17 2.586 6.177 1.695 9.399-.104zm30.955-21.501c-.211.256-.528.47-.516.652.132 1.89-.601 3.558-1.35 5.241-.199.449-.466 1.047.243 1.532 1.384-1.436 3.555-1.71 4.943-3.127-.217-2.227-2.166-2.892-3.32-4.298zm6.01-4.76c-1.543-5.145-1.453-4.16-4.77-5.852-.942-.48-2.065-.79-3.065.17.186 1.145.892 1.863 1.764 2.366 1.963 1.13 3.976 2.177 6.071 3.315zm-17.093-64.138c.486-1.62.884-2.748 1.151-3.903.216-.937.034-1.865-.749-2.482-.822-.65-1.676-1.307-2.796-1.436-.587 2.226-.638 4.363.137 5.693.427.731 1.265 1.22 2.257 2.128zM92.711 68.204c1.724-.437 3.333-.806 4.915-1.269.457-.133.84-.533 1.467-.95-2.203-1.038-4.077-2.213-6.366-1.967-1.697.182-3.343.696-4.925 1.885 1.579 1.104 3.152 1.716 4.909 2.301zm-44.284.24c-.356-.457-.643-.9-1.37-1.014-1.478-.23-2.928-.114-4.383.124-.434.071-.922.256-1.242.546-.92.834-1.767 1.748-2.801 2.79 1.551.848 3.056 1.472 4.576 1.148 1.657-.354 3.449-.827 4.385-2.607.197-.374.545-.67.835-.988zm.064.022c.139.99-.489 1.655-1.096 2.327-.333.368-.674.73-1.074 1.16 1.318.315 2.132-.34 2.897-1.017.98-.869 2.001-1.633 3.233-2.124.446-.178.793-.616 1.437-1.139-2.175-.739-3.835-.358-5.397.793zm67.283 41.099c1.681-1.64 1.831-3.609 2.214-5.465.097-.467-.123-1.112-.422-1.502a7.572 7.572 0 0 0-1.761-1.641c-1.282-.856-2.52-1.739-3.544-2.905-.325-.369-.815-.594-1.358-.975-.224 1.101-.484 1.99-.57 2.888-.13 1.367-.189 2.796.575 3.973 1.32 2.032 2.754 3.994 4.866 5.627zm50.739-66.67c1.347 1.602 4.036 3.52 5.577 3.882.593.14 1.28.125 1.88-.02.799-.193 1.582-.527 2.316-.912.343-.179.552-.619.986-1.136-1.751-.865-3.225-1.692-5.025-1.725-.364-.006-.846.1-1.071-.087-1.545-1.28-3.049-.318-4.663-.002zM106.95 106.44c.288-.593.385-.965.611-1.229 1.253-1.463 2.037-3.046 1.845-5.023-.059-.609.262-1.257.36-1.893.079-.505.083-1.02.117-1.495-2.821.372-4.029 2.311-5.045 4.601.38 1.658.438 3.526 2.112 5.039zm56.506-18.448c1.089-.208 1.898-.395 2.716-.51.731-.103 1.477-.194 2.207-.165.787.031 1.563.208 2.628.362-.759-1.492-1.657-2.488-2.538-3.492-.17-.193-.432-.393-.676-.42-2.242-.265-4.482-.625-6.88-.34l2.543 4.565zm-21.909-66.794c.557 3.091 1.056 3.976 3.195 5.7.694-1.43 1.302-2.868 2.075-4.215.571-.998.57-1.92.158-2.886-.271-.634-.6-1.243-.978-2.016a38960.07 38960.07 0 0 0-4.45 3.417zm38.356 16.92c-1.469-1.645-3.168-2.368-5.114-2.687-.851-.139-1.659-.069-2.444.262-2.011.85-3.463 2.318-4.842 4.318l6.575 1.131 5.825-3.025zm-51.67 40.31c.262.902.266 1.651.644 2.026.467.462 1.224.804 1.894.862 2.56.224 4.303-1.024 5.5-3.483-2.676-.527-5.133.192-8.038.595zm28.872 4.246c.446 3.228 2.179 4.968 4.913 5.15-.455-2.7-2.068-4.23-4.913-5.15zm-32.068-44.806c.983 1.858 2.655 2.152 4.337 2.412l2.322-1.784c-2.096-1.526-4.243-1.43-6.659-.628zm59.22 3.27c-.691-.139-.878-.239-1.032-.198-2.603.683-5.223 1.206-7.916 1.204-.148 0-.303.292-.516.511 1.059.436 1.961.884 2.917 1.17.482.143 1.124.143 1.586-.053a31.391 31.391 0 0 0 4.961-2.634zm-81.878 20.22c-2.682.608-4.724 1.066-6.761 1.55-.113.027-.178.267-.382.595 1.509.562 2.85 1.441 4.67 1.518l2.473-3.664zm6.402 34.385c-.224-.325-.4-.63-.625-.89a2.063 2.063 0 0 0-.626-.506c-1.003-.49-2.311-.029-2.814.966-.537 1.063-.431 2.638.286 3.977.531-.625 1.003-1.293 1.59-1.84.653-.61 1.411-1.109 2.189-1.707zm55.315-18.599c-1.51-.267-2.602-.238-3.677-.094-.409.055-.976.325-1.138.653-.544 1.097-1.221 2.2-1.07 3.731 2.445-.749 4.081-2.249 5.885-4.29zm-54.478 27.26c-.712.151-1.059.693-1.324 1.285a18.294 18.294 0 0 0-.69 1.809c-.049.151.01.389.108.52 1.054 1.413 1.947 2.961 3.342 4.286.287-1.912-.555-6.328-1.436-7.9zm-43.126-5.734c2.738-1.546 5.492-3.067 8.211-4.647 2.79-1.622 5.831-2.793 8.445-4.77-.66.011-1.294.097-1.845.361-5.187 2.484-10.276 5.142-14.811 9.056zm40.303 36.008c-.283-1.273-.321-2.005-.604-2.622-1.582-3.456-1.068-3.287-4.548-4.381-.355-.112-.753-.098-1.531-.189 2.329 2.425 3.596 5.205 6.683 7.192zm-5.15-103.184c-1.206-.218-2.054.032-2.895.47-1.722.892-3.464 1.746-5.194 2.622-.289.147-.756.174-.58.703 3.69.83 6.745.111 8.669-3.795zM98.992 141.62l-2.654-4.533c-2.145-1.183-2.145-1.183-5.033-.874 1.639 2.162 3.758 3.658 6.035 4.954.412.233.943.266 1.652.453zm7.192-12.165c.424 1.383.834 2.545 1.132 3.736.279 1.121.937 2.076 1.82 2.595 1.699.997 3.568 1.719 5.39 2.503.254.109.643-.077 1.06-.14-.815-1.588-1.496-3.035-2.293-4.414-.348-.601-.854-1.179-1.431-1.56-1.2-.793-2.477-1.484-3.762-2.143-.534-.274-1.169-.36-1.916-.577zM67.206 36.447c-.297-1.515-.622-3.103-.916-4.697-.214-1.165-.802-1.993-1.964-2.368-1.381-.446-2.744-.95-4.144-1.333-.478-.13-1.045.04-1.545.07.253.905.523 1.663.67 2.446.275 1.47 1.207 2.418 2.434 3.086 1.8.98 3.648 1.872 5.465 2.796zm.049 1.703c-.996-.87-1.62-1.53-2.357-2.035-1.518-1.037-3.185-1.96-5.074-1.852a9.28 9.28 0 0 0-5.225 1.946c1.312.854 2.893.923 3.922 2.058 1.072 1.184 2.533 1.333 4.071.98 1.443-.333 2.884-.678 4.663-1.097zm93.837 3.413c3.245-.335 6.124-2.146 7.734-4.944-1.68.27-3.222.576-4.609 1.242-1.518.73-2.649 1.95-3.125 3.702zM67.36 31.181c-.113.208-.299.392-.27.52.468 2.015.897 4.043 1.49 6.02.195.65.841 1.14 1.699.926.708-1.015.745-2.058.38-3.147-.607-1.816-1.456-3.438-3.299-4.319zm72.689 71.549c-1.64 1.952-4.322 2.035-5.021 4.559l3.422 2.963c1.659-2.259 1.77-4.62 1.599-7.522zm-9.39-26.225.214.524c1.534-.12 3.087-.123 4.595-.405.872-.163 1.647-.736 1.868-1.816.235-1.148.637-2.266.964-3.39-.778-.272-1.273.145-1.793.555-1.521 1.198-3.058 2.378-4.589 3.565-.418.324-.839.645-1.259.967zm15.362 31.413c.527-.606 1.026-1.142 1.481-1.711 1.041-1.302 1.158-2.601.281-4.051-.532-.879-1.132-1.642-1.975-2.188-1.654-1.07-3.294-2.177-5.359-2.757-.063 2.362.429 4.523 1.612 6.504.182.305.465.552.714.813.991 1.041 1.986 2.076 3.246 3.39zm-6.706-10.97c-1.005.246-1.815.391-2.591.647-1.31.433-2.643.841-3.881 1.442-.926.45-1.747 1.34-1.605 2.384.283 2.078 1.256 3.831 3.191 5.163.65-1.393 1.583-2.298 2.805-2.802 1.401-.578 2.186-1.636 2.748-2.955l-.667-3.879zm-96.959 14.27c-.57.585-1.136 1.173-1.712 1.752-.322.324-.615.812-.998.915-1.471.393-2.112 1.634-2.982 2.65 2.264-1.367 4.388-2.893 5.692-5.317zm53.278 23.912c-.067-.9-.716-1.441-1.109-2.105-1.081-1.832-2.713-2.285-5.266-1.395-.679.237-.969.826-.8 1.552 2.124 1.404 4.358 2.447 7.175 1.948zm25.895-104.06c.444 2.464 1.346 4.267 2.867 5.665 1.379.066 2.589-.109 4.014-.655-2.093-2.062-3.696-4.284-6.881-5.01zM111.522 95.62c1.678 2.988 4.207 4.398 6.945 5.914-.069-2.502-1.057-4.213-2.882-5.448-1.155-.782-2.393-1.157-4.063-.466zm24.208-24.897c-1.273.141-2.361.228-3.439.39-1.59.241-2.777.938-3.04 2.713-.117.787-.395 1.553-.602 2.34 1.211.227 1.881-.552 2.593-1.07 1.562-1.137 3.045-2.384 4.543-3.608.076-.062-.018-.334-.055-.765zm-9.433-39.265-.117-.048c.119-.434.301-.863.346-1.303.337-3.302.277-3.436-2.386-5.148-.216-.139-.585-.047-.827-.06.984 2.292 1.912 4.451 2.846 6.594l.138-.035zM138.2 68.147c-1.25.745-1.25.745-1.132 1.877l1.132-1.877zm-49.673 72.046c-.064-.219-.161-.451-.089-.612.653-1.436.341-2.817.066-4.254-.246-1.291-1.104-2.036-2.003-2.765-.664-.539-1.57-.399-2.272.185-.77.641-.97 1.285-.606 2.173.804 1.961 2.133 3.544 3.71 4.916.283.247.78.254 1.194.357zm.089.1c.676 1.974.701 1.989 2.786 2.636.751.234 1.518.423 2.469.686l.028-3.785c-1.475-.877-2.378-2.475-4.017-3.432-.154 1.535-.253 2.865-1.266 3.895zM50.57 66.084c-.325-1.04-1.2-1.137-2.097-1.506.338 1.284.338 1.284 2.097 1.506zm51.601-36.499-.217.054.138.284c.054-.055.131-.104.154-.17.015-.043-.047-.11-.075-.168zm34.478 13.25c.094.115.19.23.271.353.047.073.043.181.09.253.021.033.113.02.203.03.842-1.27 2.136-2.28 2.585-4.259-.623.598-1.03.922-1.354 1.314-.621.751-1.2 1.536-1.795 2.308zm14.132 16.592.498-.183-.587-3.144-1.054.67 1.143 2.657zM99.22 144.591c.456-1.336.422-1.478-.577-1.918-.171-.076-.452.084-.777.157l1.354 1.761zm-43.857-94.23c.504 1.994.504 1.994 1.273 2.76.096-1.098.534-2.182-1.273-2.76zm123.619-10.456c2.525.666 2.627.652 4.468-.368-1.59-.733-3.077-.94-4.468.368zM140.08 67.581a52.675 52.675 0 0 0-.515-.108c-.2.363-.447.713-.579 1.098-.055.16.135.398.213.601.204-.124.516-.205.591-.38.161-.378.2-.805.29-1.21zM58.368 65.4c1.211.918 2.272 1.897 4 2.236l-.841-2.383-3.159.147zm88.285-39.792-.825.992 1.079-.644-.254-.348zm.34.406c-.011.394.012.795-.074 1.174-.09.398-.586.762.024 1.23 1.166-.342 2.396-.674 3.607-1.065 2.079-.67 3.149-2.242 2.934-4.37a11.308 11.308 0 0 0-.911-3.539c-1.611.964-3.062 1.895-4.321 3.04l-.666 2.381h-.002c.171.55-.161.872-.591 1.15zm.494-1.166c-.117-.024-.235-.05-.352-.048-.53.015-.795.192-.474.686l.826-.638zM37.035 67.441c-.633 1.145.419 1.505.825 2.195 1.067-.28 2.113-.345 2.145-1.638-1.066-.198-2.021-.375-2.97-.557zm0 0 3.377-.765c-.23-.299-.348-.559-.552-.689a1.372 1.372 0 0 0-.765-.19c-.254.014-.56.108-.744.275-.468.422-.88.905-1.314 1.364l-.002.005zm141.802-27.484c-.196-.017-.395-.046-.585-.015-.058.01-.083.258-.123.396.076 0 .172.027.225-.009.167-.114.325-.244.483-.372zm-85.735-9.632c.148.656-.235 1.144-.585 1.665-.501.747-1.03 1.505-.897 2.661 1.959-.962 3.738-1.959 5.609-2.72 2.042-.833 2.787-2.44 3.358-4.384-.672-.175-1.196-.324-1.727-.447-1.777-.415-3.263.092-4.436 1.527-.453.556-.882 1.132-1.322 1.698zm57.6 24.566c.523.308 1.004.781 1.708.516 1.517-.569 3.029-1.156 4.622-1.767-1.339-.77-1.342-.746-2.241-.857-1.863-.23-3.405.117-4.089 2.108zm-62.036 49.666c-.756.6-1.641.57-2.537.572-.593.001-1.241-.29-1.884.308 1.135 1.142 2.472 1.75 4.135 1.957.832-.716 1.675-1.428 2.494-2.166.108-.097.09-.333.139-.542l-1.117-.428c-.379.274-.746.621-1.23.299zm1.188-.315-.009-.004c.022-.249.162-.623.048-.728-1.677-1.558-3.314-1.36-5.111.74.615.084 1.105.198 1.601.208.766.016 1.55-.395 2.302.013l1.169-.229zm-15.199.65c1.369 3.853 2.374 4.762 4.825 4.367-1.251-1.79-2.291-3.644-4.825-4.367zm.167-1.72c.998.317 1.543-.272 1.979-.837.975-1.261 2.046-2.392 3.405-3.252.44-.277.308-.81-.174-1.052-.691-.346-1.399-.379-2.144-.172-1.128.315-2.053.98-2.621 1.96-.6 1.038-.857 2.197-.445 3.353zm11.185-1.554-3.922-2.3c-2.455.814-2.935 1.217-4.777 4.006.212.141.409.372.642.41 1.174.194 2.357.346 3.54.492.27.034.56.025.826-.036.264-.06.54-.169.756-.329.955-.707 1.89-1.44 2.935-2.243zm-4.851 7.437c.901-.094 1.801-.242 2.702-.268.881-.025 1.759.063 2.774-.688-3.051-1.9-5.813-3.727-9.8-3.418 1.759 1.466 2.33 3.581 4.324 4.374zm28.892-64.1c1.328 1.894 2.425 3.67 4.657 4.207.796-1.058.227-2.146.287-3.2.114-2.019-.705-3.487-2.633-4.502-.94.99-1.537 2.228-2.311 3.495zm6.231 8.45c2.102-.707 3.343-2.099 4.406-3.777.736-1.159.649-2.136-.055-3.385-.573.695-.987 1.283-1.49 1.783-.587.583-1.245 1.097-1.886 1.622-.427.351-.905.642-1.318 1.008-.945.84-.876 1.484.343 2.748zm1.737-11.38c-.61.47-1.236.855-1.732 1.366-.296.304-.553.812-.542 1.213.043 1.597.07 3.206.338 4.944 1.419-.98 2.603-1.866 3.365-3.192.33-.573.58-1.187.312-1.832-.378-.91-.755-1.837-1.741-2.499zm-2.403.39c2.208-1.72 2.237-2.23.494-4.599-.552 1.438-.757 2.826-.494 4.6zm-6.401 3.352c-.314.543-.556.771-.555.991.003.91-.099 1.873.165 2.71.577 1.834 1.825 3.101 3.806 3.486 1.221.237 1.992-.517 1.721-1.743-.11-.493-.392-1.1-.792-1.339-1.661-.992-2.923-2.39-4.345-4.105zm5.72-7.246c-1.251.621-1.716 1.31-1.43 2.317.115.404.336.843 1.099.48l.331-2.797zm72.015 123.365c-.069-.346-.25-.713.184-.962.156.362.136.691-.184.962z"
        fill="#687E6B" />
</svg>