<svg width="199" height="125" fill="none" xmlns="http://www.w3.org/2000/svg"><g clip-path="url(#a)"><path d="M187.373 79.444c.071.603.124 1.208.216 1.807.403 2.65-.254 4.882-2.479 6.547-.327.244-.564.642-.77 1.009-.529.945-1.016 1.912-1.52 2.87l-.491-.13c.467-1.511.909-3.032 1.406-4.534.864-2.61 2.958-4.683 3.307-7.525.003-.023.179-.025.331-.044zm-7.831 12.107c-.498-.956-1.062-1.885-1.482-2.875a299.703 299.703 0 0 1-2.936-7.233c-.84-2.132-.723-4.268-.031-6.51 4.293 4.884 4.09 10.813 4.449 16.618zm-8.516 4.962-.268.328-1.904-1.551.254-.307 1.918 1.53zM157.858 67.62c-.17-4.317 2.18-6.973 4.468-10.11-.684 3.895-2.224 6.953-4.468 10.11zm-4.773-2.371c-1.274-2.187-2.435-4.088-3.504-6.04a110.94 110.94 0 0 1-4.365-8.861c-.77-1.76-.472-3.261-.349-4.937.507.66.841 1.375 1.216 2.067.824 1.52 1.443 3.226 2.55 4.507 3.025 3.504 3.945 7.76 4.784 12.08.053.27-.157.592-.332 1.184zm-26.135-7.916c-.385-.356-.768-.715-1.156-1.07-1.735-1.584-2.587-3.984-4.762-5.17-.054-.03-.018-.224-.033-.507.552.23 1.208.297 1.498.659 1.563 1.95 3.474 3.639 4.453 6.088zm-10.714-14.301c-.236-.55-.472-1.1-.71-1.65.142-.063.283-.126.423-.19l.69 1.669-.403.17zm-3.98-7.633a161.812 161.812 0 0 1-4.426-5.61c-.172-.227-.205-.56-.302-.845l.591-.2c1.318 2.253 3.167 4.187 4.137 6.655zm1.146-3.897c-.966-2.641-.33-5.198.069-7.706.393-2.48 1.103-4.908 2.534-7.168.227.679.385 1.138.532 1.6.042.133.056.275.082.413-1.142.202-.567 1.06-.492 1.569.31 2.09-.082 4.1-.77 6.013-.574 1.599-1.61 3.033-1.591 4.834.002.125-.2.252-.364.445zM97.426 10.989c-.739-1.66-1.339-3.552-.943-5.841 1.007 1.453 1.79 2.613 2.603 3.75 1.546 2.163 3.224 4.257 3.693 6.982.275 1.599.692 3.188.638 5.094-.322-.323-.449-.424-.544-.55-2.194-2.925-3.971-6.12-5.447-9.435zM84.167 7.194c-1.475-.004-2.934-.01-4.393-.013-.307 0-.615.026-.922.013-1.346-.06-2.695-.22-4.037-.171-2.121.077-4.191.037-6.177-.861-1.901-.861-3.731-1.802-5.536-3.563.867.1 1.338.18 1.812.206 1.526.083 3.063.293 4.578.183 2.201-.158 4.292.086 6.352.865 1.675.632 3.425 1.077 5.07 1.775 1.12.476 2.436.667 3.253 1.566zm7.629 17.412c1.073 1.568 1.925 3.287 2.851 4.952.143.255.188.564.359 1.104-1.737-1.308-3.187-2.47-4.711-3.522-.976-.675-1.546-1.574-1.965-2.635-.386-.978-.831-1.932-1.228-2.904-.229-.56-.417-1.136-.623-1.705l.299-.113c.847.79 1.698 1.578 2.539 2.375.844.802 1.836 1.507 2.479 2.448zm-27.832-1.57c-3.696-2.35-6.98-5.006-8.4-9.571 1.479.359 2.432.964 2.955 2.209.33.788.655 1.622 1.183 2.273 1.197 1.479 2.524 2.85 3.782 4.282.203.23.322.537.48.808zm1.802 5.01c-2.868 2.816-5.808 5.66-10.353 5.495 1.917-1.34 3.807-2.717 5.757-4.004 1.399-.924 3.587-1.544 4.596-1.49zM52.257 24.14c-5.076.979-10.154 1.89-15.151-.493.889-.518 1.782-1.163 2.769-1.586 2.222-.952 4.499-1.348 6.831-.265.428.199.949.188 1.41.329.629.194 1.269.386 1.855.678.761.38 1.474.856 2.286 1.337zm-28.39-1.301a22.244 22.244 0 0 1-3.761-1.936c-1.73-1.097-3.424-2.26-4.349-4.19-.329-.688-.761-1.08-1.633-.827.987-.737 1.828-.37 2.677.028 1.728.809 3.076 2.02 4.149 3.61.575.852 1.387 1.543 2.083 2.315.291.322.557.666.834 1zm.996 2.882c-2.355.867-4.554 1.753-6.803 2.483-2.618.85-5.232 1.739-7.979 2.118-.903.125-3.642-.256-4.805-.777l2.153-.858-1.08-.41c.592-.642.727.208 1.087.397 1.106-.614 2.232-1.197 3.315-1.85 1.345-.81 2.146-1.13 3.431-1.242l-.483-.654.187-.08.306.713c3.549-.722 7.069-.432 10.671.16zm-15.672.995-.83.646-.107-.241.937-.405zm96.002 18.787c-1.222-.144-2.441.827-3.717-.05 1.948-.572 2.148-.573 3.717.05zm-19.769-2.871.181.525c-2.042.827-4.107 1.599-6.118 2.494-2.21.982-4.527 1.173-6.892 1.208 4.083-2.052 8.142-4.146 12.829-4.227zm15.551 4.46c-.592.407-.903.657-1.248.849-.7.392-1.483.667-2.117 1.142a119.943 119.943 0 0 0-4.914 3.91c-.784.658-1.396 1.536-2.218 2.132-1.517 1.098-3.108 2.1-4.716 3.065-.745.447-1.562 1.037-2.556.375 1.362-1.071 2.762-1.978 3.917-3.13 1.17-1.167 2.1-2.576 3.203-3.965 1.51-.815 3.155-1.776 4.863-2.603 1.718-.832 3.391-1.877 5.786-1.775zm27.797 20.149c-4.19-1.464-7.576-3.824-10.215-7.453 4.501 1.094 7.563 3.896 10.215 7.453zm8.963 14.967c-.175.183-.25.337-.343.349-2.545.323-5.09.655-7.641.929-.753.08-1.168-.426-1.526-1.25 2.328-.235 4.487-.413 6.634-.69 1.026-.132 1.934-.01 2.876.662zm49.882-6.662c-.142-.345-.544-.581-1.116-1.157-.259.948-.457 1.56-.594 2.187-.522 2.4-1.031 4.71-2.573 6.827-1.142 1.569-1.468 3.733-2.203 5.76l-.82-5.304c-.538-3.484-1.579-6.772-3.919-9.5-.939-1.093-.828-2.441-1.02-3.691-.132-.86-.374-1.533-1.001-2.072-.8.037-.901.557-.93 1.162-.137 2.946-.492 5.9-.351 8.832.08 1.673.846 3.355 1.507 4.95 1.243 3.006 2.64 5.947 3.956 8.924.346.784.413 1.772 1.632 1.794.147.002.333.454.419.724.396 1.227.739 2.472 1.144 3.695.735 2.216 1.501 4.42 2.356 6.932-2.209-1.051-3.67-2.535-5.268-3.818-2.26-1.816-4.382-3.818-6.737-5.494-1.949-1.385-3.723-3.031-5.942-4.062-.693-.322-1.234-1.182-1.618-1.915-.748-1.426-1.38-2.876-2.563-4.061-.62-.621-.729-1.722-1.271-2.456-1.288-1.747-.988-3.92-1.712-5.813-.396-1.035-.475-2.19-.837-3.241-.543-1.578-.279-3.09.415-4.472 1.05-2.088 2.311-4.07 3.443-6.118.356-.646.649-1.342.858-2.05.595-2.004 1.29-4 1.637-6.05.253-1.493.078-3.073-.048-4.604-.03-.362-.628-.678-.96-1.011-1.047.355-1.369.999-1.471 1.983-.264 2.577-1.386 4.815-3.028 6.799-.794.96-1.245 2.077-1.766 3.203-1.065 2.304-.779 4.802-1.431 7.488-.766-2.14-.993-4.03-1.133-5.938-.257-3.485-.915-6.868-2.714-9.925-.467-.793-1.127-1.47-1.624-2.25a66.587 66.587 0 0 1-2.075-3.502c-.627-1.13-1.239-2.272-1.777-3.445-.411-.898-.787-1.831-1.013-2.788-.243-1.025-.861-1.07-1.769-.9-.861 2.387-.818 4.798-.437 7.333.465 3.096 1.786 5.753 3.338 8.375.531.898.837 1.926 1.287 2.876.293.617.626 1.22.996 1.795 1.265 1.96 2.608 3.873 3.821 5.865 1.482 2.435 2.519 5.052 2.982 7.894.137.839.591 1.624.887 2.439.294.808.476 1.673.875 2.423a203.26 203.26 0 0 0 3.953 7.062c.553.942 1.274 1.787 1.917 2.676l-.287.296c-.779-.537-1.566-1.065-2.337-1.615-.855-.612-1.642-1.337-2.551-1.85-3.062-1.73-5.722-4.043-8.071-6.54-2.994-3.181-6.115-6.4-7.775-10.602-.956-2.422-2.1-4.726-3.356-7.015-.818-1.491-1.412-3.211-2.25-4.74a19.907 19.907 0 0 0-3.614-4.744c-.212-.204-.596-.231-1.122-.42.173 1.542.953 2.593 1.798 3.338.691.61 1.064 1.273 1.447 2.023 1.549 3.044 3.116 6.078 4.666 9.122.131.257.183.555.057 1.05-1.322-1.043-2.651-2.08-3.964-3.133-.529-.425-.971-.985-1.546-1.326-2.473-1.464-4.172-3.671-5.829-5.925-.992-1.348-1.869-2.795-2.968-4.048-1.705-1.945-3.537-3.781-5.352-5.626-.874-.89-1.609-1.811-2.037-3.024-.89-2.524-1.922-4.998-3.55-7.162-.521-.692-.689-1.333-.416-2.236.37-1.227.345-2.573.709-3.804.449-1.521 1.139-2.97 1.697-4.46.875-2.344 1.376-4.7.959-7.264-.275-1.697.07-3.447.759-5.086.562-1.338.532-1.351-.749-2.395-2.109 1.119-3.193 2.983-4.069 5.147-.888 2.195-1.316 4.472-1.807 6.75-.062.284.096.609.064.906-.094.859.516 1.74-.371 2.622-.32.319.055 1.419.228 2.134.314 1.302.715 2.582.816 4.009-.857-1.283-1.665-2.602-2.591-3.833-.488-.65-1.171-1.151-1.774-1.716a.332.332 0 0 0 .029-.01c-.174-.318-.287-.695-.531-.945-1.936-1.981-2.592-4.328-2.572-7.091.012-1.807-.582-3.642-1.056-5.424-.883-3.32-3.1-5.84-5.125-8.505-.983-1.293-1.405-3.011-2.08-4.537-.175-.396-.277-.848-.536-1.177-.194-.246-.63-.51-.878-.447-.261.066-.514.484-.611.797-.124.406-.134.864-.116 1.295.123 2.943.223 5.908 1.446 8.649.803 1.802 1.767 3.535 2.709 5.27.502.927 1.083 1.813 1.682 2.682.347.502.714 1.152 1.223 1.347.873.337.898 1.045 1.132 1.715-1.391-.968-2.727-1.942-3.608-3.473-1.109-1.927-2.468-3.676-4.223-5.098-.568-.46-1.02-1.086-1.448-1.692-1.351-1.914-3.576-2.617-5.388-3.88-1.87-1.303-3.842-2.54-5.931-3.426-3.225-1.368-6.475-2.784-9.97-3.34-1.202-.19-2.47.055-3.708.066-1.041.009-2.105.095-3.12-.08C63.511 1.1 61.505 1.078 59.706 0l-.301.432c.225.53.301 1.25.697 1.562 2.568 2.014 5.078 4.04 8.177 5.364 3.172 1.354 6.372 1.17 9.599 1.195 3.61.029 7.157.16 10.574 1.562 1.473.605 2.724 1.423 3.819 2.529.904.912 1.814 1.82 2.657 2.787.855.98 1.833 1.927 2.404 3.064 1.582 3.15 4.533 5.008 6.766 7.533.392.444.869.857 1.12 1.375 1.53 3.157 3.649 5.917 5.747 8.695 1.269 1.68 2.453 3.414 3.19 5.413.162.44.412.849.793 1.619-1.137-.88-1.979-1.605-2.895-2.221-.925-.622-1.93-1.124-2.886-1.701-.961-.581-1.861-1.323-3.099-1.102 3.685 2.167 7.602 3.97 10.073 7.682-3.134-3.17-6.961-5.27-10.97-7.19.098-1.04-.484-1.605-1.445-1.936-3.343-1.15-5.496-3.576-7.135-6.597-1.208-2.225-1.824-4.78-3.674-6.65-.436-.44-.811-.95-1.286-1.341-2.304-1.894-4.659-3.735-5.964-6.591-.951.114-1.449.472-1.254 1.448.543 2.729 1.043 5.474 2.796 7.768.2 2.155 1.891 3.13 3.371 4.279.483.375.927.8 1.468 1.273l-1.425.374 3.418 1.994c-1.45-.194-2.754-.827-4.119-1.012-2.504-.34-4.564-1.776-6.903-2.496-.402-.124-.733-.48-1.097-.73l.135-.26 2.459.326c-.268-.938-1.107-1.192-1.857-1.126-1.963.175-3.718-.8-5.638-.836-1.027-.02-2.079-.56-3.066-.438-1.492.184-2.648-.471-3.855-1.035-1.289-.602-2.614-1.205-3.739-2.053-1.069-.806-1.973-1.87-2.819-2.926-1.623-2.023-3.373-3.956-4.542-6.321-.246-.498-.847-.946-1.386-1.15-1.421-.54-2.211-1.634-2.588-2.958-.257-.901-.727-1.21-1.694-1.321-.545 1.238-.128 2.522.138 3.699.695 3.08 2.522 5.669 4.282 8.18.978 1.397 2.753 2.237 4.178 3.315.459.346.945.656 1.419.983l-.146.387c-1.563-.047-3.213.21-4.669-.207-2.392-.684-4.627-1.895-6.986-2.718-3.052-1.066-6.025-2.553-9.419-2.192-1.021.109-1.984.277-2.899.858-2.162 1.373-4.535 2.242-7.186 2.475l-.029 1.256c3.55.84 7.071 1.676 10.598 2.512-.271.065-.599.21-.929.213-2.219.024-4.427.099-6.622-.491-1.777-.476-3.65-.594-5.439-1.04-1.84-.458-3.353-1.47-4.226-3.257-.131-.27-.311-.58-.555-.724-1.335-.785-2.011-2.15-3.001-3.236-1.821-2-3.906-3.691-6.711-4.276-1.787-.373-2.657-1.88-3.362-3.405-.404-.872-.879-1.473-2.033-1.265-.437.982-.192 1.916.357 2.764.471.727 1.051 1.385 1.6 2.059 1.291 1.584 2.548 3.199 3.899 4.729 2.024 2.293 4.714 3.59 7.455 4.79.265.115.531.226.741.652-1.915-.157-3.83-.323-5.746-.47-2.648-.2-5.158.384-7.554 1.458-2.412 1.08-4.795 2.225-7.185 3.355-.686.325-1.335.612-2.14.324-.293-.105-.703.118-1.162.212.111.829.15 1.398 1.238 1.476 2.526.183 5.033.72 7.557.785 1.909.049 3.88-.212 5.734-.686 2.948-.753 5.797-1.841 8.606-3.056 2.283-.986 4.717-1.058 7.196-.436 1.545.388 3.195.334 4.769.634 2.181.415 4.366.457 6.556.282 1.467-.116 3.005-.164 4.361-.657 3.116-1.133 6.393-1.406 9.593-2.067.775-.16 1.665.334 2.513.41 1.93.178 3.868.283 5.987.429-1.463.76-2.769 1.394-4.026 2.114-.691.396-1.301.936-1.944 1.417-.148.11-.26.306-.421.356-2.182.67-3.657 2.673-5.969 3.126-.706.139-1.358.558-2.027.846.068 1.493.07 1.54 1.343 1.469a190.53 190.53 0 0 0 6.497-.47c2.502-.224 4.209-1.924 6.116-3.3 1.345-.97 2.245-2.514 3.934-3.02a78.955 78.955 0 0 1 1.916-.546c.116-.031.325.04.36-.016.947-1.534 2.202-.583 3.41-.521 3.287.168 6.188 1.402 9.174 2.645 2.25.937 4.515 2.077 7.041 2.275.294.022.578.166.85.562-1.288-.025-2.577-.063-3.866-.072-.984-.007-1.968.04-2.952.028-.416-.005-.83-.122-1.247-.15-2.382-.156-4.745-1.01-7.152-.205-.219.073-.419.208-.986.497.899.086 1.416.144 1.934.184 1.899.144 3.799.276 5.696.425 1.391.109 2.778.314 4.168.337 2.02.034 4.05-.187 6.06-.053 1.43.095 2.843.56 4.246.928.934.246 1.755.91 2.819.688.21-.044.595.072.684.233.67 1.214 1.953 1.57 3.009 2.244.929.594 1.816 1.26 2.769 1.812 1.704.984 3.461 1.88 5.162 2.87.507.296.906.777 1.536 1.333-2.911.084-5.496.078-8.146-.433-2.187-.422-4.536-.01-6.813.055-1.169.033-2.337.117-3.507.16-.177.008-.429-.013-.526-.125-1.502-1.735-3.925-.704-5.608-1.878-.09-.062-.257 0-.365-.05-4.065-1.83-7.715-.123-11.315 1.447-2.267.989-4.515 1.978-6.923 2.56-.293.07-.646.122-.915.025-.775-.28-1.128.283-1.186.767-.037.31.457.908.814 1.003 1.717.463 3.452.86 5.267.708 3.748-.315 7.302-1.16 10.637-3.03 1.628-.913 3.427-1.791 5.468-1.311.3.07.644.012.914.134 2.349 1.06 4.775 1.15 7.285.754.892-.141 1.831.013 2.837.034-.174.193-.243.345-.336.363-3.477.646-6.527 2.334-9.44 4.18-1.515.96-2.741 2.45-3.919 3.85-1.055 1.255-2.157 2.336-3.642 3.086-.729.369-1.263 1.125-1.878 1.699.316.97.799 1.412 1.728 1.612 1.76.377 3.227.017 4.653-1.072 2.111-1.613 4.336-3.076 6.465-4.665 1.08-.806 2.128-1.681 3.064-2.647 1.708-1.761 4.027-2.373 6.116-3.403 1.327-.654 2.738-1.202 4.171-1.56 1.175-.291 2.489-.487 3.65-.26 1.495.293 3.005.872 4.319 1.648 2.53 1.493 4.896 3.157 6.734 5.61 2.243 2.997 5.109 5.455 7.956 7.908 3.475 2.994 6.952 5.976 10.644 8.706.714.528 1.196 1.398 1.711 2.16 1.354 2.002 2.598 4.08 4.021 6.032.895 1.228 2.046 2.268 3.055 3.415.323.365.563.802.675 1.504-1.03-.467-2.15-.803-3.073-1.428-2.303-1.56-4.66-3.088-6.723-4.933-2.101-1.88-3.876-4.124-5.795-6.207-.252-.273-.52-.531-.772-.804-2.146-2.324-4.305-4.637-6.428-6.982-1.672-1.85-3.766-3.093-6.061-3.86-1.751-.584-3.309-1.321-4.66-2.573-.518-.481-1.201-.786-1.903-1.231-.813 1.35-.042 2.22.588 2.958 1.355 1.589 2.91 3.009 4.246 4.613 1.013 1.214 2.228 2.074 3.562 2.866 2.59 1.538 5.352 2.788 7.615 4.888.866.804 1.84 1.707 3.146 1.932.173.03.362.136.487.263a605.924 605.924 0 0 1 3.96 4.054c.214.222.358.537.605.703 3.031 2.034 5.581 4.776 9.015 6.208 1.586.66 3.25 1.135 4.846 1.774.71.285 1.34.77 2.007 1.165l-.174.34c-.544-.197-1.087-.4-1.631-.594-1.391-.494-2.801-.94-4.168-1.492-.966-.391-1.862-.952-2.811-1.388a159.79 159.79 0 0 0-4.074-1.78c-.788-.334-1.606-.603-2.383-.96-2.717-1.246-5.544-1.05-8.38-.655-2.137.298-4.214 1.067-6.434.72-.338-.053-.737.284-1.108.442.187.422.265.982.585 1.237.51.407 1.168.812 1.787.852.858.056 1.559.375 2.288.719 1.993.939 4.121.76 6.193.559 2.258-.218 4.484-.754 6.736-1.067.517-.072 1.11.124 1.618.326 2.416.96 4.815 1.947 7.269 2.827 3.044 1.092 5.838 2.874 8.761 4.312 1.425.702 2.901 1.303 4.354 1.946.729.323 1.544.523 2.18.976 3.169 2.253 6.292 4.57 9.37 7.039-2.268.111-4.39-.639-6.397-1.387-2.025-.754-3.813-2.147-6.362-2.683.315.543.382.836.552.922 2.262 1.132 4.491 2.357 6.832 3.303 1.524.616 3.199.97 4.84 1.172 3.148.389 5.662 1.969 7.893 4.017 2.945 2.705 5.984 5.362 8.563 8.396 2.677 3.151 5.418 6.313 7.382 10.019a2.14 2.14 0 0 1 .622-.604 2.24 2.24 0 0 1 .525-.247 27.341 27.341 0 0 0-1.623-2.422c-.925-1.225-1.633-2.612-2.488-3.892-.687-1.026-1.37-2.073-2.192-2.987-2.358-2.624-4.903-5.113-6.68-8.181-.892-1.537-1.362-3.319-2.017-4.992-.203-.518-.488-1.029-.564-1.567-.384-2.72-1.292-5.426.83-7.994 1.004-1.216 1.738-2.634 3.021-3.664 1.227-.983 1.542-2.581 1.822-3.986.372-1.866.278-3.824-.383-5.683-.371-1.04-.684-2.102-1.108-3.118z" fill="#687E6B"/></g><defs><clipPath id="a"><path fill="#fff" d="M0 0h199v125H0z"/></clipPath></defs></svg>