<svg width="66" height="82" fill="none" xmlns="http://www.w3.org/2000/svg">
    <path
        d="M55.552 35.879c.28-.112.578-.223.897-.333.142-.048.267-.048.371.004.131.064.237.207.306.413.108.319.082.638-.088 1.098-1.279 3.478-2.568 6.868-4.24 10.09-.765 1.474-1.435 3.022-2.084 4.52-.284.655-.568 1.311-.86 1.963l-.058.123c-.08.168-.173.356-.185.564-.08 1.282-.768 2.261-1.495 3.298l-.303.435a20.596 20.596 0 0 0-2.836 6.024c-.182.642-.424 1.261-.705 1.977l-.13.332c-.104-.606-.15-1.147-.107-1.712.143-1.887.301-3.734.67-5.571.211-1.046.284-2.131.354-3.179.027-.396.053-.79.087-1.184.034-.402.072-.805.11-1.208.114-1.239.233-2.521.265-3.789.03-1.116.3-2.222.851-3.479.857-1.957 1.971-4.189 3.723-5.898.414-.403.81-.837 1.193-1.255.958-1.047 1.95-2.13 3.26-2.785a13.55 13.55 0 0 1 1.004-.448zM43.683 57.403c-.102.869-.22 1.733-.34 2.598-.102.732-.204 1.465-.294 2.198-.13 1.064-.175 2.126-.222 3.25-.009.245-.02.49-.032.74a6.472 6.472 0 0 1-.29-.914l-.03-.118c-.162-.606-.326-1.212-.49-1.817-.75-2.769-1.527-5.63-1.962-8.515-.08-.53-.148-1.061-.217-1.592l-.637-4.964c-.02-.15-.052-.3-.085-.452-.059-.271-.115-.528-.082-.758.154-1.091.006-2.158-.137-3.188l-.076-.565c-.654-5.073-1.487-11.051-2.71-16.918-.446-2.139-.383-4.136.194-6.102.8-2.724 2.1-5.181 3.17-7.047.922.31 1.366.95 1.767 1.868.713 1.632 1.207 3.436 1.51 5.516.432 2.969.818 5.928 1.152 8.798.095.815.117 1.658.14 2.474.011.406.022.811.042 1.216.044.906.091 1.81.14 2.715.102 1.963.21 3.992.275 5.989.034 1.002.007 2.027-.019 3.019-.014.55-.028 1.102-.033 1.651-.029 3.373-.269 6.945-.734 10.918zm-5.512 8.717c-.208-.793-.523-1.562-.828-2.307a37.64 37.64 0 0 1-.418-1.051c-.147-.392-.3-.78-.454-1.169-.468-1.186-.952-2.412-1.23-3.681-.12-.55-.359-1.075-.597-1.56-.579-1.179-1.06-2.427-1.528-3.633a75.807 75.807 0 0 0-.86-2.16 23.684 23.684 0 0 0-.568-1.22c-.202-.414-.41-.841-.589-1.27l-.748-1.806c-1.033-2.489-2.102-5.064-3.082-7.62-.675-1.76-1.299-3.574-1.903-5.328-.314-.915-.628-1.828-.95-2.739l-.037-.1c-.203-.575-.413-1.166-.69-1.722a9.343 9.343 0 0 1-1.013-4.093c-.022-1.144.026-2.307.072-3.432.022-.521.043-1.04.058-1.56.055-1.9-.059-3.832-.17-5.7l-.045-.773c-.04-.729-.048-1.332.271-1.901 1.046-1.866 1.14-3.948 1.143-5.754 0-.092-.005-.184-.01-.277-.008-.172-.017-.335.01-.483.037-.214.161-.404.335-.445.162-.061.34-.023.498.106l.163.132c.642.523 1.306 1.063 1.813 1.694 1.298 1.618 2.751 3.592 3.683 5.964 1.222 3.101 2.214 6.34 3.173 9.472l.433 1.409c.375 1.218.61 2.509.835 3.757.057.319.115.637.175.953.392 2.077.778 4.261 1.18 6.677.224 1.347.425 2.697.624 4.047l.205 1.373c.053.357.103.715.152 1.072.084.605.168 1.21.271 1.812.292 1.696.39 3.019.318 4.292-.03.537.054 1.076.135 1.598.028.177.055.354.078.53l.131 1.022c.144 1.138.293 2.315.484 3.466l.123.747c.286 1.747.583 3.554 1 5.306.412 1.744.902 3.497 1.375 5.192.23.821.46 1.643.681 2.465l.251.92c.267.973.544 1.979.764 2.976.437 1.988 1.18 3.893 1.896 5.736l.047.12c.081.208.134.434.195.696l.048.2-1.769.349-.167-.307c-.18-.327-.35-.636-.495-.958a275.558 275.558 0 0 1-2.217-5.022l-.17-.399c-.773-1.806-1.572-3.674-2.082-5.613zm-11.474.28c.49.437 1.02.839 1.532 1.227.415.315.845.641 1.247.981a45.455 45.455 0 0 1 1.815 1.653l.197.186-1.712-.357a918.214 918.214 0 0 0-6.127-1.269c-.889-.18-1.806-.366-2.74-.424a3.531 3.531 0 0 1-2.074-.816c-1.567-1.277-3.408-2.061-5.188-2.818-.38-.162-.759-.324-1.137-.49a71.192 71.192 0 0 0-2.823-1.152 89.39 89.39 0 0 1-2.113-.845 13.029 13.029 0 0 1-3.37-2.051c-.2-.167-.374-.385-.542-.595a14.176 14.176 0 0 0-.144-.18c.37-.815 1.057-1.129 1.775-1.425.25-.098.551-.162.872-.183l.11-.008c2.111-.147 4.297-.301 6.423.072 1.535.269 3.068.546 4.597.839.93.179 1.653.538 2.278 1.131 2.457 2.334 4.98 4.607 7.124 6.524zm-3.736-13.908a61.7 61.7 0 0 0 1.286 1.602c.481.586.978 1.191 1.44 1.804l1.27 1.682c1.755 2.32 3.57 4.717 5.254 7.143.812 1.17 1.49 2.472 2.144 3.732.228.438.455.874.688 1.307.467.867.905 1.77 1.33 2.643l.321.661a20.127 20.127 0 0 0-.132-.096 15.276 15.276 0 0 1-.927-.701c-.586-.492-1.166-.992-1.746-1.492-1.076-.927-2.188-1.885-3.324-2.779-.266-.209-.535-.415-.803-.621-.778-.598-1.583-1.216-2.312-1.9a212.841 212.841 0 0 0-5.613-5.12c-1.702-1.491-3.035-2.756-4.196-3.979-.298-.314-.59-.637-.88-.958-.68-.749-1.382-1.524-2.162-2.191-1.18-1.01-2.224-2.19-3.235-3.332-.808-.913-1.644-1.858-2.55-2.717-2.018-1.913-3.669-4.252-5.048-7.148a44.18 44.18 0 0 1-.337-.731c-.242-.537-.493-1.093-.793-1.615-.544-.951-.87-2.045-1.029-3.446-.143-1.27-.22-2.573-.296-3.834l-.07-1.144a1.335 1.335 0 0 1 .051-.362l.012-.052c.432-.071.811.098 1.251.325 2.291 1.179 4.334 2.274 6.15 3.754 2.144 1.748 3.613 3.461 4.62 5.39 1.976 3.78 3.832 6.687 5.843 9.15.802.98 1.568 2.024 2.31 3.033.49.667.98 1.336 1.483 1.992zm-2.486-29.511a1.842 1.842 0 0 1-.199-.124c-1.21-.915-2.127-2.149-3.014-3.341l-.158-.213c-1.499-2.013-2.753-3.687-4.118-5.375-1.395-1.728-2.265-3.752-2.659-6.194-.278-1.731.387-3.245 1.145-4.622.174-.316.441-.545.81-.692.112-.046.234-.083.366-.113 2.02 3.72 6.862 16.551 7.827 20.674zm.66-13.087c.051 1.335.164 2.686.273 3.993.072.867.144 1.734.2 2.6a30.072 30.072 0 0 1-.118 5.112.56.56 0 0 1-.04.132c-.335-.972-.657-1.923-.973-2.857-.854-2.516-1.659-4.893-2.57-7.245-.274-.702-.539-1.408-.804-2.112-.968-2.57-1.967-5.225-3.28-7.621.26-.534.62-.615.973-.617 2.241-.026 3.714.745 4.634 2.424a13.706 13.706 0 0 1 1.705 6.191zM4.14 16.819c-.622-1.504-.475-2.994-.228-4.267.352-.096.622.042.953.241 2.548 1.541 5.346 3.083 8.531 3.92.18.047.403.225.612.488.784.991 1.486 1.887 2.13 2.821.99 1.432 2.237 3.063 3.993 4.293.52.364.9.868 1.165 1.541.22.561.45 1.12.678 1.679.557 1.361 1.133 2.767 1.576 4.185 1.175 3.761 2.625 7.383 4.01 10.771a704.512 704.512 0 0 0 2.105 5.08l.616 1.48 1.022 2.44c.72 1.715 1.44 3.43 2.137 5.154.304.752.57 1.537.826 2.296.135.399.27.798.411 1.196.266.75.53 1.502.792 2.254.634 1.812 1.29 3.686 1.991 5.509.538 1.397 1.14 2.792 1.723 4.141.347.804.694 1.608 1.03 2.416.44 1.061.864 2.126 1.297 3.214l.51 1.279-1.229.668-.018-.045a8.672 8.672 0 0 1-.187-.474 58.983 58.983 0 0 0-4.269-9.451 58.818 58.818 0 0 1-1.802-3.403c-.617-1.288-1.455-2.443-2.265-3.56-.35-.484-.703-.968-1.037-1.463-.74-1.095-1.57-2.15-2.375-3.17l-.453-.574a205.832 205.832 0 0 0-1.754-2.198c-.782-.97-1.59-1.973-2.36-2.977a291.795 291.795 0 0 1-4.329-5.823l-.493-.672c-.776-1.057-1.579-2.15-2.265-3.28-1.654-2.728-2.95-4.996-4.08-7.136-.46-.872-.91-1.748-1.363-2.625-1.012-1.964-2.059-3.995-3.189-5.946-1.595-2.752-2.684-5.108-3.427-7.415-.294-.913-.677-1.841-.985-2.587zm12.528 59.68.625-.549-.042-.146c-.199-.704-.744-.876-1.14-1.001l-.164-.054c-.959-.33-1.973-.64-3.099-.944-1.28-.349-2.38-.799-3.389-1.392-.353-.208-.378-.221-.735-.85.87-.879 1.996-1.478 3.633-1.93 2.105-.58 4.288-.431 6.4-.288l.406.028c3.223.215 6.438.895 9.547 1.552l.59.124c1.523.32 2.82.712 3.964 1.197.83.352 1.585.957 2.316 1.545l.147.118c2.444 1.957 2.751 2.404 3.656 5.304.037.121.04.268.043.453-1.374-.588-2.758-.899-4.1-1.201-.312-.07-.623-.14-.934-.213-.363-.087-.73-.202-1.087-.313a14.491 14.491 0 0 0-1.242-.351c-4.562-.995-8.723-.9-12.723.292-.606.181-1.21.365-1.816.549l-.847.259c-.87.264-1.699.514-2.66.503.276-.653.771-1.071 1.29-1.51l.096-.081a82.55 82.55 0 0 0 1.265-1.101zm41.54-17.28a47.6 47.6 0 0 0 1.153-.104c.733-.071 1.31-.127 1.895-.11.786.022 1.554.08 2.297.51-.87.723-1.813 1.126-2.632 1.428-1.407.52-2.619 1.305-3.84 2.137a9.256 9.256 0 0 1-1.073.66c-2.432 1.209-4.29 3.113-5.988 4.958-.702.763-1.238 1.685-1.756 2.577-.16.274-.318.549-.483.818-.919 1.512-1.504 2.736-1.896 3.973-.015.046-.067.108-.113.163-.056-.018-.087-.078-.145-.235a43.293 43.293 0 0 0-.218-.562c-.46-1.178-.894-2.289-.803-3.527l.052-.761c.128-1.892.261-3.848 1.074-5.631.132-.289.213-.597.291-.894l.016-.061c.561-2.136 1.633-4.009 2.775-5.898 1.07-1.767 2.47-3.187 3.822-4.461 1.501-1.407 3.368-2.318 4.996-3.024.058-.025.116-.05.175-.073.401-.161.825-.29 1.236-.417.342-.105.685-.21 1.021-.332l.114-.043c.392-.149.625-.223.878-.036.484.355.738.794.756 1.304.011.296-.04.604-.14.845l-.173.425c-.369.912-.718 1.774-1.3 2.542-.655.861-1.204 1.778-1.9 2.938l-.557.926.466-.035zM57.7 34.618a5.645 5.645 0 0 0-.506-.316 17.367 17.367 0 0 1-.308-.181l-.103-.062-.374.152c-.149.06-.276.112-.403.159-1.389.495-3.134 1.274-4.326 2.934a1.223 1.223 0 0 1-.292.276c-2.172 1.556-3.902 3.703-5.288 6.567-.124.256-.273.508-.46.821a3.798 3.798 0 0 1-.018-.413c.005-.271.021-.542.037-.812.026-.425.052-.863.034-1.3a942.235 942.235 0 0 0-.41-8.875c-.025-.501-.046-1.002-.067-1.504-.059-1.414-.12-2.875-.269-4.308-.347-3.36-.787-6.948-1.637-10.402-.307-1.247-.794-2.851-1.844-4.212-.4-.517-.826-.859-1.34-1.075-.599-.251-1.043-.157-1.436.306a4.351 4.351 0 0 0-.57.847 166.35 166.35 0 0 0-1.652 3.318c-.652 1.349-1.26 2.68-1.543 4.14l-.016.083a.712.712 0 0 1-.064.238l-.06-.142a10.043 10.043 0 0 1-.31-.798c-.294-.9-.58-1.803-.867-2.706-.186-.586-.372-1.173-.56-1.759-.058-.18-.125-.359-.19-.535-.106-.284-.205-.55-.273-.826-.46-1.893-1.266-3.754-2.392-5.533-1.047-1.653-2.233-3.529-3.992-4.925-.558-.442-1.194-.843-2.058-.781l-.074.018c-.974.398-1.408 1.179-1.289 2.32l.008.076c.02.185.038.359.023.523l-.034.377a64.027 64.027 0 0 1-.295 2.819c-.014.1-.08.218-.179.372a1.553 1.553 0 0 1-.05-.38c.067-1.838-.483-3.488-1.328-5.4-.778-1.759-2.087-2.917-4-3.541-2.04-.665-5.094.661-6.157 1.877-.077.087-.149.19-.216.304-.944 1.652-1.942 3.884-1.264 6.509.646 2.498 1.523 4.376 2.76 5.912.062.078.117.169.182.286a11.533 11.533 0 0 1-2.635-.98c-.943-.49-1.884-1.033-2.794-1.558-.473-.272-.946-.545-1.423-.812a4.396 4.396 0 0 0-.777-.348c-.583-.189-1.055-.17-1.4.062-.338.224-.534.634-.583 1.218a20.228 20.228 0 0 0-.065 2.449c.017.451.122.947.311 1.474.197.551.414 1.097.63 1.643.332.844.677 1.715.943 2.591.558 1.843 1.478 3.527 2.367 5.155.434.794.882 1.615 1.28 2.439.472.977 1.008 1.941 1.526 2.873.28.502.558 1.003.856 1.556L9.85 32.4a37.47 37.47 0 0 1-1.946-1.408c-1.495-1.18-3.19-2.05-4.833-2.889l-.197-.101c-1.185-.606-1.859-.735-2.309-.44-.454.293-.615.949-.553 2.267a48.65 48.65 0 0 0 .476 5.005c.14.921.427 1.897.88 2.982.285.681.655 1.334 1.013 1.964.17.298.338.598.5.9.1.186.19.379.28.57l.133.283c.072.149.141.299.21.45.153.333.312.679.503 1.006.844 1.446 1.955 2.874 3.396 4.369a81.627 81.627 0 0 1 3.353 3.698c.638.751 1.507 1.714 2.576 2.505.176.13.332.249.467.385 1.134 1.149 2.267 2.3 3.39 3.46.037.038.07.093.111.169-.26-.042-.51-.08-.756-.117-.799-.122-1.554-.235-2.279-.407-2.812-.659-5.68-.516-8.456-.377l-.126.006c-.832.042-1.626.358-2.36.938-.62.491-.985 1.121-1 1.729-.014.554.241 1.066.76 1.522.246.217.5.424.754.628 1.106.891 2.384 1.471 3.601 1.963.601.244 1.206.481 1.811.717 1.032.402 2.1.819 3.13 1.268l.274.12c1.601.696 3.257 1.415 4.721 2.42a.992.992 0 0 1 .11.087l-.644.007c-.633.005-1.27.011-1.906.04-2.075.1-3.6.436-4.942 1.096-.693.339-1.39.788-2.073 1.332-.303.24-.483.542-.519.87-.043.373.1.776.411 1.166.492.615 1.15 1.065 1.951 1.333.718.241 1.437.48 2.156.718.916.304 1.831.606 2.745.916.201.068.401.166.632.277l.078.038-.195.19c-.296.287-.559.54-.803.81l-.149.164c-.522.576-1.062 1.17-1.54 1.802-.247.323-.32.657-.21.94.118.3.43.508.88.587.271.046.578.099.877.055.624-.092 1.286-.195 1.928-.376.632-.176 1.26-.372 1.885-.567.607-.19 1.213-.379 1.825-.551 3.951-1.109 8.044-1.149 12.164-.118.313.078.63.145.944.212.37.079.738.157 1.101.254l.49.13c.96.255 1.954.518 2.902.844.692.24 1.371.54 2.028.83.284.125.565.249.842.368l.113.046.104-.062c.294-.176.58-.36.862-.543.64-.414 1.243-.806 1.901-1.069.654-.263 1.356-.396 2.1-.538.33-.063.66-.126.99-.202l.183-.042.003-.189c.02-1.384.477-2.627.922-3.661.558-1.295 1.292-2.633 2.31-4.212 1.618-2.513 3.8-4.574 6.668-6.303.252-.151.506-.3.76-.449.351-.204.703-.409 1.05-.624.8-.495 1.755-1.057 2.79-1.472l.028-.011c.756-.278 1.465-.688 2.16-1.066.248-.135.497-.27.747-.401.213-.112.488-.267.72-.483.302-.28.436-.653.356-.996-.075-.324-.324-.573-.684-.681a21.976 21.976 0 0 0-2.693-.631c-.435-.074-.875-.084-1.34-.094-.1-.001-.203-.004-.306-.007.184-.368.391-.703.59-1.029.105-.169.207-.336.306-.506a83.413 83.413 0 0 0 1.723-3.117c.573-1.091.434-2.216-.422-3.44-.428-.61-1.072-.864-1.683-.661-.426.143-.857.272-1.288.4-1 .299-2.034.606-3.003 1.085-1.95.96-3.58 2.073-4.98 3.401a1.912 1.912 0 0 1-.34.234.752.752 0 0 1 .04-.239 422.723 422.723 0 0 1 2.548-5.761c.368-.812.747-1.619 1.125-2.426a131.694 131.694 0 0 0 1.712-3.749c.442-1.025.825-2.09 1.195-3.123.152-.423.304-.848.461-1.27.103-.28.22-.613.3-.955.192-.832-.039-1.515-.67-1.975z"
        fill="#687E6B" />
</svg>