<svg width="54" height="224" fill="none" xmlns="http://www.w3.org/2000/svg"><g clip-path="url(#a)"><path fill-rule="evenodd" clip-rule="evenodd" d="M26.38 112.175c.963-4.343.279-8.573-.214-12.543-.695-1.008-1.229-1.887-1.867-2.683-.857-1.067-1.713-2.158-2.715-3.08-1.882-1.73-3.854-3.363-5.818-5-.618-.516-1.346-.898-2.001-1.373-1.861-1.352-2.894-3.338-4.018-5.26-.746-1.276-1.664-2.459-2.33-3.772-.938-1.85-1.813-3.748-2.513-5.697-.314-.876-.721-1.86-.263-2.903.338-.772.559-.953 1.372-.74 1.475.381 2.33 1.485 3 2.707.816 1.488 1.411 3.1 2.258 4.567.486.84 1.257 1.524 1.948 2.232.663.678 1.542 1.192 2.056 1.96 1.367 2.043 2.838 4.08 3.793 6.32.806 1.89 1.866 3.637 2.671 5.517.233.546.677 1.075 1.159 1.428 1.24.91 1.915 2.22 2.693 3.465.072.115.169.213.36.447.529-1.583.442-3.113.363-4.608-.086-1.61-.368-3.21-.569-4.814-.018-.14-.032-.299-.107-.41-.905-1.346-.827-2.895-.948-4.408-.052-.643-.15-1.203-.738-1.74-.674-.617-1.001-1.6-1.546-2.377-.402-.573-.896-1.087-1.381-1.596-.482-.508-1.046-.943-1.503-1.47-.902-1.04-1.762-2.119-2.625-3.193-.328-.407-.619-.844-.924-1.27-.606-.85-1.261-1.596-2.138-2.243-1.044-.77-1.808-1.923-2.679-2.922-.118-.136-.11-.402-.242-.505-2.142-1.672-3.571-4.11-5.951-5.524-.853-.507-1.722-.998-2.518-1.585-.689-.508-1.234-1.167-1.444-2.055-.287-1.21.382-2.046 1.591-1.756 1.761.422 3.517.926 4.881 2.25.441.427.893.848 1.375 1.227 1.225.962 2.555 1.81 3.677 2.877.733.698 1.265 1.658 1.725 2.581.561 1.124 1.273 2.09 2.092 3.043.756.88 1.328 1.983 1.745 3.077.503 1.323 1.432 2.48 1.553 3.957.018.205.226.42.392.583 1.429 1.42 2.62 3.008 3.536 4.804.078.153.252.258.555.557-.011-1.066.064-1.936-.042-2.783-.587-4.672-1.247-9.335-1.814-14.009-.132-1.089-.618-1.976-1.248-2.759-1.708-2.123-3.487-4.19-5.286-6.237-.556-.632-1.24-1.162-1.914-1.675-1.411-1.077-2.595-2.378-3.583-3.825-.798-1.167-1.649-2.29-2.342-3.558-.898-1.64-2.254-3.055-3.532-4.459-1.078-1.186-2.024-2.41-2.456-3.97-.313-1.126.004-1.533 1.179-1.43.967.083 1.845.492 2.475 1.233 1.437 1.688 2.813 3.427 4.229 5.133.294.355.608.72.985.972 1.712 1.142 2.827 2.736 3.766 4.537a57.853 57.853 0 0 1 3.306 7.701c.094.267.222.542.403.755 1.068 1.255 2.156 2.493 3.38 3.902-.612-3.375-.784-6.559-.778-9.745.004-1.759-.83-3.212-1.448-4.738-.23-.567-.84-1.077-1.399-1.396-2.396-1.365-4.351-3.207-6.071-5.328a221.246 221.246 0 0 1-1.765-2.206c-1.594-2.015-3.183-4.033-4.776-6.048-1.229-1.555-2.455-3.079-3.105-5.027-.41-1.23-1.169-2.357-1.856-3.479-.605-.992-.424-2.033-.332-3.06.05-.544.659-.758 1.403-.605 1.359.278 2.307 1.196 3.036 2.258 1.211 1.764 2.276 3.627 3.408 5.446.15.243.295.504.499.696 1.481 1.393 2.381 3.208 3.538 4.835.385.541.707 1.141.969 1.753.842 1.967 1.589 3.976 2.474 5.923.684 1.502 1.42 3 3.012 3.832.583.306 1.082.772 1.746 1.26.048-.586.159-1.057.113-1.512-.324-3.124-.656-6.228-1.582-9.273-1.026-3.372-2.468-6.555-3.876-9.76-.377-.859-1.077-1.586-1.395-2.458-.614-1.68-1.155-3.4-1.558-5.142a23.497 23.497 0 0 0-2.998-7.207c-.272-.437-.589-.893-.694-1.38C7.836 5.747 7.144 4.165 7.16 2.4c.009-1.003.232-1.747 1.248-2.4.283.361.702.698.857 1.13 1.059 2.928 2.745 5.512 4.359 8.14.024.04.06.077.076.121 1.268 3.631 3.753 6.765 4.395 10.647.309 1.866.531 3.748.756 5.628.176 1.464.355 2.932.429 4.403.106 2.118.888 4.081 1.271 6.12.522 2.776 1.421 5.537 1.267 8.472.118-.388.286-.769.347-1.166.371-2.435.897-4.866 1.014-7.315.096-2.006-.342-4.033-.478-6.055-.101-1.506-.085-3.019-.139-4.528-.055-1.565-.133-3.128-.195-4.692-.008-.19-.02-.395.038-.57.574-1.772.024-3.615.34-5.39.264-1.48.575-2.966 1.042-4.39.359-1.099 1.311-1.125 2.076-.2.778.94.756 2.096.642 3.15-.233 2.157.014 4.266.115 6.41.196 4.222.306 8.496-1.161 12.605-.619 1.732-1.08 3.521-1.597 5.29-.091.31-.146.643-.141.965.041 2.31-.664 4.5-1.076 6.734-.207 1.12-.387 2.244-.622 3.357-.184.878.08 1.68.246 2.521.193.97.209 1.973.302 2.962-.966.758-.229 1.828-.484 2.72-.028.095.122.241.19.365 1.084-.683-.238-1.517.218-2.318l.569.077c.657-1.502 1.38-2.934 1.917-4.432.927-2.587 1.896-5.177 2.538-7.84.389-1.613.879-3.197 1.243-4.809.319-1.408.458-2.87.534-4.316.121-2.302.737-4.458 1.677-6.535a131.164 131.164 0 0 1 2.148-4.455c.113-.225.43-.552.569-.515.273.072.609.325.695.58.182.53.339 1.121.292 1.67-.114 1.326-.258 2.666-.561 3.96-.448 1.917-.633 3.813-.46 5.788.182 2.084-.447 4.076-1.374 5.921-.661 1.316-1.492 2.56-2.348 3.764-1.71 2.407-3.274 4.858-4.13 7.741-.509 1.72-1.42 3.317-2.051 5.006-.241.641-.399 1.427-.259 2.075.674 3.125.851 6.297 1.076 9.467.072 1.021.089 2.046.145 3.42.927-1.982 1.685-3.629 2.181-5.42.594-2.15 1.443-4.227 2.158-6.343.181-.536.407-1.103.39-1.649-.055-1.775.628-3.379 1.137-5 .728-2.317 1.788-4.529 3.3-6.44 1.231-1.558 1.893-3.374 2.723-5.118.552-1.158 1.326-1.967 2.625-2.198.907-.162 1.259.101 1.231 1.024a5.667 5.667 0 0 1-.241 1.406c-.547 1.876-1.289 3.712-1.639 5.622-.297 1.615-.744 3.14-1.403 4.623-.405.913-.793 1.834-1.219 2.737-.863 1.828-1.959 3.552-3.476 4.852-2.092 1.793-3.48 4.011-4.504 6.48-.96 2.316-1.77 4.694-2.602 7.06-.353 1.002-.435 2.047-.283 3.121.092.645.036 1.316.001 1.973-.03.585.068 1.056.864 1.256-.255.26-.458.465-.667.676.381 2.222.045 4.563 1.064 6.728.344-.658.357-.66-.039-3.077-.175-1.068-.418-2.125-.387-3.252l1.261 4.665 2.528-4.94c.214-.417.445-.826.642-1.25.42-.902.914-1.783 1.215-2.725.607-1.898 1.069-3.842 1.659-5.746.734-2.368 1.761-4.549 3.545-6.388 1.674-1.725 3.108-3.684 4.648-5.539.213-.256.381-.619.655-.736.44-.19.85-.87 1.371-.414.351.31.617.862.674 1.335.153 1.3-.4 2.46-1.123 3.47-1.008 1.403-1.682 2.953-2.392 4.507-.687 1.503-1.542 2.931-2.317 4.395-1.141 2.154-2.948 3.685-4.733 5.274-.865.77-1.518 1.843-2.08 2.88-1.177 2.174-2.215 4.422-3.339 6.625-.619 1.211-.403 2.492-.375 3.751.029 1.215.158 2.43.247 3.642.015.19.038.383.084.567.432 1.742.474 3.471.186 5.261-.23 1.43-.139 2.911-.201 4.689 1.214-1.07 1.698-2.25 2.359-3.283.429-.672.654-1.475.958-2.224.207-.513.365-1.032-.264-1.443 1.453-1.604 1.888-3.582 2.481-5.528.41-1.348 1.103-2.65 1.879-3.836.961-1.469 2.153-2.784 3.214-4.19.428-.57.8-1.189 1.148-1.813 1.276-2.295 2.813-4.38 4.861-6.045.3-.244.771-.279 1.123-.396 1.117 1.072 1.229 2.144.524 3.428-1.002 1.826-1.915 3.704-2.815 5.583-.325.68-.622 1.415-.719 2.153-.171 1.283-.839 2.265-1.501 3.323-1.531 2.446-3.639 4.378-5.629 6.385-1.409 1.422-2.728 2.906-4.027 4.416a3.511 3.511 0 0 0-.419.57c-.897 1.626-1.824 3.235-2.652 4.895-.33.661-.578 1.429-.609 2.159-.08 1.846-.265 3.676.115 5.554.332 1.648.19 3.397.203 5.103.009 1.199-.075 2.4-.129 3.951.903-.927 1.61-1.635 2.296-2.361.778-.823 1.58-1.629 2.293-2.505.528-.649.985-1.371 1.382-2.109 1.257-2.332 2.387-4.737 3.728-7.017.941-1.602.979-3.551 2.136-5.035 1.228-1.572 2.478-3.129 3.685-4.716.74-.976 1.572-1.927 2.079-3.02.438-.943 1.064-1.539 1.863-2.053.839.247.916 1.017 1.017 1.597.133.774.177 1.664-.081 2.383a32.793 32.793 0 0 1-2.04 4.558c-1.248 2.303-2.289 4.676-3.199 7.135-.731 1.979-1.188 4.149-2.75 5.728-.999 1.009-2.083 1.938-3.165 2.86-.54.46-1.245.744-1.728 1.248-1.522 1.585-3.661 2.184-5.357 3.477-1.235.942-2.214 1.885-2.036 3.75.164 1.706-.219 3.464-.348 5.2-.09 1.216-.107 2.44-.244 3.649-.248 2.16-.564 4.311-.838 6.468-.014.11.094.236.256.609.452-.669.81-1.188 1.157-1.715 1.983-3.016 3.947-6.044 5.959-9.041.388-.579.949-1.044 1.447-1.547 1.257-1.27 2.043-2.96 3.576-3.987.906-.608 1.746-1.334 2.703-1.843.695-.369 1.052-.948 1.417-1.538a7.071 7.071 0 0 1 2.283-2.311c.633-.399 1.198-.929 1.722-1.47.506-.521 1.111-.523 1.725-.47.883.077 1.175.629.978 1.501-.347 1.533-1.567 2.467-2.419 3.652-.582.809-1.339 1.507-1.841 2.358-.933 1.58-2.152 2.906-3.396 4.22-.228.241-.481.492-.772.635-2.177 1.063-3.546 2.931-4.955 4.795-1.112 1.471-2.339 2.859-3.578 4.227-.434.481-1.037.824-1.596 1.176-1.67 1.052-2.858 2.608-4.223 3.979-.133.133-.298.232-.475.367-.052 1.524-.002 3.091-.191 4.63-.205 1.663-.401 3.332-.693 4.991-.343 1.955-.087 4.014-.092 6.188 1.054-.818 1.63-1.848 2.308-2.792 1.136-1.579 2.243-3.181 3.431-4.719 1.507-1.951 3.072-3.857 4.64-5.761.387-.472.941-.813 1.308-1.298.67-.884 1.274-1.783 1.765-2.824 1.15-2.439 2.489-4.873 4.57-6.644 1.536-1.308 3.344-2.329 5.128-3.301 1.034-.564 1.81.115 1.864 1.348.037.825-.321 1.47-.806 2.084-1.18 1.49-2.428 2.934-3.505 4.496-1.08 1.566-1.94 3.281-2.988 4.871-.457.693-1.054 1.373-1.742 1.822-1.755 1.149-3.367 2.438-4.774 3.995-.281.31-.651.573-1.03.754-2.258 1.078-4.082 2.766-6.033 4.272-.277.212-.361.659-.571.973-.95 1.425-1.935 2.826-2.857 4.269-.295.461-.684 1.069-.599 1.53.351 1.911-.084 3.778-.111 5.664-.034 2.315.042 4.632.072 7.13 1.432-.517 2.243-1.663 3.278-2.508 1.024-.837 2.104-1.608 2.836-2.811l-.679-.264c.039-.069.07-.191.119-.199 1.681-.268 2.283-1.752 3.169-2.876.759-.964 1.273-2.123 2.052-3.069 1.388-1.687 2.866-3.303 4.368-4.893a4.522 4.522 0 0 1 1.65-1.09c1.984-.739 3.422-2.147 4.837-3.632 1.116-1.173 2.309-2.282 4.086-2.326.14-.003.279-.053.418-.049 1.38.035 1.939.914 1.251 2.085a11.29 11.29 0 0 1-1.561 2.026c-.944.992-2.033 1.851-2.936 2.876-1.248 1.414-2.544 2.81-3.347 4.562-.134.293-.35.565-.581.794-1.246 1.235-2.407 2.587-3.794 3.641-1.495 1.135-3.197 2.004-4.828 2.955-1.595.929-3.344 1.647-4.78 2.772-1.131.885-2.36 1.487-3.586 2.153-1.552.843-1.702 2.314-1.612 3.831.128 2.183.335 4.36.501 6.446 1.58-.929 3.271-1.87 4.901-2.908.71-.453 1.211-1.279 1.951-1.632 2.383-1.137 4.226-2.874 5.898-4.849.333-.394.718-.748 1.109-1.088 1.93-1.678 3.877-3.336 5.8-5.022.463-.406.84-.908 1.286-1.335.946-.903 2.028-1.458 3.369-1.033 1.103.349 1.371.799.828 1.809-.486.902-1.164 1.741-1.902 2.458-1.267 1.231-2.507 2.416-3.264 4.087-.685 1.516-1.678 2.827-3.216 3.726-1.835 1.073-3.535 2.376-5.298 3.571-.109.074-.261.1-.397.114-2.225.232-4.213 1.096-6.076 2.28-.674.428-1.369.284-2.066.161-1.338-.238-2.674.668-2.865 1.962-.131.894-.372 1.787-.377 2.681-.009 1.51-.008 3.045.242 4.527.332 1.963.077 3.839-.164 5.781-.351 2.844-.774 5.703-.181 8.612.365 1.79.364 3.712-.091 5.475-.417 1.614-.745 3.222-.94 4.867-.052.448-.037.904-.166 1.448-.327-.67-.668-1.049-1.471-.848-.41.104-.66-.374-.664-.9-.029-3.28-.162-6.561-.117-9.84.027-1.98.319-3.956.477-5.935.049-.617.014-1.242.078-1.856.274-2.6.599-5.195.844-7.798.118-1.26.259-2.53-.958-3.509-.566-.454-.882-1.214-1.329-1.822a4.242 4.242 0 0 0-.644-.713c-.614-.523-1.252-1.018-1.88-1.525-.074-.06-.15-.183-.217-.177-1.801.144-2.156-1.849-3.597-2.41-1.352-.525-2.461-1.74-3.589-2.75-.811-.727-1.585-1.546-2.181-2.452-1.058-1.606-2.281-2.943-3.962-3.964-1.348-.82-2.462-2.028-3.669-3.076-.089-.078-.096-.253-.171-.471.294-.15.578-.417.862-.418 1.557-.002 3.091-.14 4.641.465 2.654 1.036 4.561 2.927 6.394 4.962.159.176.304.373.489.515 2.143 1.649 3.238 3.927 3.779 6.486.182.865.607 1.401 1.239 1.967 1.573 1.408 3.052 2.922 4.636 4.458.421-.792-.032-1.713.053-2.589.092-.948.114-1.904.137-2.858.023-.904-.006-1.808.011-2.712.018-.949.063-1.897.106-3.11-1.04-1.049-2.265-2.286-3.493-3.522-.066-.068-.138-.149-.223-.179-1.473-.53-2.502-1.72-3.777-2.525-1.359-.86-2.213-2.096-3.1-3.324-1.187-1.646-2.296-3.349-3.388-5.061-.327-.513-.48-1.137-.717-1.708-.812-1.954-2.194-3.539-3.404-5.234-.943-1.322-1.661-2.764-2.052-4.328-.163-.654.018-1.395.041-2.033 1.6-.679 2.343.494 3.112 1.286 1.389 1.432 2.602 3.035 3.945 4.513.848.934 1.721 1.881 2.724 2.633 1.955 1.466 2.87 3.62 3.904 5.668.675 1.338 1.07 2.836 1.448 4.299.332 1.285 1.275 2.153 1.899 3.235.156.271.44.542.443.815.008.896.7 1.394 1.098 2.053.407.672.929 1.274 1.401 1.907l.3-.098c-.014-.824-.031-1.647-.045-2.471-.005-.379-.057-.766-.001-1.136.348-2.285.127-4.547-.048-6.837-.125-1.632-.348-3.288-.006-4.982.353-1.747-.238-3.302-1.98-4.193a1.266 1.266 0 0 1-.421-.381c-.971-1.332-2.445-1.867-3.84-2.598-2.206-1.156-4.569-2.174-6.021-4.387-.684-1.042-1.517-1.92-2.462-2.743-.731-.636-1.223-1.547-1.829-2.328a279.31 279.31 0 0 0-2.277-2.901c-.827-1.036-1.54-2.023-1.591-3.513-.049-1.434-.638-2.852-1.014-4.271-.314-1.187.297-2.236 1.434-2.502.593-.14 1.083.032 1.417.446.471.585.884 1.231 1.237 1.895.827 1.555 1.475 3.222 2.439 4.682.991 1.503 2.216 2.865 3.436 4.2 2.311 2.529 4.687 5.002 6.631 7.831.559.812.975 1.745 1.321 2.674.494 1.32 1.096 2.513 2.338 3.295.382.241.691.601 1.158 1.018-.052-.719-.12-1.267-.126-1.816-.005-.46.057-.921.094-1.381.023-.275.177-.623.064-.813-.955-1.598-.388-3.221-.174-4.853.215-1.64.349-3.291.504-4.938.017-.18-.008-.419-.115-.545-.595-.705-1.19-1.417-1.846-2.066-2.364-2.337-4.766-4.638-7.126-6.98-1.21-1.201-2.322-2.503-3.555-3.68a20.328 20.328 0 0 1-2.682-3.111c-1.514-2.169-3.403-4.05-5.85-5.191-1.615-.753-2.38-2.24-3.474-3.373 1.108-1.311 2.375-1.229 3.604-.624 1.442.71 2.802 1.587 4.212 2.369 1.778.987 3.141 2.448 4.513 3.901.164.173.323.358.512.499 3.482 2.588 5.619 6.156 7.057 10.127 1.368 3.78 2.721 4.648 4.833 6.632.097-.346.229-.634.255-.93.113-1.317.327-2.65.558-3.917.228-1.248-.393-2.238-.314-3.397.058-.845-.103-1.737.059-2.606.102-.542.191-1.059-.151-1.575-.102-.151-.095-.526.02-.645.583-.601.267-1.147-.035-1.699-1.268-2.319-2.714-4.44-5.113-5.815-1.683-.965-3.19-2.232-4.804-3.324a135.586 135.586 0 0 0-4.433-2.865c-1.069-.664-1.677-1.694-2.221-2.748-.416-.805-.783-1.58-1.511-2.193-.563-.475-.952-1.164-1.391-1.778-.531-.74-1.077-1.441-1.913-1.885-.368-.194-.669-.535-.962-.845-.408-.43-.735-.876-.313-1.517.388-.59.892-.881 1.573-.736 1.379.293 2.626.886 3.625 1.893 2.054 2.07 4.195 4.001 6.812 5.377.857.45 1.529 1.271 2.249 1.96 2.09 2.001 3.875 4.25 5.448 6.679 1.095 1.692 2.274 3.329 3.514 5.137.155-.578.372-1.019.375-1.461.007-1.328-.095-2.657-.107-3.985-.013-1.546.118-3.087-.102-4.638-.088-.615.738-1.162.381-1.918-.113-.239-.082-.566-.233-.764-1.121-1.477-2.271-2.932-3.413-4.393-.03-.038-.057-.09-.097-.104-1.618-.546-2.58-2.012-4.008-2.852-1.253-.736-2.309-1.802-3.488-2.673-1.555-1.15-2.701-2.635-3.842-4.178-.804-1.086-1.914-2.01-3.048-2.768-1.212-.81-2.602-1.363-3.932-1.99-1.471-.695-2.267-2.957-1.522-4.399.243-.47.631-.58 1.085-.412 1.233.46 2.525.728 3.585 1.657.689.604 1.664.873 2.473 1.354 1.021.607 1.961 1.36 3.012 1.903 2.007 1.037 3.389 2.696 4.672 4.46.729.999 1.31 2.107 2.027 3.117 1.583 2.233 3.201 4.437 4.989 6.521.628.732.927 1.745 1.376 2.631.096.188.19.377.284.566zM14.527 99.803c.308.199.64.373.904.62.657.612 1.261 1.279 1.913 1.896.166.158.431.212.825.395-.596-1.102-1.039-2.022-1.572-2.889-1.872-3.049-5.12-4.379-7.919-6.266-.119-.08-.288-.088-.449-.108.433.388.861.781 1.301 1.163.323.281.66.546.992.818-.377.106-.605.033-.771-.113-1.003-.882-2.061-1.614-3.424-1.889-.521-.105-.982-.56-1.441-.896-.335-.246-.624-.556-.999-.896-.192 1.031.116 1.66.963 2.088 1.317.666 2.637 1.337 3.893 2.106 1.198.734 2.388 1.471 3.225 2.698 1.207 1.764 2.563 3.418 4.333 4.679.462.329.866.741 1.317 1.088.993.763 1.999 1.509 3 2.262-.565-1.535-1.275-2.832-2.837-3.508-1.471-.636-2.412-1.919-3.254-3.248-.029-.018-.058-.038-.086-.057l-.009-.036c-.685-.11-.946-.573-.996-1.21l-.039-.008-.009-.029c-.908.113-1.177-.749-1.724-1.185.665.263 1.442.365 1.724 1.185l.045-.006.003.043c.639.15.852.65.996 1.21a.52.52 0 0 0 .039.005l.056.088zm17.685 20.465.215.227c.387-.245.79-.469 1.159-.739 1.003-.73 1.958-1.53 2.991-2.214 2.509-1.659 4.306-3.801 5.165-6.749.634-2.176 1.549-4.259 2.65-6.254a245.875 245.875 0 0 0 3.092-5.802c.225-.434.311-.939.461-1.412-.607.296-.905.847-1.366 1.097-1.619.88-2.291 2.5-2.769 4.013-.823 2.605-1.965 5.021-3.31 7.365-.256.445-.624.829-.959 1.226-1.043 1.233-2.324 2.304-2.992 3.8-.7 1.568-1.828 2.77-2.962 3.988-.455.488-.917.969-1.375 1.454zm-20.46 7.485c-.008-.174.029-.398-.062-.484-1.275-1.202-2.508-2.464-3.884-3.541-1.104-.865-2.366-1.544-3.607-2.215-.576-.312-1.268-.41-1.907-.605l-.181.347c2.21.703 3.258 2.861 5.247 3.889.944.488 1.69 1.347 2.765 1.69.384.122.676.508 1.035.734.17.105.392.13.594.185zm-4.369 27.358-.297.267c1.028.868 1.213 2.45 2.722 2.918l-2.425-3.185zm17.928 34.544.318.015.07-2.014-.186-.005-.202 2.004zm10.588-21.015c1.195-.181 1.998-.763 2.694-1.63 1.152-1.435 3.168-1.975 4.029-3.785.149-.314.813-.355 1.045-.667.675-.91 1.251-1.894 1.866-2.849-1.323.456-2.569 1.008-3.672 1.767-1.874 1.289-3.016 3.273-4.419 5.004-.556.686-1.031 1.438-1.543 2.16zm-1.923-96.677c.358-.153.524-.17.592-.26.711-.94 1.458-1.86 2.091-2.85.714-1.118 1.466-2.25 1.925-3.48.311-.835.66-1.554 1.295-2.149.471-.44.672-.995.867-1.805-.802.868-1.402 1.594-2.081 2.236-1.612 1.521-2.867 3.28-3.675 5.34-.358.912-.637 1.855-1.014 2.968zm5.028 13.82a19.52 19.52 0 0 1-.289-.149c-2.202 2.014-4.003 4.262-4.289 7.773.582-.82 1.115-1.333 1.351-1.957.545-1.442 1.58-2.554 2.347-3.843.344-.578.59-1.214.88-1.824zm-18.997 88.981c-.641-1.357-1.44-2.58-1.804-3.921-.703-2.587-1.688-5.011-3.377-7.087-1.088-1.339-2.337-2.547-3.525-3.802-.137-.146-.348-.222-.794-.495.249.672.339 1.085.542 1.435a186.095 186.095 0 0 0 2.454 4.118c1.134 1.859 2.015 3.88 3.524 5.503.093.099-.001.372-.018.855-1.109-1.582-2.395-2.675-2.945-4.302-.12-.353-.341-.675-.535-1-.951-1.592-1.91-3.18-2.864-4.77-.099-.163-.246-.325-.269-.501-.108-.87-.691-1.41-1.263-1.986-.398-.399-.72-.877-1.056-1.334-.794-1.083-1.497-2.246-2.838-3.095.521 1.471.845 2.79 1.835 3.9 1.669 1.872 3.146 3.872 4.084 6.274.539 1.381 1.556 2.58 2.381 3.845.613.943 1.301 1.839 1.887 2.797.512.836.854 1.767 1.977 2.044.375.093.771.436.985.774.422.663.999.781 1.619.748zm-2.099-2.784.992 1.618c-.709-.268-.985-.845-1.336-1.366l.344-.252zM8.263 2.35l-.27.072c.115.69.2 1.387.352 2.068.409 1.824 1.014 3.565 2.153 5.087.221.297.309.692.471 1.035 1.411 2.988 1.958 6.255 3.035 9.351.14.402.265.816.461 1.192a284.493 284.493 0 0 0 2.297 4.292c.113.207.288.38.612.801-.187-.956-.25-1.623-.45-2.247-.465-1.45-.936-2.902-1.514-4.308-.61-1.485-1.99-2.645-1.811-4.475.034-.338-.236-.714-.39-1.062-1.065-2.393-2.169-4.77-3.194-7.18-.644-1.517-1.172-3.083-1.752-4.627zm-.189 91.04c-.906-.822-1.972-1.366-3.105-1.793.791 1.04 1.784 1.713 3.105 1.792zm9.744-5.929.273-.182c-.3-.512-.584-1.035-.905-1.535-.302-.472-.705-.89-.954-1.386-1.19-2.373-2.846-4.345-4.987-5.903-.236-.17-.575-.2-.912-.309l.143-.692c-.361-.507-.872-.98-.787-1.144.467-.9-.199-1.43-.539-2.049a73.591 73.591 0 0 0-1.882-3.194c-.133-.217-.391-.356-.592-.532l-.246.147.955 2.256-.25.115-1.653-2.799c-.066 1.48.174 2.68.86 3.631.743 1.031 1.197 2.142 1.614 3.304.11.306.349.565.52.851 1.098 1.844 2.169 3.704 3.301 5.527.492.793 1.008 1.616 1.686 2.24 1.364 1.254 2.843 2.384 4.283 3.556.305.248.643.454.966.68-.546-1.738-1.913-2.83-3.041-4.323 1.213.188 1.444 1.257 2.147 1.741zm-4.73-4.024-.581-.83.182-.147.684.747-.285.23zm-1.262-3.433.477 1.485c-.585-.526-.585-.526-.477-1.485zm-4.025-6.643c.367.44.735.878 1.103 1.317l-.265.218-1.048-1.322.21-.213zm30.229 76.04c.032-.362.063-.725.097-1.088l.74-.883-.312-.211c-.179.329-.36.658-.541.987l-2.23 2.129c.556.375.863.1 1.129-.256.284-.383.563-.752 1.117-.678zm-12.458 44.542.163-.05-.134-.635-.246.062.217.623zM46.541 96.78c.36-.36 1.309-.443 1.007-1.529l-1.007 1.53zm3.262 76.005c-1.976.715-3.983 1.483-4.994 3.641a3.486 3.486 0 0 1-.855 1.139c-1.986 1.704-3.894 3.528-6.037 5.01-2.219 1.535-4.676 2.726-7.029 4.067l.119.259c.976-.437 1.929-.94 2.934-1.296 2.646-.936 5.302-1.828 7.607-3.504 1.567-1.139 3.272-2.126 4.082-4.035.2-.473.402-.974.725-1.358 1.12-1.332 2.295-2.619 3.448-3.923zm-37.357-24.851c-1.003.114-1.503-.534-1.94-1.305-.349-.616-.62-1.334-1.121-1.792-1.245-1.138-1.99-2.623-2.504-4.1-.668-1.912-1.731-3.71-1.944-5.779-.015-.151-.125-.293-.205-.469-.713.433-.736.962-.594 1.561.385 1.616.713 3.247 1.16 4.846.171.616.477 1.307.944 1.704.667.569 1.117 1.257 1.603 1.945.711 1.007 1.403 2.031 2.172 2.993.655.819 1.541 1.475 2.09 2.351 1.473 2.345 3.668 3.825 5.926 5.247.59.371 1.271.598 2.175 1.012-1.188-2.48-2.537-4.561-4.263-6.231-1.311-1.267-2.298-2.785-3.632-4.01-.658-.604-1.158-1.379-1.746-2.063-1.726-2.011-2.614-4.493-3.837-6.788-.225-.423-.502-.819-.755-1.227l-.296.156c.292.777.707 1.532.851 2.335.277 1.563 1.08 2.879 1.753 4.263.467.96 1.479 1.544 1.921 2.419.581 1.155 1.165 2.205 2.242 2.932l.059-.007.018.028c.576.002.933.291 1.082.85l.03-.013.035.084c.221.189.452.368.653.576.815.844 1.624 1.695 2.424 2.554.172.184.296.412.342.711-1.078-.844-2.227-1.598-2.955-2.792-.196-.325-.316-.695-.464-1.049l-.059-.051-.006-.02c-.837.339-.82-.438-1.082-.85h-.046l-.031-.021zm6.095 7.057-.722-1.177c.725.06.786.579.992.997l-.27.18zm10.73-113.172c.462-.095.797-.064.897-.203.382-.529.719-1.096 1.015-1.679.999-1.962 1.345-4.012 1.264-6.246-.064-1.788-.151-3.644.637-5.413.495-1.11.445-2.395.298-3.646-.599.98-1.158 1.961-1.565 3.001a29.763 29.763 0 0 0-1.155 3.605c-.713 2.825-.573 5.792-1.452 8.603-.416 1.331-.566 2.745-.836 4.121l.109.038.788-2.18zm1.542-4.229-.451 2.051c-.525-.807.082-1.43.138-2.139.104.03.209.06.313.088zm.075-1.393c.017.213.035.426.04.64a1.4 1.4 0 0 1-.214.022c-.037-.21-.061-.423-.087-.636l.261-.026zM4.246 123.648c-.069-.722-.351-1.176-1.362-.988l1.362.988zm28.933-48.373c.183-.05.289-.053.362-.103 2.26-1.548 3.539-3.913 5.051-6.083.08-.115.11-.264.16-.399.767-2.049 1.487-4.12 2.807-5.909.179-.24.278-.54.413-.813-1.24 1.061-2.342 2.214-2.94 3.714-.912 2.287-2.249 4.282-3.799 6.183-.803.985-2.046 1.757-2.054 3.41zm-5.817 41.535-.037-1.158c-.054.344-.706.627.037 1.158zM9.092 32.856c.013.166-.003.352.079.472.74 1.09 1.505 2.164 2.26 3.243.746 1.064 1.649 1.967 2.877 2.94-1.296-2.623-2.432-4.05-5.216-6.655zm34.444 46.772c-.54-.118-.446-.368-.154-.683.57-.616 1.13-1.242 1.695-1.865-1.434.632-2.167 1.845-2.906 3.17l1.39-.62c-1.413 2.296-2.822 4.595-4.24 6.888-.47.76-.957 1.508-1.445 2.255-.365.558-.936 1.061-1.078 1.668-.348 1.49-1.297 2.481-2.352 3.462-.821.766-1.352 1.707-1.224 3.03.319-.237.609-.396.826-.625 1.791-1.9 3.546-3.837 5.36-5.718a8.985 8.985 0 0 0 2.341-4.3c.18-.775.399-1.56.741-2.273.466-.972 1.11-1.856 1.597-2.82.589-1.167 1.416-2.242 1.587-3.583a529.3 529.3 0 0 1-2.138 2.014zM27.471 95.816c-.472 1.584-.42 3.174-.18 4.765l.301.002-.121-4.767zM17.442 22.58c-.077-.585-.12-1.344-.285-2.075-.332-1.467-.868-2.868-1.4-4.276-.408-1.079-.691-2.176-1.576-2.999-.191-.178-.328-.484-.363-.748-.308-2.293-1.612-4.128-2.746-6.04-.178-.3-.422-.56-.769-1.015.039.53-.003.834.09 1.09.471 1.293.957 2.581 1.477 3.855.383.94.69 1.952 1.276 2.754.709.97.984 2.017 1.238 3.135.153.675.519 1.308.833 1.938.747 1.503 1.518 2.992 2.225 4.381zM6.321 175.875l.221-.2-1.024-.705-.166.258c.324.215.646.431.969.647zm6.737-108.702c.309.46.548.995.948 1.354.922.833 1.924 1.576 2.864 2.331-.313-1.827-.652-2.277-2.222-2.953-.083-.37-.097-.733-.242-1.029a136.944 136.944 0 0 0-1.953-3.792c-.131-.247-.301-.532-.53-.657-1.559-.849-2.825-2.067-4.169-3.192-.474-.396-.795-1.046-1.645-.975-.745.063-.859-.755-1.215-1.226-.103-.137-.32-.188-.481-.283-.803-.475-1.452.007-2.169.313.063.166.105.297.162.422.619 1.37 2.061 1.845 3.15 2.586 1.627 1.107 3.11 2.281 4.374 3.776.403.475.962.817 1.451 1.216.295-.834-.251-1.375-.859-1.985 1.025.314 1.024.314 1.737 2.358.505.474 1.012.953 1.62 1.525l-.821.211zm-3.16-4.517L8.104 61.14c.957.073 1.477.7 1.794 1.516zM39.677 179.86l.316.315c1.306-1.142 2.615-2.279 3.907-3.437.072-.064-.006-.296-.02-.574l-4.203 3.696zm-13.158-44.267c.367-.953.407-4.108.005-5.34-.461 1.922-.343 3.6-.005 5.34zm-.813 13.102-.405.07c.062.308.125.617.186.926l.185-.017c.01-.326.022-.652.034-.979zm3.994-7.856c3.655-1.537 5.498-4.755 7.563-7.774-2.021 1.734-3.951 3.565-5.874 5.403-.271.26-.546.529-.757.837-.338.493-.624 1.021-.932 1.534zm3.007 32.427.127.15c.664-.44 1.281-.984 1.998-1.302a26.261 26.261 0 0 0 6.234-3.872c1.861-1.557 3.516-3.312 4.594-5.533.082-.169.212-.32.341-.458 1.55-1.656 3.111-3.303 4.655-4.964.322-.347.591-.744.914-1.158-2.029.243-3.18 1.631-4.463 2.768-.608.538-.973 1.347-1.477 2.011-.654.861-1.258 1.78-2.025 2.53-1.214 1.188-2.647 2.163-3.8 3.403-1.226 1.32-2.699 2.185-4.26 2.976-.33.167-.684.377-.9.664-.678.904-1.297 1.853-1.938 2.785zm18.236-17.995-.182-.237a744 744 0 0 1-.727.448l.103.181.806-.392zM9.517 32.849c.709.462 1.413.928 1.665 1.21.462.515.874 1.076 1.309 1.617l.278-.217c-1.284-2.424-2.63-4.809-4.284-7.02a55.887 55.887 0 0 1-2.494-3.583c-.758-1.2-1.355-2.503-2.136-3.685-.584-.883-1.169-1.89-2.469-1.874-.123.002-.245.116-.384.186l.084.831c2.004.247 1.965.75 2.553 2.088.187.425.443.821.682 1.222.237.397.51.773.738 1.174.557.98 1.07 1.984 1.649 2.95.944 1.575 1.927 3.127 2.879 4.678-.989-.15-1.098-1.13-1.566-1.74-1.037-1.352-2.212-2.694-2.836-4.24-.728-1.809-2.065-3.192-2.859-4.92-.159-.346-.453-.59-.902-.352 1.066 2.161 2.016 4.335 3.195 6.38.678 1.176 1.749 2.121 2.597 3.207.331.423.732.928 1.196 1.353.319.223.712.478 1.105.735zm1.891 32.271c.24.896.859 1.492 1.586 2l-.771-1.696-.815-.304zm13.911-37.676c.076-.574.133-.83.141-1.086.031-1.145.027-2.29.077-3.435.071-1.62.058-3.208-.277-4.83-.239-1.16-.047-2.454.161-3.65.21-1.2.134-2.322-.245-3.793-.398.516-.763.793-.848 1.14a19.56 19.56 0 0 0-.516 2.94c-.135 1.516-.162 3.042-.25 4.564-.103 1.797-.352 3.598-.303 5.392.066 2.418.352 4.831.556 7.245.021.243.12.481.207.813 1.017-2.129.586-4.269.649-6.346.035-1.158-.369-2.324-.514-3.493-.064-.513.022-1.044.041-1.567.885 1.864.603 3.876 1.121 6.106zm-1.396-6.609.358-.72.157.052-.182.801-.333-.133zM3.151 36.685l-.299.113 1.023 2.083c.046-1.22.046-1.22-.724-2.197zm33.61 76.247a19.307 19.307 0 0 0 4.313-5.536c1.458-2.777 2.062-4.293 2.169-6.344-1.498 1.518-2.52 3.303-3.334 5.128-.595 1.333-1.105 2.717-1.764 4.031-.456.909-.922 1.814-1.384 2.721zm-9.805 7.876.186.016.089-2.52-.186-.009-.089 2.513zm-14.851-74.29c-.314-.162-.663-.28-.926-.5-.919-.769-1.805-1.575-2.705-2.367-.187-.455-.429-.847-1.105-.74l.982.848c.386 1.451 1.184 2.687 2.078 3.856 1.575 2.056 3.439 3.834 5.58 5.654-.678-1.415-1.203-2.67-1.872-3.842-.389-.68-1.036-1.212-1.514-1.849-.23-.307-.348-.699-.518-1.06zm-.015-.032c.13-.113.39-.294.372-.328-.585-1.106-1.376-1.986-2.672-2.272.125.302.34.51.544.725.587.623 1.17 1.25 1.756 1.875zm.932 68.607c-.47-.471-.909-.979-1.426-1.392-1.379-1.105-2.545-2.383-3.412-3.927-.255-.454-.387-1.102-.773-1.333-1.114-.671-2.328-1.175-3.503-1.744l-.17.241c.181.242.31.591.551.708 1.307.632 2.112 1.771 2.955 2.861.902 1.167 1.849 2.319 2.584 3.588 1.151 1.986 2.983 3.199 4.831 4.307 1.753 1.053 3.46 2.14 5.082 3.38.824.631 1.726 1.163 2.592 1.74-.566-1.081-1.222-2.02-2.023-2.814-.838-.83-1.811-1.524-2.731-2.271-.82-.666-1.648-1.323-2.472-1.984l.236-.294 3.333 2.475c-.739-1.043-1.457-2.162-2.423-2.992-1.795-1.542-3.74-2.911-5.615-4.362-.603-.467-1.182-.965-1.772-1.449l-.227.226c1.05 1.047 1.866 2.308 3.067 3.209.652.488 1.103 1.062 1.316 1.827l.058.058.027.056c.615.223 1.309.332 1.818 1.185-.91-.223-1.484-.525-1.818-1.185a1.514 1.514 0 0 1-.061-.023l-.024-.091zm34.012 7.591c.633-.127.977-.501 1.087-1.227-.607.312-1.333.38-1.087 1.227zm-9.162 27.739c.723-.589 1.404-1.242 2.179-1.753 1.323-.873 2.587-1.786 3.299-3.257 1.197-2.47 2.878-4.58 4.707-6.604.672-.742 1.138-1.67 1.698-2.513-.477-.074-.786.004-1.043.165-1.86 1.16-3.033 2.961-4.295 4.672-.701.95-1.374 1.921-2.074 2.871a62.696 62.696 0 0 1-1.621 2.117c-.884 1.102-1.789 2.188-2.686 3.281h.002c-.054.344-.107.688-.166 1.021zm-.016.012c-.362-.336-.677-.14-1.003.09-.808.572-1.637 1.115-2.434 1.704-.403.297-.767.657-.806 1.38 1.403-.958 2.876-1.537 3.77-2.895.09-.138.31-.189.473-.279zm-26.078-22.631c-.113.873.946 1.004 1.202 1.903-1.614-.678-2.228-2.513-3.953-2.851 1.628 3.374 4.412 5.556 6.926 7.984l.233-.181-.675-1.403c1.584 1.558 1.923 3.588 3.503 4.758-.166-.725-.326-1.466-.686-2.091-.992-1.719-2.091-3.376-3.106-5.083-.828-1.391-2.063-2.29-3.444-3.036zm2.497 4.082L13.22 130l.298-.167 1.021 1.907-.264.146zm29.969-8.458.202.279c.821-.695 1.813-1.233 2.311-2.664l-2.513 2.385zm2.732 13.346c-4.165 1.927-5.749 5.851-7.53 9.632a18.858 18.858 0 0 0 1.822-1.962c.699-.852 1.267-1.795 1.877-2.709 1.158-1.733 2.542-3.316 3.831-4.961zm-22.69 83.71.171.015c.118-.293.304-.577.344-.88.26-1.996.937-3.936.776-5.991-.062-.788.185-1.669-.091-2.352-.257-.63-.224-1.183-.222-1.784.003-.704-.008-1.408.022-2.111.058-1.329-.105-2.731.268-3.969.694-2.301.272-4.52-.054-6.788a15.65 15.65 0 0 0-.474 2.819c-.173 2.027-.24 4.067-.486 6.085a69.503 69.503 0 0 0-.525 8.038c-.006 1.51-.006 3.022.038 4.531.025.798.152 1.591.233 2.387zm1.686-29.26c-.589.507-.589.507-.285 1.505l.285-1.505zm-16.189-12.78c1.732 3.075 4.288 5.129 7.049 7.001-.167-.537-.504-.934-.787-1.366-.853-1.297-1.612-2.663-3.144-3.337-.313-.137-.57-.494-.761-.806-.498-.822-1.136-1.401-2.357-1.492zm15.815-27.406c-.501.919-1.277 1.816-.398 3.065l.398-3.065zm1.709-25.896c-.859 2.509-.86 2.54-.158 3.278.342-1.047.23-2.033.158-3.278zm21.046 46.927c1.092.232 1.465-.659 2.329-1.225-1.322-.218-1.71.712-2.329 1.225zm-8.169-42.447-.664 1.456c1.404-.578 2.399-1.361 3.195-2.378a256.968 256.968 0 0 0 3.742-4.924c.225-.303.358-.676.524-1.023-.298.171-.64.3-.86.542-1.499 1.643-2.955 3.326-4.455 4.97-.45.493-.983.909-1.482 1.357zm-.048.037c.04-.182.026-.417.136-.532 1.041-1.091 1.614-2.57 2.894-3.465.144-.101.178-.359.263-.545-2.048 1.281-4.26 2.247-5.61 4.332-.484.748-1.148 1.379-1.732 2.061-1.018 1.188-2.043 2.368-3.043 3.57-.084.101 0 .342.013.735.47-.29.841-.455 1.131-.711 1.234-1.089 2.446-2.202 3.658-3.313.243-.222.44-.493.682-.713.528-.482 1.071-.948 1.608-1.419zm-25.678 51.12c-.792-.798-1.425-1.356-1.962-1.995-1-1.188-1.928-2.458-3.335-3.193-1.086-.566-2.107-1.344-3.443-1.435 1.161 1.084 2.255 2.124 3.375 3.14.314.285.673.656 1.052.711 1.248.179 2.017.877 2.612 1.929.265.47.71.862 1.701.843zm9.383-112.164.367-.06c-.275-2.893-.519-5.789-1.109-8.637l-.408.054 1.15 8.643zM8.633 42.645c-1.297-1.912-2.526-3.867-4.221-5.455.677 2.374 2.205 4.104 4.221 5.454zm27.432 7.5.101 1.381c.59-.993 3.158-10.162 3-11.11l-.506.91-.641 1.155c.012-.322.024-.643.034-.965-.561.562-.889 1.214-1.2 1.874-.339.72-.606 1.48-1.003 2.166-1.074 1.86-2.383 3.573-3.28 5.547-1.317 2.9-2.038 5.95-2.517 9.072-.005.04.103.094.244.216l1.881-3.116.213.08c-.095.434-.191.867-.337 1.523 1.24-1.912 2.835-3.338 3.164-5.516l-.667.062c.276-.48.537-.854.717-1.264.288-.654.524-1.33.78-2l-.01.011c.16-2.45.839-4.787 1.606-7.1.079-.237.286-.432.433-.646-.375 1.657-.755 3.313-1.123 4.971-.173.774-.307 1.557-.501 2.325-.042.163-.245.286-.388.423zm-1.968 4.513-1.354 2.257c-.204-1.216.083-1.776 1.354-2.257z" fill="#687E6B"/></g><defs><clipPath id="a"><path fill="#fff" d="M0 0h54v224H0z"/></clipPath></defs></svg>