<svg width="316" height="244" fill="none" xmlns="http://www.w3.org/2000/svg">
    <path
        d="M189.748 58.052c.015.328-.063.614-.211.787a.569.569 0 0 1-.105.098.404.404 0 0 1-.406.033c-1.238-.553-2.6-.624-4.289-.222-1.267.3-2.428-.092-3.659-.509a64.33 64.33 0 0 0-.408-.138l-.12-.039.069-.106.636-.947.027-.041.05-.001c.496-.013.989-.026 1.482-.041a238.34 238.34 0 0 1 3.413-.08c.851-.013 1.577.322 2.278.645.398.185.776.359 1.173.473l.067.019.003.069zm2.348 2.687c.074.11.154.213.234.319.079.101.157.204.23.309.39.579.674 1.225.116 2.037-.425.619-.668 1.353-.904 2.062a21.09 21.09 0 0 1-.276.801c-.149.401-.289.819-.423 1.223-.434 1.312-.884 2.664-1.816 3.763-.09.107-.185.21-.284.312-.185.187-.41.334-.628.475-.098.064-.196.127-.29.195l-.076.053-.273-.35.025-.054c.143-.308.288-.615.433-.922.352-.747.715-1.517 1.037-2.29.152-.364.234-.773.312-1.169.022-.108.043-.217.066-.324.104-.489.201-.98.298-1.469.158-.792.322-1.609.506-2.408.219-.954-.01-1.728-.722-2.434-.154-.153-.255-.351-.363-.56-.049-.096-.099-.194-.157-.291l-.063-.108.119-.034c1.693-.496 2.072-.383 2.899.864zm-7.706 13.604c-.19.12-.312.368-.453.656-.072.146-.145.297-.235.446l-.065.107-.087-.09c-.128-.134-.251-.259-.368-.38a17.997 17.997 0 0 1-.683-.718c-.248-.279-.505-.553-.762-.828-.64-.683-1.302-1.391-1.827-2.176-.453-.678-.747-1.471-1.032-2.238-.098-.265-.195-.53-.301-.791a12.76 12.76 0 0 1-.518-1.618 11.34 11.34 0 0 0-.116-.405c-.136-.463-.278-.943-.216-1.397.172-1.282.456-2.531.826-4.013.174-.7.528-1.224 1.023-1.521.492-.293 1.115-.355 1.802-.179 1.192.305 2.364.574 3.585.501l.151-.005c.205-.009.417-.017.577-.095.911-.449 1.8-.285 2.55-.066l.062.019.007.064c.073.671.237 1.44.908 2.057.434.399.55.965.344 1.682a23.335 23.335 0 0 0-.429 1.904c-.142.727-.289 1.479-.517 2.195-.363 1.149-.887 2.264-1.392 3.342l-.199.425a8.094 8.094 0 0 1-1.148 1.822 6.567 6.567 0 0 1-1.487 1.3zm4.967 1.03.294.034-.257.146c-1.46.823-2.747.79-4.106.757l-.47-.012.09-.142c.647-1.052 1.274-1.158 4.449-.783zm-12.925-8.831.253.106c.957.394.913 1.049.876 1.574l-.021.327-1.108-2.007zm-.18-1.745-.202-.837a36.269 36.269 0 0 1-.434-1.908c-.164-.865.429-1.405.951-1.885.136-.125.354-.133.63-.143.14-.005.3-.012.474-.033l.137-.018-1.151 4.856-.386.054-.019-.086zm5.562 11.191c-1.686 1.185-3.97.346-5.685-2.089l-.109-.154.189.001c1.883.018 3.316.817 4.704 1.589.294.164.59.329.892.488l.138.074-.129.091zm1.522 1.927c.464.774.465.816.058 1.503l-.166.28-.087-2.108.195.325zm1.066 8.595-.209-.299c-.745-1.07-.947-2.348-.696-4.414l.009-.073.446-.058.45 4.844zm1.075 6.385-.437.084-.03-.071c-.439-1.016-.563-2.115-.379-3.359l.082-.556.764 3.902zm1.748-.2c.849-.51 1.728-1.038 2.62-1.506.42-.22.864-.408 1.294-.588.488-.206.993-.419 1.458-.68.427-.238.877-.456 1.311-.665 1.072-.518 2.181-1.056 3.037-1.967.391-.418.85-.782 1.292-1.133.172-.137.346-.275.515-.416.893-.744 1.573-1.718 2.079-2.979.277-.695.626-1.563 1.646-2.062l.18-.087-.043.194c-.544 2.483-1.855 4.368-3.043 5.941a8.013 8.013 0 0 1-.303.38c-.926 1.092-1.948 1.707-3.11 1.878-.556.081-.984.342-1.487.674l-.151.1c-1.654 1.095-3.364 2.227-5.159 3.125l-.187.094c-.907.457-1.937.977-3.297.875l-.241-.017.187-.154c.135-.108.245-.205.345-.289.181-.156.323-.28.483-.375l.574-.343zm-.029-.687c.191-1.011.665-1.701 1.752-2.542.417-.323.821-.678 1.212-1.022.445-.391.906-.795 1.39-1.158 1.016-.761 2.094-1.474 3.135-2.165l.352-.233c.281-.188.579-.358.868-.525.465-.268.947-.544 1.357-.886.682-.571 1.454-.779 2.347-1.019.211-.056.429-.115.656-.18l.201-.061-.086.192a8.829 8.829 0 0 1-1.323 2.085c-.614.722-1.32 1.344-2.109 2.011-1.736 1.465-3.745 2.466-5.689 3.434-.726.362-1.477.736-2.201 1.128-.398.214-.776.453-1.176.705-.179.112-.357.224-.541.337l-.186.114.041-.215zm-5.141-.452.074.299-.232-.204c-2.034-1.784-4.376-2.726-6.641-3.637l-.066-.027c-2.587-1.04-4.556-2.107-6.199-3.354-.801-.609-1.695-1.362-2.182-2.612l-.081-.204.206.08c.359.14.707.272 1.046.399.719.272 1.399.528 2.06.828.638.289 1.275.608 1.892.916.934.467 1.9.949 2.882 1.338 2.062.815 3.72 2.23 5.325 3.598l.114.097c.703.599 1.499 1.278 1.802 2.483zm-1.001.133c.114.123.232.251.357.369l.213.201-.291-.036c-.395-.05-.777-.091-1.154-.131-.819-.087-1.592-.17-2.357-.324-2.303-.465-3.959-1.099-5.365-2.057-.494-.336-.985-.68-1.476-1.022a80.924 80.924 0 0 0-2.676-1.819c-.743-.473-1.079-1.195-1.405-1.894a8.068 8.068 0 0 0-.48-.929c-.206-.327-.328-.708-.444-1.076-.053-.164-.106-.328-.165-.489l-.019-.049.033-.043a6.07 6.07 0 0 1 .104-.134l.067-.086.077.078c.066.069.135.132.204.197.156.143.318.292.431.473.873 1.394 1.864 2.311 3.12 2.886.724.333 1.417.755 2.089 1.163.519.316 1.056.644 1.602.925.534.276 1.108.5 1.664.718.411.161.834.327 1.242.513 1.224.561 2.528 1.164 3.809 1.854.313.167.559.431.82.712zm4.74 5.171-.124.279-.343-1.754.192.126c.65.428.661.478.275 1.349zm.593 1.216c.831 1.645 1.367 3.425 1.885 5.147.422 1.4.859 2.85 1.451 4.211l-.174.082c-1.399-2.74-2.491-5.807-3.343-9.374l-.189-.8.37.734zm4.3 11.733.52 1.213.037.085-.402.19-.626-1.381.432-.199.039.092zm11.911 20.903c-.018-.098-.048-.199-.077-.3-.068-.237-.138-.483-.078-.704.296-1.065.257-2.114.215-3.226-.044-1.221.616-2.176 1.694-3.333l.193-.206-.026.28c-.272 2.925-.723 5.311-1.423 7.511l-.023.069-.462-.014-.013-.077zm-3.081-6.514.273.151c1.529.837 1.969 1.702 1.684 3.305l-.051.282-1.906-3.738zm-1.023-2.517c-.519-1.419-1.016-3.168-.745-5.383l.03-.252.146.21c.333.484.663.943.984 1.391.743 1.037 1.444 2.015 2.034 3.053.34.6.467 1.326.589 2.027.04.227.079.455.126.676.096.455.151.91.203 1.35.024.189.045.371.07.547l.023.168-.156-.066c-.668-.283-2.958-2.776-3.304-3.721zm.079-8.759c.185-.317.312-.665.446-1.033.063-.171.126-.344.196-.515l.044-.106.097.061c.053.033.097.057.134.077.072.039.13.071.168.126.914 1.402 1.183 2.988.847 4.993-.086.514.006 1.064.114 1.702.054.319.108.65.149 1.012l.041.366-.215-.3c-.24-.334-.466-.641-.682-.931-.456-.614-.851-1.143-1.19-1.718-.79-1.332-.838-2.552-.149-3.734zm2.227-.465c-1.157-1.139-1.153-3.258.01-4.926l.108-.155.062.177c.451 1.268.285 2.476.123 3.644-.053.392-.109.799-.139 1.199l-.017.208-.147-.147zm.068-8.301-.013-.121.12.013c.091.01.177.013.25.015.166.005.275.008.321.095.363.703.716 1.407 1.069 2.112.354.704.707 1.408 1.069 2.108.687 1.332.117 2.612-.341 3.638l-.057.128c-.16.365-.342.779-.637 1.127a2.038 2.038 0 0 1-1.036.665l-.109.03-.013-.113c-.104-.964.033-1.877.164-2.76.112-.741.216-1.441.192-2.173-.03-.897-.259-1.724-.5-2.6-.193-.694-.391-1.414-.479-2.164zm3.271 8.121c-.037.444-.061.893-.083 1.329-.117 2.15-.227 4.196-1.694 5.925a6.537 6.537 0 0 1-.709.715l-.133.116-.025-.173c-.232-1.493-.444-3.087-.275-4.72.035-.375.278-.416.439-.442.08-.013.142-.017.15-.054.046-.091.052-.223.059-.351.009-.17.016-.344.117-.464l.008-.007c.412-.457.852-.874 1.36-1.357.2-.188.407-.385.623-.595l.183-.177-.02.255zm.013 5.891c.721 2.196.197 4.232-1.703 6.6l-.132.166-.038-.209c-.061-.347-.134-.671-.203-.984-.154-.699-.289-1.302-.27-1.918.02-.678.396-1.377.76-1.972.269-.439.624-.832.971-1.21.151-.167.305-.334.45-.505l.112-.132.053.164zm-14.711 5.718c.368.334.728.689 1.078 1.033.672.661 1.369 1.345 2.129 1.909 1.604 1.189 2.933 2.61 4.438 4.376.305.358.641.702.965 1.036.196.201.391.401.583.606.178.192.349.394.516.589l.233.271.054.064-.332.368-.065-.033c-.246-.122-.494-.241-.742-.361-.53-.254-1.078-.516-1.599-.812-1.384-.789-3.247-1.731-5.397-2.01-1.026-.134-1.948-.582-2.838-1.017-.326-.159-.662-.324-.999-.469a38.759 38.759 0 0 0-.592-.247c-.449-.185-.914-.375-1.35-.61-.392-.212-.75-.466-1.129-.736-.164-.116-.328-.233-.496-.348l-.115-.077.113-.081c.303-.217.595-.424.881-.626.611-.43 1.186-.839 1.748-1.263 1.068-.805 1.408-1.693 1.109-2.874l-.076-.293.231.197c.171.144.344.287.516.43.378.315.767.64 1.136.978zm16.312 37.521c-.79-.632-1.273-1.485-1.739-2.311-.088-.154-.176-.309-.266-.462-.086-.147-.151-.309-.215-.465-.087-.219-.171-.426-.306-.589-1.364-1.651-.975-3.386-.352-5.016l.007-.014-.007-.034c-.081-.407-.133-.932.192-1.381l.039-.055.467.131-.522 1.343a2.8 2.8 0 0 0 .09.159c.085.149.173.303.215.472l.106.423c.26 1.04.529 2.114.742 3.184.351 1.758.903 3.226 1.69 4.489l.3.482-.441-.356zm1.434 1.141c-.225-.436-.479-.87-.724-1.289-.676-1.156-1.375-2.351-1.586-3.761-.133-.881-.31-1.623-.542-2.267-.393-1.092-.366-2.214-.342-3.299.013-.522.024-1.061-.011-1.586-.008-.118.034-.236.071-.341l.024-.072c.021-.063.073-.081.134-.106a1.88 1.88 0 0 0 .118-.05l.11-.053.026.12c.035.175.072.347.109.519.082.379.159.739.224 1.109.272 1.573.755 3.2 1.515 5.12.064.157.158.304.255.457.067.106.137.213.196.325l.37.705a271.159 271.159 0 0 1 1.879 3.621l.14.272c.278.539.565 1.098.708 1.685.239.972.417 1.972.59 2.94.072.4.144.8.219 1.198l.016.087-.532.151-.035-.072c-.14-.278-.275-.557-.412-.837a54.394 54.394 0 0 0-.99-1.956 28.758 28.758 0 0 0-.706-1.198c-.281-.46-.572-.935-.824-1.422zm-5.676-25.965c.927 1.379 1.676 2.88 2.401 4.332.885 1.774 1.799 3.609 3.044 5.217 1.521 1.966 2.928 3.981 4.417 6.114.662.947 1.345 1.925 2.046 2.91l.02.027-.002.034c-.059 1.482.667 3.075 1.368 4.615l.18.396c.906 2.004 2.271 3.729 3.947 4.992l.212.158c1.381 1.039 2.686 2.021 3.784 3.32.299.355.624.702.937 1.038.847.904 1.722 1.84 2.229 3.052.114.272.352.561.636.771 1.25.925 2.233 2.122 3.184 3.281.205.249.41.499.618.746 1.5 1.787 3.053 3.579 4.554 5.313.606.699 1.212 1.397 1.815 2.098.433.502.864 1.006 1.293 1.51a159.213 159.213 0 0 0 3.133 3.598c.362.399.73.794 1.099 1.189.973 1.043 1.979 2.122 2.885 3.316l.245.322-.721-.351c-.396-.193-.791-.386-1.19-.575-.857-.41-1.717-.813-2.577-1.217-1.977-.927-4.022-1.887-5.997-2.902-.957-.492-1.864-1.116-2.742-1.719-.421-.288-.856-.588-1.292-.868-.644-.417-1.291-.83-1.938-1.244-1.04-.665-2.117-1.353-3.167-2.041-.338-.223-.665-.473-.982-.714a17.84 17.84 0 0 0-.841-.619 467.563 467.563 0 0 0-2.632-1.777c-1.408-.946-2.863-1.923-4.278-2.907-.432-.3-.843-.644-1.239-.977-.491-.411-.999-.838-1.546-1.177-.91-.563-1.534-1.292-1.963-2.296-.402-.942-.813-1.881-1.249-2.874l-.622-1.423.161.014c.333.026.543-.014.644-.123l.006-.007c.083-.099.097-.264.046-.548a68.736 68.736 0 0 1-.256-1.655c-.109-.744-.221-1.514-.371-2.261-.147-.726-.432-1.435-.708-2.122a140.956 140.956 0 0 0-1.701-4.015c-.125-.282-.324-.542-.516-.794l-.055-.073c-1.724-2.275-2.256-4.974-2.619-7.327-.127-.82-.379-1.64-.623-2.433a70.785 70.785 0 0 1-.227-.747 5.66 5.66 0 0 0-.24-.625c-.12-.278-.243-.565-.303-.867-.109-.559-.405-.661-.944-.625-.004.053-.01.105-.016.155-.015.142-.031.276.009.371.612 1.459.214 2.856-.172 4.208-.118.416-.276.829-.428 1.229-.252.66-.512 1.342-.591 2.028l-.036.307c-.155 1.284-.313 2.611.533 3.838.499.727.911 1.527 1.309 2.302.237.461.482.938.743 1.394.153.268.357.517.554.758.13.16.265.325.386.495.386.544.767 1.089 1.146 1.636.542.775 1.103 1.578 1.666 2.358 1.002 1.394 1.763 2.619 2.214 4.069.234.749.557 1.487.87 2.2.142.325.285.65.419.977l.031.075-.374.248-.056-.065c-.435-.501-.874-1-1.312-1.499-1.003-1.141-2.04-2.321-3.018-3.516-1.074-1.313-2.124-2.679-3.14-4-.425-.552-.849-1.105-1.277-1.656-.517-.664-1.03-1.33-1.545-1.997-1.167-1.51-2.372-3.073-3.584-4.592-.422-.527-.909-1.021-1.38-1.499-.233-.237-.467-.473-.694-.715l-.841-.903c-.475-.51-.95-1.02-1.433-1.525l-.764-.801c-1.314-1.374-2.67-2.793-4.025-4.171a190.321 190.321 0 0 0-2.693-2.665c-.421-.41-.849-.826-1.284-1.255l-.123-.122.17-.04c.243-.057.483-.122.72-.185.541-.144 1.052-.28 1.584-.344.997-.118 1.76-.643 2.518-1.216.34-.258.797-.468 1.321-.606l.102-.029c.733-.196 1.492-.399 2.253-.43 2.445-.104 4.371-1.441 6.07-2.621.709-.493 1.574-.714 2.726-.698h.049l.03.042zm2.993 3.376.032.133.176.273c.836 1.307 1.7 2.659 2.537 3.995.048.078.034.166.006.339a7.41 7.41 0 0 0-.055.412l-.028.277-.15-.235a94.21 94.21 0 0 0-.679-1.059c-.498-.77-.929-1.435-1.318-2.141-.214-.388-.339-.826-.461-1.25-.04-.134-.079-.269-.121-.403l-.039-.129-.959-1.138.241.029c.622.069.725.51.818.897zm9.734 7.721.138.117c.194.165.383.322.566.476.457.383.889.744 1.301 1.124.2.186.359.464.414.725.307 1.458.591 2.895.891 4.416l.3 1.511-.173-.082c-1.526-.722-2.596-1.856-3.272-3.471l-.761.407.596-5.223zm3.476-.676.032-.173.128.122c2.734 2.6 3.04 5.389 1.056 9.629l-.104.22-.075-.23c-.898-2.718-1.722-5.98-1.037-9.568zm-3.684-3.245.033-.385 1.884 4.411-.053.046c-.065.058-.13.116-.197.173l-.06.053-.063-.052c-1.201-.981-1.706-2.37-1.544-4.246zm.171-1.494c-.166-.352-.336-.714-.515-1.085l-.163-.34.307.22c1.454 1.04 2.311 2.361 3.201 3.853.431.723.259 1.543.078 2.412-.04.19-.08.383-.116.581l-.036.203-.132-.159c-.575-.687-.81-1.439-1.039-2.167-.143-.458-.28-.889-.493-1.29-.382-.716-.727-1.451-1.092-2.228zm6.858 9.662c1.547 1.551 2.781 3.025 2.199 5.386-.074.299-.138.6-.202.903-.123.581-.25 1.182-.451 1.76-.224.642-.441 1.302-.671 2l-.353 1.067-.066.198-.108-.179a35.31 35.31 0 0 1-.311-.53 13.558 13.558 0 0 0-.617-.997c-1.19-1.702-1.413-3.499-.679-5.494.323-.882.54-1.789.77-2.751.105-.436.21-.875.327-1.319l.043-.163.119.119zm.335 12.188.024.021.045.291.217 1.417.031-.005c.183-.029.363-.058.569-.089l.066-.01.032.057 1.062 1.837-.06.052-.189.163-.069.059-.063-.065c-.092-.096-.182-.193-.273-.29a6.54 6.54 0 0 0-.607-.605l-.036-.031c-.855-.712-1.741-1.448-2.649-2.117l-.197-.144c-.611-.439-1.241-.894-1.545-1.83l-.052-.16.164.037.435.092c1.137.238 2.214.465 3.095 1.32zm-6.084-9.323c.917.773 1.866 1.572 2.776 2.383.206.183.312.466.416.74.027.074.054.145.082.214.232.567.461 1.134.689 1.701.282.699.563 1.396.851 2.092.048.116.133.225.238.362.06.079.127.164.198.266l.131.189-.225-.039a25.024 25.024 0 0 0-.583-.088c-.406-.057-.758-.108-1.107-.207-.341-.098-.664-.267-.975-.431l-.221-.114c-1.658-.85-2.636-2.317-3.073-4.615l-.531-2.814-.066-.344.382-.154.045.037.973.822zm8.596 3.728c.853 3.155 1.671 6.945 1.285 11.137l-.026.285-.445-.71c-.801-1.271-1.557-2.472-1.947-3.839-.066-.235-.167-.467-.262-.694-.23-.535-.466-1.088-.333-1.752.362-1.787.841-3.159 1.551-4.449l.115-.209.062.231zm20.829 33.71.412.593-.552-.464c-1.897-1.596-3.69-3.508-5.646-6.021l-.559-.718.697.585c2.371 1.991 4.22 3.961 5.648 6.025zm13.336 13.266.039.231-.19-.137c-.32-.229-.648-.453-.973-.678-.733-.504-1.491-1.024-2.176-1.613-1.042-.897-1.144-1.8-.33-2.925l.059-.081.079.062c1.498 1.175 3.085 2.704 3.492 5.141zm1.313 2.862c.048.207.096.421.16.619.436 1.359.839 2.756 1.226 4.105l.166.573c.064.221.099.451.133.675.015.103.032.205.049.307l.015.079-.074.028-.329.126-.091.037-.034-.092c-.46-1.248-1.273-2.181-2.486-2.853-.68-.376-1.053-1.067-1.415-1.734a16.912 16.912 0 0 0-.253-.46c-.68-1.176-1.123-2.466-1.552-3.713-.231-.67-.469-1.363-.744-2.039l-.115-.285.258.167c.409.267.821.531 1.232.797.966.619 1.964 1.261 2.928 1.919.624.426.776 1.096.926 1.744zm1.627 9.111c-.057.386.048.796.169 1.27.059.233.121.474.168.732l.027.147-.146-.037c-1.241-.317-1.825-1.123-2.339-1.834-.094-.129-.187-.257-.281-.38-.189-.244-.195-.612-.199-.966-.003-.168-.005-.341-.027-.495-.094-.661-.194-1.322-.303-2.053l-.182-1.218.166.084c.154.078.288.139.408.19.224.1.402.177.538.307 1.213 1.149 2.28 2.339 2.001 4.253zm.851 3.676 1.05 2.798.027.073-.285.178-.053-.046-.407-.347a33.283 33.283 0 0 0-.961-.807 4.425 4.425 0 0 0-.379-.258c-.19-.121-.387-.246-.548-.409-.31-.313-.695-.703-.874-1.156-.145-.359-.203-.756-.27-1.214-.031-.22-.066-.459-.115-.72l-.036-.197 2.577 1.375.274.73zm1.32 3.794.001.001c.395.431.552 1.216.531 1.804-.031.894-.18 1.794-.323 2.666-.039.242-.08.483-.117.723-.019.122-.1.22-.231.36-.07.08-.159.18-.257.306l-.152.196-.021-.246c-.02-.243-.049-.464-.074-.667-.052-.404-.096-.755-.056-1.094.118-.975-.093-1.884-.661-2.864l-.081-.137c-.412-.705-.837-1.433-.82-2.377l.003-.173.145.093c.229.145.464.278.692.408.534.301 1.039.588 1.421 1.001zm-1.659 3.329c-.073-.156-.14-.316-.209-.473-.152-.351-.308-.716-.504-1.044-.214-.356-.465-.685-.731-1.034-.117-.154-.236-.31-.353-.47l-.04-.053.609-.963.077.152c.16.313.332.618.498.913.51.907.991 1.763 1.101 2.791l.007.067-.061.03a21.56 21.56 0 0 0-.264.13l-.088.045-.042-.091zm-4.484-7.37c.115-.369.278-.721.466-1.109.1-.207.211-.402.365-.671.083-.144.177-.306.285-.503l.124-.222.055.249c.054.241.097.457.138.656.082.402.146.721.244 1.033.036.116.07.235.104.353.137.469.278.952.547 1.32.748 1.027.352 1.857-.119 2.618l-.054.086-1.266-.867c-.879-.601-1.244-1.81-.889-2.943zm-1.059-.006c-.163-.381-.336-.76-.507-1.137-.404-.886-.821-1.801-1.107-2.742-.253-.828-.065-1.761.57-2.851.331-.563.643-1.143.975-1.757.158-.293.321-.596.494-.911l.06-.109.09.085c.91.843.997 1.956 1.08 3.032.042.539.085 1.097.235 1.602.354 1.19-.179 2.205-.694 3.186-.26.493-.528 1.005-.675 1.529l-.017.058-.473.085-.031-.07zm-2.706-7.643-.031-.12a59.15 59.15 0 0 1-.867-3.888c-.102-.543-.152-1.353.561-2.041.222-.212.36-.538.532-.945.092-.217.197-.462.33-.729l.091-.184.083.187.435.964c.269.591.5 1.102.709 1.614.264.645.465 1.192.593 1.76.082.365.145.885-.01 1.3-.299.8-.644 1.574-1.012 2.393-.144.323-.292.653-.44.991l-.044.102-.095-.06c-.595-.372-.723-.889-.835-1.344zm-8.006-20.068-.39-.578 4.31 3.655-.229.021c-1.06.095-2.163-.831-3.691-3.098zm6.342 6.339-.017.107-.105-.03c-.618-.177-1.012-.6-1.468-1.09-.173-.186-.353-.38-.56-.577l-.263-.248.353.085c1.731.421 2.213.831 2.06 1.753zm.563 7.624c-.053-.445-.116-.877-.177-1.301-.2-1.384-.39-2.69-.197-4.03.001-.007.115-.706.387-.749.249-.041.403-.122.462-.227.106-.184-.014-.493-.155-.851l-.132-.351 1.073.251-.006 1.246a319.752 319.752 0 0 1-.022 2.993c-.011.892-.145 1.953-1.062 3.069l-.144.174-.027-.224zm-3.956-9.242-1.212-.82.273-.39 1.172.865-.233.345zm-19.945-11.598c-1.973-.562-4.013-1.275-5.565-2.686a45.94 45.94 0 0 0-4.009-3.245l-.079-.056.277-.384.078.051 9.378 6.146.528.348-.608-.174zm-33.943-29.917.226.006c1.774.041 2.61 1.131 3.349 2.092a979.063 979.063 0 0 1 4.878 6.399c.172.227.268.53.286.903l.014.27-8.753-9.67zm-4.57-2.945c-4.51-1.204-9.021-2.41-13.528-3.62-.081-.023-.101-.102-.131-.222-.015-.055-.032-.123-.058-.202l-.04-.123.13-.003c.17-.003.337-.015.502-.028.364-.026.709-.051 1.049.012 3.681.683 7.29 1.85 10.78 2.978.731.236 1.463.472 2.194.705.176.054.304.21.429.358.052.062.104.125.159.179l.075.072-.078.068c-.062.056-.107.097-.154.137l-.038.033-.05-.012-1.241-.332zm-22.5-10.433-.157-.178.236.018c1.053.082 1.848.235 2.556.743.117.083.217.187.316.286l.086.086c.898.89 1.797 1.778 2.694 2.669l.571.564-.484-.216c-2.687-1.202-4.428-2.391-5.818-3.972zm7.958 6.356-.532-.134c-3.44-.868-6.997-1.766-10.339-3.148l.067-.179c1.462.505 2.988.886 4.465 1.252 2.138.534 4.349 1.083 6.403 2.027l-.064.182zm-10.159-8.085c-.667-.83-1.32-1.693-1.952-2.528-.284-.376-.568-.753-.854-1.127l-.052-.066.463-.464.067.058a23 23 0 0 1 .477.411c.353.307.717.627 1.096.91.121.089.242.186.363.285.405.328.824.667 1.265.744 1.536.268 2.15 1.358 2.861 2.618.072.131.147.264.226.4l.122.212-.234-.073c-.45-.137-.9-.207-1.336-.274-.951-.146-1.85-.286-2.512-1.106zm-3.744-6.839a18.17 18.17 0 0 0-.026-1.541 51.86 51.86 0 0 1-.027-.708l-.004-.145.135.052c2.873 1.11 3.986 3.515 5.064 5.84.159.343.317.686.482 1.025l.025.05-.242.364-.076-.035a7.68 7.68 0 0 0-.347-.147c-.256-.104-.523-.212-.748-.377a114.342 114.342 0 0 1-2.079-1.586c-.432-.335-.863-.67-1.298-1.001-.614-.467-.888-1.036-.859-1.791zm3.342-1.997c-.075-.216-.101-.449-.134-.745a14.56 14.56 0 0 0-.069-.554l-.027-.189.168.09c1.367.725 2.472 1.391 3.426 2.282.237.22.351.625.358.908a43.389 43.389 0 0 1-.035 3.15 22.216 22.216 0 0 1-.152 1.604c-.029.245-.058.489-.084.733l-.007.08-.081.006a1.365 1.365 0 0 0-.067.008c-.069.008-.147.019-.182-.054l-.377-.841c-.594-1.321-1.209-2.687-1.794-4.04-.33-.763-.637-1.56-.943-2.438zm-4.043-3.808-.01-.321 2.614 3.739-.311-.132c-1.478-.632-2.25-1.737-2.293-3.286zm1.11.359.276.101c1.331.479 1.678.995 1.954 2.901l.061.421-2.291-3.423zm7.749 6.429c.205.33.419.656.631.982.521.797 1.06 1.623 1.487 2.488.237.479.153 1.137.078 1.718l-.02.162c-.088.713-.22 1.412-.373 2.221-.069.367-.142.753-.215 1.169l-.041.229-.134-.19-.652-.924a97.357 97.357 0 0 1-1.723-2.492c-.146-.219-.098-.583-.066-.824.15-1.121.312-2.259.469-3.36l.158-1.112.359-.133.042.066zm3.227 5.389 1.479 5.635.044.169-.166-.053c-1.944-.616-2.672-1.816-2.297-3.773.085-.446.183-.897.28-1.334l.13-.597.015-.068.494-.06.021.081zm9.647 1.099-.133-.057.105-.101c1.634-1.555 3.242-2.458 5.057-2.842.546-.115 1.078-.363 1.592-.603.389-.182.792-.369 1.204-.503.313-.102.626-.207.939-.314 1.498-.506 3.048-1.031 4.716-1.045.578-.006 1.169-.151 1.741-.291.265-.066.537-.132.808-.186l.097-.019.016.098c.018.104.036.206.056.311l.012.06-.052.035-.429.304c-1.364.966-2.775 1.967-4.636 2.118-.929.077-1.866.327-2.771.57-.275.073-.55.147-.826.215-.38.096-.742.268-1.021.486-1.502 1.18-2.84 1.688-4.34 1.646-.232-.007-.467.053-.717.116-.444.113-.901.229-1.418.002zm16.98-6.585.299.163-.34.019c-3.559.185-6.254.69-8.736 1.638-.59.225-1.183.445-1.778.667-2.04.758-4.151 1.542-6.174 2.562l-.492.248.378-.4c.299-.318.592-.641.885-.964.697-.771 1.418-1.568 2.216-2.254.661-.571 1.619-.868 2.306-1.016 2.444-.531 4.885-.964 7.16-1.353 1.587-.272 2.907-.059 4.276.69zm-19.241 3.727c-.941-.993-1.891-1.995-2.836-3.003a793.298 793.298 0 0 1-2.94-3.158l-1.564-1.685.235.011c.16.007.307.012.445.015.276.007.513.014.755.042 1.498.171 2.666-.112 3.672-.888.268-.207.619-.297.991-.392.177-.046.361-.092.545-.154l.165-.056-.041.169c-.442 1.865-1.731 2.686-3.032 3.349.029.04.056.08.082.119.053.078.144.211.182.215 1.925.077 3.608-.617 5.002-2.066.266-.271.369-.713.476-1.144.031-.127.063-.253.097-.373.073-.251.102-.522.129-.783.012-.119.025-.238.041-.353l.007-.048.042-.023c.879-.485 1.472-.2 2.1.101.376.183.752.369 1.126.552 1.611.793 3.275 1.613 4.992 2.159.536.171 1.098.312 1.642.449.799.199 1.624.405 2.407.714.233.093.455.205.735.346.149.076.317.16.511.255l.21.101-.22.077c-1.902.664-3.709.948-5.455 1.223-.374.059-.747.118-1.118.18-.983.163-1.996.331-2.983.597-.689.186-1.296.626-1.865 1.325-.256.322-.557.615-.846.898-.241.236-.489.48-.711.737l-.051.06c-.309.365-.591.746-.914 1.185-.16.213-.326.438-.505.675l-.07.091-1.438-1.519zm-14.178-11.12-.07-.067 1.317-1.391.058.018c.092.028.192.05.3.073.254.055.541.117.77.275 1.522 1.051 3.3 1.272 5.021 1.486.295.037.591.074.884.115.339.046.679.088 1.018.13.529.065 1.075.131 1.61.217.181.03.346.127.505.221.072.041.143.084.216.12l.104.051-.069.093a3.753 3.753 0 0 1-.13.164c-.582.686-1.287.85-2.155.88-1.332.044-2.656-.157-4.049-.612-.278-.092-.581-.101-.902-.112a6.5 6.5 0 0 1-.52-.03c-1.717-.196-2.921-.699-3.908-1.631zm-2.055-2.715.054.357-1.429-1.799.325.121c.885.329.905.353 1.05 1.321zm-13.605-12.163c.387.36.748.763 1.129 1.189.187.21.384.428.597.659l.321.347-.432-.194c-1.571-.705-8.215-6.085-8.775-7.106l-.251-.458.398.338.365.312c.2.174.358.309.519.434.066.051.136.115.206.178.147.132.347.313.444.292.793-.178 1.271.253 1.734.669.067.062.135.122.203.181a117.77 117.77 0 0 1 3.542 3.159zm-17.401-13.693-.053-.059.267-.358.079.057 9.778 7.282-.535-.165c-4.318-1.332-7.364-4.31-9.536-6.757zm31.933 23.589c.097-.338.191-.677.284-1.016.248-.904.504-1.836.836-2.727.255-.683.605-1.618 1.743-1.752l.1-.012.007.102c.017.24.035.48.054.718.046.571.091 1.161.097 1.742a2.13 2.13 0 0 1-.279 1.049c-.233.398-.489.791-.737 1.17-.29.446-.591.908-.855 1.378-.103.184-.117.484-.042.919.048.277.148.555.244.825.042.119.085.238.124.359l.023.07-.061.04-.223.151-.052.036-.054-.034c-.058-.036-.12-.07-.18-.104a1.542 1.542 0 0 1-.402-.277c-.317-.341-.756-2.188-.627-2.637zm17.24 6.063-.012.181c-.052.754-.101 1.479-.564 2.025a2.074 2.074 0 0 1-.675.512c-.372.181-.717.431-1.119.72-.203.147-.422.305-.669.472l-.286.192.144-.312c.816-1.776 1.805-2.986 3.023-3.699l.158-.091zm-12.917-11.556c.203-.178.5-.251.863-.211.333.037.679.05 1.012.063.888.033 1.805.067 2.652.546.167.094.372.128.59.162.134.021.273.044.406.083.091.026.184.05.278.072.299.076.61.154.859.329.212.15.424.298.639.446.97.675 1.972 1.372 2.853 2.179 1.553 1.424 2.643 3.308 3.433 5.93l.02.064-.054.041c-1.658 1.228-3.205 1.537-5.018 1.004-.794-.234-1.649-.33-2.474-.422a23.911 23.911 0 0 1-1.538-.205 39.48 39.48 0 0 0-.974-.156c-1.271-.192-2.585-.392-3.753-1.083-.441-.263-.957-.584-1.421-.978-.599-.508-.686-1.125-.251-1.783l.205-.306c.336-.507.685-1.031.948-1.58.225-.465.307-1.027.354-1.465.05-.465.054-.947.058-1.411.002-.183.003-.366.008-.548.007-.342.112-.6.305-.771zm-.581-1.05c1.632-1.522 2.842-1.766 4.619-.932.775.365 1.553.723 2.331 1.081l1.375.636c.996.462 1.626 1.319 2.236 2.148.137.187.274.374.416.557l.404.521-.536-.384-.835-.593a82.478 82.478 0 0 1-1.903-1.373c-.61-.457-1.303-.865-2.237-.748-.346.043-.791-.082-1.035-.293-.666-.576-1.409-.575-2.174-.521-.565.039-1.134.047-1.738.055-.275.004-.558.008-.854.014l-.253.005.184-.173zm18.175 7.283.177-.042-.065.17a3.953 3.953 0 0 1-.67 1.148c-.646.762-1.61 1.265-2.985 1.579l-.233.054.13-.2c1.004-1.524 2.123-2.36 3.646-2.709zm43.516 48.506a2.971 2.971 0 0 0-.108-.237c-.085-.178-.172-.359-.206-.555-.058-.349-.122-.698-.184-1.047-.195-1.078-.398-2.193-.462-3.299-.035-.583.095-1.177.22-1.752.07-.325.143-.661.185-.99.149-1.156.568-2.24.973-3.287.315-.818.642-1.664.834-2.533.338-1.513.68-2.852 1.05-4.092.132-.447.343-.866.588-1.352.119-.239.248-.495.377-.778l.121-.258.062.277c.313 1.403-.037 2.503-.374 3.568-.049.154-.099.309-.144.463-.181.6-.392 1.199-.597 1.779-.289.82-.588 1.667-.801 2.518-.22.878-.318 1.807-.412 2.704-.034.32-.067.638-.107.956l-.096.785c-.187 1.509-.38 3.072-.524 4.612-.025.275-.034.548-.043.835-.016.537-.034 1.092-.169 1.667l-.068.294-.115-.278zm4.111-16.236c.45 1.36.915 2.765.899 4.206-.026 2.402-.627 4.41-1.841 6.14-.224.318-.384.697-.538 1.062a8.129 8.129 0 0 1-.389.831c-.125.22-.268.425-.43.616-.218.257-.472.49-.767.701l-.159.114.006-.195c.003-.091.004-.181.004-.271.001-.197.003-.401.032-.6.084-.581.174-1.161.265-1.743.166-1.062.338-2.162.461-3.248.276-2.45 1.128-5.3 2.279-7.625l.104-.21.074.222zm18.443 41.813c-.575-.613-.767-1.347-.89-2.051a14.605 14.605 0 0 1-.144-1.274c-.03-.362-.061-.736-.116-1.099-.142-.932.067-1.714.636-2.386.04-.047.08-.093.122-.137.608-.643 1.206-1.316 1.784-1.965.203-.231.407-.459.612-.688.155-.173.305-.351.473-.553l.34-.402.073.095c.493.648.403 1.356.315 2.042-.017.126-.033.251-.045.375-.185 1.86-1.068 3.514-2.703 5.057-.174.159-.269.409-.373.671-.039.097-.079.197-.123.293l.122.088 1.595-1.521-.007.234c-.026 1.018-.382 1.922-1.085 2.75a6.168 6.168 0 0 1-.449.475l-.07.066-.067-.07zm-3.965-5.311-.135-.49c-.366-1.336-.745-2.719-.815-4.189l-.009-.176.154.089c2.542 1.47 3.569 2.723 2.49 5.818.82.343.803.458.621 1.738l-.019.132-.119-.059c-1.414-.695-1.89-1.838-2.168-2.863zm2.528-2.676c-.175-1.214-.326-2.261-.18-3.36.027-.197.043-.397.06-.599.043-.515.087-1.048.291-1.509.289-.657.743-1.248 1.181-1.82l.264-.346c.529-.702 1.07-1.382 1.643-2.102.252-.316.51-.639.77-.969l.144-.183.028.231c.045.379.087.759.13 1.14.092.82.188 1.67.312 2.501.311 2.101-.77 3.709-1.816 5.263l-.173.259c-.233.348-.491.674-.773 1.007-.217.256-.449.516-.694.792-.273.305-.555.62-.852.97l-.143.168-.026-.22a48.882 48.882 0 0 0-.166-1.223zm-1.056-1.098a67.011 67.011 0 0 0-.717-.709c-.585-.574-1.137-1.115-1.645-1.698-.252-.288-.421-.771-.433-1.232-.037-1.655.521-3.208 1.145-4.785l.061-.151.104.125c.969 1.17 1.702 2.199 2.127 3.416.091.259.084.607-.019.845-.355.831-.37 1.705-.384 2.632-.009.483-.018.982-.075 1.499l-.022.199-.142-.141zm1.275-6.84c.194-1.471.374-2.839.558-4.206.011-.087.038-.17.065-.25a.912.912 0 0 0 .059-.247c.082-1.546.093-1.574 1.414-2.948l.099-.102.059.129.367.794c.329.709.641 1.378.931 2.068.097.232.133.595.018.842-.139.291-.261.567-.379.833-.381.857-.715 1.609-1.318 2.321-.429.506-.994.991-1.809 1.48l-.172.103.108-.817zm-1.796-5.415c.056-.212.113-.423.166-.634.056-.223.147-.436.274-.731.073-.167.156-.362.253-.603l.079-.198.096.191c.115.227.239.429.348.607.218.354.39.634.38.925-.052 1.374-.168 2.772-.28 4.125-.042.507-.084 1.015-.123 1.527l-.009.118-.114-.033a4.72 4.72 0 0 0-.177-.047c-.068-.016-.109-.026-.144-.06-1.711-1.596-1.223-3.422-.749-5.187zm1.344-2.498c-.206-.174-.311-.338-.318-.499-.009-.209.14-.362.276-.492.045-.046.09-.09.127-.137l.203-.257-.147 1.505-.141-.12zm.946-2.156-.031-.333 1.328 1.737-.022.052-.131.31c-.096.234-.18.436-.28.63a.358.358 0 0 1-.053.076 1.17 1.17 0 0 1-.16.146 2.582 2.582 0 0 0-.149.127l-.081.074-.064-.091c-.383-.552-.365-1.108-.344-1.753.009-.308.02-.626-.013-.975zm4.302 27.837-.104-.155.187.006c.587.02 1.148.043 1.694.066 1.235.053 2.402.103 3.557.078.865-.018 1.746-.177 2.598-.332l.526-.093c.922-.16 1.762.017 2.737.222.368.078.749.159 1.156.224l.352.059-.333.127c-.463.177-.893.353-1.302.521-.919.376-1.712.7-2.55.918-.838.216-1.758.174-2.628.097a40.16 40.16 0 0 1-2.438-.322c-.527-.08-1.073-.164-1.611-.231-.819-.103-1.352-.445-1.841-1.185zm-.842-.997a8.053 8.053 0 0 1-.067-.278l-.02-.084.082-.028c.187-.066.377-.147.562-.224.416-.177.847-.358 1.291-.389.377-.026.758-.093 1.127-.158.697-.124 1.418-.251 2.173-.116.627.112 1.302.057 1.954.003.135-.012.27-.022.404-.032 2.122-.151 4.277.248 6.991 1.294.147.056.267.158.447.311.1.084.217.184.367.3l.207.16-.26.014a9.81 9.81 0 0 0-.468.034c-.234.02-.39.035-.545.007-.356-.067-.716-.147-1.062-.223a25.862 25.862 0 0 0-1.274-.261c-.21-.034-.423-.079-.638-.124-.613-.129-1.248-.26-1.815-.155-2.05.382-4.214.469-6.614.266-.629-.053-1.256-.11-1.885-.165l-.941-.085-.016-.067zm-40.82-17.17c-1.626-.036-3.088-.26-4.472-.687l-.369-.113.379-.074c1.54-.295 3.055-.062 4.507.691l.37.192-.415-.009zm-5.107-.579c-.334.079-.675.181-1.005.281-.728.216-1.481.441-2.232.448-2.962.025-5.905.533-8.753 1.024-.483.084-.965.168-1.448.248-.094.016-.185 0-.323-.024a5.822 5.822 0 0 0-.299-.046l-.248-.032.204-.143c2.272-1.583 4.204-2.791 6.653-2.742 1.12.022 2.254.145 3.351.263.631.067 1.284.136 1.926.187.291.024.594.003.887-.017.206-.015.419-.029.631-.029.15 0 .298.039.438.076.062.016.121.033.182.045l.066.015.055.427-.085.019zm-2.359 1.72-1.061.649c-.679.416-1.359.832-2.042 1.245-1.255.754-2.632.487-3.812.127-.948-.29-1.797-.206-2.697-.115-.256.026-.508.075-.776.127-.791.156-1.61.316-2.51-.171l-.13-.069.118-.091c1.641-1.284 9.827-2.479 12.878-1.879l.244.048-.212.129zm-42.391-30.808c.172 1.864.334 3.624.075 5.395a3.297 3.297 0 0 0-.01.769c.119 1.268-.095 2.255-.672 3.108-.237.35-.384.778-.527 1.192-.029.083-.057.167-.087.25a2.62 2.62 0 0 1-.467.824c-.405.475-.97.786-1.659 1.068l-.085.035-.04-.084c-.023-.052-.048-.096-.069-.133-.046-.082-.085-.152-.074-.23.229-1.753.463-3.506.696-5.258l.242-1.813c.006-.043.004-.091.002-.139-.005-.099-.009-.201.042-.29.326-.567.562-1.194.788-1.799.323-.856.655-1.74 1.247-2.49.071-.089.139-.158.239-.26.054-.058.118-.122.193-.202l.147-.156.019.213zm-3.291-2.003-.067.023-3.051 1.058-3.406-2.385.293-.007c.999-.025 1.962.215 2.893.447 1.037.259 2.111.526 3.222.419l.102-.01.014.455zm-4.8 4.41.049-.252c.36-1.899 1.536-2.821 3.697-2.891l.296-.01-4.042 3.153zm-4.988 2.141-.105-.019.03-.104c.692-2.272 2.319-3.542 4.973-3.885l.155-.019-.05.146c-.317.944-.735 1.934-1.376 2.69-.791.932-1.922 1.508-3.627 1.191zm-2.56-.213c-.622-.282-1.264-.505-1.946-.744a57.536 57.536 0 0 1-.936-.334l-.129-.048 1.197-1.412.041-.002 5.347-.226-.091.153c-.113.191-.228.39-.346.593-.27.468-.551.951-.858 1.424a4.355 4.355 0 0 1-.324.445c-.545.643-1.005.584-1.955.151zm-6.69-1.616c-.432-.083-.878-.169-1.311-.198l-.084-.006-.027-.462 5.56-.288-.17.176c-1.26 1.3-2.636 1.035-3.968.778zm-.645-1.353c.018-.024.037-.045.054-.067.661-.778 1.432-1.261 2.353-1.473.701-.162 1.153.227 1.592.603.234.2.475.408.749.519l.077.031-.105.423-4.854.126.134-.162zm4.475-2.273c.612-.245 1.178-.471 1.74-.699l.001-.001c.709-.286 1.266.093 1.756.429l.035.023c.58.396 1.161.813 1.724 1.217.243.176.487.352.733.526l.12.086-.125.075c-.958.58-2.022.56-3.051.541-.421-.007-.857-.015-1.278.019-.112.01-.248-.045-.413-.166-.465-.342-.926-.689-1.429-1.066l-.789-.593.976-.391zm3.425-1.086-.077-.073.082-.069c.888-.749 1.977-1.003 3.03-1.249l.264-.062c.302-.071.767-.063 1.074.122a61.668 61.668 0 0 1 2.589 1.693l.616.416c.07.047.087.135.101.212.005.026.009.052.016.074l.023.068-.06.041c-2.829 1.933-4.762 1.637-7.658-1.173zm.984-11.305.047.09-.408.174-.043-.028c-.514-.329-1.025-.661-1.538-.992a275.518 275.518 0 0 0-4.018-2.567c-.257-.16-.55-.28-.835-.396-.323-.134-.656-.271-.948-.469-1.132-.77-2.141-1.476-3.051-2.314-1.589-1.464-3.408-2.522-5.448-3.656l-.2-.107a8.182 8.182 0 0 1-.493-.282c-.073-.046-.128-.109-.21-.202-.044-.05-.095-.11-.162-.18l-.145-.153.21-.01c1.276-.06 2.313.096 3.361.503 2.178.843 4.455 1.935 6.961 3.338 1.796 1.005 3.406 2.457 5.063 4.572.176.224.361.444.547.663.257.306.522.622.761.95.164.226.281.484.394.734.051.112.102.222.155.332zm-2.35.01-.054.004c-1.028.078-2.136.086-3.27-.38l-.616-.253c-2.046-.837-4.163-1.706-6.077-2.936-1.274-.817-2.413-1.882-3.483-3.256a30.854 30.854 0 0 1-2.482-3.674l-.15-.261.275.126c.238.11.48.213.722.315.537.225 1.091.46 1.585.779a73.652 73.652 0 0 1 2.359 1.626 67.19 67.19 0 0 0 2.439 1.677c.517.335.991.736 1.449 1.124.678.574 1.379 1.169 2.229 1.55 1 .447 1.953 1.036 2.874 1.607.345.214.692.429 1.042.636.305.183.6.39.886.591.135.094.27.188.406.28l.07.048-.204.397zm-13.289-35.082-.065.193-.029.089-.872-.262.195-.415.802.307-.031.088zm-2.744-.59-2.164-.61.025-.091c.024-.089.05-.176.075-.264l.024-.089 2.18.525-.14.529zm-18.235-8.186-.142-.139c-1.828-1.773-2.176-4.334-.89-6.521l.077-.131.086.124c.992 1.439 1.562 2.733 1.119 4.369-.11.406-.138.832-.17 1.326-.014.244-.032.5-.059.774l-.021.198zm-2.789-1.708c.168.197.331.4.546.669l.371.463.057.069-.065.062a6.247 6.247 0 0 0-.292.296c-.207.217-.402.422-.644.567-1.533.912-3.274 1.09-4.773 1.143-.117.004-.236.003-.356.003-.32-.003-.653-.004-.928.099-.837.314-1.681.241-2.496.172-.435-.036-.886-.074-1.325-.052-.285.016-.626-.087-1.039-.311l-.224-.122c-1-.541-2.034-1.102-3.009-1.723-1.09-.695-1.292-1.355-.83-2.714.275-.811.448-1.675.614-2.511l.035-.176c.133-.666.299-1.244 1.011-1.543.268-.115.546-.352.765-.648.52-.715 1.279-.917 2.257-.626a30.06 30.06 0 0 1 1.793.622c.835.31 1.699.629 2.573.824.947.214 1.469.78 2.022 1.379l.019.021c.019.02.036.043.054.065.034.042.067.086.1.101 1.298.59 2.099 1.676 2.875 2.725.284.384.578.782.889 1.146zm2.37 3.166c.184.948-.137 2.011-.901 2.989a5.298 5.298 0 0 1-.146.18c-1.032 1.217-2.563 2.012-4.051 2.091l-.162.008.07-.146.407-.866c.284-.608.553-1.181.838-1.749.724-1.453 2.195-2.439 3.843-2.585l.087-.008.015.086zm-5.963 1.278c-.194.165-.385.352-.569.532-.418.407-.85.827-1.364 1.061a18.705 18.705 0 0 1-3.999 1.305c-.604.122-1.307-.113-1.926-.319-.093-.031-.184-.062-.274-.089a37.531 37.531 0 0 1-3.222-1.219c-.365-.155-.56-.319-.631-.528-.075-.217-.017-.476.198-.865l1.01-1.826.049-.006c1.003-.12 1.867.454 2.701 1.009l.124.081c.736.489 1.339.688 2.016.667.224-.007.447.043.663.091.166.037.338.075.504.085l.126.008c.353.022.719.045 1.004-.075.828-.348 1.585-.404 2.384-.174.116.032.249.026.404.018.223-.011.476-.021.772.08l.16.054-.13.11zM94.27 94.477c-.254-.408-.436-1.059-.268-1.461.268-.639.256-1.263.242-1.924a21.132 21.132 0 0 1-.006-.356c-.005-.976.416-1.668 1.409-2.314l.107-.07.039.122c.371 1.183.029 2.101-.324 2.661-.811 1.292-.367 2.299.233 3.195.051.076.09.158.134.253.022.048.046.1.075.157l.036.074-.066.049c-.045.031-.092.074-.139.115-.137.12-.245.216-.35.169a8.325 8.325 0 0 0-.229-.096c-.352-.145-.715-.293-.893-.574zm4.315-9.758c.032-.068.057-.13.077-.18.043-.117.076-.193.158-.204l.001-.001c.274-.04.546-.082.819-.123.917-.141 1.864-.286 2.803-.355.499-.037 1.051.001 1.36.567.058.108.241.214.5.288 3.157.919 3.59 1.68 5.027 4.201l.28.492-.368-.273a9.77 9.77 0 0 0-.332-.23c-.247-.167-.504-.339-.712-.559-1.318-1.392-2.994-1.899-4.46-2.214-.513-.11-1.017-.296-1.505-.475a12.676 12.676 0 0 0-1.248-.416c-.275-.072-.568-.065-.879-.057-.219.005-.449.011-.671-.016-.2-.022-.385-.115-.566-.204-.077-.038-.155-.077-.234-.11l-.093-.039.043-.092zm21.411 2.424.064-.069.071.067-.062-.076c.06-.063.119-.127.18-.189l.073-.076.98 1.129-.275.253-1.031-1.039zm-3.224-3.796-.062-.086.392-.221 3.174 3.586-.496-.278c-1.311-.734-2.172-1.838-3.008-3.001zM105.91 71.11l-.224-.494 2.674 2.725-.252.343-.073-.038c-.888-.464-1.543-1.246-2.125-2.536zM78.752 47.589l.078.06c.221.165.44.329.662.493l.075.056-.052.076-.064.09-.054.075-.078-.051c-.159-.107-.32-.213-.481-.319l-.291-.192.205-.288zm17.74 14.602-.07-.076.134-.138c.414.347.862.673 1.296.985.983.712 2 1.447 2.711 2.523l.01.012.005.003c.758.343 1.143.985 1.532 1.726l.134.256-.26-.123c-.63-.298-.972-.843-1.302-1.369-.075-.117-.148-.235-.224-.348l-.002-.002c-.49.059-.773-.26-1.025-.542a2.24 2.24 0 0 0-.272-.277c-.971-.78-1.833-1.72-2.667-2.63zm-1.457-2.063c2.789-.143 5.128.662 5.821 2.003l.089.172-.191-.032c-1.872-.321-3.55-1.03-5.172-1.713l-.971-.408.424-.022zm.186-1.464c2.172-1.792 4.223-3.483 7.423-3.163l.134.013-.055.123c-.054.117-.094.225-.129.319-.06.159-.108.29-.191.387-.016.021-.035.038-.054.055-.986.833-2.003 1.693-3.061 2.498-1.346 1.021-2.829.747-4.489.313l-.184-.047.606-.498zm11.139-3.386c.483-.001.983-.002 1.452-.063.859-.111 1.753-.031 2.618.047.357.031.727.065 1.088.084.142.007.28.043.44.083.08.02.169.042.268.063l.239.052-1.255.746c-.876.522-1.703 1.013-2.528 1.517-.817.498-1.577.906-2.596.875-.564-.018-1.146.141-1.711.294-.316.085-.644.174-.968.232-.901.163-1.819.31-2.708.451l-1.164.187-.098.017-.06-.413.043-.035c.301-.242.636-.468.958-.688.697-.473 1.416-.965 1.802-1.618 1.074-1.828 2.65-1.829 4.18-1.831zm10.923 1.907-.001-.001c.271.201.569.362.946.567.201.109.422.229.672.373l.193.112-.213.064c-3.282.994-6.266.519-9.424.014l-.273-.044.166-.136c.989-.81 1.813-1.389 2.868-1.777 1.802-.667 3.412-.404 5.066.828zm1.857 1.339c.728.63 1.535 1.422 1.993 2.521l.098.237-.23-.113-3.737-1.83-.203-.099 2.036-.754.043.038zm.601 3.051-.078-.014a8.378 8.378 0 0 0-.483-.074c-.907-.128-1.843-.26-2.462-1.476l-.116-.227 3.326 1.321-.187.47zm-2.517-.187-1.399.314a211.39 211.39 0 0 0-3.229.74l-.001.001c-.597.141-1.08.001-1.521-.445-.63-.636-1.268-1.258-1.944-1.917-.286-.277-.577-.56-.875-.852l-.103-.101.131-.057c1.001-.436 1.96-.213 2.887.002.598.137 1.161.268 1.738.239 1.276-.068 2.239.562 3.262 1.229.346.227.704.46 1.079.668l.222.122-.247.057zm-7.315-.071c.245.206.432.463.65.759.103.145.214.296.34.454l.099.124-.156.03a16.662 16.662 0 0 1-5.007.234l-.139-.014c-.52-.053-1.055-.107-1.579-.197-1.587-.268-2.89-1.013-3.98-2.279l-.106-.121.156-.035c.112-.026.216-.052.317-.077.199-.049.389-.096.58-.124.463-.071.927-.132 1.392-.194.915-.119 1.86-.244 2.775-.436 1.945-.41 3.245.685 4.504 1.745l.154.131zM91.94 59.673l-.166.052c-2.653.826-4.01-.732-4.896-2.181l-.082-.132.155-.014c1.138-.101 3.407.908 4.858 2.162l.131.113zm.824 1.178c-.357.33-.699.685-1.028 1.03-1.203 1.256-2.339 2.443-4.261 2.615l-.218.019.133-.173.664-.884a72.75 72.75 0 0 1 1.584-2.06c.772-.91 1.594-1.095 3.084-.712l.171.044-.129.121zm-7.27 4.168c-.065.018-.132.04-.196.061a2.525 2.525 0 0 1-.595.139l-.138.009c-1.218.074-2.478.153-3.72.179-.782.016-1.018-.115-1.77-.733l-.165-.136.211-.034c.917-.148 1.58-.587 2.163-1.039 1.29-1.004 2.735-1.904 4.547-1.692.288.034.608-.075.919-.179.105-.036.209-.071.311-.1.398-.119.799-.254 1.187-.384.165-.056.329-.112.494-.165l.068-.024.042.06.162.234.036.054-.035.054a10 10 0 0 0-.271.452c-.164.287-.335.582-.55.836-.04.046-.081.092-.124.135-.218.22-.423.471-.62.712-.517.639-1.064 1.303-1.956 1.561zm-8.832-1.18c-.472-.344-.999-.616-1.558-.904-.263-.137-.533-.277-.806-.428l-.113-.063.092-.09c.714-.695 1.408-.743 2.052-.691 1.421.115 2.921.193 4.456.235.421.011.843-.038 1.33-.094.235-.026.482-.056.748-.079l.349-.031-.284.205c-.285.207-.553.415-.812.616-.554.432-1.077.838-1.654 1.136-1.302.669-2.485 1.144-3.8.188zm-4.341-2.007c-.488-.206-1.023-.332-1.541-.453a15.18 15.18 0 0 1-.986-.254c-.247-.074-.477-.194-.767-.344a16.642 16.642 0 0 0-.526-.266l-.216-.104.227-.074c1.155-.383 2.097-.28 2.942-.113.647.127 1.255.382 1.899.652.281.117.571.239.866.351l.13.048-.092.104c-.559.643-1.155.783-1.936.453zm-2.25-2.663.083-.016c.243-.047.485-.102.727-.157.55-.124 1.119-.253 1.688-.282.642-.031.96.407 1.296.871.133.183.27.372.433.54l.107.111-.147.048c-.818.267-1.499-.004-2.158-.268-.623-.248-1.208-.483-1.866-.236l-.122.045-.041-.656zm3.944-.235-.066-.085.093-.057c1.364-.818 2.823-1.08 4.083-1.261.604-.088 1.145.161 1.564.717.519.69 1.055 1.359 1.621 2.068.235.292.473.59.715.896l.096.121-.15.032c-.09.02-.181.046-.274.072-.216.06-.439.123-.67.121a68.749 68.749 0 0 1-3.437-.124c-1.746-.111-2.718-1.38-3.575-2.5zm5.773-1.488.143-.02c.447-.061.892-.121 1.335-.184 1.055-.146 2.147-.298 3.219-.415.664-.07 1.157.16 1.547.723.449.646.973 1.229 1.527 1.849.237.263.477.532.715.81l.082.096-.114.054c-3.872 1.839-6.143 1.084-8.382-2.788l-.072-.125zm-4.714-11.534.448.478-1.943-1.124.438.039c.534.049.553.069 1.057.607zm-3.095-1.518.145.28-.276-.151c-.303-.165-.606-.333-.909-.499l-.504-.28-1.969-.576.236-.108c.701-.319.766-.301 1.75.497l.063.037c.637-.12 1.13.148 1.464.8zm-16.941-3.426.694-.057c4.827-.399 7.208.066 10.194 1.993l.421.271-11.309-2.207zm-5.99-10.305c-.462-.717-1.037-1.364-1.594-1.989-.586-.658-1.192-1.339-1.685-2.118-.237-.377-.481-.752-.724-1.127-.73-1.123-1.483-2.283-2.082-3.506-.93-1.901-1.352-3.694-1.288-5.483.005-.181.085-.36.155-.517l.011-.023c.032-.075.106-.113.171-.146.022-.012.044-.022.063-.036l.107-.07.039.122c.14.449.276.9.412 1.351.3.997.61 2.028.975 3.018.575 1.561 1.455 3.008 2.308 4.405l.344.565c.016.027.038.06.062.083 1.397 1.198 2.093 2.841 2.765 4.43.072.172.145.344.219.515.043.1.115.19.214.317.057.072.123.154.194.253l.164.226-.269-.077c-.101-.029-.189-.046-.26-.06-.144-.029-.247-.051-.301-.133zm-6.184-14.819c-.074-.316-.105-.645-.135-.962a20.55 20.55 0 0 0-.045-.441l-.012-.088.422-.095.028.082.256.746c.2.591.408 1.201.633 1.793.141.372.322.8.584 1.152.25.336.529.667.799.984.431.509.877 1.034 1.223 1.612l.123.207c.987 1.651 2.005 3.357 2.462 5.288l.092.393c.219.95.426 1.849.943 2.675.123.194.139.444.156.686.006.104.013.208.029.306l.012.079-.366.13-.183-.341c-.109-.203-.217-.406-.331-.606a27.753 27.753 0 0 1-.69-1.306c-.553-1.092-1.125-2.223-2.051-3.141-.554-.549-.935-1.281-1.304-1.988a17.33 17.33 0 0 0-.507-.929c-1.121-1.879-1.616-4.002-2.096-6.055l-.042-.181zm6.527 25.942c-.131.17-.241.312-.333.435-.173.227-.298.391-.43.547-.556.656-1.111 1.315-1.66 1.962l-.825.972-.935 1.1-.352-3.329 4.757-1.974-.222.287zm-5.079 5.497c-.647.095-1.154.486-1.691.9-.678.522-1.379 1.062-2.399.994l-.074-.005-.125-.604c-.186-.931.019-1.593.704-2.28.977-.976 1.989-1.987 3.629-2.634l.136-.055-.099 3.673-.081.011zm-4.944 2.647c-.319.439-.665.866-1.018 1.282-.264.311-.532.616-.794.917-.189.214-.377.429-.564.645-.066.076-.168.101-.275.126-.042.011-.088.021-.132.037l-.095.032-.028-.094c-.259-.816.162-1.41.534-1.934l.161-.23c.407-.605.894-1.153 1.406-1.73.223-.25.451-.506.679-.775l.091-.107.067.123c.32.588.307 1.241-.032 1.708zm-3.839 3.671a1.056 1.056 0 0 1-.072.077c-.362.347-.945.394-1.708.356l-.274-.012 2.367-1.722.001.19c.001.496-.102.861-.314 1.111zm-1.624-1.06c.565-.885.594-.9 1.558-.91l.2-.001-.124.157c-.116.149-.212.271-.296.369-.358.424-.516.451-1.245.533l-.202.022.109-.17zm1.133-1.483.211-.543c.676-1.763 1.375-3.585 3.93-3.58h.138l-.048.13c-.309.827-.771 1.509-1.292 2.125-.39.459-.813.881-1.23 1.296l-.157.156c-.238.238-.61.328-.969.416a4.59 4.59 0 0 0-.462.127l-.199.07.078-.197zm3.532-4.747c.748-1.215 1.512-2.453 2.853-3.044.31-.138.686-.092 1.085-.043.182.022.372.045.557.05l.241.007-.178.161c-.302.273-.592.543-.876.806-.698.648-1.358 1.26-2.062 1.821-.388.31-.97.362-1.534.389l-.182.009.096-.156zm-1.499-4.433c-.679.115-1.384.235-2.085.295-.834.071-1.677.207-2.493.338-.374.062-.749.121-1.123.176l-.074.011-.029-.07a8.068 8.068 0 0 0-.098-.232l-.04-.093.096-.036.365-.14c.265-.103.54-.21.816-.298 2.068-.649 4.231-.742 6.323-.831.361-.015.721-.031 1.082-.049l.192-.009c1.272-.065 2.588-.131 3.918.022l.639.073-.632.118c-.284.052-.578.13-.863.207-.639.17-1.299.345-1.924.258-1.391-.193-2.752.038-4.07.26zm10.156-.156.251.059-.228.12c-1.281.672-2.282 1.123-3.511.812l-.332-.084.326-.101c.29-.09.567-.217.86-.351.762-.35 1.551-.71 2.634-.455zm-19.033.232-.101.093-.053-.128c-.534-1.304-.322-2.263.684-3.112a8.44 8.44 0 0 1 .433-.338c.169-.127.345-.259.504-.399.192-.173.366-.36.552-.559.082-.089.166-.179.252-.268l.127-.13.037.178c.201.963-.425 2.423-1.544 3.742-.27.319-.568.628-.891.921zm.088 2.304c.7 1.67.63 3.086-.217 4.458l-.211.341.034-.4c.038-.468-.058-.941-.158-1.441-.194-.964-.395-1.961.387-2.978l.101-.133.064.153zm-3.996 2.603c-.464.306-.912.66-1.346 1.002-.31.244-.631.498-.959.733-1.488 1.074-3.032 1.362-4.719.879-.783-.223-1.614-.34-2.417-.452l-.56-.081c-1.862-.277-2.889-1.364-3.049-3.232a11.455 11.455 0 0 0-.322-1.801 13.054 13.054 0 0 0-.356-1.129c-.062-.178-.124-.356-.185-.54l-.021-.066.055-.042c2.004-1.488 4.268-2.331 6.921-2.576l.358-.035c.442-.044.9-.091 1.35-.078 1.578.045 2.786.396 3.8 1.104a108.39 108.39 0 0 0 3.22 2.139c.476.309.956.62 1.44.937l.09.06-.069.083-.332.398c-.823.969-1.749 1.937-2.899 2.697zm-.644 1.937a4.526 4.526 0 0 1-.878 1.607c-.54.636-1.215 1.09-1.898 1.482-.193.111-.382.23-.571.35-.295.187-.601.379-.92.539-1.504.753-2.782.774-4.024.068-.535-.304-1.099-.556-1.698-.822-.283-.126-.573-.255-.871-.395l-.058-.027.078-2.048.661.105 1.133.182.165.027c.77.128 1.542.255 2.311.393.147.026.292.068.431.108.099.029.197.057.298.081.088.019.177.047.268.076.199.063.405.128.569.092.276-.06.56-.11.834-.159 1.081-.189 2.197-.387 3.056-1.227.171-.168.397-.271.633-.379.111-.052.228-.104.343-.165l.208-.113-.07.225zm-13.534-.323c.058-.902-.265-1.64-.606-2.421a17.274 17.274 0 0 1-.278-.658c-.497-1.267-.502-2.365-.021-3.562l.106-.262.076.272c.086.305.115.602.142.888.064.648.113 1.159.779 1.424.229.091.185.734.168.857-.254 1.759-.163 1.87.957 3.232.213.259.462.563.752.929l.044.057-.664.959-.055-.004c-.955-.071-1.465-.695-1.4-1.711zm45.88-10.435-.087-.031-.77-.263-.095-.032.158-.426.935.393-.141.359zM18.396 22.043c-.823-.399-.847-.449-.669-1.315l.055-.27.874 1.711-.26-.126zm-2.057-.706c.3.382.712.697 1.109 1.001.184.142.374.286.553.439l.049.041-.145.457-.072-.001c-1.578-.04-2.901.675-4.182 1.368-.604.327-1.229.665-1.877.922-.886.353-1.823.543-2.865.582l-.424.018c-1.09.05-2.216.101-3.272-.348a7.605 7.605 0 0 1-1.716-.99c-.578-.454-.597-1.227-.051-2.069.359-.551.472-1.132.593-1.749.03-.155.062-.31.096-.468.17-.762.543-1.488.922-2.159.368-.639.983-.846 1.64-1.062l.28-.095c2.008-.7 3.725.07 5.386.816 1.471.658 2.735 1.706 3.976 3.297zm1.853 2.822c.059 1.836-.651 3.368-1.337 4.848-.147.318-.294.636-.434.956a.565.565 0 0 1-.083.132c-.084.099-.201.178-.315.256-.07.048-.142.096-.206.149l-.093.078-.055-.11c-.834-1.684-.613-3.096.67-4.302.169-.156.3-.347.441-.549.085-.122.172-.247.268-.364.221-.272.45-.542.68-.809l.457-.535.007.25zm-4.263 1.352c-.214.315-.459.645-.731.965-.92 1.085-2.151 2.066-3.591 2.062-.346-.001-.699.013-1.04.025-.951.037-1.934.074-2.907-.205-.218-.063-.465-.045-.779-.024a9.418 9.418 0 0 1-.561.028l-.11.001.202-1.684.091.007c.446.03.892.07 1.339.109 2.84.251 5.521.487 7.948-1.415l.488-.384-.349.515zm-12.825-.606c.09-1.122.218-2.256.341-3.355l.108-.961c.011-.108.04-.216.067-.32.04-.155.078-.3.06-.431-.191-1.324.505-2.156 1.614-2.996l.064-.049.059.055c1.004.923 1.065 1.015.433 1.915-.435.619-.612 1.18-.586 1.877.021.638-.199 1.364-.551 1.808-.565.712-.786 1.292-.694 1.825.1.593.606 1.157 1.59 1.776l.046.028v.054c-.002.288-.065.507-.187.65a.513.513 0 0 1-.097.09c-.2.145-.49.153-.886.024-.771-.25-1.442-1.218-1.381-1.99zm3.458-9.665a5.77 5.77 0 0 0 .098-.298c.222-.74.592-1.07 1.411-1.257 1.115-.258 1.981.105 2.897.49l.188.079c.28.116.574.215.861.312.363.122.739.248 1.091.413.686.32 1.247.656 1.716 1.024a17.152 17.152 0 0 1 2.416 2.296l.271.317-.382-.165a72.58 72.58 0 0 1-1.487-.664c-1.104-.499-2.245-1.016-3.403-1.412-1.483-.506-2.955-.055-4.378.379-.272.084-.545.168-.817.244l-.039.012-.035-.021c-.833-.485-.617-1.127-.408-1.749zm13.853.56.053-.196.119.166a5.75 5.75 0 0 1 1.077 3.199c.022.59-.064 1.179-.155 1.804-.041.285-.083.578-.117.882l-.024.206-.142-.151c-1.723-1.818-1.368-3.833-.811-5.91zm6.717 1.228c-1.007-.955-2.136-2.154-2.857-3.794-.69-1.575-.461-2.488.861-3.492.117-.089.223-.2.317-.296.039-.042.077-.082.113-.117l.041-.04.056.018c.24.079.461.16.673.242.429.163.8.304 1.181.343 1.495.161 2.441 1.134 3.355 2.075l.266.272c1.558 1.582 2.51 3.515 3.167 5.023.175.403.232.853.292 1.33.028.224.058.453.099.687l.022.112-.115.001c-2.545.036-5.213-.226-7.471-2.364zm7.428 3.865a3.51 3.51 0 0 1-.315.437c-.847.998-2.162 1.316-3.692.869l-.267-.077.257-.105c.258-.105.514-.215.769-.325.979-.425 1.992-.864 3.158-.946l.186-.012-.096.159zm-4.643-10.788-.208-.164c-.307-.245-.624-.499-.971-.632-.513-.196-.574-.552-.638-.928-.014-.076-.027-.155-.044-.234l-.017-.074 1.279-.663.044.023c.249.128.537.238.816.347.642.248 1.307.503 1.656.998 1.197 1.694 1.907 3.564 2.112 5.559l.055.534-.237-.481c-.911-1.848-2.387-3.151-3.847-4.285zm7.539 4.49.037-.042c.258-.305.395-.739.539-1.198a9.02 9.02 0 0 1 .248-.719l.064-.157.102.135c.663.877.38 1.745.107 2.583-.051.159-.103.316-.147.473-.285 1.012-.578 2.047-1.303 2.903a4.342 4.342 0 0 1-1.152.953l-.171.099.085-.611c.221-1.626.435-3.172 1.591-4.419zm21.568 11.241c-1.744-4.999-1.603-10.013.441-15.785l.08-.224.099.216c2.175 4.745 2.042 9.617-.44 15.797l-.095.239-.085-.243zm-1.931-10.888c-.966-1.661-1.103-3.318-1.11-4.719-.003-.979.099-1.971.197-2.93.057-.557.116-1.132.154-1.696.042-.625.052-1.264.06-1.881.005-.284.009-.569.016-.854l.002-.083.438-.056.032.056c.508.892.97 1.78 1.033 2.848.033.54.167 1.089.297 1.619l.076.314c.316 1.333.272 2.666-.14 4.072-.21.715-.399 1.445-.6 2.218-.089.343-.181.698-.279 1.067l-.059.226-.117-.201zm37.896 41.578c-.436-.929-.806-1.902-1.164-2.842-.484-1.275-.985-2.592-1.656-3.81-.826-1.498-1.609-3.052-2.365-4.555-.337-.666-.671-1.331-1.011-1.995l-.146-.283.278.156c1.073.597 2.402 1.477 3.171 2.985.458.896 1.006 1.765 1.528 2.568 1.345 2.072 1.571 4.383 1.615 6.373l.001.041c.01.425.021.864-.069 1.337l-.056.294-.126-.269zM85.23 45.934c-.184-.385-.13-.929-.053-1.317.074-.373.209-.727.377-1.174.081-.214.17-.45.262-.716l.076-.213 4.862 9.453-.203.064-.156.047-.046.014-.039-.029c-.131-.101-.265-.2-.397-.3-.311-.232-.63-.473-.936-.723-1.462-1.19-2.618-2.764-3.747-5.106zm56.309 58.34c-1.065-.946-1.721-2.183-2.355-3.379-.132-.251-.265-.5-.401-.746-.539-.981-.949-2.05-1.345-3.084a49.806 49.806 0 0 0-.539-1.371l-.017-.044.023-.039a4.64 4.64 0 0 0 .073-.139l.073-.136.091.123c.102.139.219.276.335.407.255.297.52.606.65.966.543 1.517 1.312 2.955 2.057 4.346.516.966 1.05 1.965 1.506 2.984l.183.409-.334-.297zm-9.692-14.008c-1.043.9-2.09.898-3.612-.007l-.17-.101.184-.072c1.235-.486 2.304-.481 3.57.017l.149.058-.121.105zm-2.943-3.767c-.567-.292-1.134-.864-1.478-1.494-.625-1.141-1.231-2.392-1.422-3.807-.055-.408-.148-.82-.236-1.218-.112-.499-.226-1.014-.273-1.53-.082-.893-.102-1.808-.125-2.778-.011-.446-.021-.912-.039-1.403l-.005-.163.146.073c.208.105.391.204.558.293.324.175.581.313.852.402.728.236 1.493.433 2.274.588.084.019.26-.134.376-.233l.093-.078c.383-.313.749-.454 1.088-.418.322.035.626.228.902.578.176.22.322.468.462.706l.117.194c.134.224.253.457.368.685.274.54.533 1.049 1.003 1.454.317.27.423.83.458 1.139.081.718.148 1.451.213 2.16.096 1.054.196 2.146.345 3.212.069.495-.059.836-.207 1.229l-.018.047c-.108.289-.2.59-.29.882-.088.289-.179.588-.288.877-.105.287-.244.566-.403.889-.08.163-.167.34-.261.539l-.067.142-.096-.123c-1.039-1.319-2.336-1.976-3.59-2.611a98.455 98.455 0 0 1-.457-.233zm3.993-10.515c-.266-.492-.526-.986-.79-1.489l-.355-.678 1.45-1.71.066.13c.82 1.611 1.195 3.233 1.559 4.803.245 1.064.479 2.068.838 3.056l.034.095-.559.173-.264-.893c-.222-.757-.452-1.538-1.136-2.116-.294-.248-.474-.624-.649-.987-.063-.13-.125-.261-.194-.384zm7.453 14.606.073.092-.104.054c-1.03.534-2.036.252-2.883-.094-.601-.246-1.16-.559-1.805-.92-.299-.166-.612-.342-.95-.522l-.199-.104.212-.072c2.37-.8 4.167-.302 5.656 1.566zm30.448 19.674-.023-.002c-.191-.028-.384-.053-.578-.079-1.188-.157-2.418-.32-3.46-.835-.459-.226-.939-.434-1.405-.636-1.279-.553-2.603-1.125-3.678-2.158a20.459 20.459 0 0 0-.556-.51c-.625-.561-1.272-1.141-1.667-1.945-.476-.963-.251-1.353.61-1.964.978-.693 1.894-1.495 2.737-2.257.452-.408.863-.846 1.338-1.354.223-.239.458-.489.712-.752l.055-.058.067.044c.128.082.266.162.408.243.338.195.687.394.971.673l.189.187c.766.754 1.489 1.467 2.495 1.847a.754.754 0 0 1 .339.278c.309.44.641.881.962 1.307 1.354 1.798 2.753 3.655 2.897 6.141.011.19.074.384.141.589.035.104.069.212.098.323l.011.037-.019.034a2.066 2.066 0 0 1-.237.351c-.633.746-1.57.614-2.407.496zm3.253.689-.047.056c-.051.06-.097.128-.145.195a2.322 2.322 0 0 1-.155.21.743.743 0 0 1-.242.198c-.692.321-1.389.597-2.074.821l-.077.025c-.894.293-1.819.596-2.896-.259l-.151-.12.186-.048 5.319-1.387.067-.018.215.327zm-16.359-8.096c.013-.164.028-.334.056-.5.015-.088.104-.094.225-.098.032-.001.061-.001.086-.004l.097-.009.058.822-.099.005c-.111.005-.221.011-.334.015l-.109.005.02-.236zm.859-2.273c.082-.139.157-.275.227-.405.151-.274.293-.532.471-.763.265-.345.576-.644.878-.934.457-.444.93-.897 1.232-1.494.325-.624 1.012-.675 1.622-.719l.139-.01.024.069c.346 1.013.424 1.318.052 1.757-.127.15-.306.316-.548.53a53.336 53.336 0 0 0-1.715 1.617c-.523.51-1.176 1.011-2.338.489l-.098-.044.054-.093zm5.886-3.983-.092-.058.068-.085.035-.043c.503-.592 1.05-.525 1.681-.447.104.012.212.025.324.036 1.729.166 2.536 1.268 3.389 2.436l.033.044c.661.905 1.387 1.777 2.133 2.666.681.81 1.015 1.754 1.15 3.257l.037.415-.215-.356c-2.24-3.685-5.429-5.958-8.543-7.865zm11.185 6.085.64-1.156.05.256c.075.365.163.708.248 1.042.175.686.341 1.334.325 1.973-.031 1.244-.167 2.46-.313 3.746-.059.529-.12 1.061-.173 1.6l-.005.066-1.489.393-.023-.094c-.042-.163-.077-.311-.109-.446-.06-.255-.111-.475-.183-.683-.363-1.045-.339-2.127-.317-3.174.007-.313.014-.627.011-.939-.003-.163.088-.322.168-.463l.041-.073c.351-.644.706-1.285 1.129-2.048zm-17.258 1.668c1.101 1.227 2.167 2.418 3.234 3.609l.052.059-.225.303-.078-.066c-.262-.223-.527-.444-.79-.665-.628-.528-1.278-1.074-1.902-1.628-.553-.49-.703-1.024-.45-1.588l.061-.135.098.111zm27.786-48.36-.31-.027c-.818-.073-1.665-.011-2.486.05-.38.027-.776.056-1.164.071-1.161.047-1.897.454-2.333 1.293a3.398 3.398 0 0 1-.39.563c-.572.707-1.207 1.356-2.328 1.063-.281-.072-.685-.011-.92.141-1.169.76-1.79 2.598-1.351 4.01l.079.252c.221.707.449 1.439.622 2.172.047.199.043.41.037.616-.004.249-.011.483.073.675l.044.099c.66 1.513 1.343 3.075 2.44 4.356l.228.27c.465.555.946 1.129 1.54 1.405.892.418 1.394 1.118 1.88 1.795.183.258.375.525.583.77l.348.407-.468-.261c-.397-.22-.78-.467-1.149-.705-.462-.298-.898-.579-1.366-.818l-.03-.016c-.889-.455-1.809-.925-2.753-1.056-.139-.018-.281-.041-.424-.064-.782-.125-1.589-.255-2.388.131.036.057.067.111.095.158a.666.666 0 0 0 .104.156c1.052.156 1.645.856 2.272 1.595l.15.177c1.376 1.609 2.877 2.169 4.591 1.713.202-.054.417-.036.624-.018.093.009.186.018.277.019l.092.001.003.091c.031.791.045 1.584.057 2.351.029 1.771.056 3.445.287 5.117.13.938.295 1.89.454 2.811.257 1.482.522 3.016.657 4.576l.012.144-.138-.044a2.276 2.276 0 0 0-.175-.051c-.074-.021-.115-.032-.149-.071l-.019-.02a1.741 1.741 0 0 1-.23-.3c-1.546-2.782-3.786-4.85-6.659-6.146-.8-.36-1.576-.789-2.327-1.202-1.213-.669-2.467-1.361-3.848-1.784-1.514-.463-2.976-1.167-4.39-1.848-.662-.32-1.346-.65-2.027-.951a7.589 7.589 0 0 0-1.36-.458c-.056-.012-.17.06-.304.144-.062.038-.128.081-.202.124.119.083.231.158.339.231.307.208.574.389.824.59.108.086.223.17.339.254.362.266.737.538.941.909.399.728.743 1.499 1.075 2.245.198.447.403.907.617 1.352l.081.173c.198.418.402.849.717 1.114 1.837 1.54 3.28 2.678 4.678 3.689.687.496 1.598 1.09 2.56 1.302.544.12 1.087.289 1.613.452 1.126.35 2.292.712 3.523.607.301-.025.62.118.903.244l.448.199c.811.362 1.649.732 2.446 1.155.817.432 1.279 1.024 1.454 1.861a38.587 38.587 0 0 0 1.28 4.676 220.126 220.126 0 0 0 3.038 8.191c.157.403.309.81.462 1.217.532 1.427 1.082 2.901 1.904 4.237.279.455.436.987.591 1.5.095.323.195.658.325.97.307.74.66 1.454 1.046 2.122 1.732 2.988 3.142 6.189 4.506 9.286l.495 1.121c.226.513.428 1.046.622 1.562.088.235.177.469.267.704l.087.223-.217-.101c-.547-.253-.867-.628-1.176-.991-.144-.168-.271-.33-.4-.491-.28-.351-.569-.714-.9-1.015-.743-.675-1.516-1.344-2.263-1.991-.638-.553-1.3-1.125-1.939-1.7a211.95 211.95 0 0 1-2.205-2.019c-.809-.749-1.645-1.525-2.482-2.27-1.9-1.693-3.856-3.391-5.748-5.034l-.433-.377c-.688-.596-1.46-1.108-2.207-1.604-1.172-.778-2.384-1.581-3.242-2.707l-.039-.052.034-.056c.093-.16.201-.312.304-.459.21-.298.409-.58.461-.875.51-2.878.862-5.472.013-8.086-.144-.443-.307-.911-.556-1.32-.09-.146-.256-.259-.486-.415-.072-.05-.152-.103-.236-.164.284 1.602-.437 2.612-1.198 3.678l-.096.135-.07-.15c-1.136-2.47-2.663-4.736-4.667-6.93-.499-.545-1.235-1.03-2.022-1.327-1.714-.649-3.225-.66-4.619-.034-.046.022-.093.015-.127.01l-.032-.003c-1.257.177-2.078.713-2.583 1.686-.287.547-.651.996-1.031 1.26-.995.697-1.252 1.556-.801 2.703l.048.121-.13.011c-.865.069-1.486.476-1.85 1.211.104.233.226.464.345.689.293.552.57 1.074.604 1.629.051.797.362 1.367.814 1.975.714.966 1.727 1.597 2.707 2.206.243.152.487.304.726.46.097.064.227.097.34.123.48.108.959.224 1.438.34 1.594.386 3.245.785 4.921.883.23.012.455.079.673.143.099.03.198.059.298.083l.427.103-.431.085c-2.145.425-3.713 1.07-5.067 2.088.381.385.69.246 1.045.086.144-.067.294-.133.446-.159.167-.025.341-.092.509-.158.244-.096.498-.195.751-.175a9.952 9.952 0 0 1 2.22.465c.62.199 1.176.195 1.751-.014.894-.327 1.786-.655 2.67-.981l1.436-.529.042.035 1.39 1.111c1.184.948 2.365 1.891 3.539 2.842a505.528 505.528 0 0 1 5.545 4.536c.396.33.716.752.977 1.121.312.44.421.811.339 1.136-.086.332-.378.618-.895.869-.448.218-.874.511-1.285.793-.121.084-.242.168-.363.249-.258.173-.512.364-.779.564l-.411.306-.102.075-.046-.119c-.197-.512-.393-1.012-.584-1.503-.427-1.097-.831-2.134-1.222-3.187-.537-1.447-1.568-2.619-3.241-3.689-.704-.449-1.478-.821-2.226-1.18a28.289 28.289 0 0 1-1.734-.884c-2.111-1.201-3.967-.42-6.001.641-.17.089-.362.262-.386.397-.112.606-.57.877-.976 1.116-.076.046-.151.091-.224.137-.76.486-1.175 1.138-1.306 2.051-.184 1.279-.444 2.621-1.458 3.76l-.058.065-.07-.05c-.328-.234-.655-.462-.978-.687a59.65 59.65 0 0 1-2.087-1.505c-.577-.442-1.147-.909-1.7-1.361-.892-.73-1.813-1.483-2.772-2.146-1.679-1.161-3.192-2.541-4.625-4.22-.328-.383-.726-.72-1.111-1.048l-.133-.111c-.195-.167-.406-.324-.611-.478-.249-.187-.508-.38-.744-.593a80.54 80.54 0 0 0-.608-.541c-.81-.719-1.647-1.461-2.4-2.26-1.03-1.093-1.795-2.046-2.406-3-1.07-1.669-1.842-3.072-2.428-4.419-.198-.457-.475-.89-.744-1.309-.509-.796-1.036-1.619-1.076-2.66-.004-.093-.103-.212-.19-.316l-.061-.077c-.29-.366-.587-.728-.883-1.089-.647-.788-1.317-1.604-1.899-2.459-.084-.124-.172-.246-.261-.37-.475-.663-.965-1.348-1.035-2.344l-.013-.176.155.084c.287.157.563.303.83.448.561.299 1.089.583 1.607.88.902.52 1.844.668 2.876.454a23.304 23.304 0 0 1 1.953-.298c.265-.031.42-.101.488-.212.085-.147.012-.388-.09-.637-1.337.193-2.288-.58-2.889-1.185-1.268-1.271-2.787-1.227-4.236-1.073l-.47.052-.399.044.017-.123c.014-.09.017-.173.022-.25.009-.157.016-.294.088-.401 1.131-1.672 1.399-3.56 1.576-5.349.162-1.655-.164-3.267-.48-4.824-.089-.439-.178-.876-.256-1.315-.197-1.095-.568-2.278-1.103-3.517-.255-.591-.62-.938-1.055-1.005-.468-.073-.988.19-1.464.739-.399.462-.716.684-.994.696-.81.038-1.2.423-1.567 1.039a1.33 1.33 0 0 1-.844.638c-.426.102-.911 0-1.363-.287-.071-.044-.142-.09-.213-.136-.332-.216-.676-.437-1.04-.554-.35-.115-.689-.076-.931.103-.217.162-.335.423-.329.736.006.337.005.679.004 1.021-.002 1.284-.004 2.613.353 3.803.163.545.304 1.109.439 1.653.201.805.408 1.639.697 2.436.819 2.266 2.174 3.693 4.262 4.492.918.351 1.051.513 1.468 1.368l.087.179-.193-.042c-1.581-.339-3.129-.076-4.627.18-.657.112-1.336.229-2.016.293.057.215.153.365.285.45.156.1.371.115.654.043.763-.188 1.464-.023 2.203.523.979.722 2.036.589 2.846.392.512-.125 1.025-.291 1.567-.466.257-.084.523-.17.807-.258l.076-.025 2.838 5.395 3.458 6.575-.062.05-.22.179-.05.041-.056-.031c-.067-.036-.136-.069-.204-.102a2.679 2.679 0 0 1-.458-.262c-.93-.708-1.855-1.421-2.781-2.134l-1.628-1.254c-.25-.19-.495-.387-.741-.584-.576-.461-1.171-.936-1.799-1.331-1.604-1.002-3.03-2.263-4.408-3.483-.253-.225-.508-.449-.763-.673-.628-.55-1.179-1.196-1.712-1.822-.764-.9-1.554-1.826-2.584-2.48-.149-.091-.244-.249-.339-.401a2.09 2.09 0 0 0-.094-.148c-1.927-2.768-4.322-5.195-6.639-7.541-.398-.403-.794-.805-1.19-1.209l-.183-.188c-1.267-1.296-2.579-2.636-3.706-4.083-1.121-1.435-2.148-2.716-3.363-3.849-.36-.335-.722-.668-1.086-1-.67-.614-1.363-1.249-2.024-1.895-.614-.6-1.168-1.273-1.703-1.922-.719-.873-1.461-1.774-2.356-2.507-.196-.161-.341-.366-.508-.602-.083-.116-.167-.237-.266-.362l-.159-.202.253.048c.381.072.747.147 1.101.219.746.154 1.451.299 2.157.379.674.076 1.364.116 2.033.155.756.044 1.541.09 2.306.187 1.711.22 3.041.179 4.313-.136.492-.121 1.015-.23 1.52-.2.144-.112.294-.201.447-.264.416-.17.92-.243 1.544-.224l.067.005.043.005c1.872-.563 3.89-.985 5.964-.301.238.078.477.154.718.228 1.123.349 2.28.709 3.265 1.484a1.273 1.273 0 0 0-.194-.415c-.328-.45-.676-.898-1.013-1.332-.692-.892-1.407-1.813-1.986-2.798-1.579-2.691-4.313-3.609-6.726-4.419-.08-.027-.175-.025-.276-.024a1.473 1.473 0 0 1-.238-.01l-.128-.018a9.433 9.433 0 0 1-.93-.163c-2.331-.567-4.748-.644-7.185-.23-.076.014-.135-.036-.206-.094a1.335 1.335 0 0 0-.095-.074 2.754 2.754 0 0 1-.552.053 2.337 2.337 0 0 1-.55-.076c-.751.303-1.554.277-2.248.229l-.261-.02c-.397-.035-.808-.072-1.154.04a17.595 17.595 0 0 0-5.341 2.814c-.266.206-.547.399-.869.625-.174.12-.361.251-.57.398l-.162.115.009-.198.026-.574c.012-.312.024-.561.04-.809.179-2.644.042-4.775-.433-6.705-.102-.414-.221-.851-.433-1.22-.212-.367-.453-.729-.684-1.077-.298-.448-.606-.912-.86-1.397-.618-1.178-1.499-2.274-2.698-3.352l-.179-.161c-1.099-.983-2.135-1.911-2.562-3.385-.126-.429-.387-.569-.865-.455.311 1.587.098 3.179-.637 4.733-.401.85-.18 1.523.274 2.274.172.285.352.566.533.846.176.273.351.546.518.823l.245.406c.636 1.066 1.293 2.167 2.425 2.77 1.367.728 2.138 1.954 2.883 3.14.123.196.247.393.373.588.169.261.199.601.229.931.012.145.026.294.05.431l.013.069-.403.219-.28-.239c-.178-.151-.356-.304-.538-.452-.386-.313-.77-.63-1.154-.946a84.678 84.678 0 0 0-2.782-2.226 185.229 185.229 0 0 0-5.977-4.342c-.796-.553-1.641-1.066-2.458-1.562-.514-.313-1.047-.636-1.562-.965-.24-.156-.485-.308-.728-.459-.799-.5-1.629-1.017-2.356-1.632-.828-.7-1.565-1.514-2.276-2.301-.876-.97-1.784-1.971-2.869-2.77-1.4-1.033-2.559-2.37-3.68-3.662-.392-.453-.797-.92-1.206-1.366a749.48 749.48 0 0 0-4.497-4.88c-.736-.79-1.425-1.786-.977-3.197.237-.739.438-1.506.633-2.247.158-.606.323-1.234.507-1.846.72-2.393.816-4.964.294-7.856-.24-1.318-.669-2.628-1.084-3.896a80.398 80.398 0 0 1-.423-1.316c-.12-.389-.312-.77-.496-1.137-.051-.099-.101-.2-.15-.3-.076-.156-.174-.311-.268-.463-.182-.292-.371-.595-.432-.927-.315-1.716-1.185-3.211-2.026-4.658l-.213-.369c-.349-.603-.671-.796-1.099-.653.026.532.064 1.062.099 1.575.088 1.244.171 2.417.1 3.604-.034.555-.082 1.115-.128 1.657-.078.914-.159 1.859-.171 2.801-.032 2.294.596 4.47 1.203 6.574l.147.509c.151.525.246 1.113.293 1.797.021.288.004.582-.011.865-.021.384-.041.745.019 1.101.269 1.583.626 3.168.94 4.529.107.466.293.916.537 1.303.308.492.649.98.977 1.452.594.852 1.208 1.734 1.671 2.676.644 1.311 1.64 2.343 2.602 3.342.266.277.533.552.792.833 1.696 1.848 3.47 3.553 5.348 5.359.757.726 1.539 1.477 2.308 2.232l.297.291-.395-.13c-.684-.226-1.359-.451-2.027-.675a306.07 306.07 0 0 0-4.697-1.538l-.349-.106c-1.11-.339-2.259-.689-2.868-1.914-.033-.065-.131-.116-.227-.167a1.434 1.434 0 0 1-.172-.1c-.409-.286-.822-.57-1.234-.852-.994-.686-2.023-1.394-3.008-2.126-.327-.242-.627-.538-.917-.824-.454-.449-.884-.873-1.408-1.111-1.198-.549-1.518-1.506-1.857-2.519l-.076-.226c-.065-.193-.133-.387-.201-.581-.267-.76-.543-1.547-.687-2.346-.513-2.813-1.853-5.529-4.217-8.544-.807-1.027-1.69-2.298-2.123-3.939-.056-.21-.11-.42-.163-.63-.143-.552-.289-1.122-.459-1.675a11.6 11.6 0 0 0-.41-1.069l-.166-.398c-.195-.483-.521-.681-.972-.592-.002.235.001.463.004.684.005.532.01 1.035-.058 1.531a18.083 18.083 0 0 1-.3 1.524c-.108.48-.22.976-.292 1.468-.1.697-.215 1.489-.057 2.188.176.79.448 1.577.712 2.338.145.423.296.858.43 1.293.898 2.919 2.765 5.355 4.444 7.408.918 1.124 2.044 2.115 3.133 3.073.436.384.886.78 1.317 1.18.144.134.361.242.662.329 1.14.332 1.94 1.123 2.715 1.887.203.2.405.401.614.594l.188.173-.254-.006a3.806 3.806 0 0 1-1.06-.182c-1.214-.373-2.308-.71-3.413-1.065-.199-.065-.41-.12-.615-.175-.537-.142-1.091-.288-1.521-.606a36.591 36.591 0 0 1-3.831-3.26c-.43-.42-.798-.908-1.153-1.378-.53-.701-1.077-1.425-1.838-1.942-.434-.297-.756-.758-1.068-1.204a12.138 12.138 0 0 0-.154-.219c-1.029-1.444-2.269-2.752-3.79-3.996-.117-.095-.237-.19-.356-.285-.664-.525-1.35-1.07-1.735-1.88l-.031-.064.053-.049c1.845-1.664 2.892-4.539 2.444-6.677a1.626 1.626 0 0 1-.023-.205c-.008-.11-.015-.215-.06-.277a3.812 3.812 0 0 1-.229-.374c-.228-.402-.443-.78-.987-.792-.01.19-.009.386-.009.574.002.502.003.976-.195 1.37-.369.74-.845 1.418-1.351 2.136a40.73 40.73 0 0 0-.638.92l-.118.176-.057-.204c-.024-.093-.049-.17-.069-.235a1.083 1.083 0 0 1-.07-.3c-.085-2.595-1.124-4.912-2.129-6.837-.967-1.854-3-2.737-5.057-2.197-.452.117-.732.222-.816.388-.09.174-.008.466.173.943.04.103.076.206.127.353l.185.52-2.159-.718c-.154.099-.313.198-.475.296-.394.245-.802.496-1.178.786-1.028.795-1.381 1.948-.923 3.019.339.796.728 1.586 1.106 2.35l.186.376c.076.156.203.317.376.475.227.207.47.407.707.602.467.386.952.783 1.337 1.258 1.207 1.489 2.841 1.996 4.281 2.296.419.086.841.167 1.263.245l.634.12-.042.337-.057.02-5.113 1.724c.072.047.137.093.199.136.117.082.277.195.321.183.667-.264 1.284-.115 1.882.027.209.05.424.102.636.135 1.056.163 2.272.21 3.288-.679.34-.299.704-.581 1.054-.855.157-.123.314-.245.47-.37l.058-.046.059.044c4.252 3.163 7.373 7.38 9.867 11.086l.136.203-.237-.055c-2.72-.62-5.155-1.236-7.418-2.504-.726-.408-1.526-.714-2.301-1.011a35.113 35.113 0 0 1-1.219-.486c-.226-.096-.449-.21-.664-.32-.287-.146-.584-.298-.886-.408l-.405-.146c-1.835-.661-3.732-1.345-5.416-2.441-.988-.644-2.14-.886-3.256-1.119l-.213-.045c-1.417-.3-1.584-.499-1.62-1.94a12.497 12.497 0 0 0-.015-.383c-.02-.406-.039-.825.026-1.228.332-2.073-.257-4.054-1.853-6.235-.081-.112-.23-.185-.456-.297a6.673 6.673 0 0 1-.223-.112c.415.922.625 1.67.118 2.481-.129.205-.089.579-.047.844.127.82-.146 1.535-.462 2.257l-.067.155-.099-.139-.233-.321c-.138-.188-.258-.35-.362-.521-.66-1.084-1.537-2.004-2.679-2.815-1.026-.726-2.21-1.154-3.356-1.568-.644-.233-1.31-.473-1.944-.765-.922-.426-1.929-.277-2.901-.134-.321.047-.652.097-.976.124-.081.176-.167.346-.25.513-.2.394-.388.768-.473 1.158-.163.759-.549 1.135-1.163 1.528-.784.506-1.592 1.188-1.633 2.424-.038 1.135-.222 2.28-.4 3.387l-.106.658a3.79 3.79 0 0 1-.214.725c-.113.308-.219.6-.216.891.014 1.887 1.138 3.133 3.167 3.51l.063.013.014.064c.169.845.483 1.124 1.405 1.244.223.03.447.05.67.071.299.027.608.055.91.103 2.391.384 4.337.128 5.949-.78.693-.391 1.299-.978 1.885-1.544.266-.259.542-.525.824-.771l.144-.127c.094-.118.169-.236.247-.371.241-.423.513-.898 1.424-.813l.252.023-1.889 1.393a.301.301 0 0 1-.028.022c-.251 1.134-.234 2.26-.217 3.452.01.681.021 1.384-.024 2.091.037-.008.073-.018.108-.025.126-.03.227-.054.283-.104l.064-.058c1.007-.908 1.961-1.766 2.359-3.114.27-.911.609-1.816.938-2.691l.346-.928c.078-.218.177-.433.283-.659l.164-.361.031-.07.075.014c2.186.422 4.486.965 6.457 2.521.633.499 1.371.887 2.136 1.274.385.195.801.349 1.202.497.249.093.506.188.755.292l.249.104c2.038.851 4.145 1.731 6.208 2.615 2.904 1.245 5.81 2.229 8.634 2.926.153.038.314.066.471.095.279.047.568.099.835.207 1.054.423 2.118.875 3.146 1.312l1.198.509c.074.031.151.061.226.09.172.065.349.133.512.228 2.272 1.34 4.238 2.161 6.186 2.583.491.107.974.276 1.44.438.218.076.436.151.656.222l.246.08-.238.101c-.502.214-.983.223-1.371.23l-1.243.027c-.968.021-1.97.045-2.956.043-.907-.001-1.83-.017-2.72-.031-1.177-.02-2.395-.039-3.59-.028-.615.006-1.23.009-1.845.012-2.593.011-5.273.023-7.905.29l-.556.056c-2.009.2-4.086.408-6.063 1.014-.48.148-.977.266-1.456.38-.223.053-.446.106-.668.162l-.066.017-.248-.375.041-.054c.145-.194.287-.391.429-.589.312-.432.635-.879.986-1.293 1.09-1.289.892-2.787.596-4.21-.03-.144-.192-.281-.379-.44a5.212 5.212 0 0 1-.217-.191 4.68 4.68 0 0 1-.086.173c-.068.136-.113.224-.126.312-.164 1.221-.683 2.074-1.637 2.687-.727.464-1.169 1.125-1.248 1.858-.057.536-.065 1.09-.072 1.625-.003.238-.007.477-.014.716l-.005.179-.147-.103a2.692 2.692 0 0 1-.107-.08 2.369 2.369 0 0 0-.285-.193c-.461-.25-.861-.597-1.247-.932-.521-.453-1.017-.884-1.659-1.107l.066.127-.278-.192-.374-.103.178-.031c-2.313-1.542-4.871-1.871-7.813-1.006a60.69 60.69 0 0 1-2.202.586c-.364.092-.739.188-1.125.288l-.048.013-1.667-1.414.127-.066c.377-.197.726-.433 1.063-.661.907-.61 1.764-1.187 3.001-.95.342.065.845.141 1.28.041 1.679-.383 3.232.136 4.555.654 1.064.415 2.379 1.071 3.109 2.465a33 33 0 0 0 .797-.152c-.501-1.071-1.316-1.898-2.424-2.46-.925-.471-1.948-.801-2.935-1.119l-.488-.159c-.27-.088-.587-.074-.896-.061l-.246.009a17.35 17.35 0 0 0-.855.046c-.552.039-1.124.08-1.677.012-.881-.111-1.649.081-2.531.404-.277.1-.523.242-.785.391-.325.186-.661.379-1.06.487-.378.103-.645.353-.745.699-.133.452.022.998.407 1.427.07.078.1.179.125.268.009.032.017.063.028.09l.017.042-.023.041a.48.48 0 0 0-.03.06c-.023.054-.049.11-.113.128-.972.278-1.736.985-2.144 1.99-.469 1.148-.402 2.493.172 3.508.381.673.802 1.596.678 2.793-.099.963.299 2.122 1.715 2.488.554.143.873.501.973 1.094.041.238.326.573.406.576.935-.088 1.699.316 2.439.706.309.163.628.331.948.457 1.703.663 3.177.537 4.637-.396.182-.117.366-.229.551-.34.26-.158.528-.32.781-.492 1.029-.701 2.19-1.496 2.784-2.847.611-1.397 1.393-2.491 2.462-3.438l.137-.121.023.18.092.677c.067.478.129.93.174 1.377.111 1.107-.128 1.88-.796 2.513a4.31 4.31 0 0 1-.134.118c-.254.222-.516.449-.367.825 1.064-.113 1.625-.493 2.736-2.347 1.15-1.914.447-3.862-.234-5.747l-.042-.116.123-.013c.637-.063 1.269-.132 1.896-.2 1.457-.16 2.833-.311 4.245-.394a28.114 28.114 0 0 0 2.097-.229c1.263-.17 2.571-.347 3.932-.212l.183.017-.824.971c-.54.641-1.044 1.237-1.55 1.823l-.028.033c-.223.258-.454.526-.724.74-1.419 1.119-2.565 2.643-3.609 4.805l-.111.232c-.65 1.36-1.324 2.767-3.039 3.245-.069.018-.139.154-.232.328-.043.08-.091.171-.152.273.194-.018.374-.037.541-.055.433-.046.808-.086 1.174-.078 2.358.042 4.141-.687 5.449-2.229.092-.1.183-.219.273-.331.271-.338.554-.683.892-.96a15.62 15.62 0 0 1 2.159-1.501c1.036-.583 2.106-1.148 3.139-1.694.629-.333 1.257-.665 1.883-1.003.084-.046.152-.139.226-.236.035-.044.077-.101.104-.13.292-.344.587-.688.878-1.033a72.455 72.455 0 0 1 2.253-2.582c.382-.412.958-.969 1.537-1.039a18.736 18.736 0 0 1 3.958-.054c1.377.129 2.765.354 4.107.573.49.08.978.159 1.467.235.27.041.552.07.824.098.695.074 1.411.15 2.041.422.98.423 2.023.614 3.031.8.551.1 1.122.206 1.677.347.368.093.75.173 1.122.25.965.199 1.961.405 2.793.881 1.003.577 2.072 1.072 3.105 1.55 1.481.687 3.014 1.397 4.387 2.359.317.221.635.442.954.662.61.422 1.24.857 1.85 1.299.31.227.608.479.895.721.18.153.36.307.545.454.555.445 1.113.889 1.669 1.333 1.034.824 2.066 1.649 3.096 2.479.068.053.043.126-.003.259-.02.056-.045.13-.072.219l-.038.127-.109-.074c-1.622-1.104-3.425-.944-5.169-.789-.375.033-.757.121-1.127.206-.489.112-.996.229-1.5.224-2.078-.023-4.085.355-6.137 1.156-.274.106-.574.147-.865.187l-.172.024a44.25 44.25 0 0 1-.882.111c-.481.057-.98.115-1.463.205-.935.174-1.904.352-2.827.64-1.437.447-2.608 1.171-3.769 2.335.117-.002.222 0 .313 0 .258.003.428.005.544-.061.662-.375 1.405-.428 2.273-.162l1.008.307c1.631.494 3.317 1.006 4.933 1.626 1.117.43 2.211.969 3.269 1.49.504.248 1.027.505 1.543.746 1.122.524 2.443 1.05 3.9.668.273-.071.675-.097.983.041.838.374 1.586.072 2.309-.222.239-.096.497-.148.746-.199.095-.018.191-.039.285-.059 1.598-.366 3.409-.878 4.718-2.346.28-.316.587-.617.884-.908.173-.172.348-.343.519-.518.527-.542 1.054-.375 1.543-.114.901.48 1.579 1.157 2.296 1.874l.115.115c1.476 1.473 3.023 2.925 4.52 4.33.596.561 1.193 1.12 1.788 1.685l.099.09c.069.058.137.12.199.191a41.708 41.708 0 0 0 4.86 4.871c.541.459 1.025.996 1.494 1.516l.265.291c.294.324.581.663.857.992.255.302.519.614.786.912.42.467.848.928 1.275 1.39.722.78 1.469 1.588 2.171 2.41.484.566.945 1.168 1.391 1.75.474.619.965 1.259 1.483 1.856.897 1.036 1.877 2.033 2.823 2.997l.461.47c.14.144.316.267.487.386.233.162.474.331.641.559.856 1.17 1.982 1.96 3.174 2.796l.192.135a29.242 29.242 0 0 1 3.299 2.664c1.079 1.02 2.118 2.115 3.122 3.175.321.338.642.677.966 1.014.506.528 1.009 1.077 1.497 1.606.226.247.453.493.68.738l.055.06-.27.358-.069-.027-20.484-7.997.012-.077c.048-.293.099-.567.148-.828.105-.569.195-1.06.23-1.561.009-.121.019-.245.031-.37.054-.635.11-1.291-.101-1.812-.45-1.109-1.017-2.194-1.566-3.244-.183-.35-.365-.699-.544-1.05a17.01 17.01 0 0 0-.186 1.666c-.027.355-.056.724-.1 1.084-.09.733-.239 1.47-.382 2.184-.064.317-.127.634-.186.95l-.018.1-.099-.023-.031-.004c-.048-.005-.113-.013-.149-.071-.019-.032-.041-.064-.061-.096a1.29 1.29 0 0 1-.187-.377c-.415-1.73-1.271-3.369-2.78-5.314-.848-1.092-2.063-1.531-3.35-1.995-.697-.252-1.416-.512-2.062-.884-.027-.016-.102-.004-.164.007-.061.01-.124.021-.188.018-1.937-.11-3.684.526-5.374 1.147a7.107 7.107 0 0 0-.112.411c-.077.31-.143.575-.311.777l-.114.136c-.698.836-1.418 1.703-2.254 2.412-.972.828-1.361 1.824-1.258 3.225.023.329.03.746-.131 1.047-.286.535-.191.995-.026 1.587.282 1.006.944 1.712 2.148 2.29l.069.033-.016.075a3.506 3.506 0 0 0-.042.202c-.026.126-.049.246-.087.36-.286.877-.304 1.487-.057 1.922.249.436.789.734 1.701.935.515.115 1.114.261 1.724.554 1.713.825 3.148 1.023 4.516.624.385-.112.769-.255 1.141-.392.405-.15.825-.305 1.249-.422 1.205-.335 2.234-1.018 3.141-2.086a10.195 10.195 0 0 0 .172-.208c.178-.211.4-.387.613-.557.102-.083.204-.164.303-.249l.061-.054.063.052.2.167.066.057-.05.072c-.407.588-.712 1.257-1.006 1.902-.51 1.114-1.032 2.262-2.116 3.143.052.025.099.051.142.073.118.064.204.109.266.106 2.081-.148 3.861-.979 5.445-2.542 1.241-1.229 1.7-2.491 1.418-3.966-.014-.076.022-.143.07-.236.026-.047.057-.105.09-.179l.039-.089.529.238c.368.165.736.33 1.101.503.191.091.381.196.563.299.351.195.712.398 1.087.488 2.126.507 3.927 1.556 5.26 2.412.69.444 1.449.813 2.185 1.168.306.149.614.297.917.451.451.23.985.497 1.519.736l.158.071c.537.24 1.09.489 1.65.683.4.138.778.347 1.143.549.746.412 1.449.8 2.347.674.26-.037.549.064.822.17.417.163.839.342 1.245.516.785.334 1.596.679 2.419.92a10.556 10.556 0 0 1 4.163 2.304c.675.603 1.401 1.178 2.101 1.733l.264.208c.508.402 1.018.8 1.529 1.198.833.649 1.692 1.318 2.523 1.998.246.199.46.441.668.673.271.303.525.588.839.792 2.03 1.327 4.13 2.924 6.422 4.88 2.145 1.829 4.295 3.651 6.437 5.465l2.778 2.355-.01.055c-.238 1.338.101 2.001 1.299 2.533.43.189.817.353 1.229.445.097.023.196.043.294.065.921.196 1.874.398 2.337 1.501.075.175.247.315.429.466.101.083.203.168.293.261.737.774 1.472 1.549 2.206 2.327l.344.363c.097.103.192.208.287.312.113.125.228.25.345.371l.771.8c.924.957 1.878 1.947 2.828 2.91a32.15 32.15 0 0 0 1.828 1.726c.078.066.228.081.376.094-1.266-1.518-2.643-2.909-3.977-4.258l-.82-.831c-1.152-1.172-2.278-2.354-3.47-3.605a454.217 454.217 0 0 0-1.694-1.772l-.164-.171.237.008c.149.004.276-.002.383-.006.209-.01.347-.016.445.067.185.16.349.344.507.524.126.141.256.289.394.42.442.415.891.824 1.34 1.232.832.758 1.693 1.542 2.49 2.361 1.306 1.343 2.58 2.759 3.812 4.128l.935 1.037c.185.205.33.446.457.659.057.094.112.185.167.269l.024.036-.012.042c-.2.725-.755.871-1.291 1.014-.365.097-.714.189-.944.461a.621.621 0 0 0-.049.063c.412.492.887.583 1.619.315.674-.245 1.334-.436 2.009-.082l.039-.09.011.014c.258-.386.627-.321.935-.263.103.019.201.038.295.043l.075.003.014.074c.172.844.701 1.417 1.276 1.978 1.162 1.132 2.326 2.302 3.452 3.433.464.469.932.939 1.399 1.406.343.343.687.684 1.031 1.026.884.876 1.796 1.782 2.671 2.697.228.239.383.54.534.833.068.131.135.262.207.385l.087.146-.17-.001c-1.186-.004-1.665-.188-2.155-1.264l-.053-.119c-.229-.51-.426-.951-1.044-1.127-.392-.111-.752-.512-.919-.837-.596-1.149-1.499-2.075-2.372-2.972a41.52 41.52 0 0 1-.797-.834 46.578 46.578 0 0 0-2.402-2.385c.346.403.682.816 1.009 1.218l.517.632 3.865 4.686-.247-.035c-.976-.14-1.886-.402-2.766-.656-.295-.084-.588-.169-.883-.248a248.41 248.41 0 0 0-5.893-1.503 46.798 46.798 0 0 0-1.494-.334c-.658-.141-1.337-.285-1.997-.463-.363-.098-.817-.397-.95-.725l-.08-.203c-.448-1.111-.91-2.258-1.155-3.437-.55-2.655-1.58-5.135-3.147-7.581-.773-1.206-1.634-2.378-2.452-3.464l-.116-.155c-.359-.485-.731-.985-1.208-1.22-1.367-.672-2.677-1.603-4.124-2.931a40.227 40.227 0 0 0-1.468-1.26c-.435-.363-.886-.738-1.315-1.123-.449-.403-.893-.828-1.322-1.237-.51-.486-1.038-.99-1.577-1.461a2.25 2.25 0 0 1-.251-.278c-.161-.197-.327-.4-.503-.414-.086-.006-.176.034-.272.123-.089.08-.137.163-.14.247-.003.176.18.361.358.54.1.102.195.197.262.296.179.27.421.517.655.755.328.336.666.682.848 1.102l.215.5c.869 2 1.765 4.069 1.738 6.394-.012 1.059.009 2.267.429 3.216.757 1.711 1.869 3.884 3.755 5.524.239.208.494.409.74.603.296.235.604.477.888.736.173.155.345.312.516.469 1.271 1.158 2.587 2.357 4.158 3.171.074.039.119.106.187.211.037.057.085.13.151.219l.137.184-.227-.03a9.78 9.78 0 0 0-.252-.03 1.715 1.715 0 0 1-.308-.049c-.507-.144-1.014-.287-1.523-.428-1.34-.375-2.726-.763-4.075-1.189a36.247 36.247 0 0 1-3.728-1.395c-.606-.268-1.197-.596-1.767-.913a28.13 28.13 0 0 0-1.262-.677c-.646-.319-1.309-.633-1.95-.936-.971-.458-1.974-.931-2.94-1.44-.659-.347-1.25-.835-1.662-1.373-.378-.492-.7-1.035-1.011-1.561-.26-.438-.529-.891-.827-1.309-1.946-2.735-4.611-4.901-8.641-7.024-2.972-1.566-5.523-2.337-8.025-2.431-.356-.014-.705-.134-1.059-.266a7.16 7.16 0 0 1-.629-.133l-.123-.032c-.23-.059-.466-.12-.7-.155a2.95 2.95 0 0 0-.189-.021h.001a.512.512 0 0 1-.059 0l-.045.001a1.125 1.125 0 0 0-.075.006l-.124.028-.053.018h-.003a.796.796 0 0 1-.072.047l-.04.043a.495.495 0 0 1 .004.036.378.378 0 0 1 .01.033l.013.052a.721.721 0 0 0 .027.064c.01.023.019.044.027.068a.962.962 0 0 1 .035.06l.072.119c.06.096.123.189.186.281l.092.135c.098.141.198.287.289.438.075.126.143.267.203.421l.12.089c.265.198.541.402.744.666.439.571.862 1.171 1.272 1.75.71 1.008 1.445 2.05 2.284 2.964.876.953 1.994 1.831 3.629 2.843.838.52 1.78.914 2.69 1.292.38.16.758.317 1.131.485.175.079.351.165.525.25.454.222.923.451 1.403.554.202.043.403.087.604.133 1.052.238 2.139.484 3.277.356l.151-.017c.577-.069 1.368-.163 1.884.418.813.912 1.854 1.542 2.861 2.153.341.207.696.421 1.036.643l.136.089c.684.45 1.331.875 2.208.766.273-.036.572.141.833.299l.072.042c.305.182.607.379.9.569.47.306.956.622 1.458.878.502.255 1.027.485 1.533.708 1.007.443 2.05.901 2.972 1.573.153.112.361.155.581.202.131.028.266.058.392.102.862.304 1.723.614 2.585.924l.86.31-.098.5-.082-.003a63.955 63.955 0 0 0-1.315-.022c-1.006-.013-2.047-.025-3.063-.129-.538-.055-1.074-.197-1.59-.333-.577-.153-1.172-.311-1.761-.344-1.43-.08-2.902-.365-4.772-.925a6.49 6.49 0 0 0-3.727.018c-1.172.348-2.327.833-3.445 1.301-.427.179-.854.359-1.283.531-.191.077-.384.15-.579.223-.582.222-1.184.45-1.705.777-.673.422-1.324.445-1.939.067-.09.109-.173.219-.255.324-.202.269-.396.522-.644.71-1.606 1.23-3.032 2.137-4.762 2.567-.433.108-.877.308-.957.962 3.767-.874 7.266.119 10.65 1.08.483.136.965.273 1.448.404l.071.02v.067c.192.077.386.149.58.214l.104.007c.061.004.123.007.182.018.217.04.435.086.652.131l.171.037c.361-.037.724-.026 1.154-.001.978.061 1.949-.242 2.809-.874l.069-.051c2.392-1.754 4.864-3.568 7.254-5.41.681-.525 1.27-.492 1.943-.282l.106.033-.415.887c-.234.499-.454.972-.672 1.445l-.338.731c-.486 1.052-.989 2.14-1.466 3.219-.067.153-.081.334-.094.527a3.506 3.506 0 0 1-.021.232l-.034.282c-.088.735-.177 1.47-.257 2.207l-.058.526a198.274 198.274 0 0 0-.33 3.153c-.064.692-.262 1.543-1.229 1.994-.131.062-.238.214-.353.375-.033.047-.067.096-.103.144.787.223 1.167.151 1.822-.303.138-.095.271-.202.402-.306.25-.199.51-.404.802-.542 2.009-.946 2.713-2.89 3.104-4.478.295-1.193.316-2.48.337-3.725.01-.586.021-1.192.059-1.784.03-.483-.016-.986-.06-1.473-.104-1.124-.212-2.284.587-3.364l.02-.026.031-.009c.022-.006.045-.017.073-.027a.635.635 0 0 1 .302-.068c1.489.149 3.219.259 4.91-.307.462-.155 1.056-.011 1.49.094 1.501.36 3.018.763 4.485 1.153l.266.071c1.445.384 2.911.788 4.329 1.178l.127.035c.565.156 1.137.331 1.69.5 1.236.377 2.516.767 3.798.971.737.115 1.425.38 2.089.635.696.269 1.416.545 2.177.642.409.051.805.418 1.139.771.503.53.997 1.086 1.475 1.624.388.437.79.889 1.195 1.326l1.3 1.403a477.77 477.77 0 0 0 5.847 6.234c1.187 1.238 2.441 2.454 3.652 3.629.439.426.879.853 1.316 1.281.248.242.511.481.764.712.295.268.601.546.889.834.788.792 1.571 1.59 2.354 2.388.76.775 1.522 1.549 2.286 2.319.769.772 1.535 1.523 2.344 2.317l1.137 1.117.111.109-.148.051c-.099.034-.177.066-.238.09-.122.051-.196.081-.265.035-2.339-1.577-4.749-2.114-7.367-1.643-.266.048-.54.03-.807.012l-.148-.007c-.673-.037-1.347-.078-2.02-.119-1.456-.088-2.962-.179-4.443-.214-.697-.017-1.619.008-2.564.343-1.545.549-3.514 1.379-5.031 2.94-.7.72-1.335 1.174-2.046 1.464l.045.204c.043.188.084.366.095.545.008.173-.02.343-.041.468l-.001.005.734.025c.51.016.986.032 1.464.046.106.003.215.007.323.013.28.016.569.03.843-.007 1.622-.22 3.537-.367 5.44.206.943.284 1.911.141 3.142-.462.49-.24.973-.521 1.44-.792.659-.383 1.34-.779 2.054-1.07l.189-.076c1.251-.512 2.544-1.041 3.957-.936l.467.034c1.491.106 3.034.218 4.524.483 1.991.353 4.287.918 6.221 2.423.542.421 1.202.715 1.839 1 .279.124.566.253.84.391.373.185.748.367 1.122.548.303.147.607.294.908.443l1.625.801c1.461.717 2.972 1.46 4.447 2.212 1.522.776 3.006 1.541 4.418 2.378.567.338 1.114.728 1.642 1.105.571.405 1.159.825 1.772 1.176a333.136 333.136 0 0 0 5.556 3.094c.971.532 1.94 1.064 2.907 1.601.211.116.398.261.597.414.091.069.182.139.278.208l.055.04-.019.067c-.513 1.727-.319 3.459-.13 5.132.062.56.128 1.137.165 1.705.086 1.312.399 2.635.703 3.916.126.534.257 1.084.37 1.628.085.413.217.822.323 1.132.089.259.218.515.343.763.318.628.645 1.277.406 2.093-.029.099.052.266.124.415l.068.145c.194.456.393.91.594 1.364.401.91.815 1.852 1.176 2.796.561 1.472 1.391 2.587 2.538 3.412.223.159.404.381.579.596.213.26.412.507.671.631.809.389 1.1 1.059 1.307 1.656.169.484.323.98.473 1.46.085.275.17.549.259.824l.011.037c.413 1.283.84 2.609.678 4.077.657.034.75-.389.848-.836.022-.102.044-.202.072-.294.328-1.072.604-2.153.858-3.168l.086-.338c.298-1.162.605-2.363.267-3.542-.224-.776-.545-1.541-.856-2.281-.172-.411-.35-.836-.511-1.26-.617-1.626-1.316-3.468-1.208-5.435.129-2.32-.193-4.571-.979-6.879-.065-.191-.094-.389-.136-.665a15.51 15.51 0 0 0-.086-.537l-.054-.305.218.22c.198.202.375.378.537.54.323.326.579.583.831.852a520.42 520.42 0 0 1 3.604 3.885c.509.555 1.013 1.115 1.516 1.676.472.526.944 1.051 1.422 1.573l.664.732c.712.787 1.449 1.602 2.219 2.357.874.855 1.786 1.702 2.668 2.521.649.602 1.321 1.226 1.972 1.849.429.41.847.851 1.25 1.278.769.813 1.564 1.653 2.468 2.302 2.042 1.464 3.993 3.104 5.661 4.526 1.854 1.579 3.793 3.122 5.669 4.615.452.359.903.717 1.355 1.078.395.315.818.615 1.226.904.371.263.754.534 1.118.818.253.198.481.431.699.659-.228-.484-.52-.97-.926-1.335-1.004-.898-2.075-1.759-3.109-2.591-.332-.268-.665-.535-.995-.804a77.043 77.043 0 0 0-1.362-1.074c-.951-.739-1.936-1.503-2.818-2.347-1.091-1.041-2.38-2.232-3.871-3.181-.906-.578-1.859-1.214-2.683-1.967-1.655-1.51-3.287-3.099-4.867-4.634l-.761-.74a6.346 6.346 0 0 1-.528-.609c-.225-.282-.438-.549-.703-.756-1.654-1.295-3.076-2.862-4.45-4.377-.355-.39-.711-.783-1.07-1.168-.783-.844-1.57-1.685-2.358-2.526-1.243-1.328-2.531-2.703-3.782-4.067-1.005-1.097-1.846-2.138-1.961-3.767l-.019-.275.186.203c.569.62 1.126 1.228 1.677 1.832 1.174 1.282 2.317 2.533 3.468 3.775.963 1.042 1.963 2.082 2.928 3.089l.091.095c.362.377.728.75 1.095 1.122.55.561 1.12 1.141 1.664 1.725.316.338.618.698.911 1.046.349.415.71.844 1.092 1.237.346.354.724.694 1.088 1.021.513.461 1.043.936 1.496 1.466l.174.203c.988 1.162 1.922 2.258 3.368 2.808.108.043.191.127.272.207l.066.066a87.03 87.03 0 0 1 1.816 1.768c1.346 1.337 2.74 2.72 4.278 3.844.73.533 1.44 1.113 2.128 1.673 1.177.962 2.395 1.956 3.756 2.752 2.951 1.729 5.844 3.665 8.643 5.538 1.221.817 2.483 1.662 3.733 2.477.122.079.267.129.452.191l.165.058-.023-.121c-.021-.12-.042-.234-.081-.264a170.534 170.534 0 0 0-3.948-2.892 80.415 80.415 0 0 0-1.87-1.274c-.537-.36-1.094-.732-1.634-1.108-.354-.247-.703-.513-1.042-.77-.451-.344-.918-.7-1.4-1.011-1.061-.689-2.16-1.361-3.22-2.01-.457-.28-.914-.559-1.37-.842l-.068-.042c-.093-.056-.191-.114-.276-.188-.36-.317-.719-.634-1.078-.953-.586-.52-1.193-1.058-1.799-1.579a1306.95 1306.95 0 0 0-7.283-6.21c-.334-.282-.693-.55-1.041-.809-.525-.394-1.068-.799-1.541-1.266-1.159-1.139-2.295-2.344-3.392-3.507-.435-.46-.87-.921-1.307-1.379a724.694 724.694 0 0 1-2.092-2.201l-1.26-1.325a573.098 573.098 0 0 1-3.031-3.201 137.14 137.14 0 0 1-2.581-2.841c-.24-.271-.462-.563-.676-.849l-.291-.379-.046-.059.274-.357.072.037c.213.111.426.223.637.336.532.283 1.081.575 1.632.833.21.098.445.143.693.191l.004.001-.051-.048c-.215-.207-.418-.402-.658-.526-.869-.448-2.017-1.026-3.205-1.511-.826-.338-1.379-.923-1.912-2.019l-.117-.243.245.114c.164.076.313.139.449.196.255.108.477.202.673.33 1.09.703 2.297 1.254 3.69 1.683 1.368.419 2.642.968 4.167 1.642.351.155.679.374.995.586.301.201.611.409.939.557 1.785.813 3.693 1.646 6.189 2.7 1.53.645 3.064 1.282 4.599 1.918 1.582.655 3.216 1.333 4.819 2.01 2.307.976 4.749 2.033 7.682 3.325.524.23 1.047.484 1.554.73.737.359 1.499.729 2.273 1.03 1.712.667 3.448 1.21 4.77 1.609 2.449.74 5.079 1.504 8.526 2.478.412.115.824.252 1.223.384 1.121.371 2.278.756 3.505.71.137-.006.275-.052.423-.103.05-.019.1-.035.15-.051l.015-.13a7.786 7.786 0 0 1-.289-.11c-.272-.106-.526-.206-.79-.234-.507-.052-.788-.247-.837-.579-.232-.029-.46-.049-.683-.067-.54-.046-1.05-.089-1.527-.257l-.456-.163c-1.431-.512-2.909-1.039-4.458-1.218a2.5 2.5 0 0 1-.6-.173c-.06-.022-.122-.046-.182-.066l-.582-.203c-.625-.219-1.273-.444-1.903-.681-.905-.339-1.849-.613-2.762-.88-1.543-.45-3.138-.916-4.613-1.704-1.287-.69-2.672-1.254-4.01-1.801a80.496 80.496 0 0 1-2.058-.86 75.245 75.245 0 0 1-1.737-.796c-.657-.307-1.336-.625-2.012-.915-.432-.186-.862-.375-1.293-.563-1.841-.81-3.744-1.648-5.724-2.191-.118-.032-.231-.081-.34-.128-.055-.023-.11-.048-.165-.068l-2.95-1.145c-.254-.099-.511-.193-.767-.288-.568-.209-1.154-.425-1.707-.69-.998-.48-2.004-.984-2.977-1.47-1.514-.756-3.078-1.539-4.642-2.248-.468-.213-.954-.414-1.422-.609-1.444-.601-2.935-1.221-4.38-2.3l-.255-.191.318.017c.254.014.48.023.688.033.401.019.749.034 1.087.067l.113.01c1.664.161 3.236.313 4.759-.537.624-.346 1.363-.629 2.258-.862a9.815 9.815 0 0 1 2.358-.337c.706-.009 1.422.058 2.114.121.271.025.54.049.811.07.054-.647.05-.648-.249-.814l-.086-.047c-.77-.424-1.566-.863-2.373-1.233-2.334-1.073-4.29-1.623-6.158-1.735-1.797-.106-3.728-.186-5.673-.053l-.242.017c-1.6.107-3.254.218-4.554 1.4-.107.097-.28.059-.519.007a4.241 4.241 0 0 0-.359-.065l-.14-.018.068-.124.35-.655c.239-.45.445-.838.669-1.227 1.107-1.923 1.425-4.102 1.733-6.208.05-.347.1-.693.155-1.039.136-.881.054-1.818-.024-2.724a39.904 39.904 0 0 1-.067-.832c-.114-1.736-.26-3.788-.475-5.834-.1-.963-.274-1.749-.53-2.403l-.111-.287c-.686-1.756-1.394-3.573-2.272-5.293-.626-1.227-1.109-2.549-1.578-3.828a84.324 84.324 0 0 0-.706-1.878c-.159-.426-.298-.798-.957-.794.007.103.011.205.015.307.008.289.017.562.103.806.824 2.355.848 4.435.072 6.355l-.01.029c-.287.711-.583 1.449-.81 2.191a17.488 17.488 0 0 0-.541 2.286c-.151.935-.534 1.79-.902 2.618-.253.566-.514 1.15-.694 1.746-.764 2.538-.75 5.289.046 8.176.28 1.017.515 2.061.744 3.07.108.47.213.94.325 1.408l.016.07-.392.221-.052-.054c-.269-.283-.541-.563-.812-.844a78.187 78.187 0 0 1-1.905-2.016c-.302-.335-.583-.696-.854-1.044-.318-.406-.644-.825-1.001-1.2a89.051 89.051 0 0 0-2.313-2.325c-1.05-1.03-2.137-2.096-3.136-3.219-.973-1.093-2.047-2.133-3.084-3.138-.587-.569-1.194-1.155-1.777-1.747-.472-.48-.912-.989-1.301-1.44-.16-.186-.312-.363-.455-.523l-.025-.028.001-.038c.003-.225.015-.431.027-.623.023-.362.042-.675-.014-.965-.287-1.488-.017-3.055.802-4.662.358-.7.742-1.398 1.116-2.074.674-1.221 1.372-2.484 1.924-3.803.937-2.23 1.11-4.358.527-6.504-.297-1.096-.512-2.3-.673-3.789-.069-.623-.065-1.261-.061-1.878.002-.423.005-.86-.015-1.287-.011-.25-.14-.596-.288-.672-.167-.082-.539.079-.74.165a.98.98 0 0 0-.442.392c-1.19 2.051-2.345 4.298-2.734 6.83-.106.685-.334 1.357-.556 2.008-.129.38-.263.773-.37 1.163-.132.483-.286.972-.436 1.445-.376 1.194-.766 2.428-.831 3.652-.068 1.334.24 2.718.539 4.058.077.344.154.686.225 1.028.088.43.225.842.371 1.277.275.83.562 1.687.527 2.732l-.008.231-.961-1.021c-.568-.604-1.098-1.169-1.634-1.731-1.407-1.476-1.618-3.389-1.704-5.065-.017-.322-.031-.645-.046-.968-.058-1.296-.118-2.635-.312-3.93-.267-1.783-.632-3.584-.985-5.325-.115-.571-.232-1.143-.344-1.715-.232-1.18-.627-2.084-1.239-2.843-1.946-2.404-3.668-5.137-5.416-8.601-.46-.912-1.176-1.698-1.747-2.281-1.058-1.08-2.199-2.067-3.303-3.022-.097-.083-.286-.096-.506-.111a5.16 5.16 0 0 1-.277-.023c.162.657.326 1.298.488 1.931.391 1.528.76 2.973 1.067 4.448.412 1.99.29 4.131-.373 6.545l-.047.171-.119-.132c-.337-.378-.612-.781-.876-1.172-.204-.3-.397-.586-.616-.857-1.355-1.675-2.735-3.501-3.419-5.771-.131-.437-.366-.857-.557-1.175-.36-.597-.728-1.19-1.097-1.783-.67-1.077-1.362-2.192-1.991-3.317-.447-.802-.748-1.681-.845-2.476-.21-1.71.199-3.368.578-4.623 1.12-3.712 1.504-7.209 1.172-10.691l-.012-.125c-.254-2.655-.517-5.402-.277-8.122.155-1.757-.146-3.34-.897-4.704-.711-1.288-1.494-2.547-2.25-3.764-.319-.51-.632-1.015-.938-1.517-.219-.005-.375.039-.468.13-.093.092-.132.238-.122.471.015.375.048.757.081 1.126.04.449.081.915.088 1.375l.01.437c.033 1.315.068 2.673-.896 3.81-.026.03-.052.063-.081.092-.108.121-.163.293-.211.437-.183.55-.372 1.101-.559 1.65-.496 1.447-1.009 2.944-1.43 4.437-.26.921-.326 1.875-.185 2.687.469 2.723 1.24 5 2.354 6.962.155.272.277.566.394.85.131.317.265.644.444.933 1.06 1.707 1.807 3.695 2.284 6.08.024.114-.031.229-.095.361a2.24 2.24 0 0 0-.094.211l-.069.183-.104-.164a17.01 17.01 0 0 0-.246-.381 6.675 6.675 0 0 1-.384-.63c-.573-1.12-1.144-2.24-1.714-3.361-.712-1.399-1.423-2.798-2.141-4.193-.195-.378-.412-.754-.622-1.118-.356-.617-.725-1.255-.996-1.924-.751-1.872-1.472-3.791-2.172-5.646a491.586 491.586 0 0 0-1.231-3.25c-.269-.697-.557-1.4-.836-2.081-.444-1.086-.903-2.208-1.296-3.334-1.213-3.479-2.359-6.965-3.625-10.835-.166-.508-.267-1.025-.376-1.573-.049-.251-.098-.505-.156-.762l-.019-.082.08-.029c.121-.045.227-.094.325-.137.195-.088.364-.164.541-.168 1.507-.039 2.786-.751 4.023-1.439.345-.194.703-.393 1.061-.574.593-.301 1.152-.705 1.692-1.095 1.046-.756 2.127-1.538 3.552-1.653a.191.191 0 0 0 .078-.027c2.067-1.39 3.641-3.21 4.673-5.41.242-.515.464-1.049.678-1.567.601-1.452 1.218-2.957 2.355-4.168a.618.618 0 0 0 .057-.189l.013-.077c-.398-.252-.694-.039-1.011.243a6.872 6.872 0 0 0-.81.858 5.262 5.262 0 0 1-.173.211c-1.056 1.246-2.475 2.156-4.22 2.706-.983.31-1.827.821-2.674 1.361-.361.23-.733.469-1.1.722-.493.339-.991.674-1.489 1.008-1.174.784-2.387 1.598-3.509 2.485-.183.145-.367.289-.552.432-1.255.975-2.553 1.986-3.338 3.449-.047.084-.13.135-.256.207-.068.039-.15.086-.25.152l-.118.078-.029-.139c-.049-.225-.1-.443-.149-.655a13.39 13.39 0 0 1-.259-1.287c-.155-1.151-.298-2.321-.438-3.455-.117-.95-.234-1.901-.358-2.849-.048-.371-.12-.75-.19-1.116-.135-.708-.275-1.44-.251-2.162.004-.156.011-.313.018-.469.033-.827.065-1.607-.083-2.409-.023-.129.028-.262.074-.378.018-.044.035-.089.046-.131l.024-.082.084.013c.223.033.44.067.653.101.462.075.898.145 1.34.19 2.262.239 3.863-.889 5.572-2.656.323-.331.365-.606.128-.892-.225.109-.45.23-.67.351-.558.3-1.133.612-1.744.742-.633.134-1.292.099-1.99.063-.308-.016-.626-.033-.948-.034l-.163-.002.079-.142c.058-.103.097-.183.125-.246.054-.11.085-.176.16-.206 2.27-.841 3.677-2.315 4.298-4.502.26-.913.66-1.799 1.046-2.656.099-.222.199-.443.296-.664.148-.335.32-.665.486-.983.213-.41.434-.831.6-1.264.19-.491.223-1.063.23-1.505.007-.472-1.776-3.598-2.142-3.897a2.558 2.558 0 0 0-.18-.129 4.669 4.669 0 0 1-.136-.095 3.358 3.358 0 0 0-.157-.108 1.484 1.484 0 0 1-.367-.304c-1.206-1.516-2.968-1.667-4.671-1.813z"
        fill="#687E6B" />
</svg>